<?xml version="1.0" standalone="no"?>
<!DOCTYPE svg PUBLIC "-//W3C//DTD SVG 1.1//EN" "http://www.w3.org/Graphics/SVG/1.1/DTD/svg11.dtd" >
<svg xmlns="http://www.w3.org/2000/svg" xmlns:xlink="http://www.w3.org/1999/xlink" version="1.1">
<metadata>
Created by FontForge 20170731 at Sat May 27 13:23:46 2023
 By Aleksey,,,
Copyright (c) 2021 by __Designer__. All rights reserved.
</metadata>
<defs>
<font id="LamaSans-MediumItalic" horiz-adv-x="0" >
  <font-face 
    font-family="Lama Sans Medium Italic"
    font-weight="500"
    font-style="italic"
    font-stretch="normal"
    units-per-em="2048"
    panose-1="0 0 2 0 0 0 0 0 0 0"
    ascent="1638"
    descent="-410"
    x-height="1024"
    cap-height="1434"
    bbox="-1096 -868 3021 2247"
    underline-thickness="102"
    underline-position="-347"
    unicode-range="U+000D-FEFC"
  />
<missing-glyph horiz-adv-x="972" 
d="M799 1434v-1946h-619v1946h619zM647 1303h-319v-64h125v-72h-127v-63h321v63h-127v72h127v64zM520 1053h-194v-203h321v65h-127v138zM453 987v-72h-64v72h64zM647 797h-321v-64h127v-71h-127v-64h194v135h127v64zM647 680h-63v-127h-258v-68h321v195zM647 442h-194v-108
h67v45h64v-92h-195v155h-63v-219h321v219zM647 106h-321v-219h321v219zM584 43v-92h-195v92h195zM647 -158h-321v-63h135l-135 -92v-64h321v64h-198l137 92h61v63z" />
    <glyph glyph-name="uniFDF2" unicode="&#x627;&#xfedf;&#xfee0;&#xfeea;" horiz-adv-x="3053" arabic-form="isolated" 
d="M1352 1851h-84l-47 220l77 26zM1290 1513q-59 0 -106 39t-62 107l-16 80h86l16 -80q15 -60 64 -60q51 0 35 70l-25 115h86l23 -103q4 -24 20.5 -36.5t38.5 -12.5q60 0 45 72l-29 135h86l29 -135q17 -73 -10.5 -117.5t-89.5 -44.5q-56 0 -101 45q-7 -35 -32 -54.5
t-58 -19.5zM2718 1434l303 -1434h-176l-303 1434h176zM2175 1427l240 -1128q26 -124 -43.5 -211.5t-192.5 -87.5h-180q-75 0 -147.5 34t-129.5 93q-27 -58 -84 -92.5t-131 -34.5h-170q-93 0 -180 49.5t-145 132.5q-37 -83 -117.5 -132.5t-185.5 -49.5q-122 0 -239 59
t-200 161t-108 222l-17 76q-41 194 62 319.5t297 125.5h457l133 -615q15 -75 72 -123.5t134 -48.5h152q66 0 104 48.5t25 115.5l-231 1087h176l231 -1089q19 -68 78.5 -115t126.5 -47h178q51 0 79.5 36t18.5 87l-239 1128h176zM672 176q117 0 182 82.5t39 200.5l-70 329
h-282q-114 0 -181 -76t-43 -194l15 -67q26 -115 125 -195t215 -80z" />
    <glyph glyph-name="uniFEF5" unicode="&#xfedf;&#xfe82;" horiz-adv-x="1253" arabic-form="isolated" 
d="M141 1286l-67 62l112 92q9 8 24.5 6t27.5 -12q75 -64 200 -64q31 0 79.5 16t82.5 33l57 -90q-36 -23 -95.5 -42t-100.5 -19q-117 0 -223 73q-16 10 -29 0zM1190 299q26 -124 -43.5 -211.5t-192.5 -87.5h-702l-37 176h315l-196 928h174l199 -928h208q51 0 80 36t19 87
l-240 1128h176z" />
    <glyph glyph-name="uniFEF6" unicode="&#xfee0;&#xfe82;" horiz-adv-x="1351" arabic-form="final" 
d="M104 1286l-65 64l111 90q11 9 26 8t27 -12q36 -33 91 -49.5t109 -16.5q56 0 162 49l58 -90q-39 -23 -98 -42t-99 -19q-121 0 -225 75q-18 11 -27 -2zM1575 90q7 -38 -14 -64t-58 -26h-80q-76 0 -148 34t-128 93q-28 -58 -84.5 -92.5t-130.5 -34.5h-682l-37 176h315
l-196 926h176l197 -926h172q66 0 103.5 48t23.5 116l-232 1087h176l232 -1089q19 -68 79 -115t127 -47h82q36 0 68 -25t39 -61z" />
    <glyph glyph-name="uniFEF7" unicode="&#xfedf;&#xfe84;" horiz-adv-x="1312" arabic-form="isolated" 
d="M612 1348l21 -95h-389l-21 95h70q-44 44 -53 96q-10 73 31 122.5t112 49.5q65 0 121.5 -38.5t83.5 -96.5l-66 -47q-43 88 -119 88q-37 0 -55.5 -24.5t-9.5 -61.5q7 -33 34.5 -60.5t67.5 -27.5h172zM1247 299q26 -124 -42 -211.5t-191 -87.5h-705l-37 176h318l-199 928
h176l197 -928h209q52 0 81.5 36t18.5 87l-239 1128h174z" />
    <glyph glyph-name="uniFEF8" unicode="&#xfee0;&#xfe84;" horiz-adv-x="1351" arabic-form="final" 
d="M557 1348l21 -95h-390l-20 95h70q-46 50 -54 96q-9 74 32.5 123t113.5 49q64 0 120 -38t85 -97l-66 -47q-20 40 -51.5 64t-69.5 24q-35 0 -53.5 -24.5t-11.5 -61.5q7 -33 34.5 -60.5t67.5 -27.5h172zM1577 90q7 -38 -14 -64t-58 -26h-80q-76 0 -148 34t-128 93
q-28 -58 -84.5 -92.5t-130.5 -34.5h-598q-40 0 -71 25t-38 63q-9 38 11.5 63t60.5 25h231l-196 926h176l195 -926h174q66 0 103.5 48t23.5 116l-232 1087h176l232 -1089q19 -68 79.5 -115t127.5 -47h81q36 0 68 -25t39 -61z" />
    <glyph glyph-name="uniFEF9" unicode="&#xfedf;&#xfe88;" horiz-adv-x="1253" arabic-form="isolated" 
d="M1190 299q26 -124 -43.5 -211.5t-192.5 -87.5h-702l-37 176h315l-196 928h174l199 -928h208q51 0 80 36t19 87l-240 1128h176zM735 -432h172l19 -94h-389l-19 94h70q-47 47 -53 96q-10 73 30 122.5t111 49.5q65 0 122 -38.5t85 -96.5l-68 -47q-18 40 -49 64t-70 24
q-35 0 -53.5 -24.5t-9.5 -61.5q5 -33 33.5 -60.5t68.5 -27.5z" />
    <glyph glyph-name="uniFEFA" unicode="&#xfee0;&#xfe88;" horiz-adv-x="1351" arabic-form="final" 
d="M1577 90q7 -38 -14 -64t-58 -26h-80q-76 0 -148 34t-128 93q-28 -58 -84.5 -92.5t-130.5 -34.5h-682l-37 176h315l-196 926h176l195 -926h174q66 0 103.5 48t23.5 116l-232 1087h176l232 -1089q19 -68 79.5 -115t127.5 -47h81q36 0 68 -25t39 -61zM745 -432h173l18 -92
h-389l-19 92h70q-48 52 -53 98q-9 74 31 123t112 49q65 0 121.5 -38.5t83.5 -98.5l-66 -47q-42 88 -118 88q-37 0 -56 -24t-10 -62q7 -33 34.5 -60.5t67.5 -27.5z" />
    <glyph glyph-name="uniFEFB" unicode="&#xfedf;&#xfe8e;" horiz-adv-x="1253" arabic-form="isolated" 
d="M1190 299q26 -124 -43.5 -211.5t-192.5 -87.5h-702l-37 176h315l-196 928h174l199 -928h208q51 0 80 36t19 87l-240 1128h176z" />
    <glyph glyph-name="uniFEFC" unicode="&#xfee0;&#xfe8e;" horiz-adv-x="1351" arabic-form="final" 
d="M1577 90q7 -38 -14 -64t-58 -26h-80q-76 0 -148 34t-128 93q-28 -58 -84.5 -92.5t-130.5 -34.5h-682l-37 176h315l-196 926h176l197 -926h172q66 0 103.5 48t23.5 116l-232 1087h176l232 -1089q19 -68 79.5 -115t127.5 -47h81q36 0 68 -25t39 -61z" />
    <glyph glyph-name="uniFEDFFB51" unicode="&#xfedf;&#xfb51;" horiz-adv-x="1253" 
d="M1190 299q26 -124 -43.5 -211.5t-192.5 -87.5h-702l-37 176h315l-196 928h174l199 -928h208q51 0 80 36t19 87l-240 1128h176z" />
    <glyph glyph-name="uniFEE0FB51" unicode="&#xfee0;&#xfb51;" horiz-adv-x="1351" 
d="M1577 90q7 -38 -14 -64t-58 -26h-80q-76 0 -148 34t-128 93q-28 -58 -84.5 -92.5t-130.5 -34.5h-682l-37 176h315l-196 926h176l195 -926h174q66 0 103.5 48t23.5 116l-232 1087h176l232 -1089q19 -68 79.5 -115t127.5 -47h81q36 0 68 -25t39 -61z" />
    <glyph glyph-name="uni066E.init" unicode="&#x66e;" horiz-adv-x="567" 
d="M289 0h-139q-36 0 -67.5 26t-39.5 62q-9 38 12 63t58 25h139q57 0 86.5 37.5t17.5 93.5l-137 647h176l137 -647q26 -126 -45 -216.5t-198 -90.5z" />
    <glyph glyph-name="uni066E.medi" unicode="&#x66e;" horiz-adv-x="684" 
d="M803 176q37 0 68 -24.5t40 -61.5q7 -38 -14 -64t-57 -26h-82q-75 0 -147.5 34t-129.5 93q-27 -58 -84 -92.5t-131 -34.5h-114q-40 0 -71 25t-38 63q-9 38 11.5 63t60.5 25h96q66 0 104 48.5t25 115.5l-92 422h176l92 -424q19 -68 78.5 -115t126.5 -47h82z" />
    <glyph glyph-name="uni066E.fina" unicode="&#x66e;" horiz-adv-x="1853" 
d="M1972 176q37 0 68.5 -24.5t40.5 -61.5q7 -38 -14.5 -64t-57.5 -26h-76q-76 0 -148 34t-128 93q-28 -58 -84.5 -92.5t-130.5 -34.5h-795q-167 0 -309.5 117.5t-177.5 283.5l-74 347h176l76 -347q20 -94 99 -159.5t173 -65.5h776q66 0 103.5 48t23.5 116l-131 612h177
l131 -614q19 -68 79 -115t127 -47h76z" />
    <glyph glyph-name="uni066F.fina" unicode="&#x66f;" horiz-adv-x="1558" 
d="M1694 176l37 -176h-205l47 -211q19 -89 -31 -152t-139 -63h-541q-215 0 -397.5 150.5t-228.5 365.5l-60 283h176l60 -281q29 -141 150 -240.5t261 -99.5h518q28 0 42 18t8 44l-41 186h-260q-122 0 -238 58.5t-198 160t-107 221.5l-19 86q-40 188 63.5 320.5t291.5 132.5
q117 0 230.5 -58.5t194 -159.5t105.5 -220l76 -365h205zM1313 176l-76 365q-25 108 -118 185t-199 77q-117 0 -180 -80.5t-38 -196.5l17 -84q23 -109 121.5 -187.5t212.5 -78.5h260z" />
    <glyph glyph-name="uni06A1.init" unicode="&#x6a1;" horiz-adv-x="1159" 
d="M528 973q120 0 235 -60t196 -162.5t106 -222.5l113 -528h-1047l-37 176h289q-72 44 -124.5 118.5t-72.5 160.5l-14 73q-26 121 13 223t130.5 161.5t212.5 60.5zM967 176l-76 352q-23 110 -119.5 189.5t-206.5 79.5q-116 0 -180 -82t-39 -199l14 -67q26 -114 125 -193.5
t213 -79.5h269z" />
    <glyph glyph-name="uni06A1.medi" unicode="&#x6a1;" horiz-adv-x="1236" 
d="M1143 176h223l37 -176h-1264l-37 176h301q-72 44 -124 118t-72 161l-14 73q-26 121 13 223t130 161.5t211 60.5q184 0 342 -131t196 -314l62 -288q8 -39 -4 -64zM952 176q14 0 22 10t5 25l-68 317q-23 110 -119 189.5t-206 79.5q-115 0 -179.5 -82t-41.5 -199l16 -67
q26 -114 124 -193.5t212 -79.5h235z" />
    <glyph glyph-name="uni06A1.fina" unicode="&#x6a1;" horiz-adv-x="2123" 
d="M2251 176l37 -176h-1575q-189 0 -352 135.5t-203 325.5l-54 254h175l53 -254q25 -118 126 -201.5t218 -83.5h610q-83 47 -143 129.5t-82 179.5l-8 43q-26 121 13 223t130.5 161.5t212.5 60.5q120 0 235 -60t196 -162.5t106 -222.5l75 -352h230zM1847 176l-75 352
q-23 111 -118.5 190t-207.5 79q-114 0 -179 -82t-40 -199l8 -37q26 -121 130 -208t226 -95h256z" />
    <glyph glyph-name="uni06C2.fina" unicode="&#x6c2;" horiz-adv-x="1284" 
d="M782 1192l21 -92h-389l-21 92h70q-45 49 -53 98q-9 74 32 123t111 49q65 0 122 -38.5t85 -98.5l-66 -47q-42 88 -121 88q-36 0 -54 -24t-11 -62q7 -33 34.5 -60.5t67.5 -27.5h172zM866 45q-67 -45 -157 -45q-122 0 -239 59t-200 161t-108 222l-17 76q-41 194 62 319.5
t297 125.5h457l133 -615q15 -75 72 -123.5t134 -48.5h103q36 0 66.5 -25.5t39.5 -62.5q8 -35 -12 -61t-57 -27h-103q-43 0 -85.5 6t-95.5 26t-95.5 52t-79.5 90t-53 135l-105 479h-282q-114 0 -181 -76t-43 -194l15 -67q26 -115 125 -195t215 -80q89 0 143 51z" />
    <glyph glyph-name="uni06C3.fina" unicode="&#x6c3;" horiz-adv-x="1284" 
d="M866 45q-67 -45 -157 -45q-122 0 -239 59t-200 161t-108 222l-17 76q-41 194 62 319.5t297 125.5h457l133 -615q15 -75 72 -123.5t134 -48.5h103q36 0 66.5 -25.5t39.5 -62.5q8 -35 -12 -61t-57 -27h-103q-43 0 -85.5 6t-95.5 26t-95.5 52t-79.5 90t-53 135l-105 479
h-282q-114 0 -181 -76t-43 -194l15 -67q26 -115 125 -195t215 -80q89 0 143 51z" />
    <glyph glyph-name="uniFB51" unicode="&#x671;" horiz-adv-x="536" arabic-form="final" 
d="M709 0h-97q-123 0 -227.5 87t-130.5 212l-242 1135h176l240 -1135q10 -51 54.5 -87t97.5 -36h92z" />
    <glyph glyph-name="uniFB57" unicode="&#x67e;" horiz-adv-x="1853" arabic-form="final" 
d="M1972 176q37 0 68.5 -24.5t40.5 -61.5q7 -38 -14.5 -64t-57.5 -26h-76q-76 0 -148 34t-128 93q-28 -58 -84.5 -92.5t-130.5 -34.5h-795q-167 0 -309.5 117.5t-177.5 283.5l-74 347h176l76 -347q20 -94 99 -159.5t173 -65.5h776q66 0 103.5 48t23.5 116l-131 612h177
l131 -614q19 -68 79 -115t127 -47h76zM987 -393q-45 0 -85.5 32.5t-49.5 77.5q-10 46 16 79.5t72 33.5t86 -33.5t51 -79.5q9 -46 -17 -78t-73 -32zM1300 -393q-45 0 -85.5 32.5t-49.5 77.5q-10 46 16 79.5t72 33.5t86.5 -33.5t51.5 -79.5q9 -46 -17.5 -78t-73.5 -32z
M1202 -682q-44 0 -84.5 32.5t-50.5 78.5q-9 46 17.5 79t70.5 33q47 0 87.5 -33t49.5 -79q10 -46 -16.5 -78.5t-73.5 -32.5z" />
    <glyph glyph-name="uniFB58" unicode="&#x67e;" horiz-adv-x="679" arabic-form="initial" 
d="M401 0h-251q-36 0 -67.5 26t-39.5 62q-9 38 12 63t58 25h252q57 0 86.5 37.5t17.5 93.5l-137 647h176l137 -647q26 -126 -45.5 -216.5t-198.5 -90.5zM360 -393q-46 0 -86 32.5t-49 77.5q-10 46 16 79.5t70 33.5q47 0 88 -33.5t52 -79.5q9 -46 -18 -78t-73 -32zM674 -393
q-46 0 -86 32.5t-49 77.5q-10 46 16 79.5t70 33.5q47 0 87.5 -33.5t51.5 -79.5q9 -46 -17.5 -78t-72.5 -32zM575 -682q-46 0 -86 32.5t-49 78.5t16.5 79t71.5 33t87.5 -33.5t50.5 -78.5q9 -46 -18 -78.5t-73 -32.5z" />
    <glyph glyph-name="uniFB59" unicode="&#x67e;" horiz-adv-x="684" arabic-form="medial" 
d="M803 176q37 0 68 -24.5t40 -61.5q7 -38 -14 -64t-57 -26h-82q-75 0 -147.5 34t-129.5 93q-27 -58 -84 -92.5t-131 -34.5h-114q-40 0 -71 25t-38 63q-9 38 11.5 63t60.5 25h96q66 0 104 48.5t25 115.5l-92 422h176l92 -424q19 -68 78.5 -115t126.5 -47h82zM410 -393
q-45 0 -86 32.5t-50 77.5q-10 46 16 79.5t72 33.5t86.5 -33.5t51.5 -79.5q9 -46 -17 -78t-73 -32zM723 -393q-45 0 -85.5 32.5t-49.5 77.5q-10 46 16 79.5t72 33.5t86 -33.5t51 -79.5q9 -46 -17 -78t-73 -32zM625 -682q-45 0 -85.5 33t-50.5 78q-9 45 17.5 78.5t71.5 33.5
q47 0 87.5 -33t49.5 -79q10 -46 -16.5 -78.5t-73.5 -32.5z" />
    <glyph glyph-name="uniFB67" unicode="&#x679;" horiz-adv-x="1853" arabic-form="final" 
d="M545 1044l-17 84h70l-70 334h82l43 -198q53 73 125 73q143 0 180 -172l25 -121h-438zM786 1253q-62 0 -112 -77l10 -48h201l-11 43q-18 82 -88 82zM2081 90q7 -38 -14.5 -64t-57.5 -26h-76q-76 0 -148 34t-128 93q-28 -58 -84.5 -92.5t-130.5 -34.5h-795
q-167 0 -309.5 117.5t-177.5 283.5l-74 347h176l76 -347q20 -94 99 -159.5t173 -65.5h776q66 0 103.5 48t23.5 116l-131 612h177l131 -614q19 -68 79 -115t127 -47h76q37 0 68.5 -24.5t40.5 -61.5z" />
    <glyph glyph-name="uniFB68" unicode="&#x679;" horiz-adv-x="567" arabic-form="initial" 
d="M37 1145l-17 84h70l-70 334h82l43 -199q53 74 125 74q144 0 181 -172l24 -121h-438zM279 1354q-63 0 -113 -78l10 -47h201l-10 43q-18 82 -88 82zM532 307q26 -126 -45 -216.5t-198 -90.5h-139q-36 0 -67.5 26t-39.5 62q-9 38 12 63t58 25h139q57 0 86.5 37.5t17.5 93.5
l-137 647h176z" />
    <glyph glyph-name="uniFB69" unicode="&#x679;" horiz-adv-x="684" arabic-form="medial" 
d="M61 1069l-16 84h70l-70 334h82l43 -199q53 74 125 74q143 0 180 -172l25 -121h-439zM303 1278q-63 0 -113 -78l11 -47h200l-10 43q-18 82 -88 82zM911 90q7 -38 -14 -64t-57 -26h-82q-75 0 -147.5 34t-129.5 93q-27 -58 -84 -92.5t-131 -34.5h-114q-40 0 -71 25t-38 63
q-9 38 11.5 63t60.5 25h96q66 0 104 48.5t25 115.5l-92 422h176l92 -424q19 -68 78.5 -115t126.5 -47h82q37 0 68 -24.5t40 -61.5z" />
    <glyph glyph-name="uniFB6B" unicode="&#x6a4;" horiz-adv-x="2082" arabic-form="final" 
d="M1296 1608q47 0 88 -33t52 -78q9 -47 -18.5 -80t-74.5 -33q-45 0 -84.5 33t-48.5 80q-10 44 16 77.5t70 33.5zM1204 1319q45 0 85.5 -33t51.5 -78q9 -47 -17 -79.5t-73 -32.5q-45 0 -85.5 33t-49.5 79q-11 44 15.5 77.5t72.5 33.5zM1518 1319q45 0 85.5 -33t51.5 -78
q9 -47 -17 -79.5t-73 -32.5q-45 0 -85.5 33t-49.5 79q-11 44 15.5 77.5t72.5 33.5zM2210 176l37 -176h-1534q-189 0 -352 135.5t-203 325.5l-64 295h174l64 -295q25 -118 126 -201.5t218 -83.5h610q-85 48 -144 127t-79 174l-8 43q-26 121 13 223t130.5 161.5t212.5 60.5
q120 0 235 -60t196 -162.5t106 -222.5l73 -344h189zM1847 176l-73 344q-23 111 -118.5 189.5t-207.5 78.5q-115 0 -179.5 -82t-39.5 -198l8 -37q24 -120 127 -203.5t227 -91.5h256z" />
    <glyph glyph-name="uniFB6C" unicode="&#x6a4;" horiz-adv-x="1159" arabic-form="initial" 
d="M498 1608q46 0 87 -33.5t50 -77.5q9 -47 -17.5 -80t-72.5 -33t-86 33t-49 80q-9 45 17 78t71 33zM403 1319q47 0 88 -33t50 -78q10 -47 -16 -79.5t-72 -32.5t-87 32.5t-51 79.5q-9 44 17.5 77.5t70.5 33.5zM717 1319q47 0 87.5 -33t49.5 -78q10 -47 -16 -79.5t-72 -32.5
t-86.5 32.5t-50.5 79.5q-9 44 17.5 77.5t70.5 33.5zM530 963h443l176 -826q12 -57 -20 -97t-89 -40h-909l-37 176h289q-72 44 -124.5 118.5t-72.5 160.5l-14 73q-39 183 66.5 309t291.5 126zM961 209l-127 588h-269q-116 0 -180 -82t-39 -199l14 -67q26 -114 125 -193.5
t213 -79.5h236q12 0 21 10t6 23z" />
    <glyph glyph-name="uniFB6D" unicode="&#x6a4;" horiz-adv-x="1236" arabic-form="medial" 
d="M432 1608q47 0 87.5 -33t51.5 -78q9 -47 -18 -80t-74 -33q-45 0 -84.5 33t-48.5 80q-10 44 16 77.5t70 33.5zM340 1319q45 0 85.5 -33t51.5 -78q9 -47 -17 -79.5t-73 -32.5q-45 0 -85.5 33t-49.5 79q-11 44 15.5 77.5t72.5 33.5zM653 1319q45 0 86 -33t52 -78
q9 -47 -17.5 -79.5t-73.5 -32.5q-45 0 -85.5 33t-49.5 79q-11 44 15.5 77.5t72.5 33.5zM1143 176h223l37 -176h-1264l-37 176h301q-153 94 -194 270l-14 72q-26 121 13 223.5t130 162t211 59.5q183 1 340.5 -130t197.5 -315l60 -278q8 -39 -4 -64zM952 176q14 0 22 10t5 25
l-66 307q-23 110 -119 189t-206 79q-116 0 -180 -81.5t-41 -198.5l16 -66q23 -112 120.5 -188t213.5 -76h235z" />
    <glyph glyph-name="uniFB7B" unicode="&#x686;" horiz-adv-x="1501" arabic-form="final" 
d="M672 0q-100 0 -155.5 -71t-33.5 -171q22 -101 107.5 -171t185.5 -70h422l37 -176h-424q-172 0 -319.5 122t-184.5 295q-24 113 11 209t119.5 152.5t197.5 56.5h641q-29 14 -57.5 51.5t-38.5 81.5l-17 84q-49 215 -194 307q-69 46 -155 68t-165 19.5t-141 -13t-107 -26.5
l-106 155q68 28 151.5 44t184 17.5t210 -28.5t203.5 -92q222 -148 293 -453l19 -84q10 -50 49.5 -90.5t89.5 -40.5h199l37 -176h-1059zM725 -244q-25 0 -46.5 17.5t-27.5 42.5q-5 25 8.5 42t38.5 17t47.5 -17.5t26.5 -41.5q6 -25 -8 -42.5t-39 -17.5zM907 -244
q-24 0 -45.5 18t-25.5 42q-6 24 7.5 41.5t37.5 17.5q26 0 47.5 -17t27.5 -42q5 -25 -9 -42.5t-40 -17.5zM850 -414q-23 0 -44.5 17.5t-27.5 42.5q-4 26 9.5 43.5t37.5 17.5q27 0 48.5 -17.5t25.5 -43.5q6 -25 -8.5 -42.5t-40.5 -17.5z" />
    <glyph glyph-name="uniFB7C" unicode="&#x686;" horiz-adv-x="1310" arabic-form="initial" 
d="M1341 0h-1191q-37 0 -68.5 25.5t-38.5 62.5q-8 37 12.5 62.5t57.5 25.5h942q-37 20 -64.5 55t-36.5 78l-16 74q-46 216 -201 319q-71 47 -158 69t-167.5 18t-142 -15.5t-109.5 -28.5l-103 160q68 28 152.5 43.5t185.5 16t212 -30t206 -92.5q103 -66 181.5 -178.5
t111.5 -272.5l18 -82q12 -59 54 -96t96 -37h31zM641 -393q-46 0 -86 32.5t-49 77.5q-10 46 16 79.5t70 33.5q47 0 87.5 -33.5t51.5 -79.5q9 -46 -17.5 -78t-72.5 -32zM954 -393q-46 0 -86 32.5t-49 77.5q-10 46 16 79.5t70 33.5q47 0 87.5 -33.5t51.5 -79.5q9 -46 -17.5 -78
t-72.5 -32zM856 -682q-46 0 -86 32.5t-49 78.5t16.5 79t71.5 33t87 -33.5t50 -78.5q9 -46 -17.5 -78.5t-72.5 -32.5z" />
    <glyph glyph-name="uniFB7D" unicode="&#x686;" horiz-adv-x="1273" arabic-form="medial" 
d="M1460 0h-1310q-37 0 -68.5 25.5t-38.5 62.5q-8 37 12.5 62.5t57.5 25.5h921q-37 19 -64 54.5t-36 78.5l-16 72q-45 218 -201 321q-71 47 -158 68.5t-166.5 18.5t-140.5 -14t-105 -27l-94 157q58 28 142.5 43t184 14.5t210.5 -31.5t203 -91q103 -66 181 -178.5t111 -270.5
l19 -82q12 -59 53.5 -96t95.5 -37h170zM684 -393q-46 0 -86 32.5t-49 77.5q-10 46 16 79.5t70 33.5q47 0 87.5 -33.5t51.5 -79.5q9 -46 -17.5 -78t-72.5 -32zM997 -393q-46 0 -86 32.5t-49 77.5q-10 46 16 79.5t70 33.5q47 0 87.5 -33.5t51.5 -79.5q9 -46 -17.5 -78
t-72.5 -32zM899 -682q-46 0 -86 32.5t-49 78.5t16.5 79t71.5 33t87 -33.5t50 -78.5q9 -46 -17.5 -78.5t-72.5 -32.5z" />
    <glyph glyph-name="uniFB89" unicode="&#x688;" horiz-adv-x="1257" arabic-form="final" 
d="M360 1161l-16 84h70l-70 334h82l43 -199q53 74 125 74q143 0 180 -172l25 -121h-439zM602 1370q-63 0 -113 -78l11 -47h200l-10 43q-18 82 -88 82zM1481 86q8 -36 -12 -61t-58 -25h-47q-193 0 -352 137l-6 -12q-37 -58 -100.5 -91.5t-137.5 -33.5h-522l-37 176h522
q78 0 111 57q39 59 2 138l-281 592l156 45l299 -623q43 -94 128.5 -151.5t180.5 -57.5h47q37 0 68 -27t39 -63z" />
    <glyph glyph-name="uniFB8B" unicode="&#x698;" horiz-adv-x="755" arabic-form="final" 
d="M205 1626q47 0 87.5 -32.5t51.5 -77.5q9 -47 -17.5 -80t-72.5 -33t-86 33t-49 80q-10 44 16 77t70 33zM113 1337q47 0 87.5 -32.5t49.5 -77.5q9 -47 -17 -80t-73 -33q-45 0 -85.5 33t-49.5 80q-9 44 17.5 77t70.5 33zM426 1337q47 0 87.5 -32.5t49.5 -77.5q9 -47 -17 -80
t-73 -33q-45 0 -85.5 33t-49.5 80q-9 44 17.5 77t70.5 33zM874 176q37 0 68.5 -25.5t38.5 -62.5q8 -37 -12.5 -62.5t-57.5 -25.5h-69q-64 0 -125 26.5t-103 71.5l23 -116q17 -104 -2.5 -187t-69 -138t-116.5 -89t-152 -51l-96 166q44 9 79.5 21t71 31.5t57.5 44t39.5 60
t17.5 79.5t-9 101l-199 934h174l121 -571q19 -86 92.5 -146.5t159.5 -60.5h69z" />
    <glyph glyph-name="uniFB8D" unicode="&#x691;" horiz-adv-x="755" arabic-form="final" 
d="M92 1157l-16 84h69l-69 334h82l43 -199q53 74 125 74q143 0 180 -172l24 -121h-438zM334 1366q-63 0 -113 -78l10 -47h201l-10 43q-18 82 -88 82zM979 88q8 -37 -12.5 -62.5t-57.5 -25.5h-69q-64 0 -125 26.5t-103 71.5l23 -116q17 -104 -2.5 -187t-69 -138t-116.5 -89
t-152 -51l-96 166q44 9 79.5 21t71 31.5t57.5 44t39.5 60t17.5 79.5t-9 101l-199 934h174l121 -571q19 -86 92.5 -146.5t159.5 -60.5h69q37 0 68.5 -25.5t38.5 -62.5z" />
    <glyph glyph-name="uniFB8F" unicode="&#x6a9;" horiz-adv-x="2056" arabic-form="final" 
d="M2228 2l-885 -2h-696q-166 0 -309 117.5t-178 281.5l-74 349h180l74 -349q20 -94 98 -158.5t172 -64.5h1178l-55 268q-31 142 -154 243t-264 101h-492l-137 199l293 588l164 -102l-254 -508h401q138 0 269.5 -68t224 -185t121.5 -255l59 -281h227z" />
    <glyph glyph-name="uniFB90" unicode="&#x6a9;" horiz-adv-x="1386" arabic-form="initial" 
d="M694 965q138 0 269.5 -68t224 -185t121.5 -255l71 -332q11 -51 -18 -88t-80 -37h-1151l-37 176h1055q19 0 29 13t6 32l-47 223q-31 142 -153 243t-263 101h-502l-166 195l293 580l166 -103l-254 -495h436z" />
    <glyph glyph-name="uniFB91" unicode="&#x6a9;" horiz-adv-x="1406" arabic-form="medial" 
d="M1540 176l35 -174l-1446 -2l-37 176h1045l-58 268q-31 142 -152.5 243t-262.5 101h-494l-137 199l293 588l166 -102l-254 -508h401q209 0 388.5 -148.5t225.5 -359.5l60 -281h227z" />
    <glyph glyph-name="uniFB93" unicode="&#x6af;" horiz-adv-x="2056" arabic-form="final" 
d="M862 1622l-287 -549l-71 53l282 545zM2228 2l-885 -2h-696q-166 0 -309 117.5t-178 281.5l-74 349h180l74 -349q20 -94 98 -158.5t172 -64.5h1178l-55 268q-31 142 -154 243t-264 101h-492l-137 199l293 588l164 -102l-254 -508h401q138 0 269.5 -68t224 -185t121.5 -255
l59 -281h227z" />
    <glyph glyph-name="uniFB94" unicode="&#x6af;" horiz-adv-x="1386" arabic-form="initial" 
d="M-125 1104l287 545l74 -50l-287 -548zM694 965q138 0 269.5 -68t224 -185t121.5 -255l96 -457h-1274l-37 176h1100l-57 268q-31 142 -153 243t-263 101h-502l-166 195l293 580l166 -103l-254 -495h436z" />
    <glyph glyph-name="uniFB95" unicode="&#x6af;" horiz-adv-x="1406" arabic-form="medial" 
d="M147 1655l76 -49l-289 -549l-71 53zM1540 176l35 -174l-1446 -2l-37 176h1045l-58 268q-31 142 -152.5 243t-262.5 101h-494l-137 199l293 588l166 -102l-254 -508h401q209 0 388.5 -148.5t225.5 -359.5l60 -281h227z" />
    <glyph glyph-name="uniFB9F" unicode="&#x6ba;" horiz-adv-x="1499" arabic-form="final" 
d="M1616 176q37 0 68.5 -26.5t39.5 -61.5q7 -37 -13.5 -62.5t-57.5 -25.5h-99q-49 0 -96.5 24.5t-75.5 63.5l70 -332q14 -63 -21.5 -108t-99.5 -45h-481q-139 0 -271.5 68t-225.5 185.5t-122 256.5l-65 313h174l66 -313q29 -138 148 -237t257 -99h393q29 0 45.5 18.5
t10.5 46.5l-232 1092h174l127 -600q17 -66 71.5 -112t115.5 -46h100z" />
    <glyph glyph-name="uniFBA7" unicode="&#x6c1;" horiz-adv-x="1284" arabic-form="final" 
d="M866 45q-67 -45 -157 -45q-122 0 -239 59t-200 161t-108 222l-17 76q-41 194 62 319.5t297 125.5h457l133 -615q15 -75 72 -123.5t134 -48.5h103q36 0 66.5 -25.5t39.5 -62.5q8 -35 -12 -61t-57 -27h-103q-43 0 -85.5 6t-95.5 26t-95.5 52t-79.5 90t-53 135l-105 479
h-282q-114 0 -181 -76t-43 -194l15 -67q26 -115 125 -195t215 -80q89 0 143 51z" />
    <glyph glyph-name="uniFBA8" unicode="&#x6c1;" horiz-adv-x="567" arabic-form="initial" 
d="M289 0h-139q-36 0 -67.5 26t-39.5 62q-9 38 12 63t58 25h139q57 0 86.5 37.5t17.5 93.5l-137 647h176l137 -647q26 -126 -45 -216.5t-198 -90.5z" />
    <glyph glyph-name="uniFBA9" unicode="&#x6c1;" horiz-adv-x="1323" arabic-form="medial" 
d="M1184 176h274l37 -176h-209l10 -37q39 -187 -65.5 -304.5t-315.5 -117.5q-184 0 -346 121.5t-221 300.5l-12 37h-205l-37 174h199l-60 281q-27 130 10 242.5t126.5 180.5t210.5 74q196 9 381 -131q84 -67 140.5 -156.5t78.5 -187.5q28 -136 -19 -245t-157.5 -170.5
t-264.5 -61.5h-223l12 -33q37 -108 137.5 -181t213.5 -73q128 0 194.5 82.5t40.5 202.5l-14 70q-9 45 17 76.5t67 31.5zM408 455l59 -281h235q64 0 123 19.5t106 55.5t68.5 96.5t6.5 133.5q-30 135 -140 217q-106 87 -239 80q-77 -3 -133.5 -47.5t-79.5 -117t-6 -156.5z" />
    <glyph glyph-name="uniFBAB" unicode="&#x6be;" horiz-adv-x="1466" arabic-form="final" 
d="M1327 176h275l36 -176h-208l10 -37q39 -187 -65.5 -304.5t-315.5 -117.5q-184 0 -346 121.5t-221 300.5l-13 37h-205l-36 174h198l-59 281q-22 99 -3.5 187.5t64 155.5t120 108.5t165.5 45.5q196 9 381 -131q84 -67 140.5 -156.5t78.5 -187.5q43 -207 -82 -342t-358 -135
h-224l13 -33q37 -108 137 -181t213 -73q128 0 194.5 82.5t40.5 202.5l-14 70q-9 45 17 76.5t67 31.5zM551 455l59 -281h236q50 0 98.5 12t91.5 36.5t72.5 61t41.5 85.5t-1 110q-30 136 -139 217q-106 87 -240 80q-77 -3 -133.5 -47.5t-79.5 -117t-6 -156.5z" />
    <glyph glyph-name="uniFBAC" unicode="&#x6be;" horiz-adv-x="1517" arabic-form="initial" 
d="M705 1153q270 -60 479.5 -269.5t271.5 -498.5l41 -192q15 -79 -28.5 -136t-120.5 -57h-1217l-37 174h281q-68 43 -120 117t-69 155q-36 169 65.5 282.5t278.5 113.5q182 0 335.5 -130t191.5 -315l33 -153q10 -40 2 -70h190q20 0 30 13.5t5 33.5l-33 164
q-47 223 -204.5 387t-368.5 211q-166 41 -342 41l-35 172q126 -3 195.5 -11.5t175.5 -31.5zM567 668q-101 0 -163.5 -69.5t-41.5 -174.5q24 -106 110 -178t179 -72h236q18 0 29.5 13t7.5 32l-41 195q-21 98 -114.5 176t-201.5 78z" />
    <glyph glyph-name="uniFBAD" unicode="&#x6be;" horiz-adv-x="1323" arabic-form="medial" 
d="M1184 176h274l37 -176h-209l10 -37q39 -187 -65.5 -304.5t-315.5 -117.5q-184 0 -346 121.5t-221 300.5l-12 37h-205l-37 174h199l-60 281q-27 130 10 242.5t126.5 180.5t210.5 74q196 9 381 -131q84 -67 140.5 -156.5t78.5 -187.5q28 -136 -19 -245t-157.5 -170.5
t-264.5 -61.5h-223l12 -33q37 -108 137.5 -181t213.5 -73q128 0 194.5 82.5t40.5 202.5l-14 70q-9 45 17 76.5t67 31.5zM408 455l59 -281h235q64 0 123 19.5t106 55.5t68.5 96.5t6.5 133.5q-30 135 -140 217q-106 87 -239 80q-77 -3 -133.5 -47.5t-79.5 -117t-6 -156.5z" />
    <glyph glyph-name="uniFBAF" unicode="&#x6d2;" horiz-adv-x="1282" arabic-form="final" 
d="M573 162h848l37 -176h-848q-76 0 -110 -60q-34 -65 -2 -133l170 -358l-158 -47l-170 360q-73 161 2 289q34 59 94.5 92t136.5 33z" />
    <glyph glyph-name="uniFBB1" unicode="&#x6d3;" horiz-adv-x="1282" arabic-form="final" 
d="M709 393l20 -94h-389l-21 94h70q-45 48 -53 96q-9 74 32 123.5t111 49.5q64 0 121 -38.5t86 -97.5l-65 -47q-20 40 -51.5 64t-69.5 24q-35 0 -54 -24.5t-12 -61.5q7 -33 35 -60.5t68 -27.5h172zM573 162h848l37 -176h-848q-76 0 -110 -60q-34 -65 -2 -133l170 -358
l-158 -47l-170 360q-73 161 2 289q34 59 94.5 92t136.5 33z" />
    <glyph glyph-name="uniFBFD" unicode="&#x6cc;" horiz-adv-x="1800" arabic-form="final" 
d="M1915 176q37 0 69 -24.5t39 -61.5q7 -36 -14 -63t-57 -27q-105 0 -230 25q74 -64 93 -156q34 -155 -52.5 -264t-240.5 -109h-637q-145 0 -283.5 71t-236 194t-127.5 268l-74 342h176l74 -342q31 -149 157.5 -254t274.5 -105h637q82 0 127 58.5t28 140.5
q-13 69 -66.5 126.5t-125.5 80.5l-316 117l44 159q255 -98 256 -98q245 -78 485 -78z" />
    <glyph glyph-name="uniFBFE" unicode="&#x6cc;" horiz-adv-x="735" arabic-form="initial" 
d="M457 0h-307q-36 0 -67.5 26t-39.5 62q-9 38 12 63t58 25h307q57 0 86.5 37.5t17.5 93.5l-137 647h176l137 -647q26 -126 -45 -216.5t-198 -90.5zM373 -205q47 0 87.5 -32t49.5 -78q11 -46 -16 -79.5t-74 -33.5q-44 0 -84 33.5t-51 79.5q-9 45 17 77.5t71 32.5zM694 -205
q46 0 87 -32.5t50 -77.5q9 -46 -17.5 -79.5t-72.5 -33.5t-86 33.5t-49 79.5t16.5 78t71.5 32z" />
    <glyph glyph-name="uniFBFF" unicode="&#x6cc;" horiz-adv-x="778" arabic-form="medial" 
d="M895 176q36 0 67.5 -25t38.5 -61q7 -38 -13.5 -64t-57.5 -26h-137q-76 0 -149 34t-128 93q-28 -58 -84.5 -92.5t-130.5 -34.5h-151q-40 0 -71 25t-38 63q-9 38 11.5 63t60.5 25h133q66 0 103.5 48t23.5 116l-94 442h176l94 -444q19 -68 79 -115t128 -47h139zM401 -205
q48 0 88.5 -32t49.5 -78q11 -46 -16 -79.5t-74 -33.5q-44 0 -85 33.5t-51 79.5q-9 45 17 77.5t71 32.5zM723 -205q46 0 87 -32.5t50 -77.5q9 -46 -17.5 -79.5t-72.5 -33.5t-86 33.5t-49 79.5t16.5 78t71.5 32z" />
    <glyph glyph-name="uniFE82" unicode="&#x622;" horiz-adv-x="557" arabic-form="final" 
d="M-160 1640l-65 62l110 92q10 8 26 6t28 -12q36 -32 91 -48t109 -16q31 0 79 16t83 34l57 -91q-36 -23 -95.5 -42t-100.5 -19q-115 0 -225 74q-17 10 -27 0zM729 0h-96q-123 0 -228 87.5t-131 211.5l-241 1135h176l240 -1135q10 -51 54 -87t95 -36h94z" />
    <glyph glyph-name="uniFE84" unicode="&#x623;" horiz-adv-x="544" arabic-form="final" 
d="M254 1645l20 -95h-391l-18 95h69q-43 43 -55 96q-9 74 32.5 123t113.5 49q65 0 121 -38.5t83 -96.5l-65 -47q-43 88 -119 88q-37 0 -56.5 -24.5t-11.5 -61.5q9 -33 37.5 -60.5t67.5 -27.5h172zM709 0h-97q-123 0 -227.5 87t-130.5 212l-242 1135h176l240 -1135
q10 -51 54.5 -87t97.5 -36h92z" />
    <glyph glyph-name="uniFE86" unicode="&#x624;" horiz-adv-x="1189" arabic-form="final" 
d="M350 1137l-20 94h69q-45 48 -53 96q-8 74 32.5 123t110.5 49q65 0 121.5 -38.5t83.5 -96.5l-65 -47q-18 40 -49 64t-70 24q-35 0 -54 -24.5t-12 -61.5q7 -33 35 -60.5t68 -27.5h172l20 -94h-389zM1329 0h-180q44 -207 -70 -336q-83 -97 -214 -130.5t-378 -33.5l-36 174
h75.5t73 2t80.5 6t71 12.5t73 20.5t58.5 31.5t53.5 44.5q54 63 39 170l-6 39h-250q-196 0 -360 141t-207 342q-27 133 10 242.5t130 173.5t224 64h428l168 -787h180zM936 176l-131 610h-252q-125 0 -189 -86.5t-38 -216.5q28 -129 129.5 -218t226.5 -89h254z" />
    <glyph glyph-name="uniFE88" unicode="&#x625;" horiz-adv-x="552" arabic-form="final" 
d="M709 0h-97q-123 0 -227.5 87t-130.5 212l-240 1128h174l240 -1128q10 -51 54.5 -87t97.5 -36h92q36 0 67 -26t39 -62q8 -37 -12 -62.5t-57 -25.5zM707 -416l18 -92h-389l-19 92h70q-47 47 -53 99q-9 74 31 123t112 49q64 0 120 -39t85 -99l-66 -47q-42 88 -120 88
q-36 0 -54.5 -24t-9.5 -62q7 -33 35 -60.5t68 -27.5h172z" />
    <glyph glyph-name="uniFE8A" unicode="&#x626;" horiz-adv-x="1800" arabic-form="final" 
d="M399 592l21 -94h-389l-21 94h70q-45 48 -53 96q-9 74 32 123t111 49q64 0 120 -38t85 -97l-66 -47q-43 88 -119 88q-35 0 -53.5 -24.5t-11.5 -61.5q7 -33 34.5 -60.5t67.5 -27.5h172zM1917 176q37 0 69 -24.5t39 -61.5q7 -36 -14 -63t-57 -27q-105 0 -230 25
q74 -64 93 -156q34 -155 -52.5 -264t-240.5 -109h-637q-145 0 -283.5 71t-236 194t-127.5 268l-74 342h176l74 -342q31 -149 157.5 -254t274.5 -105h637q82 0 127 58.5t28 140.5q-13 69 -66.5 126.5t-125.5 80.5l-315 117l43 159q255 -98 256 -98q245 -78 485 -78z" />
    <glyph glyph-name="uniFE8B" unicode="&#x626;" horiz-adv-x="636" arabic-form="initial" 
d="M481 1210l21 -94h-389l-21 94h70q-45 48 -53 97q-9 74 32 123t111 49q65 0 121.5 -39t83.5 -97l-66 -47q-43 88 -119 88q-35 0 -53.5 -24.5t-11.5 -61.5q7 -33 34.5 -60.5t67.5 -27.5h172zM319 0h-169q-36 0 -67.5 26t-39.5 62q-9 38 12 63t58 25h170q57 0 86.5 37.5
t17.5 93.5l-137 647h176l137 -647q26 -126 -45.5 -216.5t-198.5 -90.5z" />
    <glyph glyph-name="uniFE8C" unicode="&#x626;" horiz-adv-x="684" arabic-form="medial" 
d="M477 1057l19 -94h-390l-18 94h70q-48 48 -56 96q-9 74 32.5 123t113.5 49q64 0 120 -38t85 -97l-66 -47q-43 88 -119 88q-37 0 -56 -24.5t-11 -61.5q9 -34 37 -61t67 -27h172zM803 176q37 0 68 -24.5t40 -61.5q7 -38 -14 -64t-57 -26h-82q-75 0 -147.5 34t-129.5 93
q-27 -58 -84 -92.5t-131 -34.5h-114q-40 0 -71 25t-38 63q-9 38 11.5 63t60.5 25h96q66 0 104 48.5t25 115.5l-96 442h176l96 -444q19 -68 78.5 -115t126.5 -47h82z" />
    <glyph glyph-name="uniFE8E" unicode="&#x627;" horiz-adv-x="557" arabic-form="final" 
d="M729 0h-96q-123 0 -228 87.5t-131 211.5l-241 1135h176l240 -1135q10 -51 54 -87t95 -36h94z" />
    <glyph glyph-name="uniFE90" unicode="&#x628;" horiz-adv-x="1863" arabic-form="final" 
d="M1982 176q36 0 68 -25t39 -61q7 -38 -14 -64t-58 -26h-84q-76 0 -148 34t-128 93q-28 -58 -84.5 -92.5t-130.5 -34.5h-795q-167 0 -309.5 117.5t-177.5 283.5l-78 367h176l80 -367q20 -94 99 -159.5t173 -65.5h776q66 0 103.5 48t23.5 116l-133 623h176l134 -625
q19 -68 79 -115t127 -47h86zM1092 -205q47 0 87.5 -32t49.5 -78q11 -46 -16 -79.5t-74 -33.5q-44 0 -84 33.5t-51 79.5q-9 45 17 77.5t71 32.5z" />
    <glyph glyph-name="uniFE91" unicode="&#x628;" horiz-adv-x="587" arabic-form="initial" 
d="M319 0h-169q-36 0 -67.5 26t-39.5 62q-9 38 12 63t58 25h170q57 0 86.5 37.5t17.5 93.5l-139 656h176l139 -656q26 -126 -45.5 -216.5t-198.5 -90.5zM340 -315q-9 45 17 77.5t71 32.5q47 0 87.5 -32t49.5 -78q11 -46 -16 -79.5t-74 -33.5q-44 0 -84 33.5t-51 79.5z" />
    <glyph glyph-name="uniFE92" unicode="&#x628;" horiz-adv-x="653" arabic-form="medial" 
d="M772 176q36 0 68 -25t39 -61q7 -38 -14 -64t-58 -26h-74q-75 0 -147 34t-129 93q-27 -58 -84 -92.5t-131 -34.5h-90q-40 0 -71 25t-38 63q-9 38 11.5 63t60.5 25h71q66 0 104 48.5t25 115.5l-92 428h176l93 -430q19 -68 78 -115t126 -47h76zM426 -315q-9 46 16.5 78
t71.5 32t87 -32.5t50 -77.5q9 -46 -17.5 -79.5t-72.5 -33.5t-86 33.5t-49 79.5z" />
    <glyph glyph-name="uniFE94" unicode="&#x629;" horiz-adv-x="1273" arabic-form="final" 
d="M346 1358q47 0 87.5 -32.5t49.5 -78.5q10 -46 -16 -79t-72 -33t-86 33t-51 79q-9 46 17.5 78.5t70.5 32.5zM659 1358q47 0 88 -32.5t50 -78.5q10 -46 -16 -79t-72 -33t-87 33t-51 79q-9 46 17.5 78.5t70.5 32.5zM1403 176q36 0 66.5 -25.5t39.5 -62.5q8 -35 -12 -61
t-57 -27h-103q-93 0 -180 49.5t-145 132.5q-37 -83 -117.5 -132.5t-185.5 -49.5q-122 0 -239 59t-200 161t-108 222l-17 76q-41 194 62 319.5t297 125.5h457l133 -615q15 -75 72 -123.5t134 -48.5h103zM672 176q117 0 182 82.5t39 200.5l-70 325l-282 4q-114 0 -181 -76
t-43 -194l15 -67q26 -115 125 -195t215 -80z" />
    <glyph glyph-name="uniFE96" unicode="&#x62a;" horiz-adv-x="1853" arabic-form="final" 
d="M594 1176q47 0 87.5 -32.5t49.5 -78.5t-17 -79.5t-71 -33.5q-46 0 -87 33.5t-50 79.5t17.5 78.5t70.5 32.5zM907 1176q47 0 87.5 -32.5t49.5 -78.5t-17 -79.5t-71 -33.5q-46 0 -87 33.5t-50 79.5t17.5 78.5t70.5 32.5zM1972 176q36 0 68 -25t39 -61q7 -38 -14 -64
t-58 -26h-74q-76 0 -148 34t-128 93q-28 -58 -84.5 -92.5t-130.5 -34.5h-795q-167 0 -309.5 117.5t-177.5 283.5l-78 367h176l80 -367q20 -94 99 -159.5t173 -65.5h776q66 0 103.5 48t23.5 116l-133 623h176l134 -625q19 -68 79 -115t127 -47h76z" />
    <glyph glyph-name="uniFE97" unicode="&#x62a;" horiz-adv-x="768" arabic-form="initial" 
d="M90 1364q47 0 87.5 -32.5t49.5 -78.5t-17 -79t-73 -33q-45 0 -85.5 33.5t-49.5 78.5q-10 45 16.5 78t71.5 33zM403 1364q47 0 88 -32.5t50 -78.5t-17 -79t-73 -33q-45 0 -86 33.5t-50 78.5q-9 46 17.5 78.5t70.5 32.5zM362 0h-212q-36 0 -67.5 26t-39.5 62q-9 38 12 63
t58 25h215q55 0 84.5 37.5t17.5 93.5l-139 656h176l139 -656q28 -126 -44 -216.5t-200 -90.5z" />
    <glyph glyph-name="uniFE98" unicode="&#x62a;" horiz-adv-x="718" arabic-form="medial" 
d="M96 1208q47 0 88 -32.5t52 -77.5q9 -47 -18.5 -80t-74.5 -33q-45 0 -84.5 33t-48.5 80q-10 44 16 77t70 33zM410 1208q47 0 87.5 -32.5t51.5 -77.5q9 -47 -18 -80t-74 -33q-45 0 -84.5 33t-48.5 80q-10 44 16 77t70 33zM838 176q36 0 67.5 -25t38.5 -61q7 -38 -14 -64
t-58 -26h-96q-75 0 -147 34t-129 93q-27 -58 -84 -92.5t-131 -34.5h-133q-40 0 -71 25t-38 63q-9 38 11.5 63t60.5 25h114q66 0 104 48.5t25 115.5l-92 428h176l93 -430q19 -68 78 -115t126 -47h99z" />
    <glyph glyph-name="uniFE9A" unicode="&#x62b;" horiz-adv-x="1863" arabic-form="final" 
d="M670 1464q47 0 87.5 -32t49.5 -78q11 -46 -16 -79.5t-74 -33.5q-44 0 -84 33.5t-51 79.5q-9 45 17 77.5t71 32.5zM578 1176q46 0 86.5 -32.5t50.5 -78.5q9 -46 -17 -79.5t-73 -33.5q-45 0 -86 34t-50 79q-10 45 16.5 78t72.5 33zM891 1176q46 0 86.5 -32.5t50.5 -78.5
q9 -46 -17 -79.5t-73 -33.5q-45 0 -85.5 34t-49.5 79q-10 46 16 78.5t72 32.5zM1993 176q37 0 68 -24.5t40 -61.5q7 -38 -14 -64t-57 -26h-97q-76 0 -148 34t-128 93q-28 -58 -84.5 -92.5t-130.5 -34.5h-795q-167 0 -309.5 117.5t-177.5 283.5l-72 340h176l74 -340
q20 -94 99 -159.5t173 -65.5h776q66 0 103.5 48t23.5 116l-131 616h177l131 -618q19 -68 79 -115t127 -47h97z" />
    <glyph glyph-name="uniFE9B" unicode="&#x62b;" horiz-adv-x="761" arabic-form="initial" 
d="M180 1647q46 0 87 -33.5t50 -77.5q9 -47 -17.5 -80t-72.5 -33t-86 33t-49 80q-9 45 17 78t71 33zM86 1358q47 0 87.5 -33t49.5 -78q10 -47 -16 -79.5t-72 -32.5t-86.5 32.5t-50.5 79.5q-10 44 16.5 77.5t71.5 33.5zM399 1358q47 0 88 -33t50 -78q10 -47 -16 -79.5
t-72 -32.5t-87 32.5t-51 79.5q-9 44 17.5 77.5t70.5 33.5zM352 0h-202q-36 0 -67.5 26t-39.5 62q-9 38 12 63t58 25h202q57 0 87 37.5t18 93.5l-139 656h176l139 -656q26 -126 -45.5 -216.5t-198.5 -90.5z" />
    <glyph glyph-name="uniFE9C" unicode="&#x62b;" horiz-adv-x="737" arabic-form="medial" 
d="M197 1495q47 0 87.5 -33t49.5 -78q9 -47 -17 -79.5t-73 -32.5q-45 0 -85.5 33t-49.5 79q-9 44 17.5 77.5t70.5 33.5zM102 1206q47 0 88 -32.5t52 -77.5q9 -47 -17.5 -80t-72.5 -33t-86.5 33t-49.5 80q-10 44 16 77t70 33zM416 1206q47 0 87.5 -32.5t51.5 -77.5
q9 -47 -17.5 -80t-72.5 -33t-86 33t-49 80q-10 44 16 77t70 33zM856 176q36 0 68 -25t39 -61q7 -38 -14 -64t-58 -26h-96q-76 0 -149 34t-128 93q-28 -58 -84.5 -92.5t-130.5 -34.5h-151q-40 0 -71 25t-38 63q-9 38 11.5 63t60.5 25h133q66 0 103.5 48t23.5 116l-92 428h176
l92 -430q19 -68 79 -115t128 -47h98z" />
    <glyph glyph-name="uniFE9E" unicode="&#x62c;" horiz-adv-x="1501" arabic-form="final" 
d="M672 0q-100 0 -155.5 -71t-33.5 -171q22 -101 107.5 -171t185.5 -70h422l37 -176h-424q-172 0 -319.5 122t-184.5 295q-24 113 11 209t119.5 152.5t197.5 56.5h641q-29 14 -57.5 51.5t-38.5 81.5l-17 82q-48 213 -194 309q-69 46 -155 67.5t-165 19t-141 -13.5t-107 -28
l-106 158q68 27 151.5 42.5t184 17.5t210 -28t203.5 -91q223 -152 293 -453l19 -84q10 -50 49.5 -90.5t89.5 -40.5h199l37 -176h-1059zM768 -147q44 0 82 -30.5t47 -72.5q9 -44 -16 -75t-68 -31t-80.5 31t-46.5 75q-9 41 16 72t66 31z" />
    <glyph glyph-name="uniFE9F" unicode="&#x62c;" horiz-adv-x="1310" arabic-form="initial" 
d="M1341 0h-1191q-37 0 -68.5 25.5t-38.5 62.5q-8 37 12.5 62.5t57.5 25.5h942q-37 20 -64.5 55t-36.5 78l-16 72q-46 216 -201 319q-71 47 -158.5 69t-167.5 18t-141 -15.5t-108 -28.5l-103 160q67 28 151 43.5t185 16t212 -30t206 -92.5q103 -66 182 -178.5t113 -272.5
l16 -80q12 -59 54 -96t96 -37h31zM741 -190q46 0 86.5 -33.5t49.5 -77.5q10 -47 -16.5 -80t-74.5 -33q-45 0 -85 33t-50 80q-9 44 17.5 77.5t72.5 33.5z" />
    <glyph glyph-name="uniFEA0" unicode="&#x62c;" horiz-adv-x="1273" arabic-form="medial" 
d="M1460 0h-1310q-37 0 -68.5 25.5t-38.5 62.5q-8 37 12.5 62.5t57.5 25.5h921q-37 19 -64 54.5t-36 78.5l-16 70q-45 218 -201 321q-71 47 -158 68.5t-166.5 18t-140.5 -14.5t-105 -27l-94 158q58 28 142.5 43t184 14.5t210.5 -31.5t203 -91q103 -66 181 -178t113 -271
l17 -80q12 -59 53.5 -96t95.5 -37h170zM827 -190q46 0 86.5 -33.5t49.5 -77.5q10 -47 -16.5 -80t-74.5 -33q-45 0 -85 33t-50 80q-9 44 17.5 77.5t72.5 33.5z" />
    <glyph glyph-name="uniFEA2" unicode="&#x62d;" horiz-adv-x="1546" arabic-form="final" 
d="M633 0q-84 0 -130.5 -60t-29.5 -145q19 -85 91 -145t157 -60h463l37 -174h-463q-157 0 -291 110.5t-168 268.5q-34 159 53 270t244 111h680q-29 14 -57.5 51.5t-38.5 81.5l-17 82q-48 211 -194 307q-68 46 -153.5 67.5t-165 19t-141.5 -13t-108 -26.5l-106 156
q70 28 153.5 44.5t184.5 18.5t210.5 -28.5t203.5 -93.5q99 -67 176 -180t114 -273l19 -82q10 -50 49.5 -90.5t89.5 -40.5h199l37 -176h-1098z" />
    <glyph glyph-name="uniFEA3" unicode="&#x62d;" horiz-adv-x="1310" arabic-form="initial" 
d="M1341 0h-1191q-37 0 -68.5 25.5t-38.5 62.5q-8 37 12.5 62.5t57.5 25.5h942q-37 20 -64.5 55t-36.5 78l-16 74q-46 216 -201 319q-71 47 -158 69t-167.5 18t-142 -15.5t-109.5 -28.5l-103 160q68 28 152.5 43.5t185.5 16t212 -30t206 -92.5q103 -66 181.5 -178.5
t111.5 -272.5l18 -82q12 -59 54 -96t96 -37h31z" />
    <glyph glyph-name="uniFEA4" unicode="&#x62d;" horiz-adv-x="1273" arabic-form="medial" 
d="M1460 0h-1310q-37 0 -68.5 25.5t-38.5 62.5q-8 37 12.5 62.5t57.5 25.5h921q-37 19 -64 54.5t-36 78.5l-16 74q-45 217 -201 322q-71 47 -158 68.5t-166.5 18t-140.5 -14.5t-105 -27l-94 157q59 28 142.5 43.5t183.5 15.5t211 -31t203 -93q103 -66 181 -178.5t111 -270.5
l19 -84q12 -59 53.5 -96t95.5 -37h170z" />
    <glyph glyph-name="uniFEA6" unicode="&#x62e;" horiz-adv-x="1544" arabic-form="final" 
d="M608 1364q46 0 86 -32.5t49 -78.5q10 -46 -16 -79t-72 -33t-86 33t-51 79q-9 46 17.5 78.5t72.5 32.5zM633 0q-84 0 -130.5 -60t-29.5 -145q19 -85 91 -145t157 -60h463l37 -174h-463q-157 0 -291 110.5t-168 268.5q-34 159 53 270t244 111h680q-29 14 -57.5 51.5
t-38.5 81.5l-17 80q-47 208 -194 309q-68 46 -153.5 67.5t-164.5 19t-141 -13.5t-107 -28l-108 158q70 28 153.5 44t185 18.5t211 -28t202.5 -93.5q220 -153 290 -453l19 -82q10 -50 49.5 -90.5t89.5 -40.5h199l37 -176h-1098z" />
    <glyph glyph-name="uniFEA7" unicode="&#x62e;" horiz-adv-x="1310" arabic-form="initial" 
d="M297 1253q-9 46 17.5 78.5t70.5 32.5q47 0 87.5 -32.5t49.5 -78.5t-17 -79t-73 -33q-45 0 -85.5 33.5t-49.5 78.5zM1341 0h-1191q-37 0 -68.5 25.5t-38.5 62.5q-8 37 12.5 62.5t57.5 25.5h942q-37 20 -64.5 55t-36.5 78l-16 74q-46 216 -201 319q-71 47 -158 69
t-167.5 18t-142 -15.5t-109.5 -28.5l-103 160q68 28 152.5 43.5t185.5 16t212 -30t206 -92.5q103 -66 181.5 -178.5t111.5 -272.5l18 -82q12 -59 54 -96t96 -37h31z" />
    <glyph glyph-name="uniFEA8" unicode="&#x62e;" horiz-adv-x="1277" arabic-form="medial" 
d="M276 1253q-9 45 17.5 78t71.5 33q47 0 87.5 -32.5t49.5 -78.5t-17 -79t-73 -33q-45 0 -86 33.5t-50 78.5zM1460 0h-1310q-37 0 -68.5 25.5t-38.5 62.5q-8 37 12.5 62.5t57.5 25.5h921q-37 19 -64 54.5t-36 78.5l-16 74q-46 216 -201 319q-71 47 -158 68.5t-166.5 18.5
t-140.5 -14t-105 -27l-94 159q58 28 142.5 43t184 14.5t210.5 -31.5t203 -91q103 -66 181 -178.5t111 -272.5l19 -82q12 -59 53.5 -96t95.5 -37h170z" />
    <glyph glyph-name="uniFEAA" unicode="&#x62f;" horiz-adv-x="1257" arabic-form="final" 
d="M1483 86q8 -36 -12 -61t-58 -25h-47q-193 0 -352 137l-6 -12q-37 -58 -100.5 -91.5t-137.5 -33.5h-522l-37 176h522q78 0 111 57q39 59 2 138l-281 592l156 45l299 -623q43 -94 128.5 -151.5t180.5 -57.5h47q37 0 68 -27t39 -63z" />
    <glyph glyph-name="uniFEAC" unicode="&#x630;" horiz-adv-x="1286" arabic-form="final" 
d="M559 1122q-46 0 -86.5 33t-50.5 80q-9 44 17.5 77.5t72.5 33.5t86 -33.5t49 -77.5q10 -47 -16 -80t-72 -33zM1516 86q8 -36 -12.5 -61t-59.5 -25h-78q-196 0 -352 137l-6 -12q-37 -58 -100.5 -91.5t-137.5 -33.5h-522l-37 176h522q78 0 111 57q39 55 4 132l-283 598
l156 45l287 -596l6 -13l6 -14q43 -94 128.5 -151.5t180.5 -57.5h78q39 0 70 -27t39 -63z" />
    <glyph glyph-name="uniFEAE" unicode="&#x631;" horiz-adv-x="755" arabic-form="final" 
d="M874 176q37 0 68.5 -25.5t38.5 -62.5q8 -37 -12.5 -62.5t-57.5 -25.5h-69q-64 0 -125 26.5t-103 71.5l23 -116q17 -104 -2.5 -187t-69 -138t-116.5 -89t-152 -51l-96 166q44 9 79.5 21t71 31.5t57.5 44t39.5 60t17.5 79.5t-9 101l-199 934h174l121 -571
q19 -86 92.5 -146.5t159.5 -60.5h69z" />
    <glyph glyph-name="uniFEB0" unicode="&#x632;" horiz-adv-x="755" arabic-form="final" 
d="M256 1364q47 0 87.5 -32.5t49.5 -78.5t-17 -79t-73 -33q-45 0 -85.5 33.5t-49.5 78.5q-9 46 17.5 78.5t70.5 32.5zM870 176q35 0 66.5 -25.5t40.5 -62.5q7 -36 -13.5 -62t-56.5 -26h-65q-65 0 -125.5 25.5t-102.5 72.5l23 -116q17 -104 -2.5 -187t-69 -138t-116.5 -89
t-152 -51l-96 166q50 10 87.5 22.5t73 31.5t56 44t36 59.5t14 78.5t-10.5 101l-199 934h174l121 -571q19 -86 92.5 -146.5t159.5 -60.5h65z" />
    <glyph glyph-name="uniFEB2" unicode="&#x633;" horiz-adv-x="2627" arabic-form="final" 
d="M2748 176q34 0 66 -26.5t39 -61.5q7 -36 -13.5 -62t-56.5 -26h-73q-72 0 -141 37.5t-113 97.5q-79 -135 -254 -135q-94 0 -182 43.5t-152 118.5q-30 -74 -99 -117.5t-163 -44.5q-135 0 -242 96l63 -303q19 -85 -27.5 -145t-131.5 -60h-424q-207 0 -385 147.5t-221 354.5
l-72 330h178l70 -330q29 -135 143.5 -230.5t249.5 -95.5h387q28 0 43.5 19.5t9.5 48.5l-196 926h172l82 -379q17 -87 90 -145t166 -58q95 0 144.5 60.5t31.5 148.5l-78 367h174l80 -373q18 -89 92 -146t166 -57q87 0 135 61t29 148l-121 571h176l139 -659q10 -51 52 -86
t92 -35h75z" />
    <glyph glyph-name="uniFEB3" unicode="&#x633;" horiz-adv-x="1804" arabic-form="initial" 
d="M1620 956l121 -569q35 -163 -58 -275t-256 -112q-104 0 -191.5 44.5t-148.5 121.5q-77 -166 -282 -166q-169 0 -303 137q-19 -61 -72.5 -99t-126.5 -38h-156q-37 0 -66.5 25.5t-37.5 62.5q-8 34 12 60t56 26h155q51 0 79 35t17 86l-100 467h174l82 -381
q19 -88 92.5 -147.5t165.5 -59.5q99 0 148.5 61.5t29.5 151.5l-80 375h175l81 -381q19 -88 92.5 -146.5t168.5 -58.5q97 0 146 60.5t30 150.5l-121 569h174z" />
    <glyph glyph-name="uniFEB4" unicode="&#x633;" horiz-adv-x="1941" arabic-form="medial" 
d="M2060 174q36 0 69 -25.5t40 -60.5q7 -36 -14.5 -62t-57.5 -26h-137q-76 0 -148.5 40t-117.5 103q-34 -66 -104.5 -104.5t-159.5 -38.5q-105 0 -195.5 46.5t-151.5 123.5q-76 -170 -288 -170q-76 0 -161 34t-151 107q-19 -63 -74 -102t-130 -39h-132q-35 0 -66 25.5
t-38 62.5q-7 35 13 60.5t55 25.5h131q53 0 82.5 37.5t17.5 89.5l-98 461h174l80 -373q20 -91 96.5 -153t171.5 -62q100 0 151 64t31 157l-78 367h174l80 -373q20 -92 96 -152.5t173 -60.5q100 0 151 63t31 156l-119 561h174l139 -655q12 -53 56.5 -90t97.5 -37h137z" />
    <glyph glyph-name="uniFEB6" unicode="&#x634;" horiz-adv-x="2637" arabic-form="final" 
d="M1567 1464q47 0 87.5 -32t49.5 -78t-17 -79.5t-71 -33.5q-46 0 -87 33.5t-50 79.5q-9 45 17 77.5t71 32.5zM1464 1163q47 0 88.5 -32t51.5 -78q9 -46 -18 -79.5t-73 -33.5t-86 33.5t-49 79.5q-10 45 15.5 77.5t70.5 32.5zM1802 1163q47 0 88.5 -32t51.5 -78
q9 -46 -18 -79.5t-73 -33.5t-86 33.5t-49 79.5q-10 45 15.5 77.5t70.5 32.5zM2759 176q35 0 66 -26t40 -62q7 -36 -14 -62t-55 -26h-86q-72 0 -141 37.5t-113 97.5q-79 -135 -254 -135q-94 0 -182 43.5t-152 118.5q-30 -74 -99 -117.5t-163 -44.5q-135 0 -242 96l63 -303
q19 -85 -27.5 -145t-131.5 -60h-424q-207 0 -385 147.5t-221 354.5l-72 330h178l70 -330q29 -135 143.5 -230.5t249.5 -95.5h387q28 0 43.5 19.5t9.5 48.5l-198 934h172l84 -387q17 -87 90 -145t166 -58q95 0 144.5 60.5t31.5 148.5l-80 375h174l82 -381q18 -89 92 -146
t166 -57q87 0 135 61t29 148l-121 571h176l139 -659q10 -51 52 -86t92 -35h86z" />
    <glyph glyph-name="uniFEB7" unicode="&#x634;" horiz-adv-x="1808" arabic-form="initial" 
d="M770 1477q47 0 87.5 -32.5t51.5 -78.5q9 -46 -17.5 -79.5t-72.5 -33.5t-86 33.5t-49 79.5q-10 45 15.5 78t70.5 33zM670 1176q46 0 86.5 -32.5t50.5 -78.5q9 -46 -17 -79.5t-73 -33.5q-45 0 -85.5 34t-49.5 79q-10 46 16 78.5t72 32.5zM1008 1176q46 0 86.5 -32.5
t50.5 -78.5q9 -46 -17 -79.5t-73 -33.5q-45 0 -85.5 34t-49.5 79q-10 46 16 78.5t72 32.5zM1624 956l121 -569q35 -163 -57 -275t-256 -112q-102 0 -189.5 45t-148.5 121q-37 -80 -110 -123t-175 -43q-82 0 -161 36.5t-140 100.5q-19 -61 -73 -99t-126 -38h-162
q-37 0 -66.5 25.5t-37.5 62.5q-8 34 12 61t56 27h161q50 0 77.5 35t17.5 86l-99 465h172l82 -381q19 -88 93.5 -147.5t166.5 -59.5q97 0 147.5 61.5t31.5 151.5l-80 375h172l82 -381q19 -88 92 -146.5t168 -58.5q99 0 148 60.5t28 150.5l-121 569h174z" />
    <glyph glyph-name="uniFEB8" unicode="&#x634;" horiz-adv-x="1910" arabic-form="medial" 
d="M756 1477q47 0 87.5 -32.5t51.5 -78.5q9 -46 -17.5 -79.5t-72.5 -33.5t-86 33.5t-49 79.5q-10 45 15.5 78t70.5 33zM655 1176q46 0 87 -32.5t51 -78.5q9 -46 -17.5 -79.5t-73.5 -33.5q-45 0 -85.5 34t-49.5 79q-10 46 16 78.5t72 32.5zM993 1176q46 0 86.5 -32.5
t50.5 -78.5q9 -46 -17 -79.5t-73 -33.5q-45 0 -85.5 34t-49.5 79q-10 46 16 78.5t72 32.5zM2030 174q36 0 68.5 -25.5t39.5 -60.5q7 -36 -14.5 -62t-57.5 -26h-124q-76 0 -149 40t-118 103q-34 -66 -104.5 -104.5t-159.5 -38.5q-105 0 -195 46.5t-151 123.5
q-37 -82 -110.5 -126t-178.5 -44q-76 0 -160.5 34t-150.5 107q-19 -63 -74.5 -102t-130.5 -39h-113q-35 0 -66 25.5t-38 62.5q-7 35 13 60.5t55 25.5h112q53 0 83 37.5t18 89.5l-99 461h174l80 -373q20 -91 97 -153t172 -62q100 0 151 64t31 157l-78 367h174l80 -373
q20 -92 95.5 -152.5t172.5 -60.5q100 0 151 63t31 156l-118 561h174l139 -655q12 -53 56.5 -90t97.5 -37h125z" />
    <glyph glyph-name="uniFEBA" unicode="&#x635;" horiz-adv-x="2721" arabic-form="final" 
d="M2857 176l37 -176h-1489l49 -229q17 -78 -28 -135.5t-123 -57.5h-447q-139 0 -271 68.5t-225 186t-122 255.5l-62 287h174l60 -287q29 -138 150 -237t259 -99h408q23 0 36.5 17.5t8.5 40.5l-244 1146h174l41 -192l516 168q159 52 337.5 -8t295.5 -205q95 -117 123 -258
l61 -285h281zM2359 176q19 0 28.5 12t6.5 31l-53 242q-19 96 -82 170q-71 93 -187.5 130.5t-224.5 4.5l-565 -184l86 -406h991z" />
    <glyph glyph-name="uniFEBB" unicode="&#x635;" horiz-adv-x="1771" arabic-form="initial" 
d="M1579 719q95 -117 123 -258l65 -301q13 -67 -23.5 -113.5t-101.5 -46.5h-1511l-37 176h287l-166 780h174l41 -192l516 168q159 52 337.5 -8t295.5 -205zM1581 219l-53 242q-19 96 -82 170q-71 93 -187.5 130.5t-224.5 4.5l-565 -184l86 -406h991q19 0 28.5 12t6.5 31z
" />
    <glyph glyph-name="uniFEBC" unicode="&#x635;" horiz-adv-x="1843" arabic-form="medial" 
d="M1978 176l37 -176h-1884l-37 176h254l-166 780h174l41 -192l516 168q159 52 337.5 -8t295.5 -205q95 -117 123 -258l62 -285h247zM1513 176q19 0 28.5 12t6.5 31l-53 242q-19 96 -82 170q-71 93 -187.5 130.5t-224.5 4.5l-565 -184l86 -406h991z" />
    <glyph glyph-name="uniFEBE" unicode="&#x636;" horiz-adv-x="2721" arabic-form="final" 
d="M1743 1141q-45 0 -85.5 33.5t-49.5 78.5q-9 46 17.5 78.5t70.5 32.5q47 0 87.5 -32.5t49.5 -78.5t-17 -79t-73 -33zM2857 176l37 -176h-1489l49 -229q17 -78 -28 -135.5t-123 -57.5h-447q-139 0 -271 68.5t-225 186t-122 255.5l-72 338h172l72 -338q29 -138 150 -237
t259 -99h408q23 0 36.5 17.5t8.5 40.5l-244 1146h174l41 -192l516 168q159 52 337.5 -8t295.5 -205q95 -117 123 -258l61 -285h281zM2359 176q19 0 28.5 12t6.5 31l-53 242q-19 96 -82 170q-71 93 -187.5 130.5t-224.5 4.5l-565 -184l86 -406h991z" />
    <glyph glyph-name="uniFEBF" unicode="&#x636;" horiz-adv-x="1738" arabic-form="initial" 
d="M786 1364q47 0 88 -32.5t50 -78.5t-17 -79t-73 -33q-45 0 -86 33.5t-50 78.5q-9 46 17.5 78.5t70.5 32.5zM1548 719q92 -117 123 -258l64 -301q13 -67 -23 -113.5t-100 -46.5h-1481l-37 176h256l-166 780h172l43 -192l514 168q160 52 339 -8t296 -205zM1548 219l-51 242
q-23 96 -82 170q-73 93 -189.5 130.5t-224.5 4.5l-565 -184l86 -406h994q18 0 27 12.5t5 30.5z" />
    <glyph glyph-name="uniFEC0" unicode="&#x636;" horiz-adv-x="1867" arabic-form="medial" 
d="M905 1141q-46 0 -86 33t-51 79q-9 46 17.5 78.5t72.5 32.5t86 -32.5t49 -78.5q10 -46 -16 -79t-72 -33zM2003 176l37 -176h-1909l-37 176h271l-166 780h174l41 -192l516 168q159 52 337.5 -8t295.5 -205q95 -117 123 -258l61 -285h256zM1530 176q19 0 28.5 12t6.5 31
l-54 242q-20 97 -81 170q-71 93 -187.5 130.5t-224.5 4.5l-565 -184l86 -406h991z" />
    <glyph glyph-name="uniFEC2" unicode="&#x637;" horiz-adv-x="2015" arabic-form="final" 
d="M2150 176l37 -176h-1915l-39 184h254l-264 1243h174l140 -657l516 168q159 52 337.5 -8t295.5 -205q94 -117 122 -256l62 -293h280zM1655 176q18 0 27.5 12.5t5.5 30.5l-54 250q-19 96 -82 170q-73 93 -187.5 129.5t-223.5 5.5l-566 -184l89 -414h991z" />
    <glyph glyph-name="uniFEC3" unicode="&#x637;" horiz-adv-x="1757" arabic-form="initial" 
d="M1565 725q95 -118 123 -256l65 -309q13 -67 -23 -113.5t-100 -46.5h-1499l-37 176h275l-267 1251h174l140 -657l516 168q159 52 337.5 -8t295.5 -205zM1567 219l-54 250q-20 97 -81 170q-73 93 -188 129.5t-224 5.5l-565 -184l88 -414h991q18 0 27.5 12.5t5.5 30.5z" />
    <glyph glyph-name="uniFEC4" unicode="&#x637;" horiz-adv-x="1873" arabic-form="medial" 
d="M2009 176l37 -176h-1915l-37 176h275l-265 1251h175l139 -657l514 168q160 52 339 -8t296 -205q92 -117 123 -258l61 -291h258zM1534 176q19 0 28.5 12t6.5 31l-53 248q-23 98 -84 170q-71 93 -187.5 130.5t-224.5 4.5l-563 -184l86 -412h991z" />
    <glyph glyph-name="uniFEC6" unicode="&#x638;" horiz-adv-x="1998" arabic-form="final" 
d="M2134 176l37 -176h-1909l-39 184h246l-262 1243h174l139 -657l514 168q160 52 339 -8t296 -205q94 -120 121 -256l63 -293h281zM1053 1141q-46 0 -87 33t-51 79q-9 46 18 78.5t73 32.5t86 -32.5t49 -78.5q10 -46 -16 -79t-72 -33zM1636 176q19 0 28.5 12t6.5 31l-55 250
q-19 96 -82 170q-71 92 -187 129t-225 6l-563 -184l86 -414h991z" />
    <glyph glyph-name="uniFEC7" unicode="&#x638;" horiz-adv-x="1746" arabic-form="initial" 
d="M1565 725q95 -118 123 -256l65 -309q13 -67 -23 -113.5t-100 -46.5h-1499l-37 176h275l-267 1251h174l140 -657l516 168q159 52 337.5 -8t295.5 -205zM870 1364q47 0 88 -32.5t50 -78.5t-17 -79t-73 -33q-45 0 -86 33.5t-50 78.5q-9 46 17.5 78.5t70.5 32.5zM1567 219
l-54 250q-20 97 -81 170q-73 93 -188 129.5t-224 5.5l-565 -184l88 -414h991q18 0 27.5 12.5t5.5 30.5z" />
    <glyph glyph-name="uniFEC8" unicode="&#x638;" horiz-adv-x="1880" arabic-form="medial" 
d="M2015 176l37 -176h-1921l-37 176h281l-264 1251h174l139 -657l514 168q160 52 339 -8t296 -205q92 -117 123 -258l61 -291h258zM942 1141q-45 0 -85.5 33.5t-49.5 78.5q-9 46 17.5 78.5t70.5 32.5q47 0 87.5 -32.5t49.5 -78.5t-17 -79t-73 -33zM1540 176q19 0 28.5 12
t6.5 31l-53 248q-23 98 -84 170q-71 93 -187.5 130.5t-224.5 4.5l-563 -184l86 -412h991z" />
    <glyph glyph-name="uniFECA" unicode="&#x639;" horiz-adv-x="1363" arabic-form="final" 
d="M1509 176l37 -176h-884q-92 0 -142 -65t-31 -156q19 -90 97 -154.5t170 -64.5h497l39 -176h-497q-166 0 -307.5 115.5t-176.5 279.5q-35 171 43.5 279t214.5 114l80 2l-323 506l20 162q120 81 260 113t273 6q157 -29 274.5 -151t134.5 -273q6 -65 -3 -128t-43.5 -129
t-94.5 -104h362zM524 723l-4 -57l318 -480q53 8 96.5 27t71.5 45t49.5 58t31 64.5t16.5 65t5.5 60t-2.5 49.5q-7 82 -71 149t-150 84q-164 32 -361 -65z" />
    <glyph glyph-name="uniFECB" unicode="&#x639;" horiz-adv-x="1161" arabic-form="initial" 
d="M1139 176l37 -176h-1045l-37 174h268q-69 37 -118 103.5t-66 148.5l-22 106q-31 180 71.5 305.5t280.5 125.5q144 0 280 -87.5t191 -218.5l-109 -106q-35 98 -125 166.5t-200 68.5q-107 0 -169.5 -74.5t-43.5 -181.5l20 -102q24 -111 117 -181.5t207 -70.5h463z" />
    <glyph glyph-name="uniFECC" unicode="&#x639;" horiz-adv-x="1159" arabic-form="medial" 
d="M141 0l-37 176h334l-325 504l20 162q120 81 261 113t274 6q155 -29 272.5 -151t134.5 -273q11 -104 -21 -205t-120 -156h348l37 -174zM307 666l320 -480q53 8 96 27t71 45t49.5 58t31.5 64.5t17 65t5.5 60t-2.5 49.5q-9 83 -73.5 149.5t-149.5 83.5q-164 32 -361 -65z
" />
    <glyph glyph-name="uniFECE" unicode="&#x63a;" horiz-adv-x="1363" arabic-form="final" 
d="M659 1141q-46 0 -86 33t-51 79q-9 46 17.5 78.5t72.5 32.5t86.5 -33t49.5 -78q10 -46 -16.5 -79t-72.5 -33zM1509 176l37 -176h-884q-92 0 -142 -65t-31 -156q19 -90 97 -154.5t170 -64.5h497l39 -176h-497q-166 0 -307.5 115.5t-176.5 279.5q-35 171 43.5 279t214.5 114
l80 2l-323 506l20 162q120 81 260 113t273 6q157 -29 274.5 -151t134.5 -273q6 -65 -3 -128t-43.5 -129t-94.5 -104h362zM524 723l-4 -57l318 -480q53 8 96.5 27t71.5 45t49.5 58t31 64.5t16.5 65t5.5 60t-2.5 49.5q-7 82 -71 149t-150 84q-164 32 -361 -65z" />
    <glyph glyph-name="uniFECF" unicode="&#x63a;" horiz-adv-x="1161" arabic-form="initial" 
d="M410 1364q46 0 86 -32.5t49 -78.5q10 -46 -16 -79t-72 -33t-87 33t-51 79q-9 46 18 78.5t73 32.5zM1145 176l37 -176h-1051l-37 174h268q-71 47 -120.5 114.5t-67.5 147.5l-18 99q-31 180 71.5 305t280.5 125q144 0 280 -87.5t191 -218.5l-109 -106q-37 99 -126 167
t-199 68q-107 0 -169.5 -74.5t-43.5 -181.5l18 -94q25 -110 119.5 -186t206.5 -76h469z" />
    <glyph glyph-name="uniFED0" unicode="&#x63a;" horiz-adv-x="1169" arabic-form="medial" 
d="M446 1364q47 0 88 -32.5t50 -78.5t-17 -79t-73 -33q-45 0 -86 33.5t-50 78.5q-9 46 17.5 78.5t70.5 32.5zM141 0l-37 176h334l-325 504l20 162q120 81 261 113t274 6q155 -29 272.5 -151t134.5 -273q11 -104 -21 -205t-120 -156h348l37 -174zM307 666l320 -480
q53 8 96 27t71 45t49.5 58t31.5 64.5t17 65t5.5 60t-2.5 49.5q-9 83 -73.5 149.5t-149.5 83.5q-164 32 -361 -65z" />
    <glyph glyph-name="uniFED2" unicode="&#x641;" horiz-adv-x="2088" arabic-form="final" 
d="M1339 1370q47 0 88 -33t50 -77q9 -47 -17.5 -80t-73.5 -33q-45 0 -85.5 33t-49.5 80q-9 44 17.5 77t70.5 33zM2218 176l37 -176h-1542q-189 0 -352 135.5t-203 325.5l-64 295h174l64 -295q25 -118 126 -201.5t218 -83.5h610q-85 48 -143 126t-78 173l-10 45
q-26 121 13 223t130.5 161t212.5 59q183 1 341 -129.5t196 -313.5l73 -344h197zM1847 176l-73 344q-23 110 -118.5 189t-207.5 79q-114 0 -179 -82.5t-40 -197.5l8 -33q24 -121 127 -206t227 -93h256z" />
    <glyph glyph-name="uniFED3" unicode="&#x641;" horiz-adv-x="1159" arabic-form="initial" 
d="M465 1370q46 0 86 -33t49 -77q10 -47 -16 -80t-72 -33t-86.5 33t-50.5 80q-9 44 17.5 77t72.5 33zM530 963h443l176 -826q12 -57 -20 -97t-89 -40h-909l-37 176h289q-72 44 -124.5 118.5t-72.5 160.5l-14 73q-39 183 66.5 309t291.5 126zM961 209l-127 588h-269
q-116 0 -180 -82t-39 -199l14 -67q26 -114 125 -193.5t213 -79.5h236q12 0 21 10t6 23z" />
    <glyph glyph-name="uniFED4" unicode="&#x641;" horiz-adv-x="1241" arabic-form="medial" 
d="M520 1147q-46 0 -86.5 33t-50.5 80q-9 44 17.5 77t72.5 33t86 -33t49 -77q10 -47 -16 -80t-72 -33zM1139 176h231l37 -176h-1268l-37 176h297q-73 45 -124 117.5t-70 159.5l-17 67q-25 121 14.5 223.5t131 162t211.5 59.5q120 1 234.5 -59t195.5 -163t106 -223l64 -291
q8 -46 -6 -53zM948 176q14 0 22 10t5 25l-68 309q-23 110 -118 189t-205 79q-116 0 -181.5 -80t-40.5 -196l15 -66q23 -113 122 -191.5t214 -78.5h235z" />
    <glyph glyph-name="uniFED6" unicode="&#x642;" horiz-adv-x="1533" arabic-form="final" 
d="M655 1370q46 0 86.5 -33t49.5 -77q10 -47 -16.5 -80t-72.5 -33t-86.5 33t-50.5 80q-9 44 17.5 77t72.5 33zM973 1370q46 0 86 -33t49 -77q10 -47 -16 -80t-72 -33t-86.5 33t-50.5 80q-9 44 17.5 77t72.5 33zM1669 176l37 -176h-180l47 -211q19 -89 -31 -152t-139 -63
h-541q-215 0 -397.5 150.5t-228.5 365.5l-70 334h176l70 -332q29 -141 150 -240.5t261 -99.5h518q28 0 42 18t8 44l-41 186h-260q-187 0 -345 124.5t-198 305.5l-17 82q-26 124 11.5 228.5t128.5 165.5t215 61q179 0 335.5 -129.5t194.5 -311.5l74 -350h180zM1313 176
l-74 350q-23 109 -116.5 187t-200.5 78q-116 0 -179 -81.5t-38 -197.5l16 -78q23 -109 120 -183.5t212 -74.5h260z" />
    <glyph glyph-name="uniFED7" unicode="&#x642;" horiz-adv-x="1171" arabic-form="initial" 
d="M352 1370q46 0 86 -33t49 -77q10 -47 -16 -80t-72 -33t-86.5 33t-50.5 80q-9 44 17.5 77t72.5 33zM670 1370q46 0 86 -33t49 -77q10 -47 -16 -80t-72 -33t-86.5 33t-50.5 80q-9 44 17.5 77t72.5 33zM543 963h444l176 -826q11 -57 -20 -97t-88 -40h-924l-37 176h301
q-71 45 -123 119t-71 160l-17 73q-25 120 15.5 220.5t131.5 157.5t212 57zM973 209l-125 588h-268q-116 0 -180.5 -82t-41.5 -199l17 -67q26 -114 124 -193.5t212 -79.5h235q14 0 22 10t5 23z" />
    <glyph glyph-name="uniFED8" unicode="&#x642;" horiz-adv-x="1236" arabic-form="medial" 
d="M362 1147q-46 0 -86.5 33t-50.5 80q-9 44 17.5 77t72.5 33t86.5 -33t49.5 -77q10 -47 -16.5 -80t-72.5 -33zM680 1147q-46 0 -86.5 33t-50.5 80q-9 44 17.5 77t72.5 33t86 -33t49 -77q10 -47 -16 -80t-72 -33zM1143 176h223l37 -176h-1264l-37 176h301q-73 45 -124 116.5
t-70 156.5l-16 73q-38 184 67 313.5t289 131.5q120 0 234.5 -60t195.5 -162.5t106 -222.5l62 -282q8 -39 -4 -64zM952 176q14 0 22 10t5 25l-68 311q-23 111 -118 190t-205 79q-116 0 -181 -82t-40 -199l14 -68q25 -113 123 -189.5t213 -76.5h235z" />
    <glyph glyph-name="uniFEDA" unicode="&#x643;" horiz-adv-x="1757" arabic-form="final" 
d="M1892 176l37 -176h-1220q-184 0 -341.5 129.5t-195.5 312.5l-63 299h172l63 -299q25 -110 121.5 -189t206.5 -79h651v2h133q20 4 31 22t6 40l-252 1189h174l264 -1251h213zM623 854l-21 92h70q-46 50 -54 98q-11 74 30.5 123.5t113.5 49.5q65 0 121.5 -39t83.5 -99
l-66 -47q-42 88 -119 88q-37 0 -55.5 -24t-9.5 -62q7 -33 34.5 -60.5t67.5 -27.5h172l21 -92h-389z" />
    <glyph glyph-name="uniFEDB" unicode="&#x643;" horiz-adv-x="1386" arabic-form="initial" 
d="M694 965q138 0 269.5 -68t224 -185t121.5 -255l71 -332q11 -51 -18 -88t-80 -37h-1151l-37 176h1055q19 0 29 13t6 32l-47 223q-31 142 -153 243t-263 101h-502l-166 195l293 580l166 -103l-254 -495h436z" />
    <glyph glyph-name="uniFEDC" unicode="&#x643;" horiz-adv-x="1406" arabic-form="medial" 
d="M1542 176l35 -174l-1446 -2l-37 176h1045l-58 268q-31 142 -152.5 243t-262.5 101h-494l-137 199l293 588l166 -102l-254 -508h401q209 0 388.5 -148.5t225.5 -359.5l60 -281h227z" />
    <glyph glyph-name="uniFEDE" unicode="&#x644;" horiz-adv-x="1509" arabic-form="final" 
d="M1628 176q36 0 68 -26t39 -64q7 -35 -14 -60.5t-56 -25.5h-102q-50 0 -98 24.5t-76 63.5l71 -336q12 -63 -23.5 -108t-99.5 -45h-485q-213 0 -394 149.5t-227 362.5l-67 317h176l68 -317q29 -139 148 -237.5t257 -98.5h416q27 0 35.5 18.5t1.5 44.5l-336 1589h174
l229 -1083q15 -70 71.5 -119t119.5 -49h104z" />
    <glyph glyph-name="uniFEDF" unicode="&#x644;" horiz-adv-x="602" arabic-form="initial" 
d="M147 0q-37 0 -66.5 25.5t-37.5 62.5q-8 36 12 62t56 26h122q51 0 80 36t19 87l-240 1128h176l240 -1128q26 -124 -43.5 -211.5t-192.5 -87.5h-125z" />
    <glyph glyph-name="uniFEE0" unicode="&#x644;" horiz-adv-x="624" arabic-form="medial" 
d="M743 176q36 0 68 -25t39 -61q7 -38 -14 -64t-58 -26h-61q-76 0 -149 34t-128 93q-28 -58 -84.5 -92.5t-130.5 -34.5h-73q-40 0 -71 25t-38 63q-9 38 11.5 63t60.5 25h55q66 0 103.5 48t23.5 116l-231 1087h176l231 -1089q19 -68 79 -115t128 -47h63z" />
    <glyph glyph-name="uniFEE2" unicode="&#x645;" horiz-adv-x="1353" arabic-form="final" 
d="M1499 176l37 -176h-117q-89 0 -170 49t-123 125q-40 -81 -119 -127.5t-180 -46.5q-86 0 -164.5 32t-136.5 85l17 -78q14 -98 -5 -177t-65.5 -131.5t-108 -86t-137.5 -50.5l-67 173q123 29 176 109.5t24 213.5l-184 873h447q123 0 239.5 -60.5t198 -165t106.5 -227.5
l43 -195q12 -58 62 -98.5t110 -40.5h117zM791 176q114 0 177.5 77t41.5 191l-15 66q-23 115 -120 194.5t-213 79.5h-275l76 -352q25 -120 120.5 -188t207.5 -68z" />
    <glyph glyph-name="uniFEE3" unicode="&#x645;" horiz-adv-x="1282" arabic-form="initial" 
d="M98 176q-36 0 -55.5 -25.5t-11.5 -62.5q8 -35 37.5 -61t66.5 -27h72q93 0 161.5 50t88.5 132q74 -84 177 -133.5t208 -48.5q120 1 210.5 60t130 160t15.5 220l-14 64q-40 194 -199 326.5t-352 132.5h-457l131 -615q15 -75 -22.5 -123.5t-114.5 -48.5h-72zM801 176
q-116 -2 -213 73.5t-125 190.5l-74 348h277q120 0 219.5 -80t124.5 -198l14 -61q22 -114 -43.5 -193.5t-179.5 -79.5z" />
    <glyph glyph-name="uniFEE4" unicode="&#x645;" horiz-adv-x="1347" arabic-form="medial" 
d="M1477 176q37 0 69 -25.5t39 -62.5q8 -35 -13.5 -61.5t-58.5 -26.5h-75q-90 0 -171 49t-124 127q-37 -81 -115.5 -128.5t-181.5 -47.5q-112 0 -212 48t-175 134q-22 -83 -89 -132.5t-161 -49.5h-80q-35 2 -66 27.5t-38 60.5q-8 35 12 61.5t55 26.5h80q74 0 113 49t22 123
l-129 615h465q120 0 235.5 -58.5t198 -160t109.5 -222.5l45 -205q12 -58 61.5 -99.5t108.5 -41.5h76zM1026 453l-14 67q-28 116 -125.5 192t-220.5 76h-275l74 -342q25 -114 122 -193t210 -77q126 0 190 80t39 197z" />
    <glyph glyph-name="uniFEE6" unicode="&#x646;" horiz-adv-x="1499" arabic-form="final" 
d="M618 965q46 0 87.5 -33.5t50.5 -77.5q10 -47 -16.5 -80t-73.5 -33q-45 0 -85.5 33t-50.5 80q-9 45 17 78t71 33zM1616 176q37 0 68.5 -26.5t39.5 -61.5q7 -37 -13.5 -62.5t-57.5 -25.5h-99q-49 0 -96.5 24.5t-75.5 63.5l70 -332q14 -63 -21.5 -108t-99.5 -45h-481
q-139 0 -271.5 68t-225.5 185.5t-122 256.5l-65 313h174l66 -313q29 -138 148 -237t257 -99h393q29 0 45.5 18.5t10.5 46.5l-232 1092h174l127 -600q17 -66 71.5 -112t115.5 -46h100z" />
    <glyph glyph-name="uniFEE7" unicode="&#x646;" horiz-adv-x="583" arabic-form="initial" 
d="M211 1364q46 0 86 -32.5t49 -78.5q10 -46 -16 -79t-72 -33t-86 33t-51 79q-9 46 17.5 78.5t72.5 32.5zM285 0h-135q-36 0 -67.5 26t-39.5 62q-9 38 12 63t58 25h135q57 0 86.5 37.5t17.5 93.5l-137 647h176l137 -647q26 -126 -45 -216.5t-198 -90.5z" />
    <glyph glyph-name="uniFEE8" unicode="&#x646;" horiz-adv-x="657" arabic-form="medial" 
d="M213 1217q47 0 87.5 -32.5t51.5 -78.5q9 -46 -18 -79.5t-74 -33.5q-44 0 -84 33.5t-49 79.5q-10 45 15.5 78t70.5 33zM776 176q36 0 68 -25t39 -61q7 -38 -14 -64t-58 -26h-80q-76 0 -148 34t-128 93q-28 -58 -84.5 -92.5t-130.5 -34.5h-88q-40 0 -71 25t-38 63
q-9 38 11.5 63t60.5 25h69q66 0 103.5 48t23.5 116l-90 422h176l90 -424q19 -68 79 -115t128 -47h82z" />
    <glyph glyph-name="uniFEEA" unicode="&#x647;" horiz-adv-x="1284" arabic-form="final" 
d="M1403 176q36 0 66.5 -25.5t39.5 -62.5q8 -35 -12 -61t-57 -27h-103q-93 0 -180 49.5t-145 132.5q-37 -83 -117.5 -132.5t-185.5 -49.5q-122 0 -239 59t-200 161t-108 222l-17 76q-41 194 62 319.5t297 125.5h457l133 -615q15 -75 72 -123.5t134 -48.5h103zM672 176
q117 0 182 82.5t39 200.5l-70 329h-282q-114 0 -181 -76t-43 -194l15 -67q26 -115 125 -195t215 -80z" />
    <glyph glyph-name="uniFEEB" unicode="&#x647;" horiz-adv-x="1517" arabic-form="initial" 
d="M705 1153q270 -60 479.5 -269.5t271.5 -498.5l41 -192q15 -79 -28.5 -136t-120.5 -57h-1217l-37 174h281q-68 43 -120 117t-69 155q-36 169 65.5 282.5t278.5 113.5q182 0 335.5 -130t191.5 -315l33 -153q10 -40 2 -70h190q20 0 30 13.5t5 33.5l-33 164
q-47 223 -204.5 387t-368.5 211q-166 41 -342 41l-35 172q126 -3 195.5 -11.5t175.5 -31.5zM567 668q-101 0 -163.5 -69.5t-41.5 -174.5q24 -106 110 -178t179 -72h236q18 0 29.5 13t7.5 32l-41 195q-21 98 -114.5 176t-201.5 78z" />
    <glyph glyph-name="uniFEEC" unicode="&#x647;" horiz-adv-x="1323" arabic-form="medial" 
d="M1184 176h274l37 -176h-209l10 -37q39 -187 -65.5 -304.5t-315.5 -117.5q-184 0 -346 121.5t-221 300.5l-12 37h-205l-37 174h199l-60 281q-27 130 10 242.5t126.5 180.5t210.5 74q196 9 381 -131q84 -67 140.5 -156.5t78.5 -187.5q28 -136 -19 -245t-157.5 -170.5
t-264.5 -61.5h-223l12 -33q37 -108 137.5 -181t213.5 -73q128 0 194.5 82.5t40.5 202.5l-14 70q-9 45 17 76.5t67 31.5zM408 455l59 -281h235q64 0 123 19.5t106 55.5t68.5 96.5t6.5 133.5q-30 135 -140 217q-106 87 -239 80q-77 -3 -133.5 -47.5t-79.5 -117t-6 -156.5z" />
    <glyph glyph-name="uniFEEE" unicode="&#x648;" horiz-adv-x="1157" arabic-form="final" 
d="M1329 0h-180q44 -207 -70 -336q-83 -97 -214 -130.5t-378 -33.5l-36 174h75.5t73 2t80.5 6t71 12.5t73 20.5t58.5 31.5t53.5 44.5q54 63 39 170l-6 39h-250q-196 0 -360 141t-207 342q-27 133 10 242.5t130 173.5t224 64h428l168 -787h180zM936 176l-131 610h-252
q-125 0 -189 -86.5t-38 -216.5q28 -129 129.5 -218t226.5 -89h254z" />
    <glyph glyph-name="uniFEF0" unicode="&#x649;" horiz-adv-x="1800" arabic-form="final" 
d="M1917 176q37 0 69 -24.5t39 -61.5q7 -36 -14 -63t-57 -27q-105 0 -230 25q74 -64 93 -156q34 -155 -52.5 -264t-240.5 -109h-637q-145 0 -283.5 71t-236 194t-127.5 268l-74 342h176l74 -342q31 -149 157.5 -254t274.5 -105h637q82 0 127 58.5t28 140.5
q-13 69 -66.5 126.5t-125.5 80.5l-315 117l43 159q255 -98 256 -98q245 -78 485 -78z" />
    <glyph glyph-name="uniFEF2" unicode="&#x64a;" horiz-adv-x="1800" arabic-form="final" 
d="M1917 176q37 0 69 -24.5t39 -61.5q7 -36 -14 -63t-57 -27q-105 0 -230 25q74 -64 93 -156q34 -155 -52.5 -264t-240.5 -109h-637q-145 0 -283.5 71t-236 194t-127.5 268l-74 342h176l74 -342q31 -149 157.5 -254t274.5 -105h637q82 0 127 58.5t28 140.5
q-13 69 -66.5 126.5t-125.5 80.5l-315 117l43 159q255 -98 256 -98q245 -78 485 -78zM1042 -645q46 0 87.5 -33.5t50.5 -77.5q10 -47 -16 -79.5t-74 -32.5q-45 0 -85.5 32.5t-50.5 79.5q-9 45 17 78t71 33zM1362 -645q47 0 88.5 -33.5t50.5 -77.5q9 -47 -17.5 -79.5
t-72.5 -32.5t-86 32.5t-49 79.5q-9 44 16.5 77.5t69.5 33.5z" />
    <glyph glyph-name="uniFEF3" unicode="&#x64a;" horiz-adv-x="735" arabic-form="initial" 
d="M457 0h-307q-36 0 -67.5 26t-39.5 62q-9 38 12 63t58 25h307q57 0 86.5 37.5t17.5 93.5l-137 647h176l137 -647q26 -126 -45 -216.5t-198 -90.5zM373 -205q47 0 87.5 -32t49.5 -78q11 -46 -16 -79.5t-74 -33.5q-44 0 -84 33.5t-51 79.5q-9 45 17 77.5t71 32.5zM694 -205
q46 0 87 -32.5t50 -77.5q9 -46 -17.5 -79.5t-72.5 -33.5t-86 33.5t-49 79.5t16.5 78t71.5 32z" />
    <glyph glyph-name="uniFEF4" unicode="&#x64a;" horiz-adv-x="778" arabic-form="medial" 
d="M897 176q36 0 68 -25t39 -61q7 -38 -14 -64t-58 -26h-137q-76 0 -149 34t-128 93q-28 -58 -84.5 -92.5t-130.5 -34.5h-151q-40 0 -71 25t-38 63q-9 38 11.5 63t60.5 25h133q66 0 103.5 48t23.5 116l-94 442h176l94 -444q19 -68 79 -115t128 -47h139zM403 -205
q48 0 88.5 -32t49.5 -78q11 -46 -16 -79.5t-74 -33.5q-44 0 -85 33.5t-51 79.5q-9 45 17 77.5t71 32.5zM725 -205q46 0 87 -32.5t50 -77.5q9 -46 -17.5 -79.5t-72.5 -33.5t-86 33.5t-49 79.5t16.5 78t71.5 32z" />
    <glyph glyph-name=".notdef" horiz-adv-x="972" 
d="M799 1434v-1946h-619v1946h619zM647 1303h-319v-64h125v-72h-127v-63h321v63h-127v72h127v64zM520 1053h-194v-203h321v65h-127v138zM453 987v-72h-64v72h64zM647 797h-321v-64h127v-71h-127v-64h194v135h127v64zM647 680h-63v-127h-258v-68h321v195zM647 442h-194v-108
h67v45h64v-92h-195v155h-63v-219h321v219zM647 106h-321v-219h321v219zM584 43v-92h-195v92h195zM647 -158h-321v-63h135l-135 -92v-64h321v64h-198l137 92h61v63z" />
    <glyph glyph-name=".null" horiz-adv-x="614" 
 />
    <glyph glyph-name="nonmarkingreturn" horiz-adv-x="682" 
 />
    <glyph glyph-name="CR" unicode="&#xd;" horiz-adv-x="481" 
 />
    <glyph glyph-name="space" unicode=" " horiz-adv-x="460" 
 />
    <glyph glyph-name="exclam" unicode="!" horiz-adv-x="600" 
d="M350 1434h203l-225 -994h-172zM59 96q1 51 32.5 86.5t82.5 44.5q55 9 85.5 -14.5t27.5 -73.5q0 -51 -30.5 -86.5t-84.5 -44.5q-53 -11 -83.5 13t-29.5 75z" />
    <glyph glyph-name="quotedbl" unicode="&#x22;" horiz-adv-x="800" 
d="M270 1460h197l-143 -561h-148zM649 1460h197l-144 -561h-147z" />
    <glyph glyph-name="numbersign" unicode="#" horiz-adv-x="1484" 
d="M1153 881l-135 -328h239l-30 -139h-266l-156 -383h-158l156 383h-369l-155 -383h-158l155 383h-233l31 139h260l135 328h-240l29 139h266l158 383h158l-158 -383h369l157 383h158l-158 -383h234l-29 -139h-260zM995 881h-368l-135 -328h368z" />
    <glyph glyph-name="dollar" unicode="$" horiz-adv-x="1214" 
d="M1061 426q-37 -173 -182 -278.5t-361 -112.5l-29 -137h-79l28 137q-173 9 -284.5 86t-143.5 209l150 100q63 -207 315 -225l94 446l-80 21q-180 44 -252.5 132t-41.5 224q34 164 177.5 265.5t356.5 107.5l29 135h80l-29 -137q153 -9 251.5 -72.5t129.5 -169.5l-150 -100
q-59 161 -266 176l-92 -426l100 -25q175 -45 242 -133t37 -223zM606 827l86 408q-127 -3 -208 -56t-101 -147q-17 -80 32 -124t191 -81zM555 203q129 4 212 61.5t103 153.5q18 86 -31 131.5t-194 81.5z" />
    <glyph glyph-name="percent" unicode="%" horiz-adv-x="1744" 
d="M432 752q-156 0 -236 99.5t-46 254.5q34 156 156 255t278 99t236 -99t46 -255q-34 -155 -156 -254.5t-278 -99.5zM1440 1434h170l-1305 -1434h-170zM461 887q95 0 166.5 60.5t91.5 158.5q22 98 -23.5 158.5t-140.5 60.5q-94 0 -166 -60.5t-94 -158.5q-20 -98 26 -158.5
t140 -60.5zM1161 -27q-156 0 -236 100t-46 255q34 156 156 255t278 99t236 -99t46 -255q-34 -155 -156.5 -255t-277.5 -100zM1190 109q94 0 166 60.5t94 158.5q20 98 -26 158.5t-140 60.5q-95 0 -166.5 -60.5t-91.5 -158.5q-22 -98 23.5 -158.5t140.5 -60.5z" />
    <glyph glyph-name="ampersand" unicode="&#x26;" horiz-adv-x="1406" 
d="M991 0l-96 145q-202 -172 -457 -172q-212 0 -317.5 107.5t-69.5 279.5q26 123 123 220t291 198q-78 120 -102 198.5t-7 160.5q30 138 152.5 230.5t292.5 92.5q168 0 251.5 -89.5t53.5 -227.5q-25 -114 -119.5 -206t-288.5 -192l232 -350q94 134 147 316h170
q-84 -272 -229 -449l174 -262h-201zM528 1126q-13 -59 9 -115t90 -157q156 81 223 140t80 132q19 81 -27 131t-135 50q-87 0 -155 -50t-85 -131zM487 139q183 0 318 129l-264 396q-141 -73 -208.5 -140.5t-84.5 -150.5q-23 -106 41.5 -170t197.5 -64z" />
    <glyph glyph-name="quotesingle" unicode="'" horiz-adv-x="421" 
d="M270 1460h197l-143 -561h-148z" />
    <glyph glyph-name="parenleft" unicode="(" horiz-adv-x="673" 
d="M260 -260q-116 181 -150.5 421t17.5 478q51 242 187.5 480.5t326.5 418.5l129 -88q-168 -162 -288 -378t-165 -433q-47 -214 -18.5 -431t127.5 -380z" />
    <glyph glyph-name="parenright" unicode=")" horiz-adv-x="673" 
d="M514 639q-53 -242 -188.5 -480t-325.5 -419l-129 88q167 163 287.5 380t165.5 431q46 211 17.5 431.5t-126.5 379.5l166 88q115 -180 150 -421t-17 -478z" />
    <glyph glyph-name="asterisk" unicode="*" horiz-adv-x="937" 
d="M631 1012l143 -258l-131 -82l-127 270l-242 -270l-96 82l256 260l-295 92l72 133l285 -109l59 326h141l-80 -328l332 111l17 -135z" />
    <glyph glyph-name="plus" unicode="+" horiz-adv-x="1454" 
d="M1145 565h-361l-82 -387h-178l82 387h-362l37 170h362l82 385h178l-82 -385h361z" />
    <glyph glyph-name="comma" unicode="," horiz-adv-x="466" 
d="M78 264h190l-260 -579h-155z" />
    <glyph glyph-name="hyphen" unicode="-" horiz-adv-x="788" 
d="M88 672h594l-35 -164h-594z" />
    <glyph glyph-name="period" unicode="." horiz-adv-x="516" 
d="M16 96q3 52 34 87t83 44q54 9 84 -14t29 -74q-2 -52 -33 -87t-84 -44q-51 -11 -82 13t-31 75z" />
    <glyph glyph-name="slash" unicode="/" horiz-adv-x="980" 
d="M948 1516h182l-1120 -1709h-182z" />
    <glyph glyph-name="zero" unicode="0" horiz-adv-x="1427" 
d="M557 -27q-170 0 -281.5 94t-145 259.5t10.5 390.5q70 334 271.5 538.5t459.5 204.5q170 0 281.5 -93.5t145 -258.5t-10.5 -391q-71 -333 -272 -538.5t-459 -205.5zM594 152q169 0 304 155t189 410q55 255 -14.5 411t-238.5 156q-167 0 -302.5 -156t-191.5 -411
q-34 -172 -15.5 -297.5t89 -196.5t180.5 -71z" />
    <glyph glyph-name="one" unicode="1" horiz-adv-x="860" 
d="M809 1434l-303 -1434h-193l262 1233l-378 2l41 199h571z" />
    <glyph glyph-name="two" unicode="2" horiz-adv-x="1196" 
d="M985 178l-37 -178h-1011l28 143l670 523q155 119 226 205.5t89 170.5q24 112 -36 177t-179 65t-230.5 -71.5t-205.5 -211.5l-135 89q109 180 268 275t340 95q205 0 309.5 -114t67.5 -293q-25 -115 -107.5 -223t-242.5 -234l-539 -418h725z" />
    <glyph glyph-name="three" unicode="3" horiz-adv-x="1159" 
d="M772 729q138 -36 194.5 -124t28.5 -218q-38 -184 -202.5 -299t-393.5 -115q-154 0 -272 56.5t-182 163.5l139 129q109 -172 344 -172q149 0 250.5 70t126.5 188q25 115 -58 175t-276 60h-102l37 174h167q144 0 235.5 60.5t115.5 166.5q23 110 -39.5 176t-194.5 66
q-113 0 -218.5 -50.5t-192.5 -145.5l-105 118q108 121 252.5 186.5t306.5 65.5q218 0 322 -108t67 -287q-28 -129 -118.5 -217.5t-231.5 -118.5z" />
    <glyph glyph-name="four" unicode="4" horiz-adv-x="1249" 
d="M217 477h559l109 510h188l-108 -510h200l-35 -160h-200l-66 -317h-188l65 317h-753l37 160l954 957l106 -91z" />
    <glyph glyph-name="five" unicode="5" horiz-adv-x="1196" 
d="M690 903q211 0 312 -120t57 -328q-46 -221 -218 -351.5t-419 -130.5q-296 0 -449 213l140 131q115 -167 344 -167q156 0 266.5 80t140.5 221q29 134 -40 212t-214 78q-160 0 -323 -108h-142l170 801h871l-35 -170h-692l-97 -455q163 94 328 94z" />
    <glyph glyph-name="six" unicode="6" horiz-adv-x="1218" 
d="M676 971q115 0 205 -34.5t146.5 -98t77.5 -154.5t-3 -205q-50 -230 -227.5 -366t-415.5 -136q-237 0 -356.5 136t-69.5 366q23 113 83 217.5t199 270.5l394 467h217l-453 -514q92 51 203 51zM494 133q153 0 266.5 92.5t146.5 249.5q33 158 -40 251t-224 93
q-155 0 -270 -93t-148 -251q-33 -157 41 -249.5t228 -92.5z" />
    <glyph glyph-name="seven" unicode="7" horiz-adv-x="1075" 
d="M1182 1434l-33 -158l-887 -1276h-215l885 1257h-772l37 177h985z" />
    <glyph glyph-name="eight" unicode="8" horiz-adv-x="1275" 
d="M868 737q132 -35 197 -133.5t37 -224.5q-38 -183 -208.5 -294.5t-412.5 -111.5t-366 111.5t-84 294.5q28 126 133.5 224.5t251.5 133.5q-113 35 -167.5 127t-29.5 207q37 175 196 282t382 107q221 0 334.5 -107t76.5 -282q-25 -116 -118 -207.5t-222 -126.5zM403 1055
q-23 -112 46.5 -180t207.5 -68t237 68t122 180q23 111 -46.5 179.5t-207.5 68.5t-237 -68.5t-122 -179.5zM516 139q151 0 258.5 70.5t132.5 187.5t-52.5 188.5t-229.5 71.5q-151 0 -259 -71.5t-133 -188.5t53 -187.5t230 -70.5z" />
    <glyph glyph-name="nine" unicode="9" horiz-adv-x="1226" 
d="M545 469q-153 0 -260.5 58.5t-152 170t-13.5 260.5q50 230 227 366t414 136q238 0 358 -136t70 -366q-22 -106 -84.5 -217t-198.5 -268l-418 -469h-217l478 516q-87 -51 -203 -51zM727 1307q-154 0 -267.5 -93t-146.5 -251q-33 -157 40 -249.5t225 -92.5
q155 0 269.5 92.5t147.5 249.5q33 158 -40.5 251t-227.5 93z" />
    <glyph glyph-name="colon" unicode=":" horiz-adv-x="526" 
d="M272 731q-60 0 -88 35.5t-16 95.5q14 60 57 95.5t103 35.5t87.5 -35.5t14.5 -95.5q-12 -60 -55 -95.5t-103 -35.5zM115 -14q-60 0 -88.5 36t-16.5 95q13 61 56.5 96t103.5 35t87.5 -35t14.5 -96q-12 -59 -54.5 -95t-102.5 -36z" />
    <glyph glyph-name="semicolon" unicode=";" horiz-adv-x="495" 
d="M178 840q1 52 32.5 87t84.5 44q54 9 83 -13.5t28 -74.5q-2 -51 -32 -86.5t-83 -44.5t-83.5 15t-29.5 73zM78 264h190l-260 -579h-155z" />
    <glyph glyph-name="less" unicode="&#x3c;" horiz-adv-x="1454" 
d="M1219 909l-709 -260l598 -260l-37 -178l-825 354l35 168l976 357z" />
    <glyph glyph-name="equal" unicode="=" horiz-adv-x="1454" 
d="M328 961h901l-35 -170h-901zM233 510h902l-37 -170h-901z" />
    <glyph glyph-name="greater" unicode="&#x3e;" horiz-adv-x="1454" 
d="M1182 733l-35 -168l-977 -354l37 178l711 260l-601 260l39 181z" />
    <glyph glyph-name="question" unicode="?" horiz-adv-x="944" 
d="M315 563q25 106 60.5 153t156.5 134l111 78q124 87 145 190q17 83 -30 129.5t-140 46.5q-99 0 -192 -54.5t-168 -156.5l-121 91q94 136 230 211t290 75q171 0 260 -92.5t56 -245.5q-19 -86 -74.5 -159t-163.5 -150l-104 -74q-77 -56 -100.5 -87.5t-38.5 -100.5l-23 -111
h-180zM197 96q2 51 32.5 86.5t81.5 44.5q55 9 85.5 -14.5t27.5 -73.5q0 -51 -30.5 -86.5t-84.5 -44.5q-53 -11 -83 13t-29 75z" />
    <glyph glyph-name="at" unicode="@" horiz-adv-x="1970" 
d="M1149 1348q177 1 323 -58t238 -166t128 -256.5t-5 -330.5q-49 -229 -180.5 -368.5t-288.5 -139.5q-98 0 -158 55.5t-59 155.5q-61 -101 -156 -154t-211 -53q-186 0 -269.5 115.5t-41.5 310.5q39 187 176.5 307.5t321.5 120.5q103 0 174.5 -48.5t83.5 -129.5l35 153h145
l-113 -522q-13 -83 13 -126.5t86 -43.5q88 0 165 93.5t111 258.5q33 159 6.5 283.5t-102 209.5t-192.5 130t-263 45q-213 0 -400.5 -93t-316.5 -259.5t-174 -378.5q-44 -211 15 -375t208.5 -254t366.5 -90q238 0 408 88l41 -137q-97 -50 -224 -78.5t-262 -28.5
q-156 -1 -287.5 40t-225 118t-153.5 185.5t-72 242t19 287.5q38 189 142.5 356t250 284.5t327 184.5t370.5 66zM834 172q113 0 207.5 80.5t123.5 212.5q27 130 -33.5 210.5t-173.5 80.5q-117 0 -207.5 -83t-115.5 -208q-29 -134 25.5 -213.5t173.5 -79.5z" />
    <glyph glyph-name="A" unicode="A" horiz-adv-x="1413" 
d="M961 334l-670 2l-205 -336h-209l875 1434h202l279 -1434h-209zM934 506l-117 727l-428 -727h545z" />
    <glyph glyph-name="B" unicode="B" horiz-adv-x="1400" 
d="M1022 750q123 -34 178 -126.5t27 -224.5q-27 -126 -113.5 -218.5t-202 -136.5t-245.5 -44h-621l303 1434h610q196 0 293 -97.5t62 -261.5q-25 -116 -100 -200t-191 -125zM508 1268l-98 -457h409q100 0 182 68t101 163q19 94 -34.5 160t-149.5 66h-410zM705 166
q118 0 206 69t111 179q23 106 -36.5 173.5t-176.5 67.5h-432l-105 -489h433z" />
    <glyph glyph-name="C" unicode="C" horiz-adv-x="1548" 
d="M698 -27q-112 0 -207 26t-164.5 73.5t-120.5 115t-75 150t-28 178.5t20 201q34 157 115 293.5t195.5 236t265 156.5t315.5 57q208 0 346.5 -96t191.5 -272l-182 -93q-35 125 -138.5 201t-256.5 76q-156 0 -293 -73.5t-228.5 -200.5t-125.5 -285q-35 -159 2 -286
t142.5 -200t264.5 -73q156 0 290 72.5t224 203.5l140 -96q-122 -178 -301.5 -271.5t-391.5 -93.5z" />
    <glyph glyph-name="D" unicode="D" horiz-adv-x="1523" 
d="M860 1434q203 0 342.5 -93t192.5 -256.5t10 -367.5q-44 -206 -165.5 -369.5t-300 -255.5t-382.5 -92h-512l303 1434h512zM571 182q234 0 405.5 148.5t223.5 386.5q50 237 -58.5 385.5t-342.5 148.5h-293l-227 -1069h292z" />
    <glyph glyph-name="E" unicode="E" horiz-adv-x="1275" 
d="M1028 178l-37 -178h-944l303 1434h924l-37 -179h-729l-100 -467h690l-37 -174h-690l-92 -436h749z" />
    <glyph glyph-name="F" unicode="F" horiz-adv-x="1208" 
d="M508 1255l-109 -512h672l-37 -180h-674l-118 -563h-195l303 1434h901l-37 -179h-706z" />
    <glyph glyph-name="G" unicode="G" horiz-adv-x="1607" 
d="M1487 770l-115 -532q-292 -267 -676 -267q-135 2 -244.5 39.5t-181.5 104.5t-116.5 159.5t-49.5 203.5t19 237q44 210 168 378t312.5 266.5t408.5 98.5q195 0 333 -85.5t199 -237.5l-186 -111q-38 121 -137 185.5t-248 64.5q-236 0 -416.5 -158.5t-230.5 -400.5
q-35 -158 2 -283.5t142.5 -199t264.5 -76.5q279 0 473 159l62 291h-361l35 164h543z" />
    <glyph glyph-name="H" unicode="H" horiz-adv-x="1556" 
d="M1511 1434l-303 -1434h-196l125 586h-770l-125 -586h-195l303 1434h195l-142 -666h771l141 666h196z" />
    <glyph glyph-name="I" unicode="I" horiz-adv-x="598" 
d="M354 1434h195l-303 -1434h-195z" />
    <glyph glyph-name="J" unicode="J" horiz-adv-x="1212" 
d="M385 -29q-128 0 -226 61.5t-143 166.5t-24 227l207 66l-6 -33q-26 -122 42 -208.5t191 -86.5t227.5 86.5t130.5 208.5l207 975h195l-205 -971q-21 -100 -79.5 -191.5t-138.5 -157t-179 -104.5t-199 -39z" />
    <glyph glyph-name="K" unicode="K" horiz-adv-x="1345" 
d="M1470 1434l-880 -725l573 -709h-245l-482 575l-88 -73l-106 -502h-195l303 1434h195l-144 -680l830 680h239z" />
    <glyph glyph-name="L" unicode="L" horiz-adv-x="1193" 
d="M1012 182l-37 -182h-928l303 1434h195l-264 -1252h731z" />
    <glyph glyph-name="M" unicode="M" horiz-adv-x="1916" 
d="M1872 1434l-303 -1434h-195l244 1147l-741 -1147h-158l-236 1149l-243 -1147h-193l303 1432h250l244 -1213l788 1213h240z" />
    <glyph glyph-name="N" unicode="N" horiz-adv-x="1599" 
d="M1554 1434l-303 -1434h-184l-592 1112l-235 -1112h-195l303 1434h184l592 -1112l236 1112h194z" />
    <glyph glyph-name="O" unicode="O" horiz-adv-x="1726" 
d="M707 -27q-158 0 -284.5 56t-202 155.5t-104.5 235.5t7 297q44 211 176 381t322 266t401 96q210 0 359 -96t208 -266t15 -381q-34 -158 -119.5 -296.5t-203.5 -236.5t-267.5 -154.5t-306.5 -56.5zM745 158q150 0 289 73t236 201.5t131 284.5q33 157 -9.5 285.5t-150.5 201
t-258 72.5q-230 0 -418 -160t-239 -399q-34 -156 9 -284.5t151 -201.5t259 -73z" />
    <glyph glyph-name="P" unicode="P" horiz-adv-x="1355" 
d="M958 1434q197 0 299 -133t58 -336q-44 -208 -201.5 -340.5t-355.5 -132.5h-412l-104 -492h-195l303 1434h608zM772 670q120 0 216.5 81.5t123.5 213.5q28 124 -34 207t-181 83h-389l-125 -585h389z" />
    <glyph glyph-name="Q" unicode="Q" horiz-adv-x="1726" 
d="M1606 717q-36 -165 -135.5 -310.5t-241.5 -248.5l114 -195l-153 -102l-119 202q-182 -90 -366 -90q-132 0 -241.5 38t-183 106t-120.5 161t-54.5 204t15.5 235q44 205 172 374t319.5 269t407.5 100q202 0 352 -99t213.5 -270.5t20.5 -373.5zM743 158q116 0 234 59
l-119 203l152 102l127 -209q98 73 168 178.5t96 225.5q27 116 5 218t-77 178.5t-146 120.5t-200 44q-231 0 -418 -163t-239 -398q-33 -153 7 -280.5t147.5 -203t262.5 -75.5z" />
    <glyph glyph-name="R" unicode="R" horiz-adv-x="1370" 
d="M602 541h-250l-112 -535h-195l301 1428h635q183 0 285.5 -130.5t64.5 -314.5q-35 -161 -162.5 -282.5t-285.5 -147.5l-62 -4l301 -543l-231 -12zM391 719h414q110 0 204 78.5t119 191.5q23 110 -38 188t-170 78h-414z" />
    <glyph glyph-name="S" unicode="S" horiz-adv-x="1282" 
d="M496 -27q-209 0 -338 84.5t-168 239.5l160 104q80 -249 391 -249q158 0 261 64t126 175q19 85 -30.5 137.5t-188.5 87.5l-199 50q-196 51 -273.5 146t-46.5 243q39 184 200 294.5t403 110.5q188 0 312 -73t163 -201l-160 -107q-39 99 -129 152t-225 53q-152 0 -246 -59
t-117 -166q-18 -81 32 -132t195 -87l207 -54q192 -49 263 -143.5t40 -243.5q-40 -193 -212 -309.5t-420 -116.5z" />
    <glyph glyph-name="T" unicode="T" horiz-adv-x="1253" 
d="M645 1251h-481l37 183h1155l-39 -183h-477l-265 -1251h-196z" />
    <glyph glyph-name="U" unicode="U" horiz-adv-x="1527" 
d="M610 -25q-257 0 -385 159t-73 421l186 879h197l-189 -889q-38 -182 45 -283.5t260 -101.5q182 0 304.5 100.5t162.5 284.5l189 889h196l-186 -879q-55 -263 -249.5 -421.5t-457.5 -158.5z" />
    <glyph glyph-name="V" unicode="V" horiz-adv-x="1398" 
d="M1518 1434l-850 -1434h-234l-250 1434h211l203 -1207l709 1207h211z" />
    <glyph glyph-name="W" unicode="W" horiz-adv-x="2140" 
d="M2032 1434h209l-746 -1434h-223l-119 1057l-586 -1057h-219l-145 1434h207l114 -1164l656 1164h104l143 -1170z" />
    <glyph glyph-name="X" unicode="X" horiz-adv-x="1292" 
d="M879 0l-256 567l-508 -567h-230l650 725l-314 709h223l246 -562l479 562h222l-611 -713l324 -721h-225z" />
    <glyph glyph-name="Y" unicode="Y" horiz-adv-x="1306" 
d="M1450 1434l-729 -850l-123 -584h-199l123 584l-362 850h225l277 -662l563 662h225z" />
    <glyph glyph-name="Z" unicode="Z" horiz-adv-x="1241" 
d="M1036 178l-37 -178h-1060l30 150l1028 1107h-776l37 177h1034l-30 -148l-1029 -1108h803z" />
    <glyph glyph-name="bracketleft" unicode="[" horiz-adv-x="768" 
d="M516 1348l-301 -1418h313l-34 -168h-500l373 1754h499l-37 -168h-313z" />
    <glyph glyph-name="backslash" unicode="\" horiz-adv-x="980" 
d="M586 -193l-396 1709h183l395 -1709h-182z" />
    <glyph glyph-name="bracketright" unicode="]" horiz-adv-x="768" 
d="M741 1516l-372 -1754h-500l35 168h315l301 1418h-315l37 168h499z" />
    <glyph glyph-name="asciicircum" unicode="^" horiz-adv-x="1161" 
d="M897 723l-209 491l-420 -491h-205l574 661h172l293 -661h-205z" />
    <glyph glyph-name="underscore" unicode="_" horiz-adv-x="890" 
d="M-178 -121h891l-29 -141h-893z" />
    <glyph glyph-name="grave" unicode="`" horiz-adv-x="1269" 
d="M651 1194l-211 334h222l174 -334h-185z" />
    <glyph glyph-name="a" unicode="a" horiz-adv-x="1093" 
d="M844 0h-162l43 201q-61 -103 -171 -162t-249 -59q-175 0 -252.5 87.5t-46.5 233.5q28 132 136.5 211.5t271.5 98.5t372 -9l15 76q24 109 -33 164t-168 55q-193 0 -332 -145l-82 106q197 191 459 191q189 0 281.5 -109.5t54.5 -288.5zM764 489q-236 39 -389 -7t-180 -171
q-19 -91 26.5 -140.5t157.5 -49.5q142 0 241 79.5t128 219.5z" />
    <glyph glyph-name="b" unicode="b" horiz-adv-x="1304" 
d="M811 1049q223 0 324 -147.5t51 -383.5q-53 -248 -213 -394.5t-387 -146.5q-137 0 -234 68.5t-119 183.5l-49 -227h-172l303 1432h187l-135 -633q57 102 178 175t266 73zM571 145q154 0 271.5 103.5t152.5 269.5q34 164 -38.5 266.5t-223.5 102.5q-153 0 -272.5 -103.5
t-153.5 -265.5q-34 -164 39.5 -268.5t224.5 -104.5z" />
    <glyph glyph-name="c" unicode="c" horiz-adv-x="1142" 
d="M469 -27q-235 0 -349.5 152t-62.5 393q51 239 231 392t412 153q150 0 254.5 -65t145.5 -185l-162 -96q-32 83 -101.5 128.5t-166.5 45.5q-152 0 -269.5 -103.5t-152.5 -269.5t38 -269.5t226 -103.5q96 0 185 47t159 132l119 -97q-91 -121 -223 -187.5t-283 -66.5z" />
    <glyph glyph-name="d" unicode="d" horiz-adv-x="1304" 
d="M1294 1434l-303 -1432h-172l49 227q-72 -115 -198 -183.5t-262 -68.5q-228 0 -326 147t-45 394q50 236 214 383.5t386 147.5q140 0 233.5 -74.5t104.5 -173.5l135 633h184zM494 145q151 0 269 104.5t152 268.5q34 163 -41 266t-229 103q-150 0 -266 -102.5t-150 -266.5
q-35 -166 38 -269.5t227 -103.5z" />
    <glyph glyph-name="e" unicode="e" horiz-adv-x="1218" 
d="M231 471q-32 -149 49 -243.5t234 -94.5q109 0 211.5 44t171.5 120l86 -111q-88 -98 -224.5 -154.5t-285.5 -56.5q-239 0 -357 150t-67 389q51 236 232 384.5t413 148.5q248 0 350 -153t27 -423h-840zM664 903q-143 0 -259 -90t-149 -221h655q27 139 -39 225t-208 86z" />
    <glyph glyph-name="f" unicode="f" horiz-adv-x="800" 
d="M301 856h-231l36 170h232l33 156q25 120 117 186t204 66h230l-35 -166h-217q-39 0 -72.5 -29.5t-42.5 -69.5l-29 -143h303l-36 -170h-304l-180 -856h-188z" />
    <glyph glyph-name="g" unicode="g" horiz-adv-x="1327" 
d="M1231 1028l-201 -944q-50 -230 -229.5 -378t-411.5 -148q-160 0 -276.5 62t-169.5 165l118 131q44 -88 135.5 -140t215.5 -52q154 0 279 100t163 278l33 154q-70 -112 -184 -180t-250 -68q-231 0 -337 146t-55 383q48 228 209.5 370t384.5 142q87 0 156.5 -24.5
t109.5 -63t62 -79t27 -79.5l49 225h172zM512 164q152 0 271.5 99.5t154.5 258.5q35 169 -44 266t-222 97q-154 0 -271 -101t-151 -262q-34 -158 37.5 -258t224.5 -100z" />
    <glyph glyph-name="h" unicode="h" horiz-adv-x="1239" 
d="M770 1044q166 0 252 -109t51 -273l-139 -662h-189l129 616q25 115 -35 194t-173 79q-118 0 -215 -81.5t-123 -203.5l-127 -604h-191l303 1434h191l-123 -576q61 84 166.5 135t222.5 51z" />
    <glyph glyph-name="i" unicode="i" horiz-adv-x="518" 
d="M373 1247q-51 0 -79.5 36t-17.5 87q11 50 54 85.5t94 35.5q49 0 77 -35.5t17 -85.5q-10 -51 -52.5 -87t-92.5 -36zM231 1024h189l-217 -1024h-189z" />
    <glyph glyph-name="j" unicode="j" horiz-adv-x="518" 
d="M371 1251q-56 0 -83.5 32.5t-15.5 86.5t54 86.5t98 32.5t83 -32.5t15 -86.5t-53 -86.5t-98 -32.5zM-283 -242h113q60 0 102 34t54 93l243 1139h191l-250 -1171q-26 -122 -116 -193.5t-220 -71.5h-151z" />
    <glyph glyph-name="k" unicode="k" horiz-adv-x="1087" 
d="M694 0l-354 426l-64 -57l-77 -369h-189l303 1434h189l-178 -846l579 436h223l-616 -475l408 -549h-224z" />
    <glyph glyph-name="l" unicode="l" horiz-adv-x="501" 
d="M2 0l303 1434h191l-303 -1434h-191z" />
    <glyph glyph-name="m" unicode="m" horiz-adv-x="1880" 
d="M1434 1049q156 0 236 -110.5t46 -274.5l-141 -662h-191l132 614q23 112 -32 187.5t-157 75.5q-107 0 -196 -77t-113 -186l-129 -614h-189l129 614q25 112 -31.5 187.5t-160.5 75.5q-106 0 -192.5 -77t-110.5 -186l-131 -614h-191l217 1022h187l-35 -168
q61 86 161.5 139.5t207.5 53.5q114 0 193 -63t91 -161q61 98 171.5 161t228.5 63z" />
    <glyph glyph-name="n" unicode="n" horiz-adv-x="1232" 
d="M766 1049q160 0 248.5 -111.5t56.5 -269.5l-141 -668h-191l129 608q23 111 -39 190.5t-174 80.5q-112 0 -207 -80t-118 -191l-129 -608h-191l217 1024h187l-39 -182q66 94 172 150.5t219 56.5z" />
    <glyph glyph-name="o" unicode="o" horiz-adv-x="1277" 
d="M481 -25q-242 0 -360 151t-66 392q49 233 234 382t424 149q237 0 356.5 -148.5t69.5 -382.5q-51 -237 -236 -390t-422 -153zM518 141q153 0 274 105t156 268q34 165 -41 270t-227 105q-157 0 -277.5 -104.5t-154.5 -270.5q-35 -166 40 -269.5t230 -103.5z" />
    <glyph glyph-name="p" unicode="p" horiz-adv-x="1325" 
d="M811 1049q228 0 326 -147t45 -394q-50 -236 -214 -384.5t-386 -148.5q-145 0 -236 74t-104 176l-127 -604h-187l299 1403h172l-49 -227q71 115 198 183.5t263 68.5zM573 139q150 0 266.5 102.5t151.5 266.5q35 166 -38.5 269.5t-227.5 103.5q-150 0 -268.5 -104.5
t-153.5 -268.5q-34 -163 41 -266t229 -103z" />
    <glyph glyph-name="q" unicode="q" horiz-adv-x="1325" 
d="M1229 1024l-303 -1430h-185l131 631q-55 -102 -176 -176t-266 -74q-223 0 -325 148.5t-50 384.5q53 248 213 394.5t387 146.5q137 0 234 -68.5t119 -183.5l49 227h172zM508 139q154 0 273 103t153 266q35 164 -39 268.5t-225 104.5q-153 0 -270 -103.5t-152 -269.5
q-35 -164 37 -266.5t223 -102.5z" />
    <glyph glyph-name="r" unicode="r" horiz-adv-x="831" 
d="M754 1047q48 0 92 -15l-41 -178q-62 6 -125 6q-136 0 -235 -83.5t-130 -225.5l-116 -551h-189l217 1024h185l-41 -193q68 97 170.5 156.5t212.5 59.5z" />
    <glyph glyph-name="s" unicode="s" horiz-adv-x="1036" 
d="M373 -27q-149 0 -260 51t-158 140l117 125q43 -73 133 -115.5t203 -42.5q109 0 176.5 42t81.5 112q12 54 -20.5 87.5t-119.5 55.5l-190 49q-260 64 -215 275q31 143 158.5 227t318.5 84q135 0 234 -42.5t143 -119.5l-117 -125q-99 129 -293 129q-108 0 -173.5 -38.5
t-80.5 -108.5q-11 -53 21 -85.5t117 -54.5l190 -49q140 -36 191.5 -103.5t29.5 -172.5q-31 -148 -160 -234t-327 -86z" />
    <glyph glyph-name="t" unicode="t" horiz-adv-x="837" 
d="M287 0q-76 0 -118.5 54.5t-27.5 131.5l144 670h-209l37 170h209l67 320h189l-68 -320h315l-37 -170h-315l-137 -655q-3 -12 2.5 -20.5t17.5 -8.5h289l-35 -172h-323z" />
    <glyph glyph-name="u" unicode="u" horiz-adv-x="1228" 
d="M1133 1024l-218 -1024h-184l37 182q-65 -94 -172.5 -151.5t-220.5 -57.5q-158 0 -246.5 112.5t-54.5 270.5l141 668h191l-130 -606q-25 -112 37.5 -191.5t173.5 -79.5q113 0 209 79.5t119 191.5l129 606h189z" />
    <glyph glyph-name="v" unicode="v" horiz-adv-x="1105" 
d="M1139 1024l-631 -1024h-207l-203 1024h203l152 -795l483 795h203z" />
    <glyph glyph-name="w" unicode="w" horiz-adv-x="1716" 
d="M1745 1036l-563 -1036h-211l-99 784l-432 -784h-209l-125 1036h195l92 -809l445 809h174l104 -809l434 809h195z" />
    <glyph glyph-name="x" unicode="x" horiz-adv-x="1079" 
d="M676 0l-205 401l-373 -401h-215l494 530l-254 494h209l194 -365l346 365h211l-462 -496l270 -528h-215z" />
    <glyph glyph-name="y" unicode="y" horiz-adv-x="1118" 
d="M1155 1036l-743 -1212q-140 -234 -410 -234h-197l37 170h166q171 0 246 129l74 115l-215 1032h202l154 -807l483 807h203z" />
    <glyph glyph-name="z" unicode="z" horiz-adv-x="1007" 
d="M799 162l-35 -162h-827l24 127l735 747h-557l35 162h803l-27 -125l-733 -749h582z" />
    <glyph glyph-name="braceleft" unicode="{" horiz-adv-x="755" 
d="M465 874q-23 -103 -74 -159t-139 -76q80 -19 107.5 -75.5t5.5 -160.5l-66 -303q-20 -98 5.5 -134t115.5 -36h96l-35 -168h-155q-157 0 -207.5 64.5t-16.5 222.5l76 354q17 82 -10 117t-107 35h-14l37 168h14q80 0 122 35t59 116l75 357q34 157 111 221t233 64h156
l-37 -168h-96q-89 0 -130 -35.5t-63 -132.5z" />
    <glyph glyph-name="bar" unicode="|" horiz-adv-x="636" 
d="M418 1567h162l-377 -1772h-162z" />
    <glyph glyph-name="braceright" unicode="}" horiz-adv-x="755" 
d="M676 723l-37 -168h-14q-80 0 -122 -35t-59 -117l-75 -354q-34 -158 -110.5 -222.5t-231.5 -64.5h-158l35 168h98q89 0 131 36.5t62 133.5l65 303q22 104 72.5 160.5t138.5 75.5q-80 20 -107 76.5t-4 158.5l64 306q22 96 -5 132t-116 36h-98l37 168h157q155 0 205.5 -64
t16.5 -221l-76 -357q-17 -81 10 -116t107 -35h14z" />
    <glyph glyph-name="asciitilde" unicode="~" horiz-adv-x="1454" 
d="M504 621q-63 0 -123.5 -22.5t-144.5 -74.5l36 170q137 94 271 94q67 0 193 -54t188 -54q126 0 266 94l-35 -170q-142 -92 -266 -92q-46 0 -99 17t-93.5 37.5t-93.5 37.5t-99 17z" />
    <glyph glyph-name="uni00A0" unicode="&#xa0;" horiz-adv-x="481" 
 />
    <glyph glyph-name="exclamdown" unicode="&#xa1;" horiz-adv-x="600" 
d="M459 942q-2 -52 -33 -87t-84 -44t-83.5 14.5t-29.5 73.5q1 51 32.5 86.5t82.5 44.5q54 9 85 -14t30 -74zM360 596l-194 -993h-205l227 993h172z" />
    <glyph glyph-name="cent" unicode="&#xa2;" horiz-adv-x="1142" 
d="M555 147q173 21 301 177l119 -97q-83 -110 -202 -176t-255 -76l-49 -233h-74l49 231q-223 9 -330.5 160t-56.5 385q50 232 222 384t397 161l41 188h74l-41 -190q130 -10 221 -74.5t129 -173.5l-162 -96q-61 154 -225 172zM248 518q-34 -157 30.5 -258.5t202.5 -112.5
l158 742q-141 -9 -249 -111t-142 -260z" />
    <glyph glyph-name="sterling" unicode="&#xa3;" horiz-adv-x="1097" 
d="M297 172h625l-35 -172h-977l35 172h159l101 465h-160l29 139h159l58 271q41 197 170.5 305t322.5 108q142 0 236.5 -61t132.5 -180l-168 -99q-54 160 -227 160q-108 0 -179.5 -62.5t-97.5 -183.5l-55 -258h492l-29 -139h-492z" />
    <glyph glyph-name="currency" unicode="&#xa4;" horiz-adv-x="1142" 
d="M991 711q-36 -149 -131 -250l103 -129l-107 -90l-106 135q-116 -78 -267 -78q-149 0 -233 78l-164 -135l-72 90l160 129q-52 108 -22 250q26 135 127 247l-101 132l107 88l106 -136q122 80 266 80q148 0 234 -80l164 136l69 -88l-157 -132q54 -107 24 -247zM516 455
q111 0 195.5 71t107.5 185q23 113 -29.5 183.5t-164.5 70.5q-110 0 -195 -71t-108 -183q-25 -114 28.5 -185t165.5 -71z" />
    <glyph glyph-name="yen" unicode="&#xa5;" horiz-adv-x="1183" 
d="M731 709h326l-25 -117h-370l-41 -199h370l-24 -117h-371l-59 -276h-193l57 276h-366l24 117h367l43 199h-369l25 117h324l-273 725h205l231 -629l494 629h205z" />
    <glyph glyph-name="brokenbar" unicode="&#xa6;" horiz-adv-x="636" 
d="M418 1567h162l-154 -723h-160zM193 502h159l-149 -707h-162z" />
    <glyph glyph-name="section" unicode="&#xa7;" horiz-adv-x="1122" 
d="M713 338q201 -76 155 -272q-33 -157 -163 -245.5t-338 -88.5q-155 0 -268 50.5t-160 139.5l114 127q45 -74 137.5 -116t215.5 -42q233 0 270 168q14 66 -20 104.5t-128 61.5l-188 49q-281 71 -236 295q24 106 100 184.5t187 104.5q-102 39 -140 104t-15 166
q32 157 162 244.5t335 87.5q142 0 242 -42.5t143 -119.5l-119 -124q-95 126 -299 126q-235 0 -272 -165q-13 -66 19.5 -103.5t123.5 -60.5l189 -47q146 -37 203 -109.5t32 -187.5q-22 -106 -97 -184.5t-185 -104.5zM295 600q-15 -75 22 -119t136 -69l57 -11
q116 -22 194.5 36.5t100.5 158.5q17 77 -20.5 120t-137.5 68l-57 13q-116 21 -194.5 -38t-100.5 -159z" />
    <glyph glyph-name="dieresis" unicode="&#xa8;" horiz-adv-x="1269" 
d="M516 1247q-55 0 -82 34t-16 87q12 54 53.5 87.5t95.5 33.5q55 0 82 -33.5t15 -87.5q-11 -53 -52.5 -87t-95.5 -34zM981 1247q-55 0 -82 34t-16 87q12 54 53.5 87.5t95.5 33.5q55 0 81.5 -33.5t14.5 -87.5q-11 -53 -52 -87t-95 -34z" />
    <glyph glyph-name="copyright" unicode="&#xa9;" horiz-adv-x="1720" 
d="M702 -27q-102 -1 -193.5 25.5t-162 75t-125 117t-83 151.5t-36 178t16.5 197q31 151 118.5 289t207.5 238t270.5 158.5t302.5 57.5q122 1 228.5 -36.5t182.5 -105.5t126.5 -161.5t61 -204.5t-14.5 -235q-40 -201 -175.5 -373t-329 -272.5t-395.5 -98.5zM723 72
q175 -2 341 85t281 236t152 324q21 108 12.5 204.5t-51 178t-107 140.5t-156 92t-196.5 32q-177 1 -342.5 -86t-280.5 -236t-151 -325q-39 -175 12.5 -324t180.5 -236t305 -85zM793 297q-186 0 -274 116.5t-48 305.5q40 188 177.5 305t322.5 117q118 0 199 -49.5t110 -141.5
l-131 -78q-21 62 -74.5 94.5t-128.5 32.5q-116 0 -203.5 -76t-115.5 -204t28 -205.5t172 -77.5q74 0 140.5 33t115.5 96l99 -80q-68 -91 -170 -139.5t-219 -48.5z" />
    <glyph glyph-name="guillemotleft" unicode="&#xab;" horiz-adv-x="1107" 
d="M221 518l213 -438h-201l-213 438l400 438h201zM684 518l211 -438h-201l-213 438l402 438h200z" />
    <glyph glyph-name="logicalnot" unicode="&#xac;" horiz-adv-x="1454" 
d="M1182 735l-82 -387h-178l47 217h-725l37 170h901z" />
    <glyph glyph-name="registered" unicode="&#xae;" horiz-adv-x="1140" 
d="M729 1462q124 0 214.5 -60t128 -163.5t11.5 -226.5q-38 -186 -197.5 -318.5t-348.5 -132.5q-187 0 -291 132.5t-64 318.5q40 188 199 319t348 131zM553 637q156 0 285 109.5t163 265.5q32 158 -50 267.5t-238 109.5t-285.5 -109.5t-163.5 -267.5q-32 -156 50.5 -265.5
t238.5 -109.5zM852 1106q-14 -63 -56.5 -100t-109.5 -43l105 -185h-89l-98 183h-76l-39 -183h-77l102 475h201q81 0 116 -38t21 -109zM543 1024h119q91 0 110 82q8 38 -12 59t-66 21h-119z" />
    <glyph glyph-name="macron" unicode="&#xaf;" horiz-adv-x="1394" 
d="M508 1348h647l-31 -152h-647z" />
    <glyph glyph-name="degree" unicode="&#xb0;" horiz-adv-x="768" 
d="M414 848q-136 0 -206 88t-44 219q29 131 136 218t243 87t205 -87t40 -218q-26 -131 -132 -219t-242 -88zM438 975q79 0 138.5 49.5t76.5 130.5q17 79 -21.5 128.5t-115.5 49.5q-78 0 -138 -49.5t-77 -128.5q-17 -81 21.5 -130.5t115.5 -49.5z" />
    <glyph glyph-name="plusminus" unicode="&#xb1;" horiz-adv-x="1454" 
d="M1200 825l-35 -170h-360l-72 -340h-180l72 340h-361l35 170h363l71 340h180l-73 -340h360zM160 170h901l-35 -170h-901z" />
    <glyph glyph-name="acute" unicode="&#xb4;" horiz-adv-x="1269" 
d="M956 1528h222l-353 -334h-184z" />
    <glyph glyph-name="uni00B5" unicode="&#xb5;" horiz-adv-x="1245" 
d="M1151 1036l-219 -1036h-168l39 188q-56 -101 -152 -158t-213 -57q-176 0 -217 133l-117 -557h-190l315 1487h191l-131 -610q-57 -281 188 -281q138 0 235 83.5t130 240.5l121 567h188z" />
    <glyph glyph-name="paragraph" unicode="&#xb6;" horiz-adv-x="1331" 
d="M520 819h-31q-173 0 -251 85.5t-48 221.5q29 139 148 223.5t311 84.5h168l-360 -1700h-166zM1079 1434h166l-360 -1700h-166z" />
    <glyph glyph-name="cedilla" unicode="&#xb8;" horiz-adv-x="1269" 
d="M420 18h164l-215 -424h-193z" />
    <glyph glyph-name="guillemotright" unicode="&#xbb;" horiz-adv-x="1107" 
d="M342 518l-213 438h201l213 -438l-402 -438h-200zM1006 518l-402 -438h-201l400 438l-213 438h201z" />
    <glyph glyph-name="questiondown" unicode="&#xbf;" horiz-adv-x="944" 
d="M664 942q-2 -52 -33 -87t-84 -44q-52 -9 -82 14.5t-29 73.5q2 51 32.5 86.5t82.5 44.5q54 9 84 -14t29 -74zM545 475q-25 -106 -60 -152.5t-157 -134.5l-111 -79q-124 -87 -145 -191q-18 -83 29.5 -129.5t140.5 -46.5q98 0 192 54.5t168 156.5l119 -90
q-93 -136 -228.5 -211.5t-289.5 -75.5q-172 0 -261 92t-57 246q19 87 75 161t165 150l104 74q77 54 101 86.5t37 99.5l24 111h180z" />
    <glyph glyph-name="Agrave" unicode="&#xc0;" horiz-adv-x="1427" 
d="M793 1591l-150 334h191l145 -334h-186zM961 334l-670 2l-205 -336h-209l875 1434h202l279 -1434h-209zM934 506l-117 727l-428 -727h545z" />
    <glyph glyph-name="Aacute" unicode="&#xc1;" horiz-adv-x="1427" 
d="M999 1591h-186l287 334h190zM961 334l-670 2l-205 -336h-209l875 1434h202l279 -1434h-209zM934 506l-117 727l-428 -727h545z" />
    <glyph glyph-name="Acircumflex" unicode="&#xc2;" horiz-adv-x="1427" 
d="M715 1591h-191l363 334h188l221 -334h-192l-146 224zM961 334l-670 2l-205 -336h-209l875 1434h202l279 -1434h-209zM934 506l-117 727l-428 -727h545z" />
    <glyph glyph-name="Atilde" unicode="&#xc3;" horiz-adv-x="1427" 
d="M920 1692q-53 53 -103 53q-78 0 -102 -117h-140q26 126 88 194t148 68q43 0 79.5 -16.5t78.5 -54.5q54 -54 104 -54q37 0 64 29.5t39 87.5h139q-26 -127 -88 -194.5t-148 -67.5q-44 0 -80 16.5t-79 55.5zM961 334l-670 2l-205 -336h-209l875 1434h202l279 -1434h-209z
M934 506l-117 727l-428 -727h545z" />
    <glyph glyph-name="Adieresis" unicode="&#xc4;" horiz-adv-x="1427" 
d="M690 1642q-52 0 -80.5 36t-17.5 87q10 51 54 87t95 36t79.5 -36t17.5 -87q-10 -51 -54 -87t-94 -36zM1155 1642q-52 0 -80.5 36t-17.5 87q10 51 54 87t95 36t79.5 -36t17.5 -87q-10 -51 -54 -87t-94 -36zM961 334l-670 2l-205 -336h-209l875 1434h202l279 -1434h-209z
M934 506l-117 727l-428 -727h545z" />
    <glyph glyph-name="Aring" unicode="&#xc5;" horiz-adv-x="1427" 
d="M782 1726q-32 60 -1 132.5t106 115.5q75 42 147 28.5t105 -73.5q32 -60 1 -131.5t-106 -114.5q-75 -42 -147.5 -29.5t-104.5 72.5zM1030 1913q-35 24 -73.5 14.5t-71.5 -47.5q-32 -38 -30 -75t36 -62q34 -23 73.5 -13.5t71.5 48.5q32 37 30 74.5t-36 60.5zM961 334
l-670 2l-205 -336h-209l875 1434h202l279 -1434h-209zM934 506l-117 727l-428 -727h545z" />
    <glyph glyph-name="AE" unicode="&#xc6;" horiz-adv-x="2222" 
d="M1974 182l-37 -182h-1003l74 346h-602l-302 -346h-235l1253 1434h1098l-39 -181h-786l-92 -438h745l-39 -180h-745l-97 -453h807zM1042 510l160 758l-663 -758h503z" />
    <glyph glyph-name="Ccedilla" unicode="&#xc7;" horiz-adv-x="1552" 
d="M737 158q156 0 290 72.5t224 203.5l140 -96q-114 -167 -279.5 -259.5t-361.5 -103.5l-191 -381h-192l221 386q-185 24 -305 126.5t-160.5 260.5t0.5 350q34 157 115 293.5t195.5 236t265 156.5t315.5 57q208 0 346.5 -96t191.5 -272l-182 -93q-34 131 -136.5 204
t-258.5 73t-293 -73.5t-228.5 -200.5t-125.5 -285q-35 -159 2 -286t142.5 -200t264.5 -73z" />
    <glyph glyph-name="Egrave" unicode="&#xc8;" horiz-adv-x="1333" 
d="M838 1591l-152 334h193l143 -334h-184zM1077 178l-37 -178h-993l303 1434h973l-37 -179h-778l-102 -479h739l-37 -176h-739l-90 -422h798z" />
    <glyph glyph-name="Eacute" unicode="&#xc9;" horiz-adv-x="1333" 
d="M911 1591h-184l285 334h192zM1085 178l-36 -178h-1004l303 1434h983l-37 -179h-786l-96 -454h741l-39 -176h-741l-94 -447h806z" />
    <glyph glyph-name="Ecircumflex" unicode="&#xca;" horiz-adv-x="1333" 
d="M1057 1591l-146 224l-243 -224h-191l363 334h188l221 -334h-192zM1077 178l-37 -178h-993l303 1434h973l-37 -179h-778l-102 -479h739l-37 -176h-739l-90 -422h798z" />
    <glyph glyph-name="Edieresis" unicode="&#xcb;" horiz-adv-x="1333" 
d="M545 1767q11 51 54 87t95 36q50 0 78.5 -36t18.5 -87t-54.5 -86.5t-95.5 -35.5t-79 35.5t-17 86.5zM1010 1767q11 51 54 87t95 36q50 0 78 -36t18 -87t-54 -86.5t-95 -35.5t-79 35.5t-17 86.5zM1077 178l-37 -178h-993l303 1434h973l-37 -179h-778l-102 -479h739
l-37 -176h-739l-90 -422h798z" />
    <glyph glyph-name="Igrave" unicode="&#xcc;" horiz-adv-x="598" 
d="M422 1591l-182 334h223l143 -334h-184zM352 1434h197l-303 -1434h-197z" />
    <glyph glyph-name="Iacute" unicode="&#xcd;" horiz-adv-x="598" 
d="M678 1917h221l-321 -334h-187zM352 1434h197l-303 -1434h-197z" />
    <glyph glyph-name="Icircumflex" unicode="&#xce;" horiz-adv-x="598" 
d="M870 1591h-190l-148 224l-241 -224h-193l363 334h188zM352 1434h197l-303 -1434h-197z" />
    <glyph glyph-name="Idieresis" unicode="&#xcf;" horiz-adv-x="598" 
d="M264 1645q-55 0 -81.5 33.5t-14.5 86.5q10 54 51.5 87.5t95.5 33.5q55 0 82.5 -33.5t16.5 -87.5q-12 -53 -54 -86.5t-96 -33.5zM729 1645q-55 0 -81.5 33.5t-14.5 86.5q10 54 51.5 87.5t95.5 33.5q55 0 82.5 -33.5t16.5 -87.5q-12 -53 -54 -86.5t-96 -33.5zM352 1434h197
l-303 -1434h-197z" />
    <glyph glyph-name="Eth" unicode="&#xd0;" horiz-adv-x="1579" 
d="M1460 717q-48 -225 -173 -388t-302.5 -246t-390.5 -83h-504l135 639h-205l35 158h205l133 637h504q159 0 280.5 -48t196 -139.5t98.5 -225t-12 -304.5zM1253 717q56 261 -49.5 397.5t-343.5 136.5h-307l-96 -454h372l-34 -158h-373l-96 -457h307q238 0 401 137t219 398z
" />
    <glyph glyph-name="Eth" unicode="&#xf0;" horiz-adv-x="1579" 
d="M1460 717q-48 -225 -173 -388t-302.5 -246t-390.5 -83h-504l135 639h-205l35 158h205l133 637h504q159 0 280.5 -48t196 -139.5t98.5 -225t-12 -304.5zM1253 717q56 261 -49.5 397.5t-343.5 136.5h-307l-96 -454h372l-34 -158h-373l-96 -457h307q238 0 401 137t219 398z
" />
    <glyph glyph-name="Ntilde" unicode="&#xd1;" horiz-adv-x="1609" 
d="M899 1745q-78 0 -102 -117h-142q28 127 89.5 194.5t148.5 67.5q76 0 156 -71q54 -54 104 -54q78 0 102 117h142q-28 -128 -89.5 -195t-148.5 -67q-78 0 -158 72q-53 53 -102 53zM1565 1434l-303 -1434h-185l-602 1112l-235 -1112h-195l303 1434h184l603 -1112l235 1112
h195z" />
    <glyph glyph-name="Ograve" unicode="&#xd2;" horiz-adv-x="1714" 
d="M993 1591l-149 334h190l146 -334h-187zM707 -27q-158 0 -284.5 56t-202 155.5t-104.5 235.5t7 297q44 211 176 381t322 266t401 96q210 0 359 -96t208 -266t15 -381q-34 -158 -119.5 -296.5t-203.5 -236.5t-267.5 -154.5t-306.5 -56.5zM745 158q150 0 289 73t236 201.5
t131 284.5q33 157 -9.5 285.5t-150.5 201t-258 72.5q-230 0 -418 -160t-239 -399q-34 -156 9 -284.5t151 -201.5t259 -73z" />
    <glyph glyph-name="Oacute" unicode="&#xd3;" horiz-adv-x="1714" 
d="M1108 1591h-186l286 334h191zM707 -27q-158 0 -284.5 56t-202 155.5t-104.5 235.5t7 297q44 211 176 381t322 266t401 96q210 0 359 -96t208 -266t15 -381q-34 -158 -119.5 -296.5t-203.5 -236.5t-267.5 -154.5t-306.5 -56.5zM745 158q150 0 289 73t236 201.5t131 284.5
q33 157 -9.5 285.5t-150.5 201t-258 72.5q-230 0 -418 -160t-239 -399q-34 -156 9 -284.5t151 -201.5t259 -73z" />
    <glyph glyph-name="Ocircumflex" unicode="&#xd4;" horiz-adv-x="1714" 
d="M848 1591h-191l363 334h188l222 -334h-193l-145 224zM707 -27q-158 0 -284.5 56t-202 155.5t-104.5 235.5t7 297q44 211 176 381t322 266t401 96q210 0 359 -96t208 -266t15 -381q-34 -158 -119.5 -296.5t-203.5 -236.5t-267.5 -154.5t-306.5 -56.5zM745 158
q150 0 289 73t236 201.5t131 284.5q33 157 -9.5 285.5t-150.5 201t-258 72.5q-230 0 -418 -160t-239 -399q-34 -156 9 -284.5t151 -201.5t259 -73z" />
    <glyph glyph-name="Otilde" unicode="&#xd5;" horiz-adv-x="1714" 
d="M1212 1620q-44 0 -80 16.5t-79 55.5q-53 53 -103 53q-78 0 -102 -117h-139q26 126 87.5 194t147.5 68q43 0 79.5 -16.5t78.5 -54.5q54 -54 104 -54q37 0 64 29.5t39 87.5h139q-26 -127 -88 -194.5t-148 -67.5zM700 -27q-125 -1 -232 35.5t-182 103t-124 160t-58.5 205.5
t15.5 240q42 208 174.5 379t323.5 268.5t399 95.5q125 1 232 -35.5t181.5 -103t123.5 -159.5t58 -205t-16 -240q-32 -156 -117.5 -294.5t-204 -237.5t-268 -156t-305.5 -56zM739 160q152 0 288.5 70.5t233 198t130.5 288.5q34 160 -7.5 288t-148 199.5t-258.5 71.5
q-231 0 -414.5 -158t-236.5 -401q-52 -244 64.5 -400.5t348.5 -156.5z" />
    <glyph glyph-name="Odieresis" unicode="&#xd6;" horiz-adv-x="1714" 
d="M821 1645q-51 0 -79 35.5t-17 86.5t54 87t95 36q50 0 78.5 -36t18.5 -87t-54.5 -86.5t-95.5 -35.5zM1286 1645q-51 0 -79 35.5t-17 86.5t54 87t95 36q50 0 78.5 -36t18.5 -87t-54.5 -86.5t-95.5 -35.5zM707 -27q-158 0 -284.5 56t-202 155.5t-104.5 235.5t7 297
q44 211 176 381t322 266t401 96q210 0 359 -96t208 -266t15 -381q-34 -158 -119.5 -296.5t-203.5 -236.5t-267.5 -154.5t-306.5 -56.5zM745 158q150 0 289 73t236 201.5t131 284.5q33 157 -9.5 285.5t-150.5 201t-258 72.5q-230 0 -418 -160t-239 -399q-34 -156 9 -284.5
t151 -201.5t259 -73z" />
    <glyph glyph-name="multiply" unicode="&#xd7;" horiz-adv-x="1454" 
d="M829 649l238 -301l-141 -117l-238 301l-366 -301l-93 117l367 301l-238 303l142 117l239 -303l365 303l92 -117z" />
    <glyph glyph-name="Oslash" unicode="&#xd8;" horiz-adv-x="1714" 
d="M1595 717q-32 -156 -117.5 -294.5t-204 -237.5t-268 -156t-305.5 -56q-279 0 -436 168l-186 -155l-84 106l184 152q-118 197 -59 473q42 208 174.5 379t323.5 268.5t399 95.5q276 0 436 -166l188 154l82 -102l-184 -154q115 -204 57 -475zM326 717q-43 -187 30 -332
l930 768q-114 123 -309 123q-231 0 -414.5 -158t-236.5 -401zM1391 717q40 190 -33 330l-930 -766q112 -121 311 -121q152 0 288.5 70.5t233 198t130.5 288.5z" />
    <glyph glyph-name="Ugrave" unicode="&#xd9;" horiz-adv-x="1523" 
d="M872 1591l-151 334h192l144 -334h-185zM610 -27q-257 0 -385 160t-73 422l186 879h197l-189 -889q-38 -182 45 -283.5t260 -101.5q182 0 304.5 100.5t162.5 284.5l189 889h196l-186 -879q-55 -263 -249.5 -422.5t-457.5 -159.5z" />
    <glyph glyph-name="Uacute" unicode="&#xda;" horiz-adv-x="1523" 
d="M1001 1591h-186l287 334h190zM610 -27q-257 0 -385 160t-73 422l186 879h197l-189 -889q-38 -182 45 -283.5t260 -101.5q182 0 304.5 100.5t162.5 284.5l189 889h196l-186 -879q-55 -263 -249.5 -422.5t-457.5 -159.5z" />
    <glyph glyph-name="Ucircumflex" unicode="&#xdb;" horiz-adv-x="1523" 
d="M1143 1591l-148 224l-241 -224h-193l363 334h188l221 -334h-190zM610 -27q-257 0 -385 160t-73 422l186 879h197l-189 -889q-38 -182 45 -283.5t260 -101.5q182 0 304.5 100.5t162.5 284.5l189 889h196l-186 -879q-55 -263 -249.5 -422.5t-457.5 -159.5z" />
    <glyph glyph-name="Udieresis" unicode="&#xdc;" horiz-adv-x="1523" 
d="M727 1645q-52 0 -80.5 35.5t-17.5 86.5q10 51 54 87t95 36t79 -36t17 -87q-10 -51 -53.5 -86.5t-93.5 -35.5zM1192 1645q-52 0 -80.5 35.5t-17.5 86.5q10 51 54 87t95 36t79 -36t17 -87q-10 -51 -53.5 -86.5t-93.5 -35.5zM610 -27q-257 0 -385 160t-73 422l186 879h197
l-189 -889q-38 -182 45 -283.5t260 -101.5q182 0 304.5 100.5t162.5 284.5l189 889h196l-186 -879q-55 -263 -249.5 -422.5t-457.5 -159.5z" />
    <glyph glyph-name="Yacute" unicode="&#xdd;" horiz-adv-x="1302" 
d="M897 1591h-186l286 334h191zM1466 1434l-737 -850l-123 -584h-198l122 584l-370 850h225l285 -662l571 662h225z" />
    <glyph glyph-name="Thorn" unicode="&#xde;" horiz-adv-x="1374" 
d="M1286 733q-47 -223 -203 -340t-409 -117h-373l-59 -276h-197l303 1434h197l-51 -246h374q252 0 358.5 -116t59.5 -339zM1083 733q29 136 -38 205.5t-224 69.5h-366l-117 -553h364q158 0 255 70.5t126 207.5z" />
    <glyph glyph-name="germandbls" unicode="&#xdf;" horiz-adv-x="1280" 
d="M848 764q167 -12 239.5 -107.5t38.5 -255.5q-40 -187 -185.5 -294t-365.5 -107h-172l35 166h142q151 0 241.5 65t116.5 189q26 122 -38 184t-216 62h-141l37 170h63q144 0 235 65t117 191q28 123 -30.5 188.5t-192.5 65.5q-142 0 -230.5 -74t-117.5 -215l-223 -1057h-191
l226 1063q46 217 195 335t376 118q218 0 319.5 -108t61.5 -294q-29 -137 -117.5 -228t-222.5 -122z" />
    <glyph glyph-name="agrave" unicode="&#xe0;" horiz-adv-x="1097" 
d="M645 1194l-182 334h223l143 -334h-184zM844 0h-162l43 201q-61 -103 -171 -162t-249 -59q-169 0 -249.5 88.5t-49.5 232.5q21 99 90 169.5t172 105t236 43t282 -16.5l17 84q21 102 -30.5 156.5t-158.5 54.5q-93 0 -180.5 -37.5t-154.5 -107.5l-82 106q79 85 207.5 137
t254.5 52q189 0 275.5 -104t48.5 -284zM764 489q-236 39 -389 -7t-180 -171q-19 -89 29.5 -139.5t154.5 -50.5q142 0 241 79.5t128 219.5z" />
    <glyph glyph-name="aacute" unicode="&#xe1;" horiz-adv-x="1124" 
d="M829 1194h-184l285 334h186zM858 0h-162l41 201q-61 -103 -171 -162t-249 -59q-169 0 -255.5 89.5t-55.5 231.5q21 99 92 169.5t177 105t241 43t283 -16.5l18 84q21 102 -29 156.5t-153 54.5q-202 0 -344 -145l-82 106q78 85 207 137t250 52q201 0 284.5 -102.5
t46.5 -285.5zM776 489q-237 39 -395.5 -7t-185.5 -171q-19 -88 36 -139t162 -51q141 0 240.5 79.5t128.5 219.5z" />
    <glyph glyph-name="acircumflex" unicode="&#xe2;" horiz-adv-x="1112" 
d="M911 1194l-147 223l-242 -223h-192l362 334h189l221 -334h-191zM844 0h-162l43 201q-61 -103 -171 -162t-249 -59q-169 0 -249.5 88.5t-49.5 232.5q21 99 90 169.5t172 105t236 43t282 -16.5l17 84q21 102 -30.5 156.5t-158.5 54.5q-93 0 -180.5 -37.5t-154.5 -107.5
l-82 106q79 85 207.5 137t254.5 52q189 0 275.5 -104t48.5 -284zM764 489q-236 39 -389 -7t-180 -171q-19 -89 29.5 -139.5t154.5 -50.5q142 0 241 79.5t128 219.5z" />
    <glyph glyph-name="atilde" unicode="&#xe3;" horiz-adv-x="1089" 
d="M772 1294q-51 54 -100 54q-78 0 -105 -117h-139q28 127 89.5 194.5t148.5 67.5q80 0 155 -72q53 -53 105 -53q78 0 102 117h141q-27 -128 -89 -195t-148 -67t-160 71zM844 0h-162l43 201q-61 -103 -171 -162t-249 -59q-169 0 -249.5 88.5t-49.5 232.5q21 99 90 169.5
t172 105t236 43t282 -16.5l17 84q21 102 -30.5 156.5t-158.5 54.5q-93 0 -180.5 -37.5t-154.5 -107.5l-82 106q79 85 207.5 137t254.5 52q189 0 275.5 -104t48.5 -284zM764 489q-236 39 -389 -7t-180 -171q-19 -89 29.5 -139.5t154.5 -50.5q142 0 241 79.5t128 219.5z" />
    <glyph glyph-name="adieresis" unicode="&#xe4;" horiz-adv-x="1146" 
d="M541 1247q-52 0 -81 36t-18 87q10 51 54.5 87t95.5 36t79 -36t17 -87q-10 -51 -53.5 -87t-93.5 -36zM1006 1247q-52 0 -81 36t-18 87q10 51 54.5 87t95.5 36t79 -36t17 -87q-10 -51 -53.5 -87t-93.5 -36zM844 0h-162l43 201q-61 -103 -171 -162t-249 -59
q-169 0 -249.5 88.5t-49.5 232.5q21 99 90 169.5t172 105t236 43t282 -16.5l17 84q21 102 -30.5 156.5t-158.5 54.5q-93 0 -180.5 -37.5t-154.5 -107.5l-82 106q79 85 207.5 137t254.5 52q189 0 275.5 -104t48.5 -284zM764 489q-236 39 -389 -7t-180 -171
q-19 -89 29.5 -139.5t154.5 -50.5q142 0 241 79.5t128 219.5z" />
    <glyph glyph-name="aring" unicode="&#xe5;" horiz-adv-x="1159" 
d="M729 1184q-112 0 -171.5 72t-37.5 176q22 103 112 174t202 71t171 -70.5t37 -174.5t-112 -176t-201 -72zM811 1567q-65 0 -110.5 -37t-57.5 -98q-12 -62 16.5 -100t92.5 -38q63 0 109.5 38t58.5 100t-17 98.5t-92 36.5zM844 0h-162l43 201q-61 -103 -171 -162t-249 -59
q-169 0 -249.5 88.5t-49.5 232.5q21 99 90 169.5t172 105t236 43t282 -16.5l17 84q21 102 -30.5 156.5t-158.5 54.5q-93 0 -180.5 -37.5t-154.5 -107.5l-82 106q79 85 207.5 137t254.5 52q189 0 275.5 -104t48.5 -284zM764 489q-236 39 -389 -7t-180 -171
q-19 -89 29.5 -139.5t154.5 -50.5q142 0 241 79.5t128 219.5z" />
    <glyph glyph-name="ae" unicode="&#xe6;" horiz-adv-x="1916" 
d="M1769 471h-839q-32 -149 49 -243.5t233 -94.5q109 0 211.5 44t171.5 120l86 -111q-88 -98 -224.5 -154.5t-285.5 -56.5t-253 60.5t-150 169.5q-98 -114 -225 -169.5t-258 -55.5q-169 0 -249.5 88.5t-49.5 232.5q21 99 90 169.5t172 105t236 43t282 -16.5l16 84
q21 102 -30 156.5t-158 54.5q-93 0 -181 -37.5t-155 -107.5l-82 106q78 85 207.5 137t255.5 52q122 0 202 -44t113 -126q89 81 202.5 125.5t236.5 44.5q248 0 349.5 -153t26.5 -423zM1362 903q-143 0 -259 -90t-149 -221h656q27 139 -39.5 225t-208.5 86zM358 121
q149 0 244.5 77.5t122.5 209.5l16 69q0 8 2 12q-236 39 -389 -7t-180 -171q-19 -89 29.5 -139.5t154.5 -50.5z" />
    <glyph glyph-name="ccedilla" unicode="&#xe7;" horiz-adv-x="1142" 
d="M512 145q96 0 185 47t159 132l119 -97q-78 -104 -188 -168t-236 -79l-197 -386h-192l223 386q-194 28 -284.5 174.5t-43.5 363.5q51 239 231 392t412 153q150 0 254.5 -65t145.5 -185l-162 -96q-32 83 -101.5 128.5t-166.5 45.5q-152 0 -269.5 -103.5t-152.5 -269.5
t38 -269.5t226 -103.5z" />
    <glyph glyph-name="egrave" unicode="&#xe8;" horiz-adv-x="1218" 
d="M653 1194l-180 334h221l146 -334h-187zM231 471q-32 -149 49 -243.5t234 -94.5q109 0 211.5 44t171.5 120l86 -111q-88 -98 -224.5 -154.5t-285.5 -56.5q-239 0 -357 150t-67 389q51 236 232 384.5t413 148.5q248 0 350 -153t27 -423h-840zM664 903q-143 0 -259 -90
t-149 -221h655q27 139 -39 225t-208 86z" />
    <glyph glyph-name="eacute" unicode="&#xe9;" horiz-adv-x="1226" 
d="M793 1194h-185l285 334h192zM231 471q-32 -149 49 -243.5t234 -94.5q109 0 211.5 44t171.5 120l86 -111q-88 -98 -224.5 -154.5t-285.5 -56.5q-239 0 -357 150t-67 389q51 236 232 384.5t413 148.5q248 0 350 -153t27 -423h-840zM664 903q-143 0 -259 -90t-149 -221h655
q27 139 -39 225t-208 86z" />
    <glyph glyph-name="ecircumflex" unicode="&#xea;" horiz-adv-x="1218" 
d="M918 1194l-148 223l-242 -223h-192l362 334h189l221 -334h-190zM231 471q-32 -149 49 -243.5t234 -94.5q109 0 211.5 44t171.5 120l86 -111q-88 -98 -224.5 -154.5t-285.5 -56.5q-239 0 -357 150t-67 389q51 236 232 384.5t413 148.5q248 0 350 -153t27 -423h-840z
M664 903q-143 0 -259 -90t-149 -221h655q27 139 -39 225t-208 86z" />
    <glyph glyph-name="edieresis" unicode="&#xeb;" horiz-adv-x="1218" 
d="M489 1247q-52 0 -80.5 36t-17.5 87q10 51 54.5 87t95.5 36t79 -36t17 -87q-10 -51 -54 -87t-94 -36zM954 1247q-52 0 -80.5 36t-17.5 87q10 51 54.5 87t95.5 36t79 -36t17 -87q-10 -51 -54 -87t-94 -36zM231 471q-32 -149 49 -243.5t234 -94.5q109 0 211.5 44t171.5 120
l86 -111q-88 -98 -224.5 -154.5t-285.5 -56.5q-239 0 -357 150t-67 389q51 236 232 384.5t413 148.5q248 0 350 -153t27 -423h-840zM664 903q-143 0 -259 -90t-149 -221h655q27 139 -39 225t-208 86z" />
    <glyph glyph-name="igrave" unicode="&#xec;" horiz-adv-x="518" 
d="M80 1528h192l158 -334h-184zM229 1024h191l-217 -1024h-191z" />
    <glyph glyph-name="iacute" unicode="&#xed;" horiz-adv-x="518" 
d="M446 1194h-184l285 334h192zM229 1024h191l-217 -1024h-191z" />
    <glyph glyph-name="icircumflex" unicode="&#xee;" horiz-adv-x="518" 
d="M692 1194h-172l-112 225l-207 -225h-172l313 334h178zM229 1024h191l-217 -1024h-191z" />
    <glyph glyph-name="idieresis" unicode="&#xef;" horiz-adv-x="518" 
d="M184 1257q-48 0 -71 30t-13 81q12 52 47.5 81.5t83.5 29.5q47 0 69.5 -30t10.5 -81q-10 -50 -45.5 -80.5t-81.5 -30.5zM567 1257q-48 0 -71 30t-13 81q12 52 47.5 81.5t83.5 29.5q47 0 69.5 -30t10.5 -81q-10 -50 -45.5 -80.5t-81.5 -30.5zM229 1024h191l-217 -1024h-191
z" />
    <glyph glyph-name="ntilde" unicode="&#xf1;" horiz-adv-x="1232" 
d="M733 1294q-51 54 -100 54q-78 0 -105 -117h-139q28 127 89.5 194.5t148.5 67.5q42 0 77 -17t78 -55q53 -53 105 -53q78 0 102 117h141q-27 -128 -89 -195t-148 -67q-81 0 -160 71zM768 1051q159 0 247 -112t56 -271l-141 -668h-191l129 608q23 111 -39 190.5t-174 80.5
q-112 0 -207 -80t-118 -191l-129 -608h-191l217 1024h187l-39 -182q67 95 173.5 152t219.5 57z" />
    <glyph glyph-name="ograve" unicode="&#xf2;" horiz-adv-x="1280" 
d="M717 1194l-152 334h193l143 -334h-184zM481 -27q-159 0 -268.5 71.5t-150.5 195.5t-7 278q50 234 235 389.5t427 155.5q161 0 269.5 -72.5t147 -195.5t5.5 -277q-51 -232 -234 -388.5t-424 -156.5zM518 145q157 0 276.5 106t153.5 267q34 163 -37.5 269t-228.5 106
q-158 0 -279 -106t-155 -269q-34 -164 38.5 -268.5t231.5 -104.5z" />
    <glyph glyph-name="oacute" unicode="&#xf3;" horiz-adv-x="1280" 
d="M807 1194h-184l284 334h193zM481 -27q-159 0 -268.5 71.5t-150.5 195.5t-7 278q50 234 235 389.5t427 155.5q161 0 269.5 -72.5t147 -195.5t5.5 -277q-51 -232 -234 -388.5t-424 -156.5zM518 145q157 0 276.5 106t153.5 267q34 163 -37.5 269t-228.5 106
q-158 0 -279 -106t-155 -269q-34 -164 38.5 -268.5t231.5 -104.5z" />
    <glyph glyph-name="ocircumflex" unicode="&#xf4;" horiz-adv-x="1280" 
d="M936 1194l-148 223l-241 -223h-191l363 334h188l221 -334h-192zM481 -27q-159 0 -268.5 71.5t-150.5 195.5t-7 278q50 234 235 389.5t427 155.5q161 0 269.5 -72.5t147 -195.5t5.5 -277q-51 -232 -234 -388.5t-424 -156.5zM518 145q157 0 276.5 106t153.5 267
q34 163 -37.5 269t-228.5 106q-158 0 -279 -106t-155 -269q-34 -164 38.5 -268.5t231.5 -104.5z" />
    <glyph glyph-name="otilde" unicode="&#xf5;" horiz-adv-x="1280" 
d="M909 1223q-78 0 -157 71q-54 54 -103 54q-78 0 -102 -117h-141q28 126 90 194t147 68q43 0 79 -17t79 -55q50 -53 102 -53q78 0 105 117h139q-28 -128 -89.5 -195t-148.5 -67zM483 -27q-161 0 -270.5 71t-150 194.5t-5.5 279.5q50 239 232 392t424 153q243 0 360.5 -153
t67.5 -392q-52 -238 -234 -391.5t-424 -153.5zM518 143q157 0 275 103t155 272q35 170 -39 272.5t-231 102.5t-275 -102.5t-153 -272.5q-37 -169 37 -272t231 -103z" />
    <glyph glyph-name="odieresis" unicode="&#xf6;" horiz-adv-x="1280" 
d="M422 1370q12 51 55.5 87t95.5 36q50 0 78.5 -36t16.5 -87q-9 -51 -53 -87t-95 -36t-79 36t-19 87zM887 1370q12 51 55.5 87t95.5 36q50 0 78.5 -36t16.5 -87q-9 -51 -53 -87t-95 -36t-79 36t-19 87zM481 -27q-159 0 -268.5 71.5t-150.5 195.5t-7 278q50 234 235 389.5
t427 155.5q161 0 269.5 -72.5t147 -195.5t5.5 -277q-51 -232 -234 -388.5t-424 -156.5zM518 145q157 0 276.5 106t153.5 267q34 163 -37.5 269t-228.5 106q-158 0 -279 -106t-155 -269q-34 -164 38.5 -268.5t231.5 -104.5z" />
    <glyph glyph-name="divide" unicode="&#xf7;" horiz-adv-x="1454" 
d="M774 922q-50 0 -77 34.5t-17 83.5q11 51 52.5 86t92.5 35q50 0 76.5 -35t16.5 -86q-11 -50 -52 -84t-92 -34zM281 735h901l-37 -170h-901zM608 141q-51 0 -78 34t-16 85q11 50 52.5 84.5t92.5 34.5q49 0 76.5 -34.5t16.5 -84.5q-10 -51 -52 -85t-92 -34z" />
    <glyph glyph-name="oslash" unicode="&#xf8;" horiz-adv-x="1288" 
d="M1110 862q78 -142 35 -344q-52 -238 -234 -391.5t-424 -153.5q-200 0 -319 113l-154 -127l-71 90l153 125q-81 144 -35 344q50 239 232 392t424 153q202 0 321 -113l152 127l72 -90zM684 903q-162 0 -282.5 -105.5t-157.5 -279.5q-28 -135 16 -221l637 524
q-73 82 -213 82zM520 133q161 0 282.5 106t158.5 279q27 130 -15 221l-637 -524q73 -82 211 -82z" />
    <glyph glyph-name="ugrave" unicode="&#xf9;" horiz-adv-x="1224" 
d="M684 1194l-152 334h193l143 -334h-184zM1133 1024l-218 -1024h-184l41 199q-62 -102 -175.5 -164t-242.5 -62q-166 0 -241.5 104.5t-38.5 284.5l141 662h191l-130 -598q-27 -136 24 -207.5t167 -73.5q126 0 225.5 80.5t126.5 210.5l125 588h189z" />
    <glyph glyph-name="uacute" unicode="&#xfa;" horiz-adv-x="1224" 
d="M741 1194h-186l287 334h190zM1133 1024l-218 -1024h-184l37 182q-65 -94 -172.5 -151.5t-220.5 -57.5q-158 0 -246.5 112.5t-54.5 270.5l141 668h191l-130 -606q-25 -112 37.5 -191.5t173.5 -79.5q113 0 209 79.5t119 191.5l129 606h189z" />
    <glyph glyph-name="ucircumflex" unicode="&#xfb;" horiz-adv-x="1224" 
d="M516 1194h-190l362 334h189l221 -334h-193l-147 223zM1133 1024l-218 -1024h-184l37 182q-65 -94 -172.5 -151.5t-220.5 -57.5q-158 0 -246.5 112.5t-54.5 270.5l141 668h191l-130 -606q-25 -112 37.5 -191.5t173.5 -79.5q113 0 209 79.5t119 191.5l129 606h189z" />
    <glyph glyph-name="udieresis" unicode="&#xfc;" horiz-adv-x="1224" 
d="M391 1370q12 51 56 87t96 36q50 0 78 -36t16 -87q-9 -51 -53 -87t-95 -36t-79 36t-19 87zM856 1370q12 51 56 87t96 36q50 0 78 -36t16 -87q-9 -51 -53 -87t-95 -36t-79 36t-19 87zM1133 1024l-218 -1024h-184l37 182q-65 -94 -172.5 -151.5t-220.5 -57.5
q-158 0 -246.5 112.5t-54.5 270.5l141 668h191l-130 -606q-25 -112 37.5 -191.5t173.5 -79.5q113 0 209 79.5t119 191.5l129 606h189z" />
    <glyph glyph-name="yacute" unicode="&#xfd;" horiz-adv-x="1107" 
d="M686 1194h-184l284 334h193zM1143 1024l-729 -1180q-88 -143 -184 -198.5t-250 -55.5h-175l35 170h144q105 0 161 30t107 114l63 100l-215 1020h205l154 -799l479 799h205z" />
    <glyph glyph-name="thorn" unicode="&#xfe;" horiz-adv-x="1325" 
d="M811 1049q228 0 326 -147t45 -394q-50 -236 -214 -384.5t-386 -148.5q-145 0 -236 74t-104 176l-127 -604h-187l385 1813h172l-135 -637q71 115 198 183.5t263 68.5zM573 139q150 0 266.5 102.5t151.5 266.5q35 166 -38.5 269.5t-227.5 103.5q-150 0 -268.5 -104.5
t-153.5 -268.5q-34 -163 41 -266t229 -103z" />
    <glyph glyph-name="ydieresis" unicode="&#xff;" horiz-adv-x="1107" 
d="M436 1247q-52 0 -80.5 36t-17.5 87q10 51 54 87t95 36t79.5 -36t17.5 -87q-10 -51 -54 -87t-94 -36zM901 1247q-52 0 -80.5 36t-17.5 87q10 51 54 87t95 36t79.5 -36t17.5 -87q-10 -51 -54 -87t-94 -36zM1145 1036l-731 -1192q-88 -143 -184 -198.5t-250 -55.5h-175
l35 170h144q105 0 161 30t107 114l63 100l-213 1032h205l152 -811l481 811h205z" />
    <glyph glyph-name="Amacron" unicode="&#x100;" horiz-adv-x="1427" 
d="M1247 1651h-647l31 151h647zM961 334l-670 2l-205 -336h-209l875 1434h202l279 -1434h-209zM934 506l-117 727l-428 -727h545z" />
    <glyph glyph-name="amacron" unicode="&#x101;" horiz-adv-x="1077" 
d="M1073 1253h-647l31 152h647zM844 0h-162l43 201q-61 -103 -171 -162t-249 -59q-169 0 -249.5 88.5t-49.5 232.5q21 99 90 169.5t172 105t236 43t282 -16.5l17 84q21 102 -30.5 156.5t-158.5 54.5q-93 0 -180.5 -37.5t-154.5 -107.5l-82 106q79 85 207.5 137t254.5 52
q189 0 275.5 -104t48.5 -284zM764 489q-236 39 -389 -7t-180 -171q-19 -89 29.5 -139.5t154.5 -50.5q142 0 241 79.5t128 219.5z" />
    <glyph glyph-name="Abreve" unicode="&#x102;" horiz-adv-x="1427" 
d="M909 1591q-144 0 -215 78.5t-45 206.5l4 12h152q-17 -78 19.5 -126t111.5 -48q76 0 133 48t74 126h151l-4 -12q-26 -128 -131 -206.5t-250 -78.5zM961 334l-670 2l-205 -336h-209l875 1434h202l279 -1434h-209zM934 506l-117 727l-428 -727h545z" />
    <glyph glyph-name="abreve" unicode="&#x103;" horiz-adv-x="1150" 
d="M752 1194q-145 0 -216.5 78.5t-43.5 206.5l2 12h151q-17 -78 19.5 -126t111.5 -48q76 0 133 48t74 126h152l-2 -12q-28 -128 -132.5 -206.5t-248.5 -78.5zM844 0h-162l43 201q-61 -103 -171 -162t-249 -59q-169 0 -249.5 88.5t-49.5 232.5q21 99 90 169.5t172 105t236 43
t282 -16.5l17 84q21 102 -30.5 156.5t-158.5 54.5q-93 0 -180.5 -37.5t-154.5 -107.5l-82 106q79 85 207.5 137t254.5 52q189 0 275.5 -104t48.5 -284zM764 489q-236 39 -389 -7t-180 -171q-19 -89 29.5 -139.5t154.5 -50.5q142 0 241 79.5t128 219.5z" />
    <glyph glyph-name="Aogonek" unicode="&#x104;" horiz-adv-x="1427" 
d="M1221 0q-109 -60 -159 -109t-61 -100q-9 -46 22 -68t105 -22h39l-28 -137h-72q-132 0 -190.5 49t-40.5 137q36 152 219 250h-31l-63 334l-670 2l-205 -336h-209l875 1434h202l279 -1434h-12zM389 506h545l-117 727z" />
    <glyph glyph-name="aogonek" unicode="&#x105;" horiz-adv-x="1101" 
d="M659 1047q189 0 275.5 -104t48.5 -284l-139 -659h4q-113 -62 -167 -111t-63 -98q-9 -46 21.5 -68t105.5 -22h37l-28 -137h-72q-131 0 -189.5 49t-39.5 137q29 138 229 252l43 199q-61 -103 -171 -162t-249 -59q-169 0 -249.5 88.5t-49.5 232.5q21 99 90 169.5t172 105
t236 43t282 -16.5l17 84q21 102 -30.5 156.5t-158.5 54.5q-93 0 -180.5 -37.5t-154.5 -107.5l-82 106q79 85 207.5 137t254.5 52zM379 121q142 0 241 79.5t128 219.5l16 69q-236 39 -389 -7t-180 -171q-19 -89 29.5 -139.5t154.5 -50.5z" />
    <glyph glyph-name="Cacute" unicode="&#x106;" horiz-adv-x="1552" 
d="M1110 1591h-186l286 334h191zM698 -27q-112 0 -207 26t-164.5 73.5t-120.5 115t-75 150t-28 178.5t20 201q34 157 115 293.5t195.5 236t265 156.5t315.5 57q208 0 346.5 -96t191.5 -272l-182 -93q-34 131 -136.5 204t-258.5 73t-293 -73.5t-228.5 -200.5t-125.5 -285
q-35 -159 2 -286t142.5 -200t264.5 -73q156 0 290 72.5t224 203.5l140 -96q-122 -178 -301.5 -271.5t-391.5 -93.5z" />
    <glyph glyph-name="cacute" unicode="&#x107;" horiz-adv-x="1142" 
d="M776 1194h-186l287 334h190zM469 -27q-235 0 -349.5 152t-62.5 393q51 239 231 392t412 153q150 0 254.5 -65t145.5 -185l-162 -96q-32 83 -101.5 128.5t-166.5 45.5q-152 0 -269.5 -103.5t-152.5 -269.5t38 -269.5t226 -103.5q96 0 185 47t159 132l119 -97
q-91 -121 -223 -187.5t-283 -66.5z" />
    <glyph glyph-name="Ccircumflex" unicode="&#x108;" horiz-adv-x="1552" 
d="M836 1591h-193l363 334h188l221 -334h-190l-148 224zM698 -27q-112 0 -207 26t-164.5 73.5t-120.5 115t-75 150t-28 178.5t20 201q34 157 115 293.5t195.5 236t265 156.5t315.5 57q208 0 346.5 -96t191.5 -272l-182 -93q-34 131 -136.5 204t-258.5 73t-293 -73.5
t-228.5 -200.5t-125.5 -285q-35 -159 2 -286t142.5 -200t264.5 -73q156 0 290 72.5t224 203.5l140 -96q-122 -178 -301.5 -271.5t-391.5 -93.5z" />
    <glyph glyph-name="ccircumflex" unicode="&#x109;" horiz-adv-x="1142" 
d="M532 1194h-190l363 334h188l221 -334h-192l-148 223zM469 -27q-235 0 -349.5 152t-62.5 393q51 239 231 392t412 153q150 0 254.5 -65t145.5 -185l-162 -96q-32 83 -101.5 128.5t-166.5 45.5q-152 0 -269.5 -103.5t-152.5 -269.5t38 -269.5t226 -103.5q96 0 185 47
t159 132l119 -97q-91 -121 -223 -187.5t-283 -66.5z" />
    <glyph glyph-name="Cdotaccent" unicode="&#x10a;" horiz-adv-x="1552" 
d="M1040 1645q-51 0 -79 35.5t-17 86.5t54.5 87t95.5 36q50 0 78 -36t18 -87t-54.5 -86.5t-95.5 -35.5zM698 -27q-112 0 -207 26t-164.5 73.5t-120.5 115t-75 150t-28 178.5t20 201q34 157 115 293.5t195.5 236t265 156.5t315.5 57q208 0 346.5 -96t191.5 -272l-182 -93
q-34 131 -136.5 204t-258.5 73t-293 -73.5t-228.5 -200.5t-125.5 -285q-35 -159 2 -286t142.5 -200t264.5 -73q156 0 290 72.5t224 203.5l140 -96q-122 -178 -301.5 -271.5t-391.5 -93.5z" />
    <glyph glyph-name="cdotaccent" unicode="&#x10b;" horiz-adv-x="1142" 
d="M739 1247q-52 0 -80.5 36t-17.5 87q10 51 54.5 87t95.5 36t79 -36t17 -87q-10 -51 -54 -87t-94 -36zM469 -27q-235 0 -349.5 152t-62.5 393q51 239 231 392t412 153q150 0 254.5 -65t145.5 -185l-162 -96q-32 83 -101.5 128.5t-166.5 45.5q-152 0 -269.5 -103.5
t-152.5 -269.5t38 -269.5t226 -103.5q96 0 185 47t159 132l119 -97q-91 -121 -223 -187.5t-283 -66.5z" />
    <glyph glyph-name="Ccaron" unicode="&#x10c;" horiz-adv-x="1552" 
d="M936 1591l-221 334h190l148 -225l241 225h193l-363 -334h-188zM698 -27q-112 0 -207 26t-164.5 73.5t-120.5 115t-75 150t-28 178.5t20 201q34 157 115 293.5t195.5 236t265 156.5t315.5 57q208 0 346.5 -96t191.5 -272l-182 -93q-34 131 -136.5 204t-258.5 73
t-293 -73.5t-228.5 -200.5t-125.5 -285q-35 -159 2 -286t142.5 -200t264.5 -73q156 0 290 72.5t224 203.5l140 -96q-122 -178 -301.5 -271.5t-391.5 -93.5z" />
    <glyph glyph-name="ccaron" unicode="&#x10d;" horiz-adv-x="1142" 
d="M633 1194l-221 334h192l148 -225l241 225h191l-363 -334h-188zM469 -27q-235 0 -349.5 152t-62.5 393q51 239 231 392t412 153q150 0 254.5 -65t145.5 -185l-162 -96q-32 83 -101.5 128.5t-166.5 45.5q-152 0 -269.5 -103.5t-152.5 -269.5t38 -269.5t226 -103.5
q96 0 185 47t159 132l119 -97q-91 -121 -223 -187.5t-283 -66.5z" />
    <glyph glyph-name="Dcaron" unicode="&#x10e;" horiz-adv-x="1533" 
d="M782 1591l-221 334h191l147 -225l242 225h192l-362 -334h-189zM870 1434q203 0 342.5 -93t192.5 -256.5t10 -367.5q-44 -206 -165.5 -369.5t-300 -255.5t-382.5 -92h-522l303 1434h522zM582 182q233 0 404.5 148.5t223.5 386.5q50 237 -58.5 385.5t-342.5 148.5h-303
l-227 -1069h303z" />
    <glyph glyph-name="dcaron" unicode="&#x10f;" horiz-adv-x="1466" 
d="M1645 1499l-89 -412h-149l88 412h150zM1309 1495l-318 -1493h-172l49 227q-73 -117 -189 -184.5t-251 -67.5q-230 0 -337 147.5t-54 389.5q50 238 218.5 386.5t393.5 148.5q140 0 227.5 -73.5t98.5 -174.5l149 694h185zM494 145q151 0 269 104.5t152 268.5
q35 166 -38 270.5t-224 104.5q-154 0 -271.5 -104t-152.5 -271q-35 -166 39 -269.5t226 -103.5z" />
    <glyph glyph-name="Dcroat" unicode="&#x110;" horiz-adv-x="1583" 
d="M897 1434q159 0 280.5 -48t196 -139.5t98.5 -225t-12 -304.5q-48 -225 -173 -388t-302.5 -246t-390.5 -83h-504l135 639h-205l35 158h205l133 637h504zM633 182q238 0 401 137t219 398t-49.5 397.5t-343.5 136.5h-307l-96 -454h372l-34 -158h-373l-96 -457h307z" />
    <glyph glyph-name="dcroat" unicode="&#x111;" horiz-adv-x="1304" 
d="M1516 1348l-31 -152h-240l-254 -1194h-172l49 227q-73 -117 -189 -184.5t-251 -67.5q-230 0 -337 147.5t-54 389.5q50 238 218.5 386.5t393.5 148.5q140 0 227.5 -73.5t98.5 -174.5l86 395h-223l30 152h224l32 147h185l-31 -147h238zM915 518q35 166 -38 270.5
t-224 104.5q-154 0 -271.5 -104t-152.5 -271q-35 -166 39 -269.5t226 -103.5q151 0 269 104.5t152 268.5z" />
    <glyph glyph-name="Emacron" unicode="&#x112;" horiz-adv-x="1333" 
d="M584 1802h647l-31 -151h-647zM1077 178l-37 -178h-993l303 1434h973l-37 -179h-778l-102 -479h739l-37 -176h-739l-90 -422h798z" />
    <glyph glyph-name="emacron" unicode="&#x113;" horiz-adv-x="1218" 
d="M442 1405h648l-31 -152h-647zM231 471q-32 -149 49 -243.5t234 -94.5q109 0 211.5 44t171.5 120l86 -111q-88 -98 -224.5 -154.5t-285.5 -56.5q-239 0 -357 150t-67 389q51 236 232 384.5t413 148.5q248 0 350 -153t27 -423h-840zM664 903q-143 0 -259 -90t-149 -221h655
q27 139 -39 225t-208 86z" />
    <glyph glyph-name="Ebreve" unicode="&#x114;" horiz-adv-x="1333" 
d="M606 1888h152q-17 -78 19.5 -126t111.5 -48q76 0 133 48t74 126h151q-29 -134 -134.5 -215.5t-250.5 -81.5t-215 81.5t-41 215.5zM1077 178l-37 -178h-993l303 1434h973l-37 -179h-778l-102 -479h739l-37 -176h-739l-90 -422h798z" />
    <glyph glyph-name="ebreve" unicode="&#x115;" horiz-adv-x="1218" 
d="M465 1491h151q-17 -78 20 -126t112 -48q76 0 132.5 48t73.5 126h152q-28 -134 -133 -215.5t-250 -81.5t-215.5 81.5t-42.5 215.5zM231 471q-32 -149 49 -243.5t234 -94.5q109 0 211.5 44t171.5 120l86 -111q-88 -98 -224.5 -154.5t-285.5 -56.5q-239 0 -357 150t-67 389
q51 236 232 384.5t413 148.5q248 0 350 -153t27 -423h-840zM664 903q-143 0 -259 -90t-149 -221h655q27 139 -39 225t-208 86z" />
    <glyph glyph-name="Edotaccent" unicode="&#x116;" horiz-adv-x="1333" 
d="M774 1765q12 55 54 88t98 33q57 0 84.5 -33t15.5 -88q-12 -54 -54 -87t-98 -33q-57 0 -84.5 33t-15.5 87zM1077 178l-37 -178h-993l303 1434h973l-37 -179h-778l-102 -479h739l-37 -176h-739l-90 -422h798z" />
    <glyph glyph-name="edotaccent" unicode="&#x117;" horiz-adv-x="1218" 
d="M633 1368q12 55 54 88t99 33q56 0 83.5 -33t15.5 -88q-10 -54 -52.5 -87.5t-99.5 -33.5q-55 0 -83 33.5t-17 87.5zM231 471q-32 -149 49 -243.5t234 -94.5q109 0 211.5 44t171.5 120l86 -111q-88 -98 -224.5 -154.5t-285.5 -56.5q-239 0 -357 150t-67 389
q51 236 232 384.5t413 148.5q248 0 350 -153t27 -423h-840zM664 903q-143 0 -259 -90t-149 -221h655q27 139 -39 225t-208 86z" />
    <glyph glyph-name="Eogonek" unicode="&#x118;" horiz-adv-x="1333" 
d="M1286 1255h-778l-102 -479h739l-37 -176h-739l-90 -422h798l-37 -178h-2q-112 -61 -165 -110t-64 -99q-10 -52 29 -71t137 -19l-29 -137q-180 0 -252 42.5t-51 143.5q30 143 223 250h-819l303 1434h973z" />
    <glyph glyph-name="eogonek" unicode="&#x119;" horiz-adv-x="1204" 
d="M514 133q109 0 211.5 44t171.5 120l86 -111q-113 -126 -301 -180q-98 -68 -115 -147q-9 -46 22 -68t105 -22h39l-28 -138h-72q-133 0 -192 49.5t-38 137.5q14 82 97 168q-51 -7 -90 -4q-210 19 -309 164.5t-52 367.5q51 236 232 384.5t413 148.5q248 0 350 -153t27 -423
h-840q-32 -149 49 -243.5t234 -94.5zM664 903q-143 0 -259 -90t-149 -221h655q27 139 -39 225t-208 86z" />
    <glyph glyph-name="Ecaron" unicode="&#x11a;" horiz-adv-x="1333" 
d="M1319 1925l-363 -334h-188l-221 334h192l148 -225l241 225h191zM1077 178l-37 -178h-993l303 1434h973l-37 -179h-778l-102 -479h739l-37 -176h-739l-90 -422h798z" />
    <glyph glyph-name="ecaron" unicode="&#x11b;" horiz-adv-x="1218" 
d="M1180 1528l-363 -334h-188l-221 334h190l147 -225l242 225h193zM231 471q-32 -149 49 -243.5t234 -94.5q109 0 211.5 44t171.5 120l86 -111q-88 -98 -224.5 -154.5t-285.5 -56.5q-239 0 -357 150t-67 389q51 236 232 384.5t413 148.5q248 0 350 -153t27 -423h-840z
M664 903q-143 0 -259 -90t-149 -221h655q27 139 -39 225t-208 86z" />
    <glyph glyph-name="Gcircumflex" unicode="&#x11c;" horiz-adv-x="1597" 
d="M834 1591h-193l363 334h188l221 -334h-190l-148 224zM1487 770l-115 -532q-292 -267 -676 -267q-135 2 -244.5 39.5t-181.5 104.5t-116.5 159.5t-49.5 203.5t19 237q44 210 168 378t312.5 266.5t408.5 98.5q195 0 333 -85.5t199 -237.5l-186 -111q-38 121 -137 185.5
t-248 64.5q-236 0 -416.5 -158.5t-230.5 -400.5q-35 -158 2 -283.5t142.5 -199t264.5 -76.5q279 0 473 159l62 291h-361l35 164h543z" />
    <glyph glyph-name="gcircumflex" unicode="&#x11d;" horiz-adv-x="1327" 
d="M571 1194h-192l362 334h189l221 -334h-190l-148 223zM1231 1024l-197 -918q-52 -249 -232.5 -395.5t-434.5 -146.5q-147 0 -264.5 48.5t-178.5 131.5l117 135q54 -69 147.5 -109t200.5 -40q175 0 301.5 99t167.5 296l29 131q-65 -113 -190 -179.5t-263 -66.5
q-217 0 -320.5 147t-52.5 380q46 226 210 368t382 142q139 0 231.5 -61.5t112.5 -164.5l43 203h191zM520 174q152 0 270.5 101.5t153.5 261.5q34 161 -41.5 262.5t-226.5 101.5q-152 0 -270 -101.5t-152 -262.5q-35 -159 40 -261t226 -102z" />
    <glyph glyph-name="Gbreve" unicode="&#x11e;" horiz-adv-x="1597" 
d="M1028 1591q-145 0 -216.5 78.5t-43.5 206.5l2 12h152q-17 -78 19.5 -126t113.5 -48q75 0 131.5 48t73.5 126h151l-2 -12q-28 -128 -132.5 -206.5t-248.5 -78.5zM1487 770l-115 -532q-292 -267 -676 -267q-135 2 -244.5 39.5t-181.5 104.5t-116.5 159.5t-49.5 203.5
t19 237q44 210 168 378t312.5 266.5t408.5 98.5q195 0 333 -85.5t199 -237.5l-186 -111q-38 121 -137 185.5t-248 64.5q-236 0 -416.5 -158.5t-230.5 -400.5q-35 -158 2 -283.5t142.5 -199t264.5 -76.5q279 0 473 159l62 291h-361l35 164h543z" />
    <glyph glyph-name="gbreve" unicode="&#x11f;" horiz-adv-x="1327" 
d="M508 1491h151q-17 -78 20 -126t112 -48q76 0 132.5 48t73.5 126h152l-2 -12q-28 -128 -132.5 -206.5t-248.5 -78.5q-145 0 -216.5 78.5t-43.5 206.5zM1231 1028l-201 -944q-50 -230 -229.5 -378t-411.5 -148q-144 0 -265 63.5t-171 163.5l117 131q44 -85 139.5 -138.5
t202.5 -53.5q154 0 279 100t163 278l31 146q-67 -107 -193 -173.5t-260 -66.5q-216 0 -319 147t-52 382q47 225 212 367.5t380 142.5q137 0 229.5 -60.5t114.5 -161.5l43 203h191zM520 174q151 0 269.5 102t152.5 261q34 158 -40.5 260t-225.5 102q-154 0 -272 -101
t-152 -261q-34 -163 40 -263t228 -100z" />
    <glyph glyph-name="Gdotaccent" unicode="&#x120;" horiz-adv-x="1597" 
d="M1038 1645q-56 0 -83 33t-15 87q10 55 52 88t100 33q56 0 83 -33t17 -88q-12 -54 -54.5 -87t-99.5 -33zM1487 770l-115 -532q-292 -267 -676 -267q-135 2 -244.5 39.5t-181.5 104.5t-116.5 159.5t-49.5 203.5t19 237q44 210 168 378t312.5 266.5t408.5 98.5
q195 0 333 -85.5t199 -237.5l-186 -111q-38 121 -137 185.5t-248 64.5q-236 0 -416.5 -158.5t-230.5 -400.5q-35 -158 2 -283.5t142.5 -199t264.5 -76.5q279 0 473 159l62 291h-361l35 164h543z" />
    <glyph glyph-name="gdotaccent" unicode="&#x121;" horiz-adv-x="1327" 
d="M678 1370q12 51 55.5 87t95.5 36q50 0 78.5 -36t16.5 -87q-9 -51 -53 -87t-95 -36t-79 36t-19 87zM1231 1028l-201 -944q-50 -230 -229.5 -378t-411.5 -148q-144 0 -265 63.5t-171 163.5l117 131q44 -85 139.5 -138.5t202.5 -53.5q154 0 279 100t163 278l31 146
q-67 -107 -193 -173.5t-260 -66.5q-216 0 -319 147t-52 382q47 225 212 367.5t380 142.5q137 0 229.5 -60.5t114.5 -161.5l43 203h191zM520 174q151 0 269.5 102t152.5 261q34 158 -40.5 260t-225.5 102q-154 0 -272 -101t-152 -261q-34 -163 40 -263t228 -100z" />
    <glyph glyph-name="uni0122" unicode="&#x122;" horiz-adv-x="1597" 
d="M1487 770l-115 -532q-292 -267 -676 -267q-135 2 -244.5 39.5t-181.5 104.5t-116.5 159.5t-49.5 203.5t19 237q44 210 168 378t312.5 266.5t408.5 98.5q195 0 333 -85.5t199 -237.5l-186 -111q-38 121 -137 185.5t-248 64.5q-236 0 -416.5 -158.5t-230.5 -400.5
q-35 -158 2 -283.5t142.5 -199t264.5 -76.5q279 0 473 159l62 291h-361l35 164h543zM584 -184h188l-201 -365h-147z" />
    <glyph glyph-name="uni0123" unicode="&#x123;" horiz-adv-x="1327" 
d="M842 1194h-185l285 334h193zM1231 1028l-201 -944q-50 -230 -229.5 -378t-411.5 -148q-144 0 -265 63.5t-171 163.5l117 131q44 -85 139.5 -138.5t202.5 -53.5q154 0 279 100t163 278l31 146q-67 -107 -193 -173.5t-260 -66.5q-216 0 -319 147t-52 382q47 225 212 367.5
t380 142.5q137 0 229.5 -60.5t114.5 -161.5l43 203h191zM520 174q151 0 269.5 102t152.5 261q34 158 -40.5 260t-225.5 102q-154 0 -272 -101t-152 -261q-34 -163 40 -263t228 -100z" />
    <glyph glyph-name="Hcircumflex" unicode="&#x124;" horiz-adv-x="1570" 
d="M1165 1591l-145 224l-244 -224h-190l362 334h189l221 -334h-193zM1526 1434l-303 -1434h-195l123 586h-784l-125 -586h-195l303 1434h195l-142 -666h787l141 666h195z" />
    <glyph glyph-name="hcircumflex" unicode="&#x125;" horiz-adv-x="1236" 
d="M651 1657l-147 223l-242 -223h-190l362 334h189l221 -334h-193zM770 1049q165 0 252 -109t53 -274l-141 -666h-189l132 621q23 116 -37 193t-174 77q-117 0 -214 -81.5t-122 -201.5l-129 -608h-191l318 1497h190l-135 -635q59 84 164.5 135.5t222.5 51.5z" />
    <glyph glyph-name="Hbar" unicode="&#x126;" horiz-adv-x="1640" 
d="M1626 1057h-143l-226 -1057h-196l135 645h-784l-136 -645h-196l225 1057h-143l28 139h144l49 238h197l-50 -238h785l49 238h197l-50 -238h144zM1286 1057h-784l-49 -230h784z" />
    <glyph glyph-name="hbar" unicode="&#x127;" horiz-adv-x="1236" 
d="M788 1044q176 0 248.5 -104t30.5 -301l-135 -639h-189l125 594q59 278 -188 278q-135 0 -231.5 -79t-126.5 -222l-121 -571h-191l256 1204h-166l27 127h166l35 168h190l-37 -168h383l-26 -127h-383l-80 -379q62 102 170.5 160.5t242.5 58.5z" />
    <glyph glyph-name="Itilde" unicode="&#x128;" horiz-adv-x="598" 
d="M653 1620q-77 0 -157 72q-53 53 -103 53q-78 0 -102 -117h-141q28 127 89 194.5t148 67.5q76 0 156 -71q54 -54 104 -54q37 0 64 29.5t39 87.5h141q-28 -128 -89.5 -195t-148.5 -67zM352 1434h197l-303 -1434h-197z" />
    <glyph glyph-name="itilde" unicode="&#x129;" horiz-adv-x="518" 
d="M371 1294q-54 54 -99 54q-31 0 -51 -27t-33 -90h-122q57 262 200 262q73 0 154 -72q50 -53 100 -53q30 0 49.5 27t32.5 90h125q-56 -262 -201 -262q-76 0 -155 71zM229 1024h191l-217 -1024h-191z" />
    <glyph glyph-name="Imacron" unicode="&#x12a;" horiz-adv-x="598" 
d="M207 1802h647l-33 -151h-647zM352 1434h197l-303 -1434h-197z" />
    <glyph glyph-name="imacron" unicode="&#x12b;" horiz-adv-x="518" 
d="M137 1405h537l-31 -152h-537zM229 1024h191l-217 -1024h-191z" />
    <glyph glyph-name="Ibreve" unicode="&#x12c;" horiz-adv-x="598" 
d="M485 1591q-155 0 -222 74t-38 211l2 12h152q-19 -89 14 -131.5t119 -42.5t136 42.5t69 131.5h151l-2 -12q-29 -137 -127.5 -211t-253.5 -74zM352 1434h197l-303 -1434h-197z" />
    <glyph glyph-name="ibreve" unicode="&#x12d;" horiz-adv-x="518" 
d="M360 1194q-140 0 -201 75t-32 210l2 12h143q-20 -89 8 -131.5t107 -42.5q78 0 124.5 42.5t66.5 131.5h141l-2 -12q-29 -135 -122.5 -210t-234.5 -75zM229 1024h191l-217 -1024h-191z" />
    <glyph glyph-name="Iogonek" unicode="&#x12e;" horiz-adv-x="598" 
d="M246 0q-112 -61 -165.5 -110t-64.5 -99q-9 -46 21.5 -67t99.5 -23h45l-28 -137h-78q-129 1 -187 50t-39 136q30 147 230 254l-29 8l301 1422h197z" />
    <glyph glyph-name="iogonek" unicode="&#x12f;" horiz-adv-x="518" 
d="M424 1489q57 0 84.5 -33t15.5 -88q-12 -54 -54 -87.5t-97 -33.5q-57 0 -85 33.5t-16 87.5q12 55 54 88t98 33zM229 1024h191l-217 -1024q-113 -62 -167.5 -111t-64.5 -98q-9 -46 22.5 -68t106.5 -22h37l-28 -137h-72q-133 0 -191.5 49t-40.5 137q35 148 232 254l-23 4z
" />
    <glyph glyph-name="Idotaccent" unicode="&#x130;" horiz-adv-x="598" 
d="M487 1645q-54 0 -80.5 33.5t-15.5 86.5q10 54 52 87.5t98 33.5q54 0 80.5 -33.5t15.5 -87.5q-11 -53 -53 -86.5t-97 -33.5zM352 1434h197l-303 -1434h-197z" />
    <glyph glyph-name="dotlessi" unicode="&#x131;" horiz-adv-x="518" 
d="M229 1024h191l-217 -1024h-191z" />
    <glyph glyph-name="ij" unicode="&#x133;" horiz-adv-x="1034" 
d="M371 1247q-56 0 -83.5 33.5t-17.5 87.5q12 55 54.5 88t99.5 33q56 0 83 -33t15 -88q-11 -54 -52.5 -87.5t-98.5 -33.5zM889 1247q-57 0 -85 33.5t-16 87.5q12 55 54 88t98 33q57 0 84.5 -33t15.5 -88q-12 -54 -54 -87.5t-97 -33.5zM229 1024h191l-217 -1024h-191z
M236 -242h106q136 0 166 140l240 1126h188l-246 -1159q-29 -135 -116.5 -205t-227.5 -70h-145z" />
    <glyph glyph-name="Jcircumflex" unicode="&#x134;" horiz-adv-x="1187" 
d="M1292 1591l-145 224l-244 -224h-190l362 334h189l221 -334h-193zM385 -29q-128 0 -226 61.5t-143 166.5t-24 227l207 66l-6 -33q-26 -122 42 -208.5t191 -86.5t227.5 86.5t130.5 208.5l207 975h195l-205 -971q-21 -100 -79.5 -191.5t-138.5 -157t-179 -104.5t-199 -39z
" />
    <glyph glyph-name="jcircumflex" unicode="&#x135;" horiz-adv-x="518" 
d="M692 1194h-172l-112 225l-207 -225h-172l313 334h178zM229 1024h191l-248 -1159q-28 -135 -115.5 -205t-228.5 -70h-145l34 168h107q136 0 166 140z" />
    <glyph glyph-name="uni0136" unicode="&#x136;" horiz-adv-x="1366" 
d="M1487 1434l-887 -725l578 -709h-244l-498 575l-88 -73l-106 -502h-195l303 1434h195l-144 -680l844 680h242zM436 -184h189l-201 -365h-148z" />
    <glyph glyph-name="uni0137" unicode="&#x137;" horiz-adv-x="1087" 
d="M694 0l-354 426l-64 -57l-77 -369h-189l318 1499h188l-192 -911l579 436h223l-616 -475l408 -549h-224zM301 -184h188l-200 -365h-148z" />
    <glyph glyph-name="Lacute" unicode="&#x139;" horiz-adv-x="1208" 
d="M547 1591h-187l287 334h191zM1028 182l-37 -182h-944l303 1434h195l-264 -1252h747z" />
    <glyph glyph-name="lacute" unicode="&#x13a;" horiz-adv-x="501" 
d="M532 1657h-184l285 334h192zM2 0l317 1499h191l-317 -1499h-191z" />
    <glyph glyph-name="uni013B" unicode="&#x13b;" horiz-adv-x="1208" 
d="M1030 182l-39 -182h-946l303 1434h197l-264 -1252h749zM362 -184h189l-199 -365h-149z" />
    <glyph glyph-name="uni013C" unicode="&#x13c;" horiz-adv-x="501" 
d="M2 0l317 1499h191l-317 -1499h-191zM-2 -184h190l-200 -365h-150z" />
    <glyph glyph-name="Lcaron" unicode="&#x13d;" horiz-adv-x="1208" 
d="M825 1460h187l-127 -411h-146zM1030 182l-39 -182h-946l303 1434h197l-264 -1252h749z" />
    <glyph glyph-name="lcaron" unicode="&#x13e;" horiz-adv-x="501" 
d="M2 0l317 1499h191l-317 -1499h-191zM594 1499h149l-86 -412h-151z" />
    <glyph glyph-name="Ldot" unicode="&#x13f;" horiz-adv-x="1220" 
d="M1030 182l-39 -182h-946l303 1434h197l-264 -1252h749zM795 606q-58 0 -86.5 36t-16.5 95q12 58 55.5 94.5t102.5 36.5q58 0 87 -36t17 -95q-12 -58 -56 -94.5t-103 -36.5z" />
    <glyph glyph-name="ldot" unicode="&#x140;" horiz-adv-x="501" 
d="M2 0l317 1499h191l-317 -1499h-191zM580 608q-53 0 -81 35.5t-18 87.5q10 51 54.5 87t95.5 36t79 -36t17 -87q-10 -52 -53.5 -87.5t-93.5 -35.5z" />
    <glyph glyph-name="Lslash" unicode="&#x141;" horiz-adv-x="1255" 
d="M1077 182l-39 -182h-946l109 518l-258 -121l37 172l258 121l157 744h197l-135 -641l571 266l-35 -172l-573 -266l-92 -439h749z" />
    <glyph glyph-name="lslash" unicode="&#x142;" horiz-adv-x="706" 
d="M426 752l-160 -752h-188l135 647l-225 -108l37 163l225 109l145 688h189l-123 -584l272 132l-35 -164z" />
    <glyph glyph-name="Nacute" unicode="&#x143;" horiz-adv-x="1609" 
d="M1020 1591h-186l286 334h191zM1565 1434l-303 -1434h-185l-602 1112l-235 -1112h-195l303 1434h184l603 -1112l235 1112h195z" />
    <glyph glyph-name="nacute" unicode="&#x144;" horiz-adv-x="1236" 
d="M774 1194h-186l286 334h191zM768 1051q159 0 247 -112t56 -271l-141 -668h-191l129 608q23 111 -39 190.5t-174 80.5q-112 0 -207 -80t-118 -191l-129 -608h-191l217 1024h187l-39 -182q67 95 173.5 152t219.5 57z" />
    <glyph glyph-name="uni0145" unicode="&#x145;" horiz-adv-x="1609" 
d="M1565 1434l-303 -1434h-189l-596 1116l-237 -1116h-195l303 1434h189l596 -1117l237 1117h195zM520 -184h189l-201 -365h-148z" />
    <glyph glyph-name="uni0146" unicode="&#x146;" horiz-adv-x="1236" 
d="M768 1051q159 0 247 -112t56 -271l-141 -668h-191l129 608q23 111 -39 190.5t-174 80.5q-112 0 -207 -80t-118 -191l-129 -608h-191l217 1024h187l-39 -182q67 95 173.5 152t219.5 57zM334 -184h188l-200 -365h-148z" />
    <glyph glyph-name="Ncaron" unicode="&#x147;" horiz-adv-x="1609" 
d="M897 1591l-221 334h190l148 -225l241 225h193l-363 -334h-188zM1565 1434l-303 -1434h-185l-602 1112l-235 -1112h-195l303 1434h184l603 -1112l235 1112h195z" />
    <glyph glyph-name="ncaron" unicode="&#x148;" horiz-adv-x="1236" 
d="M1182 1528l-363 -334h-188l-221 334h190l148 -225l241 225h193zM768 1051q159 0 247 -112t56 -271l-141 -668h-191l129 608q23 111 -39 190.5t-174 80.5q-112 0 -207 -80t-118 -191l-129 -608h-191l217 1024h187l-39 -182q67 95 173.5 152t219.5 57z" />
    <glyph glyph-name="Eng" unicode="&#x14a;" horiz-adv-x="1609" 
d="M1565 1434l-322 -1518q-29 -135 -116.5 -204.5t-227.5 -69.5h-145l34 168h107q130 0 160 124l16 72l-596 1106l-235 -1112h-195l303 1434h184l603 -1112l235 1112h195z" />
    <glyph glyph-name="eng" unicode="&#x14b;" horiz-adv-x="1236" 
d="M768 1051q159 0 247 -112t56 -271l-166 -777q-29 -122 -116 -185.5t-222 -63.5h-145l35 168h106q135 0 162 127l143 671q23 111 -39 190.5t-174 80.5q-112 0 -207 -80t-118 -191l-129 -608h-191l217 1024h187l-39 -182q67 95 173.5 152t219.5 57z" />
    <glyph glyph-name="Omacron" unicode="&#x14c;" horiz-adv-x="1714" 
d="M764 1802h647l-31 -151h-647zM119 717q42 208 174.5 379t323.5 268.5t399 95.5q125 1 232 -35.5t181.5 -103t123.5 -159.5t58 -205t-16 -240q-32 -156 -117.5 -294.5t-204 -237.5t-268 -156t-305.5 -56q-125 -1 -232 35.5t-182 103t-124 160t-58.5 205.5t15.5 240z
M1391 717q34 160 -7.5 288t-148 199.5t-258.5 71.5q-231 0 -414.5 -158t-236.5 -401q-52 -244 64.5 -400.5t348.5 -156.5q152 0 288.5 70.5t233 198t130.5 288.5z" />
    <glyph glyph-name="omacron" unicode="&#x14d;" horiz-adv-x="1280" 
d="M463 1405h647l-31 -152h-647zM481 -27q-159 0 -268.5 71.5t-150.5 195.5t-7 278q50 234 235 389.5t427 155.5q161 0 269.5 -72.5t147 -195.5t5.5 -277q-51 -232 -234 -388.5t-424 -156.5zM518 145q157 0 276.5 106t153.5 267q34 163 -37.5 269t-228.5 106
q-158 0 -279 -106t-155 -269q-34 -164 38.5 -268.5t231.5 -104.5z" />
    <glyph glyph-name="Obreve" unicode="&#x14e;" horiz-adv-x="1714" 
d="M1042 1591q-144 0 -215 78.5t-45 206.5l4 12h152q-17 -78 19.5 -126t111.5 -48q76 0 133 48t74 126h151l-4 -12q-26 -128 -131 -206.5t-250 -78.5zM707 -27q-158 0 -284.5 56t-202 155.5t-104.5 235.5t7 297q44 211 176 381t322 266t401 96q210 0 359 -96t208 -266
t15 -381q-34 -158 -119.5 -296.5t-203.5 -236.5t-267.5 -154.5t-306.5 -56.5zM745 158q150 0 289 73t236 201.5t131 284.5q33 157 -9.5 285.5t-150.5 201t-258 72.5q-230 0 -418 -160t-239 -399q-34 -156 9 -284.5t151 -201.5t259 -73z" />
    <glyph glyph-name="obreve" unicode="&#x14f;" horiz-adv-x="1280" 
d="M485 1491h152q-17 -78 19 -126t112 -48q75 0 132.5 48t74.5 126h151q-29 -134 -134.5 -215.5t-250.5 -81.5t-215 81.5t-41 215.5zM481 -27q-159 0 -268.5 71.5t-150.5 195.5t-7 278q50 234 235 389.5t427 155.5q161 0 269.5 -72.5t147 -195.5t5.5 -277
q-51 -232 -234 -388.5t-424 -156.5zM518 145q157 0 276.5 106t153.5 267q34 163 -37.5 269t-228.5 106q-158 0 -279 -106t-155 -269q-34 -164 38.5 -268.5t231.5 -104.5z" />
    <glyph glyph-name="Ohungarumlaut" unicode="&#x150;" horiz-adv-x="1714" 
d="M1006 1925h190l-319 -334h-187zM1409 1925h190l-319 -334h-186zM119 717q42 208 174.5 379t323.5 268.5t399 95.5q125 1 232 -35.5t181.5 -103t123.5 -159.5t58 -205t-16 -240q-32 -156 -117.5 -294.5t-204 -237.5t-268 -156t-305.5 -56q-125 -1 -232 35.5t-182 103
t-124 160t-58.5 205.5t15.5 240zM1391 717q34 160 -7.5 288t-148 199.5t-258.5 71.5q-231 0 -414.5 -158t-236.5 -401q-52 -244 64.5 -400.5t348.5 -156.5q152 0 288.5 70.5t233 198t130.5 288.5z" />
    <glyph glyph-name="ohungarumlaut" unicode="&#x151;" horiz-adv-x="1280" 
d="M575 1194h-184l285 334h192zM973 1194h-187l287 334h191zM481 -27q-159 0 -268.5 71.5t-150.5 195.5t-7 278q50 234 235 389.5t427 155.5q161 0 269.5 -72.5t147 -195.5t5.5 -277q-51 -232 -234 -388.5t-424 -156.5zM518 145q157 0 276.5 106t153.5 267q34 163 -37.5 269
t-228.5 106q-158 0 -279 -106t-155 -269q-34 -164 38.5 -268.5t231.5 -104.5z" />
    <glyph glyph-name="OE" unicode="&#x152;" horiz-adv-x="2254" 
d="M2007 178l-37 -178h-1263q-214 0 -363.5 90t-209 253.5t-15.5 373.5q43 209 173.5 373.5t318.5 254.5t399 89h1243l-37 -179h-786l-95 -442h742l-37 -176h-742l-98 -459h807zM1006 182l227 1069h-262q-234 0 -414.5 -147t-230.5 -387q-52 -241 65.5 -388t351.5 -147h263z
" />
    <glyph glyph-name="oe" unicode="&#x153;" horiz-adv-x="2115" 
d="M1968 471h-840q-32 -149 49 -243.5t234 -94.5q109 0 211.5 44t171.5 120l86 -111q-88 -98 -224.5 -154.5t-285.5 -56.5q-144 0 -246.5 57.5t-152.5 160.5q-93 -103 -220 -161.5t-270 -58.5q-159 0 -268.5 71.5t-150.5 195.5t-7 278q50 234 235 389.5t427 155.5
q146 0 248 -59t149 -164q94 98 217.5 152.5t259.5 54.5q248 0 350 -153t27 -423zM1561 903q-143 0 -259 -90t-149 -221h655q27 139 -39 225t-208 86zM518 145q151 0 267.5 97.5t156.5 249.5q0 6 4 22l6 27q25 155 -47 253.5t-223 98.5q-158 0 -279 -106t-155 -269
q-34 -164 38.5 -268.5t231.5 -104.5z" />
    <glyph glyph-name="Racute" unicode="&#x154;" horiz-adv-x="1417" 
d="M903 1591h-184l285 334h192zM608 541h-256l-112 -535h-195l301 1428h639q121 0 211 -59.5t127.5 -162t11.5 -223.5q-33 -161 -160.5 -282t-285.5 -148l-62 -4l326 -543l-231 -12zM391 719h420q109 0 204 79t118 191q25 110 -36.5 188t-172.5 78h-418z" />
    <glyph glyph-name="racute" unicode="&#x155;" horiz-adv-x="811" 
d="M612 1194h-184l285 334h192zM754 1047q48 0 92 -15l-41 -178q-62 6 -125 6q-136 0 -235 -83.5t-130 -225.5l-116 -551h-189l217 1024h185l-41 -193q68 97 170.5 156.5t212.5 59.5z" />
    <glyph glyph-name="uni0156" unicode="&#x156;" horiz-adv-x="1417" 
d="M608 541h-256l-112 -535h-195l301 1428h639q121 0 211 -59.5t127.5 -162t11.5 -223.5q-33 -161 -160.5 -282t-285.5 -148l-62 -4l326 -543l-231 -12zM391 719h420q109 0 204 79t118 191q25 110 -36.5 188t-172.5 78h-418zM430 -184h188l-200 -365h-148z" />
    <glyph glyph-name="uni0157" unicode="&#x157;" horiz-adv-x="811" 
d="M754 1047q48 0 92 -15l-41 -178q-62 6 -125 6q-136 0 -235 -83.5t-130 -225.5l-116 -551h-189l217 1024h185l-41 -193q68 97 170.5 156.5t212.5 59.5zM-29 -184h189l-201 -365h-147z" />
    <glyph glyph-name="Rcaron" unicode="&#x158;" horiz-adv-x="1417" 
d="M780 1591l-221 334h193l147 -225l242 225h190l-362 -334h-189zM608 541h-256l-112 -535h-195l301 1428h639q121 0 211 -59.5t127.5 -162t11.5 -223.5q-33 -161 -160.5 -282t-285.5 -148l-62 -4l326 -543l-231 -12zM391 719h420q109 0 204 79t118 191q25 110 -36.5 188
t-172.5 78h-418z" />
    <glyph glyph-name="rcaron" unicode="&#x159;" horiz-adv-x="811" 
d="M981 1528l-363 -334h-188l-221 334h192l148 -225l242 225h190zM754 1047q48 0 92 -15l-41 -178q-62 6 -125 6q-136 0 -235 -83.5t-130 -225.5l-116 -551h-189l217 1024h185l-41 -193q68 97 170.5 156.5t212.5 59.5z" />
    <glyph glyph-name="Sacute" unicode="&#x15a;" horiz-adv-x="1282" 
d="M903 1591h-184l285 334h192zM508 -27q-210 0 -345 85t-173 239l160 104q40 -122 142.5 -185.5t258.5 -63.5t254.5 63.5t122.5 175.5q19 85 -30.5 137.5t-188.5 87.5l-199 50q-196 51 -273.5 146t-46.5 243q39 184 200 294.5t403 110.5q190 0 314.5 -70t162.5 -196
l-160 -107q-76 197 -356 197q-152 0 -246 -59t-117 -166q-18 -81 32 -132t195 -87l207 -54q192 -49 263 -143.5t40 -243.5q-40 -194 -206.5 -310t-413.5 -116z" />
    <glyph glyph-name="sacute" unicode="&#x15b;" horiz-adv-x="1036" 
d="M702 1194h-186l287 334h190zM373 -27q-149 0 -260 51t-158 140l117 125q43 -73 133 -115.5t203 -42.5q109 0 176.5 42t81.5 112q12 54 -20.5 87.5t-119.5 55.5l-190 49q-260 64 -215 275q31 143 158.5 227t318.5 84q135 0 234 -42.5t143 -119.5l-117 -125
q-99 129 -293 129q-108 0 -173.5 -38.5t-80.5 -108.5q-11 -53 21 -85.5t117 -54.5l190 -49q140 -36 191.5 -103.5t29.5 -172.5q-31 -148 -160 -234t-327 -86z" />
    <glyph glyph-name="Scircumflex" unicode="&#x15c;" horiz-adv-x="1282" 
d="M633 1591h-193l363 334h188l221 -334h-190l-148 224zM825 786q192 -49 263 -143.5t40 -243.5q-40 -194 -206.5 -310t-413.5 -116q-210 0 -345 85t-173 239l160 104q40 -122 142.5 -185.5t258.5 -63.5t254.5 63.5t122.5 175.5q19 85 -30.5 137.5t-188.5 87.5l-199 50
q-196 51 -273.5 146t-46.5 243q39 184 200 294.5t403 110.5q190 0 314.5 -70t162.5 -196l-160 -107q-76 197 -356 197q-152 0 -246 -59t-117 -166q-18 -81 32 -132t195 -87z" />
    <glyph glyph-name="scircumflex" unicode="&#x15d;" horiz-adv-x="1036" 
d="M428 1194h-190l362 334h188l222 -334h-193l-147 223zM639 569q140 -36 191.5 -103.5t29.5 -172.5q-31 -148 -160 -234t-327 -86q-149 0 -260 51t-158 140l117 125q43 -73 133 -115.5t203 -42.5q109 0 176.5 42t81.5 112q12 54 -20.5 87.5t-119.5 55.5l-190 49
q-260 64 -215 275q31 143 158.5 227t318.5 84q135 0 234 -42.5t143 -119.5l-117 -125q-99 129 -293 129q-108 0 -173.5 -38.5t-80.5 -108.5q-11 -53 21 -85.5t117 -54.5z" />
    <glyph glyph-name="Scedilla" unicode="&#x15e;" horiz-adv-x="1282" 
d="M594 -20l-197 -386h-192l223 383q-178 13 -291 97t-147 223l160 104q40 -122 142.5 -185.5t258.5 -63.5t254.5 63.5t122.5 175.5q19 85 -30.5 137.5t-188.5 87.5l-199 50q-196 51 -273.5 146t-46.5 243q39 184 200 294.5t403 110.5q190 0 314.5 -70t162.5 -196l-160 -107
q-76 197 -356 197q-152 0 -246 -59t-117 -166q-18 -81 32 -132t195 -87l207 -54q192 -49 263 -143.5t40 -243.5q-37 -177 -179 -288.5t-355 -130.5z" />
    <glyph glyph-name="scedilla" unicode="&#x15f;" horiz-adv-x="1036" 
d="M860 293q-28 -130 -134.5 -213t-272.5 -100l-195 -386h-192l221 386q-120 10 -207 58.5t-125 125.5l117 125q43 -73 133 -115.5t203 -42.5q109 0 176.5 42t81.5 112q12 54 -20.5 87.5t-119.5 55.5l-190 49q-260 64 -215 275q31 143 158.5 227t318.5 84q135 0 234 -42.5
t143 -119.5l-117 -125q-99 129 -293 129q-108 0 -173.5 -38.5t-80.5 -108.5q-11 -53 21 -85.5t117 -54.5l190 -49q140 -36 191.5 -103.5t29.5 -172.5z" />
    <glyph glyph-name="Scaron" unicode="&#x160;" horiz-adv-x="1282" 
d="M733 1591l-221 334h190l148 -225l242 225h192l-362 -334h-189zM825 786q192 -49 263 -143.5t40 -243.5q-40 -194 -206.5 -310t-413.5 -116q-210 0 -345 85t-173 239l160 104q40 -122 142.5 -185.5t258.5 -63.5t254.5 63.5t122.5 175.5q19 85 -30.5 137.5t-188.5 87.5
l-199 50q-196 51 -273.5 146t-46.5 243q39 184 200 294.5t403 110.5q190 0 314.5 -70t162.5 -196l-160 -107q-76 197 -356 197q-152 0 -246 -59t-117 -166q-18 -81 32 -132t195 -87z" />
    <glyph glyph-name="scaron" unicode="&#x161;" horiz-adv-x="1036" 
d="M528 1194l-221 334h193l147 -225l242 225h190l-362 -334h-189zM639 569q140 -36 191.5 -103.5t29.5 -172.5q-31 -148 -160 -234t-327 -86q-149 0 -260 51t-158 140l117 125q43 -73 133 -115.5t203 -42.5q109 0 176.5 42t81.5 112q12 54 -20.5 87.5t-119.5 55.5l-190 49
q-260 64 -215 275q31 143 158.5 227t318.5 84q135 0 234 -42.5t143 -119.5l-117 -125q-99 129 -293 129q-108 0 -173.5 -38.5t-80.5 -108.5q-11 -53 21 -85.5t117 -54.5z" />
    <glyph glyph-name="uni0162" unicode="&#x162;" horiz-adv-x="1241" 
d="M1343 1434l-36 -183h-473l-267 -1251h-16l-207 -406h-192l233 406l-12 6l264 1245h-473l37 183h1142z" />
    <glyph glyph-name="uni0163" unicode="&#x163;" horiz-adv-x="837" 
d="M473 856l-125 -592q-8 -39 13.5 -65.5t60.5 -26.5h223l-35 -172h-170l-200 -406h-170l217 412q-76 21 -114 85.5t-19 148.5l131 616h-209l37 170h209l67 320h189l-68 -320h315l-37 -170h-315z" />
    <glyph glyph-name="Tcaron" unicode="&#x164;" horiz-adv-x="1241" 
d="M713 1591l-221 334h190l147 -225l242 225h193l-363 -334h-188zM1343 1434l-36 -183h-473l-267 -1251h-196l266 1251h-473l37 183h1142z" />
    <glyph glyph-name="tcaron" unicode="&#x165;" horiz-adv-x="837" 
d="M799 1595h149l-88 -411h-149zM287 0q-76 0 -118.5 54.5t-27.5 131.5l144 670h-209l37 170h209l67 320h189l-68 -320h315l-37 -170h-315l-137 -655q-3 -12 2.5 -20.5t17.5 -8.5h289l-35 -172h-323z" />
    <glyph glyph-name="Tbar" unicode="&#x166;" horiz-adv-x="1241" 
d="M834 1251l-95 -438h289l-33 -158h-288l-140 -655h-196l139 655h-289l33 158h289l94 438h-473l37 183h1142l-36 -183h-473z" />
    <glyph glyph-name="tbar" unicode="&#x167;" horiz-adv-x="837" 
d="M788 856h-315l-47 -219h319l-34 -168h-320l-43 -205q-8 -39 13.5 -65.5t60.5 -26.5h223l-35 -172h-268q-100 0 -155 71t-33 169l49 229h-211l37 168h209l47 219h-209l37 170h209l67 320h189l-68 -320h315z" />
    <glyph glyph-name="Utilde" unicode="&#x168;" horiz-adv-x="1523" 
d="M1116 1620q-78 0 -158 72q-53 53 -102 53q-78 0 -102 -117h-142q28 127 89.5 194.5t148.5 67.5q76 0 156 -71q54 -54 104 -54q78 0 102 117h142q-28 -128 -89.5 -195t-148.5 -67zM610 -27q-257 0 -385 160t-73 422l186 879h197l-189 -889q-38 -182 45 -283.5t260 -101.5
q182 0 304.5 100.5t162.5 284.5l189 889h196l-186 -879q-55 -263 -249.5 -422.5t-457.5 -159.5z" />
    <glyph glyph-name="utilde" unicode="&#x169;" horiz-adv-x="1224" 
d="M721 1294q-54 54 -103 54q-78 0 -102 -117h-141q28 126 90 194t147 68q43 0 79 -17t79 -55q50 -53 102 -53q78 0 105 117h139q-28 -128 -89 -195t-148 -67q-79 0 -158 71zM1133 1024l-218 -1024h-184l37 182q-65 -94 -172.5 -151.5t-220.5 -57.5q-158 0 -246.5 112.5
t-54.5 270.5l141 668h191l-130 -606q-25 -112 37.5 -191.5t173.5 -79.5q113 0 209 79.5t119 191.5l129 606h189z" />
    <glyph glyph-name="Umacron" unicode="&#x16a;" horiz-adv-x="1523" 
d="M670 1802h647l-33 -151h-647zM610 -27q-257 0 -385 160t-73 422l186 879h197l-189 -889q-38 -182 45 -283.5t260 -101.5q182 0 304.5 100.5t162.5 284.5l189 889h196l-186 -879q-55 -263 -249.5 -422.5t-457.5 -159.5z" />
    <glyph glyph-name="umacron" unicode="&#x16b;" horiz-adv-x="1224" 
d="M432 1405h647l-30 -152h-648zM1133 1024l-218 -1024h-184l37 182q-65 -94 -172.5 -151.5t-220.5 -57.5q-158 0 -246.5 112.5t-54.5 270.5l141 668h191l-130 -606q-25 -112 37.5 -191.5t173.5 -79.5q113 0 209 79.5t119 191.5l129 606h189z" />
    <glyph glyph-name="Ubreve" unicode="&#x16c;" horiz-adv-x="1523" 
d="M948 1591q-145 0 -216.5 78.5t-43.5 206.5l2 12h152q-17 -78 19.5 -126t113.5 -48q75 0 131.5 48t73.5 126h151l-2 -12q-28 -128 -132.5 -206.5t-248.5 -78.5zM610 -27q-257 0 -385 160t-73 422l186 879h197l-189 -889q-38 -182 45 -283.5t260 -101.5q182 0 304.5 100.5
t162.5 284.5l189 889h196l-186 -879q-55 -263 -249.5 -422.5t-457.5 -159.5z" />
    <glyph glyph-name="ubreve" unicode="&#x16d;" horiz-adv-x="1224" 
d="M455 1491h151q-17 -78 19 -126t112 -48q75 0 132.5 48t74.5 126h152l-4 -12q-26 -128 -131 -206.5t-250 -78.5q-144 0 -215 78.5t-45 206.5zM1133 1024l-218 -1024h-184l37 182q-65 -94 -172.5 -151.5t-220.5 -57.5q-158 0 -246.5 112.5t-54.5 270.5l141 668h191
l-130 -606q-25 -112 37.5 -191.5t173.5 -79.5q113 0 209 79.5t119 191.5l129 606h189z" />
    <glyph glyph-name="Uring" unicode="&#x16e;" horiz-adv-x="1523" 
d="M946 1581q-112 0 -171.5 72t-37.5 176q22 103 112 174.5t202 71.5t171.5 -71t37.5 -175t-112 -176t-202 -72zM969 1692q64 0 109 37.5t59 99.5q13 61 -16.5 98t-92.5 37q-64 0 -109 -36.5t-59 -98.5t16 -99.5t93 -37.5zM610 -27q-257 0 -385 160t-73 422l186 879h197
l-189 -889q-38 -182 45 -283.5t260 -101.5q182 0 304.5 100.5t162.5 284.5l189 889h196l-186 -879q-55 -263 -249.5 -422.5t-457.5 -159.5z" />
    <glyph glyph-name="uring" unicode="&#x16f;" horiz-adv-x="1224" 
d="M500 1432q23 104 112.5 174.5t200.5 70.5q112 0 172 -71t37 -174q-22 -104 -112 -176t-201 -72q-112 0 -171.5 72t-37.5 176zM899 1432q14 62 -15 98.5t-93 36.5q-63 0 -109 -37t-59 -98q-12 -62 17 -100t91 -38q64 0 110 38t58 100zM1133 1024l-218 -1024h-184l37 182
q-65 -94 -172.5 -151.5t-220.5 -57.5q-158 0 -246.5 112.5t-54.5 270.5l141 668h191l-130 -606q-25 -112 37.5 -191.5t173.5 -79.5q113 0 209 79.5t119 191.5l129 606h189z" />
    <glyph glyph-name="Uhungarumlaut" unicode="&#x170;" horiz-adv-x="1523" 
d="M911 1925h191l-320 -334h-186zM1313 1925h190l-319 -334h-187zM610 -27q-257 0 -385 160t-73 422l186 879h197l-189 -889q-38 -182 45 -283.5t260 -101.5q182 0 304.5 100.5t162.5 284.5l189 889h196l-186 -879q-55 -263 -249.5 -422.5t-457.5 -159.5z" />
    <glyph glyph-name="uhungarumlaut" unicode="&#x171;" horiz-adv-x="1224" 
d="M545 1194h-185l285 334h193zM973 1194h-185l285 334h193zM1133 1024l-218 -1024h-184l37 182q-65 -94 -172.5 -151.5t-220.5 -57.5q-158 0 -246.5 112.5t-54.5 270.5l141 668h191l-130 -606q-25 -112 37.5 -191.5t173.5 -79.5q113 0 209 79.5t119 191.5l129 606h189z" />
    <glyph glyph-name="Uogonek" unicode="&#x172;" horiz-adv-x="1523" 
d="M1307 1434h196l-186 -879q-42 -201 -167.5 -343.5t-305.5 -201.5h2q-109 -61 -163 -111t-65 -98q-11 -46 20.5 -69t106.5 -23h37l-28 -137h-72q-131 0 -189.5 50t-39.5 138q24 119 163 213h-6q-257 0 -385 160t-73 422l186 879h197l-189 -889q-38 -182 45 -283.5
t260 -101.5q182 0 304.5 100.5t162.5 284.5z" />
    <glyph glyph-name="uogonek" unicode="&#x173;" horiz-adv-x="1224" 
d="M944 1024h189l-215 -1016l-15 -8q-109 -60 -159.5 -109t-61.5 -100q-9 -46 22 -68t105 -22h39l-29 -137h-71q-133 0 -191.5 49t-40.5 137q35 148 232 254l-15 8l35 170q-65 -94 -172.5 -151.5t-220.5 -57.5q-158 0 -246.5 112.5t-54.5 270.5l141 668h191l-130 -606
q-25 -112 37.5 -191.5t173.5 -79.5q113 0 209 79.5t119 191.5z" />
    <glyph glyph-name="Wcircumflex" unicode="&#x174;" horiz-adv-x="2131" 
d="M1057 1591h-191l363 334h188l221 -334h-192l-146 224zM2032 1434h209l-746 -1434h-223l-127 1057l-578 -1057h-219l-145 1434h207l114 -1164l647 1164h103l153 -1170z" />
    <glyph glyph-name="wcircumflex" unicode="&#x175;" horiz-adv-x="1718" 
d="M766 1194h-191l363 334h188l222 -334h-193l-147 223zM1743 1024l-561 -1024h-211l-99 784l-432 -784h-209l-127 1024h195l94 -797l443 797h174l106 -797l432 797h195z" />
    <glyph glyph-name="Ycircumflex" unicode="&#x176;" horiz-adv-x="1302" 
d="M643 1591h-192l362 334h188l222 -334h-191l-147 224zM1466 1434l-737 -850l-123 -584h-198l122 584l-370 850h225l285 -662l571 662h225z" />
    <glyph glyph-name="ycircumflex" unicode="&#x177;" horiz-adv-x="1107" 
d="M463 1194h-193l363 334h188l221 -334h-190l-147 223zM1145 1036l-731 -1192q-88 -143 -184 -198.5t-250 -55.5h-175l35 170h144q105 0 161 30t107 114l63 100l-213 1032h205l152 -811l481 811h205z" />
    <glyph glyph-name="Ydieresis" unicode="&#x178;" horiz-adv-x="1302" 
d="M616 1645q-55 0 -81.5 33.5t-14.5 86.5q10 54 52 87.5t96 33.5q55 0 82 -33.5t16 -87.5q-12 -53 -54 -86.5t-96 -33.5zM1081 1645q-55 0 -81.5 33.5t-14.5 86.5q10 54 52 87.5t96 33.5q55 0 82 -33.5t16 -87.5q-12 -53 -54 -86.5t-96 -33.5zM1466 1434l-737 -850
l-123 -584h-198l122 584l-370 850h225l285 -662l571 662h225z" />
    <glyph glyph-name="Zacute" unicode="&#x179;" horiz-adv-x="1241" 
d="M840 1591h-187l316 334h223zM1036 178l-37 -178h-1060l30 150l1028 1107h-776l37 177h1034l-30 -148l-1029 -1108h803z" />
    <glyph glyph-name="zacute" unicode="&#x17a;" horiz-adv-x="1007" 
d="M678 1194h-186l286 334h191zM799 162l-35 -162h-827l24 127l735 747h-557l35 162h803l-27 -125l-733 -749h582z" />
    <glyph glyph-name="Zdotaccent" unicode="&#x17b;" horiz-adv-x="1241" 
d="M821 1645q-56 0 -83 33t-15 87q11 54 52.5 87.5t98.5 33.5q56 0 83.5 -33.5t17.5 -87.5q-12 -54 -54.5 -87t-99.5 -33zM1036 178l-37 -178h-1060l30 150l1028 1107h-776l37 177h1034l-30 -148l-1029 -1108h803z" />
    <glyph glyph-name="zdotaccent" unicode="&#x17c;" horiz-adv-x="1007" 
d="M618 1247q-51 0 -79 36t-19 87q12 51 56 87t96 36q50 0 78 -36t16 -87q-9 -51 -53 -87t-95 -36zM799 162l-35 -162h-827l24 127l735 747h-557l35 162h803l-27 -125l-733 -749h582z" />
    <glyph glyph-name="Zcaron" unicode="&#x17d;" horiz-adv-x="1241" 
d="M717 1591l-221 334h190l148 -225l241 225h193l-363 -334h-188zM1036 178l-37 -178h-1060l30 150l1028 1107h-776l37 177h1034l-30 -148l-1029 -1108h803z" />
    <glyph glyph-name="zcaron" unicode="&#x17e;" horiz-adv-x="1007" 
d="M1065 1528l-363 -334h-188l-221 334h190l148 -225l241 225h193zM799 162l-35 -162h-827l24 127l735 747h-557l35 162h803l-27 -125l-733 -749h582z" />
    <glyph glyph-name="uni01CD" unicode="&#x1cd;" horiz-adv-x="1427" 
d="M815 1591l-221 334h192l148 -225l242 225h190l-362 -334h-189zM961 334l-670 2l-205 -336h-209l875 1434h202l279 -1434h-209zM934 506l-117 727l-428 -727h545z" />
    <glyph glyph-name="uni01CE" unicode="&#x1ce;" horiz-adv-x="1120" 
d="M639 1194l-221 334h192l148 -225l241 225h191l-363 -334h-188zM844 0h-162l43 201q-61 -103 -171 -162t-249 -59q-169 0 -249.5 88.5t-49.5 232.5q21 99 90 169.5t172 105t236 43t282 -16.5l17 84q21 102 -30.5 156.5t-158.5 54.5q-93 0 -180.5 -37.5t-154.5 -107.5
l-82 106q79 85 207.5 137t254.5 52q189 0 275.5 -104t48.5 -284zM764 489q-236 39 -389 -7t-180 -171q-19 -89 29.5 -139.5t154.5 -50.5q142 0 241 79.5t128 219.5z" />
    <glyph glyph-name="uni01E2" unicode="&#x1e2;" horiz-adv-x="2222" 
d="M1980 1651h-647l33 151h647zM1974 182l-37 -182h-1003l74 346h-602l-302 -346h-235l1253 1434h1098l-39 -181h-786l-92 -438h745l-39 -180h-745l-97 -453h807zM1042 510l160 758l-663 -758h503z" />
    <glyph glyph-name="uni01E3" unicode="&#x1e3;" horiz-adv-x="1937" 
d="M1460 1405l-30 -152h-648l31 152h647zM1790 471h-840q-32 -149 49 -243.5t234 -94.5q109 0 211.5 44t171.5 120l86 -111q-88 -98 -224.5 -154.5t-285.5 -56.5t-253.5 60.5t-150.5 169.5q-98 -114 -225 -169.5t-258 -55.5q-169 0 -249.5 88.5t-49.5 232.5q21 99 90 169.5
t172 105t236 43t282 -16.5l17 84q21 102 -30.5 156.5t-158.5 54.5q-93 0 -180.5 -37.5t-154.5 -107.5l-82 106q79 85 207.5 137t254.5 52q122 0 203 -44t113 -126q89 81 202 125.5t236 44.5q248 0 350 -153t27 -423zM1382 903q-143 0 -258.5 -90t-148.5 -221h655
q27 139 -39.5 225t-208.5 86zM379 121q149 0 244 77.5t122 209.5l17 69q0 8 2 12q-236 39 -389 -7t-180 -171q-19 -89 29.5 -139.5t154.5 -50.5z" />
    <glyph glyph-name="Gcaron" unicode="&#x1e6;" horiz-adv-x="1597" 
d="M934 1591l-221 334h190l148 -225l241 225h193l-363 -334h-188zM1487 770l-115 -532q-292 -267 -676 -267q-135 2 -244.5 39.5t-181.5 104.5t-116.5 159.5t-49.5 203.5t19 237q44 210 168 378t312.5 266.5t408.5 98.5q195 0 333 -85.5t199 -237.5l-186 -111
q-38 121 -137 185.5t-248 64.5q-236 0 -416.5 -158.5t-230.5 -400.5q-35 -158 2 -283.5t142.5 -199t264.5 -76.5q279 0 473 159l62 291h-361l35 164h543z" />
    <glyph glyph-name="gcaron" unicode="&#x1e7;" horiz-adv-x="1327" 
d="M1223 1528l-363 -334h-188l-221 334h190l147 -225l242 225h193zM1231 1028l-201 -944q-50 -230 -229.5 -378t-411.5 -148q-144 0 -265 63.5t-171 163.5l117 131q44 -85 139.5 -138.5t202.5 -53.5q154 0 279 100t163 278l31 146q-67 -107 -193 -173.5t-260 -66.5
q-216 0 -319 147t-52 382q47 225 212 367.5t380 142.5q137 0 229.5 -60.5t114.5 -161.5l43 203h191zM520 174q151 0 269.5 102t152.5 261q34 158 -40.5 260t-225.5 102q-154 0 -272 -101t-152 -261q-34 -163 40 -263t228 -100z" />
    <glyph glyph-name="uni01E8" unicode="&#x1e8;" horiz-adv-x="1366" 
d="M1378 1925l-362 -334h-189l-221 334h193l147 -225l242 225h190zM1487 1434l-887 -725l578 -709h-244l-498 575l-88 -73l-106 -502h-195l303 1434h195l-144 -680l844 680h242z" />
    <glyph glyph-name="uni01E9" unicode="&#x1e9;" horiz-adv-x="1085" 
d="M362 1657l-221 334h191l147 -226l242 226h192l-362 -334h-189zM694 0l-354 426l-64 -57l-77 -369h-189l318 1499h188l-192 -911l579 436h223l-616 -475l408 -549h-224z" />
    <glyph glyph-name="AEacute" unicode="&#x1fc;" horiz-adv-x="2222" 
d="M1673 1591h-186l287 334h190zM1974 182l-37 -182h-1003l74 346h-602l-302 -346h-235l1253 1434h1098l-39 -181h-786l-92 -438h745l-39 -180h-745l-97 -453h807zM1042 510l160 758l-663 -758h503z" />
    <glyph glyph-name="aeacute" unicode="&#x1fd;" horiz-adv-x="1937" 
d="M1554 1528l-292 -334h-185l285 334h192zM1790 471h-840q-32 -149 49 -243.5t234 -94.5q109 0 211.5 44t171.5 120l86 -111q-88 -98 -224.5 -154.5t-285.5 -56.5t-253.5 60.5t-150.5 169.5q-98 -114 -225 -169.5t-258 -55.5q-169 0 -249.5 88.5t-49.5 232.5
q21 99 90 169.5t172 105t236 43t282 -16.5l17 84q21 102 -30.5 156.5t-158.5 54.5q-93 0 -180.5 -37.5t-154.5 -107.5l-82 106q79 85 207.5 137t254.5 52q122 0 203 -44t113 -126q89 81 202 125.5t236 44.5q248 0 350 -153t27 -423zM1382 903q-143 0 -258.5 -90t-148.5 -221
h655q27 139 -39.5 225t-208.5 86zM379 121q149 0 244 77.5t122 209.5l17 69q0 8 2 12q-236 39 -389 -7t-180 -171q-19 -89 29.5 -139.5t154.5 -50.5z" />
    <glyph glyph-name="Oslashacute" unicode="&#x1fe;" horiz-adv-x="1714" 
d="M1104 1591h-184l284 334h193zM1595 717q-32 -156 -117.5 -294.5t-204 -237.5t-268 -156t-305.5 -56q-279 0 -436 168l-186 -155l-84 106l184 152q-118 197 -59 473q42 208 174.5 379t323.5 268.5t399 95.5q276 0 436 -166l188 154l82 -102l-184 -154q115 -204 57 -475z
M326 717q-43 -187 30 -332l930 768q-114 123 -309 123q-231 0 -414.5 -158t-236.5 -401zM1391 717q40 190 -33 330l-930 -766q112 -121 311 -121q152 0 288.5 70.5t233 198t130.5 288.5z" />
    <glyph glyph-name="oslashacute" unicode="&#x1ff;" horiz-adv-x="1288" 
d="M770 1194h-184l315 334h221zM1110 862q78 -142 35 -344q-52 -238 -234 -391.5t-424 -153.5q-200 0 -319 113l-154 -127l-71 90l153 125q-81 144 -35 344q50 239 232 392t424 153q202 0 321 -113l152 127l72 -90zM684 903q-162 0 -282.5 -105.5t-157.5 -279.5
q-28 -135 16 -221l637 524q-73 82 -213 82zM520 133q161 0 282.5 106t158.5 279q27 130 -15 221l-637 -524q73 -82 211 -82z" />
    <glyph glyph-name="uni0218" unicode="&#x218;" horiz-adv-x="1282" 
d="M508 -27q-210 0 -345 85t-173 239l160 104q40 -122 142.5 -185.5t258.5 -63.5t254.5 63.5t122.5 175.5q19 85 -30.5 137.5t-188.5 87.5l-199 50q-196 51 -273.5 146t-46.5 243q39 184 200 294.5t403 110.5q190 0 314.5 -70t162.5 -196l-160 -107q-76 197 -356 197
q-152 0 -246 -59t-117 -166q-18 -81 32 -132t195 -87l207 -54q192 -49 263 -143.5t40 -243.5q-40 -194 -206.5 -310t-413.5 -116zM377 -184h188l-198 -365h-150z" />
    <glyph glyph-name="uni0219" unicode="&#x219;" horiz-adv-x="1036" 
d="M373 -27q-149 0 -260 51t-158 140l117 125q43 -73 133 -115.5t203 -42.5q109 0 176.5 42t81.5 112q12 54 -20.5 87.5t-119.5 55.5l-190 49q-260 64 -215 275q31 143 158.5 227t318.5 84q135 0 234 -42.5t143 -119.5l-117 -125q-99 129 -293 129q-108 0 -173.5 -38.5
t-80.5 -108.5q-11 -53 21 -85.5t117 -54.5l190 -49q140 -36 191.5 -103.5t29.5 -172.5q-31 -148 -160 -234t-327 -86zM238 -184h188l-201 -365h-147z" />
    <glyph glyph-name="uni021A" unicode="&#x21a;" horiz-adv-x="1241" 
d="M637 1251h-473l37 183h1142l-36 -183h-473l-267 -1251h-196zM324 -184h188l-201 -365h-147z" />
    <glyph glyph-name="uni021B" unicode="&#x21b;" horiz-adv-x="837" 
d="M287 868h-209l35 168h211l65 310h189l-66 -310h315l-36 -168h-314l-119 -557q-15 -74 13 -107.5t104 -33.5h172l-35 -170h-221q-148 0 -203.5 66.5t-25.5 212.5zM219 -184h146l-158 -365h-148z" />
    <glyph glyph-name="uni0237" unicode="&#x237;" horiz-adv-x="518" 
d="M-283 -242h107q136 0 166 140l239 1126h191l-248 -1159q-28 -135 -115.5 -205t-228.5 -70h-145z" />
    <glyph glyph-name="circumflex" unicode="&#x2c6;" horiz-adv-x="1269" 
d="M932 1194l-148 223l-241 -223h-193l363 334h188l221 -334h-190z" />
    <glyph glyph-name="caron" unicode="&#x2c7;" horiz-adv-x="1269" 
d="M1194 1528l-363 -334h-188l-221 334h190l148 -225l241 225h193z" />
    <glyph glyph-name="breve" unicode="&#x2d8;" horiz-adv-x="1269" 
d="M737 1194q-155 0 -222 74t-38 211l2 12h152q-19 -89 13 -131.5t118 -42.5q87 0 137.5 42.5t69.5 131.5h151l-2 -12q-29 -137 -127.5 -211t-253.5 -74z" />
    <glyph glyph-name="dotaccent" unicode="&#x2d9;" horiz-adv-x="1269" 
d="M748 1247q-56 0 -83.5 33.5t-17.5 87.5q12 55 54.5 88t99.5 33q56 0 83 -33t15 -88q-11 -54 -52.5 -87.5t-98.5 -33.5z" />
    <glyph glyph-name="ring" unicode="&#x2da;" horiz-adv-x="1269" 
d="M735 1184q-112 0 -171.5 72t-37.5 176q22 103 112 174t202 71t171.5 -71t37.5 -174q-22 -104 -112 -176t-202 -72zM758 1294q63 0 109.5 38t58.5 100t-17 98.5t-92 36.5q-65 0 -110.5 -37t-57.5 -98q-12 -62 16.5 -100t92.5 -38z" />
    <glyph glyph-name="ogonek" unicode="&#x2db;" horiz-adv-x="1269" 
d="M500 -436h-72q-132 0 -190.5 49t-40.5 137q20 90 104.5 167t218.5 126l72 -43q-112 -61 -165.5 -110t-64.5 -99q-9 -46 22 -68t105 -22h39z" />
    <glyph glyph-name="tilde" unicode="&#x2dc;" horiz-adv-x="1269" 
d="M905 1223q-81 0 -160 71q-51 54 -100 54q-77 0 -104 -117h-140q28 127 89.5 194.5t148.5 67.5q75 0 156 -72q53 -53 104 -53q78 0 102 117h142q-27 -127 -89.5 -194.5t-148.5 -67.5z" />
    <glyph glyph-name="hungarumlaut" unicode="&#x2dd;" horiz-adv-x="1269" 
d="M754 1528h190l-319 -334h-187zM1155 1528h191l-320 -334h-186z" />
    <glyph glyph-name="gravecomb" unicode="&#x300;" 
d="M-621 1194l-210 334h223l174 -334h-187z" />
    <glyph glyph-name="acutecomb" unicode="&#x301;" 
d="M-315 1528h223l-352 -334h-187z" />
    <glyph glyph-name="uni0302" unicode="&#x302;" 
d="M-340 1194l-147 223l-242 -223h-191l363 334h188l222 -334h-193z" />
    <glyph glyph-name="tildecomb" unicode="&#x303;" 
d="M-367 1223q-78 0 -157 71q-54 54 -103 54q-78 0 -102 -117h-141q28 126 90 194t147 68q43 0 79 -17t79 -55q50 -53 102 -53q78 0 105 117h139q-28 -128 -89.5 -195t-148.5 -67z" />
    <glyph glyph-name="uni0304" unicode="&#x304;" 
d="M-813 1405h647l-31 -152h-647z" />
    <glyph glyph-name="uni0306" unicode="&#x306;" 
d="M-535 1194q-155 0 -222 74t-38 211l4 12h152q-20 -89 12 -131.5t119 -42.5q86 0 136.5 42.5t70.5 131.5h151l-4 -12q-29 -137 -127.5 -211t-253.5 -74z" />
    <glyph glyph-name="uni0307" unicode="&#x307;" 
d="M-522 1247q-57 0 -85 33.5t-16 87.5q12 55 54 88t98 33q57 0 84.5 -33t15.5 -88q-12 -54 -54 -87.5t-97 -33.5z" />
    <glyph glyph-name="uni0308" unicode="&#x308;" 
d="M-756 1247q-54 0 -80.5 34t-15.5 87q10 54 52 87.5t98 33.5q54 0 80.5 -33.5t15.5 -87.5q-11 -53 -53 -87t-97 -34zM-291 1247q-54 0 -80.5 34t-15.5 87q10 54 51.5 87.5t97.5 33.5q54 0 81 -33.5t16 -87.5q-11 -53 -53 -87t-97 -34z" />
    <glyph glyph-name="uni030A" unicode="&#x30a;" 
d="M-537 1184q-111 0 -170.5 72t-37.5 176q23 104 112.5 174.5t200.5 70.5q112 0 172 -71t37 -174q-22 -104 -112 -176t-202 -72zM-514 1294q64 0 110 38t58 100q14 62 -15.5 98.5t-93.5 36.5q-63 0 -109 -37t-59 -98q-12 -62 17.5 -100t91.5 -38z" />
    <glyph glyph-name="uni030B" unicode="&#x30b;" 
d="M-518 1528h190l-319 -334h-187zM-115 1528h191l-320 -334h-186z" />
    <glyph glyph-name="uni030C" unicode="&#x30c;" 
d="M-78 1528l-362 -334h-189l-221 334h193l147 -225l242 225h190z" />
    <glyph glyph-name="uni0312" unicode="&#x312;" 
 />
    <glyph glyph-name="uni0315" unicode="&#x315;" 
d="M-551 1559h186l-127 -412h-145z" />
    <glyph glyph-name="uni0326" unicode="&#x326;" 
d="M-922 -184h189l-199 -365h-149z" />
    <glyph glyph-name="uni0327" unicode="&#x327;" 
d="M-850 18h162l-215 -424h-193z" />
    <glyph glyph-name="uni0328" unicode="&#x328;" 
d="M-772 -436h-72q-131 0 -189.5 49t-39.5 137q19 89 103.5 166.5t217.5 126.5l74 -43q-113 -62 -166.5 -111t-62.5 -98q-9 -47 19 -68.5t102 -21.5h43z" />
    <glyph glyph-name="uni060C" unicode="&#x60c;" horiz-adv-x="466" 
d="M416 -4h-191l15 582h153z" />
    <glyph glyph-name="uni0615" unicode="&#x615;" 
d="M602 1565l25 -121h-439l-16 84h70l-70 334h82l43 -199q53 74 125 74q143 0 180 -172zM528 1528l-10 43q-18 82 -88 82q-63 0 -113 -78l11 -47h200z" />
    <glyph glyph-name="uni061B" unicode="&#x61b;" horiz-adv-x="495" 
d="M324 727h-191l14 580h156zM465 152q20 -52 3.5 -87.5t-65.5 -44.5q-50 -9 -89.5 14t-59.5 75q-21 49 -5.5 85.5t64.5 45.5q50 9 91 -15t61 -73z" />
    <glyph glyph-name="uni061F" unicode="&#x61f;" horiz-adv-x="944" 
d="M645 563l51 -123h-180l-45 111q-29 69 -59.5 100.5t-118.5 87.5l-121 74q-126 77 -196.5 150t-106.5 159q-65 154 3.5 246t240.5 92q153 0 305 -75.5t274 -210.5l-100 -91q-96 102 -201.5 156.5t-204.5 54.5q-93 0 -130 -46.5t-1 -129.5q44 -103 185 -190l127 -78
q140 -87 186 -134.5t92 -152.5zM864 96q11 -51 -14.5 -74.5t-79.5 -13.5q-56 9 -94 44t-49 87q-13 51 12 74t82 14q52 -9 90.5 -44.5t52.5 -86.5z" />
    <glyph glyph-name="uni0621" unicode="&#x621;" horiz-adv-x="1228" 
d="M1190 176l37 -176h-983l-37 174h242q-152 101 -189 262l-12 64q-25 118 14.5 217.5t129 157t206.5 57.5q86 0 173.5 -35.5t160.5 -97.5q85 -73 137 -172l-133 -86q-29 70 -78 116q-96 99 -223 99q-108 0 -170 -75.5t-39 -184.5l12 -58q23 -109 119 -185.5t207 -76.5h426z
" />
    <glyph glyph-name="uni0622" unicode="&#x622;" horiz-adv-x="544" 
d="M-166 1659l-65 61l110 92q10 8 25.5 6t27.5 -12q36 -32 91 -47.5t110 -15.5q31 0 79.5 16t82.5 33l57 -90q-36 -24 -95.5 -43t-100.5 -19q-119 0 -226 74q-16 10 -26 0zM334 0l-303 1434h176l303 -1434h-176z" />
    <glyph glyph-name="uni0623" unicode="&#x623;" horiz-adv-x="503" 
d="M254 1645l20 -95h-391l-18 95h69q-43 43 -55 96q-9 74 32.5 123t113.5 49q65 0 121 -38.5t83 -96.5l-65 -47q-43 88 -119 88q-37 0 -56.5 -24.5t-11.5 -61.5q9 -33 37.5 -60.5t67.5 -27.5h172zM315 8l-303 1426h176l301 -1426h-174z" />
    <glyph glyph-name="uni0624" unicode="&#x624;" horiz-adv-x="1130" 
d="M770 1231l21 -94h-390l-20 94h70q-46 50 -54 96q-9 74 31.5 123t112.5 49q65 0 121 -38.5t83 -96.5l-65 -47q-43 88 -119 88q-37 0 -55.5 -24.5t-9.5 -61.5q7 -33 34.5 -60.5t67.5 -27.5h172zM944 963l205 -959q44 -211 -70 -340q-83 -97 -214 -130.5t-378 -33.5l-36 174
h75.5t73 2t80.5 6t71 12.5t73 20.5t58.5 31.5t53.5 44.5q54 63 39 170l-6 39h-250q-196 0 -360 141t-207 342q-27 133 10 242.5t130 173.5t224 64h428zM682 176h254l-131 610h-252q-125 0 -189 -86.5t-38 -216.5q28 -129 129.5 -218t226.5 -89z" />
    <glyph glyph-name="uni0625" unicode="&#x625;" horiz-adv-x="503" 
d="M315 8l-301 1419h174l301 -1419h-174zM692 -416l19 -92h-389l-19 92h70q-49 49 -54 99q-9 74 31.5 123t112.5 49q64 0 120 -39t85 -99l-66 -47q-42 88 -121 88q-36 0 -54 -24t-9 -62q7 -33 34.5 -60.5t67.5 -27.5h172z" />
    <glyph glyph-name="uni0626" unicode="&#x626;" horiz-adv-x="2056" 
d="M1882 963l201 -961h-176l-164 786h-344q-51 0 -80 -36.5t-19 -87.5l195 -912q13 -64 -23.5 -111t-99.5 -47h-516q-139 0 -272.5 69.5t-228 188.5t-124.5 259l-69 329h178l70 -329q31 -141 150.5 -240.5t258.5 -99.5h426q28 0 43 19t8 48l-174 828q-28 123 43 210t197 87
h520zM410 662l18 -93h-389l-19 93h70q-47 47 -55 98q-9 74 32 123t111 49q65 0 122 -38.5t85 -98.5l-66 -47q-42 88 -120 88q-36 0 -54.5 -24t-11.5 -62q7 -33 36 -60.5t69 -27.5h172z" />
    <glyph glyph-name="uni0627" unicode="&#x627;" horiz-adv-x="544" 
d="M336 0l-303 1434h176l303 -1434h-176z" />
    <glyph glyph-name="uni0628" unicode="&#x628;" horiz-adv-x="1734" 
d="M1552 952l168 -790q15 -72 -27 -124t-114 -52h-930q-166 0 -308.5 117.5t-176.5 281.5l-76 352h180l74 -352q20 -94 98 -158.5t172 -64.5h887q17 0 27.5 12t7.5 31l-160 747h178zM975 -315q-9 46 16.5 78t71.5 32t87 -32.5t50 -77.5q9 -46 -17.5 -79.5t-72.5 -33.5
t-86 33.5t-49 79.5z" />
    <glyph glyph-name="uni0629" unicode="&#x629;" horiz-adv-x="1089" 
d="M266 1358q47 0 87.5 -32.5t49.5 -78.5q10 -46 -16 -79t-72 -33t-86 33t-51 79q-9 46 17.5 78.5t70.5 32.5zM580 1358q47 0 87.5 -32.5t49.5 -78.5q10 -46 -16 -79t-72 -33t-86 33t-51 79q-9 46 17.5 78.5t70.5 32.5zM53 963l451 2q123 0 237 -58.5t193 -159.5t104 -221
l19 -82q25 -121 -11.5 -223t-125.5 -161t-211 -60q-190 -2 -346.5 121t-196.5 307zM672 176q117 0 176.5 77t34.5 193l-15 72q-23 112 -118.5 191t-208.5 79h-277l76 -354q25 -120 122 -189t210 -69z" />
    <glyph glyph-name="uni062A" unicode="&#x62a;" horiz-adv-x="1734" 
d="M594 1176q47 0 87.5 -32.5t49.5 -78.5t-17 -79.5t-71 -33.5q-46 0 -87 33.5t-50 79.5t17.5 78.5t70.5 32.5zM907 1176q47 0 87.5 -32.5t49.5 -78.5t-17 -79.5t-71 -33.5q-46 0 -87 33.5t-50 79.5t17.5 78.5t70.5 32.5zM1552 952l166 -776q13 -73 -28 -124.5t-113 -51.5
h-930q-166 0 -309 117.5t-178 281.5l-72 338h180l72 -338q20 -94 98 -158.5t172 -64.5h885q19 0 29 12t6 31l-156 733h178z" />
    <glyph glyph-name="uni062B" unicode="&#x62b;" horiz-adv-x="1724" 
d="M670 1464q47 0 87.5 -32t49.5 -78q11 -46 -16 -79.5t-74 -33.5q-44 0 -84 33.5t-51 79.5q-9 45 17 77.5t71 32.5zM578 1176q46 0 86.5 -32.5t50.5 -78.5q9 -46 -17 -79.5t-73 -33.5q-45 0 -86 34t-50 79q-10 45 16.5 78t72.5 33zM891 1176q46 0 86.5 -32.5t50.5 -78.5
q9 -46 -17 -79.5t-73 -33.5q-45 0 -85.5 34t-49.5 79q-10 46 16 78.5t72 32.5zM1552 952l166 -776q13 -73 -28 -124.5t-113 -51.5h-930q-166 0 -309 117.5t-178 281.5l-72 338h180l72 -338q20 -94 98 -158.5t172 -64.5h885q19 0 29 12t6 31l-156 733h178z" />
    <glyph glyph-name="uni062C" unicode="&#x62c;" horiz-adv-x="1505" 
d="M645 0q-100 0 -155 -71t-33 -171q22 -101 107.5 -171t185.5 -70h421l37 -176h-424q-172 0 -319 122t-184 295q-24 113 11 209t119 152.5t197 56.5h641q-29 14 -57.5 51.5t-38.5 81.5l-16 82q-44 210 -195 309q-69 46 -154.5 67.5t-164.5 19t-141 -13.5t-107 -28l-107 158
q69 27 152.5 43.5t184.5 19t210.5 -28t202.5 -93.5q232 -158 293 -449l18 -88q10 -50 49.5 -90.5t89.5 -40.5h21l37 -176h-881zM741 -147q43 0 81.5 -31t45.5 -72q10 -44 -14.5 -75t-69.5 -31q-42 0 -79.5 31t-47.5 75q-8 42 17 72.5t67 30.5z" />
    <glyph glyph-name="uni062D" unicode="&#x62d;" horiz-adv-x="1505" 
d="M627 0q-86 0 -133.5 -59.5t-28.5 -145.5q19 -85 91.5 -145t158.5 -60h483l37 -176h-483q-159 0 -294 111t-169 270t54 270t247 111h661q-35 18 -62 51.5t-34 73.5l-18 88q-47 217 -201 320q-69 46 -166.5 65.5t-182 14.5t-146.5 -15.5t-83 -21.5l-79 170q27 8 69 17.5
t127.5 18.5t169 6t185.5 -31t184 -81q234 -159 297 -461l18 -84q12 -57 57.5 -94t102.5 -37h20l37 -176h-919z" />
    <glyph glyph-name="uni062E" unicode="&#x62e;" horiz-adv-x="1505" 
d="M567 1364q47 0 88 -32.5t50 -78.5t-17.5 -79t-73.5 -33q-45 0 -85.5 33.5t-49.5 78.5q-9 46 17.5 78.5t70.5 32.5zM627 0q-86 0 -133.5 -59.5t-28.5 -145.5q19 -85 91.5 -145t158.5 -60h483l37 -176h-483q-159 0 -294 111t-169 270t54 270t247 111h661q-35 18 -62 51.5
t-34 73.5l-18 86q-47 216 -201 322q-69 46 -166.5 65.5t-182 14t-146.5 -16.5t-83 -22l-79 172q35 10 69.5 18t125.5 18t171.5 6.5t183.5 -31.5t185 -83q234 -155 297 -461l18 -82q12 -57 57.5 -94t102.5 -37h20l37 -176h-919z" />
    <glyph glyph-name="uni062F" unicode="&#x62f;" horiz-adv-x="1073" 
d="M770 0h-524l-37 176h524q77 0 111 60q36 59 2 133l-281 589l158 48l283 -592q70 -163 -2 -289q-36 -59 -97 -92t-137 -33z" />
    <glyph glyph-name="uni0630" unicode="&#x630;" horiz-adv-x="1073" 
d="M436 1276q1 36 30.5 55t68.5 10t65 -41.5t23 -68.5q0 -37 -29.5 -57t-67.5 -9q-38 9 -64.5 41.5t-25.5 69.5zM770 0h-524l-37 176h524q77 0 111 60q36 59 2 133l-281 589l158 48l283 -592q70 -163 -2 -289q-36 -59 -97 -92t-137 -33z" />
    <glyph glyph-name="uni0631" unicode="&#x631;" horiz-adv-x="628" 
d="M645 20q23 -121 9.5 -211t-64 -151.5t-124 -95.5t-169.5 -43l-96 168q53 7 93.5 17t77 28t58.5 42.5t37.5 60t14.5 81t-11 104.5l-199 934h174z" />
    <glyph glyph-name="uni0632" unicode="&#x632;" horiz-adv-x="649" 
d="M264 1364q47 0 87.5 -32.5t49.5 -78.5t-17 -79t-73 -33q-45 0 -85.5 33.5t-49.5 78.5q-9 46 17.5 78.5t70.5 32.5zM645 20q23 -121 9.5 -211t-64 -151.5t-124 -95.5t-169.5 -43l-96 168q53 7 93.5 17t77 28t58.5 42.5t37.5 60t14.5 81t-11 104.5l-199 934h174z" />
    <glyph glyph-name="uni0633" unicode="&#x633;" horiz-adv-x="2574" 
d="M2202 0q-94 0 -182 43.5t-152 118.5q-30 -74 -99 -117.5t-163 -44.5q-135 0 -242 96l63 -303q19 -85 -27.5 -145t-131.5 -60h-424q-207 0 -385 147.5t-221 354.5l-72 330h178l70 -330q29 -135 143.5 -230.5t249.5 -95.5h387q28 0 43.5 19.5t9.5 48.5l-198 932h172
l84 -385q17 -87 90 -145t166 -58q95 0 144.5 60.5t31.5 148.5l-80 373h174l82 -379q18 -89 92 -146t166 -57q87 0 135 61t29 148l-121 571h176l123 -573q31 -165 -58.5 -274t-252.5 -109z" />
    <glyph glyph-name="uni0634" unicode="&#x634;" horiz-adv-x="2564" 
d="M1542 1477q47 0 87.5 -32.5t51.5 -78.5q9 -46 -17.5 -79.5t-72.5 -33.5t-86 33.5t-49 79.5q-10 45 15.5 78t70.5 33zM1442 1176q46 0 86.5 -32.5t50.5 -78.5q9 -46 -17 -79.5t-73 -33.5q-45 0 -85.5 34t-49.5 79q-10 46 16 78.5t72 32.5zM1780 1176q46 0 86.5 -32.5
t50.5 -78.5q9 -46 -17 -79.5t-73 -33.5q-45 0 -85.5 34t-49.5 79q-10 46 16 78.5t72 32.5zM2202 0q-94 0 -182 43.5t-152 118.5q-30 -74 -99 -117.5t-163 -44.5q-135 0 -242 96l63 -303q19 -85 -27.5 -145t-131.5 -60h-424q-207 0 -385 147.5t-221 354.5l-72 330h178
l70 -330q29 -135 143.5 -230.5t249.5 -95.5h387q28 0 43.5 19.5t9.5 48.5l-198 932h172l84 -385q17 -87 90 -145t166 -58q95 0 144.5 60.5t31.5 148.5l-80 373h174l82 -379q18 -89 92 -146t166 -57q87 0 135 61t29 148l-121 571h176l123 -573q31 -165 -58.5 -274
t-252.5 -109z" />
    <glyph glyph-name="uni0635" unicode="&#x635;" horiz-adv-x="2594" 
d="M2392 719q95 -117 123 -258l65 -301q13 -67 -23 -113.5t-101 -46.5h-1051l49 -229q17 -78 -28 -135.5t-123 -57.5h-447q-139 0 -271 68.5t-225 186t-122 255.5l-66 307h172l66 -307q29 -138 150 -237t259 -99h408q23 0 36.5 17.5t8.5 40.5l-244 1146h174l41 -192l516 168
q159 52 337.5 -8t295.5 -205zM2394 219l-53 242q-19 96 -82 170q-71 93 -187.5 130.5t-224.5 4.5l-565 -184l86 -406h991q19 0 28.5 12t6.5 31z" />
    <glyph glyph-name="uni0636" unicode="&#x636;" horiz-adv-x="2584" 
d="M1696 1364q46 0 86 -32.5t49 -78.5q10 -46 -16 -79t-72 -33t-86 33t-51 79q-9 46 17.5 78.5t72.5 32.5zM2392 719q95 -117 123 -258l65 -301q13 -67 -23 -113.5t-101 -46.5h-1051l49 -229q17 -78 -28 -135.5t-123 -57.5h-447q-139 0 -271 68.5t-225 186t-122 255.5
l-72 338h172l72 -338q29 -138 150 -237t259 -99h408q23 0 36.5 17.5t8.5 40.5l-244 1146h174l41 -192l516 168q159 52 337.5 -8t295.5 -205zM2394 219l-53 242q-19 96 -82 170q-71 93 -187.5 130.5t-224.5 4.5l-565 -184l86 -406h991q19 0 28.5 12t6.5 31z" />
    <glyph glyph-name="uni0637" unicode="&#x637;" horiz-adv-x="1832" 
d="M1638 723q93 -113 125 -258l64 -305q14 -65 -22.5 -112.5t-100.5 -47.5h-1442l-37 176h209l-264 1251h174l139 -659l521 170q160 52 338.5 -8.5t295.5 -206.5zM1640 221l-51 244q-22 98 -82 172q-75 93 -192 131t-225 4l-568 -184l86 -412h1000q18 0 27 12.5t5 32.5z" />
    <glyph glyph-name="uni0638" unicode="&#x638;" horiz-adv-x="1792" 
d="M1638 723q93 -113 125 -258l64 -305q14 -65 -22.5 -112.5t-100.5 -47.5h-1442l-37 176h209l-264 1251h174l139 -659l521 170q160 52 338.5 -8.5t295.5 -206.5zM909 1364q47 0 88 -32.5t50 -78.5t-17.5 -79t-73.5 -33q-45 0 -85.5 33.5t-49.5 78.5q-9 46 17.5 78.5
t70.5 32.5zM1640 221l-51 244q-22 98 -82 172q-75 93 -192 131t-225 4l-568 -184l86 -412h1000q18 0 27 12.5t5 32.5z" />
    <glyph glyph-name="uni0639" unicode="&#x639;" horiz-adv-x="1249" 
d="M1225 176l37 -176h-635q-83 0 -128 -58.5t-28 -140.5t87 -139t153 -57h473l37 -172h-473q-155 0 -287 107t-164 261q-23 115 22.5 205.5t141.5 118.5l28 4q-182 116 -221 301l-20 92q-38 184 65 312.5t285 128.5q165 0 300 -93t200 -249l-113 -78q-37 105 -136 176.5
t-214 71.5q-110 0 -173.5 -78.5t-41.5 -188.5l20 -92q24 -111 118 -183.5t206 -72.5h461z" />
    <glyph glyph-name="uni063A" unicode="&#x63a;" horiz-adv-x="1239" 
d="M496 1364q47 0 87.5 -32.5t49.5 -78.5t-17 -79t-73 -33q-45 0 -85.5 33.5t-49.5 78.5q-9 46 17.5 78.5t70.5 32.5zM1225 176l37 -176h-635q-83 0 -128 -58.5t-28 -140.5t87 -139t153 -57h479l37 -172h-479q-155 0 -287 107t-164 261q-23 115 22.5 205.5t141.5 118.5l28 4
q-81 39 -141 121t-80 180l-20 92q-38 184 65 312.5t285 128.5q165 0 300 -93t200 -249l-113 -78q-37 105 -136 176.5t-214 71.5q-110 0 -173.5 -78.5t-41.5 -188.5l20 -92q24 -111 118 -183.5t206 -72.5h461z" />
    <glyph glyph-name="uni0640" unicode="&#x640;" horiz-adv-x="552" 
d="M94 176h594l37 -176h-594z" />
    <glyph glyph-name="uni0641" unicode="&#x641;" horiz-adv-x="2023" 
d="M1423 1370q47 0 88 -33t50 -77q9 -47 -17.5 -80t-73.5 -33q-45 0 -85.5 33t-49.5 80q-9 44 17.5 77t70.5 33zM1837 963l166 -779q17 -78 -25 -131t-120 -53h-1145q-189 0 -352 135.5t-203 325.5l-56 256h177l55 -258q25 -118 125 -200.5t217 -82.5h594q-83 46 -145.5 130
t-82.5 179q-28 128 13.5 238t139.5 175t230 65h412zM1757 176q29 0 46.5 20.5t11.5 49.5l-117 542h-236q-84 -1 -147.5 -43.5t-89.5 -113t-8 -152.5q16 -80 73.5 -150.5t134.5 -111.5t150 -41h182z" />
    <glyph glyph-name="uni0642" unicode="&#x642;" horiz-adv-x="1507" 
d="M610 1370q46 0 86 -33t49 -77q10 -47 -16 -80t-72 -33t-86.5 33t-50.5 80q-9 44 17.5 77t72.5 33zM928 1370q46 0 86 -33t49 -77q10 -47 -16 -80t-72 -33t-86.5 33t-50.5 80q-9 44 17.5 77t72.5 33zM885 963h438l250 -1174q19 -89 -31 -152t-139 -63h-541
q-215 0 -397.5 150.5t-228.5 365.5l-70 334h176l70 -332q29 -141 150 -240.5t261 -99.5h518q28 0 42 18t8 44l-41 186h-260q-122 0 -238 58.5t-198 160t-107 221.5l-19 86q-21 94 -2 174t66 138.5t123.5 91.5t169.5 33zM1053 176h260l-133 629h-260q-117 0 -180 -81.5
t-38 -197.5l17 -84q23 -109 121.5 -187.5t212.5 -78.5z" />
    <glyph glyph-name="uni0643" unicode="&#x643;" horiz-adv-x="1738" 
d="M1415 1427l264 -1253q17 -70 -24 -122t-113 -52h-833q-184 0 -341.5 129.5t-195.5 312.5l-63 299h172l63 -299q25 -110 121.5 -189t206.5 -79h770q27 0 43 19t10 45l-252 1189h172zM991 946l21 -92h-389l-21 92h70q-46 50 -54 98q-11 74 30.5 123.5t113.5 49.5
q65 0 121.5 -39t83.5 -99l-66 -47q-42 88 -119 88q-37 0 -55.5 -24t-9.5 -62q7 -33 34.5 -60.5t67.5 -27.5h172z" />
    <glyph glyph-name="uni0644" unicode="&#x644;" horiz-adv-x="1409" 
d="M1274 -401h-422q-213 0 -394 149.5t-227 362.5l-67 317h176l68 -317q29 -139 148 -237.5t257 -98.5h391q32 0 49.5 21t10.5 52l-336 1579l176 -2l342 -1607q19 -91 -31 -155t-141 -64z" />
    <glyph glyph-name="uni0645" unicode="&#x645;" horiz-adv-x="1257" 
d="M827 0q-86 0 -164.5 32t-136.5 85l17 -76q14 -80 2 -146t-39 -115.5t-71.5 -87t-95.5 -61.5t-112 -37l-67 173q123 29 176 109.5t24 213.5l-184 873h447q123 0 239.5 -60.5t198 -165t106.5 -227.5l17 -64q35 -186 -69 -316t-288 -130zM791 176q114 0 177.5 77t41.5 191
l-15 66q-23 115 -119.5 194.5t-211.5 79.5h-277l76 -352q28 -120 122.5 -188t205.5 -68z" />
    <glyph glyph-name="uni0646" unicode="&#x646;" horiz-adv-x="1400" 
d="M618 965q46 0 87.5 -33.5t50.5 -77.5q10 -47 -16.5 -80t-73.5 -33q-45 0 -85.5 33t-50.5 80q-9 45 17 78t71 33zM1331 -397h-481q-139 0 -271.5 68t-225.5 185.5t-122 256.5l-65 313h174l66 -313q29 -138 148 -237t257 -99h393q29 0 45.5 18.5t10.5 46.5l-232 1092h174
l250 -1178q14 -63 -21.5 -108t-99.5 -45z" />
    <glyph glyph-name="uni0647" unicode="&#x647;" horiz-adv-x="1089" 
d="M53 963l451 2q123 0 237 -58.5t193 -159.5t104 -221l19 -82q25 -121 -11.5 -223t-125.5 -161t-211 -60q-190 -2 -346.5 121t-196.5 307zM672 176q117 0 176.5 77t34.5 193l-15 72q-23 112 -118.5 191t-208.5 79h-277l76 -354q25 -120 122 -189t210 -69z" />
    <glyph glyph-name="uni0648" unicode="&#x648;" horiz-adv-x="1130" 
d="M944 963l205 -959q44 -211 -70 -340q-83 -97 -214 -130.5t-378 -33.5l-36 174h75.5t73 2t80.5 6t71 12.5t73 20.5t58.5 31.5t53.5 44.5q54 63 39 170l-6 39h-250q-196 0 -360 141t-207 342q-27 133 10 242.5t130 173.5t224 64h428zM682 176h254l-131 610h-252
q-125 0 -189 -86.5t-38 -216.5q28 -129 129.5 -218t226.5 -89z" />
    <glyph glyph-name="uni0649" unicode="&#x649;" horiz-adv-x="2066" 
d="M1882 963l201 -961h-176l-164 786h-344q-51 0 -80 -36.5t-19 -87.5l195 -912q13 -64 -23.5 -111t-99.5 -47h-516q-139 0 -272.5 69.5t-228 188.5t-124.5 259l-69 329h178l70 -329q31 -141 150.5 -240.5t258.5 -99.5h426q28 0 43 19t8 48l-174 828q-28 123 43 210t197 87
h520z" />
    <glyph glyph-name="uni064A" unicode="&#x64a;" horiz-adv-x="2066" 
d="M1882 963l201 -961h-176l-164 786h-344q-51 0 -80 -36.5t-19 -87.5l195 -912q13 -64 -23.5 -111t-99.5 -47h-516q-139 0 -272.5 69.5t-228 188.5t-124.5 259l-69 329h178l70 -329q31 -141 150.5 -240.5t258.5 -99.5h426q28 0 43 19t8 48l-174 828q-28 123 43 210t197 87
h520zM940 -549q46 0 87 -32.5t50 -77.5q11 -46 -16 -79.5t-74 -33.5q-44 0 -84 33.5t-51 79.5q-9 46 16.5 78t71.5 32zM1260 -549q47 0 87.5 -32t49.5 -78q10 -46 -16 -79.5t-72 -33.5t-86.5 33.5t-51.5 79.5q-9 45 17.5 77.5t71.5 32.5z" />
    <glyph glyph-name="uni064B" unicode="&#x64b;" 
d="M-225 1845l327 113l19 -64l-324 -122zM-190 1681l323 127l23 -75l-324 -123z" />
    <glyph glyph-name="uni064C" unicode="&#x64c;" 
d="M270 1645q10 -51 -14.5 -88t-71.5 -48l-243 -79l-23 61q-20 75 -72 78l-18 -6l-27 57l17 8q96 35 139 -82l10 -24l90 30q-48 33 -61 93q-12 57 19.5 97t88.5 40q56 0 105 -40t61 -97zM150 1575q28 0 42.5 18.5t8.5 48.5q-5 30 -28 51t-52 21t-43.5 -19.5t-9.5 -47.5
q8 -32 30.5 -52t51.5 -20z" />
    <glyph glyph-name="uni064D" unicode="&#x64d;" 
d="M215 -227l328 112l18 -63l-323 -123zM250 -391l323 127l21 -76l-324 -123z" />
    <glyph glyph-name="uni064E" unicode="&#x64e;" 
d="M-137 1692l327 112l19 -63l-324 -123z" />
    <glyph glyph-name="uni064F" unicode="&#x64f;" 
d="M-47 1952q57 0 106.5 -40t59.5 -97q22 -98 -82 -138l-209 -73l-41 71l123 45q-54 37 -66 95q-11 57 20.5 97t88.5 40zM-4 1747q29 0 44.5 22t8.5 54q-6 29 -30.5 49t-55.5 20q-29 0 -45 -20t-10 -49q8 -32 32.5 -54t55.5 -22z" />
    <glyph glyph-name="uni0650" unicode="&#x650;" 
d="M344 -582l324 127l20 -75l-321 -123z" />
    <glyph glyph-name="uni0651" unicode="&#x651;" 
d="M164 1745h86l29 -133q15 -75 -12 -118.5t-89 -43.5q-60 0 -102 45q-6 -36 -30 -56t-58 -20q-59 0 -107 39.5t-61 106.5l-17 82h86l17 -82q12 -58 61 -58q51 0 35 70l-25 115h89l20 -105q6 -23 22.5 -35t36.5 -12q30 0 42.5 18.5t5.5 53.5z" />
    <glyph glyph-name="uni0652" unicode="&#x652;" 
d="M-16 1649q-60 0 -112.5 43t-64.5 104q-13 60 21 103t94 43t112 -43t66 -103q12 -61 -22 -104t-94 -43zM-33 1722q31 0 45.5 20t7.5 52q-6 29 -29 48.5t-52 19.5t-44.5 -19.5t-9.5 -48.5q6 -32 29 -52t53 -20z" />
    <glyph glyph-name="uni0653" unicode="&#x653;" 
d="M-205 1962l-65 61l110 93q10 8 26 5.5t28 -12.5q36 -32 90.5 -47.5t109.5 -15.5q31 0 79.5 16t82.5 33l57 -90q-36 -23 -95.5 -42t-100.5 -19q-120 0 -226 73q-16 10 -26 0z" />
    <glyph glyph-name="uni0658" unicode="&#x658;" 
 />
    <glyph glyph-name="uni0660" unicode="&#x660;" horiz-adv-x="516" 
d="M256 117q-13 61 14.5 96t87.5 35t103.5 -35t56.5 -96q11 -59 -17 -95t-87 -36q-60 0 -104 36.5t-54 94.5z" />
    <glyph glyph-name="uni0661" unicode="&#x661;" horiz-adv-x="497" 
d="M195 1434l303 -1434h-193l-303 1434h193z" />
    <glyph glyph-name="uni0662" unicode="&#x662;" horiz-adv-x="1212" 
d="M887 1434l39 -191l-391 -2q-114 0 -176 -88t-37 -205l200 -948h-196l-199 942q-28 131 10.5 244.5t133 180.5t221.5 67h395z" />
    <glyph glyph-name="uni0663" unicode="&#x663;" horiz-adv-x="1648" 
d="M1153 578q-93 0 -182 43t-152 118q-30 -75 -98 -118t-162 -43q-135 0 -244 94l144 -674h-172l-305 1436h172l100 -478q20 -88 92.5 -146t165.5 -58q96 0 145.5 61t30.5 148l-100 473h176l100 -478q20 -91 94 -147.5t166 -56.5q86 0 133.5 61t30.5 148l-100 473h176
l100 -476q32 -165 -57 -272.5t-254 -107.5z" />
    <glyph glyph-name="uni0664" unicode="&#x664;" horiz-adv-x="1191" 
d="M1057 694l37 -172h-592q-73 0 -114 -51t-26 -125q15 -73 78.5 -124.5t137.5 -51.5h442l35 -170h-443q-145 0 -267 102.5t-152 243.5q-23 105 18.5 187.5t128.5 107.5l31 6q-78 51 -133.5 127t-73.5 164l-21 94q-36 170 61.5 290t264.5 120q159 0 284.5 -90t188.5 -240
l-113 -80q-39 106 -127.5 174t-195.5 68q-98 0 -156 -71t-39 -171l21 -92q22 -100 109 -173t186 -73h430z" />
    <glyph glyph-name="uni0665" unicode="&#x665;" horiz-adv-x="1427" 
d="M872 -27q-258 0 -459 205.5t-272 538.5q-44 226 -10.5 391t145 258.5t281.5 93.5q258 0 459.5 -204.5t271.5 -538.5q44 -225 10.5 -390.5t-145 -259.5t-281.5 -94zM834 152q169 0 238.5 155t14.5 410q-54 255 -189 411t-304 156q-167 0 -237.5 -156t-16.5 -411
q55 -255 191 -410t303 -155z" />
    <glyph glyph-name="uni0666" unicode="&#x666;" horiz-adv-x="1212" 
d="M326 1434h395q127 0 221.5 -67t132.5 -180.5t10 -244.5l-198 -942h-197l201 948q25 117 -37 205t-176 88l-391 2z" />
    <glyph glyph-name="uni0667" unicode="&#x667;" horiz-adv-x="1398" 
d="M1364 1434l-545 -1434h-233l-555 1434h211l458 -1207l453 1207h211z" />
    <glyph glyph-name="uni0668" unicode="&#x668;" horiz-adv-x="1419" 
d="M1538 0h-211l-719 1206l-213 -1206h-211l260 1434h234z" />
    <glyph glyph-name="uni0669" unicode="&#x669;" horiz-adv-x="1159" 
d="M430 1434q183 1 341 -129.5t196 -313.5l84 -391l127 -600h-181l-96 463h-227q-223 0 -382.5 127.5t-201.5 327.5l-16 73q-25 121 14.5 223t130.5 161t211 59zM868 637l-75 354q-23 110 -118.5 189.5t-205.5 79.5q-116 0 -181 -82t-40 -199l14 -68q25 -114 124.5 -194
t213.5 -80h268z" />
    <glyph glyph-name="uni066A" unicode="&#x66a;" horiz-adv-x="1523" 
d="M1051 1434h172l-699 -1434h-172zM219 1137q-62 0 -111 39.5t-61 99.5q-13 61 19 101t92 40q62 0 111.5 -40t62.5 -101q12 -60 -20.5 -99.5t-92.5 -39.5zM1376 -14q-62 0 -111 39.5t-61 99.5q-12 61 20.5 101t92.5 40q62 0 111 -40t61 -101q12 -60 -20.5 -99.5
t-92.5 -39.5z" />
    <glyph glyph-name="uni066B" unicode="&#x66b;" horiz-adv-x="466" 
d="M270 264h191l-15 -579h-155z" />
    <glyph glyph-name="uni066C" unicode="&#x66c;" horiz-adv-x="466" 
d="M270 264h191l-15 -579h-155z" />
    <glyph glyph-name="uni066D" unicode="&#x66d;" horiz-adv-x="937" 
d="M647 342l254 -258l-96 -82l-242 270l-129 -270l-131 82l146 260l-332 92l14 133l332 -108l-80 325h141l60 -327l286 110l72 -135z" />
    <glyph glyph-name="uni066E" unicode="&#x66e;" horiz-adv-x="1724" 
d="M1552 952l166 -776q13 -73 -28 -124.5t-113 -51.5h-930q-166 0 -309 117.5t-178 281.5l-74 349h178l76 -349q20 -94 98 -158.5t172 -64.5h885q19 0 29 12t6 31l-156 733h178z" />
    <glyph glyph-name="uni066F" unicode="&#x66f;" horiz-adv-x="1507" 
d="M883 979q117 0 230.5 -58.5t194 -159.5t105.5 -220l160 -752q19 -89 -31 -152t-139 -63h-541q-215 0 -397.5 150.5t-228.5 365.5l-70 334h176l70 -332q29 -141 150 -240.5t261 -99.5h518q28 0 42 18t8 44l-41 186h-260q-122 0 -238 58.5t-198 160t-107 221.5l-19 86
q-40 188 63.5 320.5t291.5 132.5zM1053 176h260l-76 365q-25 109 -118 186.5t-199 77.5q-117 0 -180 -81.5t-38 -197.5l17 -84q23 -109 121.5 -187.5t212.5 -78.5z" />
    <glyph glyph-name="uni0671" unicode="&#x671;" horiz-adv-x="503" 
d="M315 0l-303 1434h176l304 -1434h-177z" />
    <glyph glyph-name="uni0679" unicode="&#x679;" horiz-adv-x="1724" 
d="M573 1081l-16 84h70l-70 334h82l43 -199q53 74 125 74q143 0 180 -172l25 -121h-439zM815 1290q-63 0 -113 -78l11 -47h200l-10 43q-18 82 -88 82zM1718 176q13 -73 -28 -124.5t-113 -51.5h-930q-166 0 -309 117.5t-178 281.5l-74 349h178l76 -349q20 -94 98 -158.5
t172 -64.5h885q19 0 29 12t6 31l-156 733h178z" />
    <glyph glyph-name="uni067E" unicode="&#x67e;" horiz-adv-x="1724" 
d="M1552 952l166 -776q13 -73 -28 -124.5t-113 -51.5h-930q-166 0 -309 117.5t-178 281.5l-74 349h178l76 -349q20 -94 98 -158.5t172 -64.5h885q19 0 29 12t6 31l-156 733h178zM940 -393q-46 0 -86 32.5t-49 77.5q-10 46 16 79.5t70 33.5q47 0 87.5 -33.5t51.5 -79.5
q9 -46 -17.5 -78t-72.5 -32zM1253 -393q-46 0 -86 32.5t-49 77.5q-10 46 16 79.5t70 33.5q47 0 87.5 -33.5t51.5 -79.5q9 -46 -17.5 -78t-72.5 -32zM1155 -682q-46 0 -86 32.5t-49 78.5t16.5 79t71.5 33t87 -33.5t50 -78.5q9 -46 -17.5 -78.5t-72.5 -32.5z" />
    <glyph glyph-name="uni0686" unicode="&#x686;" horiz-adv-x="1505" 
d="M645 0q-100 0 -155 -71t-33 -171q22 -101 107.5 -171t185.5 -70h421l37 -176h-424q-172 0 -319 122t-184 295q-24 113 11 209t119 152.5t197 56.5h641q-29 14 -57.5 51.5t-38.5 81.5l-16 82q-45 212 -195 307q-68 46 -153.5 67.5t-164.5 19t-141 -13t-108 -26.5l-107 156
q70 28 153.5 44.5t184.5 18.5t210.5 -28.5t203.5 -93.5q102 -69 180 -182t111 -271l18 -82q10 -50 49.5 -90.5t89.5 -40.5h21l37 -176h-881zM696 -244q-25 0 -47 17.5t-26 42.5q-5 26 8.5 43.5t38.5 17.5t47 -17.5t26 -43.5q5 -25 -8.5 -42.5t-38.5 -17.5zM879 -244
q-24 0 -46 18t-26 42q-6 26 7.5 43.5t37.5 17.5q26 0 48 -17.5t28 -43.5q5 -25 -9 -42.5t-40 -17.5zM821 -412q-23 0 -44 17.5t-27 42.5q-5 25 8.5 42t38.5 17t47 -17.5t26 -41.5q6 -25 -8.5 -42.5t-40.5 -17.5z" />
    <glyph glyph-name="uni0688" unicode="&#x688;" horiz-adv-x="1073" 
d="M375 1137l-19 84h72l-72 333h84l41 -198q57 74 125 74q145 0 180 -173l27 -120h-438zM614 1346q-58 0 -112 -78l10 -47h201l-8 43q-18 82 -91 82zM1004 414q70 -162 -3 -289q-36 -59 -96.5 -92t-136.5 -33h-524l-37 176h524q77 0 111 60q36 59 2 133l-281 589l158 48z
" />
    <glyph glyph-name="uni0691" unicode="&#x691;" horiz-adv-x="628" 
d="M106 1118l-16 84h70l-70 334h82l43 -199q53 74 125 74q143 0 180 -172l25 -121h-439zM348 1327q-62 0 -112 -78l10 -47h200l-10 43q-18 82 -88 82zM645 20q23 -121 9.5 -211t-64 -151.5t-124 -95.5t-169.5 -43l-96 168q53 7 93.5 17t77 28t58.5 42.5t37.5 60t14.5 81
t-11 104.5l-199 934h174z" />
    <glyph glyph-name="uni0698" unicode="&#x698;" horiz-adv-x="628" 
d="M201 1626q47 0 87.5 -32.5t51.5 -77.5q9 -47 -17.5 -80t-72.5 -33t-86 33t-49 80q-10 44 16 77t70 33zM109 1337q47 0 87.5 -32.5t49.5 -77.5q9 -47 -17 -80t-73 -33q-45 0 -86 33.5t-50 79.5q-9 44 18 77t71 33zM422 1337q47 0 87.5 -32.5t49.5 -77.5q9 -47 -17 -80
t-73 -33q-45 0 -85.5 33t-49.5 80q-9 44 17.5 77t70.5 33zM645 20q23 -121 9.5 -211t-64 -151.5t-124 -95.5t-169.5 -43l-96 168q53 7 93.5 17t77 28t58.5 42.5t37.5 60t14.5 81t-11 104.5l-199 934h174z" />
    <glyph glyph-name="uni06A1" unicode="&#x6a1;" horiz-adv-x="2023" 
d="M1837 963l166 -779q17 -78 -25 -131t-120 -53h-1145q-189 0 -352 135.5t-203 325.5l-56 256h177l55 -258q25 -118 125 -200.5t217 -82.5h594q-83 46 -145.5 130t-82.5 179q-28 128 13.5 238t139.5 175t230 65h412zM1757 176q29 0 46.5 20.5t11.5 49.5l-117 542h-236
q-84 -1 -147.5 -43.5t-89.5 -113t-8 -152.5q16 -80 73.5 -150.5t134.5 -111.5t150 -41h182z" />
    <glyph glyph-name="uni06A4" unicode="&#x6a4;" horiz-adv-x="2023" 
d="M1339 1608q47 0 88 -33t52 -78q9 -47 -18.5 -80t-74.5 -33q-45 0 -84.5 33t-48.5 80q-10 44 16 77.5t70 33.5zM1247 1319q45 0 85.5 -33t51.5 -78q9 -47 -17 -79.5t-73 -32.5q-45 0 -85.5 33t-49.5 79q-11 44 15.5 77.5t72.5 33.5zM1561 1319q45 0 85.5 -33t51.5 -78
q9 -47 -17 -79.5t-73 -32.5q-45 0 -85.5 33t-49.5 79q-11 44 15.5 77.5t72.5 33.5zM1837 963l166 -779q17 -78 -25 -131t-120 -53h-1145q-189 0 -352 135.5t-203 325.5l-56 256h177l55 -258q25 -118 125 -200.5t217 -82.5h594q-83 46 -145.5 130t-82.5 179q-28 128 13.5 238
t139.5 175t230 65h412zM1757 176q29 0 46.5 20.5t11.5 49.5l-117 542h-236q-84 -1 -147.5 -43.5t-89.5 -113t-8 -152.5q16 -80 73.5 -150.5t134.5 -111.5t150 -41h182z" />
    <glyph glyph-name="uni06A9" unicode="&#x6a9;" horiz-adv-x="2062" 
d="M1985 457l96 -457h-1403q-166 0 -309.5 117.5t-178.5 281.5l-73 349h180l74 -349q20 -94 98 -158.5t172 -64.5h1229l-58 268q-31 142 -152.5 243t-262.5 101h-502l-166 195l293 580l166 -103l-254 -495h436q138 0 269.5 -68t224 -185t121.5 -255z" />
    <glyph glyph-name="uni06AF" unicode="&#x6af;" horiz-adv-x="2062" 
d="M903 1599l-278 -536l-74 55l276 531zM1985 457l96 -457h-1403q-166 0 -309.5 117.5t-178.5 281.5l-73 349h180l74 -349q20 -94 98 -158.5t172 -64.5h1229l-58 268q-31 142 -152.5 243t-262.5 101h-502l-166 195l293 580l166 -103l-254 -495h436q138 0 269.5 -68t224 -185
t121.5 -255z" />
    <glyph glyph-name="uni06BA" unicode="&#x6ba;" horiz-adv-x="1390" 
d="M1331 -397h-481q-139 0 -271.5 68t-225.5 185.5t-122 256.5l-65 313h174l66 -313q29 -138 148 -237t257 -99h393q29 0 45.5 18.5t10.5 46.5l-232 1092h174l250 -1178q14 -63 -21.5 -108t-99.5 -45z" />
    <glyph glyph-name="uni06BE" unicode="&#x6be;" horiz-adv-x="1517" 
d="M705 1153q270 -60 479.5 -269.5t271.5 -498.5l41 -192q15 -79 -28.5 -136t-120.5 -57h-1217l-37 174h281q-68 43 -120 117t-69 155q-36 169 65.5 282.5t278.5 113.5q182 0 335.5 -130t191.5 -315l33 -153q10 -40 2 -70h190q20 0 30 13.5t5 33.5l-33 164
q-47 223 -204.5 387t-368.5 211q-166 41 -342 41l-35 172q126 -3 195.5 -11.5t175.5 -31.5zM567 668q-101 0 -163.5 -69.5t-41.5 -174.5q24 -106 110 -178t179 -72h236q18 0 29.5 13t7.5 32l-41 195q-21 98 -114.5 176t-201.5 78z" />
    <glyph glyph-name="uni06C1" unicode="&#x6c1;" horiz-adv-x="1089" 
d="M53 963l451 2q123 0 237 -58.5t193 -159.5t104 -221l19 -82q25 -121 -11.5 -223t-125.5 -161t-211 -60q-190 -2 -346.5 121t-196.5 307zM672 176q117 0 176.5 77t34.5 193l-15 72q-23 112 -118.5 191t-208.5 79h-277l76 -354q25 -120 122 -189t210 -69z" />
    <glyph glyph-name="uni06C2" unicode="&#x6c2;" horiz-adv-x="1089" 
d="M567 1192l21 -92h-389l-21 92h70q-48 52 -53 98q-11 74 30 123t113 49q65 0 121.5 -38.5t83.5 -98.5l-66 -47q-42 88 -119 88q-37 0 -55.5 -24t-9.5 -62q7 -33 34.5 -60.5t67.5 -27.5h172zM53 963l451 2q123 0 237 -58.5t193 -159.5t104 -221l19 -82q25 -121 -11.5 -223
t-125.5 -161t-211 -60q-190 -2 -346.5 121t-196.5 307zM672 176q117 0 176.5 77t34.5 193l-15 72q-23 112 -118.5 191t-208.5 79h-277l76 -354q25 -120 122 -189t210 -69z" />
    <glyph glyph-name="uni06C3" unicode="&#x6c3;" horiz-adv-x="1089" 
d="M266 1358q47 0 87.5 -32.5t49.5 -78.5q10 -46 -16 -79t-72 -33t-86 33t-51 79q-9 46 17.5 78.5t70.5 32.5zM580 1358q47 0 87.5 -32.5t49.5 -78.5q10 -46 -16 -79t-72 -33t-86 33t-51 79q-9 46 17.5 78.5t70.5 32.5zM53 963l451 2q123 0 237 -58.5t193 -159.5t104 -221
l19 -82q25 -121 -11.5 -223t-125.5 -161t-211 -60q-190 -2 -346.5 121t-196.5 307zM672 176q117 0 176.5 77t34.5 193l-15 72q-23 112 -118.5 191t-208.5 79h-277l76 -354q25 -120 122 -189t210 -69z" />
    <glyph glyph-name="uni06CC" unicode="&#x6cc;" horiz-adv-x="2066" 
d="M1882 963l201 -961h-176l-164 786h-344q-51 0 -80 -36.5t-19 -87.5l195 -912q13 -64 -23.5 -111t-99.5 -47h-516q-139 0 -272.5 69.5t-228 188.5t-124.5 259l-69 329h178l70 -329q31 -141 150.5 -240.5t258.5 -99.5h426q28 0 43 19t8 48l-174 828q-28 123 43 210t197 87
h520z" />
    <glyph glyph-name="uni06D2" unicode="&#x6d2;" horiz-adv-x="1282" 
d="M606 0q-156 0 -284 125q-128 128 -125 289l18 360l180 -49l-18 -356q-3 -73 57 -133t135 -60h848l37 -176h-848z" />
    <glyph glyph-name="uni06D3" unicode="&#x6d3;" horiz-adv-x="1282" 
d="M467 975l18 -92h-389l-18 92h69q-47 47 -55 98q-9 74 32.5 123t113.5 49q64 0 119.5 -38.5t84.5 -98.5l-65 -47q-45 88 -119 88q-37 0 -56 -24t-12 -62q7 -33 36 -60.5t69 -27.5h172zM606 0q-156 0 -284 125q-128 128 -125 289l18 360l180 -49l-18 -356q-3 -73 57 -133
t135 -60h848l37 -176h-848z" />
    <glyph glyph-name="uni06D4" unicode="&#x6d4;" horiz-adv-x="1228" 
 />
    <glyph glyph-name="uni06F0" unicode="&#x6f0;" horiz-adv-x="516" 
d="M256 117q-13 61 14.5 96t87.5 35t103.5 -35t56.5 -96q11 -59 -17 -95t-87 -36q-60 0 -104 36.5t-54 94.5z" />
    <glyph glyph-name="uni06F1" unicode="&#x6f1;" horiz-adv-x="497" 
d="M195 1434l303 -1434h-193l-303 1434h193z" />
    <glyph glyph-name="uni06F2" unicode="&#x6f2;" horiz-adv-x="1212" 
d="M887 1434l39 -191l-391 -2q-114 0 -176 -88t-37 -205l200 -948h-196l-199 942q-28 131 10.5 244.5t133 180.5t221.5 67h395z" />
    <glyph glyph-name="uni06F3" unicode="&#x6f3;" horiz-adv-x="1648" 
d="M1153 578q-93 0 -182 43t-152 118q-30 -75 -98 -118t-162 -43q-135 0 -244 94l144 -674h-172l-305 1436h172l100 -478q20 -88 92.5 -146t165.5 -58q96 0 145.5 61t30.5 148l-100 473h176l100 -478q20 -91 94 -147.5t166 -56.5q86 0 133.5 61t30.5 148l-100 473h176
l100 -476q32 -165 -57 -272.5t-254 -107.5z" />
    <glyph glyph-name="uni06F4" unicode="&#x6f4;" horiz-adv-x="1515" 
d="M1432 453h-1041l96 -453h-192l-303 1434h192l170 -807h295q-175 82 -215 272l-20 92q-38 184 65 312.5t285 128.5q165 0 300 -93t200 -249l-113 -78q-37 105 -137 176.5t-215 71.5q-109 0 -172 -78.5t-41 -188.5l20 -92q23 -112 120 -192t208 -80h461z" />
    </font>
</defs>
</svg>
