<?xml version="1.0" standalone="no"?>
<!DOCTYPE svg PUBLIC "-//W3C//DTD SVG 1.1//EN" "http://www.w3.org/Graphics/SVG/1.1/DTD/svg11.dtd" >
<svg xmlns="http://www.w3.org/2000/svg" xmlns:xlink="http://www.w3.org/1999/xlink" version="1.1">
<metadata>
Created by FontForge 20170731 at Sat May 27 13:23:43 2023
 By Aleksey,,,
Copyright (c) 2021 by __Designer__. All rights reserved.
</metadata>
<defs>
<font id="LamaSans-SemiBoldItalic" horiz-adv-x="0" >
  <font-face 
    font-family="Lama Sans SemiBold Italic"
    font-weight="600"
    font-style="italic"
    font-stretch="normal"
    units-per-em="2048"
    panose-1="0 0 2 0 0 0 0 0 0 0"
    ascent="1638"
    descent="-410"
    x-height="1024"
    cap-height="1434"
    bbox="-1118 -891 3068 2269"
    underline-thickness="102"
    underline-position="-347"
    unicode-range="U+000D-FEFC"
  />
<missing-glyph horiz-adv-x="972" 
d="M799 1434v-1946h-619v1946h619zM647 1303h-319v-64h125v-72h-127v-63h321v63h-127v72h127v64zM520 1053h-194v-203h321v65h-127v138zM453 987v-72h-64v72h64zM647 797h-321v-64h127v-71h-127v-64h194v135h127v64zM647 680h-63v-127h-258v-68h321v195zM647 442h-194v-108
h67v45h64v-92h-195v155h-63v-219h321v219zM647 106h-321v-219h321v219zM584 43v-92h-195v92h195zM647 -158h-321v-63h135l-135 -92v-64h321v64h-198l137 92h61v63z" />
    <glyph glyph-name="uniFDF2" unicode="&#x627;&#xfedf;&#xfee0;&#xfeea;" horiz-adv-x="3094" arabic-form="isolated" 
d="M1360 1864h-96l-47 219l92 33zM1294 1518q-63 0 -112 40.5t-64 108.5l-18 86h100l19 -86q12 -49 55 -49q44 0 29 57l-23 117h98l23 -102q9 -43 51 -43q25 0 35.5 16t3.5 45l-29 139h99l30 -139q15 -74 -12.5 -119t-89.5 -45q-60 0 -105 45q-7 -34 -32 -52.5t-58 -18.5z
M2765 1434l303 -1434h-211l-303 1434h211zM2195 1427l236 -1110q28 -132 -44.5 -224.5t-203.5 -92.5h-166q-153 0 -282 119q-31 -55 -89.5 -87t-132.5 -32h-176q-88 0 -171.5 44.5t-143.5 119.5q-42 -75 -122 -119.5t-181 -44.5q-125 0 -246.5 60.5t-207.5 166.5t-111 230
l-15 63q-42 201 64.5 330t308.5 129h473l135 -625q14 -64 60 -103.5t112 -39.5h154q62 0 97 45.5t22 108.5l-226 1062h213l226 -1065q19 -63 75.5 -107t120.5 -44h162q43 0 68 31t16 75l-235 1110h210zM674 211q109 0 170.5 77.5t38.5 186.5l-64 291h-262q-107 0 -170 -68
t-39 -178l10 -55q25 -106 117.5 -180t198.5 -74z" />
    <glyph glyph-name="uniFEF5" unicode="&#xfedf;&#xfe82;" horiz-adv-x="1273" arabic-form="isolated" 
d="M131 1313l-76 69l117 95q11 9 28 8t31 -12q71 -66 205 -66q47 0 162 47l66 -104q-39 -23 -100 -42.5t-101 -19.5q-124 0 -236 80q-17 10 -26 -2zM1219 317q28 -132 -45.5 -224.5t-204.5 -92.5h-723l-43 211h311l-195 917h211l195 -917h197q44 0 69.5 31t16.5 75
l-236 1110h211z" />
    <glyph glyph-name="uniFEF6" unicode="&#xfee0;&#xfe82;" horiz-adv-x="1374" arabic-form="final" 
d="M102 1311l-75 69l118 95q11 9 27.5 7.5t30.5 -12.5q76 -65 207 -65q46 0 161 47l64 -104q-38 -23 -98.5 -41.5t-100.5 -18.5q-122 0 -235 78q-16 10 -29 0zM1614 106q9 -44 -16.5 -75t-69.5 -31h-78q-154 0 -283 119q-31 -55 -89 -87t-132 -32h-700l-43 211h311l-195 913
h211l195 -913h154q62 0 96.5 45.5t21.5 108.5l-225 1062h213l225 -1065q19 -63 75.5 -107t119.5 -44h80q45 0 82.5 -30.5t46.5 -74.5z" />
    <glyph glyph-name="uniFEF7" unicode="&#xfedf;&#xfe84;" horiz-adv-x="1327" arabic-form="isolated" 
d="M621 1378l24 -108h-414l-22 108h67q-37 50 -45 95q-8 74 36 125t118 51q65 0 122.5 -37.5t88.5 -98.5l-74 -59q-47 82 -114 82q-32 0 -50 -22t-12 -54q7 -30 32 -56t62 -26h181zM1272 317q28 -132 -45.5 -224.5t-204.5 -92.5h-721l-45 211h313l-196 917h211l196 -917h197
q43 0 68 31t16 75l-236 1110h211z" />
    <glyph glyph-name="uniFEF8" unicode="&#xfee0;&#xfe84;" horiz-adv-x="1374" arabic-form="final" 
d="M569 1378l25 -108h-412l-24 108h69q-39 46 -45 95q-9 74 34.5 125t117.5 51q65 0 122.5 -37.5t88.5 -98.5l-74 -59q-47 82 -115 82q-32 0 -49 -22t-10 -54q5 -30 30 -56t62 -26h180zM1614 106q9 -44 -16.5 -75t-69.5 -31h-78q-154 0 -283 119q-31 -55 -89 -87t-132 -32
h-594q-47 0 -85.5 30t-47.5 74q-9 46 16 76.5t72 30.5h207l-195 913h211l195 -913h154q62 0 96.5 45.5t21.5 108.5l-225 1062h213l225 -1065q19 -63 75.5 -107t119.5 -44h80q45 0 82.5 -30.5t46.5 -74.5z" />
    <glyph glyph-name="uniFEF9" unicode="&#xfedf;&#xfe88;" horiz-adv-x="1273" arabic-form="isolated" 
d="M1219 317q28 -132 -45.5 -224.5t-204.5 -92.5h-723l-43 211h313l-197 917h211l197 -917h195q44 0 69.5 31t16.5 75l-236 1110h211zM741 -424h181l22 -111h-414l-20 111h68q-42 56 -46 92q-8 76 35 126t117 50q66 0 124 -37.5t89 -97.5l-76 -57q-44 80 -114 80
q-32 0 -49 -21t-11 -55q5 -29 30.5 -54.5t63.5 -25.5z" />
    <glyph glyph-name="uniFEFA" unicode="&#xfee0;&#xfe88;" horiz-adv-x="1374" arabic-form="final" 
d="M1614 106q9 -44 -16.5 -75t-69.5 -31h-78q-154 0 -283 119q-31 -55 -89 -87t-132 -32h-700l-43 211h311l-195 913h211l195 -913h154q62 0 96.5 45.5t21.5 108.5l-225 1062h213l225 -1065q19 -63 75.5 -107t119.5 -44h80q45 0 82.5 -30.5t46.5 -74.5zM750 -424h180
l22 -108h-411l-25 108h70q-40 55 -45 92q-8 76 34.5 126t116.5 50q65 0 123.5 -37t89.5 -96l-76 -59q-43 82 -114 82q-32 0 -49.5 -22t-10.5 -54q5 -29 31 -55.5t64 -26.5z" />
    <glyph glyph-name="uniFEFB" unicode="&#xfedf;&#xfe8e;" horiz-adv-x="1273" arabic-form="isolated" 
d="M1219 317q28 -132 -45.5 -224.5t-204.5 -92.5h-723l-43 211h311l-195 917h211l195 -917h197q44 0 69.5 31t16.5 75l-236 1110h211z" />
    <glyph glyph-name="uniFEFC" unicode="&#xfee0;&#xfe8e;" horiz-adv-x="1374" arabic-form="final" 
d="M1614 106q9 -44 -16.5 -75t-69.5 -31h-78q-154 0 -283 119q-31 -55 -89 -87t-132 -32h-700l-43 211h311l-195 913h211l195 -913h154q62 0 96.5 45.5t21.5 108.5l-225 1062h213l225 -1065q19 -63 75.5 -107t119.5 -44h80q45 0 82.5 -30.5t46.5 -74.5z" />
    <glyph glyph-name="uniFEDFFB51" unicode="&#xfedf;&#xfb51;" horiz-adv-x="1273" 
d="M1219 317q28 -132 -45.5 -224.5t-204.5 -92.5h-723l-43 211h313l-197 917h211l197 -917h195q44 0 69.5 31t16.5 75l-236 1110h211z" />
    <glyph glyph-name="uniFEE0FB51" unicode="&#xfee0;&#xfb51;" horiz-adv-x="1374" 
d="M1614 106q9 -44 -16.5 -75t-69.5 -31h-78q-154 0 -283 119q-31 -55 -89 -87t-132 -32h-700l-43 211h311l-195 913h211l195 -913h154q62 0 96.5 45.5t21.5 108.5l-225 1062h213l225 -1065q19 -63 75.5 -107t119.5 -44h80q45 0 82.5 -30.5t46.5 -74.5z" />
    <glyph glyph-name="uni066E.init" unicode="&#x66e;" horiz-adv-x="579" 
d="M293 0h-143q-44 0 -82.5 31.5t-47.5 74.5q-10 45 15 75t69 30h146q47 0 73 33.5t15 79.5l-137 649h211l137 -649q29 -133 -46.5 -228.5t-209.5 -95.5z" />
    <glyph glyph-name="uni066E.medi" unicode="&#x66e;" horiz-adv-x="708" 
d="M819 211q43 0 81 -30.5t48 -74.5q9 -44 -17 -75t-69 -31h-78q-153 0 -282 119q-31 -55 -89 -87t-132 -32h-129q-47 0 -85 30t-47 74q-10 45 15 76t71 31h107q61 0 96 45.5t23 108.5l-88 411h211l90 -414q19 -63 75 -107t119 -44h80z" />
    <glyph glyph-name="uni066E.fina" unicode="&#x66e;" horiz-adv-x="1863" 
d="M1976 211q43 0 81 -30.5t48 -74.5q9 -44 -17 -75t-69 -31h-71q-154 0 -283 119q-31 -55 -90 -87t-133 -32h-787q-173 0 -320.5 123t-184.5 295l-76 348h213l75 -348q19 -86 91 -146.5t157 -60.5h764q63 0 98 45.5t23 108.5l-129 606h211l131 -609q19 -63 75.5 -107
t119.5 -44h73z" />
    <glyph glyph-name="uni066F.fina" unicode="&#x66f;" horiz-adv-x="1619" 
d="M1747 211l45 -211h-213l39 -180q23 -102 -34.5 -175t-160.5 -73h-546q-146 0 -285 71t-237 193.5t-128 267.5l-61 291h213l59 -286q28 -134 143 -229t248 -95h521q27 0 41.5 18.5t9.5 46.5l-33 150h-240q-193 0 -359 133.5t-206 321.5l-14 71q-41 197 65.5 335t303.5 138
q184 0 345 -134t201 -322l70 -332h213zM1323 211l-70 332q-23 101 -108 171t-184 70q-108 0 -167 -75t-36 -183l14 -67q22 -101 113.5 -174.5t197.5 -73.5h240z" />
    <glyph glyph-name="uni06A1.init" unicode="&#x6a1;" horiz-adv-x="1169" 
d="M528 989q189 1 352 -133.5t203 -323.5l111 -532h-1063l-45 211h252q-60 46 -104.5 115t-61.5 145l-12 61q-26 125 15 230.5t135 166t218 60.5zM940 211l-68 321q-22 101 -110 173.5t-189 72.5q-106 0 -166 -76.5t-38 -183.5l14 -55q25 -104 116 -178t195 -74h246z" />
    <glyph glyph-name="uni06A1.medi" unicode="&#x6a1;" horiz-adv-x="1239" 
d="M1153 211h207l45 -211h-1268l-45 211h268q-129 99 -165 260l-13 61q-22 94 -0.5 177.5t70 145.5t127 98t172.5 36q188 1 350.5 -134t202.5 -323l53 -249q10 -44 -4 -72zM930 211q13 0 20.5 10.5t3.5 24.5l-59 286q-22 100 -110 173t-189 73q-107 0 -167 -76.5t-38 -185.5
l12 -53q25 -104 117.5 -178t196.5 -74h213z" />
    <glyph glyph-name="uni06A1.fina" unicode="&#x6a1;" horiz-adv-x="2148" 
d="M2269 211l45 -211h-1605q-124 0 -242.5 62t-203 168t-111.5 231l-54 254h209l53 -254q23 -104 112 -176t192 -72h579q-68 45 -117.5 120t-68.5 161l-8 38q-27 124 14 230t135.5 166.5t218.5 60.5q124 1 242.5 -60.5t202 -167t108.5 -229.5l68 -321h231zM1829 211l-68 321
q-22 100 -110 173t-189 73q-106 0 -166.5 -76.5t-38.5 -183.5l9 -31q23 -111 118 -190t207 -84z" />
    <glyph glyph-name="uni06C2.fina" unicode="&#x6c2;" horiz-adv-x="1286" 
d="M807 1227l24 -109h-411l-25 109h70q-42 49 -47 92q-8 76 34.5 126t116.5 50q66 0 124 -36.5t89 -96.5l-73 -59q-46 81 -115 81q-32 0 -49 -21.5t-10 -53.5q5 -30 30 -56t62 -26h180zM862 37q-61 -37 -143 -37q-125 0 -246.5 60.5t-207.5 166.5t-111 230l-15 63
q-42 201 64.5 330t308.5 129h473l135 -625q14 -64 60 -103.5t112 -39.5h105q44 0 81.5 -31t49.5 -74q9 -42 -16 -73t-68 -33h-107q-352 0 -417 307l-101 459h-262q-107 0 -170 -68t-39 -178l10 -55q25 -106 117.5 -180t198.5 -74q81 0 127 43z" />
    <glyph glyph-name="uni06C3.fina" unicode="&#x6c3;" horiz-adv-x="1286" 
d="M862 37q-61 -37 -143 -37q-125 0 -246.5 60.5t-207.5 166.5t-111 230l-15 63q-42 201 64.5 330t308.5 129h473l135 -625q14 -64 60 -103.5t112 -39.5h105q44 0 81.5 -31t49.5 -74q9 -42 -16 -73t-68 -33h-107q-352 0 -417 307l-101 459h-262q-107 0 -170 -68t-39 -178
l10 -55q25 -106 117.5 -180t198.5 -74q81 0 127 43z" />
    <glyph glyph-name="uniFB51" unicode="&#x671;" horiz-adv-x="548" arabic-form="final" 
d="M721 0h-94q-131 0 -243 92.5t-140 224.5l-236 1117h211l236 -1117q9 -44 47.5 -75t81.5 -31h92z" />
    <glyph glyph-name="uniFB57" unicode="&#x67e;" horiz-adv-x="1863" arabic-form="final" 
d="M1976 211q43 0 81 -30.5t48 -74.5q9 -44 -17 -75t-69 -31h-71q-154 0 -283 119q-31 -55 -90 -87t-133 -32h-787q-173 0 -320.5 123t-184.5 295l-76 348h213l75 -348q19 -86 91 -146.5t157 -60.5h764q63 0 98 45.5t23 108.5l-129 606h211l131 -609q19 -63 75.5 -107
t119.5 -44h73zM987 -426q-53 0 -99.5 37.5t-56.5 89.5q-12 54 18 91.5t83 37.5q54 0 100 -37.5t58 -91.5q11 -53 -19 -90t-84 -37zM1333 -426q-54 0 -99 37t-56 90q-12 54 17.5 91.5t82.5 37.5q54 0 100 -37.5t58 -91.5q10 -52 -20 -89.5t-83 -37.5zM1225 -745
q-54 0 -99.5 37t-56.5 90q-11 54 18.5 91.5t81.5 37.5q54 0 101 -37.5t57 -91.5q10 -52 -19.5 -89.5t-82.5 -37.5z" />
    <glyph glyph-name="uniFB58" unicode="&#x67e;" horiz-adv-x="718" arabic-form="initial" 
d="M432 0h-282q-44 0 -82.5 31.5t-47.5 74.5q-10 45 15 75t69 30h285q49 0 75 33.5t15 79.5l-137 649h211l137 -649q29 -133 -47 -228.5t-211 -95.5zM383 -426q-53 0 -99.5 37.5t-56.5 89.5q-12 54 18 91.5t83 37.5q54 0 99.5 -37.5t57.5 -91.5q11 -53 -18.5 -90t-83.5 -37z
M729 -426q-53 0 -99.5 37.5t-56.5 89.5q-12 54 18 91.5t83 37.5q54 0 99.5 -37.5t57.5 -91.5q11 -53 -18.5 -90t-83.5 -37zM621 -745q-52 0 -98 37t-58 90q-10 54 19.5 91.5t82.5 37.5q54 0 100 -37.5t56 -91.5q12 -52 -18 -89.5t-84 -37.5z" />
    <glyph glyph-name="uniFB59" unicode="&#x67e;" horiz-adv-x="708" arabic-form="medial" 
d="M819 211q43 0 81 -30.5t48 -74.5q9 -44 -17 -75t-69 -31h-78q-153 0 -282 119q-31 -55 -89 -87t-132 -32h-129q-47 0 -85 30t-47 74q-10 45 15 76t71 31h107q61 0 96 45.5t23 108.5l-88 411h211l90 -414q19 -63 75 -107t119 -44h80zM414 -426q-53 0 -98.5 37.5
t-55.5 89.5q-12 54 16.5 91.5t81.5 37.5q54 0 101 -37.5t59 -91.5q11 -53 -19.5 -90t-84.5 -37zM760 -426q-53 0 -99.5 37.5t-56.5 89.5q-12 54 18 91.5t83 37.5q54 0 99.5 -37.5t57.5 -91.5q11 -53 -18.5 -90t-83.5 -37zM651 -745q-52 0 -97.5 37t-57.5 90
q-10 54 19.5 91.5t82.5 37.5q54 0 100 -37.5t56 -91.5q12 -52 -18.5 -89.5t-84.5 -37.5z" />
    <glyph glyph-name="uniFB67" unicode="&#x679;" horiz-adv-x="1863" arabic-form="final" 
d="M545 1026l-21 96h78l-74 344h97l43 -204q57 71 129 71q75 0 124 -47t68 -137l27 -123h-471zM805 1237q-61 0 -115 -78l6 -22l2 -15h203l-6 31q-9 40 -32.5 62t-57.5 22zM2105 106q9 -44 -17 -75t-69 -31h-71q-154 0 -283 119q-31 -55 -90 -87t-133 -32h-787
q-173 0 -320.5 123t-184.5 295l-76 348h213l75 -348q19 -86 91 -146.5t157 -60.5h764q63 0 98 45.5t23 108.5l-129 606h211l131 -609q19 -63 75.5 -107t119.5 -44h73q43 0 81 -30.5t48 -74.5z" />
    <glyph glyph-name="uniFB68" unicode="&#x679;" horiz-adv-x="579" arabic-form="initial" 
d="M25 1153l-21 96h78l-74 344h96l43 -204q57 71 129 71q75 0 124.5 -47t68.5 -137l27 -123h-471zM285 1364q-61 0 -115 -78l6 -22l2 -15h203l-6 31q-9 40 -32.5 62t-57.5 22zM547 324q29 -133 -46.5 -228.5t-209.5 -95.5h-144q-44 0 -82 31.5t-47 74.5q-10 45 15 75t69 30
h146q47 0 73 33.5t15 79.5l-137 649h211z" />
    <glyph glyph-name="uniFB69" unicode="&#x679;" horiz-adv-x="708" arabic-form="medial" 
d="M63 1057l-20 96h78l-74 344h96l43 -205q58 72 129 72q75 0 124.5 -47t68.5 -137l27 -123h-472zM324 1268q-61 0 -115 -78l6 -23l2 -14h203l-6 31q-9 40 -32.5 62t-57.5 22zM946 106q9 -44 -17 -75t-69 -31h-78q-153 0 -282 119q-31 -55 -89 -87t-132 -32h-129
q-47 0 -85 30t-47 74q-10 45 15 76t71 31h107q61 0 96 45.5t23 108.5l-88 411h211l90 -414q19 -63 75 -107t119 -44h80q43 0 81 -30.5t48 -74.5z" />
    <glyph glyph-name="uniFB6B" unicode="&#x6a4;" horiz-adv-x="2097" arabic-form="final" 
d="M1290 1683q53 0 99.5 -37.5t58.5 -89.5q11 -53 -20 -91t-85 -38q-52 0 -97 38t-56 91q-12 53 17 90t83 37zM1188 1366q54 0 99 -37t56 -90q12 -54 -17.5 -91.5t-82.5 -37.5q-54 0 -100 37.5t-58 91.5q-10 52 20 89.5t83 37.5zM1532 1366q54 0 101 -37.5t57 -89.5
q11 -54 -19 -91.5t-84 -37.5q-53 0 -99 37.5t-56 91.5q-11 53 18.5 90t81.5 37zM2218 211l45 -211h-1554q-124 0 -242.5 62t-203 168t-111.5 231l-66 305h211l63 -305q23 -104 112 -176t192 -72h579q-70 47 -118.5 117t-65.5 153l-8 39q-26 125 15 230.5t135 166t218 60.5
q124 1 242.5 -60.5t202 -167t110.5 -229.5l64 -311h180zM1829 211l-66 311q-22 101 -109.5 173.5t-189.5 72.5q-106 0 -166.5 -76.5t-37.5 -183.5l8 -31q23 -110 116.5 -184.5t206.5 -79.5z" />
    <glyph glyph-name="uniFB6C" unicode="&#x6a4;" horiz-adv-x="1169" arabic-form="initial" 
d="M487 1683q54 0 101 -37.5t57 -89.5q11 -53 -19.5 -91t-84.5 -38q-52 0 -97.5 38t-56.5 91t18.5 90t81.5 37zM385 1366q54 0 100 -37t58 -90q11 -54 -19 -91.5t-84 -37.5q-53 0 -99 37.5t-56 91.5q-12 52 17.5 89.5t82.5 37.5zM731 1366q54 0 99.5 -37t56.5 -90
q12 -54 -17.5 -91.5t-83.5 -37.5q-53 0 -99 37.5t-58 91.5q-10 52 19.5 89.5t82.5 37.5zM530 979h457l176 -823q14 -65 -22.5 -110.5t-100.5 -45.5h-909l-45 211h252q-60 46 -104.5 115t-61.5 145l-12 61q-39 188 70 316.5t300 130.5zM934 246l-115 532h-246
q-106 0 -166 -76.5t-38 -183.5l14 -55q25 -104 116 -178t195 -74h213q13 0 21.5 10.5t5.5 24.5z" />
    <glyph glyph-name="uniFB6D" unicode="&#x6a4;" horiz-adv-x="1239" arabic-form="medial" 
d="M422 1683q53 0 99.5 -37.5t58.5 -89.5q11 -53 -20 -91t-85 -38q-52 0 -97 38t-56 91q-12 53 17 90t83 37zM319 1366q54 0 99.5 -37t56.5 -90q12 -54 -17.5 -91.5t-82.5 -37.5q-54 0 -100 37.5t-58 91.5q-10 52 19.5 89.5t82.5 37.5zM664 1366q54 0 100.5 -37.5
t56.5 -89.5q11 -54 -18.5 -91.5t-83.5 -37.5q-53 0 -99.5 38t-56.5 91q-11 53 19 90t82 37zM1153 211h207l45 -211h-1268l-45 211h268q-126 96 -163 248l-13 61q-26 124 15 230t135.5 167t218.5 62q189 0 351 -135t202 -324l51 -237q10 -44 -4 -72zM930 211q13 0 20.5 10.5
t3.5 24.5l-57 274q-22 102 -109.5 174t-189.5 72q-106 0 -166.5 -76.5t-38.5 -183.5l13 -53q23 -104 114 -173t197 -69h213z" />
    <glyph glyph-name="uniFB7B" unicode="&#x686;" horiz-adv-x="1490" arabic-form="final" 
d="M694 0q-96 0 -149 -68.5t-31 -164.5q20 -97 102 -165.5t179 -68.5h415l45 -211h-417q-184 0 -341.5 130t-197.5 315q-38 185 64 314.5t286 129.5h596q-22 11 -47 45.5t-33 71.5l-12 67q-52 206 -186 289q-82 56 -192 73t-196.5 5t-160.5 -39l-133 188q83 33 173.5 50
t192.5 18t209 -29.5t201 -91.5q228 -157 301 -465l14 -67q8 -43 41 -79t76 -36h197l43 -211h-1039zM743 -233q-25 0 -48 17.5t-27 43.5q-6 28 8.5 47t40.5 19t49 -19t29 -47q6 -26 -9 -43.5t-43 -17.5zM928 -233q-27 0 -49.5 17.5t-28.5 43.5q-5 28 9 47t40 19
q27 0 50.5 -19.5t27.5 -46.5q6 -26 -8.5 -43.5t-40.5 -17.5zM870 -403q-26 0 -48.5 18.5t-26.5 44.5q-6 26 8.5 45t40.5 19t49 -19t29 -45t-9.5 -44.5t-42.5 -18.5z" />
    <glyph glyph-name="uniFB7C" unicode="&#x686;" horiz-adv-x="1296" arabic-form="initial" 
d="M1341 0h-1191q-43 0 -82 31t-48 75q-9 43 16 74t68 31h910q-31 19 -55 49t-31 66l-13 59q-46 210 -190 303q-66 44 -145.5 64.5t-155.5 17t-139 -15.5t-119 -33l-125 190q110 45 232.5 62t270.5 -10.5t273 -108.5q237 -151 301 -457l17 -69q10 -52 46 -84.5t83 -32.5h32z
M647 -426q-53 0 -98 37.5t-55 89.5q-12 54 17 91.5t83 37.5q53 0 99.5 -37.5t58.5 -91.5q11 -53 -20 -90t-85 -37zM993 -426q-53 0 -99 37.5t-56 89.5q-12 54 17.5 91.5t82.5 37.5q54 0 100 -37.5t58 -91.5q11 -53 -19 -90t-84 -37zM885 -745q-52 0 -98 37t-58 90
q-10 54 19.5 91.5t82.5 37.5q54 0 100 -37.5t56 -91.5q12 -52 -18 -89.5t-84 -37.5z" />
    <glyph glyph-name="uniFB7D" unicode="&#x686;" horiz-adv-x="1267" arabic-form="medial" 
d="M1456 0h-1306q-43 0 -82 31t-48 75q-9 43 16 74t68 31h895q-71 40 -86 115l-14 59q-42 207 -188 301q-85 57 -197 73t-196 3t-156 -39l-117 190q96 45 219 60.5t270.5 -12.5t268.5 -107q104 -67 185.5 -180.5t115.5 -278.5l14 -67q10 -52 46 -84.5t83 -32.5h164z
M672 -426q-53 0 -99.5 37.5t-56.5 89.5q-12 54 17.5 91.5t82.5 37.5q54 0 100 -37.5t58 -91.5q11 -53 -18.5 -90t-83.5 -37zM1016 -426q-53 0 -98.5 37.5t-55.5 89.5q-12 54 17.5 91.5t83.5 37.5q53 0 99 -37.5t58 -91.5q11 -53 -19.5 -90t-84.5 -37zM907 -745
q-53 0 -98 37.5t-55 89.5q-11 54 18.5 91.5t81.5 37.5q54 0 101 -37.5t57 -91.5q11 -53 -20 -90t-85 -37z" />
    <glyph glyph-name="uniFB89" unicode="&#x688;" horiz-adv-x="1267" arabic-form="final" 
d="M356 1174l-20 96h78l-74 344h96l43 -205q58 72 129 72q75 0 124.5 -47.5t68.5 -137.5l26 -122h-471zM616 1384q-61 0 -114 -77l6 -23l2 -14h203l-6 30q-9 40 -33 62t-58 22zM1507 104q9 -43 -15 -73.5t-69 -30.5h-49q-189 0 -348 127q-40 -59 -105.5 -93t-144.5 -34h-540
l-46 211h543q73 0 96 51q37 53 5 121l-285 594l188 55l291 -600q0 -4 4 -8l8 -18q40 -87 119.5 -141t169.5 -54h49q45 0 82.5 -31.5t46.5 -75.5z" />
    <glyph glyph-name="uniFB8B" unicode="&#x698;" horiz-adv-x="761" arabic-form="final" 
d="M197 1710q54 0 100.5 -37.5t56.5 -89.5q11 -54 -18.5 -91.5t-83.5 -37.5q-53 0 -99.5 38t-56.5 91q-11 53 19 90t82 37zM94 1391q54 0 99.5 -37t56.5 -90q12 -53 -17 -91t-83 -38q-52 0 -99 38t-59 91q-10 52 19.5 89.5t82.5 37.5zM440 1391q54 0 99.5 -37t56.5 -90
q12 -52 -17.5 -90.5t-82.5 -38.5q-54 0 -100 38t-58 91q-10 52 19.5 89.5t82.5 37.5zM872 211q44 0 81.5 -30.5t47.5 -76.5q9 -44 -15.5 -74t-67.5 -30h-66q-56 0 -111.5 21t-95.5 57l17 -90q16 -103 -3 -185.5t-68.5 -139.5t-120 -93.5t-161.5 -54.5l-119 200
q46 9 81.5 20.5t70.5 30t56.5 42t38.5 57t16.5 75t-9.5 95.5l-198 938h209l120 -572q17 -78 85.5 -134t146.5 -56h65z" />
    <glyph glyph-name="uniFB8D" unicode="&#x691;" horiz-adv-x="761" arabic-form="final" 
d="M84 1169l-21 97h78l-73 344h96l43 -205q58 72 129 72q75 0 124 -47t68 -138l27 -123h-471zM344 1380q-62 0 -115 -77l7 -23l2 -14h202l-6 30q-9 40 -32.5 62t-57.5 22zM1001 104q9 -44 -15.5 -74t-67.5 -30h-66q-56 0 -111.5 21t-95.5 57l17 -90q16 -103 -3 -185.5
t-68.5 -139.5t-120 -93.5t-161.5 -54.5l-119 200q46 9 81.5 20.5t70.5 30t56.5 42t38.5 57t16.5 75t-9.5 95.5l-198 938h209l120 -572q17 -78 85.5 -134t146.5 -56h65q44 0 81.5 -30.5t47.5 -76.5z" />
    <glyph glyph-name="uniFB8F" unicode="&#x6a9;" horiz-adv-x="2093" arabic-form="final" 
d="M2263 2l-866 -2h-731q-173 0 -321 122t-185 294l-74 348h215l74 -348q19 -86 90 -145.5t156 -59.5h1163l-49 233q-29 135 -144.5 229.5t-249.5 94.5h-483l-166 238l297 587l199 -123l-248 -489h371q141 0 276 -70t230.5 -190.5t126.5 -263.5l51 -246h225z" />
    <glyph glyph-name="uniFB90" unicode="&#x6a9;" horiz-adv-x="1413" arabic-form="initial" 
d="M711 981q141 0 275.5 -70t230 -190.5t126.5 -263.5l68 -316q12 -59 -20.5 -100t-90.5 -41h-1169l-45 211h1051q19 0 30 14.5t7 34.5l-37 184q-29 134 -145.5 229t-250.5 95h-487l-203 233l291 578l201 -123l-242 -475h410z" />
    <glyph glyph-name="uniFB91" unicode="&#x6a9;" horiz-adv-x="1425" arabic-form="medial" 
d="M1552 211l45 -209l-1466 -2l-45 211h1030l-49 233q-29 135 -144 229.5t-249 94.5h-481l-166 238l295 587l198 -123l-248 -489h371q141 0 276 -70t230.5 -190.5t126.5 -263.5l51 -246h225z" />
    <glyph glyph-name="uniFB93" unicode="&#x6af;" horiz-adv-x="2093" arabic-form="final" 
d="M868 1642l-286 -546l-86 65l284 539zM2263 2l-866 -2h-731q-173 0 -321 122t-185 294l-74 348h215l74 -348q19 -86 90 -145.5t156 -59.5h1163l-49 233q-29 135 -144.5 229.5t-249.5 94.5h-483l-166 238l297 587l199 -123l-248 -489h371q141 0 276 -70t230.5 -190.5
t126.5 -263.5l51 -246h225z" />
    <glyph glyph-name="uniFB94" unicode="&#x6af;" horiz-adv-x="1413" arabic-form="initial" 
d="M-135 1137l285 538l88 -57l-289 -545zM711 981q141 0 275.5 -70t230 -190.5t126.5 -263.5l97 -457h-1309l-45 211h1098l-47 233q-29 134 -145.5 229t-250.5 95h-487l-203 233l291 578l201 -123l-242 -475h410z" />
    <glyph glyph-name="uniFB95" unicode="&#x6af;" horiz-adv-x="1425" arabic-form="medial" 
d="M127 1686l88 -58l-289 -545l-82 64zM1552 211l45 -209l-1466 -2l-45 211h1030l-49 233q-29 135 -144 229.5t-249 94.5h-481l-166 238l295 587l198 -123l-248 -489h371q141 0 276 -70t230.5 -190.5t126.5 -263.5l51 -246h225z" />
    <glyph glyph-name="uniFB9F" unicode="&#x6ba;" horiz-adv-x="1505" arabic-form="final" 
d="M1616 211q44 0 83 -31.5t48 -75.5t-16 -74t-70 -30h-107q-40 0 -79 18.5t-62 49.5l62 -291q15 -72 -24.5 -123t-111.5 -51h-477q-144 0 -280.5 71t-232.5 192.5t-126 264.5l-71 332h210l70 -332q28 -131 140.5 -224t244.5 -93h367q30 0 47 19.5t12 49.5l-229 1073h209
l131 -618q15 -53 59.5 -90t95.5 -37h107z" />
    <glyph glyph-name="uniFBA7" unicode="&#x6c1;" horiz-adv-x="1286" arabic-form="final" 
d="M862 37q-61 -37 -143 -37q-125 0 -246.5 60.5t-207.5 166.5t-111 230l-15 63q-42 201 64.5 330t308.5 129h473l135 -625q14 -64 60 -103.5t112 -39.5h105q44 0 81.5 -31t49.5 -74q9 -42 -16 -73t-68 -33h-107q-352 0 -417 307l-101 459h-262q-107 0 -170 -68t-39 -178
l10 -55q25 -106 117.5 -180t198.5 -74q81 0 127 43z" />
    <glyph glyph-name="uniFBA8" unicode="&#x6c1;" horiz-adv-x="579" arabic-form="initial" 
d="M293 0h-143q-44 0 -82.5 31.5t-47.5 74.5q-10 45 15 75t69 30h146q47 0 73 33.5t15 79.5l-137 649h211l137 -649q29 -133 -46.5 -228.5t-209.5 -95.5z" />
    <glyph glyph-name="uniFBA9" unicode="&#x6c1;" horiz-adv-x="1343" arabic-form="medial" 
d="M1317 0l8 -33q41 -191 -66 -307.5t-327 -116.5q-187 0 -353 121.5t-231 302.5l-10 33h-207l-45 211h197l-52 246q-28 134 10.5 250.5t131.5 187.5t219 76q207 9 393 -135q87 -68 146 -162t81 -195q34 -150 -28 -268h8h281l43 -211h-199zM496 211h215q58 0 113 15
t102.5 45.5t70 85t7.5 124.5q-26 126 -132 203q-95 79 -223 76q-110 -4 -171 -93.5t-36 -209.5zM889 -248q119 0 180 75t37 185l-14 70q-2 6 -2 16q-128 -98 -334 -98h-201l10 -27q38 -96 130 -158.5t194 -62.5z" />
    <glyph glyph-name="uniFBAB" unicode="&#x6be;" horiz-adv-x="1476" arabic-form="final" 
d="M1450 0l8 -33q41 -191 -66 -307.5t-327 -116.5q-187 0 -353 121.5t-231 302.5l-10 33h-207l-45 211h197l-51 246q-28 134 10 250.5t131 187.5t219 76q207 9 393 -135q87 -68 146.5 -162t81.5 -195q34 -149 -29 -268h8h281l43 -211h-199zM629 211h215q58 0 113 15
t102.5 45.5t70 85t7.5 124.5q-26 126 -131 203q-95 79 -224 76q-110 -4 -171 -93.5t-36 -209.5zM1022 -248q119 0 180 75t37 185l-14 70q-2 6 -2 16q-128 -98 -334 -98h-201l10 -27q38 -96 130 -158.5t194 -62.5z" />
    <glyph glyph-name="uniFBAC" unicode="&#x6be;" horiz-adv-x="1546" arabic-form="initial" 
d="M686 1200q190 -39 356.5 -150t286.5 -283.5t164 -377.5l35 -170q19 -91 -31 -155t-139 -64h-1227l-45 211h262q-58 43 -102.5 112t-61.5 144q-36 174 70 288.5t291 114.5q189 0 348.5 -135.5t200.5 -328.5l24 -117q9 -45 4 -78h154q19 0 29 12t6 31l-29 135
q-49 230 -209.5 395t-374.5 209q-166 35 -333 35l-41 207q134 -1 196.5 -7.5t165.5 -27.5zM588 659q-91 0 -149.5 -62.5t-39.5 -158.5q22 -98 100.5 -162.5t159.5 -64.5h218q20 0 31 13t7 34l-34 166q-18 88 -104.5 161t-188.5 74z" />
    <glyph glyph-name="uniFBAD" unicode="&#x6be;" horiz-adv-x="1343" arabic-form="medial" 
d="M1317 0l8 -33q41 -191 -66 -307.5t-327 -116.5q-187 0 -353 121.5t-231 302.5l-10 33h-207l-45 211h197l-52 246q-28 134 10.5 250.5t131.5 187.5t219 76q207 9 393 -135q87 -68 146 -162t81 -195q34 -150 -28 -268h8h281l43 -211h-199zM496 211h215q58 0 113 15
t102.5 45.5t70 85t7.5 124.5q-26 126 -132 203q-95 79 -223 76q-110 -4 -171 -93.5t-36 -209.5zM889 -248q119 0 180 75t37 185l-14 70q-2 6 -2 16q-128 -98 -334 -98h-201l10 -27q38 -96 130 -158.5t194 -62.5z" />
    <glyph glyph-name="uniFBAF" unicode="&#x6d2;" horiz-adv-x="1308" arabic-form="final" 
d="M571 201h867l45 -211h-867q-72 0 -96 -53q-30 -54 -2 -117l172 -361l-190 -57l-174 362q-37 83 -36.5 162.5t38.5 143.5q36 62 99 96.5t144 34.5z" />
    <glyph glyph-name="uniFBB1" unicode="&#x6d3;" horiz-adv-x="1308" arabic-form="final" 
d="M713 449l24 -109h-411l-25 109h70q-42 49 -47 94q-8 75 34.5 125.5t116.5 50.5q67 0 124.5 -37t88.5 -98l-74 -60q-47 82 -114 82q-32 0 -49.5 -22t-10.5 -54q5 -30 29.5 -55.5t62.5 -25.5h181zM571 201h867l45 -211h-867q-72 0 -96 -53q-30 -54 -2 -117l172 -361
l-190 -57l-174 362q-37 83 -36.5 162.5t38.5 143.5q36 62 99 96.5t144 34.5z" />
    <glyph glyph-name="uniFBFD" unicode="&#x6cc;" horiz-adv-x="1800" arabic-form="final" 
d="M1909 211q44 0 82 -29.5t47 -72.5q10 -44 -15.5 -76.5t-70.5 -32.5q-93 0 -193 20q61 -55 74 -131q35 -161 -55 -275t-250 -114h-631q-149 0 -291.5 73.5t-243 199.5t-131.5 274l-75 359h213l75 -359q29 -138 149 -237t259 -99h631q72 0 113 53t24 125
q-12 64 -59.5 115.5t-114.5 71.5l-334 123l53 194q234 -93 269 -104q242 -78 475 -78z" />
    <glyph glyph-name="uniFBFE" unicode="&#x6cc;" horiz-adv-x="763" arabic-form="initial" 
d="M477 0h-327q-44 0 -82.5 31.5t-47.5 74.5q-10 45 15 75t69 30h330q49 0 75 33.5t15 79.5l-137 649h211l137 -649q28 -134 -47.5 -229t-210.5 -95zM362 -186q52 0 98.5 -38t57.5 -89q11 -54 -18.5 -91.5t-83.5 -37.5q-53 0 -99.5 38t-56.5 91q-11 52 19 89.5t83 37.5z
M713 -186q53 0 98.5 -37.5t56.5 -89.5q12 -54 -18 -91.5t-84 -37.5q-53 0 -98.5 37.5t-57.5 91.5q-11 51 20 89t83 38z" />
    <glyph glyph-name="uniFBFF" unicode="&#x6cc;" horiz-adv-x="813" arabic-form="medial" 
d="M924 211q44 0 82.5 -30.5t48.5 -74.5q9 -44 -17 -75t-69 -31h-148q-153 0 -282 119q-31 -55 -89.5 -87t-132.5 -32h-165q-47 0 -85 30t-47 76q-10 44 15 74.5t71 30.5h144q62 0 97 45.5t22 108.5l-95 436h213l95 -439q19 -63 75 -107t119 -44h148zM403 -186
q54 0 99.5 -38t56.5 -89q12 -54 -18 -91.5t-84 -37.5q-53 0 -98.5 37.5t-57.5 91.5q-11 51 19.5 89t82.5 38zM754 -186q54 0 100 -38t57 -89q10 -54 -20 -91.5t-84 -37.5q-53 0 -98.5 37.5t-55.5 91.5q-11 51 19 89t82 38z" />
    <glyph glyph-name="uniFE82" unicode="&#x622;" horiz-adv-x="569" arabic-form="final" 
d="M-147 1647l-76 71l117 94q10 9 28 7.5t31 -13.5q73 -63 207 -63q60 0 162 47l63 -107q-40 -22 -100.5 -40.5t-100.5 -18.5q-123 0 -233 78q-18 14 -29 0zM741 0h-94q-131 0 -243 92.5t-140 224.5l-235 1115h211l235 -1115q9 -44 47 -75t82 -31h92z" />
    <glyph glyph-name="uniFE84" unicode="&#x623;" horiz-adv-x="555" arabic-form="final" 
d="M276 1659l23 -111h-412l-22 111h69q-38 45 -47 92q-9 75 34 125.5t118 50.5q67 0 124.5 -37t88.5 -98l-76 -57q-44 80 -113 80q-32 0 -49.5 -21t-11.5 -55q7 -30 32 -55t62 -25h180zM721 0h-94q-131 0 -243 92.5t-140 224.5l-236 1117h211l236 -1117q9 -44 47.5 -75
t81.5 -31h92z" />
    <glyph glyph-name="uniFE86" unicode="&#x624;" horiz-adv-x="1212" arabic-form="final" 
d="M348 1153l-22 111h67q-37 51 -45 92q-8 74 35 125t117 51q66 0 124 -37.5t87 -97.5l-74 -60q-43 82 -113 82q-34 0 -51 -21t-10 -55q7 -30 32 -54.5t62 -24.5h180l23 -111h-412zM1352 0h-178q35 -201 -76 -330q-86 -101 -220 -134.5t-403 -33.5l-43 211h120.5t113 6
t102 16.5t87.5 33t69 55.5q46 52 34 143l-4 33h-227q-202 0 -370.5 144t-211.5 350q-28 133 11 244.5t135 176t229 64.5h447l161 -768h179zM915 211l-116 555h-234q-115 0 -175.5 -78t-35.5 -194q26 -119 120.5 -201t207.5 -82h233z" />
    <glyph glyph-name="uniFE88" unicode="&#x625;" horiz-adv-x="565" arabic-form="final" 
d="M721 0h-94q-131 0 -243 92.5t-140 224.5l-236 1110h211l236 -1110q9 -44 47.5 -75t81.5 -31h92q44 0 82 -31.5t47 -75.5q9 -43 -16 -73.5t-68 -30.5zM727 -410l23 -110h-412l-23 110h68q-40 54 -45 93q-8 76 34.5 126t116.5 50q66 0 124 -36.5t89 -96.5l-75 -60
q-45 82 -115 82q-32 0 -48.5 -21.5t-10.5 -54.5q7 -30 32 -56t62 -26h180z" />
    <glyph glyph-name="uniFE8A" unicode="&#x626;" horiz-adv-x="1800" arabic-form="final" 
d="M418 641l24 -111h-411l-25 111h70q-40 55 -45 92q-8 76 34.5 126t116.5 50q66 0 123 -37t88 -98l-74 -57q-47 80 -112 80q-33 0 -50.5 -21.5t-11.5 -54.5q5 -29 30 -54.5t63 -25.5h180zM1909 211q44 0 82 -29.5t47 -72.5q10 -44 -15.5 -76.5t-70.5 -32.5q-93 0 -193 20
q61 -55 74 -131q35 -161 -55 -275t-250 -114h-631q-149 0 -291.5 73.5t-243 199.5t-131.5 274l-75 359h213l75 -359q29 -138 149 -237t259 -99h631q72 0 113 53t24 125q-12 64 -59.5 115.5t-114.5 71.5l-334 123l53 194q234 -93 269 -104q242 -78 475 -78z" />
    <glyph glyph-name="uniFE8B" unicode="&#x626;" horiz-adv-x="645" arabic-form="initial" 
d="M498 1237l22 -111h-411l-23 111h68q-39 46 -45 92q-9 74 34 125t117 51q66 0 124 -37.5t87 -97.5l-74 -59q-43 82 -112 82q-34 0 -51.5 -21.5t-10.5 -54.5q7 -30 32 -55t62 -25h181zM330 0h-180q-44 0 -82.5 31.5t-47.5 74.5q-10 45 15 75t69 30h183q49 0 74 33t14 80
l-137 649h213l137 -649q29 -133 -47 -228.5t-211 -95.5z" />
    <glyph glyph-name="uniFE8C" unicode="&#x626;" horiz-adv-x="708" arabic-form="medial" 
d="M496 1087l22 -108h-412l-22 108h70q-43 50 -48 93q-8 76 35 126t117 50q66 0 124 -36.5t89 -96.5l-76 -60q-43 82 -112 82q-32 0 -50 -22t-12 -54q7 -30 32 -56t62 -26h181zM819 211q43 0 81 -30.5t48 -74.5q9 -44 -17 -75t-69 -31h-78q-153 0 -282 119q-31 -55 -89 -87
t-132 -32h-129q-47 0 -85 30t-47 76q-10 44 15 74.5t71 30.5h107q61 0 96 45.5t23 108.5l-94 436h213l94 -439q19 -63 75 -107t119 -44h80z" />
    <glyph glyph-name="uniFE8E" unicode="&#x627;" horiz-adv-x="569" arabic-form="final" 
d="M741 0h-94q-131 0 -243 92.5t-140 224.5l-235 1115h211l235 -1115q9 -44 47 -75t82 -31h92z" />
    <glyph glyph-name="uniFE90" unicode="&#x628;" horiz-adv-x="1875" arabic-form="final" 
d="M1987 211q45 0 82.5 -30.5t46.5 -74.5t-16.5 -75t-69.5 -31h-82q-154 0 -283 119q-31 -55 -90 -87t-133 -32h-787q-173 0 -320.5 123t-184.5 295l-80 362h215l77 -362q19 -86 91 -146.5t157 -60.5h764q63 0 98 45.5t23 108.5l-131 614h213l131 -617q19 -63 75.5 -107
t119.5 -44h84zM1100 -186q54 0 100 -38t57 -89q10 -54 -19.5 -91.5t-82.5 -37.5q-54 0 -100 37.5t-56 91.5q-11 51 19 89t82 38z" />
    <glyph glyph-name="uniFE91" unicode="&#x628;" horiz-adv-x="610" arabic-form="initial" 
d="M330 0h-180q-44 0 -82.5 31.5t-47.5 74.5q-10 45 15 75t69 30h183q49 0 74 33t14 80l-137 655h211l139 -655q29 -133 -47 -228.5t-211 -95.5zM330 -313q-11 51 19.5 89t82.5 38q54 0 99.5 -38t56.5 -89q12 -54 -18.5 -91.5t-84.5 -37.5q-53 0 -98 37.5t-57 91.5z" />
    <glyph glyph-name="uniFE92" unicode="&#x628;" horiz-adv-x="667" arabic-form="medial" 
d="M778 211q44 0 82.5 -30.5t48.5 -74.5q9 -44 -17 -75t-69 -31h-69q-154 0 -283 119q-31 -55 -89 -87t-132 -32h-98q-47 0 -85 30t-47 74q-10 45 15 76t71 31h76q61 0 96 45.5t23 108.5l-90 415h213l90 -418q19 -63 75.5 -107t119.5 -44h69zM418 -313q-11 51 19.5 89
t82.5 38q54 0 99.5 -38t56.5 -89q12 -54 -18.5 -91.5t-84.5 -37.5q-53 0 -98 37.5t-57 91.5z" />
    <glyph glyph-name="uniFE94" unicode="&#x629;" horiz-adv-x="1277" arabic-form="final" 
d="M340 1407q54 0 100 -37t58 -90q11 -54 -19 -91.5t-84 -37.5q-53 0 -99 37.5t-56 91.5q-12 52 17.5 89.5t82.5 37.5zM686 1407q54 0 99.5 -37t56.5 -90q12 -54 -17.5 -91.5t-83.5 -37.5q-53 0 -99 37.5t-58 91.5q-10 52 19.5 89.5t82.5 37.5zM1397 211q44 0 81.5 -31
t49.5 -74q9 -42 -16 -73t-68 -33h-107q-88 0 -171.5 44.5t-143.5 119.5q-42 -75 -122 -119.5t-181 -44.5q-125 0 -246.5 60.5t-207.5 166.5t-111 230l-15 63q-42 201 64.5 330t308.5 129h473l135 -625q14 -64 60 -103.5t112 -39.5h105zM674 211q109 0 170.5 77.5t38.5 186.5
l-62 289l-264 2q-107 2 -170 -67t-39 -179l10 -55q25 -106 117.5 -180t198.5 -74z" />
    <glyph glyph-name="uniFE96" unicode="&#x62a;" horiz-adv-x="1863" arabic-form="final" 
d="M578 1233q54 0 99.5 -37t57.5 -90q11 -54 -18.5 -91.5t-83.5 -37.5q-53 0 -99.5 38t-56.5 91q-12 52 18 89.5t83 37.5zM924 1233q54 0 99 -37t56 -90q11 -54 -17.5 -91.5t-82.5 -37.5q-53 0 -100.5 38t-57.5 91q-10 52 20 89.5t83 37.5zM1974 211q43 0 81 -30.5t48 -74.5
q9 -44 -17 -75t-69 -31h-69q-154 0 -283 119q-31 -55 -90 -87t-133 -32h-787q-173 0 -320.5 123t-184.5 295l-80 362h215l77 -362q19 -86 91 -146.5t157 -60.5h764q63 0 98 45.5t23 108.5l-131 614h213l131 -617q19 -63 75.5 -107t119.5 -44h71z" />
    <glyph glyph-name="uniFE97" unicode="&#x62a;" horiz-adv-x="804" arabic-form="initial" 
d="M84 1413q52 0 98.5 -38t57.5 -89q11 -54 -19 -91.5t-84 -37.5q-53 0 -99 37.5t-56 91.5q-11 52 19 89.5t83 37.5zM428 1413q54 0 99.5 -38t56.5 -89q12 -54 -17.5 -91.5t-83.5 -37.5q-53 0 -99 37.5t-58 91.5q-11 51 19.5 89t82.5 38zM385 0h-235q-44 0 -82.5 31.5
t-47.5 74.5q-10 45 15 75t69 30h238q49 0 74 33t14 80l-137 655h211l139 -655q28 -134 -47.5 -229t-210.5 -95z" />
    <glyph glyph-name="uniFE98" unicode="&#x62a;" horiz-adv-x="749" arabic-form="medial" 
d="M90 1249q54 0 101 -37.5t57 -89.5q11 -53 -19 -91t-84 -38q-53 0 -99 38.5t-56 90.5q-11 53 18.5 90t81.5 37zM436 1249q54 0 101 -37.5t57 -89.5q11 -53 -19.5 -91t-82.5 -38q-54 0 -99.5 38t-56.5 91t18.5 90t81.5 37zM860 211q44 0 82.5 -30.5t48.5 -74.5
q9 -44 -17 -75t-69 -31h-98q-154 0 -283 119q-31 -55 -89 -87t-132 -32h-151q-47 0 -85 30t-47 74q-10 45 15 76t71 31h130q62 0 96.5 45.5t21.5 108.5l-90 415h213l90 -418q19 -63 75.5 -107t119.5 -44h98z" />
    <glyph glyph-name="uniFE9A" unicode="&#x62b;" horiz-adv-x="1882" arabic-form="final" 
d="M657 1552q52 0 98.5 -38t57.5 -89q12 -54 -18 -91.5t-84 -37.5q-53 0 -98.5 37.5t-57.5 91.5q-11 52 19 89.5t83 37.5zM555 1233q54 0 99.5 -37t56.5 -90q10 -54 -19 -91.5t-82 -37.5q-54 0 -100.5 37.5t-56.5 91.5q-10 52 19.5 89.5t82.5 37.5zM899 1233q54 0 101 -37.5
t57 -89.5q11 -54 -19 -91.5t-84 -37.5q-53 0 -99 37.5t-56 91.5q-11 53 18.5 90t81.5 37zM2001 211q43 0 81.5 -30.5t47.5 -74.5t-16.5 -75t-69.5 -31h-96q-154 0 -283 119q-31 -55 -90 -87t-133 -32h-787q-173 0 -320.5 123t-184.5 295l-74 344h213l73 -344
q19 -86 91 -146.5t157 -60.5h764q63 0 98 45.5t23 108.5l-131 608h213l131 -611q19 -63 75.5 -107t119.5 -44h98z" />
    <glyph glyph-name="uniFE9B" unicode="&#x62b;" horiz-adv-x="796" arabic-form="initial" 
d="M176 1726q54 0 101 -37.5t59 -89.5q10 -54 -20.5 -91.5t-84.5 -37.5q-53 0 -98 37.5t-55 91.5q-12 52 16.5 89.5t81.5 37.5zM76 1407q53 0 99 -37.5t56 -89.5q11 -54 -18.5 -91.5t-83.5 -37.5q-53 0 -99.5 38t-56.5 91q-11 53 19 90t84 37zM420 1407q54 0 100 -37t58 -90
q11 -54 -19 -91.5t-84 -37.5q-53 0 -99.5 38t-56.5 91q-12 52 18 89.5t83 37.5zM371 0h-221q-44 0 -82.5 31.5t-47.5 74.5q-10 45 15 75t69 30h224q49 0 75 33.5t15 79.5l-139 655h210l140 -655q29 -133 -47 -228.5t-211 -95.5z" />
    <glyph glyph-name="uniFE9C" unicode="&#x62b;" horiz-adv-x="772" arabic-form="medial" 
d="M201 1567q53 0 99 -37.5t56 -89.5q11 -53 -18.5 -91t-83.5 -38q-53 0 -99.5 38.5t-56.5 90.5q-11 53 19 90t84 37zM96 1249q54 0 101 -37.5t57 -89.5q12 -54 -18 -91.5t-84 -37.5q-53 0 -98.5 37.5t-57.5 91.5q-11 53 18.5 90t81.5 37zM442 1249q54 0 101 -37.5t57 -89.5
q11 -54 -18.5 -91.5t-83.5 -37.5q-53 0 -99.5 38t-56.5 91q-11 53 18.5 90t81.5 37zM885 211q43 0 81 -30.5t48 -74.5q9 -44 -17 -75t-69 -31h-99q-153 0 -282 119q-31 -55 -90 -87t-133 -32h-172q-47 0 -85 30t-47 74q-10 45 15 76t71 31h150q63 0 98 45.5t23 108.5
l-90 415h213l90 -418q19 -63 75 -107t119 -44h101z" />
    <glyph glyph-name="uniFE9E" unicode="&#x62c;" horiz-adv-x="1490" arabic-form="final" 
d="M694 0q-96 0 -149 -68.5t-31 -164.5q20 -97 102 -165.5t179 -68.5h415l45 -211h-417q-184 0 -341.5 130t-197.5 315q-38 185 64 314.5t286 129.5h596q-22 11 -47 45.5t-33 71.5l-12 65q-51 207 -184 291q-63 42 -141.5 62.5t-153.5 18.5t-139 -13.5t-117 -30.5l-131 188
q82 33 172 50.5t192 18.5t209 -29.5t201 -92.5q228 -157 301 -463l14 -67q8 -43 41 -79t76 -36h197l43 -211h-1039zM784 -123q51 0 94 -35t52 -82q12 -50 -16 -85t-78 -35t-92 34.5t-54 85.5q-9 47 19 82t75 35z" />
    <glyph glyph-name="uniFE9F" unicode="&#x62c;" horiz-adv-x="1296" arabic-form="initial" 
d="M1341 0h-1191q-43 0 -82 31t-48 75q-9 43 16 74t68 31h910q-31 19 -55 49t-31 66l-13 57q-46 209 -188 303q-67 44 -146.5 64.5t-155 17t-138.5 -16.5t-119 -34l-125 192q109 45 231 62t270.5 -10.5t274.5 -108.5q103 -66 184.5 -179.5t116.5 -277.5l15 -67
q10 -52 46 -84.5t83 -32.5h32zM754 -178q54 0 99 -37t56 -90q12 -53 -18 -91t-84 -38q-52 0 -98 38t-58 91q-10 52 20 89.5t83 37.5z" />
    <glyph glyph-name="uniFEA0" unicode="&#x62c;" horiz-adv-x="1267" arabic-form="medial" 
d="M1456 0h-1306q-43 0 -82 31t-48 75q-9 43 16 74t68 31h895q-71 40 -86 115l-12 57q-46 208 -190 301q-85 57 -197 73t-196 3t-156 -39l-117 190q96 45 219 60.5t270.5 -13t268.5 -106.5q103 -67 185 -181t116 -278l14 -65q10 -52 46 -84.5t83 -32.5h164zM821 -178
q54 0 99.5 -37t56.5 -90t-20 -91t-83 -38q-54 0 -99 38t-56 91q-10 52 19.5 89.5t82.5 37.5z" />
    <glyph glyph-name="uniFEA2" unicode="&#x62d;" horiz-adv-x="1546" arabic-form="final" 
d="M645 0q-76 0 -118 -54.5t-27 -131.5q17 -77 84 -132t143 -55h467l45 -211h-469q-163 0 -304.5 116.5t-176.5 281.5t56.5 281t256.5 116h643q-22 11 -47 45.5t-33 71.5l-12 65q-50 199 -184 289q-63 43 -141 63.5t-153.5 19t-139.5 -13.5t-117 -32l-131 190
q83 33 172.5 51t192 19.5t209.5 -29.5t200 -94q227 -154 301 -465l14 -65q8 -43 41 -79t76 -36h197l43 -211h-1088z" />
    <glyph glyph-name="uniFEA3" unicode="&#x62d;" horiz-adv-x="1296" arabic-form="initial" 
d="M1341 0h-1191q-43 0 -82 31t-48 75q-9 43 16 74t68 31h910q-31 19 -55 49t-31 66l-13 59q-46 210 -190 303q-66 44 -145.5 64.5t-155.5 17t-139 -15.5t-119 -33l-125 190q110 45 232.5 62t270.5 -10.5t273 -108.5q237 -151 301 -457l17 -69q10 -52 46 -84.5t83 -32.5h32z
" />
    <glyph glyph-name="uniFEA4" unicode="&#x62d;" horiz-adv-x="1267" arabic-form="medial" 
d="M1456 0h-1306q-43 0 -82 31t-48 75q-9 43 16 74t68 31h895q-71 40 -86 115l-14 61q-42 207 -188 303q-85 56 -197 71.5t-196 2.5t-158 -39l-115 190q97 46 220 62t270 -12.5t266 -108.5q105 -67 187 -180t116 -277l14 -71q10 -52 46 -84.5t83 -32.5h164z" />
    <glyph glyph-name="uniFEA6" unicode="&#x62e;" horiz-adv-x="1544" arabic-form="final" 
d="M610 1413q54 0 99.5 -38t56.5 -89q11 -54 -18.5 -91.5t-83.5 -37.5q-53 0 -99.5 38t-56.5 91q-11 51 19.5 89t82.5 38zM645 0q-76 0 -118 -54.5t-27 -131.5q17 -77 84 -132t143 -55h467l45 -211h-469q-163 0 -304.5 116.5t-176.5 281.5t56.5 281t256.5 116h643
q-22 11 -47 45.5t-33 71.5l-12 63q-47 197 -184 289q-82 56 -192.5 73t-197.5 5t-161 -39l-131 188q83 33 172.5 51t192 19.5t209.5 -29.5t200 -94q227 -154 301 -465l14 -63q8 -43 41 -79t76 -36h197l43 -211h-1088z" />
    <glyph glyph-name="uniFEA7" unicode="&#x62e;" horiz-adv-x="1296" arabic-form="initial" 
d="M270 1286q-11 51 20 89t83 38q53 0 98.5 -37.5t56.5 -89.5q11 -54 -18.5 -91.5t-83.5 -37.5q-53 0 -99.5 38t-56.5 91zM1341 0h-1191q-43 0 -82 31t-48 75q-9 43 16 74t68 31h910q-31 19 -55 49t-31 66l-13 59q-46 210 -190 303q-66 44 -145.5 64.5t-155.5 17t-139 -15.5
t-119 -33l-125 190q110 45 232.5 62t270.5 -10.5t273 -108.5q237 -151 301 -457l17 -69q10 -52 46 -84.5t83 -32.5h32z" />
    <glyph glyph-name="uniFEA8" unicode="&#x62e;" horiz-adv-x="1269" arabic-form="medial" 
d="M254 1286q-11 51 19.5 89t82.5 38q54 0 99.5 -38t56.5 -89q12 -54 -17 -91.5t-83 -37.5q-53 0 -99.5 37.5t-58.5 91.5zM1456 0h-1306q-43 0 -82 31t-48 75q-9 43 16 74t68 31h895q-71 40 -86 115l-14 59q-43 209 -188 303q-85 57 -197 73t-196 3t-156 -39l-117 190
q96 45 219 60t270 -13.5t267 -107.5q105 -67 187 -180t116 -277l14 -69q10 -52 46 -84.5t83 -32.5h164z" />
    <glyph glyph-name="uniFEAA" unicode="&#x62f;" horiz-adv-x="1267" arabic-form="final" 
d="M1507 104q9 -43 -15 -73.5t-69 -30.5h-49q-189 0 -348 127q-40 -59 -105.5 -93t-144.5 -34h-540l-46 211h543q73 0 96 51q37 53 5 121l-285 594l188 55l291 -600q0 -4 4 -8l8 -18q40 -87 119.5 -141t169.5 -54h49q45 0 82.5 -31.5t46.5 -75.5z" />
    <glyph glyph-name="uniFEAC" unicode="&#x630;" horiz-adv-x="1286" arabic-form="final" 
d="M557 1133q-53 0 -99.5 38t-56.5 91q-10 52 20 89.5t83 37.5q54 0 99 -37t56 -90q11 -54 -18.5 -91.5t-83.5 -37.5zM1532 104q9 -43 -15 -73.5t-71 -30.5h-72q-192 0 -348 127q-40 -59 -105.5 -93t-144.5 -34h-540l-46 211h543q73 0 96 51q37 53 5 121l-285 594l188 55
l291 -600l6 -14l6 -12q40 -87 119.5 -141t169.5 -54h74q45 0 82.5 -31.5t46.5 -75.5z" />
    <glyph glyph-name="uniFEAE" unicode="&#x631;" horiz-adv-x="761" arabic-form="final" 
d="M872 211q44 0 81.5 -30.5t47.5 -76.5q9 -44 -15.5 -74t-67.5 -30h-66q-56 0 -111.5 21t-95.5 57l17 -90q16 -103 -3 -185.5t-68.5 -139.5t-120 -93.5t-161.5 -54.5l-119 200q46 9 81.5 20.5t70.5 30t56.5 42t38.5 57t16.5 75t-9.5 95.5l-198 938h209l120 -572
q17 -78 85.5 -134t146.5 -56h65z" />
    <glyph glyph-name="uniFEB0" unicode="&#x632;" horiz-adv-x="763" arabic-form="final" 
d="M256 1413q52 0 98.5 -38t57.5 -89q11 -54 -19 -91.5t-84 -37.5q-53 0 -99 37.5t-56 91.5q-11 52 19 89.5t83 37.5zM868 211q45 0 82.5 -31t46.5 -76q9 -44 -15.5 -74t-68.5 -30h-61q-119 0 -207 78l17 -90q16 -103 -3 -185.5t-68.5 -139.5t-120 -93.5t-161.5 -54.5
l-119 200q45 9 79 19t65.5 24.5t53 32t38 41t23.5 53t6 67t-11 83.5l-198 938h209l120 -572q17 -78 85.5 -134t146.5 -56h61z" />
    <glyph glyph-name="uniFEB2" unicode="&#x633;" horiz-adv-x="2660" arabic-form="final" 
d="M2773 211q43 0 81 -31.5t48 -75.5q9 -42 -17 -73t-69 -31h-70q-72 0 -140.5 34t-115.5 91q-86 -125 -260 -125q-93 0 -180.5 39.5t-155.5 110.5q-35 -69 -104.5 -109.5t-161.5 -40.5q-124 0 -229 78l55 -258q22 -98 -32 -167t-152 -69h-410q-215 0 -401 152.5t-232 367.5
l-73 355h213l75 -355q26 -128 136 -218.5t239 -90.5h361q29 0 46 21.5t11 52.5l-193 905h209l80 -375q17 -81 84.5 -134.5t155.5 -53.5q91 0 137 56.5t31 138.5l-78 362h211l80 -369q17 -85 86 -136.5t157 -51.5q79 0 123 57.5t29 137.5l-121 567h211l141 -658
q9 -43 45 -73.5t78 -30.5h72z" />
    <glyph glyph-name="uniFEB3" unicode="&#x633;" horiz-adv-x="1812" arabic-form="initial" 
d="M1632 973l119 -567q38 -171 -60 -288.5t-270 -117.5q-200 0 -338 152q-87 -152 -292 -152q-166 0 -297 125q-25 -57 -79 -91t-126 -34h-142q-44 0 -81 30.5t-46 73.5t15 75t67 32h144q42 0 65.5 30t14.5 72l-99 463h209l82 -377q17 -82 85.5 -135t154.5 -53
q94 0 140.5 55.5t27.5 139.5l-80 370h211l80 -377q17 -82 84 -135t157 -53q93 0 138 55.5t26 139.5l-121 567h211z" />
    <glyph glyph-name="uniFEB4" unicode="&#x633;" horiz-adv-x="1927" arabic-form="medial" 
d="M2038 211q41 0 80.5 -32t48.5 -73q9 -44 -16.5 -75t-67.5 -31h-127q-75 0 -146.5 36t-119.5 95q-39 -61 -109 -96t-158 -35q-103 0 -191 42.5t-153 113.5q-84 -156 -295 -156q-76 0 -157.5 30.5t-147.5 96.5q-25 -58 -80 -92.5t-127 -34.5h-125q-43 0 -80.5 31t-46.5 75
q-9 42 15.5 73.5t66.5 31.5h125q44 0 69.5 31t16.5 75l-98 459h209l78 -370q19 -85 89 -140t161 -55q95 0 141 57.5t27 143.5l-76 364h209l80 -370q19 -86 86.5 -140.5t160.5 -54.5q95 0 141 57.5t27 143.5l-118 561h210l140 -656q9 -44 47 -75t84 -31h127z" />
    <glyph glyph-name="uniFEB6" unicode="&#x634;" horiz-adv-x="2674" arabic-form="final" 
d="M1573 1546q52 0 98.5 -38t57.5 -89q11 -54 -19 -91.5t-84 -37.5q-53 0 -99.5 38t-56.5 91q-11 51 19 89t84 38zM1462 1217q54 0 101 -37.5t57 -89.5q11 -54 -18.5 -91.5t-83.5 -37.5q-53 0 -99.5 38t-56.5 91q-11 53 18.5 90t81.5 37zM1827 1217q54 0 101 -37.5t57 -89.5
q11 -54 -19 -91.5t-84 -37.5q-53 0 -99.5 38t-56.5 91q-11 53 19 90t82 37zM2787 211q43 0 80.5 -31.5t46.5 -75.5q9 -43 -16 -73.5t-68 -30.5h-84q-72 0 -140.5 34t-115.5 91q-86 -125 -260 -125q-93 0 -180.5 39.5t-155.5 110.5q-35 -69 -104.5 -109.5t-161.5 -40.5
q-124 0 -229 78l55 -258q22 -98 -32 -167t-152 -69h-410q-215 0 -401 152.5t-232 367.5l-73 355h213l75 -355q26 -128 136 -218.5t239 -90.5h361q29 0 46 21.5t11 52.5l-193 911h209l80 -381q17 -81 84.5 -134.5t155.5 -53.5q91 0 137 56.5t31 138.5l-80 366h213l80 -373
q17 -85 86 -136.5t157 -51.5q79 0 123 57.5t29 137.5l-121 567h211l141 -658q9 -43 45 -73.5t78 -30.5h86z" />
    <glyph glyph-name="uniFEB7" unicode="&#x634;" horiz-adv-x="1818" arabic-form="initial" 
d="M741 1561q54 0 101 -37.5t57 -89.5q11 -54 -18.5 -91.5t-83.5 -37.5q-53 0 -99.5 38t-56.5 91q-11 53 18.5 90t81.5 37zM633 1233q54 0 101 -37.5t57 -89.5q11 -54 -19 -91.5t-84 -37.5q-53 0 -99.5 38t-56.5 91q-11 53 19 90t82 37zM997 1233q54 0 100 -37t58 -90
q11 -54 -18.5 -91.5t-83.5 -37.5q-53 0 -99.5 38t-56.5 91q-12 52 17.5 89.5t82.5 37.5zM1638 973l121 -567q36 -171 -61 -288.5t-268 -117.5q-202 0 -340 152q-87 -152 -291 -152q-168 0 -299 125q-25 -57 -79 -91t-126 -34h-148q-44 0 -81 30.5t-46 73.5t15 75t67 32h150
q42 0 66.5 30t15.5 74l-101 461h209l82 -377q17 -82 85.5 -135t154.5 -53q94 0 140.5 55.5t27.5 139.5l-80 370h211l80 -377q19 -83 85 -135.5t156 -52.5q93 0 138 55.5t26 139.5l-121 567h211z" />
    <glyph glyph-name="uniFEB8" unicode="&#x634;" horiz-adv-x="1888" arabic-form="medial" 
d="M721 1561q54 0 101 -37.5t57 -89.5q11 -54 -19 -91.5t-84 -37.5q-53 0 -99 37.5t-56 91.5q-11 53 18.5 90t81.5 37zM612 1233q54 0 100 -37t58 -90q11 -54 -18.5 -91.5t-83.5 -37.5q-53 0 -99.5 38t-56.5 91q-12 52 17.5 89.5t82.5 37.5zM977 1233q54 0 99.5 -37
t56.5 -90q11 -54 -18 -91.5t-83 -37.5q-53 0 -100.5 38t-57.5 91q-10 52 20 89.5t83 37.5zM2001 211q41 0 80.5 -32t48.5 -73q9 -43 -17.5 -74.5t-68.5 -31.5h-113q-74 0 -145 36t-119 95q-39 -61 -108.5 -96t-157.5 -35q-103 0 -191 42.5t-153 113.5q-84 -156 -295 -156
q-76 0 -157.5 30.5t-147.5 96.5q-25 -58 -80 -92.5t-129 -34.5h-101q-43 0 -80.5 31t-46.5 75q-9 42 15.5 73.5t66.5 31.5h103q43 0 68.5 31t15.5 75l-96 459h206l80 -370q19 -85 89 -140t161 -55q94 0 140.5 57.5t27.5 143.5l-78 364h211l80 -370q19 -86 87 -140.5
t159 -54.5q95 0 142 57.5t28 143.5l-119 561h209l141 -656q9 -44 47 -75t84 -31h113z" />
    <glyph glyph-name="uniFEBA" unicode="&#x635;" horiz-adv-x="2742" arabic-form="final" 
d="M2869 211l45 -211h-1484l43 -205q20 -89 -31 -154t-142 -65h-432q-220 0 -407.5 154.5t-233.5 373.5l-61 293h209l63 -293q28 -132 141.5 -224.5t245.5 -92.5h381q23 0 37 17t10 40l-239 1129h209l41 -187l493 160q165 55 350.5 -7.5t307.5 -213.5q95 -115 127 -266
l53 -248h274zM2341 211q19 0 29 13.5t6 33.5l-43 201q-18 87 -78 162q-68 88 -177.5 123t-213.5 4l-555 -181l75 -356h957z" />
    <glyph glyph-name="uniFEBB" unicode="&#x635;" horiz-adv-x="1789" arabic-form="initial" 
d="M1604 725q98 -118 129 -266l57 -277q17 -75 -25 -128.5t-116 -53.5h-1518l-45 211h279l-162 762h209l41 -187l495 160q164 55 350 -7.5t306 -213.5zM1565 258l-43 201q-18 87 -78 162q-68 88 -177.5 123t-213.5 4l-553 -181l73 -356h957q19 0 29 13.5t6 33.5z" />
    <glyph glyph-name="uniFEBC" unicode="&#x635;" horiz-adv-x="1849" arabic-form="medial" 
d="M1976 211l45 -211h-1890l-45 211h238l-162 762h209l41 -187l495 160q164 55 350 -7.5t306 -213.5q98 -118 129 -266l51 -248h233zM1489 211q19 0 29 13.5t6 33.5l-43 201q-18 87 -78 162q-68 88 -177.5 123t-213.5 4l-553 -181l73 -356h957z" />
    <glyph glyph-name="uniFEBE" unicode="&#x636;" horiz-adv-x="2742" arabic-form="final" 
d="M1763 1157q-53 0 -99 37.5t-56 91.5q-11 52 19 89.5t83 37.5q52 0 98.5 -38t57.5 -89q11 -54 -19 -91.5t-84 -37.5zM2869 211l45 -211h-1484l43 -205q20 -89 -31 -154t-142 -65h-432q-220 0 -407.5 154.5t-233.5 373.5l-75 359h208l78 -359q28 -132 141.5 -224.5
t245.5 -92.5h381q23 0 37 17t10 40l-239 1129h209l41 -187l493 160q165 55 350.5 -7.5t307.5 -213.5q95 -115 127 -266l53 -248h274zM2341 211q19 0 29 13.5t6 33.5l-43 201q-18 87 -78 162q-68 88 -177.5 123t-213.5 4l-555 -181l75 -356h957z" />
    <glyph glyph-name="uniFEBF" unicode="&#x636;" horiz-adv-x="1751" arabic-form="initial" 
d="M803 1413q53 0 98.5 -37.5t56.5 -89.5q11 -54 -18.5 -91.5t-83.5 -37.5q-53 0 -99.5 38t-56.5 91q-11 51 20 89t83 38zM1565 725q95 -115 127 -266l59 -277q15 -75 -26.5 -128.5t-114.5 -53.5h-1479l-45 211h240l-162 762h209l41 -187l493 160q165 55 350.5 -7.5
t307.5 -213.5zM1526 258l-43 201q-18 87 -78 162q-68 88 -177.5 123t-213.5 4l-555 -181l76 -356h956q19 0 29 13.5t6 33.5z" />
    <glyph glyph-name="uniFEC0" unicode="&#x636;" horiz-adv-x="1882" arabic-form="medial" 
d="M905 1157q-53 0 -99 37.5t-56 91.5q-11 51 18.5 89t81.5 38q54 0 100.5 -38t57.5 -89q11 -54 -19 -91.5t-84 -37.5zM2009 211l45 -211h-1923l-45 211h258l-162 762h209l41 -187l496 160q164 55 349.5 -7.5t305.5 -213.5q98 -118 129 -266l51 -248h246zM1509 211
q19 0 29 13.5t6 33.5l-43 201q-18 87 -78 162q-68 88 -177.5 123t-213.5 4l-553 -181l74 -356h956z" />
    <glyph glyph-name="uniFEC2" unicode="&#x637;" horiz-adv-x="2029" arabic-form="final" 
d="M2157 211l45 -211h-1936l-47 223h242l-254 1204h209l135 -636l493 161q166 54 351.5 -8t306.5 -213q95 -115 127 -266l55 -254h273zM1628 211q19 0 29.5 13.5t7.5 33.5l-47 207q-16 88 -78 162q-67 87 -176 122t-213 5l-553 -181l76 -362h954z" />
    <glyph glyph-name="uniFEC3" unicode="&#x637;" horiz-adv-x="1773" arabic-form="initial" 
d="M1587 731q96 -122 127 -266l60 -283q17 -74 -25.5 -128t-116.5 -54h-1501l-45 211h262l-258 1216h211l135 -636l494 161q166 54 351 -8t306 -213zM1548 258l-45 207q-20 93 -78 162q-68 87 -177.5 122t-211.5 5l-553 -181l76 -362h954q19 0 29 13.5t6 33.5z" />
    <glyph glyph-name="uniFEC4" unicode="&#x637;" horiz-adv-x="1888" arabic-form="medial" 
d="M2017 211l43 -211h-1929l-45 211h264l-258 1216h209l135 -636l496 161q164 54 349.5 -9t305.5 -212q98 -121 129 -266l53 -254h248zM1516 211q19 0 28.5 13.5t5.5 33.5l-45 207q-21 94 -78 160q-68 88 -177.5 123t-211.5 4l-555 -181l76 -360h957z" />
    <glyph glyph-name="uniFEC6" unicode="&#x638;" horiz-adv-x="2007" arabic-form="final" 
d="M2136 211l43 -211h-1925l-47 223h233l-256 1204h209l135 -636l496 161q165 54 350 -8.5t305 -212.5q99 -120 127 -266l56 -254h274zM1044 1157q-53 0 -99 37.5t-56 91.5q-11 51 18.5 89t81.5 38q54 0 100.5 -38t57.5 -89q11 -54 -19 -91.5t-84 -37.5zM1608 211
q19 0 28.5 13.5t5.5 33.5l-45 207q-21 95 -77 162q-68 87 -178 122t-212 5l-555 -181l76 -362h957z" />
    <glyph glyph-name="uniFEC7" unicode="&#x638;" horiz-adv-x="1765" arabic-form="initial" 
d="M1587 731q96 -122 127 -266l60 -283q17 -74 -25.5 -128t-116.5 -54h-1501l-45 211h262l-258 1216h211l135 -636l494 161q166 54 351 -8t306 -213zM877 1413q53 0 98.5 -37.5t56.5 -89.5q11 -54 -18.5 -91.5t-83.5 -37.5q-53 0 -99.5 38t-56.5 91q-11 51 20 89t83 38z
M1548 258l-45 207q-20 93 -78 162q-68 87 -177.5 122t-211.5 5l-553 -181l76 -362h954q19 0 29 13.5t6 33.5z" />
    <glyph glyph-name="uniFEC8" unicode="&#x638;" horiz-adv-x="1894" arabic-form="medial" 
d="M2023 211l43 -211h-1935l-45 211h272l-258 1216h209l135 -636l496 161q164 54 348.5 -8.5t306.5 -212.5q99 -123 127 -266l56 -254h245zM956 1157q-53 0 -99 37.5t-58 91.5q-11 51 19.5 89t82.5 38q54 0 99.5 -38t56.5 -89q12 -54 -17.5 -91.5t-83.5 -37.5zM1522 211
q19 0 29.5 13.5t7.5 33.5l-46 207q-20 91 -77 160q-68 88 -178 123t-214 4l-552 -181l75 -360h955z" />
    <glyph glyph-name="uniFECA" unicode="&#x639;" horiz-adv-x="1384" arabic-form="final" 
d="M1520 211l45 -211h-893q-83 0 -128 -58.5t-28 -140.5q17 -80 88.5 -139t153.5 -59h502l45 -211h-502q-112 0 -218.5 54.5t-181.5 149t-98 205.5q-19 94 -6.5 167.5t50.5 125.5t92 80.5t118 32.5l64 2l-304 473l23 172q124 84 265.5 116.5t279.5 6.5q161 -31 283 -156.5
t139 -279.5q9 -94 -17 -184.5t-96 -145.5h324zM557 711l-2 -47l297 -441q56 10 99.5 34t68.5 54.5t43 67t23 70t8 64t-2 50.5q-7 72 -65.5 131.5t-133.5 73.5q-146 30 -336 -57z" />
    <glyph glyph-name="uniFECB" unicode="&#x639;" horiz-adv-x="1187" arabic-form="initial" 
d="M1165 211l45 -211h-1079l-45 211h238q-59 34 -101 94.5t-57 134.5l-19 90q-20 122 22 225.5t134.5 163.5t214.5 60q141 0 278.5 -83.5t198.5 -209.5l-129 -133q-36 89 -119.5 151t-185.5 62q-100 0 -158 -69.5t-43 -170.5l17 -84q23 -103 109 -167t194 -64h485z" />
    <glyph glyph-name="uniFECC" unicode="&#x639;" horiz-adv-x="1171" arabic-form="medial" 
d="M141 0l-45 211h314l-308 471l23 172q126 84 266.5 116.5t278.5 6.5q161 -31 283 -156.5t139 -279.5q9 -94 -17 -184.5t-96 -145.5l307 2l45 -213h-1190zM338 664l297 -441q56 10 100 34t69 54.5t43 67t22 70t7 64t-2 50.5q-7 72 -65 131.5t-133 73.5q-144 29 -334 -57z
" />
    <glyph glyph-name="uniFECE" unicode="&#x63a;" horiz-adv-x="1384" arabic-form="final" 
d="M668 1157q-53 0 -99.5 37.5t-58.5 91.5q-11 51 19.5 89t82.5 38q54 0 99.5 -38t56.5 -89q12 -54 -17 -91.5t-83 -37.5zM1520 211l45 -211h-893q-83 0 -128 -58.5t-28 -140.5q17 -80 88.5 -139t153.5 -59h502l45 -211h-502q-112 0 -218.5 54.5t-181.5 149t-98 205.5
q-19 94 -6.5 167.5t50.5 125.5t92 80.5t118 32.5l64 2l-304 473l23 172q124 84 265.5 116.5t279.5 6.5q161 -31 283 -156.5t139 -279.5q9 -94 -17 -184.5t-96 -145.5h324zM557 711l-2 -47l297 -441q56 10 99.5 34t68.5 54.5t43 67t23 70t8 64t-2 50.5q-7 72 -65.5 131.5
t-133.5 73.5q-146 30 -336 -57z" />
    <glyph glyph-name="uniFECF" unicode="&#x63a;" horiz-adv-x="1187" arabic-form="initial" 
d="M412 1413q53 0 98.5 -37.5t56.5 -89.5q12 -54 -17 -91.5t-83 -37.5q-53 0 -99.5 37.5t-58.5 91.5q-11 51 20 89t83 38zM1169 211l45 -211h-1083l-45 211h238q-128 98 -162 244l-15 77q-20 123 22 226.5t134.5 163t214.5 59.5q141 0 278.5 -82.5t198.5 -208.5l-129 -135
q-38 89 -120.5 151t-184.5 62q-100 0 -159 -69.5t-42 -170.5l15 -71q22 -104 110.5 -175t194.5 -71h489z" />
    <glyph glyph-name="uniFED0" unicode="&#x63a;" horiz-adv-x="1177" arabic-form="medial" 
d="M440 1413q54 0 99.5 -38t56.5 -89q12 -54 -17.5 -91.5t-82.5 -37.5q-54 0 -100 37.5t-58 91.5q-11 51 19.5 89t82.5 38zM141 0l-45 211h314l-308 471l23 172q126 84 266.5 116.5t278.5 6.5q161 -31 283 -156.5t139 -279.5q9 -94 -17 -184.5t-96 -145.5l307 2l45 -213
h-1190zM338 664l297 -441q56 10 100 34t69 54.5t43 67t22 70t7 64t-2 50.5q-7 72 -65 131.5t-133 73.5q-144 29 -334 -57z" />
    <glyph glyph-name="uniFED2" unicode="&#x641;" horiz-adv-x="2105" arabic-form="final" 
d="M1341 1415q53 0 99.5 -37.5t56.5 -89.5q11 -53 -18.5 -91t-83.5 -38q-53 0 -99.5 38.5t-56.5 90.5q-11 53 18.5 90t83.5 37zM2228 211l43 -211h-1562q-124 0 -242.5 62t-203 168t-111.5 231l-66 305h211l63 -305q23 -104 112 -176t192 -72h579q-147 97 -184 266l-8 41
q-26 125 15 230.5t135 166.5t218 62q124 0 242 -62t202 -167.5t111 -229.5l64 -309h190zM1829 211l-66 309q-22 102 -109.5 174t-189.5 72q-106 0 -166 -76.5t-38 -183.5l8 -27q23 -109 117 -185t206 -81z" />
    <glyph glyph-name="uniFED3" unicode="&#x641;" horiz-adv-x="1169" arabic-form="initial" 
d="M455 1415q54 0 99 -37t56 -90t-18.5 -91t-83.5 -38q-53 0 -99.5 38.5t-56.5 90.5t20 89.5t83 37.5zM530 979h457l176 -823q14 -65 -22.5 -110.5t-100.5 -45.5h-909l-45 211h252q-60 46 -104.5 115t-61.5 145l-12 61q-39 188 70 316.5t300 130.5zM934 246l-115 532h-246
q-106 0 -166 -76.5t-38 -183.5l14 -55q25 -104 116 -178t195 -74h213q13 0 21.5 10.5t5.5 24.5z" />
    <glyph glyph-name="uniFED4" unicode="&#x641;" horiz-adv-x="1243" arabic-form="medial" 
d="M518 1159q-53 0 -99.5 38.5t-56.5 90.5t20 89.5t83 37.5q54 0 99.5 -37t56.5 -90t-19 -91t-84 -38zM1147 211h219l43 -211h-1272l-45 211h264q-131 97 -166 256l-12 55q-26 124 15 230t135.5 167t218.5 62q124 0 242.5 -61.5t202 -167.5t108.5 -230l55 -254
q5 -19 3 -36.5t-11 -20.5zM926 211q12 0 19.5 10t4.5 25l-59 276q-22 101 -109 173.5t-188 72.5q-108 0 -169 -74t-38 -182l12 -53q22 -103 114.5 -175.5t197.5 -72.5h215z" />
    <glyph glyph-name="uniFED6" unicode="&#x642;" horiz-adv-x="1587" arabic-form="final" 
d="M668 1415q54 0 99 -37t56 -90t-18.5 -91t-83.5 -38q-53 0 -99.5 38.5t-56.5 90.5t20 89.5t83 37.5zM1016 1415q54 0 99 -37t56 -90q12 -53 -17 -91t-83 -38q-52 0 -99 38t-59 91q-10 52 20 89.5t83 37.5zM1716 211l43 -211h-180l39 -180q23 -102 -34.5 -175t-160.5 -73
h-546q-146 0 -285 71t-237 193.5t-128 267.5l-75 357h213l73 -352q28 -134 143 -229t248 -95h521q27 0 41.5 18.5t9.5 46.5l-33 150h-240q-127 0 -247 58t-205 159.5t-111 224.5l-12 68q-27 128 11 236.5t132 171.5t224 63q184 0 346 -133.5t202 -321.5l66 -315h182z
M1323 211l-66 315q-23 101 -109 172.5t-183 71.5q-108 0 -167 -76t-36 -184l14 -64q20 -100 110 -167.5t197 -67.5h240z" />
    <glyph glyph-name="uniFED7" unicode="&#x642;" horiz-adv-x="1185" arabic-form="initial" 
d="M342 1415q54 0 101 -37.5t57 -89.5q11 -53 -19 -91t-84 -38q-53 0 -99 38.5t-56 90.5q-11 53 18.5 90t81.5 37zM692 1415q54 0 99.5 -37t56.5 -90t-19 -91t-84 -38q-53 0 -99 38.5t-56 90.5t19.5 89.5t82.5 37.5zM547 979h457l176 -823q14 -65 -22.5 -110.5t-100.5 -45.5
h-926l-45 211h268q-60 45 -103.5 114t-62.5 146l-12 61q-39 188 70.5 316.5t300.5 130.5zM950 246l-114 532h-246q-106 0 -166 -76.5t-37 -183.5l12 -55q25 -104 116.5 -178t195.5 -74h215q12 0 19.5 11t4.5 24z" />
    <glyph glyph-name="uniFED8" unicode="&#x642;" horiz-adv-x="1239" arabic-form="medial" 
d="M350 1159q-52 0 -98.5 38t-58.5 91q-10 52 19.5 89.5t82.5 37.5q54 0 99.5 -37t56.5 -90q12 -53 -17.5 -91t-83.5 -38zM698 1159q-53 0 -99 38.5t-56 90.5q-11 53 18.5 90t81.5 37q54 0 101 -37.5t57 -89.5q11 -53 -19 -91t-84 -38zM1153 211h207l45 -211h-1268l-45 211
h268q-129 98 -163 252l-13 61q-22 95 -1 178.5t70 145.5t127.5 97.5t170.5 35.5q188 1 351.5 -134t203.5 -323l51 -241q10 -44 -4 -72zM930 211q13 0 20.5 10.5t3.5 24.5l-59 278q-20 101 -107 173.5t-190 72.5q-106 0 -167 -77t-38 -185l13 -51q21 -104 113 -175t198 -71
h213z" />
    <glyph glyph-name="uniFEDA" unicode="&#x643;" horiz-adv-x="1804" arabic-form="final" 
d="M1931 211l45 -211h-1265q-186 0 -344.5 131.5t-198.5 317.5l-68 311h211l66 -311q22 -99 106 -168.5t183 -69.5h768q28 0 44 19t9 46l-244 1151h211l258 -1216h219zM627 866l-25 109h70q-39 46 -45 92q-9 75 33.5 125.5t115.5 50.5q66 0 124 -36.5t91 -96.5l-76 -59
q-43 82 -114 82q-32 0 -49.5 -22t-10.5 -54q5 -30 30 -56t63 -26h180l24 -109h-411z" />
    <glyph glyph-name="uniFEDB" unicode="&#x643;" horiz-adv-x="1413" arabic-form="initial" 
d="M711 981q141 0 275.5 -70t230 -190.5t126.5 -263.5l68 -316q12 -59 -20.5 -100t-90.5 -41h-1169l-45 211h1051q19 0 30 14.5t7 34.5l-37 184q-29 134 -145.5 229t-250.5 95h-487l-203 233l291 578l201 -123l-242 -475h410z" />
    <glyph glyph-name="uniFEDC" unicode="&#x643;" horiz-adv-x="1425" arabic-form="medial" 
d="M1552 211l45 -209l-1466 -2l-45 211h1030l-49 233q-29 135 -144 229.5t-249 94.5h-481l-166 238l295 587l198 -123l-248 -489h371q141 0 276 -70t230.5 -190.5t126.5 -263.5l51 -246h225z" />
    <glyph glyph-name="uniFEDE" unicode="&#x644;" horiz-adv-x="1517" arabic-form="final" 
d="M1628 211q43 0 81 -31t48 -76q9 -43 -16 -73.5t-68 -30.5h-110q-40 0 -79.5 18.5t-64.5 49.5l64 -295q14 -72 -25.5 -122t-111.5 -50h-482q-219 0 -407 154.5t-234 373.5l-71 334h213l69 -334q28 -132 140.5 -224.5t244.5 -92.5h391q28 0 36 20t1 47l-327 1548h210
l228 -1075q12 -58 59.5 -99.5t100.5 -41.5h110z" />
    <glyph glyph-name="uniFEDF" unicode="&#x644;" horiz-adv-x="608" arabic-form="initial" 
d="M147 0q-44 0 -81 30.5t-46 73.5q-9 44 15 75.5t67 31.5h115q44 0 69.5 31t16.5 75l-237 1110h210l238 -1110q28 -132 -45.5 -224.5t-204.5 -92.5h-117z" />
    <glyph glyph-name="uniFEE0" unicode="&#x644;" horiz-adv-x="632" arabic-form="medial" 
d="M743 211q43 0 81 -30.5t48 -74.5q9 -44 -17 -75t-69 -31h-55q-153 0 -282 119q-31 -55 -89.5 -87t-132.5 -32h-75q-47 0 -85 30t-47 76q-10 44 15 74.5t71 30.5h54q62 0 97 45.5t22 108.5l-226 1062h213l226 -1065q19 -63 75 -107t119 -44h57z" />
    <glyph glyph-name="uniFEE2" unicode="&#x645;" horiz-adv-x="1359" arabic-form="final" 
d="M1495 211l45 -211h-125q-85 0 -163.5 43.5t-125.5 112.5q-45 -73 -122 -114.5t-175 -41.5q-148 0 -274 96l10 -65q25 -186 -66.5 -298t-258.5 -147l-84 205q244 54 192 305l-188 883h463q127 0 247.5 -63.5t205 -171.5t110.5 -234l41 -182q9 -48 51 -82.5t92 -34.5h125z
M784 211q106 0 165.5 71.5t39.5 174.5l-12 53q-22 106 -111.5 180t-197.5 74h-252l67 -315q22 -109 110 -173.5t191 -64.5z" />
    <glyph glyph-name="uniFEE3" unicode="&#x645;" horiz-adv-x="1273" arabic-form="initial" 
d="M90 211q-44 0 -67.5 -31t-14.5 -74t45.5 -73.5t79.5 -32.5h70q88 0 154.5 45t93.5 119q76 -76 174.5 -120.5t199.5 -43.5q123 1 217 61.5t136 164t18 225.5l-10 51q-43 201 -208 339t-364 138h-475l133 -625q14 -64 -16 -103.5t-96 -39.5h-70zM778 211
q-108 0 -198.5 68.5t-116.5 173.5l-68 315h256q114 0 207 -74t115 -184l12 -49q20 -102 -41 -175t-166 -75z" />
    <glyph glyph-name="uniFEE4" unicode="&#x645;" horiz-adv-x="1316" arabic-form="medial" 
d="M1444 211q43 0 81.5 -31.5t47.5 -75.5q9 -43 -16.5 -73.5t-69.5 -30.5h-72q-85 0 -164 44t-127 114q-42 -73 -119.5 -115.5t-175.5 -42.5q-215 0 -380 162q-25 -73 -91.5 -117.5t-154.5 -44.5h-78q-43 2 -80.5 33t-46.5 73q-9 43 15 74t67 31h80q62 0 93.5 40t16.5 103
l-131 625h484q124 0 243.5 -60.5t205 -165t114.5 -227.5l41 -194q10 -51 51.5 -86t91.5 -35h74zM985 467l-12 55q-25 106 -115.5 175t-208.5 69h-252l66 -307q22 -102 112.5 -175t192.5 -73q121 1 181 74.5t36 181.5z" />
    <glyph glyph-name="uniFEE6" unicode="&#x646;" horiz-adv-x="1505" arabic-form="final" 
d="M614 971q54 0 102 -37.5t58 -89.5q10 -54 -20 -91.5t-84 -37.5q-53 0 -98.5 37.5t-55.5 91.5q-11 53 17.5 90t80.5 37zM1616 211q44 0 83 -31.5t48 -75.5t-16 -74t-70 -30h-107q-40 0 -79 18.5t-62 49.5l62 -291q15 -72 -24.5 -123t-111.5 -51h-477q-144 0 -280.5 71
t-232.5 192.5t-126 264.5l-71 332h210l70 -332q28 -131 140.5 -224t244.5 -93h367q30 0 47 19.5t12 49.5l-229 1073h209l131 -618q15 -53 59.5 -90t95.5 -37h107z" />
    <glyph glyph-name="uniFEE7" unicode="&#x646;" horiz-adv-x="591" arabic-form="initial" 
d="M201 1413q54 0 100 -38t57 -89q11 -54 -18.5 -91.5t-83.5 -37.5q-53 0 -99.5 38t-56.5 91q-11 51 19 89t82 38zM287 0h-137q-44 0 -82.5 31.5t-47.5 74.5q-10 45 15 75t69 30h140q49 0 75 33.5t15 79.5l-137 649h211l137 -649q28 -134 -47.5 -229t-210.5 -95z" />
    <glyph glyph-name="uniFEE8" unicode="&#x646;" horiz-adv-x="673" arabic-form="medial" 
d="M215 1257q53 0 99.5 -37.5t58.5 -89.5q10 -54 -20.5 -91.5t-84.5 -37.5q-53 0 -98 37.5t-55 91.5q-12 53 17 90t83 37zM784 211q43 0 81 -30.5t48 -74.5q9 -44 -17 -75t-69 -31h-77q-154 0 -283 119q-31 -55 -89 -87t-132 -32h-94q-47 0 -85 30t-47 74q-10 45 15 76
t71 31h72q62 0 97 45.5t22 108.5l-88 411h211l90 -414q19 -63 75.5 -107t119.5 -44h79z" />
    <glyph glyph-name="uniFEEA" unicode="&#x647;" horiz-adv-x="1286" arabic-form="final" 
d="M1397 211q44 0 81.5 -31t49.5 -74q9 -42 -16 -73t-68 -33h-107q-88 0 -171.5 44.5t-143.5 119.5q-42 -75 -122 -119.5t-181 -44.5q-125 0 -246.5 60.5t-207.5 166.5t-111 230l-15 63q-42 201 64.5 330t308.5 129h473l135 -625q14 -64 60 -103.5t112 -39.5h105zM674 211
q109 0 170.5 77.5t38.5 186.5l-64 291h-262q-107 0 -170 -68t-39 -178l10 -55q25 -106 117.5 -180t198.5 -74z" />
    <glyph glyph-name="uniFEEB" unicode="&#x647;" horiz-adv-x="1546" arabic-form="initial" 
d="M686 1200q190 -39 356.5 -150t286.5 -283.5t164 -377.5l35 -170q19 -91 -31 -155t-139 -64h-1227l-45 211h262q-58 43 -102.5 112t-61.5 144q-36 174 70 288.5t291 114.5q189 0 348.5 -135.5t200.5 -328.5l24 -117q9 -45 4 -78h154q19 0 29 12t6 31l-29 135
q-49 230 -209.5 395t-374.5 209q-166 35 -333 35l-41 207q134 -1 196.5 -7.5t165.5 -27.5zM588 659q-91 0 -149.5 -62.5t-39.5 -158.5q22 -98 100.5 -162.5t159.5 -64.5h218q20 0 31 13t7 34l-34 166q-18 88 -104.5 161t-188.5 74z" />
    <glyph glyph-name="uniFEEC" unicode="&#x647;" horiz-adv-x="1343" arabic-form="medial" 
d="M1317 0l8 -33q41 -191 -66 -307.5t-327 -116.5q-187 0 -353 121.5t-231 302.5l-10 33h-207l-45 211h197l-52 246q-28 134 10.5 250.5t131.5 187.5t219 76q207 9 393 -135q87 -68 146 -162t81 -195q34 -150 -28 -268h8h281l43 -211h-199zM496 211h215q58 0 113 15
t102.5 45.5t70 85t7.5 124.5q-26 126 -132 203q-95 79 -223 76q-110 -4 -171 -93.5t-36 -209.5zM889 -248q119 0 180 75t37 185l-14 70q-2 6 -2 16q-128 -98 -334 -98h-201l10 -27q38 -96 130 -158.5t194 -62.5z" />
    <glyph glyph-name="uniFEEE" unicode="&#x648;" horiz-adv-x="1179" arabic-form="final" 
d="M1352 0h-178q35 -201 -76 -330q-86 -101 -220 -134.5t-403 -33.5l-43 211h120.5t113 6t102 16.5t87.5 33t69 55.5q46 52 34 143l-4 33h-227q-202 0 -370.5 144t-211.5 350q-28 133 11 244.5t135 176t229 64.5h447l161 -768h179zM915 211l-116 555h-234q-115 0 -175.5 -78
t-35.5 -194q26 -119 120.5 -201t207.5 -82h233z" />
    <glyph glyph-name="uniFEF0" unicode="&#x649;" horiz-adv-x="1800" arabic-form="final" 
d="M1909 211q44 0 82 -29.5t47 -72.5q10 -44 -15.5 -76.5t-70.5 -32.5q-93 0 -193 20q61 -55 74 -131q35 -161 -55 -275t-250 -114h-631q-149 0 -291.5 73.5t-243 199.5t-131.5 274l-75 359h213l75 -359q29 -138 149 -237t259 -99h631q72 0 113 53t24 125
q-12 64 -59.5 115.5t-114.5 71.5l-334 123l53 194q234 -93 269 -104q242 -78 475 -78z" />
    <glyph glyph-name="uniFEF2" unicode="&#x64a;" horiz-adv-x="1800" arabic-form="final" 
d="M1909 211q44 0 82 -29.5t47 -72.5q10 -44 -15.5 -76.5t-70.5 -32.5q-93 0 -193 20q61 -55 74 -131q35 -161 -55 -275t-250 -114h-631q-149 0 -291.5 73.5t-243 199.5t-131.5 274l-75 359h213l75 -359q29 -138 149 -237t259 -99h631q72 0 113 53t24 125
q-12 64 -59.5 115.5t-114.5 71.5l-334 123l53 194q234 -93 269 -104q242 -78 475 -78zM1036 -635q54 0 101 -37.5t57 -89.5q12 -54 -18 -91.5t-84 -37.5q-53 0 -98.5 37.5t-57.5 91.5q-11 53 18.5 90t81.5 37zM1389 -635q53 0 100 -37.5t57 -89.5q10 -54 -20 -91.5
t-84 -37.5q-53 0 -98.5 37.5t-55.5 91.5q-11 53 18 90t83 37z" />
    <glyph glyph-name="uniFEF3" unicode="&#x64a;" horiz-adv-x="763" arabic-form="initial" 
d="M477 0h-327q-44 0 -82.5 31.5t-47.5 74.5q-10 45 15 75t69 30h330q49 0 75 33.5t15 79.5l-137 649h211l137 -649q28 -134 -47.5 -229t-210.5 -95zM362 -186q52 0 98.5 -38t57.5 -89q11 -54 -18.5 -91.5t-83.5 -37.5q-53 0 -99.5 38t-56.5 91q-11 52 19 89.5t83 37.5z
M713 -186q53 0 98.5 -37.5t56.5 -89.5q12 -54 -18 -91.5t-84 -37.5q-53 0 -98.5 37.5t-57.5 91.5q-11 51 20 89t83 38z" />
    <glyph glyph-name="uniFEF4" unicode="&#x64a;" horiz-adv-x="813" arabic-form="medial" 
d="M924 211q44 0 82.5 -30.5t48.5 -74.5q9 -44 -17 -75t-69 -31h-148q-153 0 -282 119q-31 -55 -89.5 -87t-132.5 -32h-165q-47 0 -85 30t-47 76q-10 44 15 74.5t71 30.5h144q62 0 97 45.5t22 108.5l-95 436h213l95 -439q19 -63 75 -107t119 -44h148zM403 -186
q54 0 99.5 -38t56.5 -89q12 -54 -18 -91.5t-84 -37.5q-53 0 -98.5 37.5t-57.5 91.5q-11 51 19.5 89t82.5 38zM754 -186q54 0 100 -38t57 -89q10 -54 -20 -91.5t-84 -37.5q-53 0 -98.5 37.5t-55.5 91.5q-11 51 19 89t82 38z" />
    <glyph glyph-name=".notdef" horiz-adv-x="972" 
d="M799 1434v-1946h-619v1946h619zM647 1303h-319v-64h125v-72h-127v-63h321v63h-127v72h127v64zM520 1053h-194v-203h321v65h-127v138zM453 987v-72h-64v72h64zM647 797h-321v-64h127v-71h-127v-64h194v135h127v64zM647 680h-63v-127h-258v-68h321v195zM647 442h-194v-108
h67v45h64v-92h-195v155h-63v-219h321v219zM647 106h-321v-219h321v219zM584 43v-92h-195v92h195zM647 -158h-321v-63h135l-135 -92v-64h321v64h-198l137 92h61v63z" />
    <glyph glyph-name=".null" horiz-adv-x="768" 
 />
    <glyph glyph-name="nonmarkingreturn" horiz-adv-x="682" 
 />
    <glyph glyph-name="CR" unicode="&#xd;" horiz-adv-x="473" 
 />
    <glyph glyph-name="space" unicode=" " horiz-adv-x="448" 
 />
    <glyph glyph-name="exclam" unicode="!" horiz-adv-x="616" 
d="M338 1434h244l-226 -975h-206zM43 119q7 64 48.5 104.5t105.5 48.5q67 6 101 -25t28 -95q-6 -63 -47 -105t-107 -49q-63 -6 -98 27t-31 94z" />
    <glyph glyph-name="quotedbl" unicode="&#x22;" horiz-adv-x="845" 
d="M262 1460h238l-152 -569h-176zM662 1460h237l-151 -569h-177z" />
    <glyph glyph-name="numbersign" unicode="#" horiz-adv-x="1478" 
d="M1159 868l-125 -301h230l-37 -166h-260l-152 -370h-186l151 370h-338l-151 -370h-189l152 370h-223l37 166h254l122 301h-227l35 166h260l152 369h188l-152 -369h338l152 369h186l-149 -369h221l-35 -166h-254zM971 868h-338l-125 -301h338z" />
    <glyph glyph-name="dollar" unicode="$" horiz-adv-x="1220" 
d="M1075 434q-35 -174 -182 -282.5t-367 -118.5l-28 -135h-92l28 135q-172 10 -284.5 87t-147.5 208l178 121q65 -189 299 -211l84 397l-84 20q-356 90 -295 367q34 165 180 268.5t361 110.5l29 135h92l-29 -137q152 -10 251.5 -73.5t133.5 -168.5l-178 -121
q-61 147 -250 162l-80 -375l103 -26q175 -44 242 -133.5t36 -229.5zM608 846l74 356q-113 -4 -183 -50t-89 -126q-13 -70 29.5 -108t168.5 -72zM569 236q116 4 188 54t91 134q17 76 -27 116.5t-172 71.5z" />
    <glyph glyph-name="percent" unicode="%" horiz-adv-x="1777" 
d="M432 737q-160 0 -242.5 102t-48.5 261q34 158 159.5 259t285.5 101q159 0 242 -101.5t49 -258.5q-34 -159 -160 -261t-285 -102zM1434 1434h202l-1292 -1434h-203zM467 897q86 0 150.5 56t84.5 147q20 89 -21.5 144.5t-127.5 55.5t-152 -55.5t-86 -144.5q-20 -91 22 -147
t130 -56zM1192 -27q-160 0 -242.5 102t-48.5 261q34 158 159.5 259t285.5 101q159 0 241.5 -101t48.5 -259q-34 -159 -159.5 -261t-284.5 -102zM1225 133q86 0 151.5 56t85.5 147q19 89 -23 145t-128 56t-151 -55.5t-85 -145.5t21.5 -146.5t128.5 -56.5z" />
    <glyph glyph-name="ampersand" unicode="&#x26;" horiz-adv-x="1421" 
d="M977 0l-90 133q-192 -160 -449 -160q-217 0 -324.5 110t-70.5 282q26 124 120.5 222t280.5 195q-71 108 -94 187.5t-4 158.5q30 142 155.5 237t301.5 95q172 0 257.5 -90.5t55.5 -232.5q-25 -115 -117 -208t-276 -188l207 -311q83 123 131 283h205q-84 -264 -230 -443
l181 -270h-240zM551 1118q-11 -54 8 -106t78 -140q135 70 195.5 124.5t72.5 119.5q17 71 -23.5 116.5t-117.5 45.5q-78 0 -138 -45t-75 -115zM498 172q158 0 280 107l-241 364q-121 -63 -182.5 -125t-78.5 -137q-20 -94 40 -151.5t182 -57.5z" />
    <glyph glyph-name="quotesingle" unicode="'" horiz-adv-x="446" 
d="M262 1460h238l-152 -569h-176z" />
    <glyph glyph-name="parenleft" unicode="(" horiz-adv-x="690" 
d="M252 -260q-114 181 -149 422t16 477q51 239 188 479t326 420l155 -104q-163 -160 -280.5 -371.5t-161.5 -423.5q-45 -209 -18 -422t123 -373z" />
    <glyph glyph-name="parenright" unicode=")" horiz-adv-x="690" 
d="M539 639q-53 -242 -188.5 -480t-325.5 -419l-156 104q162 159 279.5 372.5t162.5 422.5q44 205 17 422t-121 373l199 104q114 -179 149 -422t-16 -477z" />
    <glyph glyph-name="asterisk" unicode="*" horiz-adv-x="944" 
d="M649 1001l142 -247l-154 -99l-123 263l-233 -263l-115 99l250 250l-287 88l86 157l274 -106l58 315h166l-78 -317l321 108l17 -159z" />
    <glyph glyph-name="plus" unicode="+" horiz-adv-x="1454" 
d="M1147 547h-348l-80 -373h-215l80 373h-348l43 205h348l80 372h215l-78 -372h346z" />
    <glyph glyph-name="comma" unicode="," horiz-adv-x="493" 
d="M74 274h229l-272 -591h-187z" />
    <glyph glyph-name="hyphen" unicode="-" horiz-adv-x="776" 
d="M82 686h600l-43 -197h-600z" />
    <glyph glyph-name="period" unicode="." horiz-adv-x="538" 
d="M4 119q7 64 48.5 104.5t105.5 48.5q67 6 100.5 -25t26.5 -95q-5 -63 -45.5 -105t-106.5 -49q-64 -6 -99 26.5t-30 94.5z" />
    <glyph glyph-name="slash" unicode="/" horiz-adv-x="1007" 
d="M944 1516h217l-1120 -1709h-219z" />
    <glyph glyph-name="zero" unicode="0" horiz-adv-x="1427" 
d="M557 -27q-173 0 -287 94t-148.5 259t9.5 391q70 334 274 538.5t467 204.5q261 0 377.5 -204.5t46.5 -538.5t-274 -539t-465 -205zM602 186q153 0 277.5 145.5t177.5 385.5q51 239 -12.5 384.5t-217.5 145.5q-155 0 -279 -145t-175 -385q-52 -239 11 -385t218 -146z" />
    <glyph glyph-name="one" unicode="1" horiz-adv-x="862" 
d="M827 1434l-303 -1434h-231l252 1192l-363 2l49 240h596z" />
    <glyph glyph-name="two" unicode="2" horiz-adv-x="1196" 
d="M999 213l-43 -213h-1026l37 172l654 510q149 115 216.5 195.5t82.5 156.5q21 98 -32.5 155.5t-160.5 57.5q-111 0 -217 -67t-195 -199l-161 109q109 179 271 274.5t347 95.5q211 0 317.5 -116t67.5 -297q-25 -114 -105 -220t-235 -227l-498 -387h680z" />
    <glyph glyph-name="three" unicode="3" horiz-adv-x="1161" 
d="M793 729q133 -38 188 -126t27 -216q-39 -183 -205.5 -298.5t-399.5 -115.5q-159 0 -278 55.5t-186 164.5l165 153q111 -164 330 -164q137 0 229.5 63.5t114.5 168.5q22 103 -54.5 157t-254.5 54h-107l46 206h161q135 0 219.5 54.5t104.5 150.5q21 98 -35 156.5t-176 58.5
q-214 0 -391 -186l-125 145q109 120 255.5 185t311.5 65q223 0 331 -108.5t69 -288.5q-28 -128 -115.5 -215t-224.5 -119z" />
    <glyph glyph-name="four" unicode="4" horiz-adv-x="1253" 
d="M254 498h506l98 475h227l-100 -475h191l-43 -193h-189l-65 -305h-226l64 305h-735l41 193l935 936l125 -107z" />
    <glyph glyph-name="five" unicode="5" horiz-adv-x="1200" 
d="M702 909q212 0 312.5 -120.5t56.5 -329.5q-47 -225 -221 -355.5t-426 -130.5q-303 0 -461 213l166 158q119 -162 334 -162q144 0 245.5 72.5t127.5 198.5q26 122 -36.5 193t-195.5 71q-151 0 -301 -101h-168l174 818h885l-43 -205h-670l-86 -402q146 82 307 82z" />
    <glyph glyph-name="six" unicode="6" horiz-adv-x="1218" 
d="M676 975q239 0 360 -134.5t72 -357.5q-49 -231 -229 -368.5t-422 -137.5t-363 137.5t-71 368.5q22 110 83 218.5t201 279.5l381 453h260l-440 -498q77 39 168 39zM498 162q139 0 242 86t134 231q32 143 -34.5 229.5t-202.5 86.5q-142 0 -247 -86t-136 -230
q-31 -145 36.5 -231t207.5 -86z" />
    <glyph glyph-name="seven" unicode="7" horiz-adv-x="1081" 
d="M1192 1434l-39 -191l-864 -1243h-258l860 1221h-744l46 213h999z" />
    <glyph glyph-name="eight" unicode="8" horiz-adv-x="1273" 
d="M889 737q126 -37 187.5 -134t33.5 -220q-38 -185 -211.5 -297.5t-419.5 -112.5t-371.5 112.5t-87.5 297.5q26 123 129 220t246 134q-107 35 -159 126.5t-29 203.5q38 177 200 285t388 108t341.5 -108t77.5 -285q-23 -113 -112.5 -204t-212.5 -126zM428 1044
q-20 -101 43 -162t188 -61q126 0 214 61t110 162q22 103 -40.5 165.5t-186.5 62.5q-126 0 -215.5 -62.5t-112.5 -165.5zM520 170q138 0 236 65t121 171q23 105 -48 170t-208 65t-235.5 -64.5t-121.5 -170.5q-22 -106 49 -171t207 -65z" />
    <glyph glyph-name="nine" unicode="9" horiz-adv-x="1228" 
d="M545 465q-239 0 -360 134t-72 357q49 231 228 367.5t421 136.5t363.5 -136.5t72.5 -367.5q-22 -108 -84.5 -221.5t-200.5 -275.5l-399 -453h-260l459 498q-71 -39 -168 -39zM723 1276q-140 0 -243.5 -85t-133.5 -230q-32 -145 34 -230.5t204 -85.5q141 0 247 85.5
t136 230.5q31 145 -36 230t-208 85z" />
    <glyph glyph-name="colon" unicode=":" horiz-adv-x="548" 
d="M276 702q-69 0 -102 42.5t-18 111.5q15 71 65.5 112.5t120.5 41.5t102.5 -41t18.5 -113q-15 -69 -66 -111.5t-121 -42.5zM123 -18q-69 0 -102 42t-19 111q15 70 66 112t120 42q71 0 103.5 -42t15.5 -112q-12 -69 -62 -111t-122 -42z" />
    <glyph glyph-name="semicolon" unicode=";" horiz-adv-x="524" 
d="M164 840q8 65 48.5 106t104.5 47q66 7 99.5 -24.5t27.5 -96.5q-6 -63 -46.5 -104.5t-106.5 -48.5q-64 -6 -98.5 26.5t-28.5 94.5zM74 274h229l-272 -591h-187z" />
    <glyph glyph-name="less" unicode="&#x3c;" horiz-adv-x="1454" 
d="M1219 887l-662 -238l561 -237l-45 -215l-837 352l43 201l985 352z" />
    <glyph glyph-name="equal" unicode="=" horiz-adv-x="1454" 
d="M326 977h911l-43 -205h-911zM231 526h912l-43 -204h-912z" />
    <glyph glyph-name="greater" unicode="&#x3e;" horiz-adv-x="1454" 
d="M1190 750l-43 -201l-985 -352l45 215l661 237l-561 238l45 215z" />
    <glyph glyph-name="question" unicode="?" horiz-adv-x="950" 
d="M303 573q18 76 37 115t56.5 75t125.5 99l111 78q111 80 129 168q15 72 -27 113t-123 41q-90 0 -177.5 -51.5t-160.5 -149.5l-143 110q96 137 233.5 213t294.5 76q176 0 267.5 -94t58.5 -250q-19 -87 -74.5 -160t-165.5 -151l-100 -72q-73 -52 -95 -81t-34 -93l-20 -100
h-217zM176 119q7 64 48.5 104.5t105.5 48.5q67 6 101 -25t28 -95q-6 -63 -47 -105t-107 -49q-63 -6 -98 27t-31 94z" />
    <glyph glyph-name="at" unicode="@" horiz-adv-x="1980" 
d="M1157 1356q179 1 327 -58t241.5 -166.5t131 -258t-3.5 -330.5q-51 -232 -187.5 -375t-301.5 -143q-99 0 -163.5 54.5t-65.5 149.5q-124 -198 -357 -198q-188 0 -272 116.5t-43 313.5q39 189 178.5 309.5t325.5 120.5q98 0 166.5 -45.5t80.5 -118.5l31 141h174l-112 -524
q-10 -73 14 -112t78 -39q80 0 151.5 88.5t104.5 242.5q32 153 5.5 273t-100 202.5t-187.5 126t-257 43.5q-209 0 -391 -90t-307 -251.5t-168 -368.5q-43 -206 13.5 -364.5t202 -245.5t357.5 -87q110 0 217 23t185 63l49 -163q-207 -109 -494 -109q-158 -1 -291.5 41
t-228 119.5t-155.5 187t-73.5 244t19.5 289.5q38 191 144.5 360t254.5 287.5t332.5 186t374.5 65.5zM844 197q106 0 192.5 74t112.5 196q26 120 -30 195t-161 75q-107 0 -190.5 -76.5t-108.5 -193.5q-26 -124 25 -197t160 -73z" />
    <glyph glyph-name="A" unicode="A" horiz-adv-x="1429" 
d="M946 307h-637l-184 -307h-252l864 1434h246l270 -1434h-252zM915 512l-98 686l-389 -686h487z" />
    <glyph glyph-name="B" unicode="B" horiz-adv-x="1396" 
d="M1030 752q125 -36 178.5 -125t24.5 -221q-27 -132 -118.5 -226t-212 -137t-257.5 -43h-614l303 1434h612q208 0 309 -96t64 -265q-25 -117 -99 -199t-190 -122zM526 1235l-88 -408l371 -2q91 0 164.5 62t91.5 147q14 84 -33.5 142.5t-134.5 58.5h-371zM692 199
q112 0 192.5 61t102.5 162q20 99 -34.5 159t-166.5 60h-389l-94 -442h389z" />
    <glyph glyph-name="C" unicode="C" horiz-adv-x="1533" 
d="M694 -27q-227 0 -376 99t-199.5 266.5t-5.5 376.5q33 156 113.5 292.5t195.5 237t267.5 158t320.5 57.5q204 0 344 -96t194 -270l-217 -113q-35 117 -131.5 186.5t-236.5 69.5q-223 0 -391 -148t-214 -374q-32 -148 2 -266t132.5 -187t248.5 -69q143 0 268.5 68.5
t211.5 191.5l165 -119q-123 -177 -302.5 -269t-389.5 -92z" />
    <glyph glyph-name="D" unicode="D" horiz-adv-x="1511" 
d="M864 1434q200 0 339 -94t191.5 -257.5t8.5 -365.5q-43 -203 -163.5 -366.5t-299 -257t-379.5 -93.5h-530l303 1434h530zM578 219q215 0 374 139t205 359t-53 358.5t-313 138.5h-269l-211 -995h267z" />
    <glyph glyph-name="E" unicode="E" horiz-adv-x="1271" 
d="M1038 215l-43 -215h-964l303 1434h944l-45 -213h-709l-86 -408h666l-45 -211h-666l-82 -387h727z" />
    <glyph glyph-name="F" unicode="F" horiz-adv-x="1198" 
d="M526 1221l-98 -461h643l-45 -217h-645l-113 -543h-237l303 1434h917l-45 -213h-680z" />
    <glyph glyph-name="G" unicode="G" horiz-adv-x="1593" 
d="M1487 786l-117 -536q-288 -279 -678 -279q-115 1 -212 27.5t-166.5 74t-120.5 115t-74 149.5t-26.5 177t20.5 199q33 157 113 293.5t194.5 236.5t266.5 157.5t321 57.5q188 0 326.5 -82.5t203.5 -228.5l-223 -133q-39 107 -130 165t-224 58q-222 0 -390.5 -149
t-214.5 -375q-48 -224 54.5 -370.5t326.5 -149.5q264 0 439 151l53 248h-340l41 194h557z" />
    <glyph glyph-name="H" unicode="H" horiz-adv-x="1548" 
d="M1518 1434l-304 -1434h-235l119 569h-711l-119 -569h-237l303 1434h237l-137 -646h711l137 646h236z" />
    <glyph glyph-name="I" unicode="I" horiz-adv-x="610" 
d="M338 1434h237l-303 -1434h-237z" />
    <glyph glyph-name="J" unicode="J" horiz-adv-x="1214" 
d="M391 -31q-129 0 -229 62.5t-146.5 168.5t-27.5 228l250 76l-9 -37q-23 -109 38 -187.5t173 -78.5q109 0 204 78.5t118 187.5l205 967h235l-203 -961q-29 -137 -121 -253t-221.5 -183.5t-265.5 -67.5z" />
    <glyph glyph-name="K" unicode="K" horiz-adv-x="1366" 
d="M1497 1434l-844 -723l537 -711h-293l-426 551l-106 -90l-97 -461h-237l303 1434h237l-141 -672l780 672h287z" />
    <glyph glyph-name="L" unicode="L" horiz-adv-x="1189" 
d="M1022 219l-47 -219h-944l303 1434h237l-258 -1215h709z" />
    <glyph glyph-name="M" unicode="M" horiz-adv-x="1914" 
d="M1884 1434l-303 -1434h-233l231 1096l-690 -1096h-184l-209 1096l-232 -1096h-233l303 1434h303l217 -1166l737 1166h293z" />
    <glyph glyph-name="N" unicode="N" horiz-adv-x="1593" 
d="M1563 1434l-303 -1434h-222l-553 1047l-221 -1047h-233l303 1434h221l553 -1049l221 1049h234z" />
    <glyph glyph-name="O" unicode="O" horiz-adv-x="1714" 
d="M700 -27q-214 0 -364 95.5t-209 265.5t-14 383t176.5 383t322 265t404.5 95q213 0 362.5 -95t208.5 -265t15 -383q-45 -213 -176.5 -383t-322 -265.5t-403.5 -95.5zM745 195q217 0 391.5 148.5t221.5 373.5q47 226 -63 374t-326 148q-217 0 -391.5 -148.5t-221.5 -373.5
q-47 -226 63 -374t326 -148z" />
    <glyph glyph-name="P" unicode="P" horiz-adv-x="1347" 
d="M950 1434q203 0 306 -135t59 -345q-45 -214 -205 -348.5t-362 -134.5h-381l-99 -471h-237l303 1434h616zM762 686q110 0 195.5 72.5t111.5 195.5q25 114 -31.5 190.5t-163.5 76.5h-348l-114 -535h350z" />
    <glyph glyph-name="Q" unicode="Q" horiz-adv-x="1712" 
d="M1604 717q-35 -162 -130.5 -304t-234.5 -245l109 -182l-185 -123l-112 190q-174 -80 -353 -80q-114 0 -210.5 26.5t-167 75t-122.5 116t-76.5 150.5t-29.5 178t19 198q33 154 115 290t198.5 236.5t269.5 158.5t320 58q122 0 228 -37.5t183 -105t128 -161t63 -204
t-12 -235.5zM745 193q97 0 193 49l-111 188l181 125l122 -201q84 68 144.5 163t83.5 200q30 142 -11.5 262.5t-141.5 190t-236 69.5q-219 0 -392 -150.5t-221 -371.5q-31 -145 5 -263.5t136 -189.5t248 -71z" />
    <glyph glyph-name="R" unicode="R" horiz-adv-x="1361" 
d="M580 522h-205l-111 -518h-235l303 1430h641q124 0 215.5 -61t130 -165.5t12.5 -228.5q-33 -160 -156 -280.5t-280 -153.5l-51 -6l280 -531l-280 -8zM420 737h377q99 0 183.5 70.5t106.5 171.5q22 100 -34 171t-154 71h-377z" />
    <glyph glyph-name="S" unicode="S" horiz-adv-x="1288" 
d="M496 -27q-210 0 -342 84t-172 238l190 127q84 -236 377 -236q145 0 239.5 56.5t114.5 154.5q15 75 -30 122t-171 79l-204 51q-195 51 -272.5 149t-45.5 251q39 187 204 299t411 112q189 0 315 -74t170 -202l-190 -129q-87 194 -342 194q-138 0 -223 -51.5t-105 -144.5
q-14 -70 32.5 -116t178.5 -79l213 -53q189 -49 261.5 -147t39.5 -248q-41 -197 -218 -317t-431 -120z" />
    <glyph glyph-name="T" unicode="T" horiz-adv-x="1249" 
d="M614 1214h-462l47 220h1157l-47 -220h-459l-258 -1214h-236z" />
    <glyph glyph-name="U" unicode="U" horiz-adv-x="1515" 
d="M604 -25q-264 0 -393 163t-74 427l185 869h237l-188 -883q-35 -164 39.5 -259t240.5 -95q172 0 283 93.5t147 260.5l187 883h237l-184 -869q-56 -265 -251.5 -427.5t-465.5 -162.5z" />
    <glyph glyph-name="V" unicode="V" horiz-adv-x="1402" 
d="M1528 1434l-836 -1434h-278l-236 1434h254l178 -1158l664 1158h254z" />
    <glyph glyph-name="W" unicode="W" horiz-adv-x="2152" 
d="M2007 1434h252l-739 -1434h-267l-108 977l-549 -977h-262l-137 1434h252l98 -1104l633 1104h120l142 -1110z" />
    <glyph glyph-name="X" unicode="X" horiz-adv-x="1304" 
d="M850 0l-229 535l-467 -535h-275l637 725l-301 709h268l219 -529l439 529h266l-600 -711l315 -723h-272z" />
    <glyph glyph-name="Y" unicode="Y" horiz-adv-x="1312" 
d="M1462 1434l-719 -859l-122 -575h-238l121 575l-350 859h270l248 -631l518 631h272z" />
    <glyph glyph-name="Z" unicode="Z" horiz-adv-x="1245" 
d="M1051 213l-45 -213h-1072l37 178l973 1043h-735l45 213h1044l-36 -179l-971 -1042h760z" />
    <glyph glyph-name="bracketleft" unicode="[" horiz-adv-x="776" 
d="M530 1315l-286 -1352h303l-43 -201h-524l372 1754h525l-43 -201h-304z" />
    <glyph glyph-name="backslash" unicode="\" horiz-adv-x="1007" 
d="M582 -193l-396 1709h217l396 -1709h-217z" />
    <glyph glyph-name="bracketright" unicode="]" horiz-adv-x="776" 
d="M764 1516l-373 -1754h-524l41 201h301l287 1352h-301l45 201h524z" />
    <glyph glyph-name="asciicircum" unicode="^" horiz-adv-x="1183" 
d="M883 721l-191 459l-389 -459h-246l574 663h205l292 -663h-245z" />
    <glyph glyph-name="underscore" unicode="_" horiz-adv-x="892" 
d="M-176 -111h893l-35 -168h-893z" />
    <glyph glyph-name="grave" unicode="`" horiz-adv-x="1269" 
d="M627 1192l-215 338h266l170 -338h-221z" />
    <glyph glyph-name="a" unicode="a" horiz-adv-x="1116" 
d="M862 0h-194l39 184q-59 -97 -165 -152t-241 -55q-176 0 -254.5 90t-46.5 238q21 100 89 171t169 105t231.5 42t276.5 -17l14 66q19 98 -35.5 147t-154.5 49q-85 0 -167.5 -35.5t-148.5 -99.5l-96 129q208 187 469 187q192 0 289 -114.5t59 -295.5zM739 477
q-215 36 -352 -4.5t-160 -153.5q-19 -82 22 -128t144 -46q128 0 218 72t116 197z" />
    <glyph glyph-name="b" unicode="b" horiz-adv-x="1304" 
d="M819 1049q224 0 322.5 -147t48.5 -384q-53 -249 -210.5 -395t-385.5 -146q-130 0 -224.5 63.5t-117.5 168.5l-43 -209h-207l303 1434h223l-129 -613q46 88 162.5 158t257.5 70zM575 178q138 0 246 94.5t140 245.5q31 150 -35 243t-201 93q-141 0 -249.5 -93.5
t-139.5 -242.5q-32 -149 34.5 -244.5t204.5 -95.5z" />
    <glyph glyph-name="c" unicode="c" horiz-adv-x="1134" 
d="M467 -27q-239 0 -355 151.5t-63 393.5q51 242 231.5 395.5t417.5 153.5q152 0 258.5 -65.5t147.5 -184.5l-195 -117q-31 76 -94 117t-151 41q-140 0 -246.5 -93.5t-138.5 -246.5q-32 -151 34 -244.5t205 -93.5q89 0 171 42t145 120l143 -117q-91 -120 -224.5 -186
t-285.5 -66z" />
    <glyph glyph-name="d" unicode="d" horiz-adv-x="1304" 
d="M1307 1434l-303 -1434h-207l43 209q-67 -105 -189 -168.5t-252 -63.5q-230 0 -324.5 146t-39.5 395q50 237 211 384t383 147q133 0 223 -71t100 -157l131 613h224zM506 178q137 0 244.5 95.5t138.5 244.5t-38 242.5t-210 93.5q-135 0 -240 -93t-137 -243
q-32 -152 35 -246t207 -94z" />
    <glyph glyph-name="e" unicode="e" horiz-adv-x="1224" 
d="M260 459q-27 -130 49.5 -212.5t212.5 -82.5q106 0 205.5 39t163.5 106l98 -133q-86 -92 -224.5 -145.5t-289.5 -53.5q-246 0 -365.5 148.5t-68.5 390.5q51 234 233.5 382.5t417.5 148.5q258 0 363 -156t26 -432h-821zM657 877q-128 0 -234 -81.5t-134 -193.5h598
q24 121 -37.5 198t-192.5 77z" />
    <glyph glyph-name="f" unicode="f" horiz-adv-x="815" 
d="M281 823h-218l43 201h220l30 145q28 129 125 197t215 68h238l-41 -201h-221q-33 0 -58.5 -23t-33.5 -57l-27 -129h291l-43 -201h-293l-172 -823h-227z" />
    <glyph glyph-name="g" unicode="g" horiz-adv-x="1320" 
d="M1237 1026l-199 -932q-51 -236 -234.5 -386t-424.5 -150q-156 0 -276 58.5t-175 154.5l138 159q49 -78 138.5 -125t201.5 -47q94 0 178 37t150.5 120t90.5 200l27 123q-66 -103 -172.5 -165.5t-235.5 -62.5q-232 0 -336.5 145.5t-54.5 383.5q48 228 207 369t381 141
q72 0 131.5 -17t96 -42t63 -57t38.5 -59.5t15 -52.5l45 205h207zM518 197q138 0 247.5 90t139.5 235q33 158 -40 244t-201 86q-140 0 -246 -91.5t-137 -238.5q-31 -143 33.5 -234t203.5 -91z" />
    <glyph glyph-name="h" unicode="h" horiz-adv-x="1239" 
d="M788 1044q164 0 248 -105.5t49 -268.5l-139 -670h-229l129 612q23 105 -31 175.5t-156 70.5q-107 0 -194.5 -74.5t-110.5 -185.5l-127 -598h-227l303 1434h227l-118 -560q58 76 160 123t216 47z" />
    <glyph glyph-name="i" unicode="i" horiz-adv-x="534" 
d="M377 1229q-60 0 -92.5 41t-20.5 100t62 100t110 41q57 0 90 -41.5t21 -99.5t-62.5 -99.5t-107.5 -41.5zM219 1024h227l-217 -1024h-227z" />
    <glyph glyph-name="j" unicode="j" horiz-adv-x="534" 
d="M375 1231q-65 0 -96.5 38t-18.5 101t62 101t114 38q66 0 97.5 -38t17.5 -101q-13 -63 -61.5 -101t-114.5 -38zM-279 -209h115q57 0 95.5 31t50.5 88l235 1114h229l-245 -1155q-28 -131 -122 -205t-235 -74h-166z" />
    <glyph glyph-name="k" unicode="k" horiz-adv-x="1114" 
d="M680 0l-309 401l-74 -67l-70 -334h-227l303 1434h227l-178 -838l543 428h264l-586 -475l377 -549h-270z" />
    <glyph glyph-name="l" unicode="l" horiz-adv-x="518" 
d="M-8 0l303 1434h227l-303 -1434h-227z" />
    <glyph glyph-name="m" unicode="m" horiz-adv-x="1878" 
d="M1446 1049q156 0 234.5 -111t43.5 -276l-139 -662h-229l127 602q23 103 -26 172.5t-142 69.5q-100 0 -179.5 -70t-101.5 -172l-127 -602h-227l127 602q22 104 -29 173t-145 69q-98 0 -176.5 -70t-100.5 -172l-127 -602h-227l217 1024h223l-34 -162q59 83 158.5 135
t205.5 52q111 0 189 -60t92 -153q61 94 168.5 153.5t224.5 59.5z" />
    <glyph glyph-name="n" unicode="n" horiz-adv-x="1234" 
d="M786 1049q157 0 244 -109t53 -264l-141 -676h-229l127 600q22 100 -34 171.5t-157 72.5q-101 0 -187 -72t-108 -172l-125 -600h-229l217 1024h223l-37 -172q65 89 169 143t214 54z" />
    <glyph glyph-name="o" unicode="o" horiz-adv-x="1273" 
d="M479 -25q-245 0 -364.5 151t-67.5 394q50 233 235.5 381t430.5 148q241 0 361.5 -148.5t70.5 -380.5q-53 -240 -238.5 -392.5t-427.5 -152.5zM522 172q141 0 250 95.5t141 246.5q31 151 -36 247.5t-205 96.5q-143 0 -253.5 -96t-142.5 -248t36.5 -247t209.5 -95z" />
    <glyph glyph-name="p" unicode="p" horiz-adv-x="1320" 
d="M819 1047q228 0 323.5 -145.5t43.5 -395.5q-52 -236 -213.5 -382.5t-384.5 -146.5q-141 0 -227.5 70t-96.5 158l-121 -576h-223l297 1395h207l-45 -209q67 105 188.5 168.5t251.5 63.5zM575 170q136 0 241.5 93.5t137.5 242.5q32 152 -34 247t-205 95q-137 0 -245 -95.5
t-140 -246.5q-32 -148 36 -242t209 -94z" />
    <glyph glyph-name="q" unicode="q" horiz-adv-x="1320" 
d="M1235 1024l-303 -1427h-223l129 608q-48 -89 -164 -158.5t-258 -69.5q-148 0 -244.5 68.5t-126 186t1.5 274.5q52 250 209 395.5t387 145.5q130 0 224 -63.5t116 -168.5l45 209h207zM512 170q141 0 250 94t141 242q31 151 -36.5 246.5t-204.5 95.5q-140 0 -247 -95
t-139 -247q-32 -149 34.5 -242.5t201.5 -93.5z" />
    <glyph glyph-name="r" unicode="r" horiz-adv-x="841" 
d="M770 1047q46 0 90 -13l-47 -217q-65 6 -131 6q-132 0 -222.5 -77t-121.5 -216l-111 -530h-227l217 1024h221l-39 -184q66 94 165 150.5t206 56.5z" />
    <glyph glyph-name="s" unicode="s" horiz-adv-x="1042" 
d="M375 -27q-150 0 -262.5 49t-165.5 136l137 153q46 -68 136 -109.5t196 -41.5q97 0 156 35.5t71 95.5q9 46 -20.5 75.5t-106.5 49.5l-184 47q-137 35 -190 104.5t-29 175.5q31 150 162 237t327 87q134 0 236.5 -43t150.5 -117l-137 -153q-113 125 -291 125
q-94 0 -150.5 -33t-68.5 -94q-9 -43 19 -71t104 -48l184 -47q145 -37 198.5 -107t29.5 -178q-32 -152 -165.5 -240t-336.5 -88z" />
    <glyph glyph-name="t" unicode="t" horiz-adv-x="851" 
d="M307 0q-89 0 -139 63t-31 152l129 608h-200l43 201h202l68 324h229l-69 -324h301l-43 -201h-301l-125 -590q-3 -28 20 -28h277l-41 -205h-320z" />
    <glyph glyph-name="u" unicode="u" horiz-adv-x="1230" 
d="M1145 1024l-217 -1024h-223l34 172q-63 -90 -168 -144.5t-215 -54.5q-157 0 -244 110t-53 265l144 676h229l-129 -600q-20 -101 36 -171.5t157 -72.5q100 0 186.5 71.5t108.5 172.5l124 600h230z" />
    <glyph glyph-name="v" unicode="v" horiz-adv-x="1120" 
d="M1159 1024l-624 -1024h-250l-193 1024h246l131 -748l444 748h246z" />
    <glyph glyph-name="w" unicode="w" horiz-adv-x="1732" 
d="M1765 1040l-555 -1040h-254l-86 739l-399 -739h-254l-115 1040h234l78 -768l415 768h209l92 -768l402 768h233z" />
    <glyph glyph-name="x" unicode="x" horiz-adv-x="1101" 
d="M662 0l-185 377l-342 -377h-256l483 532l-245 492h254l174 -338l313 338h254l-457 -494l263 -530h-256z" />
    <glyph glyph-name="y" unicode="y" horiz-adv-x="1128" 
d="M1171 1040l-729 -1202q-76 -128 -181 -188t-251 -60h-207l43 205h170q90 0 145.5 28.5t92.5 92.5l57 92l-207 1032h246l133 -766l445 766h243z" />
    <glyph glyph-name="z" unicode="z" horiz-adv-x="1013" 
d="M815 195l-41 -195h-844l31 152l690 694h-524l41 194h821l-33 -151l-688 -694h547z" />
    <glyph glyph-name="braceleft" unicode="{" horiz-adv-x="765" 
d="M492 885q-23 -107 -77.5 -166.5t-148.5 -79.5q85 -20 114.5 -79.5t6.5 -166.5l-57 -272q-20 -89 4.5 -123.5t107.5 -34.5h95l-43 -201h-168q-163 0 -216 66.5t-18 226.5l72 338q15 78 -12 112t-103 34h-12l43 200h14q76 0 116.5 34.5t57.5 111.5l72 338
q35 160 115.5 226.5t242.5 66.5h168l-43 -201h-94q-83 0 -122 -34.5t-58 -123.5z" />
    <glyph glyph-name="bar" unicode="|" horiz-adv-x="638" 
d="M403 1567h193l-377 -1772h-192z" />
    <glyph glyph-name="braceright" unicode="}" horiz-adv-x="765" 
d="M698 739l-45 -200h-14q-76 0 -116.5 -34t-57.5 -112l-72 -338q-34 -160 -115 -226.5t-243 -66.5h-168l41 201h94q83 0 123 34.5t59 123.5l58 272q23 107 77.5 166.5t147.5 79.5q-85 20 -114.5 79.5t-6.5 166.5l60 272q19 89 -7 123.5t-110 34.5h-94l45 201h168
q163 0 215.5 -66.5t17.5 -226.5l-72 -338q-17 -76 10.5 -111t104.5 -35h14z" />
    <glyph glyph-name="asciitilde" unicode="~" horiz-adv-x="1454" 
d="M496 602q-63 0 -124.5 -21.5t-144.5 -72.5l43 203q142 92 273 92q45 0 99.5 -16.5t97 -37t94.5 -37t94 -16.5q132 0 270 95l-43 -203q-145 -94 -266 -94q-58 0 -127 27l-138 54t-128 27z" />
    <glyph glyph-name="uni00A0" unicode="&#xa0;" horiz-adv-x="473" 
 />
    <glyph glyph-name="exclamdown" unicode="&#xa1;" horiz-adv-x="616" 
d="M489 920q-8 -63 -49 -104.5t-106 -47.5q-63 -8 -97.5 25t-27.5 96q6 64 46.5 104.5t104.5 46.5q66 8 100.5 -24t28.5 -96zM383 582l-188 -977h-244l225 977h207z" />
    <glyph glyph-name="cent" unicode="&#xa2;" horiz-adv-x="1134" 
d="M569 184q156 22 265 158l143 -117q-82 -107 -200 -172.5t-253 -77.5l-49 -235h-84l49 233q-226 9 -334 159.5t-57 385.5q50 235 222.5 387.5t402.5 161.5l39 186h84l-41 -188q130 -12 220.5 -77t127.5 -171l-195 -117q-54 135 -196 154zM279 518q-31 -141 26 -233
t180 -103l144 674q-129 -12 -224 -103t-126 -235z" />
    <glyph glyph-name="sterling" unicode="&#xa3;" horiz-adv-x="1103" 
d="M336 205h600l-41 -205h-987l41 205h155l89 418h-152l35 165h151l54 250q43 201 174 311.5t329 110.5q297 0 377 -241l-200 -119q-54 143 -205 143q-97 0 -160 -56t-88 -165l-49 -234h475l-35 -165h-475z" />
    <glyph glyph-name="currency" unicode="&#xa4;" horiz-adv-x="1138" 
d="M993 711q-29 -134 -123 -242l101 -129l-127 -107l-105 136q-118 -70 -258 -70q-141 0 -225 72l-166 -138l-82 107l158 129q-51 109 -21 242q27 137 123 243l-100 129l127 107l104 -137q115 71 258 71t226 -71l166 137l81 -107l-157 -129q49 -105 20 -243zM520 487
q99 0 173.5 62.5t94.5 161.5q22 100 -25 162.5t-145 62.5q-99 0 -173.5 -62.5t-96.5 -162.5q-20 -99 27 -161.5t145 -62.5z" />
    <glyph glyph-name="yen" unicode="&#xa5;" horiz-adv-x="1204" 
d="M770 725h313l-28 -137h-363l-39 -182h363l-29 -140h-364l-56 -266h-233l57 266h-362l30 140h361l39 182h-361l29 137h309l-262 709h246l211 -588l456 588h246z" />
    <glyph glyph-name="brokenbar" unicode="&#xa6;" horiz-adv-x="638" 
d="M403 1567h193l-154 -729h-192zM178 508h193l-152 -713h-192z" />
    <glyph glyph-name="section" unicode="&#xa7;" horiz-adv-x="1128" 
d="M737 348q193 -79 148 -274q-33 -160 -168 -250t-350 -90q-155 0 -271 48t-168 134l135 154q48 -68 140 -107t211 -39q210 0 239 142q12 59 -18.5 94t-114.5 55l-184 47q-146 37 -206.5 111t-35.5 190q22 102 95 179t180 106q-189 75 -146 272q32 159 167.5 249.5
t346.5 90.5q141 0 244.5 -42t151.5 -118l-140 -151q-106 121 -297 121q-212 0 -239 -144q-12 -58 17 -91t110 -52l186 -47q149 -38 208 -112t34 -189q-22 -104 -95 -181t-180 -106zM322 602q-14 -71 19 -111.5t126 -62.5l55 -10q102 -16 172 36.5t88 141.5
q15 70 -18.5 109.5t-126.5 64.5l-57 8q-102 16 -170 -36t-88 -140z" />
    <glyph glyph-name="dieresis" unicode="&#xa8;" horiz-adv-x="1269" 
d="M506 1229q-64 0 -95.5 39t-17.5 102q12 61 60.5 100t111.5 39q64 0 95.5 -38.5t17.5 -100.5q-12 -63 -60.5 -102t-111.5 -39zM981 1229q-63 0 -94 39t-19 102q13 61 62 100t112 39t94 -38.5t19 -100.5q-12 -63 -60.5 -102t-113.5 -39z" />
    <glyph glyph-name="copyright" unicode="&#xa9;" horiz-adv-x="1703" 
d="M694 -27q-102 -1 -193.5 25t-162.5 74.5t-126 117t-84 152t-36.5 178.5t17.5 197q30 150 118 288.5t209 238.5t272 159t302 57q101 1 192.5 -25t162.5 -74.5t126 -117t84 -151.5t36.5 -178t-16.5 -197q-30 -150 -118 -288.5t-209 -239t-272 -159.5t-302 -57zM717 86
q171 -2 332.5 83.5t273.5 231t147 316.5q21 105 13 199t-49.5 173.5t-104 137t-151 90t-191.5 31.5q-172 1 -334 -84t-274.5 -230.5t-147.5 -316.5q-38 -171 13 -317t176.5 -231t296.5 -83zM782 291q-188 0 -277.5 118.5t-49.5 309.5q42 190 181.5 308t328.5 118
q120 0 203 -50t112 -141l-158 -96q-20 58 -69 88.5t-119 30.5q-105 0 -186 -70.5t-107 -187.5q-25 -119 26 -189.5t158 -70.5q144 0 240 119l117 -95q-72 -92 -176 -142t-224 -50z" />
    <glyph glyph-name="guillemotleft" unicode="&#xab;" horiz-adv-x="1159" 
d="M254 520l213 -444h-240l-215 444l406 443h239zM739 520l215 -444h-239l-215 444l403 443h242z" />
    <glyph glyph-name="logicalnot" unicode="&#xac;" horiz-adv-x="1454" 
d="M1190 752l-88 -416h-213l45 211h-698l43 205h911z" />
    <glyph glyph-name="registered" unicode="&#xae;" horiz-adv-x="1124" 
d="M721 1462q124 0 215 -60.5t129 -164t12 -225.5q-40 -188 -200 -320.5t-349 -132.5q-188 0 -292 132.5t-66 320.5q40 186 201 318t350 132zM545 645q152 0 278.5 107t157.5 260q32 152 -49 258t-232 106t-276.5 -106t-157.5 -258q-32 -153 48 -260t231 -107zM844 1104
q-12 -64 -53 -101t-107 -45l100 -180h-100l-92 176h-66l-39 -176h-88l103 475h203q84 0 119 -38t20 -111zM543 1028h110q84 0 99 74q9 35 -8.5 53.5t-59.5 18.5h-111z" />
    <glyph glyph-name="macron" unicode="&#xaf;" horiz-adv-x="1425" 
d="M516 1350h662l-37 -181h-662z" />
    <glyph glyph-name="degree" unicode="&#xb0;" horiz-adv-x="776" 
d="M412 829q-140 0 -213 90t-45 226q29 136 140 225.5t251 89.5q142 0 214.5 -89.5t43.5 -225.5t-139.5 -226t-251.5 -90zM442 979q72 0 128 46.5t71 119.5q15 74 -20 120t-107 46t-127 -46t-72 -120q-14 -74 21 -120t106 -46z" />
    <glyph glyph-name="plusminus" unicode="&#xb1;" horiz-adv-x="1454" 
d="M1214 868l-43 -204h-348l-67 -324h-215l67 324h-348l43 204h348l70 324h215l-70 -324h348zM162 205h911l-41 -205h-911z" />
    <glyph glyph-name="acute" unicode="&#xb4;" horiz-adv-x="1269" 
d="M940 1530h266l-356 -338h-223z" />
    <glyph glyph-name="uni00B5" unicode="&#xb5;" horiz-adv-x="1247" 
d="M1163 1040l-219 -1040h-203l35 172q-53 -94 -141 -146.5t-195 -52.5q-154 0 -194 111l-115 -535h-227l315 1491h227l-129 -610q-51 -250 170 -250q126 0 212 75.5t118 223.5l119 561h227z" />
    <glyph glyph-name="paragraph" unicode="&#xb6;" horiz-adv-x="1341" 
d="M506 809h-29q-170 0 -248.5 86.5t-48.5 226.5q30 141 151 226.5t312 85.5h193l-361 -1700h-196zM1071 1434h199l-361 -1700h-198z" />
    <glyph glyph-name="cedilla" unicode="&#xb8;" horiz-adv-x="1269" 
d="M403 23h195l-213 -431h-233z" />
    <glyph glyph-name="guillemotright" unicode="&#xbb;" horiz-adv-x="1159" 
d="M336 520l-215 443h239l218 -443l-406 -444h-242zM1063 520l-406 -444h-239l405 444l-215 443h240z" />
    <glyph glyph-name="questiondown" unicode="&#xbf;" horiz-adv-x="950" 
d="M690 920q-6 -63 -47 -104.5t-106 -47.5q-65 -8 -99.5 25t-27.5 96q6 64 47 104.5t104 46.5q66 8 100.5 -24t28.5 -96zM563 465q-18 -75 -37 -113.5t-56.5 -75t-125.5 -100.5l-108 -76q-114 -83 -132 -170q-15 -72 26 -111.5t124 -39.5q90 0 177.5 50.5t160.5 147.5
l143 -108q-95 -137 -233 -214t-295 -77q-176 0 -267.5 95t-58.5 251q19 87 74.5 160t165.5 149l100 72q72 53 94 82t35 92l23 103h215z" />
    <glyph glyph-name="Agrave" unicode="&#xc0;" horiz-adv-x="1439" 
d="M782 1585l-153 338h227l148 -338h-222zM946 307h-637l-184 -307h-252l864 1434h246l270 -1434h-252zM915 512l-98 686l-389 -686h487z" />
    <glyph glyph-name="Aacute" unicode="&#xc1;" horiz-adv-x="1439" 
d="M1030 1585h-221l291 338h227zM946 307h-637l-184 -307h-252l864 1434h246l270 -1434h-252zM915 512l-98 686l-389 -686h487z" />
    <glyph glyph-name="Acircumflex" unicode="&#xc2;" horiz-adv-x="1439" 
d="M739 1585h-229l367 338h225l223 -338h-229l-133 209zM946 307h-637l-184 -307h-252l864 1434h246l270 -1434h-252zM915 512l-98 686l-389 -686h487z" />
    <glyph glyph-name="Atilde" unicode="&#xc3;" horiz-adv-x="1439" 
d="M926 1675q-50 47 -99 47q-72 0 -92 -108h-168q29 138 94 210t158 72q79 0 160 -67q53 -47 100 -47q72 0 92 108h168q-29 -138 -94 -210t-158 -72q-43 0 -79.5 15.5t-81.5 51.5zM946 307h-637l-184 -307h-252l864 1434h246l270 -1434h-252zM915 512l-98 686l-389 -686h487
z" />
    <glyph glyph-name="Adieresis" unicode="&#xc4;" horiz-adv-x="1439" 
d="M688 1620q-60 0 -93 41.5t-20 101.5q10 58 62.5 101t112.5 43q57 0 89.5 -42.5t20.5 -101.5q-13 -60 -63 -101.5t-109 -41.5zM1165 1620q-60 0 -93 41.5t-21 101.5q12 59 63 101.5t111 42.5q58 0 90.5 -42.5t21.5 -101.5q-13 -60 -64 -101.5t-108 -41.5zM946 307h-637
l-184 -307h-252l864 1434h246l270 -1434h-252zM915 512l-98 686l-389 -686h487z" />
    <glyph glyph-name="Aring" unicode="&#xc5;" horiz-adv-x="1439" 
d="M758 1753q-17 76 32.5 151t139.5 107q91 31 163 0.5t89 -104.5q19 -75 -31 -150.5t-141 -107.5q-91 -31 -162 -1t-90 105zM1047 1894q-24 29 -57.5 28.5t-69.5 -28.5q-38 -29 -44.5 -64t17.5 -65q22 -29 56 -28.5t73 28.5q35 29 41.5 63.5t-16.5 65.5zM946 307h-637
l-184 -307h-252l864 1434h246l270 -1434h-252zM915 512l-98 686l-389 -686h487z" />
    <glyph glyph-name="AE" unicode="&#xc6;" horiz-adv-x="2226" 
d="M1999 217l-47 -217h-1020l67 326h-575l-279 -326h-282l1233 1434h1138l-45 -217h-766l-80 -383h723l-47 -218h-723l-84 -399h787zM1040 522l152 711l-610 -711h458z" />
    <glyph glyph-name="Ccedilla" unicode="&#xc7;" horiz-adv-x="1538" 
d="M741 193q143 0 268.5 68.5t211.5 191.5l165 -119q-114 -164 -275.5 -255.5t-352.5 -103.5l-187 -383h-231l225 390q-138 20 -240.5 85t-157 161.5t-71 221.5t16.5 265q33 156 113.5 292.5t195.5 237t267.5 158t320.5 57.5q204 0 344 -96t194 -270l-217 -113
q-34 121 -130 188.5t-238 67.5q-223 0 -391 -148t-214 -374q-32 -148 2 -266t132.5 -187t248.5 -69z" />
    <glyph glyph-name="Egrave" unicode="&#xc8;" horiz-adv-x="1327" 
d="M811 1585l-154 338h228l147 -338h-221zM1092 215l-45 -215h-1016l303 1434h995l-45 -213h-760l-90 -424h717l-45 -211h-717l-78 -371h781z" />
    <glyph glyph-name="Eacute" unicode="&#xc9;" horiz-adv-x="1327" 
d="M932 1585h-223l290 338h230zM1096 215l-43 -215h-1022l303 1434h1001l-45 -213h-766l-86 -406h719l-45 -211h-719l-82 -389h785z" />
    <glyph glyph-name="Ecircumflex" unicode="&#xca;" horiz-adv-x="1327" 
d="M1034 1585l-133 209l-221 -209h-229l364 338h225l224 -338h-230zM1092 215l-45 -215h-1016l303 1434h995l-45 -213h-760l-90 -424h717l-45 -211h-717l-78 -371h781z" />
    <glyph glyph-name="Edieresis" unicode="&#xcb;" horiz-adv-x="1327" 
d="M512 1765q12 60 63 102t111 42q59 0 92 -42t21 -102q-12 -59 -63 -100t-109 -41q-60 0 -93.5 40.5t-21.5 100.5zM989 1765q12 60 63 102t111 42q59 0 91.5 -42t19.5 -102q-12 -59 -62.5 -100t-109.5 -41q-60 0 -92.5 40.5t-20.5 100.5zM1092 215l-45 -215h-1016l303 1434
h995l-45 -213h-760l-90 -424h717l-45 -211h-717l-78 -371h781z" />
    <glyph glyph-name="Igrave" unicode="&#xcc;" horiz-adv-x="610" 
d="M416 1585l-193 338h266l148 -338h-221zM338 1434h237l-303 -1434h-237z" />
    <glyph glyph-name="Iacute" unicode="&#xcd;" horiz-adv-x="610" 
d="M670 1913h266l-336 -338h-221zM338 1434h237l-303 -1434h-237z" />
    <glyph glyph-name="Icircumflex" unicode="&#xce;" horiz-adv-x="610" 
d="M897 1585h-229l-133 209l-224 -209h-229l367 338h225zM338 1434h237l-303 -1434h-237z" />
    <glyph glyph-name="Idieresis" unicode="&#xcf;" horiz-adv-x="610" 
d="M258 1624q-63 0 -94 38.5t-19 100.5q14 62 62 102t112 40q63 0 94 -40t19 -102q-14 -62 -62 -100.5t-112 -38.5zM735 1624q-63 0 -93.5 38.5t-18.5 100.5t61 102t113 40q62 0 93 -40t19 -102q-13 -61 -62 -100t-112 -39zM338 1434h237l-303 -1434h-237z" />
    <glyph glyph-name="Eth" unicode="&#xd0;" horiz-adv-x="1574" 
d="M1466 717q-48 -224 -173 -387t-302.5 -246.5t-388.5 -83.5h-522l131 623h-199l43 188h197l131 623h522q158 0 279 -48t195.5 -140t98.5 -225t-12 -304zM1219 717q52 245 -43.5 371t-317.5 126h-285l-84 -403h347l-41 -188h-349l-84 -404h285q220 0 369.5 127t202.5 371z
" />
    <glyph glyph-name="Eth" unicode="&#xf0;" horiz-adv-x="1574" 
d="M1466 717q-48 -224 -173 -387t-302.5 -246.5t-388.5 -83.5h-522l131 623h-199l43 188h197l131 623h522q158 0 279 -48t195.5 -140t98.5 -225t-12 -304zM1219 717q52 245 -43.5 371t-317.5 126h-285l-84 -403h347l-41 -188h-349l-84 -404h285q220 0 369.5 127t202.5 371z
" />
    <glyph glyph-name="Ntilde" unicode="&#xd1;" horiz-adv-x="1605" 
d="M899 1722q-71 0 -94 -108h-166q29 138 93.5 210t156.5 72q82 0 160 -67q53 -47 100 -47q71 0 94 108h168q-29 -138 -94 -210t-158 -72q-45 0 -81.5 15.5t-80.5 51.5q-50 47 -98 47zM1575 1434l-303 -1434h-221l-566 1047l-221 -1047h-233l303 1434h221l565 -1049
l223 1049h232z" />
    <glyph glyph-name="Ograve" unicode="&#xd2;" horiz-adv-x="1703" 
d="M975 1585l-156 338h230l147 -338h-221zM700 -27q-214 0 -364 95.5t-209 265.5t-14 383t176.5 383t322 265t404.5 95q213 0 362.5 -95t208.5 -265t15 -383q-45 -213 -176.5 -383t-322 -265.5t-403.5 -95.5zM745 195q217 0 391.5 148.5t221.5 373.5q47 226 -63 374
t-326 148q-217 0 -391.5 -148.5t-221.5 -373.5q-47 -226 63 -374t326 -148z" />
    <glyph glyph-name="Oacute" unicode="&#xd3;" horiz-adv-x="1703" 
d="M1112 1585h-221l291 338h227zM700 -27q-214 0 -364 95.5t-209 265.5t-14 383t176.5 383t322 265t404.5 95q213 0 362.5 -95t208.5 -265t15 -383q-45 -213 -176.5 -383t-322 -265.5t-403.5 -95.5zM745 195q217 0 391.5 148.5t221.5 373.5q47 226 -63 374t-326 148
q-217 0 -391.5 -148.5t-221.5 -373.5q-47 -226 63 -374t326 -148z" />
    <glyph glyph-name="Ocircumflex" unicode="&#xd4;" horiz-adv-x="1703" 
d="M860 1585h-229l364 338h226l223 -338h-230l-133 209zM700 -27q-214 0 -364 95.5t-209 265.5t-14 383t176.5 383t322 265t404.5 95q213 0 362.5 -95t208.5 -265t15 -383q-45 -213 -176.5 -383t-322 -265.5t-403.5 -95.5zM745 195q217 0 391.5 148.5t221.5 373.5
q47 226 -63 374t-326 148q-217 0 -391.5 -148.5t-221.5 -373.5q-47 -226 63 -374t326 -148z" />
    <glyph glyph-name="Otilde" unicode="&#xd5;" horiz-adv-x="1703" 
d="M1206 1608q-43 0 -79 15.5t-80 51.5q-53 47 -99 47q-71 0 -94 -108h-168q29 138 94 210t158 72q79 0 160 -67q53 -47 100 -47q71 0 94 108h166q-29 -138 -94 -210t-158 -72zM694 -27q-210 -3 -361 94.5t-210.5 269t-13.5 378.5q42 208 175 380t325.5 270t400.5 95
q210 3 361 -95t210.5 -270t13.5 -380q-32 -155 -117.5 -293.5t-205 -237.5t-270.5 -156t-308 -55zM741 197q217 0 388.5 145.5t218.5 372.5q50 229 -58.5 375.5t-326.5 146.5q-217 0 -387 -146.5t-220 -375.5q-49 -227 59.5 -372.5t325.5 -145.5z" />
    <glyph glyph-name="Odieresis" unicode="&#xd6;" horiz-adv-x="1703" 
d="M807 1624q-60 0 -93.5 40.5t-21.5 100.5t63 102t111 42q59 0 92 -42t21 -102q-12 -59 -63 -100t-109 -41zM1282 1624q-60 0 -92.5 40.5t-20.5 100.5t63 102t111 42q59 0 91.5 -42t19.5 -102q-12 -59 -62.5 -100t-109.5 -41zM700 -27q-214 0 -364 95.5t-209 265.5t-14 383
t176.5 383t322 265t404.5 95q213 0 362.5 -95t208.5 -265t15 -383q-45 -213 -176.5 -383t-322 -265.5t-403.5 -95.5zM745 195q217 0 391.5 148.5t221.5 373.5q47 226 -63 374t-326 148q-217 0 -391.5 -148.5t-221.5 -373.5q-47 -226 63 -374t326 -148z" />
    <glyph glyph-name="multiply" unicode="&#xd7;" horiz-adv-x="1454" 
d="M852 649l231 -293l-170 -139l-231 293l-354 -293l-111 139l356 293l-231 293l170 139l231 -293l355 293l110 -139z" />
    <glyph glyph-name="Oslash" unicode="&#xd8;" horiz-adv-x="1703" 
d="M1595 715q-32 -155 -117.5 -293.5t-205 -237.5t-270.5 -156t-308 -55q-268 0 -430 156l-180 -147l-96 122l176 146q-114 195 -55 465q42 208 175 380t325.5 270t400.5 95q271 0 432 -155l182 149l96 -123l-178 -149q110 -203 53 -467zM356 715q-36 -160 21 -293l864 713
q-102 102 -278 102q-217 0 -387 -146.5t-220 -375.5zM1348 715q37 168 -23 295l-860 -711q102 -102 276 -102q217 0 388.5 145.5t218.5 372.5z" />
    <glyph glyph-name="Ugrave" unicode="&#xd9;" horiz-adv-x="1513" 
d="M858 1585l-153 338h227l147 -338h-221zM604 -27q-174 0 -293 74t-165 209t-9 309l185 869h237l-188 -883q-35 -164 39.5 -259t240.5 -95q172 0 283 93.5t147 260.5l187 883h237l-184 -869q-56 -266 -251.5 -429t-465.5 -163z" />
    <glyph glyph-name="Uacute" unicode="&#xda;" horiz-adv-x="1513" 
d="M1008 1585h-222l291 338h228zM604 -27q-174 0 -293 74t-165 209t-9 309l185 869h237l-188 -883q-35 -164 39.5 -259t240.5 -95q172 0 283 93.5t147 260.5l187 883h237l-184 -869q-56 -266 -251.5 -429t-465.5 -163z" />
    <glyph glyph-name="Ucircumflex" unicode="&#xdb;" horiz-adv-x="1513" 
d="M1118 1585l-133 209l-221 -209h-229l364 338h227l222 -338h-230zM604 -27q-174 0 -293 74t-165 209t-9 309l185 869h237l-188 -883q-35 -164 39.5 -259t240.5 -95q172 0 283 93.5t147 260.5l187 883h237l-184 -869q-56 -266 -251.5 -429t-465.5 -163z" />
    <glyph glyph-name="Udieresis" unicode="&#xdc;" horiz-adv-x="1513" 
d="M711 1624q-60 0 -93.5 40.5t-21.5 100.5q14 60 64 102t110 42q59 0 92 -42t21 -102q-12 -59 -63 -100t-109 -41zM1186 1624q-59 0 -92 40.5t-21 100.5t63 102t111 42q59 0 92 -42t21 -102q-12 -59 -63.5 -100t-110.5 -41zM604 -27q-174 0 -293 74t-165 209t-9 309
l185 869h237l-188 -883q-35 -164 39.5 -259t240.5 -95q172 0 283 93.5t147 260.5l187 883h237l-184 -869q-56 -266 -251.5 -429t-465.5 -163z" />
    <glyph glyph-name="Yacute" unicode="&#xdd;" horiz-adv-x="1318" 
d="M915 1585h-221l291 338h227zM1483 1434l-729 -859l-123 -575h-238l121 575l-360 859h270l258 -631l528 631h273z" />
    <glyph glyph-name="Thorn" unicode="&#xde;" horiz-adv-x="1370" 
d="M1290 731q-47 -229 -205.5 -347t-416.5 -118h-344l-56 -266h-237l303 1434h237l-51 -238h344q259 0 367.5 -118t58.5 -347zM1044 731q55 246 -237 246h-332l-106 -496h331q291 0 344 250z" />
    <glyph glyph-name="germandbls" unicode="&#xdf;" horiz-adv-x="1294" 
d="M874 764q165 -12 237.5 -108t37.5 -253q-39 -186 -186 -294.5t-371 -108.5h-180l43 199h141q280 0 328 227q23 109 -36.5 165t-203.5 56h-135l43 203h63q134 0 216.5 58t107.5 173q25 110 -29.5 170t-179.5 60q-264 0 -321 -269l-222 -1042h-227l223 1053
q46 221 200.5 342t389.5 121q224 0 330.5 -110t66.5 -296q-28 -134 -115.5 -224.5t-220.5 -121.5z" />
    <glyph glyph-name="agrave" unicode="&#xe0;" horiz-adv-x="1120" 
d="M629 1192l-193 338h266l148 -338h-221zM862 0h-194l39 184q-59 -97 -165 -152t-241 -55q-169 0 -250.5 91t-50.5 237q17 80 65.5 142t120 99.5t164 58.5t197 19.5t219.5 -18.5l16 78q18 89 -30 136.5t-144 47.5q-85 0 -169 -35.5t-150 -99.5l-96 129q77 81 212 133
t261 52q191 0 280.5 -107.5t52.5 -290.5zM739 477q-215 36 -352 -4.5t-160 -153.5q-19 -80 25.5 -127t140.5 -47q128 0 218 72t116 197z" />
    <glyph glyph-name="aacute" unicode="&#xe1;" horiz-adv-x="1153" 
d="M852 1192h-223l291 338h223zM879 0h-195l39 184q-59 -97 -165 -152t-241 -55q-170 0 -259 91.5t-58 236.5q17 80 67 142t124 99.5t168.5 58.5t201 19.5t221.5 -18.5l17 78q18 88 -28 136t-136 48q-92 0 -178 -35t-152 -100l-96 129q78 81 211 133t252 52
q210 0 296.5 -105.5t47.5 -292.5zM758 477q-216 36 -362 -4.5t-169 -153.5q-19 -78 33 -126t150 -48q129 0 218 71.5t115 197.5z" />
    <glyph glyph-name="acircumflex" unicode="&#xe2;" horiz-adv-x="1138" 
d="M895 1192l-133 207l-221 -207h-230l365 338h227l221 -338h-229zM862 0h-194l39 184q-59 -97 -165 -152t-241 -55q-169 0 -250.5 91t-50.5 237q17 80 65.5 142t120 99.5t164 58.5t197 19.5t219.5 -18.5l16 78q18 89 -30 136.5t-144 47.5q-85 0 -169 -35.5t-150 -99.5
l-96 129q77 81 212 133t261 52q191 0 280.5 -107.5t52.5 -290.5zM739 477q-215 36 -352 -4.5t-160 -153.5q-19 -80 25.5 -127t140.5 -47q128 0 218 72t116 197z" />
    <glyph glyph-name="atilde" unicode="&#xe3;" horiz-adv-x="1103" 
d="M770 1280q-49 49 -96 49q-71 0 -94 -108h-168q29 138 94 210t158 72q45 0 81 -15.5t78 -51.5q53 -50 101 -50q71 0 94 111h166q-29 -139 -94 -212t-158 -73q-83 0 -162 68zM862 0h-194l39 184q-59 -97 -165 -152t-241 -55q-169 0 -250.5 91t-50.5 237q17 80 65.5 142
t120 99.5t164 58.5t197 19.5t219.5 -18.5l16 78q18 89 -30 136.5t-144 47.5q-85 0 -169 -35.5t-150 -99.5l-96 129q77 81 212 133t261 52q191 0 280.5 -107.5t52.5 -290.5zM739 477q-215 36 -352 -4.5t-160 -153.5q-19 -80 25.5 -127t140.5 -47q128 0 218 72t116 197z" />
    <glyph glyph-name="adieresis" unicode="&#xe4;" horiz-adv-x="1181" 
d="M541 1229q-59 0 -92 41.5t-21 101.5q12 59 63 101.5t111 42.5q59 0 91.5 -43t19.5 -101q-10 -59 -61.5 -101t-110.5 -42zM1018 1229q-60 0 -93 41.5t-22 101.5q14 59 65 101.5t111 42.5q57 0 90.5 -43t20.5 -101q-12 -60 -62.5 -101.5t-109.5 -41.5zM862 0h-194l39 184
q-59 -97 -165 -152t-241 -55q-169 0 -250.5 91t-50.5 237q17 80 65.5 142t120 99.5t164 58.5t197 19.5t219.5 -18.5l16 78q18 89 -30 136.5t-144 47.5q-85 0 -169 -35.5t-150 -99.5l-96 129q77 81 212 133t261 52q191 0 280.5 -107.5t52.5 -290.5zM739 477
q-215 36 -352 -4.5t-160 -153.5q-19 -80 25.5 -127t140.5 -47q128 0 218 72t116 197z" />
    <glyph glyph-name="aring" unicode="&#xe5;" horiz-adv-x="1198" 
d="M723 1178q-117 0 -180 75t-41 183q25 109 118.5 183.5t210.5 74.5q116 0 179.5 -75t40.5 -183q-22 -108 -117 -183t-211 -75zM805 1563q-60 0 -103 -34.5t-55 -92.5q-11 -59 16 -93t87 -34t102.5 34.5t52.5 92.5q14 59 -13 93t-87 34zM862 0h-194l39 184
q-59 -97 -165 -152t-241 -55q-169 0 -250.5 91t-50.5 237q17 80 65.5 142t120 99.5t164 58.5t197 19.5t219.5 -18.5l16 78q18 89 -30 136.5t-144 47.5q-85 0 -169 -35.5t-150 -99.5l-96 129q77 81 212 133t261 52q191 0 280.5 -107.5t52.5 -290.5zM739 477
q-215 36 -352 -4.5t-160 -153.5q-19 -80 25.5 -127t140.5 -47q128 0 218 72t116 197z" />
    <glyph glyph-name="ae" unicode="&#xe6;" horiz-adv-x="1914" 
d="M1772 459h-820q-29 -130 47.5 -212.5t214.5 -82.5q105 0 204 39t163 106l100 -133q-88 -92 -226.5 -145.5t-289.5 -53.5q-146 0 -249.5 55t-153.5 156q-103 -108 -226.5 -159.5t-250.5 -51.5q-169 0 -250.5 91t-50.5 237q21 100 90.5 171t172 105t233 42t272.5 -17l14 78
q18 89 -29 136.5t-143 47.5q-87 0 -171.5 -35.5t-150.5 -99.5l-96 129q79 81 213.5 133t259.5 52q231 0 312 -152q185 152 423 152q257 0 362 -156t26 -432zM1348 877q-128 0 -234.5 -82t-134.5 -193h598q25 121 -36 198t-193 77zM377 145q135 0 221.5 70.5t110.5 190.5
l16 71q-215 36 -352.5 -4.5t-161.5 -153.5q-17 -80 27 -127t139 -47z" />
    <glyph glyph-name="ccedilla" unicode="&#xe7;" horiz-adv-x="1134" 
d="M518 180q89 0 171 42t145 120l143 -117q-76 -100 -183 -163t-231 -82l-194 -388h-232l228 390q-189 32 -275.5 177.5t-40.5 358.5q51 242 231.5 395.5t417.5 153.5q152 0 258.5 -65.5t147.5 -184.5l-195 -117q-31 76 -94 117t-151 41q-140 0 -246.5 -93.5t-138.5 -246.5
q-32 -151 34 -244.5t205 -93.5z" />
    <glyph glyph-name="egrave" unicode="&#xe8;" horiz-adv-x="1224" 
d="M643 1192l-192 338h266l147 -338h-221zM260 459q-27 -130 49.5 -212.5t212.5 -82.5q106 0 205.5 39t163.5 106l98 -133q-86 -92 -224.5 -145.5t-289.5 -53.5q-246 0 -365.5 148.5t-68.5 390.5q51 234 233.5 382.5t417.5 148.5q258 0 363 -156t26 -432h-821zM657 877
q-128 0 -234 -81.5t-134 -193.5h598q24 121 -37.5 198t-192.5 77z" />
    <glyph glyph-name="eacute" unicode="&#xe9;" horiz-adv-x="1230" 
d="M809 1192h-221l291 338h227zM260 459q-27 -130 49.5 -212.5t212.5 -82.5q106 0 205.5 39t163.5 106l98 -133q-86 -92 -224.5 -145.5t-289.5 -53.5q-246 0 -365.5 148.5t-68.5 390.5q51 234 233.5 382.5t417.5 148.5q258 0 363 -156t26 -432h-821zM657 877
q-128 0 -234 -81.5t-134 -193.5h598q24 121 -37.5 198t-192.5 77z" />
    <glyph glyph-name="ecircumflex" unicode="&#xea;" horiz-adv-x="1224" 
d="M897 1192l-133 207l-221 -207h-230l365 338h227l221 -338h-229zM260 459q-27 -130 49.5 -212.5t212.5 -82.5q106 0 205.5 39t163.5 106l98 -133q-86 -92 -224.5 -145.5t-289.5 -53.5q-246 0 -365.5 148.5t-68.5 390.5q51 234 233.5 382.5t417.5 148.5q258 0 363 -156
t26 -432h-821zM657 877q-128 0 -234 -81.5t-134 -193.5h598q24 121 -37.5 198t-192.5 77z" />
    <glyph glyph-name="edieresis" unicode="&#xeb;" horiz-adv-x="1224" 
d="M479 1229q-59 0 -91.5 41.5t-20.5 101.5q12 59 63 101.5t111 42.5q58 0 91 -42.5t19 -101.5q-10 -59 -61.5 -101t-110.5 -42zM956 1229q-60 0 -92.5 41.5t-21.5 101.5q14 59 65 101.5t111 42.5q57 0 90 -43t20 -101q-12 -60 -62.5 -101.5t-109.5 -41.5zM260 459
q-27 -130 49.5 -212.5t212.5 -82.5q106 0 205.5 39t163.5 106l98 -133q-86 -92 -224.5 -145.5t-289.5 -53.5q-246 0 -365.5 148.5t-68.5 390.5q51 234 233.5 382.5t417.5 148.5q258 0 363 -156t26 -432h-821zM657 877q-128 0 -234 -81.5t-134 -193.5h598q24 121 -37.5 198
t-192.5 77z" />
    <glyph glyph-name="igrave" unicode="&#xec;" horiz-adv-x="534" 
d="M76 1530h227l158 -338h-221zM219 1024h227l-217 -1024h-227z" />
    <glyph glyph-name="iacute" unicode="&#xed;" horiz-adv-x="534" 
d="M473 1192h-221l291 338h227zM219 1024h227l-217 -1024h-227z" />
    <glyph glyph-name="icircumflex" unicode="&#xee;" horiz-adv-x="534" 
d="M715 1192h-205l-98 209l-185 -209h-204l311 338h213zM219 1024h227l-217 -1024h-227z" />
    <glyph glyph-name="idieresis" unicode="&#xef;" horiz-adv-x="534" 
d="M186 1241q-54 0 -80 34.5t-14 94.5q13 58 54.5 92.5t95.5 34.5t79.5 -34.5t12.5 -92.5q-12 -60 -52 -94.5t-96 -34.5zM573 1241q-55 0 -81.5 35t-14.5 94q13 58 54.5 92.5t95.5 34.5t80 -34.5t14 -92.5q-13 -59 -54 -94t-94 -35zM219 1024h227l-217 -1024h-227z" />
    <glyph glyph-name="ntilde" unicode="&#xf1;" horiz-adv-x="1234" 
d="M733 1280q-49 49 -98 49q-71 0 -94 -108h-168q30 138 95 210t157 72q45 0 81 -15.5t78 -51.5q53 -50 101 -50q71 0 94 111h168q-31 -139 -96 -212t-158 -73q-78 0 -160 68zM786 1051q157 0 244 -110t53 -265l-141 -676h-229l127 600q22 100 -34 171.5t-157 72.5
q-101 0 -187 -72t-108 -172l-125 -600h-229l217 1024h223l-37 -172q65 90 169 144.5t214 54.5z" />
    <glyph glyph-name="ograve" unicode="&#xf2;" horiz-adv-x="1277" 
d="M694 1192l-153 338h227l147 -338h-221zM479 -27q-121 0 -216 42t-149 115.5t-74.5 173.5t7.5 216q33 153 126.5 277t236 197t305.5 73q165 0 275 -73t149 -196.5t6 -277.5q-25 -114 -85.5 -214t-146 -174t-198.5 -116.5t-236 -42.5zM524 178q145 0 251 97t138 245
q32 149 -31.5 245.5t-207.5 96.5q-146 0 -255 -96.5t-140 -245.5q-33 -150 32 -246t213 -96z" />
    <glyph glyph-name="oacute" unicode="&#xf3;" horiz-adv-x="1277" 
d="M817 1192h-223l291 338h229zM479 -27q-121 0 -216 42t-149 115.5t-74.5 173.5t7.5 216q33 153 126.5 277t236 197t305.5 73q165 0 275 -73t149 -196.5t6 -277.5q-25 -114 -85.5 -214t-146 -174t-198.5 -116.5t-236 -42.5zM524 178q145 0 251 97t138 245
q32 149 -31.5 245.5t-207.5 96.5q-146 0 -255 -96.5t-140 -245.5q-33 -150 32 -246t213 -96z" />
    <glyph glyph-name="ocircumflex" unicode="&#xf4;" horiz-adv-x="1277" 
d="M918 1192l-134 207l-221 -207h-229l364 338h226l223 -338h-229zM479 -27q-121 0 -216 42t-149 115.5t-74.5 173.5t7.5 216q33 153 126.5 277t236 197t305.5 73q165 0 275 -73t149 -196.5t6 -277.5q-25 -114 -85.5 -214t-146 -174t-198.5 -116.5t-236 -42.5zM524 178
q145 0 251 97t138 245q32 149 -31.5 245.5t-207.5 96.5q-146 0 -255 -96.5t-140 -245.5q-33 -150 32 -246t213 -96z" />
    <glyph glyph-name="otilde" unicode="&#xf5;" horiz-adv-x="1277" 
d="M909 1212q-43 0 -79 16t-82 52q-49 49 -97 49q-70 0 -96 -108h-166q29 138 94 210t158 72q79 0 160 -67q53 -50 100 -50q71 0 94 111h166q-29 -139 -94 -212t-158 -73zM481 -27q-162 0 -272.5 71t-152 195t-7.5 281q50 238 234 392.5t430 154.5q162 0 272.5 -71.5
t152 -195.5t7.5 -280q-52 -239 -235.5 -393t-428.5 -154zM524 178q143 0 250 93.5t139 248.5q34 155 -32 248.5t-211 93.5q-143 0 -250 -93.5t-139 -248.5q-34 -155 33 -248.5t210 -93.5z" />
    <glyph glyph-name="odieresis" unicode="&#xf6;" horiz-adv-x="1277" 
d="M395 1372q12 59 63 101.5t111 42.5q59 0 91.5 -43t19.5 -101q-10 -59 -61 -101t-109 -42q-60 0 -93.5 41.5t-21.5 101.5zM872 1372q12 59 63.5 101.5t111.5 42.5q58 0 91 -42.5t19 -101.5q-12 -60 -62.5 -101.5t-109.5 -41.5q-60 0 -92.5 41.5t-20.5 101.5zM479 -27
q-121 0 -216 42t-149 115.5t-74.5 173.5t7.5 216q33 153 126.5 277t236 197t305.5 73q165 0 275 -73t149 -196.5t6 -277.5q-25 -114 -85.5 -214t-146 -174t-198.5 -116.5t-236 -42.5zM524 178q145 0 251 97t138 245q32 149 -31.5 245.5t-207.5 96.5q-146 0 -255 -96.5
t-140 -245.5q-33 -150 32 -246t213 -96z" />
    <glyph glyph-name="divide" unicode="&#xf7;" horiz-adv-x="1454" 
d="M772 911q-57 0 -88.5 40.5t-19.5 97.5q12 59 60.5 99t106.5 40t89.5 -40t19.5 -99q-12 -57 -61 -97.5t-107 -40.5zM279 752h911l-43 -205h-911zM602 113q-57 0 -88.5 40.5t-19.5 98.5q12 57 61.5 98t106.5 41q58 0 88.5 -40.5t19.5 -98.5q-12 -58 -60.5 -98.5
t-107.5 -40.5z" />
    <glyph glyph-name="oslash" unicode="&#xf8;" horiz-adv-x="1286" 
d="M1116 858q77 -139 33 -338q-52 -239 -235.5 -393t-428.5 -154q-195 0 -315 105l-152 -125l-81 106l149 123q-77 138 -33 338q50 238 234 392.5t430 154.5q196 0 315 -104l150 122l86 -104zM678 874q-150 0 -261 -96.5t-145 -257.5q-24 -116 11 -190l579 477
q-61 67 -184 67zM524 164q149 0 260 97.5t146 258.5q23 107 -10 191l-580 -480q67 -67 184 -67z" />
    <glyph glyph-name="ugrave" unicode="&#xf9;" horiz-adv-x="1224" 
d="M664 1192l-154 338h227l148 -338h-221zM1145 1024l-217 -1024h-223l36 184q-60 -96 -168.5 -153.5t-232.5 -57.5q-161 0 -238.5 104.5t-42.5 274.5l144 672h229l-127 -594q-24 -119 23 -184.5t151 -65.5q111 0 200.5 71.5t113.5 186.5l122 586h230z" />
    <glyph glyph-name="uacute" unicode="&#xfa;" horiz-adv-x="1224" 
d="M760 1192h-221l290 338h228zM1145 1024l-217 -1024h-223l34 172q-63 -90 -168 -144.5t-215 -54.5q-157 0 -244 110t-53 265l144 676h229l-129 -600q-20 -101 36 -171.5t157 -72.5q100 0 186.5 71.5t108.5 172.5l124 600h230z" />
    <glyph glyph-name="ucircumflex" unicode="&#xfb;" horiz-adv-x="1224" 
d="M532 1192h-229l367 338h225l223 -338h-229l-135 207zM1145 1024l-217 -1024h-223l34 172q-63 -90 -168 -144.5t-215 -54.5q-157 0 -244 110t-53 265l144 676h229l-129 -600q-20 -101 36 -171.5t157 -72.5q100 0 186.5 71.5t108.5 172.5l124 600h230z" />
    <glyph glyph-name="udieresis" unicode="&#xfc;" horiz-adv-x="1224" 
d="M367 1372q12 59 63 101.5t111 42.5q58 0 91 -42.5t19 -101.5q-12 -60 -62.5 -101.5t-109.5 -41.5q-60 0 -92 41.5t-20 101.5zM842 1372q14 59 65 101.5t111 42.5q57 0 89.5 -42.5t20.5 -101.5q-12 -60 -62.5 -101.5t-109.5 -41.5q-60 0 -92.5 41.5t-21.5 101.5z
M1145 1024l-217 -1024h-223l34 172q-63 -90 -168 -144.5t-215 -54.5q-157 0 -244 110t-53 265l144 676h229l-129 -600q-20 -101 36 -171.5t157 -72.5q100 0 186.5 71.5t108.5 172.5l124 600h230z" />
    <glyph glyph-name="yacute" unicode="&#xfd;" horiz-adv-x="1120" 
d="M713 1192h-221l290 338h228zM1159 1024l-715 -1171q-90 -147 -190.5 -205t-259.5 -58h-191l43 205h152q103 0 155.5 27t98.5 104l51 82l-209 1016h246l135 -752l440 752h244z" />
    <glyph glyph-name="thorn" unicode="&#xfe;" horiz-adv-x="1320" 
d="M819 1047q228 0 323.5 -145.5t43.5 -395.5q-52 -236 -213.5 -382.5t-384.5 -146.5q-141 0 -227.5 70t-96.5 158l-121 -576h-223l383 1805h207l-131 -619q67 105 188.5 168.5t251.5 63.5zM575 170q136 0 241.5 93.5t137.5 242.5q32 152 -34 247t-205 95q-137 0 -245 -95.5
t-140 -246.5q-32 -148 36 -242t209 -94z" />
    <glyph glyph-name="ydieresis" unicode="&#xff;" horiz-adv-x="1120" 
d="M432 1229q-60 0 -93 41.5t-22 101.5q14 59 65.5 101.5t111.5 42.5q57 0 89.5 -42.5t20.5 -101.5q-12 -60 -62.5 -101.5t-109.5 -41.5zM909 1229q-60 0 -93 41.5t-21 101.5q14 59 64.5 101.5t109.5 42.5q58 0 91 -42.5t19 -101.5q-10 -59 -61 -101t-109 -42zM1163 1040
l-719 -1187q-88 -146 -189 -204.5t-261 -58.5h-191l43 205h152q103 0 155.5 27t98.5 104l51 82l-205 1032h244l133 -768l443 768h245z" />
    <glyph glyph-name="Amacron" unicode="&#x100;" horiz-adv-x="1439" 
d="M1260 1636h-662l37 179h663zM946 307h-637l-184 -307h-252l864 1434h246l270 -1434h-252zM915 512l-98 686l-389 -686h487z" />
    <glyph glyph-name="amacron" unicode="&#x101;" horiz-adv-x="1095" 
d="M1085 1241h-663l37 180h663zM862 0h-194l39 184q-59 -97 -165 -152t-241 -55q-169 0 -250.5 91t-50.5 237q17 80 65.5 142t120 99.5t164 58.5t197 19.5t219.5 -18.5l16 78q18 89 -30 136.5t-144 47.5q-85 0 -169 -35.5t-150 -99.5l-96 129q77 81 212 133t261 52
q191 0 280.5 -107.5t52.5 -290.5zM739 477q-215 36 -352 -4.5t-160 -153.5q-19 -80 25.5 -127t140.5 -47q128 0 218 72t116 197z" />
    <glyph glyph-name="Abreve" unicode="&#x102;" horiz-adv-x="1439" 
d="M918 1583q-152 0 -227.5 80.5t-47.5 214.5l4 16h180q-15 -75 18 -120t103 -45q69 0 121.5 45t69.5 120h180l-4 -16q-28 -133 -137 -214t-260 -81zM946 307h-637l-184 -307h-252l864 1434h246l270 -1434h-252zM915 512l-98 686l-389 -686h487z" />
    <glyph glyph-name="abreve" unicode="&#x103;" horiz-adv-x="1183" 
d="M741 1188q-150 0 -225 81.5t-47 213.5l4 16h180q-15 -74 17.5 -120t101.5 -46q70 0 123 46t70 120h180l-4 -16q-28 -132 -138 -213.5t-262 -81.5zM862 0h-194l39 184q-59 -97 -165 -152t-241 -55q-169 0 -250.5 91t-50.5 237q17 80 65.5 142t120 99.5t164 58.5t197 19.5
t219.5 -18.5l16 78q18 89 -30 136.5t-144 47.5q-85 0 -169 -35.5t-150 -99.5l-96 129q77 81 212 133t261 52q191 0 280.5 -107.5t52.5 -290.5zM739 477q-215 36 -352 -4.5t-160 -153.5q-19 -80 25.5 -127t140.5 -47q128 0 218 72t116 197z" />
    <glyph glyph-name="Aogonek" unicode="&#x104;" horiz-adv-x="1439" 
d="M1239 0q-107 -58 -156 -104.5t-57 -90.5q-9 -40 19.5 -59.5t95.5 -19.5h45l-33 -162h-88q-136 0 -196.5 50.5t-41.5 139.5q31 145 211 246h-37l-55 307h-637l-184 -307h-252l864 1434h246l270 -1434h-14zM428 512h487l-98 686z" />
    <glyph glyph-name="aogonek" unicode="&#x105;" horiz-adv-x="1122" 
d="M666 1047q191 0 280.5 -107.5t52.5 -290.5l-137 -649h2q-108 -59 -160 -105t-61 -90q-8 -40 20.5 -59.5t94.5 -19.5h47l-35 -162h-88q-136 0 -196.5 50.5t-41.5 139.5q30 139 224 248l39 182q-59 -97 -165 -152t-241 -55q-169 0 -250.5 91t-50.5 237q17 80 65.5 142
t120 99.5t164 58.5t197 19.5t219.5 -18.5l16 78q18 89 -30 136.5t-144 47.5q-85 0 -169 -35.5t-150 -99.5l-96 129q77 81 212 133t261 52zM393 145q128 0 218 72t116 197l12 63q-215 36 -352 -4.5t-160 -153.5q-19 -80 25.5 -127t140.5 -47z" />
    <glyph glyph-name="Cacute" unicode="&#x106;" horiz-adv-x="1538" 
d="M1120 1585h-221l291 338h227zM694 -27q-227 0 -376 99t-199.5 266.5t-5.5 376.5q33 156 113.5 292.5t195.5 237t267.5 158t320.5 57.5q204 0 344 -96t194 -270l-217 -113q-34 121 -130 188.5t-238 67.5q-223 0 -391 -148t-214 -374q-32 -148 2 -266t132.5 -187t248.5 -69
q143 0 268.5 68.5t211.5 191.5l165 -119q-123 -177 -302.5 -269t-389.5 -92z" />
    <glyph glyph-name="cacute" unicode="&#x107;" horiz-adv-x="1134" 
d="M786 1192h-221l291 338h229zM467 -27q-239 0 -355 151.5t-63 393.5q51 242 231.5 395.5t417.5 153.5q152 0 258.5 -65.5t147.5 -184.5l-195 -117q-31 76 -94 117t-151 41q-140 0 -246.5 -93.5t-138.5 -246.5q-32 -151 34 -244.5t205 -93.5q89 0 171 42t145 120l143 -117
q-91 -120 -224.5 -186t-285.5 -66z" />
    <glyph glyph-name="Ccircumflex" unicode="&#x108;" horiz-adv-x="1538" 
d="M844 1585h-228l365 338h225l224 -338h-230l-133 209zM694 -27q-227 0 -376 99t-199.5 266.5t-5.5 376.5q33 156 113.5 292.5t195.5 237t267.5 158t320.5 57.5q204 0 344 -96t194 -270l-217 -113q-34 121 -130 188.5t-238 67.5q-223 0 -391 -148t-214 -374
q-32 -148 2 -266t132.5 -187t248.5 -69q143 0 268.5 68.5t211.5 191.5l165 -119q-123 -177 -302.5 -269t-389.5 -92z" />
    <glyph glyph-name="ccircumflex" unicode="&#x109;" horiz-adv-x="1134" 
d="M547 1192h-230l365 338h227l221 -338h-227l-135 207zM467 -27q-239 0 -355 151.5t-63 393.5q51 242 231.5 395.5t417.5 153.5q152 0 258.5 -65.5t147.5 -184.5l-195 -117q-31 76 -94 117t-151 41q-140 0 -246.5 -93.5t-138.5 -246.5q-32 -151 34 -244.5t205 -93.5
q89 0 171 42t145 120l143 -117q-91 -120 -224.5 -186t-285.5 -66z" />
    <glyph glyph-name="Cdotaccent" unicode="&#x10a;" horiz-adv-x="1538" 
d="M1030 1624q-60 0 -93.5 40.5t-21.5 100.5q13 60 64.5 102t110.5 42t91.5 -42t20.5 -102q-12 -59 -63 -100t-109 -41zM694 -27q-227 0 -376 99t-199.5 266.5t-5.5 376.5q33 156 113.5 292.5t195.5 237t267.5 158t320.5 57.5q204 0 344 -96t194 -270l-217 -113
q-34 121 -130 188.5t-238 67.5q-223 0 -391 -148t-214 -374q-32 -148 2 -266t132.5 -187t248.5 -69q143 0 268.5 68.5t211.5 191.5l165 -119q-123 -177 -302.5 -269t-389.5 -92z" />
    <glyph glyph-name="cdotaccent" unicode="&#x10b;" horiz-adv-x="1134" 
d="M731 1229q-59 0 -92 41.5t-21 101.5q12 59 63.5 101.5t111.5 42.5q58 0 91 -42.5t19 -101.5q-10 -59 -61.5 -101t-110.5 -42zM467 -27q-239 0 -355 151.5t-63 393.5q51 242 231.5 395.5t417.5 153.5q152 0 258.5 -65.5t147.5 -184.5l-195 -117q-31 76 -94 117t-151 41
q-140 0 -246.5 -93.5t-138.5 -246.5q-32 -151 34 -244.5t205 -93.5q89 0 171 42t145 120l143 -117q-91 -120 -224.5 -186t-285.5 -66z" />
    <glyph glyph-name="Ccaron" unicode="&#x10c;" horiz-adv-x="1538" 
d="M909 1585l-223 338h229l136 -207l221 207h229l-366 -338h-226zM694 -27q-227 0 -376 99t-199.5 266.5t-5.5 376.5q33 156 113.5 292.5t195.5 237t267.5 158t320.5 57.5q204 0 344 -96t194 -270l-217 -113q-34 121 -130 188.5t-238 67.5q-223 0 -391 -148t-214 -374
q-32 -148 2 -266t132.5 -187t248.5 -69q143 0 268.5 68.5t211.5 191.5l165 -119q-123 -177 -302.5 -269t-389.5 -92z" />
    <glyph glyph-name="ccaron" unicode="&#x10d;" horiz-adv-x="1134" 
d="M612 1192l-223 338h229l134 -207l221 207h229l-364 -338h-226zM467 -27q-239 0 -355 151.5t-63 393.5q51 242 231.5 395.5t417.5 153.5q152 0 258.5 -65.5t147.5 -184.5l-195 -117q-31 76 -94 117t-151 41q-140 0 -246.5 -93.5t-138.5 -246.5q-32 -151 34 -244.5
t205 -93.5q89 0 171 42t145 120l143 -117q-91 -120 -224.5 -186t-285.5 -66z" />
    <glyph glyph-name="Dcaron" unicode="&#x10e;" horiz-adv-x="1525" 
d="M754 1585l-222 338h230l133 -207l221 207h230l-365 -338h-227zM877 1434q200 0 339 -94t191.5 -257.5t9.5 -365.5q-44 -204 -165 -367t-299.5 -256.5t-379.5 -93.5h-542l303 1434h543zM592 219q214 0 372.5 139t204.5 359t-53 358.5t-313 138.5h-281l-211 -995h281z" />
    <glyph glyph-name="dcaron" unicode="&#x10f;" horiz-adv-x="1476" 
d="M1665 1499l-90 -418h-178l90 418h178zM1321 1495l-317 -1495h-207l43 209q-69 -107 -178 -169.5t-236 -62.5q-231 0 -338.5 147.5t-54.5 389.5q51 238 218.5 386.5t391.5 148.5q135 0 217 -69.5t92 -158.5l146 674h223zM506 178q137 0 244.5 96t138.5 246
q32 151 -34.5 246.5t-203.5 95.5q-140 0 -247.5 -95t-139.5 -247t35 -247t207 -95z" />
    <glyph glyph-name="Dcroat" unicode="&#x110;" horiz-adv-x="1576" 
d="M905 1434q158 0 279 -48t195.5 -140t98.5 -225t-12 -304q-48 -224 -173 -387t-302.5 -246.5t-388.5 -83.5h-522l131 623h-199l43 188h197l131 623h522zM647 219q220 0 369.5 127t202.5 371q52 245 -43.5 371t-317.5 126h-285l-84 -403h347l-41 -188h-349l-84 -404h285z
" />
    <glyph glyph-name="dcroat" unicode="&#x111;" horiz-adv-x="1304" 
d="M1511 1350l-36 -181h-224l-247 -1169h-207l43 209q-69 -107 -178 -169.5t-236 -62.5q-231 0 -338.5 147.5t-54.5 389.5q51 238 218.5 386.5t391.5 148.5q135 0 217 -69.5t92 -158.5l76 348h-215l37 181h217l31 145h223l-31 -145h221zM889 520q32 151 -34.5 246.5
t-203.5 95.5q-140 0 -247.5 -95t-139.5 -247t35 -247t207 -95q137 0 244.5 96t138.5 246z" />
    <glyph glyph-name="Emacron" unicode="&#x112;" horiz-adv-x="1327" 
d="M573 1815h664l-39 -179h-661zM1092 215l-45 -215h-1016l303 1434h995l-45 -213h-760l-90 -424h717l-45 -211h-717l-78 -371h781z" />
    <glyph glyph-name="emacron" unicode="&#x113;" horiz-adv-x="1224" 
d="M436 1421h664l-37 -180h-664zM260 459q-27 -130 49.5 -212.5t212.5 -82.5q106 0 205.5 39t163.5 106l98 -133q-86 -92 -224.5 -145.5t-289.5 -53.5q-246 0 -365.5 148.5t-68.5 390.5q51 234 233.5 382.5t417.5 148.5q258 0 363 -156t26 -432h-821zM657 877
q-128 0 -234 -81.5t-134 -193.5h598q24 121 -37.5 198t-192.5 77z" />
    <glyph glyph-name="Ebreve" unicode="&#x114;" horiz-adv-x="1327" 
d="M586 1894h180q-15 -75 18 -120t103 -45q71 0 123 45t67 120h180q-29 -140 -139.5 -225.5t-261.5 -85.5q-152 0 -225.5 85.5t-44.5 225.5zM1092 215l-45 -215h-1016l303 1434h995l-45 -213h-760l-90 -424h717l-45 -211h-717l-78 -371h781z" />
    <glyph glyph-name="ebreve" unicode="&#x115;" horiz-adv-x="1224" 
d="M451 1499h180q-17 -74 16 -120t103 -46t122.5 46t69.5 120h180q-31 -140 -141 -225.5t-262 -85.5q-151 0 -225 86t-43 225zM260 459q-27 -130 49.5 -212.5t212.5 -82.5q106 0 205.5 39t163.5 106l98 -133q-86 -92 -224.5 -145.5t-289.5 -53.5q-246 0 -365.5 148.5
t-68.5 390.5q51 234 233.5 382.5t417.5 148.5q258 0 363 -156t26 -432h-821zM657 877q-128 0 -234 -81.5t-134 -193.5h598q24 121 -37.5 198t-192.5 77z" />
    <glyph glyph-name="Edotaccent" unicode="&#x116;" horiz-adv-x="1327" 
d="M748 1763q14 63 63 102.5t115 39.5q64 0 96 -39.5t20 -102.5q-15 -63 -63.5 -101t-114.5 -38t-97.5 38t-18.5 101zM1092 215l-45 -215h-1016l303 1434h995l-45 -213h-760l-90 -424h717l-45 -211h-717l-78 -371h781z" />
    <glyph glyph-name="edotaccent" unicode="&#x117;" horiz-adv-x="1224" 
d="M610 1370q15 63 63.5 101t114.5 38t98 -38t19 -101q-13 -64 -62.5 -102.5t-115.5 -38.5q-65 0 -97.5 38.5t-19.5 102.5zM260 459q-27 -130 49.5 -212.5t212.5 -82.5q106 0 205.5 39t163.5 106l98 -133q-86 -92 -224.5 -145.5t-289.5 -53.5q-246 0 -365.5 148.5
t-68.5 390.5q51 234 233.5 382.5t417.5 148.5q258 0 363 -156t26 -432h-821zM657 877q-128 0 -234 -81.5t-134 -193.5h598q24 121 -37.5 198t-192.5 77z" />
    <glyph glyph-name="Eogonek" unicode="&#x118;" horiz-adv-x="1327" 
d="M1284 1221h-760l-90 -424h717l-45 -211h-717l-78 -371h781l-45 -215h-3q-108 -60 -159.5 -106t-59.5 -89q-10 -46 27.5 -62.5t132.5 -16.5l-33 -162q-196 0 -272 42.5t-53 147.5q14 69 69.5 133t145.5 113h-811l303 1434h995z" />
    <glyph glyph-name="eogonek" unicode="&#x119;" horiz-adv-x="1200" 
d="M522 164q106 0 205.5 39t163.5 106l98 -133q-107 -116 -305 -172q-85 -61 -98 -125q-9 -40 19.5 -59t96.5 -19h46l-35 -163h-88q-134 0 -195.5 51t-40.5 139q15 78 88 158q-42 -6 -84 0q-205 22 -301.5 166t-50.5 364q51 234 233.5 382.5t417.5 148.5q258 0 363 -156
t26 -432h-821q-27 -130 49.5 -212.5t212.5 -82.5zM657 877q-128 0 -234 -81.5t-134 -193.5h598q24 121 -37.5 198t-192.5 77z" />
    <glyph glyph-name="Ecaron" unicode="&#x11a;" horiz-adv-x="1327" 
d="M1335 1923l-364 -338h-228l-221 338h228l135 -207l221 207h229zM1092 215l-45 -215h-1016l303 1434h995l-45 -213h-760l-90 -424h717l-45 -211h-717l-78 -371h781z" />
    <glyph glyph-name="ecaron" unicode="&#x11b;" horiz-adv-x="1224" 
d="M1198 1530l-364 -338h-228l-221 338h229l134 -207l221 207h229zM260 459q-27 -130 49.5 -212.5t212.5 -82.5q106 0 205.5 39t163.5 106l98 -133q-86 -92 -224.5 -145.5t-289.5 -53.5q-246 0 -365.5 148.5t-68.5 390.5q51 234 233.5 382.5t417.5 148.5q258 0 363 -156
t26 -432h-821zM657 877q-128 0 -234 -81.5t-134 -193.5h598q24 121 -37.5 198t-192.5 77z" />
    <glyph glyph-name="Gcircumflex" unicode="&#x11c;" horiz-adv-x="1587" 
d="M842 1585h-230l367 338h225l223 -338h-229l-133 209zM1487 786l-117 -536q-288 -279 -678 -279q-115 1 -212 27.5t-166.5 74t-120.5 115t-74 149.5t-26.5 177t20.5 199q33 157 113 293.5t194.5 236.5t266.5 157.5t321 57.5q188 0 326.5 -82.5t203.5 -228.5l-223 -133
q-39 107 -130 165t-224 58q-222 0 -390.5 -149t-214.5 -375q-48 -224 54.5 -370.5t326.5 -149.5q264 0 439 151l53 248h-340l41 194h557z" />
    <glyph glyph-name="gcircumflex" unicode="&#x11d;" horiz-adv-x="1320" 
d="M586 1192h-228l365 338h225l223 -338h-229l-135 207zM1237 1024l-195 -913q-54 -250 -238.5 -398.5t-441.5 -148.5q-146 0 -266 47.5t-182 126.5l137 164q56 -65 146.5 -102.5t191.5 -37.5q163 0 282 91.5t158 279.5l23 103q-62 -102 -182 -163t-250 -61
q-142 0 -237 66.5t-129 187t-1 275.5q46 225 208 365.5t378 140.5q132 0 221 -54t109 -145l39 176h229zM528 209q138 0 245.5 92.5t139.5 239.5q31 146 -37 237.5t-208 91.5q-138 0 -245 -91.5t-138 -237.5q-32 -148 35.5 -240t207.5 -92z" />
    <glyph glyph-name="Gbreve" unicode="&#x11e;" horiz-adv-x="1587" 
d="M1018 1583q-151 0 -226 81t-47 214l5 16h180q-15 -75 18 -120t103 -45q69 0 121 45t69 120h180l-4 -16q-28 -133 -137.5 -214t-261.5 -81zM1487 786l-117 -536q-288 -279 -678 -279q-115 1 -212 27.5t-166.5 74t-120.5 115t-74 149.5t-26.5 177t20.5 199
q33 157 113 293.5t194.5 236.5t266.5 157.5t321 57.5q188 0 326.5 -82.5t203.5 -228.5l-223 -133q-39 107 -130 165t-224 58q-222 0 -390.5 -149t-214.5 -375q-48 -224 54.5 -370.5t326.5 -149.5q264 0 439 151l53 248h-340l41 194h557z" />
    <glyph glyph-name="gbreve" unicode="&#x11f;" horiz-adv-x="1320" 
d="M494 1499h180q-15 -74 18 -120t103 -46q69 0 122 46.5t68 119.5h180l-4 -16q-28 -132 -137 -213.5t-260 -81.5q-152 0 -227.5 81.5t-47.5 213.5zM1237 1026l-199 -932q-51 -236 -234.5 -386t-424.5 -150q-144 0 -266.5 59.5t-178.5 153.5l138 159q50 -76 142.5 -124
t191.5 -48q94 0 178 37t150.5 120t90.5 200l27 114q-64 -98 -184.5 -158.5t-247.5 -60.5q-142 0 -237 66.5t-129 187t-1 275.5q47 224 209.5 364.5t376.5 140.5q129 0 219 -52.5t113 -139.5l37 174h229zM528 209q137 0 244.5 92t138.5 238t-37 238.5t-206 92.5
q-140 0 -246 -91.5t-137 -239.5q-32 -148 35 -239t208 -91z" />
    <glyph glyph-name="Gdotaccent" unicode="&#x120;" horiz-adv-x="1587" 
d="M1028 1624q-66 0 -98 38t-19 101t62 102.5t114 39.5q66 0 98.5 -39.5t18.5 -102.5q-13 -63 -62 -101t-114 -38zM1487 786l-117 -536q-288 -279 -678 -279q-115 1 -212 27.5t-166.5 74t-120.5 115t-74 149.5t-26.5 177t20.5 199q33 157 113 293.5t194.5 236.5t266.5 157.5
t321 57.5q188 0 326.5 -82.5t203.5 -228.5l-223 -133q-39 107 -130 165t-224 58q-222 0 -390.5 -149t-214.5 -375q-48 -224 54.5 -370.5t326.5 -149.5q264 0 439 151l53 248h-340l41 194h557z" />
    <glyph glyph-name="gdotaccent" unicode="&#x121;" horiz-adv-x="1320" 
d="M657 1372q14 59 65 101.5t109 42.5t91.5 -42.5t21.5 -101.5t-63 -101t-109 -42q-60 0 -93.5 41.5t-21.5 101.5zM1237 1026l-199 -932q-51 -236 -234.5 -386t-424.5 -150q-144 0 -266.5 59.5t-178.5 153.5l138 159q50 -76 142.5 -124t191.5 -48q94 0 178 37t150.5 120
t90.5 200l27 114q-64 -98 -184.5 -158.5t-247.5 -60.5q-142 0 -237 66.5t-129 187t-1 275.5q47 224 209.5 364.5t376.5 140.5q129 0 219 -52.5t113 -139.5l37 174h229zM528 209q137 0 244.5 92t138.5 238t-37 238.5t-206 92.5q-140 0 -246 -91.5t-137 -239.5
q-32 -148 35 -239t208 -91z" />
    <glyph glyph-name="uni0122" unicode="&#x122;" horiz-adv-x="1587" 
d="M1487 786l-117 -536q-288 -279 -678 -279q-115 1 -212 27.5t-166.5 74t-120.5 115t-74 149.5t-26.5 177t20.5 199q33 157 113 293.5t194.5 236.5t266.5 157.5t321 57.5q188 0 326.5 -82.5t203.5 -228.5l-223 -133q-39 107 -130 165t-224 58q-222 0 -390.5 -149
t-214.5 -375q-48 -224 54.5 -370.5t326.5 -149.5q264 0 439 151l53 248h-340l41 194h557zM559 -178h225l-209 -371h-178z" />
    <glyph glyph-name="uni0123" unicode="&#x123;" horiz-adv-x="1320" 
d="M860 1192h-223l291 338h229zM1237 1026l-199 -932q-51 -236 -234.5 -386t-424.5 -150q-144 0 -266.5 59.5t-178.5 153.5l138 159q50 -76 142.5 -124t191.5 -48q94 0 178 37t150.5 120t90.5 200l27 114q-64 -98 -184.5 -158.5t-247.5 -60.5q-142 0 -237 66.5t-129 187
t-1 275.5q47 224 209.5 364.5t376.5 140.5q129 0 219 -52.5t113 -139.5l37 174h229zM528 209q137 0 244.5 92t138.5 238t-37 238.5t-206 92.5q-140 0 -246 -91.5t-137 -239.5q-32 -148 35 -239t208 -91z" />
    <glyph glyph-name="Hcircumflex" unicode="&#x124;" horiz-adv-x="1564" 
d="M1145 1585l-133 209l-224 -209h-229l367 338h225l223 -338h-229zM1534 1434l-303 -1434h-236l121 569h-729l-119 -569h-237l303 1434h237l-137 -646h727l137 646h236z" />
    <glyph glyph-name="hcircumflex" unicode="&#x125;" horiz-adv-x="1239" 
d="M643 1651l-135 209l-221 -209h-230l365 338h227l221 -338h-227zM788 1047q164 0 248.5 -106t50.5 -269l-141 -672h-229l131 614q22 106 -31.5 176t-154.5 70q-108 0 -196.5 -74t-111.5 -186l-127 -600h-227l317 1497h228l-131 -620q56 76 158 123t216 47z" />
    <glyph glyph-name="Hbar" unicode="&#x126;" horiz-adv-x="1634" 
d="M1632 1055h-143l-223 -1055h-236l131 625h-727l-131 -625h-237l223 1055h-144l37 166h144l43 213h237l-45 -213h727l45 213h236l-43 -213h143zM1253 1055h-727l-45 -211h727z" />
    <glyph glyph-name="hbar" unicode="&#x127;" horiz-adv-x="1239" 
d="M803 1047q172 0 244.5 -104.5t31.5 -297.5l-135 -645h-229l125 588q54 252 -170 252q-124 0 -209 -72t-113 -203l-121 -565h-227l252 1190h-158l31 151h158l34 158h228l-33 -158h365l-33 -151h-365l-73 -348q62 95 166.5 150t230.5 55z" />
    <glyph glyph-name="Itilde" unicode="&#x128;" horiz-adv-x="610" 
d="M659 1608q-43 0 -79.5 15.5t-81.5 51.5q-50 47 -99 47q-71 0 -94 -108h-166q29 138 94 210t158 72q79 0 160 -67q53 -47 100 -47q72 0 92 108h168q-29 -138 -94 -210t-158 -72zM338 1434h237l-303 -1434h-237z" />
    <glyph glyph-name="itilde" unicode="&#x129;" horiz-adv-x="534" 
d="M377 1280q-49 49 -96 49q-27 0 -44.5 -24.5t-29.5 -83.5h-148q59 282 213 282q77 0 158 -67q50 -50 96 -50q28 0 46 25.5t30 85.5h148q-62 -285 -213 -285q-78 0 -160 68zM219 1024h227l-217 -1024h-227z" />
    <glyph glyph-name="Imacron" unicode="&#x12a;" horiz-adv-x="610" 
d="M207 1815h661l-37 -179h-661zM338 1434h237l-303 -1434h-237z" />
    <glyph glyph-name="imacron" unicode="&#x12b;" horiz-adv-x="534" 
d="M143 1421h547l-37 -180h-547zM219 1024h227l-217 -1024h-227z" />
    <glyph glyph-name="Ibreve" unicode="&#x12c;" horiz-adv-x="610" 
d="M487 1583q-159 0 -230 77.5t-42 217.5l4 16h180q-37 -165 121 -165q78 0 125 40.5t66 124.5h180l-4 -16q-29 -140 -134 -217.5t-266 -77.5zM338 1434h237l-303 -1434h-237z" />
    <glyph glyph-name="ibreve" unicode="&#x12d;" horiz-adv-x="534" 
d="M369 1188q-145 0 -210 78.5t-36 216.5l4 16h170q-19 -85 5.5 -125.5t94.5 -40.5q72 0 114.5 40.5t59.5 125.5h170l-4 -16q-29 -138 -127 -216.5t-241 -78.5zM219 1024h227l-217 -1024h-227z" />
    <glyph glyph-name="Iogonek" unicode="&#x12e;" horiz-adv-x="610" 
d="M272 0q-109 -60 -161 -106t-60 -89q-9 -40 18.5 -58.5t92.5 -20.5h51l-35 -162h-92q-132 0 -192 50.5t-41 139.5q31 145 221 250l-37 4l301 1426h237z" />
    <glyph glyph-name="iogonek" unicode="&#x12f;" horiz-adv-x="534" 
d="M436 1509q66 0 98 -38t19 -101q-13 -64 -62 -102.5t-114 -38.5q-66 0 -98 38.5t-19 102.5q13 63 62 101t114 38zM219 1024h227l-217 -1024q-108 -59 -160 -105t-61 -90q-8 -40 21 -59.5t96 -19.5h45l-33 -162h-88q-136 0 -196.5 50t-42.5 140q31 144 223 250l-31 2z" />
    <glyph glyph-name="Idotaccent" unicode="&#x130;" horiz-adv-x="610" 
d="M487 1624q-64 0 -95 38.5t-17 100.5q12 62 60.5 102t111.5 40q64 0 95 -40t17 -102q-12 -61 -60.5 -100t-111.5 -39zM338 1434h237l-303 -1434h-237z" />
    <glyph glyph-name="dotlessi" unicode="&#x131;" horiz-adv-x="534" 
d="M219 1024h227l-217 -1024h-227z" />
    <glyph glyph-name="ij" unicode="&#x133;" horiz-adv-x="1069" 
d="M375 1229q-65 0 -97.5 38.5t-19.5 102.5q15 63 63.5 101t114.5 38t98 -38t19 -101q-13 -64 -62.5 -102.5t-115.5 -38.5zM909 1229q-65 0 -97 38.5t-19 102.5q13 63 62.5 101t115.5 38q65 0 97 -38t17 -101q-12 -64 -60.5 -102.5t-115.5 -38.5zM219 1024h227l-217 -1024
h-227zM256 -209h111q124 0 151 127l236 1106h227l-244 -1147q-29 -140 -121.5 -213.5t-242.5 -73.5h-160z" />
    <glyph glyph-name="Jcircumflex" unicode="&#x134;" horiz-adv-x="1183" 
d="M1266 1585l-133 209l-224 -209h-229l367 338h225l223 -338h-229zM391 -31q-129 0 -229 62.5t-146.5 168.5t-27.5 228l250 76l-9 -37q-23 -109 38 -187.5t173 -78.5q109 0 204 78.5t118 187.5l205 967h235l-203 -961q-29 -137 -121 -253t-221.5 -183.5t-265.5 -67.5z" />
    <glyph glyph-name="jcircumflex" unicode="&#x135;" horiz-adv-x="534" 
d="M715 1192h-205l-98 209l-185 -209h-204l311 338h213zM219 1024h227l-243 -1147q-29 -140 -122 -213.5t-243 -73.5h-160l43 201h111q125 0 152 127z" />
    <glyph glyph-name="uni0136" unicode="&#x136;" horiz-adv-x="1386" 
d="M1513 1434l-845 -723l540 -711h-295l-442 551l-106 -90l-97 -461h-237l303 1434h237l-141 -672l797 672h286zM424 -178h225l-209 -371h-178z" />
    <glyph glyph-name="uni0137" unicode="&#x137;" horiz-adv-x="1114" 
d="M680 0l-309 401l-74 -67l-70 -334h-227l317 1499h228l-193 -903l543 428h264l-586 -475l377 -549h-270zM293 -178h225l-209 -371h-178z" />
    <glyph glyph-name="Lacute" unicode="&#x139;" horiz-adv-x="1206" 
d="M561 1585h-221l291 338h227zM1038 219l-45 -219h-962l303 1434h237l-258 -1215h725z" />
    <glyph glyph-name="lacute" unicode="&#x13a;" horiz-adv-x="518" 
d="M559 1651h-221l291 338h227zM-8 0l317 1499h228l-318 -1499h-227z" />
    <glyph glyph-name="uni013B" unicode="&#x13b;" horiz-adv-x="1206" 
d="M1038 219l-45 -219h-962l303 1434h237l-258 -1215h725zM340 -178h225l-209 -371h-178z" />
    <glyph glyph-name="uni013C" unicode="&#x13c;" horiz-adv-x="518" 
d="M-8 0l317 1499h228l-318 -1499h-227zM-2 -178h225l-209 -371h-178z" />
    <glyph glyph-name="Lcaron" unicode="&#x13d;" horiz-adv-x="1206" 
d="M827 1460h224l-136 -418h-176zM1038 219l-45 -219h-962l303 1434h237l-258 -1215h725z" />
    <glyph glyph-name="lcaron" unicode="&#x13e;" horiz-adv-x="518" 
d="M-8 0l317 1499h228l-318 -1499h-227zM618 1499h179l-90 -418h-179z" />
    <glyph glyph-name="Ldot" unicode="&#x13f;" horiz-adv-x="1218" 
d="M1038 219l-45 -219h-962l303 1434h237l-258 -1215h725zM799 584q-69 0 -102 42t-19 111q15 67 66.5 109.5t119.5 42.5q69 0 102 -42t19 -110q-13 -68 -65.5 -110.5t-120.5 -42.5z" />
    <glyph glyph-name="ldot" unicode="&#x140;" horiz-adv-x="518" 
d="M-8 0l317 1499h228l-318 -1499h-227zM621 586q-60 0 -93.5 41.5t-21.5 101.5q12 59 63 101t111 42q58 0 91 -42t22 -101q-13 -60 -64 -101.5t-108 -41.5z" />
    <glyph glyph-name="Lslash" unicode="&#x141;" horiz-adv-x="1257" 
d="M1092 219l-45 -219h-963l106 504l-247 -115l43 207l247 115l154 723h236l-127 -600l544 253l-43 -206l-544 -254l-86 -408h725z" />
    <glyph glyph-name="lslash" unicode="&#x142;" horiz-adv-x="724" 
d="M455 748l-158 -748h-229l131 623l-219 -107l43 195l219 106l143 682h229l-118 -557l262 127l-41 -195z" />
    <glyph glyph-name="Nacute" unicode="&#x143;" horiz-adv-x="1605" 
d="M1036 1585h-221l291 338h229zM1575 1434l-303 -1434h-221l-566 1047l-221 -1047h-233l303 1434h221l565 -1049l223 1049h232z" />
    <glyph glyph-name="nacute" unicode="&#x144;" horiz-adv-x="1239" 
d="M791 1192h-222l291 338h227zM786 1051q157 0 244 -110t53 -265l-141 -676h-229l127 600q22 100 -34 171.5t-157 72.5q-101 0 -187 -72t-108 -172l-125 -600h-229l217 1024h223l-37 -172q65 90 169 144.5t214 54.5z" />
    <glyph glyph-name="uni0145" unicode="&#x145;" horiz-adv-x="1605" 
d="M1575 1434l-303 -1434h-225l-560 1051l-223 -1051h-233l303 1434h225l561 -1051l221 1051h234zM500 -178h227l-209 -371h-178z" />
    <glyph glyph-name="uni0146" unicode="&#x146;" horiz-adv-x="1239" 
d="M786 1051q157 0 244 -110t53 -265l-141 -676h-229l127 600q22 100 -34 171.5t-157 72.5q-101 0 -187 -72t-108 -172l-125 -600h-229l217 1024h223l-37 -172q65 90 169 144.5t214 54.5zM315 -178h228l-211 -371h-178z" />
    <glyph glyph-name="Ncaron" unicode="&#x147;" horiz-adv-x="1605" 
d="M874 1585l-221 338h230l133 -207l221 207h229l-364 -338h-228zM1575 1434l-303 -1434h-221l-566 1047l-221 -1047h-233l303 1434h221l565 -1049l223 1049h232z" />
    <glyph glyph-name="ncaron" unicode="&#x148;" horiz-adv-x="1239" 
d="M1202 1530l-364 -338h-228l-221 338h229l134 -207l221 207h229zM786 1051q157 0 244 -110t53 -265l-141 -676h-229l127 600q22 100 -34 171.5t-157 72.5q-101 0 -187 -72t-108 -172l-125 -600h-229l217 1024h223l-37 -172q65 90 169 144.5t214 54.5z" />
    <glyph glyph-name="Eng" unicode="&#x14a;" horiz-adv-x="1605" 
d="M1575 1434l-320 -1512q-63 -289 -364 -289h-160l43 203h111q118 0 145 111l14 57l-559 1043l-221 -1047h-233l303 1434h221l565 -1049l223 1049h232z" />
    <glyph glyph-name="eng" unicode="&#x14b;" horiz-adv-x="1239" 
d="M786 1051q157 0 244 -110t53 -265l-163 -778q-32 -129 -125 -197t-234 -68h-162l43 203h111q126 0 149 119l138 645q22 100 -34 171.5t-157 72.5q-101 0 -187 -72t-108 -172l-125 -600h-229l217 1024h223l-37 -172q65 90 169 144.5t214 54.5z" />
    <glyph glyph-name="Omacron" unicode="&#x14c;" horiz-adv-x="1703" 
d="M754 1815h663l-39 -179h-661zM109 715q42 208 175 380t325.5 270t400.5 95q210 3 361 -95t210.5 -270t13.5 -380q-32 -155 -117.5 -293.5t-205 -237.5t-270.5 -156t-308 -55q-210 -3 -361 94.5t-210.5 269t-13.5 378.5zM1348 715q50 229 -58.5 375.5t-326.5 146.5
q-217 0 -387 -146.5t-220 -375.5q-49 -227 59.5 -372.5t325.5 -145.5t388.5 145.5t218.5 372.5z" />
    <glyph glyph-name="omacron" unicode="&#x14d;" horiz-adv-x="1277" 
d="M457 1421h661l-37 -180h-661zM479 -27q-121 0 -216 42t-149 115.5t-74.5 173.5t7.5 216q33 153 126.5 277t236 197t305.5 73q165 0 275 -73t149 -196.5t6 -277.5q-25 -114 -85.5 -214t-146 -174t-198.5 -116.5t-236 -42.5zM524 178q145 0 251 97t138 245
q32 149 -31.5 245.5t-207.5 96.5q-146 0 -255 -96.5t-140 -245.5q-33 -150 32 -246t213 -96z" />
    <glyph glyph-name="Obreve" unicode="&#x14e;" horiz-adv-x="1703" 
d="M1036 1583q-152 0 -227 80.5t-47 214.5l4 16h180q-15 -75 18 -120t103 -45q71 0 123 45t67 120h181l-2 -16q-29 -133 -139 -214t-261 -81zM700 -27q-214 0 -364 95.5t-209 265.5t-14 383t176.5 383t322 265t404.5 95q213 0 362.5 -95t208.5 -265t15 -383
q-45 -213 -176.5 -383t-322 -265.5t-403.5 -95.5zM745 195q217 0 391.5 148.5t221.5 373.5q47 226 -63 374t-326 148q-217 0 -391.5 -148.5t-221.5 -373.5q-47 -226 63 -374t326 -148z" />
    <glyph glyph-name="obreve" unicode="&#x14f;" horiz-adv-x="1277" 
d="M469 1499h180q-15 -74 18 -120t103 -46q69 0 122.5 46.5t68.5 119.5h180q-29 -139 -140 -225t-262 -86q-152 0 -225.5 85.5t-44.5 225.5zM479 -27q-121 0 -216 42t-149 115.5t-74.5 173.5t7.5 216q33 153 126.5 277t236 197t305.5 73q165 0 275 -73t149 -196.5t6 -277.5
q-25 -114 -85.5 -214t-146 -174t-198.5 -116.5t-236 -42.5zM524 178q145 0 251 97t138 245q32 149 -31.5 245.5t-207.5 96.5q-146 0 -255 -96.5t-140 -245.5q-33 -150 32 -246t213 -96z" />
    <glyph glyph-name="Ohungarumlaut" unicode="&#x150;" horiz-adv-x="1703" 
d="M973 1923h227l-317 -338h-224zM1391 1923h227l-318 -338h-223zM109 715q42 208 175 380t325.5 270t400.5 95q210 3 361 -95t210.5 -270t13.5 -380q-32 -155 -117.5 -293.5t-205 -237.5t-270.5 -156t-308 -55q-210 -3 -361 94.5t-210.5 269t-13.5 378.5zM1348 715
q50 229 -58.5 375.5t-326.5 146.5q-217 0 -387 -146.5t-220 -375.5q-49 -227 59.5 -372.5t325.5 -145.5t388.5 145.5t218.5 372.5z" />
    <glyph glyph-name="ohungarumlaut" unicode="&#x151;" horiz-adv-x="1277" 
d="M586 1192h-221l290 338h228zM1004 1192h-222l291 338h227zM479 -27q-121 0 -216 42t-149 115.5t-74.5 173.5t7.5 216q33 153 126.5 277t236 197t305.5 73q165 0 275 -73t149 -196.5t6 -277.5q-25 -114 -85.5 -214t-146 -174t-198.5 -116.5t-236 -42.5zM524 178
q145 0 251 97t138 245q32 149 -31.5 245.5t-207.5 96.5q-146 0 -255 -96.5t-140 -245.5q-33 -150 32 -246t213 -96z" />
    <glyph glyph-name="OE" unicode="&#x152;" horiz-adv-x="2242" 
d="M2013 215l-45 -215h-1268q-216 0 -366.5 89.5t-210 252.5t-14.5 373q32 156 116 291t202 229t268 147t309 52h1247l-45 -213h-764l-84 -392h719l-45 -211h-719l-86 -403h786zM993 219l211 995h-246q-221 0 -388 -136.5t-214 -362.5q-49 -224 60.5 -360t331.5 -136h245z
" />
    <glyph glyph-name="oe" unicode="&#x153;" horiz-adv-x="2093" 
d="M1952 459h-822q-27 -130 50 -212.5t213 -82.5q106 0 204 38.5t164 106.5l99 -133q-86 -92 -224.5 -145.5t-289.5 -53.5q-138 0 -239.5 49.5t-154.5 141.5q-93 -92 -215 -143.5t-258 -51.5q-121 0 -216 42t-149 115.5t-74.5 173.5t7.5 216q33 153 126.5 277t236 197
t305.5 73q141 0 240.5 -53t152.5 -148q92 86 209 133.5t246 47.5q258 0 362.5 -155.5t26.5 -432.5zM1528 877q-128 0 -235.5 -82t-135.5 -193h600q24 121 -37 198t-192 77zM524 178q138 0 241.5 88.5t141.5 227.5l4 22q1 4 3.5 13.5t3.5 13.5q24 140 -41 229.5t-203 89.5
q-146 0 -255 -96.5t-140 -245.5q-33 -150 32 -246t213 -96z" />
    <glyph glyph-name="Racute" unicode="&#x154;" horiz-adv-x="1413" 
d="M920 1585h-222l291 338h228zM586 522h-211l-111 -518h-235l303 1430h649q123 0 214 -60.5t129.5 -165.5t12.5 -229q-33 -160 -156 -280.5t-280 -153.5l-51 -6l313 -531l-280 -8zM420 737h383q100 0 184.5 70.5t106.5 171.5q22 99 -34 170.5t-155 71.5h-383z" />
    <glyph glyph-name="racute" unicode="&#x155;" horiz-adv-x="827" 
d="M637 1192h-223l291 338h229zM770 1047q46 0 90 -13l-47 -217q-65 6 -131 6q-132 0 -222.5 -77t-121.5 -216l-111 -530h-227l217 1024h221l-39 -184q66 94 165 150.5t206 56.5z" />
    <glyph glyph-name="uni0156" unicode="&#x156;" horiz-adv-x="1413" 
d="M586 522h-211l-111 -518h-235l303 1430h649q123 0 214 -60.5t129.5 -165.5t12.5 -229q-33 -160 -156 -280.5t-280 -153.5l-51 -6l313 -531l-280 -8zM420 737h383q100 0 184.5 70.5t106.5 171.5q22 99 -34 170.5t-155 71.5h-383zM410 -178h225l-209 -371h-178z" />
    <glyph glyph-name="uni0157" unicode="&#x157;" horiz-adv-x="827" 
d="M770 1047q46 0 90 -13l-47 -217q-65 6 -131 6q-132 0 -222.5 -77t-121.5 -216l-111 -530h-227l217 1024h221l-39 -184q66 94 165 150.5t206 56.5zM-39 -178h227l-208 -371h-179z" />
    <glyph glyph-name="Rcaron" unicode="&#x158;" horiz-adv-x="1413" 
d="M758 1585l-223 338h229l135 -207l221 207h230l-367 -338h-225zM586 522h-211l-111 -518h-235l303 1430h649q123 0 214 -60.5t129.5 -165.5t12.5 -229q-33 -160 -156 -280.5t-280 -153.5l-51 -6l313 -531l-280 -8zM420 737h383q100 0 184.5 70.5t106.5 171.5
q22 99 -34 170.5t-155 71.5h-383z" />
    <glyph glyph-name="rcaron" unicode="&#x159;" horiz-adv-x="827" 
d="M1012 1530l-367 -338h-225l-223 338h229l135 -207l221 207h230zM770 1047q46 0 90 -13l-47 -217q-65 6 -131 6q-132 0 -222.5 -77t-121.5 -216l-111 -530h-227l217 1024h221l-39 -184q66 94 165 150.5t206 56.5z" />
    <glyph glyph-name="Sacute" unicode="&#x15a;" horiz-adv-x="1288" 
d="M920 1585h-222l291 338h228zM510 -27q-212 0 -350 84.5t-178 237.5l190 127q41 -115 141.5 -175.5t249.5 -60.5q143 0 231.5 56t108.5 155q15 75 -30 122t-171 79l-204 51q-195 51 -272.5 149t-45.5 251q39 187 204 299t411 112q191 0 318.5 -69.5t168.5 -194.5
l-190 -129q-81 182 -344 182q-138 0 -223 -51.5t-105 -144.5q-14 -70 32.5 -116t178.5 -79l213 -53q189 -49 261.5 -147t39.5 -248q-42 -199 -212.5 -318t-422.5 -119z" />
    <glyph glyph-name="sacute" unicode="&#x15b;" horiz-adv-x="1042" 
d="M723 1192h-221l289 338h229zM375 -27q-150 0 -262.5 49t-165.5 136l137 153q46 -68 136 -109.5t196 -41.5q97 0 156 35.5t71 95.5q9 46 -20.5 75.5t-106.5 49.5l-184 47q-137 35 -190 104.5t-29 175.5q31 150 162 237t327 87q134 0 236.5 -43t150.5 -117l-137 -153
q-113 125 -291 125q-94 0 -150.5 -33t-68.5 -94q-9 -43 19 -71t104 -48l184 -47q145 -37 198.5 -107t29.5 -178q-32 -152 -165.5 -240t-336.5 -88z" />
    <glyph glyph-name="Scircumflex" unicode="&#x15c;" horiz-adv-x="1288" 
d="M651 1585h-229l364 338h228l221 -338h-229l-134 209zM844 805q189 -49 261.5 -147t39.5 -248q-42 -199 -212.5 -318t-422.5 -119q-212 0 -350 84.5t-178 237.5l190 127q41 -115 141.5 -175.5t249.5 -60.5q143 0 231.5 56t108.5 155q15 75 -30 122t-171 79l-204 51
q-195 51 -272.5 149t-45.5 251q39 187 204 299t411 112q191 0 318.5 -69.5t168.5 -194.5l-190 -129q-81 182 -344 182q-138 0 -223 -51.5t-105 -144.5q-14 -70 32.5 -116t178.5 -79z" />
    <glyph glyph-name="scircumflex" unicode="&#x15d;" horiz-adv-x="1042" 
d="M449 1192h-230l365 338h227l221 -338h-229l-133 207zM649 586q145 -37 198.5 -107t29.5 -178q-32 -152 -165.5 -240t-336.5 -88q-150 0 -262.5 49t-165.5 136l137 153q46 -68 136 -109.5t196 -41.5q97 0 156 35.5t71 95.5q9 46 -20.5 75.5t-106.5 49.5l-184 47
q-137 35 -190 104.5t-29 175.5q31 150 162 237t327 87q134 0 236.5 -43t150.5 -117l-137 -153q-113 125 -291 125q-94 0 -150.5 -33t-68.5 -94q-9 -43 19 -71t104 -48z" />
    <glyph glyph-name="Scedilla" unicode="&#x15e;" horiz-adv-x="1288" 
d="M612 -20l-192 -388h-234l228 388q-175 17 -286.5 98.5t-145.5 216.5l190 127q41 -115 141.5 -175.5t249.5 -60.5q143 0 231.5 56t108.5 155q15 75 -30 122t-171 79l-204 51q-195 51 -272.5 149t-45.5 251q39 187 204 299t411 112q191 0 318.5 -69.5t168.5 -194.5
l-190 -129q-81 182 -344 182q-138 0 -223 -51.5t-105 -144.5q-14 -70 32.5 -116t178.5 -79l213 -53q189 -49 261.5 -147t39.5 -248q-37 -179 -178 -293t-355 -137z" />
    <glyph glyph-name="scedilla" unicode="&#x15f;" horiz-adv-x="1042" 
d="M877 301q-30 -131 -135 -216t-269 -103l-194 -390h-232l227 388q-117 13 -201.5 59.5t-125.5 118.5l137 153q46 -68 136 -109.5t196 -41.5q97 0 156 35.5t71 95.5q9 46 -20.5 75.5t-106.5 49.5l-184 47q-137 35 -190 104.5t-29 175.5q31 150 162 237t327 87
q134 0 236.5 -43t150.5 -117l-137 -153q-113 125 -291 125q-94 0 -150.5 -33t-68.5 -94q-9 -43 19 -71t104 -48l184 -47q145 -37 198.5 -107t29.5 -178z" />
    <glyph glyph-name="Scaron" unicode="&#x160;" horiz-adv-x="1288" 
d="M715 1585l-221 338h229l133 -207l221 207h230l-365 -338h-227zM844 805q189 -49 261.5 -147t39.5 -248q-42 -199 -212.5 -318t-422.5 -119q-212 0 -350 84.5t-178 237.5l190 127q41 -115 141.5 -175.5t249.5 -60.5q143 0 231.5 56t108.5 155q15 75 -30 122t-171 79
l-204 51q-195 51 -272.5 149t-45.5 251q39 187 204 299t411 112q191 0 318.5 -69.5t168.5 -194.5l-190 -129q-81 182 -344 182q-138 0 -223 -51.5t-105 -144.5q-14 -70 32.5 -116t178.5 -79z" />
    <glyph glyph-name="scaron" unicode="&#x161;" horiz-adv-x="1042" 
d="M512 1192l-221 338h229l133 -207l221 207h230l-365 -338h-227zM649 586q145 -37 198.5 -107t29.5 -178q-32 -152 -165.5 -240t-336.5 -88q-150 0 -262.5 49t-165.5 136l137 153q46 -68 136 -109.5t196 -41.5q97 0 156 35.5t71 95.5q9 46 -20.5 75.5t-106.5 49.5l-184 47
q-137 35 -190 104.5t-29 175.5q31 150 162 237t327 87q134 0 236.5 -43t150.5 -117l-137 -153q-113 125 -291 125q-94 0 -150.5 -33t-68.5 -94q-9 -43 19 -71t104 -48z" />
    <glyph glyph-name="uni0162" unicode="&#x162;" horiz-adv-x="1241" 
d="M1348 1434l-48 -220h-456l-256 -1214h-23l-203 -408h-233l240 408l-17 4l256 1210h-456l47 220h1149z" />
    <glyph glyph-name="uni0163" unicode="&#x163;" horiz-adv-x="849" 
d="M496 823l-113 -532q-7 -37 12 -61.5t54 -24.5h219l-41 -205h-168l-193 -408h-207l222 418q-76 25 -114 93.5t-20 156.5l119 563h-200l43 201h202l68 324h229l-69 -324h301l-43 -201h-301z" />
    <glyph glyph-name="Tcaron" unicode="&#x164;" horiz-adv-x="1241" 
d="M692 1585l-223 338h229l136 -207l221 207h229l-366 -338h-226zM1348 1434l-48 -220h-456l-256 -1214h-238l258 1214h-456l47 220h1149z" />
    <glyph glyph-name="tcaron" unicode="&#x165;" horiz-adv-x="851" 
d="M811 1593h178l-88 -419h-178zM307 0q-89 0 -139 63t-31 152l129 608h-200l43 201h202l68 324h229l-69 -324h301l-43 -201h-301l-125 -590q-3 -28 20 -28h277l-41 -205h-320z" />
    <glyph glyph-name="Tbar" unicode="&#x166;" horiz-adv-x="1241" 
d="M844 1214l-82 -387h272l-39 -188h-272l-135 -639h-238l137 639h-272l39 188h272l82 387h-456l47 220h1149l-48 -220h-456z" />
    <glyph glyph-name="tbar" unicode="&#x167;" horiz-adv-x="849" 
d="M797 823h-301l-37 -178h303l-43 -203h-303l-33 -151q-7 -37 12 -61.5t54 -24.5h219l-41 -205h-277q-106 0 -166 76.5t-37 183.5l39 182h-200l43 203h200l37 178h-200l43 201h202l68 324h229l-69 -324h301z" />
    <glyph glyph-name="Utilde" unicode="&#x168;" horiz-adv-x="1513" 
d="M1112 1608q-45 0 -81.5 15.5t-80.5 51.5q-53 47 -98 47q-71 0 -94 -108h-168q29 138 94 210t158 72q45 0 81 -15.5t78 -51.5q53 -47 101 -47q71 0 94 108h166q-29 -138 -93.5 -210t-156.5 -72zM604 -27q-174 0 -293 74t-165 209t-9 309l185 869h237l-188 -883
q-35 -164 39.5 -259t240.5 -95q172 0 283 93.5t147 260.5l187 883h237l-184 -869q-56 -266 -251.5 -429t-465.5 -163z" />
    <glyph glyph-name="utilde" unicode="&#x169;" horiz-adv-x="1224" 
d="M719 1280q-49 49 -98 49q-72 0 -95 -108h-166q29 138 94 210t158 72q79 0 160 -67q50 -50 98 -50q72 0 95 111h168q-29 -139 -94 -212t-158 -73q-80 0 -162 68zM1145 1024l-217 -1024h-223l34 172q-63 -90 -168 -144.5t-215 -54.5q-157 0 -244 110t-53 265l144 676h229
l-129 -600q-20 -101 36 -171.5t157 -72.5q100 0 186.5 71.5t108.5 172.5l124 600h230z" />
    <glyph glyph-name="Umacron" unicode="&#x16a;" horiz-adv-x="1513" 
d="M657 1815h664l-37 -179h-663zM604 -27q-174 0 -293 74t-165 209t-9 309l185 869h237l-188 -883q-35 -164 39.5 -259t240.5 -95q172 0 283 93.5t147 260.5l187 883h237l-184 -869q-56 -266 -251.5 -429t-465.5 -163z" />
    <glyph glyph-name="umacron" unicode="&#x16b;" horiz-adv-x="1224" 
d="M428 1421h662l-37 -180h-662zM1145 1024l-217 -1024h-223l34 172q-63 -90 -168 -144.5t-215 -54.5q-157 0 -244 110t-53 265l144 676h229l-129 -600q-20 -101 36 -171.5t157 -72.5q100 0 186.5 71.5t108.5 172.5l124 600h230z" />
    <glyph glyph-name="Ubreve" unicode="&#x16c;" horiz-adv-x="1513" 
d="M940 1583q-152 0 -227 80.5t-47 214.5l4 16h182q-17 -74 16 -119.5t103 -45.5q71 0 123 45t67 120h182l-4 -16q-28 -133 -138 -214t-261 -81zM604 -27q-174 0 -293 74t-165 209t-9 309l185 869h237l-188 -883q-35 -164 39.5 -259t240.5 -95q172 0 283 93.5t147 260.5
l187 883h237l-184 -869q-56 -266 -251.5 -429t-465.5 -163z" />
    <glyph glyph-name="ubreve" unicode="&#x16d;" horiz-adv-x="1224" 
d="M440 1499h181q-15 -74 17 -120t101 -46q70 0 123 46t70 120h180l-4 -16q-28 -132 -137 -213.5t-260 -81.5q-152 0 -227.5 81.5t-47.5 213.5zM1145 1024l-217 -1024h-223l34 172q-63 -90 -168 -144.5t-215 -54.5q-157 0 -244 110t-53 265l144 676h229l-129 -600
q-20 -101 36 -171.5t157 -72.5q100 0 186.5 71.5t108.5 172.5l124 600h230z" />
    <glyph glyph-name="Uring" unicode="&#x16e;" horiz-adv-x="1513" 
d="M938 1573q-116 0 -179 75t-40 181q23 108 118 183t212 75q116 0 179 -75t40 -183q-24 -107 -118.5 -181.5t-211.5 -74.5zM965 1702q60 0 102.5 35t54.5 92q12 59 -15 94t-87 35t-102 -35t-54 -94q-14 -57 13.5 -92t87.5 -35zM604 -27q-174 0 -293 74t-165 209t-9 309
l185 869h237l-188 -883q-35 -164 39.5 -259t240.5 -95q172 0 283 93.5t147 260.5l187 883h237l-184 -869q-56 -266 -251.5 -429t-465.5 -163z" />
    <glyph glyph-name="uring" unicode="&#x16f;" horiz-adv-x="1224" 
d="M487 1436q23 108 118 183t212 75q116 0 179 -75t40 -183q-22 -108 -116.5 -183t-210.5 -75q-117 0 -180.5 75t-41.5 183zM891 1436q12 59 -14 93t-86 34t-103 -34.5t-55 -92.5q-11 -60 15 -93.5t87 -33.5q60 0 103 34.5t53 92.5zM1145 1024l-217 -1024h-223l34 172
q-63 -90 -168 -144.5t-215 -54.5q-157 0 -244 110t-53 265l144 676h229l-129 -600q-20 -101 36 -171.5t157 -72.5q100 0 186.5 71.5t108.5 172.5l124 600h230z" />
    <glyph glyph-name="Uhungarumlaut" unicode="&#x170;" horiz-adv-x="1513" 
d="M877 1923h227l-318 -338h-223zM1294 1923h228l-318 -338h-221zM604 -27q-174 0 -293 74t-165 209t-9 309l185 869h237l-188 -883q-35 -164 39.5 -259t240.5 -95q172 0 283 93.5t147 260.5l187 883h237l-184 -869q-56 -266 -251.5 -429t-465.5 -163z" />
    <glyph glyph-name="uhungarumlaut" unicode="&#x171;" horiz-adv-x="1224" 
d="M557 1192h-221l291 338h227zM1008 1192h-224l291 338h230zM1145 1024l-217 -1024h-223l34 172q-63 -90 -168 -144.5t-215 -54.5q-157 0 -244 110t-53 265l144 676h229l-129 -600q-20 -101 36 -171.5t157 -72.5q100 0 186.5 71.5t108.5 172.5l124 600h230z" />
    <glyph glyph-name="Uogonek" unicode="&#x172;" horiz-adv-x="1513" 
d="M1268 1434h237l-184 -869q-43 -205 -173.5 -352.5t-318.5 -206.5l13 2q-108 -59 -159 -105t-60 -89q-18 -78 114 -78h47l-34 -164h-88q-136 0 -196.5 50.5t-41.5 139.5q25 121 162 211q-255 6 -379 169.5t-70 422.5l185 869h237l-188 -883q-35 -164 39.5 -259t240.5 -95
q172 0 283 93.5t147 260.5z" />
    <glyph glyph-name="uogonek" unicode="&#x173;" horiz-adv-x="1224" 
d="M915 1024h230l-217 -1018l-17 -6q-106 -58 -153.5 -104t-55.5 -91q-9 -40 19.5 -59.5t95.5 -19.5h45l-33 -162h-88q-136 0 -196 50.5t-41 139.5q31 145 221 250l-18 4l32 164q-63 -90 -168 -144.5t-215 -54.5q-157 0 -244 110t-53 265l144 676h229l-129 -600
q-20 -101 36 -171.5t157 -72.5q100 0 186.5 71.5t108.5 172.5z" />
    <glyph glyph-name="Wcircumflex" unicode="&#x174;" horiz-adv-x="2146" 
d="M1081 1585h-229l365 338h225l223 -338h-229l-133 209zM2007 1434h252l-739 -1434h-267l-120 977l-537 -977h-262l-137 1434h252l98 -1104l620 1104h123l152 -1110z" />
    <glyph glyph-name="wcircumflex" unicode="&#x175;" horiz-adv-x="1732" 
d="M791 1192h-230l365 338h227l221 -338h-227l-135 207zM1763 1024l-553 -1024h-254l-86 739l-399 -739h-254l-117 1024h234l80 -752l413 752h209l94 -752l400 752h233z" />
    <glyph glyph-name="Ycircumflex" unicode="&#x176;" horiz-adv-x="1318" 
d="M666 1585h-230l367 338h225l223 -338h-229l-133 209zM1483 1434l-729 -859l-123 -575h-238l121 575l-360 859h270l258 -631l528 631h273z" />
    <glyph glyph-name="ycircumflex" unicode="&#x177;" horiz-adv-x="1120" 
d="M485 1192h-229l365 338h227l221 -338h-229l-133 207zM1163 1040l-719 -1187q-88 -146 -189 -204.5t-261 -58.5h-191l43 205h152q103 0 155.5 27t98.5 104l51 82l-205 1032h244l133 -768l443 768h245z" />
    <glyph glyph-name="Ydieresis" unicode="&#x178;" horiz-adv-x="1318" 
d="M612 1624q-63 0 -93.5 38.5t-18.5 100.5q14 62 62 102t112 40q62 0 93 -40t19 -102q-14 -62 -62 -100.5t-112 -38.5zM1090 1622q-63 0 -94 39.5t-19 101.5t61 102t113 40q63 0 94 -40t19 -102q-14 -62 -62.5 -101.5t-111.5 -39.5zM1483 1434l-729 -859l-123 -575h-238
l121 575l-360 859h270l258 -631l528 631h273z" />
    <glyph glyph-name="Zacute" unicode="&#x179;" horiz-adv-x="1245" 
d="M858 1585h-221l313 338h267zM1051 213l-45 -213h-1072l37 178l973 1043h-735l45 213h1044l-36 -179l-971 -1042h760z" />
    <glyph glyph-name="zacute" unicode="&#x17a;" horiz-adv-x="1013" 
d="M700 1192h-221l291 338h227zM815 195l-41 -195h-844l31 152l690 694h-524l41 194h821l-33 -151l-688 -694h547z" />
    <glyph glyph-name="Zdotaccent" unicode="&#x17b;" horiz-adv-x="1245" 
d="M817 1624q-66 0 -97.5 38t-19.5 101q14 63 63.5 102.5t115.5 39.5q64 0 96 -39.5t20 -102.5q-13 -63 -62.5 -101t-115.5 -38zM1051 213l-45 -213h-1072l37 178l973 1043h-735l45 213h1044l-36 -179l-971 -1042h760z" />
    <glyph glyph-name="zdotaccent" unicode="&#x17c;" horiz-adv-x="1013" 
d="M616 1229q-60 0 -92.5 41.5t-21.5 101.5q14 59 65 101.5t111 42.5q57 0 89.5 -42.5t20.5 -101.5q-12 -60 -62.5 -101.5t-109.5 -41.5zM815 195l-41 -195h-844l31 152l690 694h-524l41 194h821l-33 -151l-688 -694h547z" />
    <glyph glyph-name="Zcaron" unicode="&#x17d;" horiz-adv-x="1245" 
d="M696 1585l-221 338h230l133 -207l221 207h229l-364 -338h-228zM1051 213l-45 -213h-1072l37 178l973 1043h-735l45 213h1044l-36 -179l-971 -1042h760z" />
    <glyph glyph-name="zcaron" unicode="&#x17e;" horiz-adv-x="1013" 
d="M1087 1530l-364 -338h-227l-222 338h230l133 -207l221 207h229zM815 195l-41 -195h-844l31 152l690 694h-524l41 194h821l-33 -151l-688 -694h547z" />
    <glyph glyph-name="uni01CD" unicode="&#x1cd;" horiz-adv-x="1439" 
d="M805 1585l-223 338h229l135 -207l221 207h230l-367 -338h-225zM946 307h-637l-184 -307h-252l864 1434h246l270 -1434h-252zM915 512l-98 686l-389 -686h487z" />
    <glyph glyph-name="uni01CE" unicode="&#x1ce;" horiz-adv-x="1144" 
d="M618 1192l-223 338h230l135 -207l221 207h229l-366 -338h-226zM862 0h-194l39 184q-59 -97 -165 -152t-241 -55q-169 0 -250.5 91t-50.5 237q17 80 65.5 142t120 99.5t164 58.5t197 19.5t219.5 -18.5l16 78q18 89 -30 136.5t-144 47.5q-85 0 -169 -35.5t-150 -99.5
l-96 129q77 81 212 133t261 52q191 0 280.5 -107.5t52.5 -290.5zM739 477q-215 36 -352 -4.5t-160 -153.5q-19 -80 25.5 -127t140.5 -47q128 0 218 72t116 197z" />
    <glyph glyph-name="uni01E2" unicode="&#x1e2;" horiz-adv-x="2226" 
d="M1985 1636h-662l37 179h663zM1999 217l-47 -217h-1020l67 326h-575l-279 -326h-282l1233 1434h1138l-45 -217h-766l-80 -383h723l-47 -218h-723l-84 -399h787zM1040 522l152 711l-610 -711h458z" />
    <glyph glyph-name="uni01E3" unicode="&#x1e3;" horiz-adv-x="1929" 
d="M1458 1421l-37 -180h-663l37 180h663zM1788 459h-821q-27 -130 49.5 -212.5t212.5 -82.5q106 0 204 38.5t164 106.5l99 -133q-86 -92 -224.5 -145.5t-289.5 -53.5q-146 0 -250 55t-156 156q-101 -108 -224.5 -159.5t-250.5 -51.5q-169 0 -250.5 91t-50.5 237
q17 80 65.5 142t120 99.5t164 58.5t197 19.5t219.5 -18.5l16 78q18 89 -30 136.5t-144 47.5q-85 0 -169 -35.5t-150 -99.5l-96 129q77 81 212 133t261 52q230 0 311 -152q182 152 422 152q258 0 362.5 -155.5t26.5 -432.5zM1364 877q-128 0 -235.5 -82t-135.5 -193h600
q24 121 -37 198t-192 77zM393 145q134 0 220.5 70.5t111.5 190.5l14 71q-215 36 -352 -4.5t-160 -153.5q-19 -80 25.5 -127t140.5 -47z" />
    <glyph glyph-name="Gcaron" unicode="&#x1e6;" horiz-adv-x="1587" 
d="M907 1585l-223 338h229l136 -207l221 207h227l-364 -338h-226zM1487 786l-117 -536q-288 -279 -678 -279q-115 1 -212 27.5t-166.5 74t-120.5 115t-74 149.5t-26.5 177t20.5 199q33 157 113 293.5t194.5 236.5t266.5 157.5t321 57.5q188 0 326.5 -82.5t203.5 -228.5
l-223 -133q-39 107 -130 165t-224 58q-222 0 -390.5 -149t-214.5 -375q-48 -224 54.5 -370.5t326.5 -149.5q264 0 439 151l53 248h-340l41 194h557z" />
    <glyph glyph-name="gcaron" unicode="&#x1e7;" horiz-adv-x="1320" 
d="M1243 1530l-366 -338h-226l-223 338h229l136 -207l221 207h229zM1237 1026l-199 -932q-51 -236 -234.5 -386t-424.5 -150q-144 0 -266.5 59.5t-178.5 153.5l138 159q50 -76 142.5 -124t191.5 -48q94 0 178 37t150.5 120t90.5 200l27 114q-64 -98 -184.5 -158.5
t-247.5 -60.5q-142 0 -237 66.5t-129 187t-1 275.5q47 224 209.5 364.5t376.5 140.5q129 0 219 -52.5t113 -139.5l37 174h229zM528 209q137 0 244.5 92t138.5 238t-37 238.5t-206 92.5q-140 0 -246 -91.5t-137 -239.5q-32 -148 35 -239t208 -91z" />
    <glyph glyph-name="uni01E8" unicode="&#x1e8;" horiz-adv-x="1386" 
d="M1403 1923l-365 -338h-225l-223 338h229l133 -207l222 207h229zM1513 1434l-845 -723l540 -711h-295l-442 551l-106 -90l-97 -461h-237l303 1434h237l-141 -672l797 672h286z" />
    <glyph glyph-name="uni01E9" unicode="&#x1e9;" horiz-adv-x="1112" 
d="M350 1651l-223 338h229l136 -207l221 207h229l-367 -338h-225zM680 0l-309 401l-74 -67l-70 -334h-227l317 1499h228l-193 -903l543 428h264l-586 -475l377 -549h-270z" />
    <glyph glyph-name="AEacute" unicode="&#x1fc;" horiz-adv-x="2226" 
d="M1692 1585h-222l291 338h228zM1999 217l-47 -217h-1020l67 326h-575l-279 -326h-282l1233 1434h1138l-45 -217h-766l-80 -383h723l-47 -218h-723l-84 -399h787zM1040 522l152 711l-610 -711h458z" />
    <glyph glyph-name="aeacute" unicode="&#x1fd;" horiz-adv-x="1929" 
d="M1561 1530l-297 -338h-222l291 338h228zM1788 459h-821q-27 -130 49.5 -212.5t212.5 -82.5q106 0 204 38.5t164 106.5l99 -133q-86 -92 -224.5 -145.5t-289.5 -53.5q-146 0 -250 55t-156 156q-101 -108 -224.5 -159.5t-250.5 -51.5q-169 0 -250.5 91t-50.5 237
q17 80 65.5 142t120 99.5t164 58.5t197 19.5t219.5 -18.5l16 78q18 89 -30 136.5t-144 47.5q-85 0 -169 -35.5t-150 -99.5l-96 129q77 81 212 133t261 52q230 0 311 -152q182 152 422 152q258 0 362.5 -155.5t26.5 -432.5zM1364 877q-128 0 -235.5 -82t-135.5 -193h600
q24 121 -37 198t-192 77zM393 145q134 0 220.5 70.5t111.5 190.5l14 71q-215 36 -352 -4.5t-160 -153.5q-19 -80 25.5 -127t140.5 -47z" />
    <glyph glyph-name="Oslashacute" unicode="&#x1fe;" horiz-adv-x="1703" 
d="M1108 1585h-221l291 338h227zM1595 715q-32 -155 -117.5 -293.5t-205 -237.5t-270.5 -156t-308 -55q-268 0 -430 156l-180 -147l-96 122l176 146q-114 195 -55 465q42 208 175 380t325.5 270t400.5 95q271 0 432 -155l182 149l96 -123l-178 -149q110 -203 53 -467z
M356 715q-36 -160 21 -293l864 713q-102 102 -278 102q-217 0 -387 -146.5t-220 -375.5zM1348 715q37 168 -23 295l-860 -711q102 -102 276 -102q217 0 388.5 145.5t218.5 372.5z" />
    <glyph glyph-name="oslashacute" unicode="&#x1ff;" horiz-adv-x="1286" 
d="M791 1192h-224l314 338h266zM1116 858q77 -139 33 -338q-52 -239 -235.5 -393t-428.5 -154q-195 0 -315 105l-152 -125l-81 106l149 123q-77 138 -33 338q50 238 234 392.5t430 154.5q196 0 315 -104l150 122l86 -104zM678 874q-150 0 -261 -96.5t-145 -257.5
q-24 -116 11 -190l579 477q-61 67 -184 67zM524 164q149 0 260 97.5t146 258.5q23 107 -10 191l-580 -480q67 -67 184 -67z" />
    <glyph glyph-name="uni0218" unicode="&#x218;" horiz-adv-x="1288" 
d="M510 -27q-212 0 -350 84.5t-178 237.5l190 127q41 -115 141.5 -175.5t249.5 -60.5q143 0 231.5 56t108.5 155q15 75 -30 122t-171 79l-204 51q-195 51 -272.5 149t-45.5 251q39 187 204 299t411 112q191 0 318.5 -69.5t168.5 -194.5l-190 -129q-81 182 -344 182
q-138 0 -223 -51.5t-105 -144.5q-14 -70 32.5 -116t178.5 -79l213 -53q189 -49 261.5 -147t39.5 -248q-42 -199 -212.5 -318t-422.5 -119zM362 -178h226l-209 -371h-178z" />
    <glyph glyph-name="uni0219" unicode="&#x219;" horiz-adv-x="1042" 
d="M375 -27q-150 0 -262.5 49t-165.5 136l137 153q46 -68 136 -109.5t196 -41.5q97 0 156 35.5t71 95.5q9 46 -20.5 75.5t-106.5 49.5l-184 47q-137 35 -190 104.5t-29 175.5q31 150 162 237t327 87q134 0 236.5 -43t150.5 -117l-137 -153q-113 125 -291 125
q-94 0 -150.5 -33t-68.5 -94q-9 -43 19 -71t104 -48l184 -47q145 -37 198.5 -107t29.5 -178q-32 -152 -165.5 -240t-336.5 -88zM221 -178h228l-211 -371h-179z" />
    <glyph glyph-name="uni021A" unicode="&#x21a;" horiz-adv-x="1241" 
d="M608 1214h-456l47 220h1149l-48 -220h-456l-256 -1214h-238zM305 -178h225l-208 -371h-179z" />
    <glyph glyph-name="uni021B" unicode="&#x21b;" horiz-adv-x="849" 
d="M270 838h-202l43 202h202l66 308h229l-65 -308h299l-43 -202h-299l-107 -504q-15 -67 10.5 -98t96.5 -31h168l-41 -205h-232q-156 0 -213.5 69t-25.5 222zM209 -178h174l-160 -371h-176z" />
    <glyph glyph-name="uni0237" unicode="&#x237;" horiz-adv-x="534" 
d="M-279 -209h111q125 0 152 127l235 1106h227l-243 -1147q-29 -140 -122 -213.5t-243 -73.5h-160z" />
    <glyph glyph-name="circumflex" unicode="&#x2c6;" horiz-adv-x="1269" 
d="M913 1192l-133 207l-221 -207h-229l364 338h228l221 -338h-230z" />
    <glyph glyph-name="caron" unicode="&#x2c7;" horiz-adv-x="1269" 
d="M1214 1530l-364 -338h-227l-222 338h230l133 -207l221 207h229z" />
    <glyph glyph-name="breve" unicode="&#x2d8;" horiz-adv-x="1269" 
d="M735 1188q-161 0 -232 77.5t-42 217.5l4 16h182q-37 -166 119 -166q78 0 124.5 40.5t65.5 125.5h183l-4 -16q-31 -140 -135 -217.5t-265 -77.5z" />
    <glyph glyph-name="dotaccent" unicode="&#x2d9;" horiz-adv-x="1269" 
d="M743 1229q-66 0 -97.5 38.5t-18.5 102.5q13 63 62.5 101t115.5 38q65 0 97.5 -38.5t17.5 -100.5q-13 -64 -62 -102.5t-115 -38.5z" />
    <glyph glyph-name="ring" unicode="&#x2da;" horiz-adv-x="1269" 
d="M733 1178q-118 0 -180 75t-39 183t117.5 183t210.5 75q118 0 181 -75t38 -183q-22 -108 -117 -183t-211 -75zM760 1309q60 0 103 34.5t55 92.5q12 59 -15.5 93t-87.5 34t-102 -34t-56 -93q-11 -59 16 -93t87 -34z" />
    <glyph glyph-name="ogonek" unicode="&#x2db;" horiz-adv-x="1269" 
d="M510 -436h-88q-135 0 -196 50.5t-42 139.5q20 91 108.5 169.5t227.5 127.5l84 -51q-108 -59 -160 -105t-61 -90q-8 -40 21 -59.5t96 -19.5h45z" />
    <glyph glyph-name="tilde" unicode="&#x2dc;" horiz-adv-x="1269" 
d="M905 1212q-77 0 -162 68q-49 49 -96 49q-71 0 -94 -108h-168q29 138 94 210t158 72q82 0 160 -67q53 -50 100 -50q71 0 94 111h166q-29 -139 -94 -212t-158 -73z" />
    <glyph glyph-name="hungarumlaut" unicode="&#x2dd;" horiz-adv-x="1269" 
d="M725 1530h227l-317 -338h-223zM1143 1530h227l-317 -338h-222z" />
    <glyph glyph-name="gravecomb" unicode="&#x300;" 
d="M-643 1192l-215 338h266l170 -338h-221z" />
    <glyph glyph-name="acutecomb" unicode="&#x301;" 
d="M-330 1530h267l-359 -338h-221z" />
    <glyph glyph-name="uni0302" unicode="&#x302;" 
d="M-356 1192l-133 207l-222 -207h-229l365 338h225l223 -338h-229z" />
    <glyph glyph-name="tildecomb" unicode="&#x303;" 
d="M-365 1212q-43 0 -79 16t-82 52q-49 49 -97 49q-70 0 -96 -108h-166q29 138 94 210t158 72q79 0 160 -67q53 -50 100 -50q71 0 94 111h166q-29 -139 -94 -212t-158 -73z" />
    <glyph glyph-name="uni0304" unicode="&#x304;" 
d="M-817 1421h661l-37 -180h-661z" />
    <glyph glyph-name="uni0306" unicode="&#x306;" 
d="M-535 1188q-161 0 -232 77.5t-42 217.5l4 16h180q-34 -166 121 -166q154 0 191 166h180l-2 -16q-31 -140 -135 -217.5t-265 -77.5z" />
    <glyph glyph-name="uni0307" unicode="&#x307;" 
d="M-526 1229q-66 0 -98 38.5t-19 102.5q13 63 62.5 101t115.5 38q65 0 96.5 -38t18.5 -101q-13 -64 -61.5 -102.5t-114.5 -38.5z" />
    <glyph glyph-name="uni0308" unicode="&#x308;" 
d="M-764 1229q-64 0 -95.5 39t-19.5 102q13 61 62 100t112 39q64 0 95.5 -38.5t17.5 -100.5q-12 -63 -60.5 -102t-111.5 -39zM-289 1229q-63 0 -93.5 39t-18.5 102q13 61 62 100t112 39t93.5 -38.5t18.5 -100.5q-14 -63 -62 -102t-112 -39z" />
    <glyph glyph-name="uni030A" unicode="&#x30a;" 
d="M-537 1178q-118 0 -180 75t-39 183t117.5 183t210.5 75q118 0 180 -75t39 -183q-22 -108 -117 -183t-211 -75zM-510 1309q60 0 103 34.5t55 92.5q12 59 -15.5 93t-87.5 34t-102.5 -34.5t-54.5 -92.5q-11 -59 16 -93t86 -34z" />
    <glyph glyph-name="uni030B" unicode="&#x30b;" 
d="M-545 1530h228l-318 -338h-223zM-127 1530h227l-317 -338h-223z" />
    <glyph glyph-name="uni030C" unicode="&#x30c;" 
d="M-55 1530l-365 -338h-227l-221 338h227l135 -207l221 207h230z" />
    <glyph glyph-name="uni0312" unicode="&#x312;" 
 />
    <glyph glyph-name="uni0315" unicode="&#x315;" 
d="M-567 1563h223l-137 -418h-174z" />
    <glyph glyph-name="uni0326" unicode="&#x326;" 
d="M-938 -178h225l-209 -371h-178z" />
    <glyph glyph-name="uni0327" unicode="&#x327;" 
d="M-866 23h194l-213 -431h-233z" />
    <glyph glyph-name="uni0328" unicode="&#x328;" 
d="M-760 -436h-88q-136 0 -196 50.5t-41 139.5q20 92 107.5 170t227.5 127l84 -51q-108 -59 -160 -105t-61 -90q-8 -40 18.5 -59.5t92.5 -19.5h51z" />
    <glyph glyph-name="uni060C" unicode="&#x60c;" horiz-adv-x="493" 
d="M444 -2h-227l21 592h186z" />
    <glyph glyph-name="uni0615" unicode="&#x615;" 
d="M614 1585l27 -123h-471l-20 97h77l-73 344h96l43 -205q57 71 129 71q75 0 124 -47t68 -137zM526 1559l-6 30q-9 40 -32.5 62t-57.5 22q-61 0 -115 -78l7 -22l2 -14h202z" />
    <glyph glyph-name="uni061B" unicode="&#x61b;" horiz-adv-x="524" 
d="M346 733h-229l22 592h187zM494 168q22 -64 -2 -106t-86 -48q-62 -8 -110.5 24.5t-68.5 96.5t3 105.5t85 48.5q62 6 110.5 -27t68.5 -94z" />
    <glyph glyph-name="uni061F" unicode="&#x61f;" horiz-adv-x="950" 
d="M664 573l47 -114h-215l-43 100q-26 64 -54 93.5t-112 80.5l-115 72q-127 78 -198 151.5t-107 159.5q-67 156 4 250t248 94q156 0 310 -76.5t278 -212.5l-119 -110q-195 201 -381 201q-81 0 -114 -41t-3 -113q38 -89 166 -168l127 -78q142 -89 186.5 -135t94.5 -154z
M885 119q20 -61 -8.5 -94t-94.5 -27q-67 7 -116 48.5t-68 105.5q-21 64 6.5 95t95.5 25q65 -8 114 -48.5t71 -104.5z" />
    <glyph glyph-name="uni0621" unicode="&#x621;" horiz-adv-x="1277" 
d="M1229 211l45 -211h-1032l-45 211h231q-132 103 -160 244l-12 49q-39 187 71 318.5t298 131.5q174 0 331 -125q87 -66 148 -165l-160 -107q-27 55 -74 102q-88 82 -200 82q-101 0 -160.5 -70t-38.5 -171l10 -43q23 -104 112 -175t195 -71h441z" />
    <glyph glyph-name="uni0622" unicode="&#x622;" horiz-adv-x="569" 
d="M-156 1669l-75 72l116 94q10 9 28.5 7.5t31.5 -13.5q74 -64 207 -64q59 0 161 47l64 -106q-40 -22 -100.5 -40.5t-100.5 -18.5q-124 0 -233 77q-18 14 -29 0zM332 0l-303 1434h211l303 -1434h-211z" />
    <glyph glyph-name="uni0623" unicode="&#x623;" horiz-adv-x="528" 
d="M276 1659l23 -111h-412l-22 111h69q-38 45 -47 92q-9 75 34 125.5t118 50.5q67 0 124.5 -37t88.5 -98l-76 -57q-44 80 -113 80q-32 0 -49.5 -21t-11.5 -55q7 -30 32 -55t62 -25h180zM309 6l-301 1428h211l301 -1428h-211z" />
    <glyph glyph-name="uni0624" unicode="&#x624;" horiz-adv-x="1146" 
d="M786 1264l25 -111h-412l-24 111h69q-38 45 -47 92q-8 74 35 125t117 51q67 0 124.5 -37t88.5 -98l-74 -60q-47 82 -115 82q-33 0 -49.5 -21.5t-9.5 -54.5q5 -29 29.5 -54t62.5 -25h180zM967 979l202 -956q45 -220 -71 -353q-86 -101 -220 -134.5t-403 -33.5l-43 211
h120.5t113 6t102 16.5t87.5 33t69 55.5q46 52 34 143l-4 33h-227q-202 0 -370.5 144t-211.5 350q-28 133 11 244.5t135 176t229 64.5h447zM682 211h233l-116 555h-234q-115 0 -175.5 -78t-35.5 -194q26 -119 120.5 -201t207.5 -82z" />
    <glyph glyph-name="uni0625" unicode="&#x625;" horiz-adv-x="528" 
d="M309 6l-301 1421h211l301 -1421h-211zM717 -410l22 -110h-411l-25 110h70q-39 46 -45 93q-8 76 34.5 126t116.5 50q65 0 122.5 -37t88.5 -96l-74 -60q-49 82 -114 82q-32 0 -49.5 -22t-10.5 -54q7 -30 32.5 -56t62.5 -26h180z" />
    <glyph glyph-name="uni0626" unicode="&#x626;" horiz-adv-x="2091" 
d="M1917 979l205 -977h-213l-158 764h-328q-45 0 -70 -31t-16 -73l191 -898q15 -73 -25 -124.5t-112 -51.5h-519q-144 0 -282.5 71.5t-237 194.5t-129.5 267l-73 352h215l73 -352q29 -132 143 -227t246 -95h406q31 0 47 20.5t10 51.5l-168 791q-29 132 46 224.5t210 92.5
h539zM424 709l22 -109h-411l-25 109h70q-42 50 -45 92q-9 76 33 126t116 50q66 0 124 -36.5t89 -96.5l-73 -60q-47 82 -115 82q-32 0 -49 -21.5t-10 -53.5q5 -29 30.5 -55.5t63.5 -26.5h180z" />
    <glyph glyph-name="uni0627" unicode="&#x627;" horiz-adv-x="569" 
d="M332 0l-303 1434h211l303 -1434h-211z" />
    <glyph glyph-name="uni0628" unicode="&#x628;" horiz-adv-x="1751" 
d="M1573 971l168 -785q17 -84 -31 -143t-133 -59h-918q-173 0 -321.5 121.5t-185.5 293.5l-76 359h215l78 -359q17 -86 88.5 -145t156.5 -59h865q19 0 29 13t5 32l-155 731h215zM963 -313q-11 51 18.5 89t81.5 38q54 0 100.5 -38t57.5 -89q10 -54 -20.5 -91.5t-84.5 -37.5
q-53 0 -98 37.5t-55 91.5z" />
    <glyph glyph-name="uni0629" unicode="&#x629;" horiz-adv-x="1116" 
d="M244 1407q54 0 99 -37t56 -90q12 -54 -17 -91.5t-83 -37.5q-53 0 -99.5 37.5t-58.5 91.5q-10 52 20 89.5t83 37.5zM590 1407q53 0 99 -37.5t56 -89.5q11 -54 -18.5 -91.5t-83.5 -37.5q-53 0 -99.5 38t-56.5 91q-11 53 19 90t84 37zM45 979h467q192 0 350.5 -131
t198.5 -320l16 -69q26 -125 -12 -230t-129.5 -166.5t-216.5 -62.5q-194 -2 -357.5 127t-203.5 317zM674 211q107 0 162 72t32 178l-12 57q-22 104 -110 177t-191 73h-256l68 -315q24 -111 113 -176.5t194 -65.5z" />
    <glyph glyph-name="uni062A" unicode="&#x62a;" horiz-adv-x="1751" 
d="M578 1233q54 0 99.5 -37t57.5 -90q11 -54 -18.5 -91.5t-83.5 -37.5q-53 0 -99.5 38t-56.5 91q-12 52 18 89.5t83 37.5zM924 1233q54 0 99 -37t56 -90q11 -54 -17.5 -91.5t-82.5 -37.5q-53 0 -100.5 38t-57.5 91q-10 52 20 89.5t83 37.5zM1573 971l164 -768
q17 -85 -31 -144t-133 -59h-918q-173 0 -320.5 122t-184.5 294l-74 342h215l74 -342q19 -86 89.5 -145.5t155.5 -59.5h865q19 0 29 13t7 32l-153 715h215z" />
    <glyph glyph-name="uni062B" unicode="&#x62b;" horiz-adv-x="1744" 
d="M657 1552q52 0 98.5 -38t57.5 -89q12 -54 -18 -91.5t-84 -37.5q-53 0 -98.5 37.5t-57.5 91.5q-11 52 19 89.5t83 37.5zM555 1233q54 0 99.5 -37t56.5 -90q10 -54 -19 -91.5t-82 -37.5q-54 0 -100.5 37.5t-56.5 91.5q-10 52 19.5 89.5t82.5 37.5zM899 1233q54 0 101 -37.5
t57 -89.5q11 -54 -19 -91.5t-84 -37.5q-53 0 -99 37.5t-56 91.5q-11 53 18.5 90t81.5 37zM1573 971l164 -768q17 -85 -31 -144t-133 -59h-918q-173 0 -320.5 122t-184.5 294l-74 342h215l74 -342q19 -86 89.5 -145.5t155.5 -59.5h865q19 0 29 13t7 32l-153 715h215z" />
    <glyph glyph-name="uni062C" unicode="&#x62c;" horiz-adv-x="1492" 
d="M662 0q-97 0 -150 -68t-33 -165q22 -97 104 -165.5t177 -68.5h418l45 -211h-418q-185 0 -343 130.5t-196 314.5q-26 121 11.5 223.5t127 161.5t209.5 59h598q-23 11 -47.5 45t-31.5 72l-15 65q-45 204 -182 291q-63 42 -141.5 62.5t-154 18.5t-139.5 -13.5t-118 -30.5
l-129 188q82 33 171.5 51t192 20t209.5 -29t199 -95q238 -162 301 -457l16 -73q8 -43 41 -79t76 -36h21l45 -211h-864zM750 -123q51 0 93.5 -34.5t53.5 -82.5q10 -51 -18 -85.5t-78 -34.5t-92 34.5t-54 85.5q-9 47 19.5 82t75.5 35z" />
    <glyph glyph-name="uni062D" unicode="&#x62d;" horiz-adv-x="1492" 
d="M639 0q-80 0 -123.5 -54t-26.5 -132q17 -77 84.5 -133t145.5 -56h491l45 -211h-491q-167 0 -309 116.5t-179 283.5q-35 166 58 281.5t260 115.5h620q-29 14 -51.5 43t-29.5 63l-15 72q-45 212 -190 305q-64 43 -157 61t-176 13t-146 -16.5t-87 -24.5l-98 207
q36 10 76 19.5t131.5 20t175 7t187.5 -31.5t188 -83q241 -162 307 -473l14 -67q11 -50 50.5 -82.5t91.5 -32.5h22l43 -211h-911z" />
    <glyph glyph-name="uni062E" unicode="&#x62e;" horiz-adv-x="1492" 
d="M561 1413q52 0 98.5 -38t57.5 -89q11 -54 -19 -91.5t-84 -37.5q-53 0 -99 37.5t-56 91.5q-11 52 19 89.5t83 37.5zM639 0q-80 0 -123.5 -54t-26.5 -132q17 -77 84.5 -133t145.5 -56h491l45 -211h-491q-167 0 -309 116.5t-179 283.5q-35 166 58 281.5t260 115.5h620
q-29 14 -51.5 43t-29.5 63l-15 72q-44 207 -190 305q-63 43 -156 60.5t-176 12.5t-146.5 -16.5t-87.5 -23.5l-98 205q24 7 47 12.5t79 16t106.5 15.5t122.5 4t135.5 -11.5t135.5 -36.5t132 -66q242 -166 307 -475l14 -65q11 -50 50.5 -82.5t91.5 -32.5h22l43 -211h-911z" />
    <glyph glyph-name="uni062F" unicode="&#x62f;" horiz-adv-x="1089" 
d="M778 0h-542l-46 211h543q70 0 101 53q28 58 2 117l-287 594l188 57l289 -596q74 -174 -2 -305q-37 -62 -101 -96.5t-145 -34.5z" />
    <glyph glyph-name="uni0630" unicode="&#x630;" horiz-adv-x="1089" 
d="M410 1303q-3 44 29.5 72t78.5 20q47 -7 82.5 -45t38.5 -82q3 -46 -29.5 -74t-79.5 -20q-47 7 -82 45t-38 84zM778 0h-542l-46 211h543q70 0 101 53q28 58 2 117l-287 594l188 57l289 -596q74 -174 -2 -305q-37 -62 -101 -96.5t-145 -34.5z" />
    <glyph glyph-name="uni0631" unicode="&#x631;" horiz-adv-x="653" 
d="M674 35q50 -235 -51 -368.5t-314 -147.5l-119 200q171 18 239 87t34 229l-199 938h209z" />
    <glyph glyph-name="uni0632" unicode="&#x632;" horiz-adv-x="671" 
d="M268 1413q54 0 99.5 -38t56.5 -89q12 -54 -17.5 -91.5t-82.5 -37.5q-54 0 -100 37.5t-58 91.5q-11 51 19.5 89t82.5 38zM674 35q50 -235 -51 -368.5t-314 -147.5l-119 200q171 18 239 87t34 229l-199 938h209z" />
    <glyph glyph-name="uni0633" unicode="&#x633;" horiz-adv-x="2617" 
d="M2230 0q-93 0 -180.5 39.5t-155.5 110.5q-35 -69 -104.5 -109.5t-161.5 -40.5q-124 0 -229 78l55 -258q22 -98 -32 -167t-152 -69h-410q-215 0 -401 152.5t-232 367.5l-73 355h213l75 -355q26 -128 136 -218.5t239 -90.5h361q29 0 46 21.5t11 52.5l-193 911h209l80 -381
q17 -81 84.5 -134.5t155.5 -53.5q91 0 137 56.5t31 138.5l-80 366h213l80 -373q17 -85 86 -136.5t157 -51.5q79 0 123 57.5t29 137.5l-121 567h211l123 -570q34 -173 -61 -288t-269 -115z" />
    <glyph glyph-name="uni0634" unicode="&#x634;" horiz-adv-x="2611" 
d="M1546 1561q54 0 101 -37.5t57 -89.5q11 -54 -18.5 -91.5t-83.5 -37.5q-53 0 -99.5 38t-56.5 91q-11 53 18.5 90t81.5 37zM1438 1233q54 0 99.5 -37t57.5 -90q11 -54 -18.5 -91.5t-83.5 -37.5q-53 0 -99.5 38t-56.5 91q-12 52 18 89.5t83 37.5zM1802 1233q54 0 99.5 -37
t56.5 -90q11 -54 -17.5 -91.5t-82.5 -37.5q-53 0 -100.5 38t-57.5 91q-10 52 19.5 89.5t82.5 37.5zM2230 0q-93 0 -180.5 39.5t-155.5 110.5q-35 -69 -104.5 -109.5t-161.5 -40.5q-124 0 -229 78l55 -258q22 -98 -32 -167t-152 -69h-410q-215 0 -401 152.5t-232 367.5
l-73 355h213l75 -355q26 -128 136 -218.5t239 -90.5h361q29 0 46 21.5t11 52.5l-193 911h209l80 -381q17 -81 84.5 -134.5t155.5 -53.5q91 0 137 56.5t31 138.5l-80 366h213l80 -373q17 -85 86 -136.5t157 -51.5q79 0 123 57.5t29 137.5l-121 567h211l123 -570
q34 -173 -61 -288t-269 -115z" />
    <glyph glyph-name="uni0635" unicode="&#x635;" horiz-adv-x="2613" 
d="M2415 725q95 -115 127 -266l59 -277q15 -75 -26.5 -128.5t-114.5 -53.5h-1030l43 -205q20 -89 -31 -154t-142 -65h-432q-220 0 -407.5 154.5t-233.5 373.5l-67 320h209l69 -320q28 -132 141.5 -224.5t245.5 -92.5h381q23 0 37 17t10 40l-239 1129h209l41 -187l493 160
q165 55 350.5 -7.5t307.5 -213.5zM2376 258l-43 201q-18 87 -78 162q-68 88 -177.5 123t-213.5 4l-555 -181l75 -356h957q19 0 29 13.5t6 33.5z" />
    <glyph glyph-name="uni0636" unicode="&#x636;" horiz-adv-x="2605" 
d="M1700 1413q53 0 98.5 -37.5t56.5 -89.5q11 -54 -18.5 -91.5t-83.5 -37.5q-53 0 -99.5 38t-56.5 91q-11 51 20 89t83 38zM2415 725q95 -115 127 -266l59 -277q15 -75 -26.5 -128.5t-114.5 -53.5h-1030l43 -205q20 -89 -31 -154t-142 -65h-432q-220 0 -407.5 154.5
t-233.5 373.5l-75 359h208l78 -359q28 -132 141.5 -224.5t245.5 -92.5h381q23 0 37 17t10 40l-239 1129h209l41 -187l493 160q165 55 350.5 -7.5t307.5 -213.5zM2376 258l-43 201q-18 87 -78 162q-68 88 -177.5 123t-213.5 4l-555 -181l75 -356h957q19 0 29 13.5t6 33.5z
" />
    <glyph glyph-name="uni0637" unicode="&#x637;" horiz-adv-x="1861" 
d="M1675 729q96 -122 127 -266l60 -281q15 -74 -27 -128t-115 -54h-1466l-45 211h221l-258 1216h211l135 -636l498 161q166 54 352 -8.5t307 -214.5zM1636 258l-43 205q-19 89 -77 162q-70 88 -181.5 123.5t-212.5 3.5l-557 -181l76 -360h961q19 0 28.5 13.5t5.5 33.5z" />
    <glyph glyph-name="uni0638" unicode="&#x638;" horiz-adv-x="1830" 
d="M1675 729q96 -122 127 -266l60 -281q15 -74 -27 -128t-115 -54h-1466l-45 211h221l-258 1216h211l135 -636l498 161q166 54 352 -8.5t307 -214.5zM948 1413q52 0 98.5 -38t57.5 -89q11 -54 -19 -91.5t-84 -37.5q-53 0 -99 37.5t-56 91.5q-11 52 19 89.5t83 37.5z
M1636 258l-43 205q-19 89 -77 162q-70 88 -181.5 123.5t-212.5 3.5l-557 -181l76 -360h961q19 0 28.5 13.5t5.5 33.5z" />
    <glyph glyph-name="uni0639" unicode="&#x639;" horiz-adv-x="1275" 
d="M1251 211l45 -211h-655q-76 0 -117 -53t-26 -129q15 -75 80 -129t141 -54h487l43 -206h-487q-163 0 -301 114t-172 275q-23 114 16 205t129 124l27 7q-169 123 -205 292l-14 72q-27 126 13 232t133.5 167.5t217.5 61.5q169 0 305.5 -90.5t210.5 -247.5l-133 -98
q-41 96 -135.5 161.5t-202.5 65.5q-103 0 -162.5 -73.5t-39.5 -176.5l16 -71q23 -104 111 -171t194 -67h481z" />
    <glyph glyph-name="uni063A" unicode="&#x63a;" horiz-adv-x="1267" 
d="M502 1413q53 0 98.5 -37.5t56.5 -89.5q12 -54 -17.5 -91.5t-82.5 -37.5q-54 0 -100 37.5t-58 91.5q-11 51 20 89t83 38zM1251 211l45 -211h-655q-76 0 -117 -53t-26 -129q15 -75 80 -129t141 -54h495l43 -206h-495q-163 0 -301 114t-172 275q-23 114 16 205t129 124l27 7
q-74 38 -129 117.5t-76 174.5l-14 72q-27 126 13 232t133.5 167.5t217.5 61.5q169 0 305.5 -90.5t210.5 -247.5l-133 -98q-41 96 -135.5 161.5t-202.5 65.5q-103 0 -162.5 -73.5t-39.5 -176.5l16 -71q23 -104 111 -171t194 -67h481z" />
    <glyph glyph-name="uni0640" unicode="&#x640;" horiz-adv-x="602" 
d="M86 211h643l45 -211h-643z" />
    <glyph glyph-name="uni0641" unicode="&#x641;" horiz-adv-x="2035" 
d="M1415 1415q53 0 99.5 -37.5t56.5 -89.5q11 -53 -19 -91t-84 -38q-53 0 -99 38.5t-56 90.5q-11 53 18.5 90t83.5 37zM1855 979l164 -774q19 -88 -28 -146.5t-136 -58.5h-1146q-124 0 -242.5 62t-203 168t-111.5 231l-54 256h209l55 -256q23 -104 111.5 -177t190.5 -73h559
q-70 46 -122 122.5t-71 160.5q-27 130 15.5 241.5t143 177.5t234.5 66h432zM1737 211q28 0 44 20.5t11 49.5l-104 487l-222 -2q-117 0 -182.5 -83.5t-42.5 -197.5q23 -111 123.5 -192.5t206.5 -81.5h166z" />
    <glyph glyph-name="uni0642" unicode="&#x642;" horiz-adv-x="1552" 
d="M616 1415q54 0 99.5 -37t56.5 -90q12 -53 -17 -91t-83 -38q-52 0 -99 38t-59 91q-10 52 19.5 89.5t82.5 37.5zM965 1415q54 0 100.5 -37.5t56.5 -89.5q11 -53 -18.5 -91t-83.5 -38q-53 0 -99.5 38.5t-56.5 90.5q-11 53 19 90t82 37zM922 979h450l246 -1159
q23 -102 -34.5 -175t-160.5 -73h-546q-146 0 -285 71t-237 193.5t-128 267.5l-75 357h213l73 -352q28 -134 143 -229t248 -95h521q27 0 41.5 18.5t9.5 46.5l-33 150h-240q-193 0 -359 133.5t-206 321.5l-14 71q-41 195 66.5 324t306.5 129zM1083 211h240l-123 575h-239
q-108 0 -167 -76t-36 -184l14 -67q22 -101 113.5 -174.5t197.5 -73.5z" />
    <glyph glyph-name="uni0643" unicode="&#x643;" horiz-adv-x="1771" 
d="M1454 1427l260 -1228q19 -82 -28 -140.5t-130 -58.5h-845q-186 0 -344.5 131.5t-198.5 317.5l-68 311h211l66 -311q22 -99 106 -168.5t183 -69.5h768q28 0 44.5 19t10.5 46l-244 1151h209zM1014 975l24 -109h-411l-25 109h70q-39 46 -45 92q-9 75 33.5 125.5t115.5 50.5
q66 0 124 -36.5t91 -96.5l-76 -59q-43 82 -114 82q-32 0 -49.5 -22t-10.5 -54q5 -30 30 -56t63 -26h180z" />
    <glyph glyph-name="uni0644" unicode="&#x644;" horiz-adv-x="1421" 
d="M1268 -399h-404q-219 0 -407 154.5t-234 373.5l-71 334h213l69 -334q28 -132 140.5 -224.5t244.5 -92.5h363q34 0 52.5 23.5t10.5 55.5l-327 1539l212 -3l336 -1574q22 -104 -36.5 -178t-161.5 -74z" />
    <glyph glyph-name="uni0645" unicode="&#x645;" horiz-adv-x="1267" 
d="M829 0q-148 0 -274 96l12 -63q25 -187 -67 -299.5t-260 -147.5l-84 205q244 54 192 305l-188 883h463q127 0 247.5 -63.5t205 -171.5t110.5 -234l12 -51q24 -125 -16 -230.5t-133.5 -167t-219.5 -61.5zM784 211q106 0 165.5 71.5t39.5 174.5l-12 53q-22 106 -110.5 180
t-194.5 74h-256l67 -315q25 -109 112 -173.5t189 -64.5z" />
    <glyph glyph-name="uni0646" unicode="&#x646;" horiz-adv-x="1421" 
d="M614 971q54 0 102 -37.5t58 -89.5q10 -54 -20 -91.5t-84 -37.5q-53 0 -98.5 37.5t-55.5 91.5q-11 53 17.5 90t80.5 37zM1339 -397h-477q-144 0 -280.5 71t-232.5 192.5t-126 264.5l-71 332h210l70 -332q28 -131 140.5 -224t244.5 -93h367q30 0 47 19.5t12 49.5l-229 1073
h209l252 -1179q15 -72 -24.5 -123t-111.5 -51z" />
    <glyph glyph-name="uni0647" unicode="&#x647;" horiz-adv-x="1116" 
d="M45 979h467q192 0 350.5 -131t198.5 -320l16 -69q26 -125 -12 -230t-129.5 -166.5t-216.5 -62.5q-194 -2 -357.5 127t-203.5 317zM674 211q107 0 162 72t32 178l-12 57q-22 104 -110 177t-191 73h-256l68 -315q24 -111 113 -176.5t194 -65.5z" />
    <glyph glyph-name="uni0648" unicode="&#x648;" horiz-adv-x="1146" 
d="M967 979l202 -956q45 -220 -71 -353q-86 -101 -220 -134.5t-403 -33.5l-43 211h120.5t113 6t102 16.5t87.5 33t69 55.5q46 52 34 143l-4 33h-227q-202 0 -370.5 144t-211.5 350q-28 133 11 244.5t135 176t229 64.5h447zM682 211h233l-116 555h-234q-115 0 -175.5 -78
t-35.5 -194q26 -119 120.5 -201t207.5 -82z" />
    <glyph glyph-name="uni0649" unicode="&#x649;" horiz-adv-x="2099" 
d="M1917 979l205 -977h-213l-158 764h-328q-45 0 -70 -31t-16 -73l191 -898q15 -73 -25 -124.5t-112 -51.5h-519q-144 0 -282.5 71.5t-237 194.5t-129.5 267l-73 352h215l73 -352q29 -132 143 -227t246 -95h406q31 0 47 20.5t10 51.5l-168 791q-29 132 46 224.5t210 92.5
h539z" />
    <glyph glyph-name="uni064A" unicode="&#x64a;" horiz-adv-x="2099" 
d="M1917 979l205 -977h-213l-158 764h-328q-45 0 -70 -31t-16 -73l191 -898q15 -73 -25 -124.5t-112 -51.5h-519q-144 0 -282.5 71.5t-237 194.5t-129.5 267l-73 352h215l73 -352q29 -132 143 -227t246 -95h406q31 0 47 20.5t10 51.5l-168 791q-29 132 46 224.5t210 92.5
h539zM946 -555q54 0 99.5 -37t56.5 -90q12 -54 -18 -91.5t-83 -37.5q-54 0 -99.5 37.5t-57.5 91.5q-10 52 19.5 89.5t82.5 37.5zM1296 -555q54 0 101 -37.5t57 -89.5q12 -54 -18 -91.5t-84 -37.5q-53 0 -98.5 37.5t-57.5 91.5q-11 53 18.5 90t81.5 37z" />
    <glyph glyph-name="uni064B" unicode="&#x64b;" 
d="M-238 1903l347 118l18 -71l-342 -131zM-199 1724l340 136l23 -86l-340 -132z" />
    <glyph glyph-name="uni064C" unicode="&#x64c;" 
d="M283 1671q12 -55 -13 -93.5t-75 -49.5l-254 -82l-29 70q-18 69 -68 69l-20 -6l-33 63l21 13q47 20 85.5 -1t61.5 -79l10 -23l84 29q-47 40 -55 90q-12 60 20.5 102t92.5 42q59 0 109.5 -42t62.5 -102zM158 1604q26 0 40 17.5t9 45.5q-5 29 -26.5 49.5t-49.5 20.5
q-29 0 -43 -18.5t-8 -45.5q6 -30 28 -49.5t50 -19.5z" />
    <glyph glyph-name="uni064D" unicode="&#x64d;" 
d="M209 -197l344 121l18 -74l-340 -129zM246 -373l340 133l22 -84l-342 -131z" />
    <glyph glyph-name="uni064E" unicode="&#x64e;" 
d="M-131 1708l342 121l20 -74l-342 -129z" />
    <glyph glyph-name="uni064F" unicode="&#x64f;" 
d="M-57 2019q59 0 109.5 -41.5t62.5 -101.5q22 -101 -86 -141l-213 -78l-47 86l118 43q-48 36 -57 90q-12 60 20.5 101.5t92.5 41.5zM-16 1817q28 0 42 19.5t7 51.5q-6 27 -29 46.5t-49 19.5q-29 0 -44.5 -19.5t-10.5 -46.5q7 -32 31.5 -51.5t52.5 -19.5z" />
    <glyph glyph-name="uni0650" unicode="&#x650;" 
d="M342 -526l340 135l23 -86l-343 -131z" />
    <glyph glyph-name="uni0651" unicode="&#x651;" 
d="M158 1765h100l29 -141q15 -73 -12 -117.5t-91 -44.5q-59 0 -102 43q-9 -33 -33 -51t-57 -18q-63 0 -113 41t-63 108l-19 84h101l16 -84q12 -49 55 -49q44 0 29 57l-23 117h99l22 -102q9 -43 51 -43q54 0 39 59z" />
    <glyph glyph-name="uni0652" unicode="&#x652;" 
d="M-10 1704q-65 0 -119.5 45t-67.5 111q-13 63 22.5 108t98.5 45t118.5 -45t68.5 -108q13 -66 -22.5 -111t-98.5 -45zM-29 1786q29 0 44.5 20t9.5 52q-6 29 -29 47t-53 18q-29 0 -44.5 -18t-9.5 -47q7 -32 30.5 -52t51.5 -20z" />
    <glyph glyph-name="uni0653" unicode="&#x653;" 
d="M-203 1982l-76 72l117 94q10 9 28.5 7.5t31.5 -13.5q73 -63 206 -63q60 0 162 47l64 -107q-40 -22 -100.5 -40.5t-100.5 -18.5q-123 0 -233 78q-18 14 -29 0z" />
    <glyph glyph-name="uni0658" unicode="&#x658;" 
 />
    <glyph glyph-name="uni0660" unicode="&#x660;" horiz-adv-x="538" 
d="M240 135q-15 70 18 112t102 42q70 0 120 -41.5t67 -112.5q14 -70 -19 -111.5t-104 -41.5q-69 0 -120 42t-64 111z" />
    <glyph glyph-name="uni0661" unicode="&#x661;" horiz-adv-x="530" 
d="M231 1434l304 -1434h-232l-303 1434h231z" />
    <glyph glyph-name="uni0662" unicode="&#x662;" horiz-adv-x="1234" 
d="M907 1434l49 -232h-401q-101 0 -156.5 -80t-33.5 -184l198 -938h-235l-197 932q-28 133 11 248.5t135.5 184.5t226.5 69h403z" />
    <glyph glyph-name="uni0663" unicode="&#x663;" horiz-adv-x="1689" 
d="M1184 559q-93 0 -181.5 39.5t-156.5 110.5q-33 -70 -102.5 -110t-161.5 -40q-128 0 -230 76l135 -637h-208l-306 1436h209l101 -476q19 -82 86 -135t155 -53q92 0 138 56.5t28 136.5l-98 471h211l98 -476q20 -85 89 -136.5t157 -51.5q79 0 123.5 56.5t27.5 136.5l-98 471
h211l100 -471q35 -173 -59 -288.5t-268 -115.5z" />
    <glyph glyph-name="uni0664" unicode="&#x664;" horiz-adv-x="1204" 
d="M1071 723l45 -207h-600q-66 0 -102 -45.5t-21 -110.5q12 -64 67.5 -109.5t121.5 -45.5h448l43 -205h-448q-152 0 -280 106t-159 254q-22 102 14.5 184t114.5 113l27 9q-150 108 -188 278l-17 72q-36 178 64.5 301t273.5 123q160 0 286.5 -86.5t196.5 -237.5l-133 -100
q-42 98 -124.5 158.5t-182.5 60.5q-90 0 -141.5 -63.5t-34.5 -153.5l16 -70q20 -91 99.5 -158t169.5 -67h444z" />
    <glyph glyph-name="uni0665" unicode="&#x665;" horiz-adv-x="1427" 
d="M872 -27q-263 0 -467 205t-274 539q-44 226 -9.5 391t148.5 258.5t287 93.5q261 0 465 -204.5t274 -538.5q44 -226 9.5 -391t-148 -259t-285.5 -94zM827 186q154 0 217.5 146t12.5 385q-53 240 -177 385t-278 145q-155 0 -218 -145.5t-11 -384.5q51 -240 175 -385.5
t279 -145.5z" />
    <glyph glyph-name="uni0666" unicode="&#x666;" horiz-adv-x="1234" 
d="M328 1434h403q130 0 226.5 -69t135.5 -184.5t11 -248.5l-197 -932h-235l198 938q22 104 -33.5 184t-156.5 80h-399z" />
    <glyph glyph-name="uni0667" unicode="&#x667;" horiz-adv-x="1402" 
d="M1374 1434l-530 -1434h-279l-540 1434h254l423 -1158l418 1158h254z" />
    <glyph glyph-name="uni0668" unicode="&#x668;" horiz-adv-x="1427" 
d="M1552 0h-254l-675 1159l-191 -1159h-254l248 1434h279z" />
    <glyph glyph-name="uni0669" unicode="&#x669;" horiz-adv-x="1169" 
d="M434 1434q124 1 242.5 -61t202 -167.5t108.5 -228.5l207 -977h-215l-92 444l-193 2q-238 0 -405 128t-211 341l-12 62q-39 189 69.5 322t298.5 135zM848 655l-70 322q-22 101 -109 173.5t-188 72.5q-108 0 -169 -77t-36 -185l11 -54q23 -104 116 -178t199 -74h246z" />
    <glyph glyph-name="uni066A" unicode="&#x66a;" horiz-adv-x="1501" 
d="M1024 1434h203l-686 -1434h-203zM205 1116q-66 0 -120 43t-69 109q-13 66 22 109.5t101 43.5t121 -43.5t68 -109.5q15 -66 -20 -109t-103 -43zM1339 -18q-68 0 -121.5 43.5t-66.5 109.5t22 109t103 43q66 0 119.5 -43t68.5 -109q12 -66 -23.5 -109.5t-101.5 -43.5z" />
    <glyph glyph-name="uni066B" unicode="&#x66b;" horiz-adv-x="493" 
d="M262 274h230l-23 -591h-184z" />
    <glyph glyph-name="uni066C" unicode="&#x66c;" horiz-adv-x="493" 
d="M262 274h230l-23 -591h-184z" />
    <glyph glyph-name="uni066D" unicode="&#x66d;" horiz-adv-x="944" 
d="M668 348l247 -248l-114 -98l-234 262l-123 -262l-155 98l143 250l-323 88l18 158l319 -107l-77 316h168l55 -318l276 109l86 -160z" />
    <glyph glyph-name="uni066E" unicode="&#x66e;" horiz-adv-x="1738" 
d="M1573 971l164 -768q17 -85 -31 -144t-133 -59h-918q-173 0 -320.5 122t-184.5 294l-76 350h215l76 -350q19 -86 89.5 -145.5t155.5 -59.5h865q19 0 29 13t7 32l-153 715h215z" />
    <glyph glyph-name="uni066F" unicode="&#x66f;" horiz-adv-x="1552" 
d="M918 999q184 0 345 -134t201 -322l154 -723q23 -102 -34.5 -175t-160.5 -73h-546q-146 0 -285 71t-237 193.5t-128 267.5l-75 357h213l73 -352q28 -134 143 -229t248 -95h521q27 0 41.5 18.5t9.5 46.5l-33 150h-240q-193 0 -359 133.5t-206 321.5l-14 71
q-41 197 65.5 335t303.5 138zM1083 211h240l-70 332q-23 101 -108.5 172t-183.5 71q-108 0 -167 -76t-36 -184l14 -67q22 -101 113.5 -174.5t197.5 -73.5z" />
    <glyph glyph-name="uni0671" unicode="&#x671;" horiz-adv-x="528" 
d="M311 0l-303 1434h211l303 -1434h-211z" />
    <glyph glyph-name="uni0679" unicode="&#x679;" horiz-adv-x="1738" 
d="M567 1073l-20 96h78l-74 344h96l43 -204q57 71 129 71q75 0 124.5 -47t68.5 -137l26 -123h-471zM827 1284q-60 0 -114 -78l6 -22l2 -15h203l-6 31q-9 40 -33 62t-58 22zM1737 203q17 -85 -31 -144t-133 -59h-918q-173 0 -320.5 122t-184.5 294l-76 350h215l76 -350
q19 -86 89.5 -145.5t155.5 -59.5h865q19 0 29 13t7 32l-153 715h215z" />
    <glyph glyph-name="uni067E" unicode="&#x67e;" horiz-adv-x="1738" 
d="M1573 971l164 -768q17 -85 -31 -144t-133 -59h-918q-173 0 -320.5 122t-184.5 294l-76 350h215l76 -350q19 -86 89.5 -145.5t155.5 -59.5h865q19 0 29 13t7 32l-153 715h215zM938 -426q-53 0 -99.5 37.5t-56.5 89.5q-12 54 18 91.5t83 37.5q54 0 99.5 -37.5t57.5 -91.5
q11 -53 -18.5 -90t-83.5 -37zM1284 -426q-53 0 -99.5 37.5t-56.5 89.5q-12 54 18 91.5t83 37.5q54 0 99.5 -37.5t57.5 -91.5q11 -53 -18.5 -90t-83.5 -37zM1176 -745q-53 0 -99.5 37.5t-56.5 89.5q-11 54 18.5 91.5t81.5 37.5q54 0 101 -37.5t57 -91.5q11 -53 -18.5 -90
t-83.5 -37z" />
    <glyph glyph-name="uni0686" unicode="&#x686;" horiz-adv-x="1492" 
d="M662 0q-97 0 -150 -68t-33 -165q22 -97 104 -165.5t177 -68.5h418l45 -211h-418q-185 0 -343 130.5t-196 314.5q-26 121 11.5 223.5t127 161.5t209.5 59h598q-23 11 -47.5 45t-31.5 72l-15 65q-45 202 -182 289q-63 43 -141.5 63.5t-154 19t-139.5 -13.5t-118 -32
l-129 190q83 33 172.5 51t192 19.5t209.5 -29.5t200 -94q237 -163 301 -465l14 -65q8 -43 41 -79t76 -36h21l45 -211h-864zM723 -233q-26 0 -49 18.5t-29 44.5q-5 26 9.5 45t39.5 19q28 0 51 -19t29 -45q5 -26 -10 -44.5t-41 -18.5zM905 -233q-25 0 -48.5 18.5t-27.5 44.5
q-6 26 9 45t41 19t48.5 -19t28.5 -45q5 -27 -9.5 -45t-41.5 -18zM848 -403q-25 0 -47.5 18.5t-28.5 44.5q-6 27 9 45.5t40 18.5q28 0 51 -18t29 -46q5 -27 -10.5 -45t-42.5 -18z" />
    <glyph glyph-name="uni0688" unicode="&#x688;" horiz-adv-x="1089" 
d="M365 1143l-21 96h78l-74 344h96l43 -205q58 72 129 72q75 0 124.5 -47t68.5 -137l27 -123h-471zM625 1354q-61 0 -115 -78l6 -23l2 -14h203l-6 31q-9 40 -32.5 62t-57.5 22zM1026 436q74 -174 -2 -305q-37 -62 -101 -96.5t-145 -34.5h-542l-46 211h543q70 0 101 53
q28 58 2 117l-287 594l188 57z" />
    <glyph glyph-name="uni0691" unicode="&#x691;" horiz-adv-x="653" 
d="M104 1118l-20 96h78l-74 345h96l43 -205q57 71 129 71q75 0 124.5 -47t68.5 -137l26 -123h-471zM365 1329q-61 0 -115 -78l6 -22l2 -15h203l-6 31q-9 40 -32.5 62t-57.5 22zM674 35q50 -235 -51 -368.5t-314 -147.5l-119 200q171 18 239 87t34 229l-199 938h209z" />
    <glyph glyph-name="uni0698" unicode="&#x698;" horiz-adv-x="653" 
d="M193 1710q54 0 100.5 -37.5t56.5 -89.5q12 -54 -18 -91.5t-84 -37.5q-53 0 -98.5 37.5t-57.5 91.5q-11 53 19 90t82 37zM92 1391q54 0 99.5 -37t56.5 -90t-19 -91t-84 -38q-53 0 -99 38.5t-56 90.5t19.5 89.5t82.5 37.5zM438 1391q53 0 99.5 -37.5t56.5 -89.5
q11 -53 -18.5 -91t-83.5 -38q-53 0 -99.5 38.5t-56.5 90.5q-11 53 18.5 90t83.5 37zM674 35q50 -235 -51 -368.5t-314 -147.5l-119 200q171 18 239 87t34 229l-199 938h209z" />
    <glyph glyph-name="uni06A1" unicode="&#x6a1;" horiz-adv-x="2035" 
d="M1855 979l164 -774q19 -88 -28 -146.5t-136 -58.5h-1146q-124 0 -242.5 62t-203 168t-111.5 231l-54 256h209l55 -256q23 -104 111.5 -177t190.5 -73h559q-70 46 -122 122.5t-71 160.5q-27 130 15.5 241.5t143 177.5t234.5 66h432zM1737 211q28 0 44 20.5t11 49.5
l-104 487l-222 -2q-117 0 -182.5 -83.5t-42.5 -197.5q23 -111 123.5 -192.5t206.5 -81.5h166z" />
    <glyph glyph-name="uni06A4" unicode="&#x6a4;" horiz-adv-x="2035" 
d="M1329 1683q54 0 101 -37.5t57 -89.5q11 -53 -19 -91t-84 -38q-53 0 -99 38.5t-56 90.5q-11 53 18.5 90t81.5 37zM1227 1366q54 0 100.5 -37.5t56.5 -89.5q11 -54 -18.5 -91.5t-83.5 -37.5q-53 0 -99.5 38t-56.5 91q-11 53 19 90t82 37zM1573 1366q54 0 100 -37t58 -90
q11 -54 -19 -91.5t-84 -37.5q-53 0 -99 37.5t-56 91.5q-12 52 17.5 89.5t82.5 37.5zM1855 979l164 -774q19 -88 -28 -146.5t-136 -58.5h-1146q-124 0 -242.5 62t-203 168t-111.5 231l-54 256h209l55 -256q23 -104 111.5 -177t190.5 -73h559q-70 46 -122 122.5t-71 160.5
q-27 130 15.5 241.5t143 177.5t234.5 66h432zM1737 211q28 0 44 20.5t11 49.5l-104 487l-222 -2q-117 0 -182.5 -83.5t-42.5 -197.5q23 -111 123.5 -192.5t206.5 -81.5h166z" />
    <glyph glyph-name="uni06A9" unicode="&#x6a9;" horiz-adv-x="2091" 
d="M2021 457l97 -457h-1434q-173 0 -322 122t-186 294l-74 348h215l74 -348q19 -86 90.5 -145.5t157.5 -59.5h1223l-47 233q-29 134 -145.5 229t-250.5 95h-487l-203 233l291 578l201 -123l-242 -475h410q141 0 275.5 -70t230 -190.5t126.5 -263.5z" />
    <glyph glyph-name="uni06AF" unicode="&#x6af;" horiz-adv-x="2091" 
d="M901 1618l-276 -528l-84 63l274 522zM2021 457l97 -457h-1434q-173 0 -322 122t-186 294l-74 348h215l74 -348q19 -86 90.5 -145.5t157.5 -59.5h1223l-47 233q-29 134 -145.5 229t-250.5 95h-487l-203 233l291 578l201 -123l-242 -475h410q141 0 275.5 -70t230 -190.5
t126.5 -263.5z" />
    <glyph glyph-name="uni06BA" unicode="&#x6ba;" horiz-adv-x="1413" 
d="M1339 -397h-477q-144 0 -280.5 71t-232.5 192.5t-126 264.5l-71 332h210l70 -332q28 -131 140.5 -224t244.5 -93h367q30 0 47 19.5t12 49.5l-229 1073h209l252 -1179q15 -72 -24.5 -123t-111.5 -51z" />
    <glyph glyph-name="uni06BE" unicode="&#x6be;" horiz-adv-x="1546" 
d="M686 1200q190 -39 356.5 -150t286.5 -283.5t164 -377.5l35 -170q19 -91 -31 -155t-139 -64h-1227l-45 211h262q-58 43 -102.5 112t-61.5 144q-36 174 70 288.5t291 114.5q189 0 348.5 -135.5t200.5 -328.5l24 -117q9 -45 4 -78h154q19 0 29 12t6 31l-29 135
q-49 230 -209.5 395t-374.5 209q-166 35 -333 35l-41 207q134 -1 196.5 -7.5t165.5 -27.5zM588 659q-91 0 -149.5 -62.5t-39.5 -158.5q22 -98 100.5 -162.5t159.5 -64.5h218q20 0 31 13t7 34l-34 166q-18 88 -104.5 161t-188.5 74z" />
    <glyph glyph-name="uni06C1" unicode="&#x6c1;" horiz-adv-x="1116" 
d="M45 979h467q192 0 350.5 -131t198.5 -320l16 -69q26 -125 -12 -230t-129.5 -166.5t-216.5 -62.5q-194 -2 -357.5 127t-203.5 317zM674 211q107 0 162 72t32 178l-12 57q-22 104 -110 177t-191 73h-256l68 -315q24 -111 113 -176.5t194 -65.5z" />
    <glyph glyph-name="uni06C2" unicode="&#x6c2;" horiz-adv-x="1116" 
d="M584 1227l24 -109h-413l-23 109h68q-40 55 -45 92q-8 76 34.5 126t116.5 50q65 0 123.5 -37t89.5 -96l-74 -59q-46 81 -114 81q-32 0 -50 -21.5t-12 -53.5q7 -30 32 -56t62 -26h181zM45 979h467q192 0 350.5 -131t198.5 -320l16 -69q26 -125 -12 -230t-129.5 -166.5
t-216.5 -62.5q-194 -2 -357.5 127t-203.5 317zM674 211q107 0 162 72t32 178l-12 57q-22 104 -110 177t-191 73h-256l68 -315q24 -111 113 -176.5t194 -65.5z" />
    <glyph glyph-name="uni06C3" unicode="&#x6c3;" horiz-adv-x="1116" 
d="M244 1407q54 0 99 -37t56 -90q12 -54 -17 -91.5t-83 -37.5q-53 0 -99.5 37.5t-58.5 91.5q-10 52 20 89.5t83 37.5zM590 1407q53 0 99 -37.5t56 -89.5q11 -54 -18.5 -91.5t-83.5 -37.5q-53 0 -99.5 38t-56.5 91q-11 53 19 90t84 37zM45 979h467q192 0 350.5 -131
t198.5 -320l16 -69q26 -125 -12 -230t-129.5 -166.5t-216.5 -62.5q-194 -2 -357.5 127t-203.5 317zM674 211q107 0 162 72t32 178l-12 57q-22 104 -110 177t-191 73h-256l68 -315q24 -111 113 -176.5t194 -65.5z" />
    <glyph glyph-name="uni06CC" unicode="&#x6cc;" horiz-adv-x="2099" 
d="M1915 979l205 -977h-213l-158 764h-328q-45 0 -70 -31t-16 -73l191 -898q15 -73 -25 -124.5t-112 -51.5h-519q-144 0 -282.5 71.5t-237 194.5t-129.5 267l-74 352h215l74 -352q29 -132 143 -227t246 -95h406q31 0 47 20.5t10 51.5l-168 791q-29 132 46 224.5t210 92.5
h539z" />
    <glyph glyph-name="uni06D2" unicode="&#x6d2;" horiz-adv-x="1308" 
d="M614 0q-81 0 -159 34.5t-142 96.5q-134 134 -131 305l21 363l215 -58l-21 -360q-3 -58 52 -117q50 -53 120 -53h867l45 -211h-867z" />
    <glyph glyph-name="uni06D3" unicode="&#x6d3;" horiz-adv-x="1308" 
d="M481 1028l23 -110h-412l-24 110h69q-38 45 -47 92q-8 74 36 125t118 51q65 0 122.5 -37t88.5 -98l-74 -59q-47 82 -115 82q-32 0 -49 -22t-10 -54q5 -29 30.5 -54.5t63.5 -25.5h180zM614 0q-81 0 -159 34.5t-142 96.5q-134 134 -131 305l21 363l215 -58l-21 -360
q-3 -58 52 -117q50 -53 120 -53h867l45 -211h-867z" />
    <glyph glyph-name="uni06D4" unicode="&#x6d4;" horiz-adv-x="1228" 
 />
    <glyph glyph-name="uni06F0" unicode="&#x6f0;" horiz-adv-x="538" 
d="M240 135q-15 70 18 112t102 42q70 0 120 -41.5t67 -112.5q14 -70 -19 -111.5t-104 -41.5q-69 0 -120 42t-64 111z" />
    <glyph glyph-name="uni06F1" unicode="&#x6f1;" horiz-adv-x="530" 
d="M231 1434l304 -1434h-232l-303 1434h231z" />
    <glyph glyph-name="uni06F2" unicode="&#x6f2;" horiz-adv-x="1234" 
d="M907 1434l49 -232h-401q-101 0 -156.5 -80t-33.5 -184l198 -938h-235l-197 932q-28 133 11 248.5t135.5 184.5t226.5 69h403z" />
    <glyph glyph-name="uni06F3" unicode="&#x6f3;" horiz-adv-x="1689" 
d="M1184 559q-93 0 -181.5 39.5t-156.5 110.5q-33 -70 -102.5 -110t-161.5 -40q-128 0 -230 76l135 -637h-208l-306 1436h209l101 -476q19 -82 86 -135t155 -53q92 0 138 56.5t28 136.5l-98 471h211l98 -476q20 -85 89 -136.5t157 -51.5q79 0 123.5 56.5t27.5 136.5l-98 471
h211l100 -471q35 -173 -59 -288.5t-268 -115.5z" />
    <glyph glyph-name="uni06F4" unicode="&#x6f4;" horiz-adv-x="1568" 
d="M1501 432h-1077l92 -432h-231l-303 1434h231l168 -791h270q-157 77 -196 256l-15 72q-27 126 13 232t134 167.5t218 61.5q169 0 305.5 -90.5t210.5 -247.5l-133 -99q-41 96 -135.5 162t-202.5 66q-104 0 -163.5 -73.5t-39.5 -176.5l15 -72q23 -106 115 -182t196 -76h483z
" />
    <glyph glyph-name="uni06F5" unicode="&#x6f5;" horiz-adv-x="1517" 
d="M1151 -27q-149 0 -246 117q-45 -117 -200 -117q-102 0 -198 53t-173 152q-125 167 -176 412q-34 152 -28 299t50 264q52 146 157.5 222.5t250.5 76.5q148 0 291.5 -81t267.5 -236q98 -123 171 -278.5t105 -311.5q52 -229 -4 -383q-31 -90 -100 -139.5t-168 -49.5z
M948 365q7 -33 18.5 -63t31 -60t50 -48t68.5 -18q40 -1 67 24.5t38 67.5q39 104 -2 277q-26 128 -87 256.5t-143 228.5q-174 217 -358 217q-175 0 -250 -188q-36 -95 -41 -217.5t22 -251.5q20 -93 59 -185t93 -147q70 -80 145 -80q29 0 49 8.5t29.5 25.5t14.5 33.5t3 40.5
t-4 37.5t-6 34.5l-38 177h204z" />
    </font>
</defs>
</svg>
