<?xml version="1.0" standalone="no"?>
<!DOCTYPE svg PUBLIC "-//W3C//DTD SVG 1.1//EN" "http://www.w3.org/Graphics/SVG/1.1/DTD/svg11.dtd" >
<svg xmlns="http://www.w3.org/2000/svg" xmlns:xlink="http://www.w3.org/1999/xlink" version="1.1">
<metadata>
Created by FontForge 20170731 at Sat May 27 13:23:45 2023
 By Aleksey,,,
Copyright (c) 2021 by __Designer__. All rights reserved.
</metadata>
<defs>
<font id="LamaSans-Thin" horiz-adv-x="0" >
  <font-face 
    font-family="Lama Sans Thin"
    font-weight="100"
    font-stretch="normal"
    units-per-em="2048"
    panose-1="0 0 2 0 0 0 0 0 0 0"
    ascent="1638"
    descent="-410"
    x-height="1022"
    cap-height="1434"
    bbox="-938 -831 2677 2152"
    underline-thickness="102"
    underline-position="-347"
    unicode-range="U+000D-FEFC"
  />
<missing-glyph horiz-adv-x="972" 
d="M799 1434v-1946h-619v1946h619zM647 1303h-319v-64h125v-72h-127v-63h321v63h-127v72h127v64zM520 1053h-194v-203h321v65h-127v138zM453 987v-72h-64v72h64zM647 797h-321v-64h127v-71h-127v-64h194v135h127v64zM647 680h-63v-127h-258v-68h321v195zM647 442h-194v-108
h67v45h64v-92h-195v155h-63v-219h321v219zM647 106h-321v-219h321v219zM584 43v-92h-195v92h195zM647 -158h-321v-63h135l-135 -92v-64h321v64h-198l137 92h61v63z" />
    <glyph glyph-name="uniFDF2" unicode="&#x627;&#xfedf;&#xfee0;&#xfeea;" horiz-adv-x="2881" arabic-form="isolated" 
d="M1540 2028v-232h-33v217zM1440 1493q-49 0 -80 30.5t-31 96.5v66h33v-66q0 -92 78 -92q71 0 71 114v107h33v-104q0 -34 23.5 -53t52.5 -19q96 0 96 119v110h33v-110q0 -76 -36 -117t-93 -41q-51 0 -80 49q-7 -41 -36.5 -65.5t-63.5 -24.5zM2646 1434h31v-1434h-31v1434z
M2206 223v1196h30v-1196q0 -94 -64.5 -158.5t-156.5 -64.5h-243q-74 0 -134.5 43.5t-85.5 112.5q-27 -69 -87 -112.5t-134 -43.5h-141q-114 0 -201.5 73t-111.5 183q-42 -114 -142 -185t-223 -71q-161 0 -275 114t-114 275v121q0 163 114 277t275 114h387v-579
q0 -120 85.5 -205.5t205.5 -85.5h141q84 0 144.5 61.5t60.5 147.5v1179h31v-1179q0 -86 60 -147.5t145 -61.5h237q82 0 139.5 56t57.5 136zM868 389v481h-356q-149 0 -253.5 -104.5t-104.5 -255.5v-121q0 -149 104.5 -253.5t253.5 -104.5q148 0 252 104.5t104 253.5z" />
    <glyph glyph-name="uniFEF5" unicode="&#xfedf;&#xfe82;" horiz-adv-x="1169" arabic-form="isolated" 
d="M934 1419h31v-1196q0 -93 -64.5 -158t-157.5 -65h-626v31h334l-2 979h30l2 -979h256q82 0 139.5 56t57.5 136v1196zM256 1169l-23 31l105 80q6 4 14 3t13 -7q21 -26 68 -46t95 -20q32 0 85 18.5t89 39.5l23 -31q-38 -26 -97.5 -46t-99.5 -20q-95 0 -170 60q-13 6 -24 -2z
" />
    <glyph glyph-name="uniFEF6" unicode="&#xfee0;&#xfe82;" horiz-adv-x="1257" arabic-form="final" 
d="M1262 31q16 0 16 -15q0 -6 -5 -11t-11 -5h-93q-74 0 -134 43.5t-85 112.5q-27 -69 -87 -112.5t-134 -43.5h-612v31h334v979h30v-979h248q84 0 144.5 61.5t60.5 147.5v1179h31v-1179q0 -86 59.5 -147.5t144.5 -61.5h93zM252 1169l-23 31l105 80q15 11 26 -4
q21 -26 68.5 -46t95.5 -20q32 0 85 18.5t89 39.5l23 -31q-38 -26 -97.5 -46t-99.5 -20q-95 0 -170 60q-13 6 -24 -2z" />
    <glyph glyph-name="uniFEF7" unicode="&#xfedf;&#xfe84;" horiz-adv-x="1169" arabic-form="isolated" 
d="M604 1217v-27h-297v27h72q-60 49 -60 116q0 68 43.5 112t102.5 44q61 0 103 -44.5t42 -98.5h-28q0 44 -35.5 79t-81.5 35q-51 0 -83 -35t-32 -92q0 -48 33 -82t82 -34h139zM934 1419h31v-1196q0 -93 -64.5 -158t-157.5 -65h-626v31h334l-2 979h30l2 -979h256
q82 0 139.5 56t57.5 136v1196z" />
    <glyph glyph-name="uniFEF8" unicode="&#xfee0;&#xfe84;" horiz-adv-x="1257" arabic-form="final" 
d="M612 1217v-27h-297v27h72q-59 48 -59 116t43 112t102 44q61 0 103 -44.5t42 -98.5h-28q0 44 -35.5 79t-81.5 35q-51 0 -83 -35t-32 -92q0 -48 33 -82t82 -34h139zM1262 31q16 0 16 -15q0 -6 -5 -11t-11 -5h-93q-74 0 -134 43.5t-85 112.5q-27 -69 -87 -112.5t-134 -43.5
h-612q-15 0 -15 14q0 17 15 17h334v979h30v-979h248q84 0 144.5 61.5t60.5 147.5v1179h31v-1179q0 -86 59.5 -147.5t144.5 -61.5h93z" />
    <glyph glyph-name="uniFEF9" unicode="&#xfedf;&#xfe88;" horiz-adv-x="1169" arabic-form="isolated" 
d="M934 1419h31v-1196q0 -93 -64.5 -158t-157.5 -65h-626v31h334l-2 979h30l2 -979h256q82 0 139.5 56t57.5 136v1196zM455 -221q-51 0 -83 -35t-32 -92q0 -48 33 -82.5t82 -34.5h139v-27h-297v27h72q-60 49 -60 117t43.5 111.5t102.5 43.5q61 0 103 -44.5t42 -98.5h-29
q0 44 -35.5 79.5t-80.5 35.5z" />
    <glyph glyph-name="uniFEFA" unicode="&#xfee0;&#xfe88;" horiz-adv-x="1257" arabic-form="final" 
d="M1262 31q16 0 16 -15q0 -6 -5 -11t-11 -5h-93q-74 0 -134 43.5t-85 112.5q-27 -69 -87 -112.5t-134 -43.5h-612v31h334v979h30v-979h248q84 0 144.5 61.5t60.5 147.5v1179h31v-1179q0 -86 59.5 -147.5t144.5 -61.5h93zM477 -219q-51 0 -83 -35t-32 -92q0 -48 33 -82.5
t82 -34.5h139v-26h-297v26h72q-59 48 -59 117q0 68 43 112t102 44q61 0 103.5 -45t42.5 -99h-29q0 44 -35.5 79.5t-81.5 35.5z" />
    <glyph glyph-name="uniFEFB" unicode="&#xfedf;&#xfe8e;" horiz-adv-x="1169" arabic-form="isolated" 
d="M934 1419h31v-1196q0 -93 -64.5 -158t-157.5 -65h-626v31h334l-2 979h30l2 -979h256q82 0 139.5 56t57.5 136v1196z" />
    <glyph glyph-name="uniFEFC" unicode="&#xfee0;&#xfe8e;" horiz-adv-x="1257" arabic-form="final" 
d="M1262 31q16 0 16 -15q0 -6 -5 -11t-11 -5h-93q-74 0 -134 43.5t-85 112.5q-27 -69 -87 -112.5t-134 -43.5h-612v31h334v979h30v-979h248q84 0 144.5 61.5t60.5 147.5v1179h31v-1179q0 -86 59.5 -147.5t144.5 -61.5h93z" />
    <glyph glyph-name="uniFEDFFB51" unicode="&#xfedf;&#xfb51;" horiz-adv-x="1169" 
d="M934 1419h31v-1196q0 -93 -64.5 -158t-157.5 -65h-626v31h334l-2 979h30l2 -979h256q82 0 139.5 56t57.5 136v1196z" />
    <glyph glyph-name="uniFEE0FB51" unicode="&#xfee0;&#xfb51;" horiz-adv-x="1257" 
d="M1262 31q16 0 16 -15q0 -6 -5 -11t-11 -5h-93q-74 0 -134 43.5t-85 112.5q-27 -69 -87 -112.5t-134 -43.5h-612v31h334v979h30v-979h248q84 0 144.5 61.5t60.5 147.5v1179h31v-1179q0 -86 59.5 -147.5t144.5 -61.5h93z" />
    <glyph glyph-name="uni066E.init" unicode="&#x66e;" horiz-adv-x="522" 
d="M119 0h-121q-18 0 -18 12q0 8 5.5 13.5t12.5 5.5h121q86 0 147.5 60.5t61.5 146.5v647h30v-647q0 -98 -70.5 -168t-168.5 -70z" />
    <glyph glyph-name="uni066E.medi" unicode="&#x66e;" horiz-adv-x="589" 
d="M594 31q16 0 16 -15q0 -6 -5 -11t-11 -5h-92q-74 0 -134 43.5t-85 112.5q-27 -69 -87.5 -112.5t-134.5 -43.5h-67q-14 0 -14 14q0 17 14 17h67q84 0 144.5 61.5t60.5 147.5v462h31v-462q0 -86 60 -147.5t145 -61.5h92z" />
    <glyph glyph-name="uni066E.fina" unicode="&#x66e;" horiz-adv-x="1810" 
d="M1815 31q16 0 16 -15q0 -6 -5 -11t-11 -5h-93q-74 0 -134 43.5t-85 112.5q-27 -69 -87 -112.5t-134 -43.5h-825q-138 0 -236 99t-98 237v340h31v-340q0 -126 89 -215.5t214 -89.5h825q84 0 144.5 61.5t60.5 147.5v641h31v-641q0 -86 59.5 -147.5t144.5 -61.5h93z" />
    <glyph glyph-name="uni066F.fina" unicode="&#x66f;" horiz-adv-x="1312" 
d="M1333 31v-31h-172v-330q0 -35 -25 -60.5t-59 -25.5h-514q-183 0 -311.5 129t-128.5 312v249h33v-249q0 -169 119 -288.5t288 -119.5h514q23 0 37 14t14 39v330h-348q-156 0 -267.5 110.5t-111.5 268.5v145q0 155 112 266t267 111q157 0 269 -111t112 -266v-493h172z
M1128 31v493q0 143 -101 243.5t-247 100.5q-145 0 -246.5 -100.5t-101.5 -243.5v-145q0 -145 101.5 -246.5t246.5 -101.5h348z" />
    <glyph glyph-name="uni06A1.init" unicode="&#x6a1;" horiz-adv-x="1116" 
d="M563 901h389v-835q0 -28 -18.5 -47t-46.5 -19h-907v31h432q-106 45 -172 142.5t-66 215.5v123q0 161 114 275t275 114zM922 66v804h-359q-149 0 -253.5 -104.5t-104.5 -253.5v-123q0 -148 104.5 -253t253.5 -105h324q13 0 24 10.5t11 24.5z" />
    <glyph glyph-name="uni06A1.medi" unicode="&#x6a1;" horiz-adv-x="1232" 
d="M952 31h287v-31h-1245v31h430q-106 45 -172 142t-66 216v121q0 162 113 276.5t274 114.5t275.5 -115t114.5 -276v-442q0 -19 -11 -37zM897 31q14 0 24.5 10t10.5 27v442q0 149 -105 253.5t-254 104.5t-253.5 -104.5t-104.5 -253.5v-121q0 -148 104.5 -253t253.5 -105h324
z" />
    <glyph glyph-name="uni06A1.fina" unicode="&#x6a1;" horiz-adv-x="2023" 
d="M2030 31v-31h-1457q-186 0 -318 133t-132 320v258h31v-258q0 -173 123 -296.5t296 -123.5h734q-126 50 -204.5 164.5t-78.5 253.5v61q0 161 114 275t275 114t275 -114t114 -275v-481h228zM1772 31v481q0 148 -105 253t-254 105q-148 0 -253 -105t-105 -253v-61
q0 -164 110.5 -284t272.5 -134z" />
    <glyph glyph-name="uni06C2.fina" unicode="&#x6c2;" horiz-adv-x="1269" 
d="M756 1051v-27h-297v27h71q-59 48 -59 116t43 112t102 44q61 0 103.5 -44.5t42.5 -98.5h-29q0 44 -35.5 79t-81.5 35q-51 0 -82.5 -35t-31.5 -92q0 -48 32.5 -82t81.5 -34h140zM750 82q-106 -82 -238 -82q-161 0 -275 114t-114 275v121q0 163 114 277t275 114h387v-579
q0 -120 85.5 -205.5t205.5 -85.5h86q6 0 10 -5.5t4 -11.5q0 -5 -4 -9.5t-10 -4.5h-86q-78 0 -149 38.5t-117.5 113t-46.5 167.5l-9 551h-356q-149 0 -253.5 -104.5t-104.5 -255.5v-121q0 -149 104.5 -253.5t253.5 -104.5q127 0 229 92z" />
    <glyph glyph-name="uni06C3.fina" unicode="&#x6c3;" horiz-adv-x="1269" 
d="M750 82q-106 -82 -238 -82q-161 0 -275 114t-114 275v121q0 163 114 277t275 114h387v-579q0 -120 85.5 -205.5t205.5 -85.5h86q6 0 10 -5.5t4 -11.5q0 -5 -4 -9.5t-10 -4.5h-86q-78 0 -149 38.5t-117.5 113t-46.5 167.5l-9 551h-356q-149 0 -253.5 -104.5t-104.5 -255.5
v-121q0 -149 104.5 -253.5t253.5 -104.5q127 0 229 92z" />
    <glyph glyph-name="uniFB51" unicode="&#x671;" horiz-adv-x="487" arabic-form="final" 
d="M508 0h-102q-92 0 -157 65t-65 158v1211h31v-1211q0 -80 57.5 -136t139.5 -56h96v-31z" />
    <glyph glyph-name="uniFB57" unicode="&#x67e;" horiz-adv-x="1810" arabic-form="final" 
d="M1815 31q16 0 16 -15q0 -6 -5 -11t-11 -5h-93q-74 0 -134 43.5t-85 112.5q-27 -69 -87 -112.5t-134 -43.5h-825q-138 0 -236 99t-98 237v340h31v-340q0 -126 89 -215.5t214 -89.5h825q84 0 144.5 61.5t60.5 147.5v641h31v-641q0 -86 59.5 -147.5t144.5 -61.5h93z
M780 -262q-18 0 -31.5 13.5t-13.5 31.5q0 20 13.5 33.5t31.5 13.5q20 0 34.5 -13.5t14.5 -33.5q0 -19 -14.5 -32t-34.5 -13zM965 -262q-18 0 -31.5 13.5t-13.5 31.5q0 20 13.5 33.5t31.5 13.5q20 0 34.5 -13.5t14.5 -33.5q0 -19 -14.5 -32t-34.5 -13zM872 -430
q-18 0 -31.5 13.5t-13.5 31.5q0 20 13.5 33.5t31.5 13.5q21 0 35.5 -13.5t14.5 -33.5q0 -19 -15 -32t-35 -13z" />
    <glyph glyph-name="uniFB58" unicode="&#x67e;" horiz-adv-x="522" arabic-form="initial" 
d="M119 0h-121q-18 0 -18 12q0 8 5.5 13.5t12.5 5.5h121q86 0 147.5 60.5t61.5 146.5v647h30v-647q0 -98 -70.5 -168t-168.5 -70zM55 -262q-18 0 -31.5 13.5t-13.5 31.5q0 20 13.5 33.5t31.5 13.5q20 0 34.5 -13.5t14.5 -33.5q0 -19 -14.5 -32t-34.5 -13zM240 -262
q-18 0 -31.5 13.5t-13.5 31.5q0 20 13.5 33.5t31.5 13.5q20 0 34.5 -13.5t14.5 -33.5q0 -19 -14.5 -32t-34.5 -13zM147 -430q-18 0 -31.5 13.5t-13.5 31.5q0 20 13.5 33.5t31.5 13.5q21 0 35.5 -13.5t14.5 -33.5q0 -19 -15 -32t-35 -13z" />
    <glyph glyph-name="uniFB59" unicode="&#x67e;" horiz-adv-x="589" arabic-form="medial" 
d="M594 31q16 0 16 -15q0 -6 -5 -11t-11 -5h-92q-74 0 -134 43.5t-85 112.5q-27 -69 -87.5 -112.5t-134.5 -43.5h-67q-14 0 -14 14q0 17 14 17h67q84 0 144.5 61.5t60.5 147.5v462h31v-462q0 -86 60 -147.5t145 -61.5h92zM182 -262q-18 0 -31.5 13.5t-13.5 31.5
q0 20 13.5 33.5t31.5 13.5q20 0 34.5 -13.5t14.5 -33.5q0 -19 -14.5 -32t-34.5 -13zM367 -262q-18 0 -31.5 13.5t-13.5 31.5q0 20 13.5 33.5t31.5 13.5q20 0 34.5 -13.5t14.5 -33.5q0 -19 -14.5 -32t-34.5 -13zM274 -430q-18 0 -31.5 13.5t-13.5 31.5q0 20 13.5 33.5
t31.5 13.5q21 0 35.5 -13.5t14.5 -33.5q0 -19 -15 -32t-35 -13z" />
    <glyph glyph-name="uniFB67" unicode="&#x679;" horiz-adv-x="1810" arabic-form="final" 
d="M635 1114v31h49v299h31v-176q65 80 125 80q53 0 77.5 -29t24.5 -90v-115h-307zM717 1235v-90h194v94q0 78 -71 78q-23 0 -57 -22.5t-66 -59.5zM1815 31q16 0 16 -15q0 -6 -5 -11t-11 -5h-93q-74 0 -134 43.5t-85 112.5q-27 -69 -87 -112.5t-134 -43.5h-825
q-138 0 -236 99t-98 237v340h31v-340q0 -126 89 -215.5t214 -89.5h825q84 0 144.5 61.5t60.5 147.5v641h31v-641q0 -86 59.5 -147.5t144.5 -61.5h93z" />
    <glyph glyph-name="uniFB68" unicode="&#x679;" horiz-adv-x="522" arabic-form="initial" 
d="M379 1348q53 0 77.5 -29t24.5 -90v-115h-307v31h49v299h31v-176q65 80 125 80zM451 1145v94q0 78 -72 78q-23 0 -57 -22.5t-66 -59.5v-90h195zM328 238v647h30v-647q0 -98 -70.5 -168t-168.5 -70h-121q-18 0 -18 12q0 8 5.5 13.5t12.5 5.5h121q86 0 147.5 60.5
t61.5 146.5z" />
    <glyph glyph-name="uniFB69" unicode="&#x679;" horiz-adv-x="589" arabic-form="medial" 
d="M141 1114v31h49v299h31v-176q65 80 125 80q53 0 78 -29t25 -90v-115h-308zM223 1235v-90h195v94q0 78 -72 78q-23 0 -57 -22.5t-66 -59.5zM594 31q16 0 16 -15q0 -6 -5 -11t-11 -5h-92q-74 0 -134 43.5t-85 112.5q-27 -69 -87.5 -112.5t-134.5 -43.5h-67q-14 0 -14 14
q0 17 14 17h67q84 0 144.5 61.5t60.5 147.5v462h31v-462q0 -86 60 -147.5t145 -61.5h92z" />
    <glyph glyph-name="uniFB6B" unicode="&#x6a4;" horiz-adv-x="2023" arabic-form="final" 
d="M1448 1296q20 0 34.5 -13t14.5 -32q0 -20 -14.5 -33.5t-34.5 -13.5q-18 0 -31.5 13.5t-13.5 33.5q0 18 13.5 31.5t31.5 13.5zM1356 1128q20 0 34.5 -13t14.5 -32q0 -20 -14.5 -33.5t-34.5 -13.5q-18 0 -31.5 13.5t-13.5 33.5q0 18 13.5 31.5t31.5 13.5zM1540 1128
q20 0 34.5 -13t14.5 -32q0 -20 -14.5 -33.5t-34.5 -13.5q-18 0 -31.5 13.5t-13.5 33.5q0 18 13.5 31.5t31.5 13.5zM2030 31v-31h-1457q-186 0 -318 133t-132 320v258h31v-258q0 -173 123 -296.5t296 -123.5h734q-126 50 -204.5 164.5t-78.5 253.5v61q0 161 114 275t275 114
t275 -114t114 -275v-481h228zM1772 31v481q0 148 -105 253t-254 105q-148 0 -253 -105t-105 -253v-61q0 -164 110.5 -284t272.5 -134z" />
    <glyph glyph-name="uniFB6C" unicode="&#x6a4;" horiz-adv-x="1116" arabic-form="initial" 
d="M657 1296q20 0 35 -13t15 -32q0 -20 -14.5 -33.5t-35.5 -13.5q-18 0 -31.5 13.5t-13.5 33.5q0 18 13.5 31.5t31.5 13.5zM565 1128q20 0 34.5 -13t14.5 -32q0 -20 -14.5 -33.5t-34.5 -13.5q-18 0 -31.5 13.5t-13.5 33.5q0 18 13.5 31.5t31.5 13.5zM750 1128q20 0 34.5 -13
t14.5 -32q0 -20 -14.5 -33.5t-34.5 -13.5q-18 0 -31.5 13.5t-13.5 33.5q0 18 13.5 31.5t31.5 13.5zM563 901h389v-835q0 -28 -18.5 -47t-46.5 -19h-907v31h432q-106 45 -172 142.5t-66 215.5v123q0 161 114 275t275 114zM922 66v804h-359q-149 0 -253.5 -104.5
t-104.5 -253.5v-123q0 -148 104.5 -253t253.5 -105h324q13 0 24 10.5t11 24.5z" />
    <glyph glyph-name="uniFB6D" unicode="&#x6a4;" horiz-adv-x="1232" arabic-form="medial" 
d="M600 1296q20 0 34.5 -13t14.5 -32q0 -20 -14.5 -33.5t-34.5 -13.5q-18 0 -31.5 13.5t-13.5 33.5q0 18 13.5 31.5t31.5 13.5zM508 1128q20 0 34.5 -13t14.5 -32q0 -20 -14.5 -33.5t-34.5 -13.5q-18 0 -31.5 13.5t-13.5 33.5q0 18 13.5 31.5t31.5 13.5zM692 1128
q20 0 34.5 -13t14.5 -32q0 -20 -14.5 -33.5t-34.5 -13.5q-18 0 -31.5 13.5t-13.5 33.5q0 18 13.5 31.5t31.5 13.5zM952 31h287v-31h-1245v31h430q-106 45 -172 142t-66 216v121q0 162 113 276.5t274 114.5t275.5 -115t114.5 -276v-442q0 -19 -11 -37zM897 31q14 0 24.5 10
t10.5 27v442q0 149 -105 253.5t-254 104.5t-253.5 -104.5t-104.5 -253.5v-121q0 -148 104.5 -253t253.5 -105h324z" />
    <glyph glyph-name="uniFB7B" unicode="&#x686;" horiz-adv-x="1542" arabic-form="final" 
d="M430 0q-116 0 -196 -80t-80 -196t80.5 -196.5t195.5 -80.5h440v-31h-440q-127 0 -217 90t-90 218t89.5 217.5t217.5 89.5h817q-50 30 -80 83t-30 117v150q0 258 -158 383q-59 46 -140.5 71.5t-150.5 31t-145 0.5t-111 -10.5t-61 -11.5l-4 -1l-7 28q20 5 51 11t112 13
t155 2.5t164 -32t155 -78.5q170 -132 170 -407v-150q0 -83 55.5 -141.5t133.5 -58.5h207v-31h-1133zM430 -283q-18 0 -31.5 13.5t-13.5 31.5q0 20 13.5 34t31.5 14q20 0 34.5 -14t14.5 -34q0 -19 -14.5 -32t-34.5 -13zM614 -283q-18 0 -31.5 13.5t-13.5 31.5q0 20 13.5 34
t31.5 14q20 0 35 -14t15 -34q0 -19 -15 -32t-35 -13zM522 -451q-18 0 -31.5 13.5t-13.5 31.5q0 20 13.5 34t31.5 14q20 0 34.5 -14t14.5 -34q0 -19 -14.5 -32t-34.5 -13z" />
    <glyph glyph-name="uniFB7C" unicode="&#x686;" horiz-adv-x="1366" arabic-form="initial" 
d="M1186 0h-1190q-16 0 -16 16q0 15 16 15h1069q-52 31 -82.5 86.5t-30.5 120.5v129q0 266 -164 393q-64 50 -152 76.5t-165.5 30.5t-152.5 -2t-112 -13t-46 -10l-6 30q20 5 52 11t114.5 13t158.5 2t168.5 -33t159.5 -81q176 -132 176 -417v-129q0 -86 55.5 -146.5
t135.5 -60.5h12v-31zM399 -262q-18 0 -31.5 13.5t-13.5 31.5q0 20 13.5 33.5t31.5 13.5q21 0 35.5 -13.5t14.5 -33.5q0 -19 -15 -32t-35 -13zM584 -262q-18 0 -31.5 13.5t-13.5 31.5q0 20 13.5 33.5t31.5 13.5q20 0 34.5 -13.5t14.5 -33.5q0 -19 -14.5 -32t-34.5 -13z
M492 -430q-18 0 -32 13.5t-14 31.5q0 20 14 33.5t32 13.5q20 0 34.5 -13.5t14.5 -33.5q0 -19 -14.5 -32t-34.5 -13z" />
    <glyph glyph-name="uniFB7D" unicode="&#x686;" horiz-adv-x="1298" arabic-form="medial" 
d="M1319 0h-1323q-16 0 -16 16q0 15 16 15h1028q-52 31 -82.5 86.5t-30.5 120.5v129q0 267 -163 393q-64 50 -152 76.5t-165.5 30.5t-153 -2t-113 -13t-45.5 -10l-6 30q20 5 52 11t114.5 13t158.5 2t168.5 -33t159.5 -81q176 -132 176 -417v-129q0 -86 55.5 -146.5
t135.5 -60.5h186v-31zM522 -262q-18 0 -31.5 13.5t-13.5 31.5q0 20 13.5 33.5t31.5 13.5q20 0 34.5 -13.5t14.5 -33.5q0 -19 -14.5 -32t-34.5 -13zM707 -262q-18 0 -31.5 13.5t-13.5 31.5q0 20 13.5 33.5t31.5 13.5q20 0 34.5 -13.5t14.5 -33.5q0 -19 -14.5 -32t-34.5 -13z
M614 -430q-18 0 -31.5 13.5t-13.5 31.5q0 20 13.5 33.5t31.5 13.5q21 0 35.5 -13.5t14.5 -33.5q0 -19 -15 -32t-35 -13z" />
    <glyph glyph-name="uniFB89" unicode="&#x688;" horiz-adv-x="1214" arabic-form="final" 
d="M465 1114v31h49v299h31v-176q65 80 125 80q53 0 77.5 -29t24.5 -90v-115h-307zM547 1235v-90h194v94q0 78 -71 78q-23 0 -57 -22.5t-66 -59.5zM1219 31q16 0 16 -17q0 -14 -16 -14h-33q-111 0 -202.5 57.5t-139.5 155.5q-9 -60 -49 -113q-80 -100 -209 -100h-447v31h447
q109 0 182 86q62 81 47 182l-143 600l28 6l150 -610q26 -117 120 -190.5t216 -73.5h33z" />
    <glyph glyph-name="uniFB8B" unicode="&#x698;" horiz-adv-x="729" arabic-form="final" 
d="M360 1284q20 0 35 -13t15 -32q0 -20 -14.5 -33.5t-35.5 -13.5q-18 0 -31.5 13.5t-13.5 33.5q0 18 13.5 31.5t31.5 13.5zM268 1116q20 0 34.5 -13t14.5 -32q0 -20 -14.5 -33.5t-34.5 -13.5q-18 0 -31.5 13.5t-13.5 33.5q0 18 13.5 31.5t31.5 13.5zM453 1116q20 0 34.5 -13
t14.5 -32q0 -20 -14.5 -33.5t-34.5 -13.5q-18 0 -31.5 13.5t-13.5 33.5q0 18 13.5 31.5t31.5 13.5zM735 31q15 0 15 -17q0 -14 -15 -14h-86q-92 0 -169.5 48t-108.5 124v-207q0 -91 -26 -164.5t-64 -119t-91 -79.5t-97.5 -50t-92.5 -25l-8 31q346 72 346 407v920h31v-576
q0 -117 81 -197.5t197 -80.5h88z" />
    <glyph glyph-name="uniFB8D" unicode="&#x691;" horiz-adv-x="729" arabic-form="final" 
d="M221 1114v31h49v299h31v-176q65 80 125 80q53 0 77.5 -29t24.5 -90v-115h-307zM303 1235v-90h195v94q0 78 -72 78q-23 0 -57 -22.5t-66 -59.5zM735 31q15 0 15 -17q0 -14 -15 -14h-86q-92 0 -169.5 48t-108.5 124v-207q0 -91 -26 -164.5t-64 -119t-91 -79.5t-97.5 -50
t-92.5 -25l-8 31q346 72 346 407v920h31v-576q0 -117 81 -197.5t197 -80.5h88z" />
    <glyph glyph-name="uniFB8F" unicode="&#x6a9;" horiz-adv-x="1910" arabic-form="final" 
d="M1696 31h235l-2 -31h-1513q-137 0 -235.5 97.5t-98.5 232.5v346h35v-346q0 -125 86.5 -212t212.5 -87h1247v418q0 172 -123 294.5t-295 122.5h-536l-13 49l406 578l24 -18l-407 -580h530q185 0 316 -131t131 -315v-418z" />
    <glyph glyph-name="uniFB90" unicode="&#x6a9;" horiz-adv-x="1277" arabic-form="initial" 
d="M668 895q184 0 315 -130.5t131 -315.5v-386q0 -26 -17.5 -44.5t-43.5 -18.5h-1073v31h1071q13 0 22.5 9.5t9.5 22.5v386q0 172 -122.5 294.5t-294.5 122.5h-555l-15 39l424 588l25 -18l-424 -580h547z" />
    <glyph glyph-name="uniFB91" unicode="&#x6a9;" horiz-adv-x="1329" arabic-form="medial" 
d="M1114 31h236l-2 -31h-1368v31h1101v418q0 172 -122.5 294.5t-294.5 122.5h-537l-12 49l405 578l25 -18l-408 -580h531q184 0 315 -130.5t131 -315.5v-418z" />
    <glyph glyph-name="uniFB93" unicode="&#x6af;" horiz-adv-x="1910" arabic-form="final" 
d="M1012 1538l-402 -563l-22 16l403 563zM1696 31h235l-2 -31h-1513q-137 0 -235.5 97.5t-98.5 232.5v346h35v-346q0 -125 86.5 -212t212.5 -87h1247v418q0 172 -123 294.5t-295 122.5h-536l-13 49l406 578l24 -18l-407 -580h530q185 0 316 -131t131 -315v-418z" />
    <glyph glyph-name="uniFB94" unicode="&#x6af;" horiz-adv-x="1277" arabic-form="initial" 
d="M-20 975l403 563l20 -16l-401 -564zM668 895q184 0 315 -130.5t131 -315.5v-449h-1134v31h1103v418q0 172 -122.5 294.5t-294.5 122.5h-555l-15 39l424 588l25 -18l-424 -580h547z" />
    <glyph glyph-name="uniFB95" unicode="&#x6af;" horiz-adv-x="1329" arabic-form="medial" 
d="M420 1507l-402 -563l-22 17l403 563zM1114 31h236l-2 -31h-1368v31h1101v418q0 172 -122.5 294.5t-294.5 122.5h-537l-12 49l405 578l25 -18l-408 -580h531q184 0 315 -130.5t131 -315.5v-418z" />
    <glyph glyph-name="uniFB9F" unicode="&#x6ba;" horiz-adv-x="1466" arabic-form="final" 
d="M1473 31q14 0 14 -17q0 -14 -14 -14h-76q-86 0 -158 48t-100 124v-491q0 -32 -25 -55t-59 -23h-500q-180 0 -306 125.5t-126 304.5v243h31v-243q0 -165 118 -283.5t283 -118.5h500q22 0 37.5 15t15.5 35v1163h31v-535q0 -117 75 -197.5t181 -80.5h78z" />
    <glyph glyph-name="uniFBA7" unicode="&#x6c1;" horiz-adv-x="1269" arabic-form="final" 
d="M750 82q-106 -82 -238 -82q-161 0 -275 114t-114 275v121q0 163 114 277t275 114h387v-579q0 -120 85.5 -205.5t205.5 -85.5h86q6 0 10 -5.5t4 -11.5q0 -5 -4 -9.5t-10 -4.5h-86q-78 0 -149 38.5t-117.5 113t-46.5 167.5l-9 551h-356q-149 0 -253.5 -104.5t-104.5 -255.5
v-121q0 -149 104.5 -253.5t253.5 -104.5q127 0 229 92z" />
    <glyph glyph-name="uniFBA8" unicode="&#x6c1;" horiz-adv-x="522" arabic-form="initial" 
d="M119 0h-121q-18 0 -18 12q0 8 5.5 13.5t12.5 5.5h121q86 0 147.5 60.5t61.5 146.5v647h30v-647q0 -98 -70.5 -168t-168.5 -70z" />
    <glyph glyph-name="uniFBA9" unicode="&#x6c1;" horiz-adv-x="1239" arabic-form="medial" 
d="M1004 31h256v-31h-250v-51q0 -170 -122 -292t-292 -122q-172 0 -294 122t-122 292v51h-200v29h200v415q0 168 113 293t270 133q176 9 301 -110q125 -122 125 -293q-1 -127 -64.5 -234.5t-172 -170t-236.5 -62.5h-305v-51q0 -159 113 -271t272 -112t272 112t113 271v61
q0 9 8 15t15 6zM211 444v-415h305q183 0 312.5 128.5t129.5 309.5q0 165 -114 270q-54 54 -127.5 81t-151.5 24q-146 -7 -250 -124t-104 -274z" />
    <glyph glyph-name="uniFBAB" unicode="&#x6be;" horiz-adv-x="1423" arabic-form="final" 
d="M1188 31h256v-31h-250v-51q0 -170 -122 -292t-292 -122q-113 0 -208.5 56t-151 151t-55.5 207v51h-201v29h201v415q0 168 113 293t270 133q176 9 301 -110q125 -122 125 -293q-2 -194 -140.5 -330.5t-333.5 -136.5h-305v-51q0 -159 113 -271t272 -112t272 112t113 271v61
q0 9 8 15t15 6zM395 444v-415h305q183 0 313 128.5t130 309.5q0 164 -115 270q-54 54 -127 81t-151 24q-146 -8 -250.5 -124.5t-104.5 -273.5z" />
    <glyph glyph-name="uniFBAC" unicode="&#x6be;" horiz-adv-x="1400" arabic-form="initial" 
d="M823 967q188 -66 301 -230.5t113 -371.5v-281q0 -34 -22.5 -59t-55.5 -25h-1179v31h352q-98 42 -158.5 133t-60.5 203q0 151 105.5 257.5t254.5 106.5q152 0 259.5 -106.5t107.5 -257.5v-306q0 -20 -13 -30h332q21 0 35 15.5t14 37.5v281q0 195 -109.5 353.5
t-287.5 219.5q-197 68 -369 68l4 28q190 -6 377 -67zM473 700q-138 0 -236 -97t-98 -236q0 -141 97.5 -238.5t236.5 -97.5h305q13 0 23 8.5t10 21.5v306q0 138 -100 235.5t-238 97.5z" />
    <glyph glyph-name="uniFBAD" unicode="&#x6be;" horiz-adv-x="1239" arabic-form="medial" 
d="M1004 31h256v-31h-250v-51q0 -170 -122 -292t-292 -122q-172 0 -294 122t-122 292v51h-200v29h200v415q0 168 113 293t270 133q176 9 301 -110q125 -122 125 -293q-1 -127 -64.5 -234.5t-172 -170t-236.5 -62.5h-305v-51q0 -159 113 -271t272 -112t272 112t113 271v61
q0 9 8 15t15 6zM211 444v-415h305q183 0 312.5 128.5t129.5 309.5q0 165 -114 270q-54 54 -127.5 81t-151.5 24q-146 -7 -250 -124t-104 -274z" />
    <glyph glyph-name="uniFBAF" unicode="&#x6d2;" horiz-adv-x="1179" arabic-form="final" 
d="M424 0h776v-31h-776q-110 0 -180 -86q-68 -87 -43 -196l84 -349l-31 -8l-82 351q-29 125 49 221q79 98 203 98z" />
    <glyph glyph-name="uniFBB1" unicode="&#x6d3;" horiz-adv-x="1179" arabic-form="final" 
d="M575 164v-27h-296v27h71q-59 48 -59 117q0 68 43 111.5t102 43.5q61 0 103.5 -44.5t42.5 -98.5h-29q0 44 -35.5 79.5t-81.5 35.5q-51 0 -82.5 -35t-31.5 -92q0 -48 32.5 -82.5t81.5 -34.5h139zM424 0h776v-31h-776q-110 0 -180 -86q-68 -87 -43 -196l84 -349l-31 -8
l-82 351q-29 125 49 221q79 98 203 98z" />
    <glyph glyph-name="uniFBFD" unicode="&#x6cc;" horiz-adv-x="1798" arabic-form="final" 
d="M1802 31q17 0 17 -15q0 -6 -5.5 -11t-11.5 -5q-189 0 -368 43q55 -45 85.5 -112.5t30.5 -141.5q0 -129 -91 -220t-220 -91h-659q-129 0 -239 63.5t-174.5 173t-64.5 238.5v274h33v-274q0 -184 131 -314.5t314 -130.5h659q116 0 197.5 82t81.5 199q0 95 -56.5 174
t-148.5 111l-219 86l12 30q113 -48 182 -73q256 -86 514 -86z" />
    <glyph glyph-name="uniFBFE" unicode="&#x6cc;" horiz-adv-x="620" arabic-form="initial" 
d="M217 0h-219q-18 0 -18 12q0 8 5.5 13.5t12.5 5.5h219q86 0 147.5 60.5t61.5 146.5v647h31v-647q0 -98 -71 -168t-169 -70zM209 -270q20 0 34.5 -13t14.5 -32q0 -20 -14.5 -33.5t-34.5 -13.5q-18 0 -31.5 13.5t-13.5 33.5q0 18 13.5 31.5t31.5 13.5zM408 -270
q20 0 34.5 -13t14.5 -32q0 -20 -14.5 -33.5t-34.5 -13.5q-18 0 -32 13.5t-14 33.5q0 18 14 31.5t32 13.5z" />
    <glyph glyph-name="uniFBFF" unicode="&#x6cc;" horiz-adv-x="632" arabic-form="medial" 
d="M637 31q16 0 16 -15q0 -6 -5 -11t-11 -5h-107q-74 0 -134 43.5t-85 112.5q-27 -69 -87 -112.5t-134 -43.5h-96q-14 0 -14 16q0 15 14 15h96q84 0 144.5 61.5t60.5 147.5v462h31v-462q0 -86 59.5 -147.5t144.5 -61.5h107zM197 -270q20 0 34.5 -13t14.5 -32
q0 -20 -14.5 -33.5t-34.5 -13.5q-18 0 -31.5 13.5t-13.5 33.5q0 18 13.5 31.5t31.5 13.5zM395 -270q20 0 34.5 -13t14.5 -32q0 -20 -14.5 -33.5t-34.5 -13.5q-18 0 -31.5 13.5t-13.5 33.5q0 18 13.5 31.5t31.5 13.5z" />
    <glyph glyph-name="uniFE82" unicode="&#x622;" horiz-adv-x="507" arabic-form="final" 
d="M-8 1616l-23 31l105 79q15 11 26 -4q21 -26 68.5 -45.5t95.5 -19.5q33 0 86 18t88 39l23 -31q-38 -26 -97.5 -45.5t-99.5 -19.5q-97 0 -170 59q-13 6 -24 -2zM528 0h-102q-92 0 -156.5 64.5t-64.5 158.5v1211h31v-1211q0 -80 56.5 -136t137.5 -56h98v-31z" />
    <glyph glyph-name="uniFE84" unicode="&#x623;" horiz-adv-x="501" arabic-form="final" 
d="M346 1583v-27h-297v27h72q-60 49 -60 117t43.5 111.5t102.5 43.5q61 0 103 -44.5t42 -98.5h-28q0 44 -35.5 79.5t-81.5 35.5q-51 0 -83 -35t-32 -92q0 -48 33 -82.5t82 -34.5h139zM508 0h-102q-92 0 -157 65t-65 158v1211h31v-1211q0 -80 57.5 -136t139.5 -56h96v-31z
" />
    <glyph glyph-name="uniFE86" unicode="&#x624;" horiz-adv-x="1103" arabic-form="final" 
d="M729 1098v-27h-297v27h72q-60 49 -60 116q0 68 43.5 112t102.5 44q61 0 103 -44.5t42 -98.5h-28q0 44 -35.5 79t-81.5 35q-51 0 -83 -35t-32 -92q0 -48 33 -82t82 -34h139zM1087 31v-31h-190v-68q0 -180 -119 -290q-87 -83 -211 -115.5t-295 -32.5l2 33q1 -1 34.5 -2
t89.5 3.5t117.5 16.5t129 42.5t115.5 74.5q106 100 106 270v68h-331q-181 0 -296.5 129t-115.5 317q0 127 51 230.5t146 164t215 60.5h362v-870h190zM866 31v837h-331q-168 0 -274.5 -121t-106.5 -301q0 -175 107 -295t274 -120h331z" />
    <glyph glyph-name="uniFE88" unicode="&#x625;" horiz-adv-x="501" arabic-form="final" 
d="M508 0h-102q-92 0 -157 65t-65 158v1196h31v-1196q0 -80 57.5 -136t139.5 -56h96q6 0 10 -5.5t4 -11.5q0 -14 -14 -14zM375 -436v-27h-297v27h72q-60 49 -60 117t43.5 111.5t102.5 43.5q61 0 103 -44.5t42 -98.5h-29q0 44 -35 79t-81 35q-51 0 -83 -34.5t-32 -91.5
q0 -48 33 -82.5t82 -34.5h139z" />
    <glyph glyph-name="uniFE8A" unicode="&#x626;" horiz-adv-x="1798" arabic-form="final" 
d="M248 391v-26h-297v26h72q-60 49 -60 117t43.5 112t102.5 44q60 0 102.5 -45t42.5 -99h-29q0 44 -35.5 79.5t-80.5 35.5q-51 0 -83 -35t-32 -92q0 -48 33 -82.5t82 -34.5h139zM1802 31q17 0 17 -15q0 -6 -5.5 -11t-11.5 -5q-189 0 -368 43q55 -45 85.5 -112.5t30.5 -141.5
q0 -129 -91 -220t-220 -91h-659q-129 0 -239 63.5t-174.5 173t-64.5 238.5v274h33v-274q0 -184 131 -314.5t314 -130.5h659q116 0 197.5 82t81.5 199q0 95 -56.5 174t-148.5 111l-219 86l12 30q113 -48 182 -73q256 -86 514 -86z" />
    <glyph glyph-name="uniFE8B" unicode="&#x626;" horiz-adv-x="598" arabic-form="initial" 
d="M500 1102v-27h-297v27h71q-59 48 -59 117q0 68 43 111.5t102 43.5q61 0 103.5 -44.5t42.5 -98.5h-29q0 44 -35.5 79.5t-81.5 35.5q-51 0 -82.5 -35t-31.5 -92q0 -48 32.5 -82.5t81.5 -34.5h140zM119 0h-121q-18 0 -18 12q0 8 5.5 13.5t12.5 5.5h121q86 0 146.5 60.5
t60.5 146.5v647h32v-647q0 -98 -70.5 -168t-168.5 -70z" />
    <glyph glyph-name="uniFE8C" unicode="&#x626;" horiz-adv-x="589" arabic-form="medial" 
d="M442 928v-27h-297v27h72q-59 48 -59 116t43 112t102 44q61 0 103.5 -44.5t42.5 -98.5h-29q0 44 -35.5 79t-81.5 35q-51 0 -83 -35t-32 -92q0 -48 33 -82t82 -34h139zM594 31q16 0 16 -15q0 -6 -5 -11t-11 -5h-92q-74 0 -134 43.5t-85 112.5q-27 -69 -87.5 -112.5
t-134.5 -43.5h-67q-14 0 -14 16q0 15 14 15h67q84 0 144.5 61.5t60.5 147.5v462h31v-462q0 -86 60 -147.5t145 -61.5h92z" />
    <glyph glyph-name="uniFE8E" unicode="&#x627;" horiz-adv-x="507" arabic-form="final" 
d="M528 0h-102q-92 0 -156.5 64.5t-64.5 158.5v1211h31v-1211q0 -80 56.5 -136t137.5 -56h98v-31z" />
    <glyph glyph-name="uniFE90" unicode="&#x628;" horiz-adv-x="1810" arabic-form="final" 
d="M1815 31q16 0 16 -15q0 -6 -5 -11t-11 -5h-93q-74 0 -134 43.5t-85 112.5q-27 -69 -87 -112.5t-134 -43.5h-825q-138 0 -236 99t-98 237v381h31v-381q0 -126 89 -215.5t214 -89.5h825q84 0 144.5 61.5t60.5 147.5v661h31v-661q0 -86 59.5 -147.5t144.5 -61.5h93z
M848 -270q20 0 34.5 -13t14.5 -32q0 -20 -14.5 -33.5t-34.5 -13.5q-18 0 -31.5 13.5t-13.5 33.5q0 18 13.5 31.5t31.5 13.5z" />
    <glyph glyph-name="uniFE91" unicode="&#x628;" horiz-adv-x="501" arabic-form="initial" 
d="M119 0h-121q-18 0 -18 12q0 8 5.5 13.5t12.5 5.5h121q86 0 146.5 60.5t60.5 146.5v663h32v-663q0 -98 -70.5 -168t-168.5 -70zM160 -315q0 18 13.5 31.5t31.5 13.5q20 0 34.5 -13t14.5 -32q0 -20 -14.5 -33.5t-34.5 -13.5q-18 0 -31.5 13.5t-13.5 33.5z" />
    <glyph glyph-name="uniFE92" unicode="&#x628;" horiz-adv-x="589" arabic-form="medial" 
d="M594 31q16 0 16 -15q0 -6 -5 -11t-11 -5h-92q-74 0 -134 43.5t-85 112.5q-27 -69 -87.5 -112.5t-134.5 -43.5h-67q-14 0 -14 14q0 17 14 17h67q84 0 144.5 61.5t60.5 147.5v477h31v-477q0 -86 60 -147.5t145 -61.5h92zM231 -315q0 18 13.5 31.5t31.5 13.5q20 0 35 -13
t15 -32q0 -20 -14.5 -33.5t-35.5 -13.5q-18 0 -31.5 13.5t-13.5 33.5z" />
    <glyph glyph-name="uniFE94" unicode="&#x629;" horiz-adv-x="1249" arabic-form="final" 
d="M465 1159q20 0 34.5 -13t14.5 -32q0 -20 -14.5 -33.5t-34.5 -13.5q-18 0 -31.5 13.5t-13.5 33.5q0 18 13.5 31.5t31.5 13.5zM649 1159q20 0 34.5 -13t14.5 -32q0 -20 -14.5 -33.5t-34.5 -13.5q-18 0 -31.5 13.5t-13.5 33.5q0 18 13.5 31.5t31.5 13.5zM1276 31
q6 0 10 -5.5t4 -11.5q0 -5 -4 -9.5t-10 -4.5h-86q-114 0 -201.5 73t-111.5 183q-42 -114 -142 -185t-223 -71q-161 0 -275 114t-114 275v121q0 163 114 277t275 114h387v-579q0 -120 85.5 -205.5t205.5 -85.5h86zM512 31q148 0 252 104.5t104 253.5v481h-356
q-149 0 -253.5 -104.5t-104.5 -255.5v-121q0 -149 104.5 -253.5t253.5 -104.5z" />
    <glyph glyph-name="uniFE96" unicode="&#x62a;" horiz-adv-x="1810" arabic-form="final" 
d="M709 948q20 0 34.5 -13t14.5 -32q0 -20 -14.5 -33.5t-34.5 -13.5q-18 0 -31.5 13.5t-13.5 33.5q0 18 13.5 31.5t31.5 13.5zM893 948q20 0 34.5 -13t14.5 -32q0 -20 -14.5 -33.5t-34.5 -13.5q-18 0 -31.5 13.5t-13.5 33.5q0 18 13.5 31.5t31.5 13.5zM1815 31q16 0 16 -15
q0 -6 -5 -11t-11 -5h-93q-74 0 -134 43.5t-85 112.5q-27 -69 -87 -112.5t-134 -43.5h-825q-138 0 -236 99t-98 237v381h31v-381q0 -126 89 -215.5t214 -89.5h825q84 0 144.5 61.5t60.5 147.5v661h31v-661q0 -86 59.5 -147.5t144.5 -61.5h93z" />
    <glyph glyph-name="uniFE97" unicode="&#x62a;" horiz-adv-x="612" arabic-form="initial" 
d="M215 1171q20 0 34.5 -13t14.5 -32q0 -20 -14.5 -33.5t-34.5 -13.5q-18 0 -31.5 13.5t-13.5 33.5q0 18 13.5 31.5t31.5 13.5zM399 1171q20 0 35 -13t15 -32q0 -20 -14.5 -33.5t-35.5 -13.5q-18 0 -31.5 13.5t-13.5 33.5q0 18 13.5 31.5t31.5 13.5zM119 0h-121
q-18 0 -18 12q0 8 5.5 13.5t12.5 5.5h121q86 0 146.5 60.5t60.5 146.5v663h32v-663q0 -98 -70.5 -168t-168.5 -70z" />
    <glyph glyph-name="uniFE98" unicode="&#x62a;" horiz-adv-x="589" arabic-form="medial" 
d="M186 1036q20 0 35 -13t15 -32q0 -20 -14.5 -33.5t-35.5 -13.5q-18 0 -31.5 13.5t-13.5 33.5q0 18 13.5 31.5t31.5 13.5zM371 1036q20 0 34.5 -13t14.5 -32q0 -20 -14.5 -33.5t-34.5 -13.5q-18 0 -31.5 13.5t-13.5 33.5q0 18 13.5 31.5t31.5 13.5zM594 31q16 0 16 -15
q0 -6 -5 -11t-11 -5h-92q-74 0 -134 43.5t-85 112.5q-27 -69 -87.5 -112.5t-134.5 -43.5h-67q-14 0 -14 14q0 17 14 17h67q84 0 144.5 61.5t60.5 147.5v477h31v-477q0 -86 60 -147.5t145 -61.5h92z" />
    <glyph glyph-name="uniFE9A" unicode="&#x62b;" horiz-adv-x="1789" arabic-form="final" 
d="M807 1116q20 0 34.5 -13t14.5 -32q0 -20 -14.5 -33.5t-34.5 -13.5q-18 0 -31.5 13.5t-13.5 33.5q0 18 13.5 31.5t31.5 13.5zM715 948q20 0 34.5 -13t14.5 -32q0 -20 -14.5 -33.5t-34.5 -13.5q-18 0 -31.5 13.5t-13.5 33.5q0 18 13.5 31.5t31.5 13.5zM899 948
q20 0 34.5 -13t14.5 -32q0 -20 -14.5 -33.5t-34.5 -13.5q-18 0 -31.5 13.5t-13.5 33.5q0 18 13.5 31.5t31.5 13.5zM1815 31q16 0 16 -15q0 -6 -5 -11t-11 -5h-93q-74 0 -134 43.5t-85 112.5q-27 -69 -87 -112.5t-134 -43.5h-825q-138 0 -236 99t-98 237v328h31v-328
q0 -126 89 -215.5t214 -89.5h825q84 0 144.5 61.5t60.5 147.5v647h31v-647q0 -86 59.5 -147.5t144.5 -61.5h93z" />
    <glyph glyph-name="uniFE9B" unicode="&#x62b;" horiz-adv-x="622" arabic-form="initial" 
d="M317 1325q20 0 35 -13t15 -32q0 -20 -14.5 -33.5t-35.5 -13.5q-18 0 -31.5 13.5t-13.5 33.5q0 18 13.5 31.5t31.5 13.5zM225 1157q20 0 34.5 -13t14.5 -32q0 -20 -14.5 -33.5t-34.5 -13.5q-18 0 -31.5 13.5t-13.5 33.5q0 18 13.5 31.5t31.5 13.5zM410 1157q20 0 34.5 -13
t14.5 -32q0 -20 -14.5 -33.5t-34.5 -13.5q-18 0 -31.5 13.5t-13.5 33.5q0 18 13.5 31.5t31.5 13.5zM119 0h-121q-18 0 -18 12q0 8 5.5 13.5t12.5 5.5h121q86 0 147.5 60.5t61.5 146.5v663h30v-663q0 -98 -70.5 -168t-168.5 -70z" />
    <glyph glyph-name="uniFE9C" unicode="&#x62b;" horiz-adv-x="589" arabic-form="medial" 
d="M287 1200q20 0 34.5 -13t14.5 -32q0 -20 -14.5 -33.5t-34.5 -13.5q-18 0 -31.5 13.5t-13.5 33.5q0 18 13.5 31.5t31.5 13.5zM195 1032q20 0 34.5 -13t14.5 -32q0 -20 -14.5 -33.5t-34.5 -13.5q-18 0 -31.5 13.5t-13.5 33.5q0 18 13.5 31.5t31.5 13.5zM379 1032
q20 0 34.5 -13t14.5 -32q0 -20 -14.5 -33.5t-34.5 -13.5q-18 0 -31.5 13.5t-13.5 33.5q0 18 13.5 31.5t31.5 13.5zM594 31q16 0 16 -15q0 -6 -5 -11t-11 -5h-92q-74 0 -134 43.5t-85 112.5q-27 -69 -87.5 -112.5t-134.5 -43.5h-67q-14 0 -14 14q0 17 14 17h67
q84 0 144.5 61.5t60.5 147.5v477h31v-477q0 -86 60 -147.5t145 -61.5h92z" />
    <glyph glyph-name="uniFE9E" unicode="&#x62c;" horiz-adv-x="1542" arabic-form="final" 
d="M430 0q-116 0 -196 -80t-80 -196t80.5 -196.5t195.5 -80.5h440v-31h-440q-127 0 -217 90t-90 218t89.5 217.5t217.5 89.5h817q-50 30 -80 83t-30 117v150q0 258 -158 383q-59 46 -140.5 71.5t-150.5 31t-145 0.5t-111 -10.5t-61 -11.5l-4 -1l-7 28q20 5 51 11t112 13
t155 2.5t164 -32t155 -78.5q170 -132 170 -407v-150q0 -83 55.5 -141.5t133.5 -58.5h207v-31h-1133zM496 -244q20 0 34.5 -13t14.5 -32q0 -20 -14.5 -33.5t-34.5 -13.5q-18 0 -31.5 13.5t-13.5 33.5q0 18 13.5 31.5t31.5 13.5z" />
    <glyph glyph-name="uniFE9F" unicode="&#x62c;" horiz-adv-x="1366" arabic-form="initial" 
d="M1186 0h-1190q-16 0 -16 16q0 15 16 15h1069q-52 31 -82.5 86.5t-30.5 120.5v129q0 266 -164 393q-64 50 -152 76.5t-165.5 30.5t-152.5 -2t-112 -13t-46 -10l-6 30q20 5 52 11t114.5 13t158.5 2t168.5 -33t159.5 -81q176 -132 176 -417v-129q0 -86 55.5 -146.5
t135.5 -60.5h12v-31zM481 -244q20 0 34.5 -13t14.5 -32q0 -20 -14.5 -33.5t-34.5 -13.5q-18 0 -31.5 13.5t-13.5 33.5q0 18 13.5 31.5t31.5 13.5z" />
    <glyph glyph-name="uniFEA0" unicode="&#x62c;" horiz-adv-x="1298" arabic-form="medial" 
d="M1319 0h-1323q-16 0 -16 16q0 15 16 15h1028q-52 31 -82.5 86.5t-30.5 120.5v129q0 267 -163 393q-64 50 -152 76.5t-165.5 30.5t-153 -2t-113 -13t-45.5 -10l-6 30q20 5 52 11t114.5 13t158.5 2t168.5 -33t159.5 -81q176 -132 176 -417v-129q0 -86 55.5 -146.5
t135.5 -60.5h186v-31zM645 -244q20 0 34.5 -13t14.5 -32q0 -20 -14.5 -33.5t-34.5 -13.5q-18 0 -31.5 13.5t-13.5 33.5q0 18 13.5 31.5t31.5 13.5z" />
    <glyph glyph-name="uniFEA2" unicode="&#x62d;" horiz-adv-x="1542" arabic-form="final" 
d="M430 0q-116 0 -196 -80t-80 -196t80.5 -196.5t195.5 -80.5h440v-31h-440q-127 0 -217 90t-90 218t89.5 217.5t217.5 89.5h817q-50 30 -80 83t-30 117v150q0 258 -158 383q-59 46 -140.5 71.5t-150.5 31t-145 0.5t-111 -10.5t-61 -11.5l-4 -1l-7 28q20 5 51 11t112 13
t155 2.5t164 -32t155 -78.5q170 -132 170 -407v-150q0 -83 55.5 -141.5t133.5 -58.5h207v-31h-1133z" />
    <glyph glyph-name="uniFEA3" unicode="&#x62d;" horiz-adv-x="1366" arabic-form="initial" 
d="M1186 0h-1190q-16 0 -16 16q0 15 16 15h1069q-52 31 -82.5 86.5t-30.5 120.5v129q0 266 -164 393q-64 50 -152 76.5t-165.5 30.5t-152.5 -2t-112 -13t-46 -10l-6 30q20 5 52 11t114.5 13t158.5 2t168.5 -33t159.5 -81q176 -132 176 -417v-129q0 -86 55.5 -146.5
t135.5 -60.5h12v-31z" />
    <glyph glyph-name="uniFEA4" unicode="&#x62d;" horiz-adv-x="1298" arabic-form="medial" 
d="M1319 0h-1323q-16 0 -16 16q0 15 16 15h1028q-52 31 -82.5 86.5t-30.5 120.5v129q0 267 -163 393q-64 50 -152 76.5t-165.5 30.5t-153 -2t-113 -13t-45.5 -10l-6 30q20 5 52 11t114.5 13t158.5 2t168.5 -33t159.5 -81q176 -132 176 -417v-129q0 -86 55.5 -146.5
t135.5 -60.5h186v-31z" />
    <glyph glyph-name="uniFEA6" unicode="&#x62e;" horiz-adv-x="1542" arabic-form="final" 
d="M692 1171q20 0 34.5 -13t14.5 -32q0 -20 -14.5 -33.5t-34.5 -13.5q-18 0 -31.5 13.5t-13.5 33.5q0 18 13.5 31.5t31.5 13.5zM430 0q-116 0 -196 -80t-80 -196t80.5 -196.5t195.5 -80.5h440v-31h-440q-127 0 -217 90t-90 218t89.5 217.5t217.5 89.5h817q-50 30 -80 83
t-30 117v150q0 258 -158 383q-59 46 -140.5 71.5t-150.5 31t-145 0.5t-111 -10.5t-61 -11.5l-4 -1l-7 28q20 5 51 11t112 13t155 2.5t164 -32t155 -78.5q170 -132 170 -407v-150q0 -83 55.5 -141.5t133.5 -58.5h207v-31h-1133z" />
    <glyph glyph-name="uniFEA7" unicode="&#x62e;" horiz-adv-x="1366" arabic-form="initial" 
d="M487 1126q0 18 13.5 31.5t31.5 13.5q20 0 35 -13t15 -32q0 -20 -14.5 -33.5t-35.5 -13.5q-18 0 -31.5 13.5t-13.5 33.5zM1186 0h-1190q-16 0 -16 16q0 15 16 15h1069q-52 31 -82.5 86.5t-30.5 120.5v129q0 266 -164 393q-64 50 -152 76.5t-165.5 30.5t-152.5 -2t-112 -13
t-46 -10l-6 30q20 5 52 11t114.5 13t158.5 2t168.5 -33t159.5 -81q176 -132 176 -417v-129q0 -86 55.5 -146.5t135.5 -60.5h12v-31z" />
    <glyph glyph-name="uniFEA8" unicode="&#x62e;" horiz-adv-x="1304" arabic-form="medial" 
d="M446 1126q0 18 14 31.5t32 13.5q20 0 34.5 -13t14.5 -32q0 -20 -14.5 -33.5t-34.5 -13.5q-18 0 -32 13.5t-14 33.5zM1319 0h-1323q-16 0 -16 16q0 15 16 15h1028q-52 31 -82.5 86.5t-30.5 120.5v129q0 267 -163 393q-64 50 -152 76.5t-165.5 30.5t-153 -2t-113 -13
t-45.5 -10l-6 30q20 5 52 11t114.5 13t158.5 2t168.5 -33t159.5 -81q176 -132 176 -417v-129q0 -86 55.5 -146.5t135.5 -60.5h186v-31z" />
    <glyph glyph-name="uniFEAA" unicode="&#x62f;" horiz-adv-x="1214" arabic-form="final" 
d="M1219 31q16 0 16 -17q0 -14 -16 -14h-33q-111 0 -202.5 57.5t-139.5 155.5q-9 -60 -49 -113q-80 -100 -209 -100h-447v31h447q109 0 182 86q62 81 47 182l-143 600l28 6l150 -610q26 -117 120 -190.5t216 -73.5h33z" />
    <glyph glyph-name="uniFEAC" unicode="&#x630;" horiz-adv-x="1277" arabic-form="final" 
d="M637 1079q-18 0 -31.5 13.5t-13.5 33.5q0 18 13.5 31.5t31.5 13.5q20 0 34.5 -13t14.5 -32q0 -20 -14.5 -33.5t-34.5 -13.5zM1282 31q16 0 16 -17q0 -14 -16 -14h-96q-116 0 -205.5 57t-136.5 154q-9 -58 -49 -111q-80 -100 -209 -100h-447v31h447q109 0 182 86
q62 81 47 182l-143 600l28 6l150 -610q26 -117 120 -190.5t216 -73.5h96z" />
    <glyph glyph-name="uniFEAE" unicode="&#x631;" horiz-adv-x="729" arabic-form="final" 
d="M735 31q15 0 15 -17q0 -14 -15 -14h-86q-92 0 -169.5 48t-108.5 124v-207q0 -91 -26 -164.5t-64 -119t-91 -79.5t-97.5 -50t-92.5 -25l-8 31q346 72 346 407v920h31v-576q0 -117 81 -197.5t197 -80.5h88z" />
    <glyph glyph-name="uniFEB0" unicode="&#x632;" horiz-adv-x="718" arabic-form="final" 
d="M356 1171q20 0 35 -13t15 -32q0 -20 -14.5 -33.5t-35.5 -13.5q-18 0 -31.5 13.5t-13.5 33.5q0 18 13.5 31.5t31.5 13.5zM725 31q14 0 14 -17q0 -14 -14 -14h-76q-95 0 -170.5 45.5t-107.5 126.5v-207q0 -91 -26 -164.5t-64 -119t-91 -79.5t-97.5 -50t-92.5 -25l-8 31
q346 72 346 407v920h31v-576q0 -117 81 -197.5t197 -80.5h78z" />
    <glyph glyph-name="uniFEB2" unicode="&#x633;" horiz-adv-x="2490" arabic-form="final" 
d="M2499 31q3 0 7.5 -6.5t4.5 -10.5q0 -7 -4 -10.5t-8 -3.5h-84q-79 0 -138.5 52t-70.5 128q-40 -86 -110.5 -133t-164.5 -47q-97 0 -174.5 58.5t-105.5 150.5q-31 -94 -108 -151t-179 -58q-85 0 -155 45.5t-109 122.5v-475q0 -34 -22 -57t-54 -23h-483q-173 0 -295.5 121.5
t-122.5 292.5v239h33v-239q0 -160 112 -272.5t273 -112.5h483q21 0 36 14t15 37v997h25v-393q0 -112 77.5 -189t188.5 -77q113 0 192.5 79.5t79.5 190.5v389h31v-393q0 -112 76.5 -189t185.5 -77q113 0 191 79.5t78 190.5v588h30v-672q0 -77 54.5 -131.5t130.5 -54.5h84z
" />
    <glyph glyph-name="uniFEB3" unicode="&#x633;" horiz-adv-x="1769" arabic-form="initial" 
d="M1606 887v-576q0 -129 -92.5 -220t-221.5 -91q-104 0 -185 59t-110 156q-32 -96 -114 -155.5t-181 -59.5q-92 0 -166.5 49.5t-111.5 134.5q-14 -79 -75 -131.5t-142 -52.5h-213q-14 0 -14 14q0 6 4 11.5t10 5.5h213q79 0 134.5 55.5t55.5 134.5v484h31v-400
q0 -114 80 -194t194 -80q117 0 200 81.5t83 198.5v394h27v-400q0 -114 82 -194t198 -80q118 0 200.5 81.5t82.5 198.5v576h31z" />
    <glyph glyph-name="uniFEB4" unicode="&#x633;" horiz-adv-x="1998" arabic-form="medial" 
d="M2003 31q6 0 11 -4.5t5 -10.5q0 -16 -16 -16h-174q-87 0 -153.5 56.5t-78.5 140.5q-37 -89 -119 -143t-184 -54q-107 0 -192.5 63t-114.5 162q-33 -100 -117 -162.5t-190 -62.5q-32 0 -68.5 8.5t-79.5 28t-82.5 60t-64.5 96.5q-15 -83 -79.5 -138t-149.5 -55h-160
q-16 0 -16 16q0 6 5 10.5t11 4.5h160q85 0 143.5 58.5t58.5 143.5v469h31v-380q0 -120 85 -205.5t206 -85.5t207 87t86 210v374h28v-380q0 -120 86 -205.5t207 -85.5q124 0 211.5 87t87.5 210v561h31l2 -656q0 -85 59 -143.5t144 -58.5h174z" />
    <glyph glyph-name="uniFEB6" unicode="&#x634;" horiz-adv-x="2490" arabic-form="final" 
d="M1636 1141q20 0 35 -13t15 -32q0 -20 -14.5 -33.5t-35.5 -13.5q-18 0 -31.5 13.5t-13.5 33.5q0 18 13.5 31.5t31.5 13.5zM1522 948q20 0 34.5 -13t14.5 -32q0 -20 -14.5 -33.5t-34.5 -13.5q-18 0 -31.5 13.5t-13.5 33.5q0 18 13.5 31.5t31.5 13.5zM1755 948
q20 0 34.5 -13t14.5 -32q0 -20 -14.5 -33.5t-34.5 -13.5q-18 0 -31.5 13.5t-13.5 33.5q0 18 13.5 31.5t31.5 13.5zM2499 31q3 0 7.5 -6.5t4.5 -10.5q0 -7 -4 -10.5t-8 -3.5h-84q-79 0 -138.5 52t-70.5 128q-40 -86 -110.5 -133t-164.5 -47q-97 0 -174.5 58.5t-105.5 150.5
q-31 -94 -108 -151t-179 -58q-85 0 -155 45.5t-109 122.5v-475q0 -34 -22 -57t-54 -23h-483q-173 0 -295.5 121.5t-122.5 292.5v239h33v-239q0 -160 112 -272.5t273 -112.5h483q21 0 36 14t15 37v1012h25v-408q0 -112 77.5 -189t188.5 -77q113 0 192.5 79.5t79.5 190.5v404
h31v-408q0 -112 76.5 -189t185.5 -77q113 0 191 79.5t78 190.5v588h30v-672q0 -77 54.5 -131.5t130.5 -54.5h84z" />
    <glyph glyph-name="uniFEB7" unicode="&#x634;" horiz-adv-x="1769" arabic-form="initial" 
d="M973 1141q20 0 34.5 -13t14.5 -32q0 -20 -14.5 -33.5t-34.5 -13.5q-18 0 -31.5 13.5t-13.5 33.5q0 18 13.5 31.5t31.5 13.5zM858 948q20 0 34.5 -13t14.5 -32q0 -20 -14.5 -33.5t-34.5 -13.5q-18 0 -31.5 13.5t-13.5 33.5q0 18 13.5 31.5t31.5 13.5zM1092 948
q20 0 34.5 -13t14.5 -32q0 -20 -14.5 -33.5t-34.5 -13.5q-18 0 -31.5 13.5t-13.5 33.5q0 18 13.5 31.5t31.5 13.5zM1606 887v-576q0 -129 -92.5 -220t-221.5 -91q-104 0 -185 59t-110 156q-32 -96 -114 -155.5t-181 -59.5q-92 0 -166.5 49.5t-111.5 134.5
q-14 -79 -75 -131.5t-142 -52.5h-213q-14 0 -14 14q0 6 4 11.5t10 5.5h213q79 0 134.5 55.5t55.5 134.5v484h31v-400q0 -114 80 -194t194 -80q117 0 200 81.5t83 198.5v394h27v-400q0 -114 82 -194t198 -80q118 0 200.5 81.5t82.5 198.5v576h31z" />
    <glyph glyph-name="uniFEB8" unicode="&#x634;" horiz-adv-x="1998" arabic-form="medial" 
d="M985 1141q20 0 34.5 -13t14.5 -32q0 -20 -14.5 -33.5t-34.5 -13.5q-18 0 -31.5 13.5t-13.5 33.5q0 18 13.5 31.5t31.5 13.5zM870 948q20 0 35 -13t15 -32q0 -20 -14.5 -33.5t-35.5 -13.5q-18 0 -31.5 13.5t-13.5 33.5q0 18 13.5 31.5t31.5 13.5zM1104 948q20 0 34.5 -13
t14.5 -32q0 -20 -14.5 -33.5t-34.5 -13.5q-18 0 -31.5 13.5t-13.5 33.5q0 18 13.5 31.5t31.5 13.5zM2003 31q6 0 11 -4.5t5 -10.5q0 -16 -16 -16h-174q-87 0 -153.5 56.5t-78.5 140.5q-37 -89 -119 -143t-184 -54q-107 0 -192.5 63t-114.5 162q-33 -100 -117 -162.5
t-190 -62.5q-32 0 -68.5 8.5t-79.5 28t-82.5 60t-64.5 96.5q-15 -83 -79.5 -138t-149.5 -55h-160q-16 0 -16 16q0 6 5 10.5t11 4.5h160q85 0 143.5 58.5t58.5 143.5v469h31v-380q0 -120 85 -205.5t206 -85.5t207 87t86 210v374h28v-380q0 -120 86 -205.5t207 -85.5
q124 0 211.5 87t87.5 210v561h31l2 -656q0 -85 59 -143.5t144 -58.5h174z" />
    <glyph glyph-name="uniFEBA" unicode="&#x635;" horiz-adv-x="2637" arabic-form="final" 
d="M2345 31h313v-31h-1507v-328q0 -32 -24 -56t-58 -24h-510q-118 0 -218.5 58t-159 158t-58.5 217v251h29v-251q0 -166 120 -285t287 -119h510q22 0 37.5 15.5t15.5 35.5v1215h29v-215l641 194q147 44 288.5 -7t215.5 -173q57 -99 57 -219v-401q0 -15 -8 -35zM2290 31
q14 0 23 10t9 25v401q0 119 -55 205q-64 114 -195 159.5t-270 8.5l-651 -201v-608h1139z" />
    <glyph glyph-name="uniFEBB" unicode="&#x635;" horiz-adv-x="1693" arabic-form="initial" 
d="M1473 686q57 -99 57 -219v-401q0 -30 -19 -48t-45 -18h-1486v31h319v856h29v-215l641 194q147 44 288.5 -7t215.5 -173zM1499 66v401q0 119 -55 205q-64 114 -195 159.5t-270 8.5l-651 -201v-608h1138q14 0 23.5 10t9.5 25z" />
    <glyph glyph-name="uniFEBC" unicode="&#x635;" horiz-adv-x="1814" arabic-form="medial" 
d="M1522 31h313v-31h-1855v31h319v856h29v-215l641 194q147 44 288.5 -7t215.5 -173q57 -99 57 -219v-401q0 -15 -8 -35zM1466 31q14 0 23.5 10t9.5 25v401q0 119 -55 205q-64 114 -195 159.5t-270 8.5l-651 -201v-608h1138z" />
    <glyph glyph-name="uniFEBE" unicode="&#x636;" horiz-adv-x="2637" arabic-form="final" 
d="M1739 1079q-18 0 -31.5 13.5t-13.5 33.5q0 18 13.5 31.5t31.5 13.5q20 0 34.5 -13t14.5 -32q0 -20 -14.5 -33.5t-34.5 -13.5zM2345 31h313v-31h-1507v-328q0 -32 -24 -56t-58 -24h-510q-118 0 -218.5 58t-159 158t-58.5 217v251h29v-251q0 -166 120 -285t287 -119h510
q22 0 37.5 15.5t15.5 35.5v1215h29v-215l641 194q147 44 288.5 -7t215.5 -173q57 -99 57 -219v-401q0 -15 -8 -35zM2290 31q14 0 23 10t9 25v401q0 119 -55 205q-64 114 -195 159.5t-270 8.5l-651 -201v-608h1139z" />
    <glyph glyph-name="uniFEBF" unicode="&#x636;" horiz-adv-x="1693" arabic-form="initial" 
d="M819 1171q20 0 34.5 -13t14.5 -32q0 -20 -14.5 -33.5t-34.5 -13.5q-18 0 -31.5 13.5t-13.5 33.5q0 18 13.5 31.5t31.5 13.5zM1473 686q57 -99 57 -219v-401q0 -30 -19 -48t-45 -18h-1486v31h319v856h29v-215l641 194q147 44 288.5 -7t215.5 -173zM1499 66v401
q0 119 -55 205q-64 114 -195 159.5t-270 8.5l-651 -201v-608h1138q14 0 23.5 10t9.5 25z" />
    <glyph glyph-name="uniFEC0" unicode="&#x636;" horiz-adv-x="1814" arabic-form="medial" 
d="M979 1079q-18 0 -31.5 13.5t-13.5 33.5q0 18 13.5 31.5t31.5 13.5q20 0 34.5 -13t14.5 -32q0 -20 -14.5 -33.5t-34.5 -13.5zM1522 31h313v-31h-1855v31h319v856h29v-215l641 194q147 44 288.5 -7t215.5 -173q57 -99 57 -219v-401q0 -15 -8 -35zM1466 31q14 0 23.5 10
t9.5 25v401q0 119 -55 205q-64 114 -195 159.5t-270 8.5l-651 -201v-608h1138z" />
    <glyph glyph-name="uniFEC2" unicode="&#x637;" horiz-adv-x="1957" arabic-form="final" 
d="M1665 31h313v-31h-1841v31h305v1388h31v-733l639 195q147 44 288.5 -7.5t215.5 -173.5q57 -99 57 -219v-415q0 -15 -8 -35zM1610 31q14 0 23 10t9 25v415q0 119 -55 205q-64 114 -195 159.5t-270 8.5l-649 -201v-622h1137z" />
    <glyph glyph-name="uniFEC3" unicode="&#x637;" horiz-adv-x="1693" arabic-form="initial" 
d="M1473 700q57 -99 57 -219v-415q0 -30 -19 -48t-45 -18h-1486v31h319v1388h31v-733l639 195q147 44 288.5 -7.5t215.5 -173.5zM1499 66v415q0 119 -55 205q-64 114 -195 159.5t-270 8.5l-649 -201v-622h1136q14 0 23.5 10t9.5 25z" />
    <glyph glyph-name="uniFEC4" unicode="&#x637;" horiz-adv-x="1814" arabic-form="medial" 
d="M1522 31h313v-31h-1855v31h319v1388h31v-735l639 195q147 44 288.5 -7.5t215.5 -173.5q57 -99 57 -219v-413q0 -15 -8 -35zM1466 31q14 0 23.5 10t9.5 25v413q0 119 -55 205q-64 114 -195 159.5t-270 8.5l-649 -201v-620h1136z" />
    <glyph glyph-name="uniFEC6" unicode="&#x638;" horiz-adv-x="1957" arabic-form="final" 
d="M1665 31h313v-31h-1841v31h305v1388h31v-733l639 195q147 44 288.5 -7.5t215.5 -173.5q57 -99 57 -219v-415q0 -15 -8 -35zM1159 1079q-18 0 -31.5 13.5t-13.5 33.5q0 18 13.5 31.5t31.5 13.5q20 0 34.5 -13t14.5 -32q0 -20 -14.5 -33.5t-34.5 -13.5zM1610 31q14 0 23 10
t9 25v415q0 119 -55 205q-64 114 -195 159.5t-270 8.5l-649 -201v-622h1137z" />
    <glyph glyph-name="uniFEC7" unicode="&#x638;" horiz-adv-x="1673" arabic-form="initial" 
d="M1473 700q57 -99 57 -219v-415q0 -30 -19 -48t-45 -18h-1486v31h319v1388h31v-733l639 195q147 44 288.5 -7.5t215.5 -173.5zM944 1171q20 0 34.5 -13t14.5 -32q0 -20 -14.5 -33.5t-34.5 -13.5q-18 0 -31.5 13.5t-13.5 33.5q0 18 13.5 31.5t31.5 13.5zM1499 66v415
q0 119 -55 205q-64 114 -195 159.5t-270 8.5l-649 -201v-622h1136q14 0 23.5 10t9.5 25z" />
    <glyph glyph-name="uniFEC8" unicode="&#x638;" horiz-adv-x="1814" arabic-form="medial" 
d="M1522 31h313v-31h-1855v31h319v1388h31v-735l639 195q147 44 288.5 -7.5t215.5 -173.5q57 -99 57 -219v-413q0 -15 -8 -35zM965 1079q-18 0 -31.5 13.5t-13.5 33.5q0 18 13.5 31.5t31.5 13.5q20 0 34.5 -13t14.5 -32q0 -20 -14.5 -33.5t-34.5 -13.5zM1466 31
q14 0 23.5 10t9.5 25v413q0 119 -55 205q-64 114 -195 159.5t-270 8.5l-649 -201v-620h1136z" />
    <glyph glyph-name="uniFECA" unicode="&#x639;" horiz-adv-x="1280" arabic-form="final" 
d="M1321 31v-31h-854q-128 0 -217.5 -91t-89.5 -218t89.5 -217t217.5 -90h483v-31h-483q-143 0 -243.5 98.5t-100.5 239.5q0 139 101 239.5t243 100.5h139l-268 641l37 119q111 69 255 99t259 7q126 -26 204.5 -136t65.5 -243q-7 -64 -29 -130.5t-62 -137t-109.5 -129.5
t-157.5 -90h520zM399 770l-28 -96l268 -641q100 6 182.5 42t135 87.5t90.5 117t56 124.5t23 116q12 122 -58 222t-185 126q-211 42 -484 -98z" />
    <glyph glyph-name="uniFECB" unicode="&#x639;" horiz-adv-x="1058" arabic-form="initial" 
d="M887 31v-31h-907v29h389q-100 43 -161 133.5t-61 199.5v179q0 149 107.5 254.5t255.5 105.5q151 0 256.5 -104.5t105.5 -255.5h-30q0 140 -95.5 234.5t-236.5 94.5q-136 0 -234 -96t-98 -233v-179q0 -136 98.5 -233.5t233.5 -97.5h377z" />
    <glyph glyph-name="uniFECC" unicode="&#x639;" horiz-adv-x="1110" arabic-form="medial" 
d="M-6 0v31h418l-269 641l37 119q111 69 255 99t259 7q126 -26 205 -136t66 -243q-7 -64 -29 -131t-62.5 -137t-110 -129t-157.5 -90l510 2v-31zM176 674l268 -641q100 6 182.5 42t135.5 87.5t91 117t56 124.5t23 116q12 122 -58.5 222t-185.5 126q-211 42 -483 -98z" />
    <glyph glyph-name="uniFECE" unicode="&#x63a;" horiz-adv-x="1280" arabic-form="final" 
d="M702 1079q-18 0 -31.5 13.5t-13.5 33.5q0 18 13.5 31.5t31.5 13.5q20 0 35 -13t15 -32q0 -20 -14.5 -33.5t-35.5 -13.5zM1321 31v-31h-854q-128 0 -217.5 -91t-89.5 -218t89.5 -217t217.5 -90h483v-31h-483q-143 0 -243.5 98.5t-100.5 239.5q0 139 101 239.5t243 100.5
h139l-268 641l37 119q111 69 255 99t259 7q126 -26 204.5 -136t65.5 -243q-7 -64 -29 -130.5t-62 -137t-109.5 -129.5t-157.5 -90h520zM399 770l-28 -96l268 -641q100 6 182.5 42t135 87.5t90.5 117t56 124.5t23 116q12 122 -58 222t-185 126q-211 42 -484 -98z" />
    <glyph glyph-name="uniFECF" unicode="&#x63a;" horiz-adv-x="1058" arabic-form="initial" 
d="M492 1171q20 0 34.5 -13t14.5 -32q0 -20 -14.5 -33.5t-34.5 -13.5q-18 0 -32 13.5t-14 33.5q0 18 14 31.5t32 13.5zM899 31v-31h-919v29h389q-100 43 -161 133.5t-61 199.5v179q0 149 107.5 254.5t255.5 105.5q151 0 256.5 -104.5t105.5 -255.5h-30q0 140 -95.5 234.5
t-236.5 94.5q-136 0 -234 -96t-98 -233v-179q0 -136 98.5 -233.5t233.5 -97.5h389z" />
    <glyph glyph-name="uniFED0" unicode="&#x63a;" horiz-adv-x="1128" arabic-form="medial" 
d="M567 1171q20 0 34.5 -13t14.5 -32q0 -20 -14.5 -33.5t-34.5 -13.5q-18 0 -31.5 13.5t-13.5 33.5q0 18 13.5 31.5t31.5 13.5zM-6 0v31h418l-269 641l37 119q111 69 255 99t259 7q126 -26 205 -136t66 -243q-7 -64 -29 -131t-62.5 -137t-110 -129t-157.5 -90l510 2v-31z
M176 674l268 -641q100 6 182.5 42t135.5 87.5t91 117t56 124.5t23 116q12 122 -58.5 222t-185.5 126q-211 42 -483 -98z" />
    <glyph glyph-name="uniFED2" unicode="&#x641;" horiz-adv-x="2023" arabic-form="final" 
d="M1434 1182q20 0 34.5 -13t14.5 -32q0 -20 -14.5 -33.5t-34.5 -13.5q-18 0 -31.5 13.5t-13.5 33.5q0 18 13.5 31.5t31.5 13.5zM2030 31v-31h-1457q-186 0 -318 133t-132 320v258h31v-258q0 -173 123 -296.5t296 -123.5h734q-126 50 -204.5 164.5t-78.5 253.5v61
q0 161 114 275t275 114t275 -114t114 -275v-481h228zM1772 31v481q0 148 -105 253t-254 105q-148 0 -253 -105t-105 -253v-61q0 -164 110.5 -284t272.5 -134z" />
    <glyph glyph-name="uniFED3" unicode="&#x641;" horiz-adv-x="1116" arabic-form="initial" 
d="M600 1182q20 0 34.5 -13t14.5 -32q0 -20 -14.5 -33.5t-34.5 -13.5q-18 0 -31.5 13.5t-13.5 33.5q0 18 13.5 31.5t31.5 13.5zM563 901h389v-835q0 -28 -18.5 -47t-46.5 -19h-907v31h432q-106 45 -172 142.5t-66 215.5v123q0 161 114 275t275 114zM922 66v804h-359
q-149 0 -253.5 -104.5t-104.5 -253.5v-123q0 -148 104.5 -253t253.5 -105h324q13 0 24 10.5t11 24.5z" />
    <glyph glyph-name="uniFED4" unicode="&#x641;" horiz-adv-x="1232" arabic-form="medial" 
d="M600 1090q-18 0 -31.5 13.5t-13.5 33.5q0 18 13.5 31.5t31.5 13.5q20 0 34.5 -13t14.5 -32q0 -20 -14.5 -33.5t-34.5 -13.5zM952 31h287v-31h-1245v31h430q-106 45 -172 142t-66 216v121q0 162 113 276.5t274 114.5t275.5 -115t114.5 -276v-442q0 -19 -11 -37zM897 31
q14 0 24.5 10t10.5 27v442q0 149 -105 253.5t-254 104.5t-253.5 -104.5t-104.5 -253.5v-121q0 -148 104.5 -253t253.5 -105h324z" />
    <glyph glyph-name="uniFED6" unicode="&#x642;" horiz-adv-x="1312" arabic-form="final" 
d="M700 1182q20 0 35 -13t15 -32q0 -20 -14.5 -33.5t-35.5 -13.5q-18 0 -31.5 13.5t-13.5 33.5q0 18 13.5 31.5t31.5 13.5zM893 1182q20 0 34.5 -13t14.5 -32q0 -20 -14.5 -33.5t-34.5 -13.5q-18 0 -31.5 13.5t-13.5 33.5q0 18 13.5 31.5t31.5 13.5zM1333 31v-31h-172v-330
q0 -35 -25 -60.5t-59 -25.5h-514q-183 0 -311.5 129t-128.5 312v249h33v-249q0 -169 119 -288.5t288 -119.5h514q23 0 37 14t14 39v330h-348q-156 0 -267.5 110.5t-111.5 268.5v145q0 155 112 266t267 111q157 0 269 -111t112 -266v-493h172zM1128 31v493q0 143 -101 244.5
t-247 101.5q-144 0 -246 -101.5t-102 -244.5v-145q0 -145 101.5 -246.5t246.5 -101.5h348z" />
    <glyph glyph-name="uniFED7" unicode="&#x642;" horiz-adv-x="1116" arabic-form="initial" 
d="M483 1182q20 0 34.5 -13t14.5 -32q0 -20 -14.5 -33.5t-34.5 -13.5q-18 0 -31.5 13.5t-13.5 33.5q0 18 13.5 31.5t31.5 13.5zM676 1182q20 0 34.5 -13t14.5 -32q0 -20 -14.5 -33.5t-34.5 -13.5q-18 0 -31.5 13.5t-13.5 33.5q0 18 13.5 31.5t31.5 13.5zM563 901h389v-835
q0 -28 -18.5 -47t-46.5 -19h-907v31h432q-106 45 -172 142.5t-66 215.5v123q0 161 114 275t275 114zM922 66v804h-359q-149 0 -253.5 -104.5t-104.5 -253.5v-123q0 -148 104.5 -253t253.5 -105h324q13 0 24 10.5t11 24.5z" />
    <glyph glyph-name="uniFED8" unicode="&#x642;" horiz-adv-x="1232" arabic-form="medial" 
d="M489 1090q-18 0 -31.5 13.5t-13.5 33.5q0 18 13.5 31.5t31.5 13.5q20 0 35 -13t15 -32q0 -20 -14.5 -33.5t-35.5 -13.5zM682 1090q-18 0 -31.5 13.5t-13.5 33.5q0 18 13.5 31.5t31.5 13.5q20 0 34.5 -13t14.5 -32q0 -20 -14.5 -33.5t-34.5 -13.5zM952 31h287v-31h-1245
v31h430q-106 45 -172 142t-66 216v121q0 162 113 276.5t274 114.5t275.5 -115t114.5 -276v-442q0 -19 -11 -37zM897 31q14 0 24.5 10t10.5 27v442q0 149 -105 254.5t-254 105.5t-253.5 -105.5t-104.5 -254.5v-121q0 -148 104.5 -253t253.5 -105h324z" />
    <glyph glyph-name="uniFEDA" unicode="&#x643;" horiz-adv-x="1572" arabic-form="final" 
d="M1389 31h204v-31h-1048q-175 0 -298.5 123.5t-123.5 298.5v240h27v-240q0 -162 116.5 -276.5t278.5 -114.5h778q21 0 36 13.5t15 33.5v1341h31v-1341q0 -25 -16 -47zM918 829v-26h-297v26h71q-59 48 -59 117q0 68 43 112t102 44q61 0 103.5 -45t42.5 -99h-29
q0 44 -35.5 79.5t-81.5 35.5q-51 0 -82.5 -35t-31.5 -92q0 -48 32.5 -82.5t81.5 -34.5h140z" />
    <glyph glyph-name="uniFEDB" unicode="&#x643;" horiz-adv-x="1277" arabic-form="initial" 
d="M668 895q184 0 315 -130.5t131 -315.5v-386q0 -26 -17.5 -44.5t-43.5 -18.5h-1073v31h1071q13 0 22.5 9.5t9.5 22.5v386q0 172 -122.5 294.5t-294.5 122.5h-555l-15 39l424 588l25 -18l-424 -580h547z" />
    <glyph glyph-name="uniFEDC" unicode="&#x643;" horiz-adv-x="1329" arabic-form="medial" 
d="M1114 31h236l-2 -31h-1368v31h1101v418q0 172 -122.5 294.5t-294.5 122.5h-537l-12 49l405 578l25 -18l-408 -580h531q184 0 315 -130.5t131 -315.5v-418z" />
    <glyph glyph-name="uniFEDE" unicode="&#x644;" horiz-adv-x="1474" arabic-form="final" 
d="M1481 31q14 0 14 -17q0 -14 -14 -14h-76q-86 0 -158 48t-100 124v-494q0 -34 -24 -57.5t-58 -23.5h-508q-180 0 -307 127t-127 307v250h31v-250q0 -167 118 -285.5t285 -118.5h508q22 0 36.5 14.5t14.5 36.5v1741h31v-1110q0 -117 75 -197.5t181 -80.5h78z" />
    <glyph glyph-name="uniFEDF" unicode="&#x644;" horiz-adv-x="581" arabic-form="initial" 
d="M-6 0q-14 0 -14 14q0 6 4 11.5t10 5.5h156q82 0 139 56t57 136v1196h31v-1196q0 -94 -64.5 -158.5t-156.5 -64.5h-162z" />
    <glyph glyph-name="uniFEE0" unicode="&#x644;" horiz-adv-x="589" arabic-form="medial" 
d="M594 31q16 0 16 -15q0 -6 -5 -11t-11 -5h-92q-74 0 -134 43.5t-85 112.5q-27 -69 -87.5 -112.5t-134.5 -43.5h-67q-14 0 -14 16q0 15 14 15h67q84 0 144.5 61.5t60.5 147.5v1179h31v-1179q0 -86 60 -147.5t145 -61.5h92z" />
    <glyph glyph-name="uniFEE2" unicode="&#x645;" horiz-adv-x="1327" arabic-form="final" 
d="M1370 31v-31h-92q-104 0 -177.5 71t-78.5 173q-43 -109 -141 -176.5t-219 -67.5q-123 0 -218 53.5t-139 139.5v-127q0 -86 -24 -156.5t-59.5 -115.5t-85.5 -79.5t-93.5 -52t-91.5 -29.5l-6 31q329 80 329 402v835h388q161 0 275 -114t114 -277v-252q0 -94 66 -160.5
t161 -66.5h92zM662 31q149 0 253.5 104.5t104.5 253.5v121q0 151 -104.5 255.5t-253.5 104.5h-357v-505q0 -85 30.5 -151t82 -105t113.5 -58.5t131 -19.5z" />
    <glyph glyph-name="uniFEE3" unicode="&#x645;" horiz-adv-x="1310" arabic-form="initial" 
d="M-16 31q-6 0 -10.5 -5.5t-4.5 -11.5q0 -5 4.5 -9.5t10.5 -4.5h86q114 0 201.5 73t111.5 183q43 -116 146 -187.5t229 -68.5q158 3 268.5 118t110.5 275v117q0 163 -114 277t-275 114h-388v-579q0 -120 -85 -205.5t-205 -85.5h-86zM750 31q-148 -2 -253.5 103.5
t-105.5 254.5v481h357q149 0 253.5 -104.5t104.5 -255.5v-117q0 -149 -103.5 -255t-252.5 -107z" />
    <glyph glyph-name="uniFEE4" unicode="&#x645;" horiz-adv-x="1462" arabic-form="medial" 
d="M1466 31q6 0 11.5 -5t5.5 -12q0 -5 -5.5 -9.5t-11.5 -4.5h-92q-104 0 -177.5 71t-78.5 173q-43 -109 -141 -176.5t-219 -67.5q-123 0 -223 71t-142 185q-24 -110 -111.5 -183t-201.5 -73h-86q-6 0 -10 4.5t-4 9.5q0 6 4 11.5t10 5.5h86q120 0 205.5 85.5t85.5 205.5v579
h387q161 0 275 -114t114 -277v-252q0 -94 66.5 -160.5t160.5 -66.5h92zM1116 393v117q0 151 -104.5 255.5t-253.5 104.5h-357v-481q0 -149 105.5 -254.5t253.5 -103.5q149 1 252.5 107t103.5 255z" />
    <glyph glyph-name="uniFEE6" unicode="&#x646;" horiz-adv-x="1466" arabic-form="final" 
d="M674 934q20 0 34.5 -13t14.5 -32q0 -20 -14.5 -33.5t-34.5 -13.5q-18 0 -31.5 13.5t-13.5 33.5q0 18 13.5 31.5t31.5 13.5zM1473 31q14 0 14 -17q0 -14 -14 -14h-76q-86 0 -158 48t-100 124v-491q0 -32 -25 -55t-59 -23h-500q-180 0 -306 125.5t-126 304.5v243h31v-243
q0 -165 118 -283.5t283 -118.5h500q22 0 37.5 15t15.5 35v1163h31v-535q0 -117 75 -197.5t181 -80.5h78z" />
    <glyph glyph-name="uniFEE7" unicode="&#x646;" horiz-adv-x="552" arabic-form="initial" 
d="M340 1171q20 0 34.5 -13t14.5 -32q0 -20 -14.5 -33.5t-34.5 -13.5q-18 0 -31.5 13.5t-13.5 33.5q0 18 13.5 31.5t31.5 13.5zM119 0h-121q-18 0 -18 12q0 8 5.5 13.5t12.5 5.5h121q86 0 147.5 60.5t61.5 146.5v647h30v-647q0 -98 -70.5 -168t-168.5 -70z" />
    <glyph glyph-name="uniFEE8" unicode="&#x646;" horiz-adv-x="589" arabic-form="medial" 
d="M281 1055q20 0 34.5 -13t14.5 -32q0 -20 -14.5 -33.5t-34.5 -13.5q-18 0 -31.5 13.5t-13.5 33.5q0 18 13.5 31.5t31.5 13.5zM594 31q16 0 16 -15q0 -6 -5 -11t-11 -5h-92q-74 0 -134 43.5t-85 112.5q-27 -69 -87.5 -112.5t-134.5 -43.5h-67q-14 0 -14 14q0 17 14 17h67
q84 0 144.5 61.5t60.5 147.5v462h31v-462q0 -86 60 -147.5t145 -61.5h92z" />
    <glyph glyph-name="uniFEEA" unicode="&#x647;" horiz-adv-x="1269" arabic-form="final" 
d="M1276 31q6 0 10 -5.5t4 -11.5q0 -5 -4 -9.5t-10 -4.5h-86q-114 0 -201.5 73t-111.5 183q-42 -114 -142 -185t-223 -71q-161 0 -275 114t-114 275v121q0 163 114 277t275 114h387v-579q0 -120 85.5 -205.5t205.5 -85.5h86zM512 31q148 0 252 104.5t104 253.5v481h-356
q-149 0 -253.5 -104.5t-104.5 -255.5v-121q0 -149 104.5 -253.5t253.5 -104.5z" />
    <glyph glyph-name="uniFEEB" unicode="&#x647;" horiz-adv-x="1400" arabic-form="initial" 
d="M823 967q188 -66 301 -230.5t113 -371.5v-281q0 -34 -22.5 -59t-55.5 -25h-1179v31h352q-98 42 -158.5 133t-60.5 203q0 151 105.5 257.5t254.5 106.5q152 0 259.5 -106.5t107.5 -257.5v-306q0 -20 -13 -30h332q21 0 35 15.5t14 37.5v281q0 195 -109.5 353.5
t-287.5 219.5q-197 68 -369 68l4 28q190 -6 377 -67zM473 700q-138 0 -236 -97t-98 -236q0 -141 97.5 -238.5t236.5 -97.5h305q13 0 23 8.5t10 21.5v306q0 138 -100 235.5t-238 97.5z" />
    <glyph glyph-name="uniFEEC" unicode="&#x647;" horiz-adv-x="1239" arabic-form="medial" 
d="M1004 31h256v-31h-250v-51q0 -170 -122 -292t-292 -122q-172 0 -294 122t-122 292v51h-200v29h200v415q0 168 113 293t270 133q176 9 301 -110q125 -122 125 -293q-1 -127 -64.5 -234.5t-172 -170t-236.5 -62.5h-305v-51q0 -159 113 -271t272 -112t272 112t113 271v61
q0 9 8 15t15 6zM211 444v-415h305q183 0 312.5 128.5t129.5 309.5q0 165 -114 270q-54 54 -127.5 81t-151.5 24q-146 -7 -250 -124t-104 -274z" />
    <glyph glyph-name="uniFEEE" unicode="&#x648;" horiz-adv-x="1067" arabic-form="final" 
d="M1087 31v-31h-190v-68q0 -180 -119 -290q-87 -83 -211 -115.5t-295 -32.5l2 33q1 -1 34.5 -2t89.5 3.5t117.5 16.5t129 42.5t115.5 74.5q106 100 106 270v68h-331q-181 0 -296.5 129t-115.5 317q0 127 51 230.5t146 164t215 60.5h362v-870h190zM866 31v837h-331
q-168 0 -274.5 -121t-106.5 -301q0 -175 107 -295t274 -120h331z" />
    <glyph glyph-name="uniFEF0" unicode="&#x649;" horiz-adv-x="1798" arabic-form="final" 
d="M1802 31q17 0 17 -15q0 -6 -5.5 -11t-11.5 -5q-189 0 -368 43q55 -45 85.5 -112.5t30.5 -141.5q0 -129 -91 -220t-220 -91h-659q-129 0 -239 63.5t-174.5 173t-64.5 238.5v274h33v-274q0 -184 131 -314.5t314 -130.5h659q116 0 197.5 82t81.5 199q0 95 -56.5 174
t-148.5 111l-219 86l12 30q113 -48 182 -73q256 -86 514 -86z" />
    <glyph glyph-name="uniFEF2" unicode="&#x64a;" horiz-adv-x="1798" arabic-form="final" 
d="M1802 31q17 0 17 -15q0 -6 -5.5 -11t-11.5 -5q-189 0 -368 43q55 -45 85.5 -112.5t30.5 -141.5q0 -129 -91 -220t-220 -91h-659q-129 0 -239 63.5t-174.5 173t-64.5 238.5v274h33v-274q0 -184 131 -314.5t314 -130.5h659q116 0 197.5 82t81.5 199q0 95 -56.5 174
t-148.5 111l-219 86l12 30q113 -48 182 -73q256 -86 514 -86zM764 -684q20 0 34.5 -13t14.5 -32q0 -20 -14.5 -33.5t-34.5 -13.5q-18 0 -31.5 13.5t-13.5 33.5q0 18 13.5 31.5t31.5 13.5zM963 -684q20 0 34.5 -13t14.5 -32q0 -20 -14.5 -33.5t-34.5 -13.5q-18 0 -31.5 13.5
t-13.5 33.5q0 18 13.5 31.5t31.5 13.5z" />
    <glyph glyph-name="uniFEF3" unicode="&#x64a;" horiz-adv-x="620" arabic-form="initial" 
d="M217 0h-219q-18 0 -18 12q0 8 5.5 13.5t12.5 5.5h219q86 0 147.5 60.5t61.5 146.5v647h31v-647q0 -98 -71 -168t-169 -70zM209 -270q20 0 34.5 -13t14.5 -32q0 -20 -14.5 -33.5t-34.5 -13.5q-18 0 -31.5 13.5t-13.5 33.5q0 18 13.5 31.5t31.5 13.5zM408 -270
q20 0 34.5 -13t14.5 -32q0 -20 -14.5 -33.5t-34.5 -13.5q-18 0 -32 13.5t-14 33.5q0 18 14 31.5t32 13.5z" />
    <glyph glyph-name="uniFEF4" unicode="&#x64a;" horiz-adv-x="632" arabic-form="medial" 
d="M637 31q16 0 16 -15q0 -6 -5 -11t-11 -5h-107q-74 0 -134 43.5t-85 112.5q-27 -69 -87 -112.5t-134 -43.5h-96q-14 0 -14 16q0 15 14 15h96q84 0 144.5 61.5t60.5 147.5v462h31v-462q0 -86 59.5 -147.5t144.5 -61.5h107zM197 -270q20 0 34.5 -13t14.5 -32
q0 -20 -14.5 -33.5t-34.5 -13.5q-18 0 -31.5 13.5t-13.5 33.5q0 18 13.5 31.5t31.5 13.5zM395 -270q20 0 34.5 -13t14.5 -32q0 -20 -14.5 -33.5t-34.5 -13.5q-18 0 -31.5 13.5t-13.5 33.5q0 18 13.5 31.5t31.5 13.5z" />
    <glyph glyph-name=".notdef" horiz-adv-x="972" 
d="M799 1434v-1946h-619v1946h619zM647 1303h-319v-64h125v-72h-127v-63h321v63h-127v72h127v64zM520 1053h-194v-203h321v65h-127v138zM453 987v-72h-64v72h64zM647 797h-321v-64h127v-71h-127v-64h194v135h127v64zM647 680h-63v-127h-258v-68h321v195zM647 442h-194v-108
h67v45h64v-92h-195v155h-63v-219h321v219zM647 106h-321v-219h321v219zM584 43v-92h-195v92h195zM647 -158h-321v-63h135l-135 -92v-64h321v64h-198l137 92h61v63z" />
    <glyph glyph-name=".null" 
 />
    <glyph glyph-name="nonmarkingreturn" horiz-adv-x="682" 
 />
    <glyph glyph-name="CR" unicode="&#xd;" horiz-adv-x="512" 
 />
    <glyph glyph-name="space" unicode=" " horiz-adv-x="512" 
 />
    <glyph glyph-name="exclam" unicode="!" horiz-adv-x="536" 
d="M250 1434h37l-2 -1065h-33zM268 0q-19 0 -31 12t-12 31t12 31t31 12t31 -12t12 -31t-12 -31t-31 -12z" />
    <glyph glyph-name="quotedbl" unicode="&#x22;" horiz-adv-x="622" 
d="M143 1458h37l-2 -528h-33zM442 1458h37l-2 -528h-33z" />
    <glyph glyph-name="numbersign" unicode="#" horiz-adv-x="1507" 
d="M1079 934l-86 -434h285v-33h-291l-86 -436h-37l86 436h-491l-86 -436h-37l86 436h-279v33h285l86 434h-285v33h291l86 436h37l-86 -436h492l86 436h36l-86 -436h279v-33h-285zM1042 934h-491l-86 -434h491z" />
    <glyph glyph-name="dollar" unicode="$" horiz-adv-x="1187" 
d="M1065 391q0 -162 -117.5 -257.5t-318.5 -98.5v-137h-35v137q-177 4 -296.5 83.5t-174.5 223.5l31 12q112 -275 440 -284v643l-68 16q-194 46 -280 122.5t-86 203.5q0 156 115.5 249.5t318.5 94.5v137h35v-137q156 -6 263.5 -70t154.5 -178l-31 -14q-45 108 -144 165
t-243 62v-625l88 -20q188 -44 268 -124t80 -204zM594 748v616q-189 -2 -293 -82t-104 -227q0 -126 86 -189.5t311 -117.5zM629 70q188 3 293.5 89t105.5 232q0 130 -87 195.5t-312 118.5v-635z" />
    <glyph glyph-name="percent" unicode="%" horiz-adv-x="1611" 
d="M414 811q-141 0 -231.5 90t-90.5 234t90.5 233.5t231.5 89.5t231 -89.5t90 -233.5t-90.5 -234t-230.5 -90zM1311 1434h43l-1053 -1434h-43zM414 844q128 0 207 80.5t79 210.5t-79 210t-207 80t-207.5 -80t-79.5 -210t79.5 -210.5t207.5 -80.5zM1198 -25q-140 0 -230.5 90
t-90.5 234t90.5 234t230.5 90q141 0 231.5 -90t90.5 -234t-90.5 -234t-231.5 -90zM1198 8q128 0 207.5 80.5t79.5 210.5t-79.5 210.5t-207.5 80.5t-207.5 -80.5t-79.5 -210.5t79.5 -210.5t207.5 -80.5z" />
    <glyph glyph-name="ampersand" unicode="&#x26;" horiz-adv-x="1353" 
d="M1204 0l-174 199q-156 -224 -436 -224q-190 0 -308 100t-118 263q0 125 80.5 216.5t286.5 211.5q-139 160 -184.5 236t-45.5 161q0 125 90.5 210t241.5 85t241.5 -85t90.5 -210q0 -78 -39 -141t-117 -122t-227 -146l438 -500q104 171 121 440h35q-20 -285 -131 -467
l198 -227h-43zM340 1163q0 -80 45.5 -155.5t179.5 -229.5q215 126 292 204.5t77 180.5q0 117 -84.5 189.5t-212.5 72.5t-212.5 -72.5t-84.5 -189.5zM594 8q266 0 414 217l-453 516q-199 -116 -274.5 -202t-75.5 -201q0 -150 108 -240t281 -90z" />
    <glyph glyph-name="quotesingle" unicode="'" horiz-adv-x="323" 
d="M143 1458h37l-2 -528h-33z" />
    <glyph glyph-name="parenleft" unicode="(" horiz-adv-x="604" 
d="M494 -260q-153 182 -236.5 417t-83.5 482t83.5 482t236.5 417l28 -20q-148 -175 -229.5 -408.5t-81.5 -470.5t81.5 -470.5t229.5 -408.5z" />
    <glyph glyph-name="parenright" unicode=")" horiz-adv-x="604" 
d="M430 639q0 -247 -83 -482t-236 -417l-29 20q148 175 229.5 408.5t81.5 470.5t-81.5 470.5t-229.5 408.5l29 20q153 -182 236 -417t83 -482z" />
    <glyph glyph-name="asterisk" unicode="*" horiz-adv-x="911" 
d="M477 1051l221 -293l-30 -23l-213 299l-213 -299l-29 21l219 297l-350 108l10 35l348 -117l-4 367h37l-4 -367l348 117l12 -35z" />
    <glyph glyph-name="plus" unicode="+" horiz-adv-x="1454" 
d="M1157 633h-412v-436h-34v436h-414v33h414v436h34v-436h412v-33z" />
    <glyph glyph-name="comma" unicode="," horiz-adv-x="364" 
d="M193 223h36l-96 -528h-31z" />
    <glyph glyph-name="hyphen" unicode="-" horiz-adv-x="839" 
d="M133 606h574v-33h-574v33z" />
    <glyph glyph-name="period" unicode="." horiz-adv-x="430" 
d="M215 0q-19 0 -31 12t-12 31t12 31t31 12t31 -12t12 -31t-12 -31t-31 -12z" />
    <glyph glyph-name="slash" unicode="/" horiz-adv-x="876" 
d="M799 1516h37l-758 -1709h-37z" />
    <glyph glyph-name="zero" unicode="0" horiz-adv-x="1425" 
d="M713 -25q-160 0 -282.5 92.5t-189.5 261t-67 388.5q0 333 148 537t391 204q160 0 282.5 -92t189 -260.5t66.5 -388.5t-66.5 -388.5t-189 -261t-282.5 -92.5zM713 10q224 0 361.5 194.5t137.5 512.5t-137.5 512t-361.5 194t-362 -194t-138 -512t138 -512.5t362 -194.5z
" />
    <glyph glyph-name="one" unicode="1" horiz-adv-x="849" 
d="M584 1434v-1434h-37v1393l-436 4v37h473z" />
    <glyph glyph-name="two" unicode="2" horiz-adv-x="1191" 
d="M1065 35v-35h-954v29l610 569q148 137 211 249t63 226q0 162 -105.5 256t-273.5 94q-155 0 -273.5 -85.5t-188.5 -258.5l-31 13q68 181 198.5 273.5t294.5 92.5q182 0 299 -107t117 -278q0 -120 -66.5 -237.5t-215.5 -257.5l-582 -543h897z" />
    <glyph glyph-name="three" unicode="3" horiz-adv-x="1142" 
d="M688 731q164 -32 248 -121t84 -227q0 -182 -133.5 -295t-341.5 -113q-142 0 -264.5 56t-198.5 164l27 20q73 -102 186 -153.5t250 -51.5q199 0 318.5 102t119.5 271q0 336 -502 336h-92v35h186q187 0 289.5 86.5t102.5 236.5q0 157 -107 251.5t-285 94.5q-146 0 -263 -64
t-183 -179l-29 18q73 124 197.5 192t277.5 68q196 0 312.5 -107.5t116.5 -273.5q0 -137 -83 -229.5t-233 -116.5z" />
    <glyph glyph-name="four" unicode="4" horiz-adv-x="1234" 
d="M141 395h772v654h37v-654h240v-35h-240v-360h-37v360h-819v35l815 1039l37 -25z" />
    <glyph glyph-name="five" unicode="5" horiz-adv-x="1181" 
d="M610 874q205 0 332 -117.5t127 -316.5q0 -206 -136 -335.5t-360 -129.5q-134 0 -250 52t-200 155l27 21q75 -95 184 -144t239 -49q205 0 332 115t127 315q0 188 -113 295t-309 107q-206 0 -387 -146h-30v738h808v-33h-774v-664q179 137 383 137z" />
    <glyph glyph-name="six" unicode="6" horiz-adv-x="1216" 
d="M625 950q217 0 357 -130t140 -357t-140 -357.5t-359 -130.5t-359.5 130.5t-140.5 357.5q0 63 8.5 112t36 107t51 97t80.5 128l340 527h47l-383 -584q131 100 322 100zM623 10q207 0 333.5 121t126.5 332t-126.5 331.5t-333.5 120.5t-334 -120.5t-127 -331.5t127 -332
t334 -121z" />
    <glyph glyph-name="seven" unicode="7" horiz-adv-x="1052" 
d="M991 1434v-31l-686 -1403h-41l684 1399h-887v35h930z" />
    <glyph glyph-name="eight" unicode="8" horiz-adv-x="1282" 
d="M784 737q160 -29 257.5 -131.5t97.5 -240.5q0 -175 -137 -282.5t-361 -107.5t-361 107.5t-137 282.5q0 138 97.5 240.5t257.5 131.5q-142 29 -229 125t-87 225q0 167 126.5 269t332.5 102t332.5 -102t126.5 -269q0 -129 -87 -225t-229 -125zM219 1087q0 -151 115.5 -242
t306.5 -91t306.5 91t115.5 242t-116 243.5t-306 92.5t-306 -92.5t-116 -243.5zM641 10q207 0 334 97.5t127 257.5t-127 257t-334 97t-334 -97t-127 -257t127 -257.5t334 -97.5z" />
    <glyph glyph-name="nine" unicode="9" horiz-adv-x="1216" 
d="M592 483q-217 0 -357.5 130.5t-140.5 357.5t140.5 357t359.5 130t359.5 -130t140.5 -357q0 -108 -39.5 -211t-136.5 -234l-388 -526h-47l430 584q-133 -101 -321 -101zM594 1423q-207 0 -334 -120.5t-127 -331.5t127 -332t334 -121t334 121t127 332t-127 331.5
t-334 120.5z" />
    <glyph glyph-name="colon" unicode=":" horiz-adv-x="440" 
d="M225 838q-19 0 -31 12t-12 31t12 31t31 12t31 -12t12 -31t-12 -31t-31 -12zM225 0q-19 0 -31 12t-12 31t12 31t31 12t31 -12t12 -31t-12 -31t-31 -12z" />
    <glyph glyph-name="semicolon" unicode=";" horiz-adv-x="385" 
d="M207 838q-19 0 -31 12t-12 31t12 31t31 12t31 -12t12 -31t-12 -31t-31 -12zM193 223h36l-96 -528h-31z" />
    <glyph glyph-name="less" unicode="&#x3c;" horiz-adv-x="1454" 
d="M1157 999l-827 -350l827 -350v-35l-860 365v41l860 364v-35z" />
    <glyph glyph-name="equal" unicode="=" horiz-adv-x="1454" 
d="M297 891h860v-33h-860v33zM297 440h860v-32h-860v32z" />
    <glyph glyph-name="greater" unicode="&#x3e;" horiz-adv-x="1454" 
d="M1157 670v-41l-860 -365v35l827 350l-827 350v35z" />
    <glyph glyph-name="question" unicode="?" horiz-adv-x="915" 
d="M403 516q0 100 26.5 150t123.5 129l100 84q144 120 144 272q0 128 -86.5 200t-223.5 72q-130 0 -235 -66.5t-160 -189.5l-31 17q58 131 171 202.5t255 71.5q156 0 251.5 -83t95.5 -224q0 -171 -170 -311l-101 -84q-81 -67 -102 -109t-21 -131v-147h-37v147zM422 0
q-19 0 -31 12t-12 31t12 31t31 12t31 -12t12 -31t-12 -31t-31 -12z" />
    <glyph glyph-name="at" unicode="@" horiz-adv-x="1927" 
d="M993 1307q170 0 317.5 -56t255 -157.5t169 -252t61.5 -331.5q0 -219 -83.5 -345t-213.5 -126q-88 0 -147 61.5t-66 180.5q-36 -110 -135.5 -176t-220.5 -66q-178 0 -281.5 112.5t-103.5 301.5q0 174 105.5 293.5t279.5 119.5q121 0 219 -64.5t133 -172.5v209h35v-521
q0 -119 49 -182t133 -63q115 0 187.5 116.5t72.5 321.5q0 180 -60.5 327t-165.5 241.5t-243 145t-297 50.5q-233 0 -418 -105t-288 -292t-103 -422t104.5 -418t290.5 -283t422 -100q118 0 230 24.5t190 67.5l15 -29q-80 -44 -195 -70t-240 -26q-248 0 -442.5 105t-303 295
t-108.5 434q0 183 63.5 341.5t174.5 270.5t268.5 176t339.5 64zM930 72q70 0 134 27t113.5 75t79 120.5t29.5 158.5t-29.5 158.5t-79 120.5t-113.5 75t-134 27q-153 0 -248.5 -110.5t-95.5 -270.5q0 -176 93.5 -278.5t250.5 -102.5z" />
    <glyph glyph-name="A" unicode="A" horiz-adv-x="1347" 
d="M1073 442l-799 2l-190 -444h-39l617 1434h24l617 -1434h-39zM1059 477l-385 897l-385 -897h770z" />
    <glyph glyph-name="B" unicode="B" horiz-adv-x="1421" 
d="M979 739q126 -30 207.5 -130.5t81.5 -229.5q0 -162 -109.5 -270.5t-265.5 -108.5h-639v1434h596q151 0 256.5 -104.5t105.5 -252.5q0 -113 -63 -204t-170 -134zM287 1399v-649h563q135 0 231.5 94t96.5 227q0 139 -97 233.5t-231 94.5h-563zM893 35q141 0 240.5 100
t99.5 244q0 138 -100 237t-240 99h-606v-680h606z" />
    <glyph glyph-name="C" unicode="C" horiz-adv-x="1609" 
d="M872 -25q-152 0 -283.5 56t-224.5 153.5t-146.5 235.5t-53.5 297q0 211 91 380.5t253 265t364 95.5q215 0 376 -98.5t239 -278.5l-35 -12q-73 159 -226 256.5t-354 97.5q-192 0 -345.5 -90.5t-239.5 -252t-86 -363.5q0 -152 50.5 -284t139 -224.5t213 -145.5t268.5 -53
q207 0 356 90.5t224 261.5l35 -14q-80 -180 -238.5 -276.5t-376.5 -96.5z" />
    <glyph glyph-name="D" unicode="D" horiz-adv-x="1564" 
d="M690 1434q321 0 518 -198t197 -519q0 -327 -194.5 -522t-520.5 -195h-436v1434h436zM690 35q310 0 495 185.5t185 496.5t-185 496.5t-495 185.5h-401v-1364h401z" />
    <glyph glyph-name="E" unicode="E" horiz-adv-x="1288" 
d="M1124 35v-35h-868v1434h848v-35h-813v-709h786v-33h-786v-622h833z" />
    <glyph glyph-name="F" unicode="F" horiz-adv-x="1247" 
d="M291 1399v-717h786v-35h-786v-647h-35v1434h848v-35h-813z" />
    <glyph glyph-name="G" unicode="G" horiz-adv-x="1658" 
d="M1487 696v-508q-129 -114 -274.5 -164.5t-342.5 -50.5q-312 8 -510 215.5t-198 526.5q0 211 91 380.5t253 265t364 95.5q215 0 376 -98t239 -277l-33 -14q-75 172 -225 263t-357 91q-192 0 -345.5 -90.5t-239.5 -252t-86 -363.5t85 -361.5t238 -250t348 -95.5
q179 0 319 45.5t261 149.5v456h-442v37h479z" />
    <glyph glyph-name="H" unicode="H" horiz-adv-x="1589" 
d="M1333 1434v-1434h-35v647h-1007v-647h-35v1434h35v-752h1007v752h35z" />
    <glyph glyph-name="I" unicode="I" horiz-adv-x="552" 
d="M260 1434h35v-1434h-35v1434z" />
    <glyph glyph-name="J" unicode="J" horiz-adv-x="1202" 
d="M520 -25q-186 0 -317 130.5t-131 316.5l34 18v-18q0 -169 121.5 -290.5t292.5 -121.5q170 0 291 121.5t121 290.5v1012h35v-1012q0 -122 -60 -225t-163 -162.5t-224 -59.5z" />
    <glyph glyph-name="K" unicode="K" horiz-adv-x="1261" 
d="M1210 1434l-878 -734l868 -700h-49l-848 678l-12 -10v-668h-35v1434h35v-721l868 721h51z" />
    <glyph glyph-name="L" unicode="L" horiz-adv-x="1212" 
d="M1120 35v-35h-864v1434h35v-1399h829z" />
    <glyph glyph-name="M" unicode="M" horiz-adv-x="1923" 
d="M1667 1434v-1434h-35v1354l-655 -1354h-53l-633 1356v-1354h-35v1432h37l657 -1399l688 1399h29z" />
    <glyph glyph-name="N" unicode="N" horiz-adv-x="1617" 
d="M1364 1434v-1434h-33l-1042 1368v-1368h-35v1434h31l1044 -1373v1373h35z" />
    <glyph glyph-name="O" unicode="O" horiz-adv-x="1771" 
d="M887 -25q-147 0 -281 58.5t-230.5 158t-154 237t-57.5 288.5q0 201 97 371.5t263.5 270t362.5 99.5q146 0 279.5 -59t230 -158t154 -236.5t57.5 -287.5q0 -151 -57.5 -288.5t-154 -237t-230 -158t-279.5 -58.5zM887 10q140 0 267 56t218.5 151t146 226t54.5 274
q0 191 -92 354t-250 257.5t-344 94.5q-140 0 -267.5 -56t-219.5 -150.5t-146.5 -225.5t-54.5 -274q0 -191 92 -354t250.5 -258t345.5 -95z" />
    <glyph glyph-name="P" unicode="P" horiz-adv-x="1380" 
d="M834 1434q175 0 299 -124.5t124 -299.5q0 -123 -57.5 -224t-154 -157t-211.5 -56h-543v-573h-35v1434h578zM834 608q163 0 276 116.5t113 285.5q0 161 -114 275t-275 114h-543v-791h543z" />
    <glyph glyph-name="Q" unicode="Q" horiz-adv-x="1775" 
d="M1612 717q0 -183 -81.5 -340.5t-221.5 -259.5l194 -242l-26 -20l-195 241q-183 -121 -395 -121q-146 0 -280 59t-231 158.5t-154.5 237t-57.5 287.5q0 201 97.5 372t264 270t361.5 99q196 0 363 -99t264.5 -269.5t97.5 -372.5zM887 10q202 0 373 113l-201 248l26 20
l203 -248q132 98 209.5 248.5t77.5 325.5q0 144 -54.5 275t-147 226t-219.5 151t-267 56t-267 -56t-218.5 -151t-146 -226t-54.5 -275q0 -143 54.5 -274t146 -226t218.5 -151t267 -56z" />
    <glyph glyph-name="R" unicode="R" horiz-adv-x="1402" 
d="M713 612h-424v-602h-35v1424h600q167 0 286.5 -120.5t119.5 -289.5q0 -170 -119.5 -291t-286.5 -121h-96l497 -589l-26 -23zM289 647h565q153 0 262 110.5t109 266.5q0 155 -109 265t-262 110h-565v-752z" />
    <glyph glyph-name="S" unicode="S" horiz-adv-x="1255" 
d="M653 -25q-202 0 -339.5 86.5t-198.5 247.5l30 13q130 -312 508 -312q212 0 329.5 94.5t117.5 257.5q0 124 -82.5 200t-278.5 122l-188 45q-211 51 -303 133.5t-92 220.5q0 171 124.5 273t346.5 102q184 0 310 -70t179 -200l-31 -14q-107 249 -458 249
q-207 0 -320.5 -88.5t-113.5 -251.5q0 -123 80 -196t286 -123l197 -47q206 -50 293.5 -135t87.5 -220q0 -179 -129.5 -283t-354.5 -104z" />
    <glyph glyph-name="T" unicode="T" horiz-adv-x="1263" 
d="M618 1399h-557v35h1141v-35h-549v-1399h-35v1399z" />
    <glyph glyph-name="U" unicode="U" horiz-adv-x="1574" 
d="M797 -25q-114 0 -211.5 34t-172 100t-117 171t-42.5 238v916h35v-916q0 -126 40 -224.5t110 -159.5t160.5 -92.5t197.5 -31.5t198.5 31.5t161.5 92.5t110 159.5t40 224.5v916h34v-916q0 -133 -42.5 -238t-117.5 -171t-172.5 -100t-211.5 -34z" />
    <glyph glyph-name="V" unicode="V" horiz-adv-x="1378" 
d="M1327 1434l-604 -1434h-53l-619 1434h39l606 -1399l592 1399h39z" />
    <glyph glyph-name="W" unicode="W" horiz-adv-x="2086" 
d="M1980 1434h35l-471 -1434h-55l-442 1368l-447 -1368h-47l-481 1434h32l471 -1397l457 1397h29l455 -1409z" />
    <glyph glyph-name="X" unicode="X" horiz-adv-x="1243" 
d="M1141 0l-506 698l-529 -698h-45l549 723l-518 711h43l506 -695l489 695h41l-505 -719l516 -715h-41z" />
    <glyph glyph-name="Y" unicode="Y" horiz-adv-x="1280" 
d="M1249 1434l-598 -820v-614h-35v614l-585 820h43l559 -785l571 783z" />
    <glyph glyph-name="Z" unicode="Z" horiz-adv-x="1228" 
d="M1126 35v-35h-1024v31l963 1368h-942v35h991v-31l-962 -1368h974z" />
    <glyph glyph-name="bracketleft" unicode="[" horiz-adv-x="737" 
d="M289 1483v-1688h366v-33h-401v1754h401v-33h-366z" />
    <glyph glyph-name="backslash" unicode="\" horiz-adv-x="876" 
d="M799 -193l-758 1709h37l758 -1709h-37z" />
    <glyph glyph-name="bracketright" unicode="]" horiz-adv-x="737" 
d="M483 1516v-1754h-401v33h367v1688h-367v33h401z" />
    <glyph glyph-name="asciicircum" unicode="^" horiz-adv-x="1071" 
d="M948 733l-411 615l-414 -615h-41l436 651h35l436 -651h-41z" />
    <glyph glyph-name="underscore" unicode="_" horiz-adv-x="880" 
d="M0 -160h881v-35h-881v35z" />
    <glyph glyph-name="grave" unicode="`" horiz-adv-x="1269" 
d="M643 1198l-262 318h45l258 -318h-41z" />
    <glyph glyph-name="a" unicode="a" horiz-adv-x="997" 
d="M926 0h-35v264q-37 -130 -147.5 -205t-270.5 -75q-165 0 -257.5 79.5t-92.5 217.5q0 192 201 270t567 31v116q0 157 -83.5 237.5t-238.5 80.5q-243 0 -356 -189l-29 19q60 99 158.5 151t226.5 52q171 0 264 -91.5t93 -259.5v-698zM891 543q-222 32 -384.5 13.5
t-254.5 -90t-92 -185.5q0 -125 83 -195t230 -70q191 0 304.5 112.5t113.5 307.5v107z" />
    <glyph glyph-name="b" unicode="b" horiz-adv-x="1302" 
d="M707 1053q218 0 360.5 -153t142.5 -388q0 -237 -140.5 -387t-362.5 -150q-161 0 -287 91t-180 243v-307h-35v1432h35v-713q55 152 179.5 242t287.5 90zM707 10q207 0 338 140.5t131 361.5q0 223 -131 363.5t-338 140.5q-203 0 -335 -142.5t-132 -361.5q0 -218 132 -360
t335 -142z" />
    <glyph glyph-name="c" unicode="c" horiz-adv-x="1173" 
d="M635 -25q-222 0 -362 149t-140 386q0 234 142 386.5t360 152.5q140 0 252 -65.5t178 -186.5l-31 -17q-60 110 -165 172t-234 62q-207 0 -338 -140.5t-131 -363.5q0 -220 131 -361t338 -141q129 0 235 64t166 178l31 -17q-66 -124 -179 -191t-253 -67z" />
    <glyph glyph-name="d" unicode="d" horiz-adv-x="1302" 
d="M1098 1434v-1432h-35v307q-54 -152 -180 -243t-287 -91q-223 0 -363.5 150t-140.5 387q0 235 143 388t361 153q163 0 287.5 -90t179.5 -242v713h35zM596 10q203 0 335 142t132 360q0 219 -132 361.5t-335 142.5q-207 0 -338 -140.5t-131 -363.5q0 -221 131 -361.5
t338 -140.5z" />
    <glyph glyph-name="e" unicode="e" horiz-adv-x="1198" 
d="M158 518q0 -228 128.5 -369t338.5 -141q128 0 232.5 61.5t166.5 172.5l31 -17q-66 -120 -179 -186t-251 -66q-221 0 -361.5 150.5t-140.5 386.5q0 235 142 387t360 152q209 0 329.5 -142t120.5 -389h-917zM625 1014q-198 0 -326.5 -128t-140.5 -335h882
q-5 212 -117 337.5t-298 125.5z" />
    <glyph glyph-name="f" unicode="f" horiz-adv-x="745" 
d="M317 991h-276v35h276v205q0 85 59 144t144 59h195v-35h-195q-70 0 -120 -49.5t-50 -118.5v-205h355v-35h-355v-991h-33v991z" />
    <glyph glyph-name="g" unicode="g" horiz-adv-x="1343" 
d="M1139 1030v-985q0 -207 -134.5 -349t-330.5 -142q-178 0 -301 80t-183 216l31 15q56 -127 170 -202t283 -75q179 0 304.5 133t125.5 324v277q-53 -148 -178 -237t-289 -89q-224 0 -364 147t-140 379q0 226 142.5 375.5t361.5 149.5q167 0 291 -88t176 -236v307h35z
M637 33q202 0 334.5 138t132.5 351q0 212 -133 351t-334 139q-207 0 -339 -137.5t-132 -352.5q0 -217 131.5 -353t339.5 -136z" />
    <glyph glyph-name="h" unicode="h" horiz-adv-x="1234" 
d="M623 1044q172 0 294.5 -121.5t122.5 -291.5v-631h-34v631q0 157 -112.5 268t-270.5 111t-270.5 -111t-112.5 -268v-631h-35v1434h35v-637q51 111 153.5 179t229.5 68z" />
    <glyph glyph-name="i" unicode="i" horiz-adv-x="448" 
d="M225 1321q-17 0 -28 12t-11 29q0 16 11 27.5t28 11.5t28 -11.5t11 -27.5q0 -17 -11 -29t-28 -12zM209 1022h33v-1022h-33v1022z" />
    <glyph glyph-name="j" unicode="j" horiz-adv-x="448" 
d="M223 1327q-17 0 -29 12t-12 27q0 17 12 29t29 12q18 0 29.5 -11.5t11.5 -29.5q0 -16 -11.5 -27.5t-29.5 -11.5zM-61 -377h102q69 0 116.5 48.5t47.5 117.5v1233h37v-1233q0 -83 -59.5 -142t-141.5 -59h-102v35z" />
    <glyph glyph-name="k" unicode="k" horiz-adv-x="980" 
d="M899 0l-641 524l-20 -16v-508h-33v1434h33v-881l636 471h48l-635 -477l653 -547h-41z" />
    <glyph glyph-name="l" unicode="l" horiz-adv-x="436" 
d="M197 0v1434h34v-1434h-34z" />
    <glyph glyph-name="m" unicode="m" horiz-adv-x="1882" 
d="M1309 1049q157 0 268 -110t111 -267v-670h-37v670q0 142 -100.5 242t-241.5 100q-143 0 -243.5 -100t-100.5 -242v-670h-33v670q0 142 -100.5 242t-243.5 100q-141 0 -241.5 -100t-100.5 -242v-670h-37v1022h37v-195q45 99 137 159.5t205 60.5q124 0 223.5 -74
t136.5 -189q37 114 137 188.5t224 74.5z" />
    <glyph glyph-name="n" unicode="n" horiz-adv-x="1224" 
d="M616 1049q171 0 292.5 -121.5t121.5 -290.5v-637h-37v637q0 156 -109.5 266.5t-267.5 110.5q-156 0 -265 -110.5t-109 -266.5v-637h-37v1024h37v-223q48 112 149 180t225 68z" />
    <glyph glyph-name="o" unicode="o" horiz-adv-x="1294" 
d="M647 -25q-226 0 -370 150.5t-144 386.5q0 232 146.5 384.5t367.5 152.5q224 0 369 -152.5t145 -384.5q0 -228 -147.5 -382.5t-366.5 -154.5zM647 10q209 0 345 142.5t136 359.5t-136 360.5t-345 143.5q-210 0 -343.5 -141t-133.5 -363q0 -221 133 -361.5t344 -140.5z" />
    <glyph glyph-name="p" unicode="p" horiz-adv-x="1343" 
d="M707 1051q222 0 362.5 -150t140.5 -387q0 -235 -142.5 -388t-360.5 -153q-163 0 -287.5 90t-179.5 242v-711h-35v1430h35v-307q54 152 180 243t287 91zM707 10q207 0 338 140.5t131 363.5q0 221 -131 361.5t-338 140.5q-203 0 -335 -142t-132 -360q0 -219 132 -361.5
t335 -142.5z" />
    <glyph glyph-name="q" unicode="q" horiz-adv-x="1343" 
d="M1139 1024v-1430h-35v711q-55 -152 -179.5 -242t-287.5 -90q-218 0 -361 153t-143 388q0 237 140.5 387t363.5 150q161 0 287 -91t180 -243v307h35zM637 10q203 0 335 142.5t132 361.5q0 218 -132 360t-335 142q-207 0 -338 -140.5t-131 -361.5q0 -223 131 -363.5
t338 -140.5z" />
    <glyph glyph-name="r" unicode="r" horiz-adv-x="782" 
d="M612 1040q60 0 109 -14l-10 -33q-50 13 -99 13q-154 0 -264 -109t-110 -264v-633h-33v1024h33v-227q50 109 151 176t223 67z" />
    <glyph glyph-name="s" unicode="s" horiz-adv-x="1005" 
d="M524 -25q-149 0 -260.5 56.5t-161.5 154.5l29 17q52 -92 154 -143.5t239 -51.5q159 0 244.5 68.5t85.5 181.5q0 85 -55.5 136t-188.5 83l-221 53q-128 30 -187 90.5t-59 155.5q0 128 97.5 200.5t271.5 72.5q133 0 228 -45t139 -130l-29 -16q-90 158 -338 158
q-162 0 -247 -63t-85 -179q0 -86 54 -135.5t186 -81.5l221 -53q133 -31 191.5 -91.5t58.5 -154.5q0 -129 -96 -206t-271 -77z" />
    <glyph glyph-name="t" unicode="t" horiz-adv-x="782" 
d="M360 0q-28 0 -47.5 20t-19.5 48v923h-238v35h238v309h35v-309h372v-35h-372v-923q0 -14 9.5 -23.5t22.5 -9.5h340v-35h-340z" />
    <glyph glyph-name="u" unicode="u" horiz-adv-x="1224" 
d="M1020 1024v-1024h-35v221q-48 -110 -150.5 -178t-226.5 -68q-170 0 -290.5 121t-120.5 291v637h34v-637q0 -156 110.5 -266.5t266.5 -110.5t266.5 110.5t110.5 266.5v637h35z" />
    <glyph glyph-name="v" unicode="v" horiz-adv-x="1046" 
d="M995 1024l-448 -1024h-37l-459 1024h39l438 -981l428 981h39z" />
    <glyph glyph-name="w" unicode="w" horiz-adv-x="1648" 
d="M1591 1024l-377 -1024h-36l-355 969l-354 -969h-37l-375 1024h35l359 -975l356 975h33l356 -975l358 975h37z" />
    <glyph glyph-name="x" unicode="x" horiz-adv-x="987" 
d="M887 0l-398 500l-393 -500h-43l414 526l-391 496h39l377 -471l368 471h41l-387 -500l416 -522h-43z" />
    <glyph glyph-name="y" unicode="y" horiz-adv-x="1073" 
d="M1026 1024l-543 -1251q-35 -84 -110 -133.5t-166 -49.5h-154v35h154q79 0 146.5 44t97.5 118l88 203l-463 1034h39l438 -981l436 981h37z" />
    <glyph glyph-name="z" unicode="z" horiz-adv-x="987" 
d="M872 33v-33h-761v27l708 964h-688v33h733v-27l-708 -964h716z" />
    <glyph glyph-name="braceleft" unicode="{" horiz-adv-x="714" 
d="M330 831q0 -85 -28.5 -131t-92.5 -61q64 -15 92.5 -61t28.5 -132v-430q0 -130 41 -175.5t153 -45.5h109v-33h-109q-129 0 -179 55t-50 199v430q0 96 -37.5 136.5t-128.5 40.5h-16v32h16q92 0 129 40t37 136v431q0 144 50 199t179 55h109v-33h-109q-112 0 -153 -45.5
t-41 -175.5v-431z" />
    <glyph glyph-name="bar" unicode="|" horiz-adv-x="624" 
d="M295 1567h35v-1772h-35v1772z" />
    <glyph glyph-name="braceright" unicode="}" horiz-adv-x="714" 
d="M602 655v-32h-16q-91 0 -128.5 -40.5t-37.5 -136.5v-430q0 -144 -50 -199t-180 -55h-108v33h108q112 0 153.5 45.5t41.5 175.5v430q0 86 28.5 132t92.5 61q-64 15 -92.5 61t-28.5 131v431q0 130 -41.5 175.5t-153.5 45.5h-108v33h108q130 0 180 -55t50 -199v-431
q0 -96 37 -136t129 -40h16z" />
    <glyph glyph-name="asciitilde" unicode="~" horiz-adv-x="1454" 
d="M537 692q-114 0 -240 -98v33q113 96 240 96q62 0 194 -57.5t191 -57.5q62 0 114.5 23t120.5 76v-33q-119 -96 -235 -96q-54 0 -123 28.5t-138.5 57t-123.5 28.5z" />
    <glyph glyph-name="uni00A0" unicode="&#xa0;" horiz-adv-x="512" 
 />
    <glyph glyph-name="exclamdown" unicode="&#xa1;" horiz-adv-x="536" 
d="M268 1024q19 0 31 -12t12 -31t-12 -31t-31 -12t-31 12t-12 31t12 31t31 12zM285 655l2 -1065h-37l2 1065h33z" />
    <glyph glyph-name="cent" unicode="&#xa2;" horiz-adv-x="1173" 
d="M1067 233q-64 -121 -174 -188t-246 -70v-217h-31v217q-215 6 -349 154.5t-134 380.5q0 228 136 379.5t347 159.5v194h31v-194q136 -3 245 -68.5t173 -183.5l-31 -17q-59 107 -161 169t-226 65v-1006q124 3 227 67.5t162 174.5zM166 510q0 -215 125 -354.5t325 -147.5
v1006q-200 -8 -325 -147t-125 -357z" />
    <glyph glyph-name="sterling" unicode="&#xa3;" horiz-adv-x="1069" 
d="M291 35h717v-35h-936v35h182v655h-193v35h193v352q0 179 98 280t266 101q131 0 233 -62.5t157 -178.5l-29 -15q-54 110 -147 165.5t-214 55.5q-155 0 -241 -89.5t-86 -256.5v-352h557v-35h-557v-655z" />
    <glyph glyph-name="currency" unicode="&#xa4;" horiz-adv-x="1150" 
d="M977 702q0 -160 -92 -272l133 -133l-25 -25l-131 131q-110 -110 -287 -110q-174 0 -284 113l-131 -134l-27 25l133 133q-90 114 -90 272q0 159 90 273l-131 133l25 25l131 -134q110 113 284 113q177 0 287 -113l131 134l25 -25l-131 -133q90 -114 90 -273zM575 326
q163 0 265 105t102 271t-102.5 271.5t-264.5 105.5q-161 0 -263.5 -105.5t-102.5 -271.5t102.5 -271t263.5 -105z" />
    <glyph glyph-name="yen" unicode="&#xa5;" horiz-adv-x="1099" 
d="M586 637h381v-33h-400v-262h400v-33h-400v-309h-35v309h-395v33h395v262h-395v33h377l-483 797h41l479 -789l477 789h41z" />
    <glyph glyph-name="brokenbar" unicode="&#xa6;" horiz-adv-x="624" 
d="M295 1567h35v-701h-35v701zM295 479h35v-684h-35v684z" />
    <glyph glyph-name="section" unicode="&#xa7;" horiz-adv-x="1099" 
d="M696 291q131 -32 191.5 -96t60.5 -168q0 -136 -97 -215.5t-278 -79.5q-154 0 -268 56.5t-162 154.5l29 16q52 -92 155 -143.5t246 -51.5q166 0 252 70.5t86 192.5q0 96 -59 151.5t-193 87.5l-221 53q-131 31 -196.5 98.5t-65.5 178.5q0 117 68 202.5t190 102.5
q-128 31 -189 94t-61 170q0 141 98 217t281 76q282 0 373 -174l-29 -16q-89 157 -344 157q-342 0 -342 -260q0 -99 56.5 -152.5t191.5 -86.5l221 -54q135 -32 200.5 -99.5t65.5 -176.5q0 -118 -69 -203t-191 -102zM213 596q0 -102 60.5 -159.5t195.5 -90.5l66 -16
q97 -20 169.5 -7.5t120.5 53t71.5 97t23.5 123.5q0 103 -62 160t-199 90l-65 16q-98 20 -169.5 7t-118.5 -54t-70 -97t-23 -122z" />
    <glyph glyph-name="dieresis" unicode="&#xa8;" horiz-adv-x="1269" 
d="M426 1321q-19 0 -31 12t-12 31t12 31t31 12t31 -12t12 -31t-12 -31t-31 -12zM844 1321q-19 0 -31 12t-12 31t12 31t31 12t31 -12t12 -31t-12 -31t-31 -12z" />
    <glyph glyph-name="copyright" unicode="&#xa9;" horiz-adv-x="1789" 
d="M895 -25q-154 0 -291 58.5t-234 158.5t-153.5 236.5t-56.5 288.5t56.5 288.5t153.5 236t234 158t291 58.5t291 -58.5t234 -158t153.5 -236t56.5 -288.5t-56.5 -288.5t-153.5 -236.5t-234 -158.5t-291 -58.5zM895 8q197 0 358 94.5t251.5 257t90.5 357.5q0 146 -53.5 277
t-145.5 225.5t-222.5 150t-278.5 55.5t-278.5 -55.5t-222.5 -150t-145.5 -225.5t-53.5 -277q0 -195 90.5 -357.5t251.5 -257t358 -94.5zM911 313q-174 0 -278.5 111.5t-104.5 292.5t104.5 292t278.5 111q108 0 192.5 -46t129.5 -136l-29 -14q-37 78 -116.5 120.5
t-178.5 42.5q-153 0 -249.5 -101t-96.5 -269t96.5 -269.5t249.5 -101.5q99 0 178 43t117 121l29 -14q-45 -90 -130 -136.5t-192 -46.5z" />
    <glyph glyph-name="guillemotleft" unicode="&#xab;" horiz-adv-x="903" 
d="M135 512l293 -418h-43l-293 418l293 418h43zM498 512l293 -418h-43l-293 418l293 418h43z" />
    <glyph glyph-name="logicalnot" unicode="&#xac;" horiz-adv-x="1454" 
d="M1157 666v-267h-35v234h-825v33h860z" />
    <glyph glyph-name="registered" unicode="&#xae;" horiz-adv-x="1204" 
d="M602 1460q187 0 314.5 -129.5t127.5 -314.5t-127.5 -315t-314.5 -130t-314.5 130t-127.5 315t127.5 314.5t314.5 129.5zM602 600q174 0 292 121t118 295t-118 295t-292 121t-291.5 -121t-117.5 -295t117.5 -295t291.5 -121zM793 1118q0 -66 -41.5 -102.5t-116.5 -36.5
l166 -203h-39l-164 203h-121v-203h-31v479h187q77 0 118.5 -36.5t41.5 -100.5zM477 1008h154q129 0 129 110q0 53 -33 81t-96 28h-154v-219z" />
    <glyph glyph-name="macron" unicode="&#xaf;" horiz-adv-x="1269" 
d="M342 1337h586v-34h-586v34z" />
    <glyph glyph-name="degree" unicode="&#xb0;" horiz-adv-x="737" 
d="M369 926q-116 0 -191.5 75.5t-75.5 190.5t75.5 190.5t191.5 75.5t191 -75.5t75 -190.5t-75 -190.5t-191 -75.5zM369 958q101 0 166 64.5t65 169.5t-65 169t-166 64t-166.5 -64.5t-65.5 -168.5q0 -105 65.5 -169.5t166.5 -64.5z" />
    <glyph glyph-name="plusminus" unicode="&#xb1;" horiz-adv-x="1454" 
d="M1157 653v-32h-412v-406h-34v406h-414v32h414v406h34v-406h412zM297 33h860v-33h-860v33z" />
    <glyph glyph-name="acute" unicode="&#xb4;" horiz-adv-x="1269" 
d="M846 1516h45l-262 -318h-41z" />
    <glyph glyph-name="uni00B5" unicode="&#xb5;" horiz-adv-x="1241" 
d="M1036 1024v-1024h-35v256q-37 -129 -147.5 -205t-271.5 -76q-262 0 -342 213v-639h-35v1475h35v-621q0 -395 342 -395q187 0 303 111.5t116 304.5v600h35z" />
    <glyph glyph-name="paragraph" unicode="&#xb6;" horiz-adv-x="1288" 
d="M547 860h-45q-180 0 -274.5 81t-94.5 206q0 126 97.5 206.5t291.5 80.5h62v-1700h-37v1126zM956 1434h37v-1700h-37v1700z" />
    <glyph glyph-name="cedilla" unicode="&#xb8;" horiz-adv-x="1269" 
d="M637 6h35l-133 -405h-35z" />
    <glyph glyph-name="guillemotright" unicode="&#xbb;" horiz-adv-x="903" 
d="M406 512l-293 418h43l293 -418l-293 -418h-43zM811 512l-293 -418h-43l293 418l-293 418h43z" />
    <glyph glyph-name="questiondown" unicode="&#xbf;" horiz-adv-x="915" 
d="M494 1024q19 0 31 -12t12 -31t-12 -31t-31 -12t-31 12t-12 31t12 31t31 12zM512 508q0 -100 -26.5 -150t-123.5 -129l-100 -84q-143 -120 -143 -272q0 -128 86.5 -200t222.5 -72q130 0 235 66.5t160 189.5l31 -17q-58 -131 -171 -202.5t-255 -71.5q-155 0 -250.5 83
t-95.5 224q0 171 170 311l100 84q81 67 102 109t21 131v147h37v-147z" />
    <glyph glyph-name="Agrave" unicode="&#xc0;" horiz-adv-x="1376" 
d="M645 1608l-203 317h45l199 -317h-41zM1073 442l-799 2l-190 -444h-39l617 1434h24l617 -1434h-39zM1059 477l-385 897l-385 -897h770z" />
    <glyph glyph-name="Aacute" unicode="&#xc1;" horiz-adv-x="1376" 
d="M682 1608h-41l199 317h45zM1073 442l-799 2l-190 -444h-39l617 1434h24l617 -1434h-39zM1059 477l-385 897l-385 -897h770z" />
    <glyph glyph-name="Acircumflex" unicode="&#xc2;" horiz-adv-x="1376" 
d="M426 1608h-41l285 317h37l284 -317h-41l-262 290zM1073 442l-799 2l-190 -444h-39l617 1434h24l617 -1434h-39zM1059 477l-385 897l-385 -897h770z" />
    <glyph glyph-name="Atilde" unicode="&#xc3;" horiz-adv-x="1376" 
d="M672 1755q-38 40 -68 56t-65 16q-48 0 -77.5 -40t-29.5 -108h-33q0 81 40 130t100 49q74 0 163 -89q41 -41 70.5 -56t65.5 -15q48 0 77 39.5t29 109.5h33q0 -83 -39.5 -131.5t-99.5 -48.5q-78 0 -166 88zM1073 442l-799 2l-190 -444h-39l617 1434h24l617 -1434h-39z
M1059 477l-385 897l-385 -897h770z" />
    <glyph glyph-name="Adieresis" unicode="&#xc4;" horiz-adv-x="1376" 
d="M479 1731q-19 0 -31 12t-12 31t12 31t31 12t31 -12t12 -31t-12 -31t-31 -12zM897 1731q-19 0 -31 12t-12 31t12 31t31 12t31 -12t12 -31t-12 -31t-31 -12zM1073 442l-799 2l-190 -444h-39l617 1434h24l617 -1434h-39zM1059 477l-385 897l-385 -897h770z" />
    <glyph glyph-name="Aring" unicode="&#xc5;" horiz-adv-x="1376" 
d="M688 1618q-90 0 -149.5 58t-59.5 145t59.5 144.5t149.5 57.5t149.5 -57.5t59.5 -144.5t-59.5 -145t-149.5 -58zM688 1991q-78 0 -126 -47.5t-48 -122.5t48 -122.5t126 -47.5t126 47.5t48 122.5t-48 122.5t-126 47.5zM1073 442l-799 2l-190 -444h-39l617 1434h24
l617 -1434h-39zM1059 477l-385 897l-385 -897h770z" />
    <glyph glyph-name="AE" unicode="&#xc6;" horiz-adv-x="2197" 
d="M2025 35v-35h-927v424h-709l-305 -424h-43l1034 1434h930v-35h-870v-658h837v-34h-837v-672h890zM1098 459v946l-682 -946h682z" />
    <glyph glyph-name="Ccedilla" unicode="&#xc7;" horiz-adv-x="1607" 
d="M872 10q207 0 356 90.5t224 261.5l35 -14q-80 -180 -238.5 -276.5t-376.5 -96.5h-2l-122 -374h-35l123 374q-193 9 -346.5 106t-239.5 263.5t-86 372.5q0 211 91 380.5t253 265t364 95.5q215 0 376 -98.5t239 -278.5l-35 -12q-73 172 -223 263t-357 91
q-192 0 -345.5 -90.5t-239.5 -252t-86 -363.5q0 -152 50.5 -284t139 -224.5t213 -145.5t268.5 -53z" />
    <glyph glyph-name="Egrave" unicode="&#xc8;" horiz-adv-x="1353" 
d="M750 1608l-203 317h45l199 -317h-41zM1167 35v-35h-911v1434h891v-35h-856v-709h829v-33h-829v-622h876z" />
    <glyph glyph-name="Eacute" unicode="&#xc9;" horiz-adv-x="1353" 
d="M645 1608h-41l199 317h45zM1182 35v-35h-928v1434h907v-35h-870v-658h833v-34h-833v-672h891z" />
    <glyph glyph-name="Ecircumflex" unicode="&#xca;" horiz-adv-x="1353" 
d="M958 1608l-262 290l-262 -290h-41l285 317h37l284 -317h-41zM1167 35v-35h-911v1434h891v-35h-856v-709h829v-33h-829v-622h876z" />
    <glyph glyph-name="Edieresis" unicode="&#xcb;" horiz-adv-x="1353" 
d="M444 1774q0 19 12 31t31 12t31 -12t12 -31t-12 -31t-31 -12t-31 12t-12 31zM862 1774q0 19 12 31t31 12t31 -12t12 -31t-12 -31t-31 -12t-31 12t-12 31zM1167 35v-35h-911v1434h891v-35h-856v-709h829v-33h-829v-622h876z" />
    <glyph glyph-name="Igrave" unicode="&#xcc;" horiz-adv-x="552" 
d="M254 1608l-203 317h45l199 -317h-41zM258 1434h37v-1434h-37v1434z" />
    <glyph glyph-name="Iacute" unicode="&#xcd;" horiz-adv-x="552" 
d="M453 1925h45l-203 -317h-41zM258 1434h37v-1434h-37v1434z" />
    <glyph glyph-name="Icircumflex" unicode="&#xce;" horiz-adv-x="552" 
d="M580 1608h-41l-263 290l-262 -290h-41l285 317h37zM258 1434h37v-1434h-37v1434z" />
    <glyph glyph-name="Idieresis" unicode="&#xcf;" horiz-adv-x="552" 
d="M68 1731q-19 0 -31 12t-12 31t12 31t31 12t31 -12t12 -31t-12 -31t-31 -12zM485 1731q-19 0 -31 12t-12 31t12 31t31 12t31 -12t12 -31t-12 -31t-31 -12zM258 1434h37v-1434h-37v1434z" />
    <glyph glyph-name="Eth" unicode="&#xd0;" horiz-adv-x="1593" 
d="M1434 717q0 -228 -90 -391t-251 -244.5t-378 -81.5h-432v700h-234v33h234v701h432q217 0 378 -81.5t251 -244.5t90 -391zM1395 717q0 329 -184 505.5t-496 176.5h-396v-666h476v-33h-476v-665h396q312 0 496 176.5t184 505.5z" />
    <glyph glyph-name="Eth" unicode="&#xf0;" horiz-adv-x="1593" 
d="M1434 717q0 -228 -90 -391t-251 -244.5t-378 -81.5h-432v700h-234v33h234v701h432q217 0 378 -81.5t251 -244.5t90 -391zM1395 717q0 329 -184 505.5t-496 176.5h-396v-666h476v-33h-476v-665h396q312 0 496 176.5t184 505.5z" />
    <glyph glyph-name="Ntilde" unicode="&#xd1;" horiz-adv-x="1617" 
d="M659 1827q-48 0 -77 -40t-29 -108h-33q0 81 39.5 130t99.5 49q75 0 164 -89q41 -41 70 -56t65 -15q48 0 77.5 40t29.5 109h33q0 -83 -40 -131.5t-100 -48.5q-40 0 -78 19.5t-87 68.5q-38 40 -68.5 56t-65.5 16zM1364 1434v-1434h-33l-1042 1368v-1368h-35v1434h31
l1044 -1373v1373h35z" />
    <glyph glyph-name="Ograve" unicode="&#xd2;" horiz-adv-x="1753" 
d="M883 1608l-203 317h45l199 -317h-41zM887 -25q-147 0 -281 58.5t-230.5 158t-154 237t-57.5 288.5q0 201 97 371.5t263.5 270t362.5 99.5q146 0 279.5 -59t230 -158t154 -236.5t57.5 -287.5q0 -151 -57.5 -288.5t-154 -237t-230 -158t-279.5 -58.5zM887 10q140 0 267 56
t218.5 151t146 226t54.5 274q0 191 -92 354t-250 257.5t-344 94.5q-140 0 -267.5 -56t-219.5 -150.5t-146.5 -225.5t-54.5 -274q0 -191 92 -354t250.5 -258t345.5 -95z" />
    <glyph glyph-name="Oacute" unicode="&#xd3;" horiz-adv-x="1753" 
d="M897 1608h-41l199 317h45zM887 -25q-147 0 -281 58.5t-230.5 158t-154 237t-57.5 288.5q0 201 97 371.5t263.5 270t362.5 99.5q146 0 279.5 -59t230 -158t154 -236.5t57.5 -287.5q0 -151 -57.5 -288.5t-154 -237t-230 -158t-279.5 -58.5zM887 10q140 0 267 56t218.5 151
t146 226t54.5 274q0 191 -92 354t-250 257.5t-344 94.5q-140 0 -267.5 -56t-219.5 -150.5t-146.5 -225.5t-54.5 -274q0 -191 92 -354t250.5 -258t345.5 -95z" />
    <glyph glyph-name="Ocircumflex" unicode="&#xd4;" horiz-adv-x="1753" 
d="M614 1608h-41l285 317h37l285 -317h-41l-262 290zM887 -25q-147 0 -281 58.5t-230.5 158t-154 237t-57.5 288.5q0 201 97 371.5t263.5 270t362.5 99.5q146 0 279.5 -59t230 -158t154 -236.5t57.5 -287.5q0 -151 -57.5 -288.5t-154 -237t-230 -158t-279.5 -58.5zM887 10
q140 0 267 56t218.5 151t146 226t54.5 274q0 191 -92 354t-250 257.5t-344 94.5q-140 0 -267.5 -56t-219.5 -150.5t-146.5 -225.5t-54.5 -274q0 -191 92 -354t250.5 -258t345.5 -95z" />
    <glyph glyph-name="Otilde" unicode="&#xd5;" horiz-adv-x="1753" 
d="M1026 1667q-78 0 -166 88q-38 40 -68 56t-65 16q-48 0 -77 -40t-29 -108h-33q0 81 39.5 130t99.5 49q75 0 164 -89q41 -41 70 -56t65 -15q48 0 77.5 40t29.5 109h32q0 -83 -39.5 -131.5t-99.5 -48.5zM877 -25q-151 0 -284.5 56.5t-228 155t-149.5 236t-55 294.5t55 294.5
t149.5 235.5t228 154.5t284.5 56.5t284 -56.5t228 -154.5t149.5 -235.5t54.5 -294.5q0 -209 -93 -379t-257 -266.5t-366 -96.5zM877 10q190 0 345 90.5t243.5 252.5t88.5 364t-88.5 363.5t-243.5 252t-345 90.5q-143 0 -268.5 -53t-215.5 -145.5t-142 -224.5t-52 -283
q0 -202 89 -364t244 -252.5t345 -90.5z" />
    <glyph glyph-name="Odieresis" unicode="&#xd6;" horiz-adv-x="1753" 
d="M668 1731q-19 0 -31 12t-12 31t12 31t31 12t31 -12t12 -31t-12 -31t-31 -12zM1085 1731q-19 0 -31 12t-12 31t12 31t31 12t31 -12t12 -31t-12 -31t-31 -12zM887 -25q-147 0 -281 58.5t-230.5 158t-154 237t-57.5 288.5q0 201 97 371.5t263.5 270t362.5 99.5
q146 0 279.5 -59t230 -158t154 -236.5t57.5 -287.5q0 -151 -57.5 -288.5t-154 -237t-230 -158t-279.5 -58.5zM887 10q140 0 267 56t218.5 151t146 226t54.5 274q0 191 -92 354t-250 257.5t-344 94.5q-140 0 -267.5 -56t-219.5 -150.5t-146.5 -225.5t-54.5 -274
q0 -191 92 -354t250.5 -258t345.5 -95z" />
    <glyph glyph-name="multiply" unicode="&#xd7;" horiz-adv-x="1454" 
d="M752 649l338 -338l-25 -24l-338 338l-338 -338l-24 24l337 338l-337 338l24 25l338 -338l338 338l25 -25z" />
    <glyph glyph-name="Oslash" unicode="&#xd8;" horiz-adv-x="1753" 
d="M1593 717q0 -209 -93 -379t-257 -266.5t-366 -96.5q-150 0 -280.5 54.5t-227.5 154.5l-174 -174l-25 27l174 174q-184 203 -184 506q0 157 55 294.5t149.5 235.5t228 154.5t284.5 56.5q149 0 278.5 -54t228.5 -153l175 174l26 -24l-176 -176q184 -210 184 -508zM199 717
q0 -140 44.5 -263.5t125.5 -217.5l989 989q-192 198 -481 198q-143 0 -268.5 -53t-215.5 -145.5t-142 -224.5t-52 -283zM1554 717q0 287 -172 481l-989 -989q92 -95 216.5 -147t267.5 -52q190 0 345 90.5t243.5 252.5t88.5 364z" />
    <glyph glyph-name="Ugrave" unicode="&#xd9;" horiz-adv-x="1568" 
d="M737 1608l-202 317h45l198 -317h-41zM797 -25q-114 0 -211.5 34t-172 100t-117 171t-42.5 238v916h35v-916q0 -126 40 -224.5t110 -159.5t160.5 -92.5t197.5 -31.5t198.5 31.5t161.5 92.5t110 159.5t40 224.5v916h34v-916q0 -133 -42.5 -238t-117.5 -171t-172.5 -100
t-211.5 -34z" />
    <glyph glyph-name="Uacute" unicode="&#xda;" horiz-adv-x="1568" 
d="M782 1608h-41l199 317h45zM797 -25q-114 0 -211.5 34t-172 100t-117 171t-42.5 238v916h35v-916q0 -126 40 -224.5t110 -159.5t160.5 -92.5t197.5 -31.5t198.5 31.5t161.5 92.5t110 159.5t40 224.5v916h34v-916q0 -133 -42.5 -238t-117.5 -171t-172.5 -100t-211.5 -34z
" />
    <glyph glyph-name="Ucircumflex" unicode="&#xdb;" horiz-adv-x="1568" 
d="M1047 1608l-263 290l-262 -290h-41l285 317h37l284 -317h-40zM797 -25q-114 0 -211.5 34t-172 100t-117 171t-42.5 238v916h35v-916q0 -126 40 -224.5t110 -159.5t160.5 -92.5t197.5 -31.5t198.5 31.5t161.5 92.5t110 159.5t40 224.5v916h34v-916q0 -133 -42.5 -238
t-117.5 -171t-172.5 -100t-211.5 -34z" />
    <glyph glyph-name="Udieresis" unicode="&#xdc;" horiz-adv-x="1568" 
d="M575 1731q-19 0 -31 12t-12 31t12 31t31 12t31 -12t12 -31t-12 -31t-31 -12zM993 1731q-19 0 -31 12t-12 31t12 31t31 12t31 -12t12 -31t-12 -31t-31 -12zM797 -25q-114 0 -211.5 34t-172 100t-117 171t-42.5 238v916h35v-916q0 -126 40 -224.5t110 -159.5t160.5 -92.5
t197.5 -31.5t198.5 31.5t161.5 92.5t110 159.5t40 224.5v916h34v-916q0 -133 -42.5 -238t-117.5 -171t-172.5 -100t-211.5 -34z" />
    <glyph glyph-name="Yacute" unicode="&#xdd;" horiz-adv-x="1241" 
d="M631 1608h-41l198 317h46zM1249 1434l-598 -820v-614h-35v614l-585 820h43l559 -785l571 783z" />
    <glyph glyph-name="Thorn" unicode="&#xde;" horiz-adv-x="1382" 
d="M1264 737q0 -200 -125.5 -310t-352.5 -110h-495v-317h-37v1434h37v-277h495q227 0 352.5 -110t125.5 -310zM1227 737q0 186 -116 285.5t-325 99.5h-495v-770h495q209 0 325 99.5t116 285.5z" />
    <glyph glyph-name="germandbls" unicode="&#xdf;" horiz-adv-x="1220" 
d="M727 762q179 -7 275 -104.5t96 -268.5q0 -189 -115.5 -289t-329.5 -100h-139v33h139q202 0 305 91t103 265q0 172 -100 260t-289 88h-160v33h68q187 0 291 93t104 272q0 169 -93.5 258.5t-265.5 89.5q-182 0 -279 -98t-97 -277v-1108h-35v1108q0 198 109.5 303t301.5 105
q185 0 289.5 -98.5t104.5 -282.5q0 -152 -73 -247t-210 -126z" />
    <glyph glyph-name="agrave" unicode="&#xe0;" horiz-adv-x="1007" 
d="M604 1198l-203 318h45l199 -318h-41zM926 0h-35v264q-37 -130 -147.5 -205t-270.5 -75q-165 0 -257.5 79.5t-92.5 217.5q0 192 201 270t567 31v116q0 157 -83.5 237.5t-238.5 80.5q-243 0 -356 -189l-29 19q60 99 158.5 151t226.5 52q171 0 264 -91.5t93 -259.5v-698z
M891 543q-222 32 -384.5 13.5t-254.5 -90t-92 -185.5q0 -125 83 -195t230 -70q191 0 304.5 112.5t113.5 307.5v107z" />
    <glyph glyph-name="aacute" unicode="&#xe1;" horiz-adv-x="1007" 
d="M641 1198h-41l199 318h37zM926 0h-35v264q-37 -130 -147.5 -205t-270.5 -75q-165 0 -257.5 79.5t-92.5 217.5q0 192 201 270t567 31v116q0 157 -83.5 237.5t-238.5 80.5q-243 0 -356 -189l-29 19q60 99 158.5 151t226.5 52q171 0 264 -91.5t93 -259.5v-698zM891 543
q-222 32 -384.5 13.5t-254.5 -90t-92 -185.5q0 -125 83 -195t230 -70q191 0 304.5 112.5t113.5 307.5v107z" />
    <glyph glyph-name="acircumflex" unicode="&#xe2;" horiz-adv-x="1007" 
d="M866 1198l-262 291l-262 -291h-41l285 318h37l284 -318h-41zM926 0h-35v264q-37 -130 -147.5 -205t-270.5 -75q-165 0 -257.5 79.5t-92.5 217.5q0 192 201 270t567 31v116q0 157 -83.5 237.5t-238.5 80.5q-243 0 -356 -189l-29 19q60 99 158.5 151t226.5 52
q171 0 264 -91.5t93 -259.5v-698zM891 543q-222 32 -384.5 13.5t-254.5 -90t-92 -185.5q0 -125 83 -195t230 -70q191 0 304.5 112.5t113.5 307.5v107z" />
    <glyph glyph-name="atilde" unicode="&#xe3;" horiz-adv-x="1032" 
d="M645 1346q-38 39 -67.5 55t-65.5 16q-48 0 -77 -39.5t-29 -107.5h-33q0 81 39.5 129.5t99.5 48.5q76 0 164 -88q41 -41 70.5 -56.5t64.5 -15.5q48 0 77.5 40.5t29.5 109.5h32q0 -83 -39.5 -132t-99.5 -49q-82 0 -166 89zM926 0h-35v264q-37 -130 -147.5 -205t-270.5 -75
q-165 0 -257.5 79.5t-92.5 217.5q0 192 201 270t567 31v116q0 157 -83.5 237.5t-238.5 80.5q-243 0 -356 -189l-29 19q60 99 158.5 151t226.5 52q171 0 264 -91.5t93 -259.5v-698zM891 543q-222 32 -384.5 13.5t-254.5 -90t-92 -185.5q0 -125 83 -195t230 -70
q191 0 304.5 112.5t113.5 307.5v107z" />
    <glyph glyph-name="adieresis" unicode="&#xe4;" horiz-adv-x="1007" 
d="M403 1321q-19 0 -31 12t-12 31t12 31t31 12t31 -12t12 -31t-12 -31t-31 -12zM821 1321q-19 0 -31 12t-12 31t12 31t31 12t31 -12t12 -31t-12 -31t-31 -12zM926 0h-35v264q-37 -130 -147.5 -205t-270.5 -75q-165 0 -257.5 79.5t-92.5 217.5q0 192 201 270t567 31v116
q0 157 -83.5 237.5t-238.5 80.5q-243 0 -356 -189l-29 19q60 99 158.5 151t226.5 52q171 0 264 -91.5t93 -259.5v-698zM891 543q-222 32 -384.5 13.5t-254.5 -90t-92 -185.5q0 -125 83 -195t230 -70q191 0 304.5 112.5t113.5 307.5v107z" />
    <glyph glyph-name="aring" unicode="&#xe5;" horiz-adv-x="1007" 
d="M647 1208q-90 0 -149.5 58t-59.5 145t59.5 145t149.5 58t149.5 -58t59.5 -145t-59.5 -145t-149.5 -58zM647 1581q-78 0 -126 -47.5t-48 -122.5t48 -122.5t126 -47.5t126 47.5t48 122.5t-48 122.5t-126 47.5zM926 0h-35v264q-37 -130 -147.5 -205t-270.5 -75
q-165 0 -257.5 79.5t-92.5 217.5q0 192 201 270t567 31v116q0 157 -83.5 237.5t-238.5 80.5q-243 0 -356 -189l-29 19q60 99 158.5 151t226.5 52q171 0 264 -91.5t93 -259.5v-698zM891 543q-222 32 -384.5 13.5t-254.5 -90t-92 -185.5q0 -125 83 -195t230 -70
q191 0 304.5 112.5t113.5 307.5v107z" />
    <glyph glyph-name="ae" unicode="&#xe6;" horiz-adv-x="1927" 
d="M1354 8q128 0 232.5 61.5t166.5 172.5l31 -17q-66 -120 -179 -186t-251 -66q-171 0 -298 94.5t-177 254.5q-17 -111 -84.5 -189t-160.5 -113.5t-202 -35.5q-165 0 -257.5 79.5t-92.5 217.5q0 192 201 270t567 31v116q0 157 -83.5 237.5t-238.5 80.5q-243 0 -356 -189
l-29 19q60 99 158.5 151t226.5 52q168 0 260 -87t97 -249q53 154 178 245t291 91q209 0 329.5 -142t120.5 -389h-917q0 -228 128.5 -369t338.5 -141zM1354 1014q-198 0 -326.5 -128t-140.5 -335h882q-5 212 -117 337.5t-298 125.5zM850 412v131q-222 32 -384.5 13.5
t-254.5 -90t-92 -185.5q0 -125 83 -195t230 -70q205 0 311.5 108.5t106.5 287.5z" />
    <glyph glyph-name="ccedilla" unicode="&#xe7;" horiz-adv-x="1173" 
d="M635 -25q-222 0 -362 149t-140 386q0 234 142 386.5t360 152.5q140 0 252 -65.5t178 -186.5l-31 -17q-60 110 -165 172t-234 62q-207 0 -338 -140.5t-131 -363.5q0 -220 131 -361t338 -141q129 0 235 64t166 178l31 -17q-66 -124 -179 -191t-253 -67zM655 -25l-123 -374
h-34l123 374h34z" />
    <glyph glyph-name="egrave" unicode="&#xe8;" horiz-adv-x="1198" 
d="M594 1198l-203 318h45l199 -318h-41zM158 518q0 -228 128.5 -369t338.5 -141q128 0 232.5 61.5t166.5 172.5l31 -17q-66 -120 -179 -186t-251 -66q-221 0 -361.5 150.5t-140.5 386.5q0 235 142 387t360 152q209 0 329.5 -142t120.5 -389h-917zM625 1014
q-198 0 -326.5 -128t-140.5 -335h882q-5 212 -117 337.5t-298 125.5z" />
    <glyph glyph-name="eacute" unicode="&#xe9;" horiz-adv-x="1214" 
d="M625 1198h-41l198 318h45zM158 518q0 -228 128.5 -369t338.5 -141q128 0 232.5 61.5t166.5 172.5l31 -17q-66 -120 -179 -186t-251 -66q-221 0 -361.5 150.5t-140.5 386.5q0 235 142 387t360 152q209 0 329.5 -142t120.5 -389h-917zM625 1014q-198 0 -326.5 -128
t-140.5 -335h882q-5 212 -117 337.5t-298 125.5z" />
    <glyph glyph-name="ecircumflex" unicode="&#xea;" horiz-adv-x="1198" 
d="M889 1198l-262 291l-262 -291h-41l284 318h37l285 -318h-41zM158 518q0 -228 128.5 -369t338.5 -141q128 0 232.5 61.5t166.5 172.5l31 -17q-66 -120 -179 -186t-251 -66q-221 0 -361.5 150.5t-140.5 386.5q0 235 142 387t360 152q209 0 329.5 -142t120.5 -389h-917z
M625 1014q-198 0 -326.5 -128t-140.5 -335h882q-5 212 -117 337.5t-298 125.5z" />
    <glyph glyph-name="edieresis" unicode="&#xeb;" horiz-adv-x="1198" 
d="M393 1321q-19 0 -31 12t-12 31t12 31t31 12t31 -12t12 -31t-12 -31t-31 -12zM811 1321q-19 0 -31 12t-12 31t12 31t31 12t31 -12t12 -31t-12 -31t-31 -12zM158 518q0 -228 128.5 -369t338.5 -141q128 0 232.5 61.5t166.5 172.5l31 -17q-66 -120 -179 -186t-251 -66
q-221 0 -361.5 150.5t-140.5 386.5q0 235 142 387t360 152q209 0 329.5 -142t120.5 -389h-917zM625 1014q-198 0 -326.5 -128t-140.5 -335h882q-5 212 -117 337.5t-298 125.5z" />
    <glyph glyph-name="igrave" unicode="&#xec;" horiz-adv-x="448" 
d="M-33 1516h45l228 -318h-41zM207 1024h35v-1024h-35v1024z" />
    <glyph glyph-name="iacute" unicode="&#xed;" horiz-adv-x="448" 
d="M236 1198h-41l198 318h45zM207 1024h35v-1024h-35v1024z" />
    <glyph glyph-name="icircumflex" unicode="&#xee;" horiz-adv-x="448" 
d="M500 1198h-41l-234 291l-233 -291h-41l256 318h37zM207 1024h35v-1024h-35v1024z" />
    <glyph glyph-name="idieresis" unicode="&#xef;" horiz-adv-x="448" 
d="M39 1321q-19 0 -31 12t-12 31t12 31t31 12t31 -12t12 -31t-12 -31t-31 -12zM412 1321q-19 0 -31 12t-12 31t12 31t31 12t31 -12t12 -31t-12 -31t-31 -12zM207 1024h35v-1024h-35v1024z" />
    <glyph glyph-name="ntilde" unicode="&#xf1;" horiz-adv-x="1224" 
d="M604 1346q-38 39 -67.5 55t-65.5 16q-48 0 -77 -39.5t-29 -107.5h-33q0 81 39.5 129.5t99.5 48.5q76 0 164 -88q41 -41 70.5 -56.5t64.5 -15.5q48 0 77.5 40.5t29.5 109.5h32q0 -83 -39.5 -132t-99.5 -49q-77 0 -166 89zM616 1049q171 0 292.5 -121.5t121.5 -290.5v-637
h-37v637q0 156 -109.5 266.5t-267.5 110.5q-156 0 -265 -110.5t-109 -266.5v-637h-37v1024h37v-223q48 112 149 180t225 68z" />
    <glyph glyph-name="ograve" unicode="&#xf2;" horiz-adv-x="1290" 
d="M698 1198l-202 318h45l198 -318h-41zM647 -25q-226 0 -370 150.5t-144 386.5q0 232 146.5 384.5t367.5 152.5q224 0 369 -152.5t145 -384.5q0 -228 -147.5 -382.5t-366.5 -154.5zM647 10q209 0 345 142.5t136 359.5t-136 360.5t-345 143.5q-210 0 -343.5 -141
t-133.5 -363q0 -221 133 -361.5t344 -140.5z" />
    <glyph glyph-name="oacute" unicode="&#xf3;" horiz-adv-x="1290" 
d="M668 1198h-41l198 318h45zM647 -25q-226 0 -370 150.5t-144 386.5q0 232 146.5 384.5t367.5 152.5q224 0 369 -152.5t145 -384.5q0 -228 -147.5 -382.5t-366.5 -154.5zM647 10q209 0 345 142.5t136 359.5t-136 360.5t-345 143.5q-210 0 -343.5 -141t-133.5 -363
q0 -221 133 -361.5t344 -140.5z" />
    <glyph glyph-name="ocircumflex" unicode="&#xf4;" horiz-adv-x="1290" 
d="M907 1198l-262 291l-262 -291h-41l285 318h37l284 -318h-41zM647 -25q-226 0 -370 150.5t-144 386.5q0 232 146.5 384.5t367.5 152.5q224 0 369 -152.5t145 -384.5q0 -228 -147.5 -382.5t-366.5 -154.5zM647 10q209 0 345 142.5t136 359.5t-136 360.5t-345 143.5
q-210 0 -343.5 -141t-133.5 -363q0 -221 133 -361.5t344 -140.5z" />
    <glyph glyph-name="otilde" unicode="&#xf5;" horiz-adv-x="1290" 
d="M795 1257q-77 0 -166 89q-38 39 -67.5 55t-65.5 16q-48 0 -77.5 -39.5t-29.5 -107.5h-33q0 81 40 129.5t100 48.5q75 0 163 -88q41 -41 70.5 -56.5t65.5 -15.5q48 0 77 40t29 110h33q0 -83 -39.5 -132t-99.5 -49zM645 -25q-232 0 -373 149.5t-141 387.5t141 387.5
t373 149.5t373 -149.5t141 -387.5t-141 -387.5t-373 -149.5zM645 8q212 0 344.5 139t132.5 365t-132.5 365t-344.5 139t-344.5 -139t-132.5 -365t132.5 -365t344.5 -139z" />
    <glyph glyph-name="odieresis" unicode="&#xf6;" horiz-adv-x="1290" 
d="M393 1364q0 19 12 31t31 12t31 -12t12 -31t-12 -31t-31 -12t-31 12t-12 31zM811 1364q0 19 12 31t31 12t31 -12t12 -31t-12 -31t-31 -12t-31 12t-12 31zM647 -25q-226 0 -370 150.5t-144 386.5q0 232 146.5 384.5t367.5 152.5q224 0 369 -152.5t145 -384.5
q0 -228 -147.5 -382.5t-366.5 -154.5zM647 10q209 0 345 142.5t136 359.5t-136 360.5t-345 143.5q-210 0 -343.5 -141t-133.5 -363q0 -221 133 -361.5t344 -140.5z" />
    <glyph glyph-name="divide" unicode="&#xf7;" horiz-adv-x="1454" 
d="M727 963q-19 0 -31 12t-12 31t12 31t31 12t31 -12t12 -31t-12 -31t-31 -12zM297 666h860v-33h-860v33zM727 248q-19 0 -31 12t-12 31t12 31t31 12t31 -12t12 -31t-12 -31t-31 -12z" />
    <glyph glyph-name="oslash" unicode="&#xf8;" horiz-adv-x="1298" 
d="M1042 879q121 -146 121 -367q0 -238 -141 -387.5t-373 -149.5q-224 0 -368 144l-134 -133l-24 26l133 133q-121 146 -121 367q0 238 141 387.5t373 149.5q225 0 369 -144l131 131l27 -24zM649 1016q-212 0 -344.5 -139t-132.5 -365q0 -207 113 -342l708 709
q-131 137 -344 137zM649 8q212 0 344.5 139t132.5 365q0 204 -110 342l-709 -709q131 -137 342 -137z" />
    <glyph glyph-name="ugrave" unicode="&#xf9;" horiz-adv-x="1224" 
d="M657 1198l-202 318h45l198 -318h-41zM1020 1024v-1024h-35v256q-37 -129 -149 -205t-271 -76q-368 0 -368 422v627h34v-621q0 -395 336 -395q185 0 301.5 111.5t116.5 304.5v600h35z" />
    <glyph glyph-name="uacute" unicode="&#xfa;" horiz-adv-x="1224" 
d="M559 1198h-41l199 318h45zM1020 1024v-1024h-35v221q-48 -110 -150.5 -178t-226.5 -68q-170 0 -290.5 121t-120.5 291v637h34v-637q0 -156 110.5 -266.5t266.5 -110.5t266.5 110.5t110.5 266.5v637h35z" />
    <glyph glyph-name="ucircumflex" unicode="&#xfb;" horiz-adv-x="1224" 
d="M346 1198h-41l285 318h37l284 -318h-41l-262 291zM1020 1024v-1024h-35v221q-48 -110 -150.5 -178t-226.5 -68q-170 0 -290.5 121t-120.5 291v637h34v-637q0 -156 110.5 -266.5t266.5 -110.5t266.5 110.5t110.5 266.5v637h35z" />
    <glyph glyph-name="udieresis" unicode="&#xfc;" horiz-adv-x="1224" 
d="M356 1364q0 19 12 31t31 12t31 -12t12 -31t-12 -31t-31 -12t-31 12t-12 31zM774 1364q0 19 12 31t31 12t31 -12t12 -31t-12 -31t-31 -12t-31 12t-12 31zM1020 1024v-1024h-35v221q-48 -110 -150.5 -178t-226.5 -68q-170 0 -290.5 121t-120.5 291v637h34v-637
q0 -156 110.5 -266.5t266.5 -110.5t266.5 110.5t110.5 266.5v637h35z" />
    <glyph glyph-name="yacute" unicode="&#xfd;" horiz-adv-x="1052" 
d="M479 1198h-41l199 318h45zM1004 1024l-525 -1210q-58 -133 -123.5 -178.5t-193.5 -45.5h-109v33h109q111 0 171 41t107 150l76 176l-459 1034h39l441 -989l428 989h39z" />
    <glyph glyph-name="thorn" unicode="&#xfe;" horiz-adv-x="1343" 
d="M707 1051q222 0 362.5 -150t140.5 -387q0 -235 -142.5 -388t-360.5 -153q-163 0 -287.5 90t-179.5 242v-711h-35v1840h35v-717q54 152 180 243t287 91zM707 10q207 0 338 140.5t131 363.5q0 221 -131 361.5t-338 140.5q-203 0 -335 -142t-132 -360q0 -219 132 -361.5
t335 -142.5z" />
    <glyph glyph-name="ydieresis" unicode="&#xff;" horiz-adv-x="1052" 
d="M319 1321q-19 0 -31 12t-12 31t12 31t31 12t31 -12t12 -31t-12 -31t-31 -12zM737 1321q-19 0 -31 12t-12 31t12 31t31 12t31 -12t12 -31t-12 -31t-31 -12zM1004 1024l-525 -1210q-58 -133 -123.5 -178.5t-193.5 -45.5h-109v33h109q111 0 171 41t107 150l76 176l-459 1034
h39l441 -989l428 989h39z" />
    <glyph glyph-name="Amacron" unicode="&#x100;" horiz-adv-x="1376" 
d="M981 1712h-586v35h586v-35zM1073 442l-799 2l-190 -444h-39l617 1434h24l617 -1434h-39zM1059 477l-385 897l-385 -897h770z" />
    <glyph glyph-name="amacron" unicode="&#x101;" horiz-adv-x="1007" 
d="M903 1303h-586v34h586v-34zM926 0h-35v264q-37 -130 -147.5 -205t-270.5 -75q-165 0 -257.5 79.5t-92.5 217.5q0 192 201 270t567 31v116q0 157 -83.5 237.5t-238.5 80.5q-243 0 -356 -189l-29 19q60 99 158.5 151t226.5 52q171 0 264 -91.5t93 -259.5v-698zM891 543
q-222 32 -384.5 13.5t-254.5 -90t-92 -185.5q0 -125 83 -195t230 -70q191 0 304.5 112.5t113.5 307.5v107z" />
    <glyph glyph-name="Abreve" unicode="&#x102;" horiz-adv-x="1376" 
d="M688 1626q-117 0 -187.5 66t-70.5 174v2h35q0 -94 61.5 -151.5t161.5 -57.5t161.5 57.5t61.5 151.5h35v-2q0 -108 -70.5 -174t-187.5 -66zM1073 442l-799 2l-190 -444h-39l617 1434h24l617 -1434h-39zM1059 477l-385 897l-385 -897h770z" />
    <glyph glyph-name="abreve" unicode="&#x103;" horiz-adv-x="1017" 
d="M678 1217q-117 0 -187.5 65.5t-70.5 173.5v2h35q0 -94 61.5 -151.5t161.5 -57.5t161.5 57.5t61.5 151.5h35v-2q0 -108 -70.5 -173.5t-187.5 -65.5zM926 0h-35v264q-37 -130 -147.5 -205t-270.5 -75q-165 0 -257.5 79.5t-92.5 217.5q0 192 201 270t567 31v116
q0 157 -83.5 237.5t-238.5 80.5q-243 0 -356 -189l-29 19q60 99 158.5 151t226.5 52q171 0 264 -91.5t93 -259.5v-698zM891 543q-222 32 -384.5 13.5t-254.5 -90t-92 -185.5q0 -125 83 -195t230 -70q191 0 304.5 112.5t113.5 307.5v107z" />
    <glyph glyph-name="Aogonek" unicode="&#x104;" horiz-adv-x="1376" 
d="M1317 -401h6v-33h-6q-236 0 -236 172q0 81 44.5 144.5t138.5 117.5l-191 442l-799 2l-190 -444h-39l617 1434h24l617 -1434q-101 -59 -144 -122.5t-43 -139.5q0 -71 49 -105t152 -34zM289 477h770l-385 897z" />
    <glyph glyph-name="aogonek" unicode="&#x105;" horiz-adv-x="1013" 
d="M725 -262q0 -71 49 -105t152 -34h6v-33h-6q-236 0 -236 172q0 141 205 262h-4v264q-37 -130 -147.5 -205t-270.5 -75q-165 0 -257.5 79.5t-92.5 217.5q0 192 201 270t567 31v116q0 157 -83.5 237.5t-238.5 80.5q-243 0 -356 -189l-29 19q60 99 158.5 151t226.5 52
q171 0 264 -91.5t93 -259.5v-698h6q-207 -120 -207 -262zM891 436v107q-222 32 -384.5 13.5t-254.5 -90t-92 -185.5q0 -125 83 -195t230 -70q191 0 304.5 112.5t113.5 307.5z" />
    <glyph glyph-name="Cacute" unicode="&#x106;" horiz-adv-x="1607" 
d="M874 1608h-40l198 317h45zM872 -25q-152 0 -283.5 56t-224.5 153.5t-146.5 235.5t-53.5 297q0 211 91 380.5t253 265t364 95.5q215 0 376 -98.5t239 -278.5l-35 -12q-73 172 -223 263t-357 91q-192 0 -345.5 -90.5t-239.5 -252t-86 -363.5q0 -152 50.5 -284t139 -224.5
t213 -145.5t268.5 -53q207 0 356 90.5t224 261.5l35 -14q-80 -180 -238.5 -276.5t-376.5 -96.5z" />
    <glyph glyph-name="cacute" unicode="&#x107;" horiz-adv-x="1173" 
d="M625 1198h-41l198 318h45zM635 -25q-222 0 -362 149t-140 386q0 234 142 386.5t360 152.5q140 0 252 -65.5t178 -186.5l-31 -17q-60 110 -165 172t-234 62q-207 0 -338 -140.5t-131 -363.5q0 -220 131 -361t338 -141q129 0 235 64t166 178l31 -17q-66 -124 -179 -191
t-253 -67z" />
    <glyph glyph-name="Ccircumflex" unicode="&#x108;" horiz-adv-x="1607" 
d="M606 1608h-41l285 317h37l284 -317h-41l-262 290zM872 -25q-152 0 -283.5 56t-224.5 153.5t-146.5 235.5t-53.5 297q0 211 91 380.5t253 265t364 95.5q215 0 376 -98.5t239 -278.5l-35 -12q-73 172 -223 263t-357 91q-192 0 -345.5 -90.5t-239.5 -252t-86 -363.5
q0 -152 50.5 -284t139 -224.5t213 -145.5t268.5 -53q207 0 356 90.5t224 261.5l35 -14q-80 -180 -238.5 -276.5t-376.5 -96.5z" />
    <glyph glyph-name="ccircumflex" unicode="&#x109;" horiz-adv-x="1173" 
d="M373 1198h-41l284 318h37l285 -318h-41l-262 291zM635 -25q-222 0 -362 149t-140 386q0 234 142 386.5t360 152.5q140 0 252 -65.5t178 -186.5l-31 -17q-60 110 -165 172t-234 62q-207 0 -338 -140.5t-131 -363.5q0 -220 131 -361t338 -141q129 0 235 64t166 178l31 -17
q-66 -124 -179 -191t-253 -67z" />
    <glyph glyph-name="Cdotaccent" unicode="&#x10a;" horiz-adv-x="1607" 
d="M868 1731q-19 0 -31 12t-12 31t12 31t31 12t31 -12t12 -31t-12 -31t-31 -12zM872 -25q-152 0 -283.5 56t-224.5 153.5t-146.5 235.5t-53.5 297q0 211 91 380.5t253 265t364 95.5q215 0 376 -98.5t239 -278.5l-35 -12q-73 172 -223 263t-357 91q-192 0 -345.5 -90.5
t-239.5 -252t-86 -363.5q0 -152 50.5 -284t139 -224.5t213 -145.5t268.5 -53q207 0 356 90.5t224 261.5l35 -14q-80 -180 -238.5 -276.5t-376.5 -96.5z" />
    <glyph glyph-name="cdotaccent" unicode="&#x10b;" horiz-adv-x="1173" 
d="M635 1321q-19 0 -31 12t-12 31t12 31t31 12t31 -12t12 -31t-12 -31t-31 -12zM635 -25q-222 0 -362 149t-140 386q0 234 142 386.5t360 152.5q140 0 252 -65.5t178 -186.5l-31 -17q-60 110 -165 172t-234 62q-207 0 -338 -140.5t-131 -363.5q0 -220 131 -361t338 -141
q129 0 235 64t166 178l31 -17q-66 -124 -179 -191t-253 -67z" />
    <glyph glyph-name="Ccaron" unicode="&#x10c;" horiz-adv-x="1607" 
d="M850 1608l-285 317h41l262 -291l262 291h41l-284 -317h-37zM872 -25q-152 0 -283.5 56t-224.5 153.5t-146.5 235.5t-53.5 297q0 211 91 380.5t253 265t364 95.5q215 0 376 -98.5t239 -278.5l-35 -12q-73 172 -223 263t-357 91q-192 0 -345.5 -90.5t-239.5 -252
t-86 -363.5q0 -152 50.5 -284t139 -224.5t213 -145.5t268.5 -53q207 0 356 90.5t224 261.5l35 -14q-80 -180 -238.5 -276.5t-376.5 -96.5z" />
    <glyph glyph-name="ccaron" unicode="&#x10d;" horiz-adv-x="1173" 
d="M616 1198l-284 318h41l262 -291l262 291h41l-285 -318h-37zM635 -25q-222 0 -362 149t-140 386q0 234 142 386.5t360 152.5q140 0 252 -65.5t178 -186.5l-31 -17q-60 110 -165 172t-234 62q-207 0 -338 -140.5t-131 -363.5q0 -220 131 -361t338 -141q129 0 235 64
t166 178l31 -17q-66 -124 -179 -191t-253 -67z" />
    <glyph glyph-name="Dcaron" unicode="&#x10e;" horiz-adv-x="1564" 
d="M702 1608l-284 317h41l262 -291l262 291h41l-285 -317h-37zM690 1434q321 0 518 -198t197 -519q0 -327 -194.5 -522t-520.5 -195h-436v1434h436zM690 35q310 0 495 185.5t185 496.5t-185 496.5t-495 185.5h-401v-1364h401z" />
    <glyph glyph-name="dcaron" unicode="&#x10f;" horiz-adv-x="1417" 
d="M1393 1499v-383h-37v383h37zM1098 1495v-1493h-35v307q-54 -152 -180 -243t-287 -91q-223 0 -363.5 150t-140.5 387q0 235 143 388t361 153q163 0 287.5 -90t179.5 -242v774h35zM596 10q203 0 335 142t132 360q0 219 -132 361.5t-335 142.5q-207 0 -338 -140.5
t-131 -363.5q0 -221 131 -361.5t338 -140.5z" />
    <glyph glyph-name="Dcroat" unicode="&#x110;" horiz-adv-x="1601" 
d="M715 1434q217 0 378 -81.5t251 -244.5t90 -391t-90 -391t-251 -244.5t-378 -81.5h-432v700h-234v33h234v701h432zM715 35q312 0 496 176.5t184 505.5t-184 505.5t-496 176.5h-396v-666h476v-33h-476v-665h396z" />
    <glyph glyph-name="dcroat" unicode="&#x111;" horiz-adv-x="1302" 
d="M1401 1337v-34h-303v-1301h-35v307q-54 -152 -180 -243t-287 -91q-223 0 -363.5 150t-140.5 387q0 235 143 388t361 153q163 0 287.5 -90t179.5 -242v582h-248v34h248v158h35v-158h303zM596 10q203 0 335 142t132 360q0 219 -132 361.5t-335 142.5q-207 0 -338 -140.5
t-131 -363.5q0 -221 131 -361.5t338 -140.5z" />
    <glyph glyph-name="Emacron" unicode="&#x112;" horiz-adv-x="1353" 
d="M403 1747h586v-35h-586v35zM1167 35v-35h-911v1434h891v-35h-856v-709h829v-33h-829v-622h876z" />
    <glyph glyph-name="emacron" unicode="&#x113;" horiz-adv-x="1198" 
d="M334 1337h586v-34h-586v34zM158 518q0 -228 128.5 -369t338.5 -141q128 0 232.5 61.5t166.5 172.5l31 -17q-66 -120 -179 -186t-251 -66q-221 0 -361.5 150.5t-140.5 386.5q0 235 142 387t360 152q209 0 329.5 -142t120.5 -389h-917zM625 1014q-198 0 -326.5 -128
t-140.5 -335h882q-5 212 -117 337.5t-298 125.5z" />
    <glyph glyph-name="Ebreve" unicode="&#x114;" horiz-adv-x="1353" 
d="M438 1868h35q0 -94 61.5 -151.5t161.5 -57.5t162 57.5t62 151.5h34q0 -109 -70.5 -175.5t-187.5 -66.5t-187.5 66.5t-70.5 175.5zM1167 35v-35h-911v1434h891v-35h-856v-709h829v-33h-829v-622h876z" />
    <glyph glyph-name="ebreve" unicode="&#x115;" horiz-adv-x="1198" 
d="M369 1456l34 2q0 -94 62 -151.5t162 -57.5t161.5 57.5t61.5 151.5l35 -2q0 -108 -70.5 -173.5t-187.5 -65.5t-187.5 65.5t-70.5 173.5zM158 518q0 -228 128.5 -369t338.5 -141q128 0 232.5 61.5t166.5 172.5l31 -17q-66 -120 -179 -186t-251 -66q-221 0 -361.5 150.5
t-140.5 386.5q0 235 142 387t360 152q209 0 329.5 -142t120.5 -389h-917zM625 1014q-198 0 -326.5 -128t-140.5 -335h882q-5 212 -117 337.5t-298 125.5z" />
    <glyph glyph-name="Edotaccent" unicode="&#x116;" horiz-adv-x="1353" 
d="M653 1774q0 19 12 31t31 12t31 -12t12 -31t-12 -31t-31 -12t-31 12t-12 31zM1167 35v-35h-911v1434h891v-35h-856v-709h829v-33h-829v-622h876z" />
    <glyph glyph-name="edotaccent" unicode="&#x117;" horiz-adv-x="1198" 
d="M584 1364q0 19 12 31t31 12t31 -12t12 -31t-12 -31t-31 -12t-31 12t-12 31zM158 518q0 -228 128.5 -369t338.5 -141q128 0 232.5 61.5t166.5 172.5l31 -17q-66 -120 -179 -186t-251 -66q-221 0 -361.5 150.5t-140.5 386.5q0 235 142 387t360 152q209 0 329.5 -142
t120.5 -389h-917zM625 1014q-198 0 -326.5 -128t-140.5 -335h882q-5 212 -117 337.5t-298 125.5z" />
    <glyph glyph-name="Eogonek" unicode="&#x118;" horiz-adv-x="1353" 
d="M291 35h876v-35h-4q-207 -120 -207 -262q0 -74 52 -106.5t155 -32.5v-33q-241 0 -241 172q0 150 190 262h-856v1434h891v-35h-856v-709h829v-33h-829v-622z" />
    <glyph glyph-name="eogonek" unicode="&#x119;" horiz-adv-x="1214" 
d="M625 8q128 0 232.5 61.5t166.5 172.5l31 -17q-84 -150 -234 -213q-63 -49 -96 -111t-33 -122q0 -71 49 -105t152 -34h6v-33h-6q-236 0 -236 172q0 53 23.5 109t64.5 100q-59 -15 -120 -15q-221 0 -361.5 150.5t-140.5 386.5q0 235 142 387t360 152q209 0 329.5 -142
t120.5 -389h-917q0 -228 128.5 -369t338.5 -141zM625 1014q-198 0 -326.5 -128t-140.5 -335h882q-5 212 -117 337.5t-298 125.5z" />
    <glyph glyph-name="Ecaron" unicode="&#x11a;" horiz-adv-x="1353" 
d="M999 1925l-284 -317h-37l-285 317h41l262 -291l262 291h41zM1167 35v-35h-911v1434h891v-35h-856v-709h829v-33h-829v-622h876z" />
    <glyph glyph-name="ecaron" unicode="&#x11b;" horiz-adv-x="1198" 
d="M930 1516l-285 -318h-37l-284 318h41l262 -291l262 291h41zM158 518q0 -228 128.5 -369t338.5 -141q128 0 232.5 61.5t166.5 172.5l31 -17q-66 -120 -179 -186t-251 -66q-221 0 -361.5 150.5t-140.5 386.5q0 235 142 387t360 152q209 0 329.5 -142t120.5 -389h-917z
M625 1014q-198 0 -326.5 -128t-140.5 -335h882q-5 212 -117 337.5t-298 125.5z" />
    <glyph glyph-name="Gcircumflex" unicode="&#x11c;" horiz-adv-x="1640" 
d="M606 1608h-41l285 317h37l284 -317h-41l-262 290zM1487 696v-508q-129 -114 -274.5 -164.5t-342.5 -50.5q-312 8 -510 215.5t-198 526.5q0 211 91 380.5t253 265t364 95.5q215 0 376 -98t239 -277l-33 -14q-75 172 -225 263t-357 91q-192 0 -345.5 -90.5t-239.5 -252
t-86 -363.5t85 -361.5t238 -250t348 -95.5q179 0 319 45.5t261 149.5v456h-442v37h479z" />
    <glyph glyph-name="gcircumflex" unicode="&#x11d;" horiz-adv-x="1343" 
d="M403 1198h-41l285 318h37l285 -318h-41l-262 291zM1139 1024v-934q0 -246 -136.5 -385t-377.5 -139q-150 0 -266.5 53.5t-186.5 147.5l27 22q66 -90 178 -140t248 -50q221 0 350 131t129 360v246q-48 -156 -171.5 -246t-295.5 -90q-225 0 -365.5 147.5t-140.5 376.5
t140.5 377t365.5 148q172 0 295.5 -90t171.5 -246v311h35zM637 33q203 0 336 138.5t133 352.5q0 215 -133 353.5t-336 138.5t-336 -138.5t-133 -353.5q0 -214 133 -352.5t336 -138.5z" />
    <glyph glyph-name="Gbreve" unicode="&#x11e;" horiz-adv-x="1640" 
d="M868 1626q-117 0 -187.5 66t-70.5 174v2h35q0 -94 61.5 -151.5t161.5 -57.5t162 57.5t62 151.5h34v-2q0 -108 -70.5 -174t-187.5 -66zM1487 696v-508q-129 -114 -274.5 -164.5t-342.5 -50.5q-312 8 -510 215.5t-198 526.5q0 211 91 380.5t253 265t364 95.5q215 0 376 -98
t239 -277l-33 -14q-75 172 -225 263t-357 91q-192 0 -345.5 -90.5t-239.5 -252t-86 -363.5t85 -361.5t238 -250t348 -95.5q179 0 319 45.5t261 149.5v456h-442v37h479z" />
    <glyph glyph-name="gbreve" unicode="&#x11f;" horiz-adv-x="1343" 
d="M408 1458h34q0 -94 62 -151.5t162 -57.5t161.5 57.5t61.5 151.5h35v-2q0 -108 -70.5 -173.5t-187.5 -65.5t-187.5 65.5t-70.5 173.5v2zM1139 1030v-985q0 -207 -134.5 -349t-330.5 -142q-146 0 -277 83.5t-188 212.5l31 15q53 -120 175.5 -198.5t258.5 -78.5
q179 0 304.5 133t125.5 324v277q-53 -148 -178 -237t-289 -89q-224 0 -364 147t-140 379q0 226 142.5 375.5t361.5 149.5q167 0 291 -88t176 -236v307h35zM637 33q202 0 334.5 138t132.5 351q0 212 -133 351t-334 139q-207 0 -339 -137.5t-132 -352.5q0 -217 131.5 -353
t339.5 -136z" />
    <glyph glyph-name="Gdotaccent" unicode="&#x120;" horiz-adv-x="1640" 
d="M868 1731q-19 0 -31 12t-12 31t12 31t31 12t31 -12t12 -31t-12 -31t-31 -12zM1487 696v-508q-129 -114 -274.5 -164.5t-342.5 -50.5q-312 8 -510 215.5t-198 526.5q0 211 91 380.5t253 265t364 95.5q215 0 376 -98t239 -277l-33 -14q-75 172 -225 263t-357 91
q-192 0 -345.5 -90.5t-239.5 -252t-86 -363.5t85 -361.5t238 -250t348 -95.5q179 0 319 45.5t261 149.5v456h-442v37h479z" />
    <glyph glyph-name="gdotaccent" unicode="&#x121;" horiz-adv-x="1343" 
d="M623 1364q0 19 12 31t31 12t31 -12t12 -31t-12 -31t-31 -12t-31 12t-12 31zM1139 1030v-985q0 -207 -134.5 -349t-330.5 -142q-146 0 -277 83.5t-188 212.5l31 15q53 -120 175.5 -198.5t258.5 -78.5q179 0 304.5 133t125.5 324v277q-53 -148 -178 -237t-289 -89
q-224 0 -364 147t-140 379q0 226 142.5 375.5t361.5 149.5q167 0 291 -88t176 -236v307h35zM637 33q202 0 334.5 138t132.5 351q0 212 -133 351t-334 139q-207 0 -339 -137.5t-132 -352.5q0 -217 131.5 -353t339.5 -136z" />
    <glyph glyph-name="uni0122" unicode="&#x122;" horiz-adv-x="1640" 
d="M1487 696v-508q-129 -114 -274.5 -164.5t-342.5 -50.5q-312 8 -510 215.5t-198 526.5q0 211 91 380.5t253 265t364 95.5q215 0 376 -98t239 -277l-33 -14q-75 172 -225 263t-357 91q-192 0 -345.5 -90.5t-239.5 -252t-86 -363.5t85 -361.5t238 -250t348 -95.5
q179 0 319 45.5t261 149.5v456h-442v37h479zM874 -207h37l-88 -338h-30z" />
    <glyph glyph-name="uni0123" unicode="&#x123;" horiz-adv-x="1343" 
d="M670 1198h-41l198 318h45zM1139 1030v-985q0 -207 -134.5 -349t-330.5 -142q-146 0 -277 83.5t-188 212.5l31 15q53 -120 175.5 -198.5t258.5 -78.5q179 0 304.5 133t125.5 324v277q-53 -148 -178 -237t-289 -89q-224 0 -364 147t-140 379q0 226 142.5 375.5t361.5 149.5
q167 0 291 -88t176 -236v307h35zM637 33q202 0 334.5 138t132.5 351q0 212 -133 351t-334 139q-207 0 -339 -137.5t-132 -352.5q0 -217 131.5 -353t339.5 -136z" />
    <glyph glyph-name="Hcircumflex" unicode="&#x124;" horiz-adv-x="1597" 
d="M1061 1608l-262 290l-262 -290h-41l284 317h37l285 -317h-41zM1343 1434v-1434h-34v647h-1018v-647h-35v1434h35v-752h1018v752h34z" />
    <glyph glyph-name="hcircumflex" unicode="&#x125;" horiz-adv-x="1232" 
d="M485 1673l-262 291l-262 -291h-41l285 318h37l284 -318h-41zM623 1051q172 0 294.5 -122t122.5 -292v-637h-34v637q0 157 -112.5 268t-270.5 111t-270.5 -111t-112.5 -268v-637h-35v1499h35v-696q51 111 153.5 179.5t229.5 68.5z" />
    <glyph glyph-name="Hbar" unicode="&#x126;" horiz-adv-x="1662" 
d="M1520 1069h-144v-1069h-37v721h-1015v-721h-37v1069h-144v33h144v332h37v-332h1015v332h37v-332h144v-33zM1339 1069h-1015v-313h1015v313z" />
    <glyph glyph-name="hbar" unicode="&#x127;" horiz-adv-x="1232" 
d="M659 1040q187 0 282 -107.5t95 -320.5v-612h-35v612q0 396 -342 396q-187 0 -303 -111.5t-116 -304.5v-592h-35v1255h-197v33h197v211h35v-211h452v-33h-452v-495q37 129 147.5 204.5t271.5 75.5z" />
    <glyph glyph-name="Itilde" unicode="&#x128;" horiz-adv-x="552" 
d="M426 1667q-78 0 -166 88q-38 40 -68 56t-65 16q-48 0 -77.5 -40t-29.5 -108h-32q0 81 39.5 130t99.5 49q75 0 164 -89q41 -41 70 -56t65 -15q48 0 77 39.5t29 109.5h33q0 -83 -39.5 -131.5t-99.5 -48.5zM258 1434h37v-1434h-37v1434z" />
    <glyph glyph-name="itilde" unicode="&#x129;" horiz-adv-x="448" 
d="M209 1346q-68 71 -127 71q-42 0 -61 -35t-19 -112h-33q0 178 113 178q70 0 158 -88q41 -41 69.5 -56.5t59.5 -15.5q42 0 61 35.5t19 114.5h32q0 -181 -112 -181q-71 0 -160 89zM207 1024h35v-1024h-35v1024z" />
    <glyph glyph-name="Imacron" unicode="&#x12a;" horiz-adv-x="552" 
d="M-16 1747h585v-35h-585v35zM258 1434h37v-1434h-37v1434z" />
    <glyph glyph-name="imacron" unicode="&#x12b;" horiz-adv-x="448" 
d="M-20 1337h491v-34h-491v34zM207 1024h35v-1024h-35v1024z" />
    <glyph glyph-name="Ibreve" unicode="&#x12c;" horiz-adv-x="552" 
d="M276 1626q-131 0 -194.5 59.5t-63.5 180.5v2h35q0 -109 53 -159t170 -50t170.5 50t53.5 159h35v-2q0 -240 -259 -240zM258 1434h37v-1434h-37v1434z" />
    <glyph glyph-name="ibreve" unicode="&#x12d;" horiz-adv-x="448" 
d="M225 1217q-125 0 -185 59t-60 180v2h34q0 -109 50.5 -159t160.5 -50t160.5 50t50.5 159h35v-2q0 -121 -60.5 -180t-185.5 -59zM207 1024h35v-1024h-35v1024z" />
    <glyph glyph-name="Iogonek" unicode="&#x12e;" horiz-adv-x="552" 
d="M295 0q-207 -120 -207 -262q0 -71 47 -103.5t141 -35.5h19v-33h-16q-226 6 -226 172q0 156 205 270v1426h37v-1434z" />
    <glyph glyph-name="iogonek" unicode="&#x12f;" horiz-adv-x="448" 
d="M225 1407q19 0 31 -12t12 -31t-12 -31t-31 -12t-31 12t-12 31t12 31t31 12zM207 1024h35v-1024q-207 -120 -207 -262q0 -71 49 -105t152 -34h6v-33h-6q-236 0 -236 172q0 158 207 270v1016z" />
    <glyph glyph-name="Idotaccent" unicode="&#x130;" horiz-adv-x="552" 
d="M276 1731q-19 0 -31 12t-12 31t12 31t31 12t31 -12t12 -31t-12 -31t-31 -12zM258 1434h37v-1434h-37v1434z" />
    <glyph glyph-name="dotlessi" unicode="&#x131;" horiz-adv-x="448" 
d="M207 1024h35v-1024h-35v1024z" />
    <glyph glyph-name="ij" unicode="&#x133;" horiz-adv-x="897" 
d="M223 1321q-19 0 -31 12t-12 31t12 31t31 12t31 -12t12 -31t-12 -31t-31 -12zM672 1321q-19 0 -31 12t-12 31t12 31t31 12t31 -12t12 -31t-12 -31t-31 -12zM207 1024h35v-1024h-35v1024zM387 -377h90q85 0 131.5 49t46.5 140v1212h35v-1212q0 -108 -55.5 -165t-157.5 -57
h-90v33z" />
    <glyph glyph-name="Jcircumflex" unicode="&#x134;" horiz-adv-x="1202" 
d="M1212 1608l-262 290l-262 -290h-41l285 317h37l284 -317h-41zM520 -25q-186 0 -317 130.5t-131 316.5l34 18v-18q0 -169 121.5 -290.5t292.5 -121.5q170 0 291 121.5t121 290.5v1012h35v-1012q0 -122 -60 -225t-163 -162.5t-224 -59.5z" />
    <glyph glyph-name="jcircumflex" unicode="&#x135;" horiz-adv-x="448" 
d="M500 1198h-41l-234 291l-233 -291h-41l256 318h37zM207 1024h35v-1212q0 -108 -55.5 -165t-157.5 -57h-90v33h90q85 0 131.5 49t46.5 140v1212z" />
    <glyph glyph-name="uni0136" unicode="&#x136;" horiz-adv-x="1284" 
d="M1221 1434l-889 -734l878 -700h-49l-858 678l-12 -10v-668h-35v1434h35v-721l878 721h52zM678 -207h37l-88 -338h-31z" />
    <glyph glyph-name="uni0137" unicode="&#x137;" horiz-adv-x="980" 
d="M899 0l-641 524l-20 -16v-508h-33v1497h33v-944l636 471h48l-635 -477l653 -547h-41zM528 -207h37l-88 -338h-31z" />
    <glyph glyph-name="Lacute" unicode="&#x139;" horiz-adv-x="1220" 
d="M295 1608h-41l199 317h45zM1133 35v-35h-877v1434h35v-1399h842z" />
    <glyph glyph-name="lacute" unicode="&#x13a;" horiz-adv-x="436" 
d="M225 1673h-41l199 318h45zM197 0v1499h34v-1499h-34z" />
    <glyph glyph-name="uni013B" unicode="&#x13b;" horiz-adv-x="1220" 
d="M1135 35v-35h-881v1434h37v-1399h844zM653 -207h37l-88 -338h-31z" />
    <glyph glyph-name="uni013C" unicode="&#x13c;" horiz-adv-x="436" 
d="M197 0v1499h34v-1499h-34zM203 -207h37l-88 -338h-31z" />
    <glyph glyph-name="Lcaron" unicode="&#x13d;" horiz-adv-x="1220" 
d="M659 1458h37l-6 -383h-31v383zM1135 35v-35h-881v1434h37v-1399h844z" />
    <glyph glyph-name="lcaron" unicode="&#x13e;" horiz-adv-x="436" 
d="M197 0v1499h34v-1499h-34zM332 1499h37l2 -383h-39v383z" />
    <glyph glyph-name="Ldot" unicode="&#x13f;" horiz-adv-x="1232" 
d="M1135 35v-35h-881v1434h37v-1399h844zM780 692q-19 0 -31 12t-12 31t12 31t31 12t31 -12t12 -31t-12 -31t-31 -12z" />
    <glyph glyph-name="ldot" unicode="&#x140;" horiz-adv-x="436" 
d="M197 0v1499h34v-1499h-34zM420 692q-19 0 -31 12t-12 31t12 31t31 12t31 -12t12 -31t-12 -31t-31 -12z" />
    <glyph glyph-name="Lslash" unicode="&#x141;" horiz-adv-x="1245" 
d="M1159 35v-35h-880v567l-267 -137v37l267 137v830h36v-809l615 317v-37l-615 -317v-553h844z" />
    <glyph glyph-name="lslash" unicode="&#x142;" horiz-adv-x="634" 
d="M297 766v-766h-35v748l-225 -123v37l225 122v715h35v-696l281 151v-36z" />
    <glyph glyph-name="Nacute" unicode="&#x143;" horiz-adv-x="1617" 
d="M758 1608h-41l198 317h46zM1364 1434v-1434h-33l-1042 1368v-1368h-35v1434h31l1044 -1373v1373h35z" />
    <glyph glyph-name="nacute" unicode="&#x144;" horiz-adv-x="1232" 
d="M600 1198h-41l199 318h45zM616 1049q171 0 292.5 -121.5t121.5 -290.5v-637h-37v637q0 156 -109.5 266.5t-267.5 110.5q-156 0 -265 -110.5t-109 -266.5v-637h-37v1024h37v-223q48 112 149 180t225 68z" />
    <glyph glyph-name="uni0145" unicode="&#x145;" horiz-adv-x="1617" 
d="M1364 1434v-1434h-41l-1032 1378v-1378h-37v1434h41l1032 -1379v1379h37zM791 -207h36l-88 -338h-30z" />
    <glyph glyph-name="uni0146" unicode="&#x146;" horiz-adv-x="1232" 
d="M616 1049q171 0 292.5 -121.5t121.5 -290.5v-637h-37v637q0 156 -109.5 266.5t-267.5 110.5q-156 0 -265 -110.5t-109 -266.5v-637h-37v1024h37v-223q48 112 149 180t225 68zM598 -207h37l-88 -338h-31z" />
    <glyph glyph-name="Ncaron" unicode="&#x147;" horiz-adv-x="1617" 
d="M791 1608l-285 317h41l262 -291l262 291h41l-285 -317h-36zM1364 1434v-1434h-33l-1042 1368v-1368h-35v1434h31l1044 -1373v1373h35z" />
    <glyph glyph-name="ncaron" unicode="&#x148;" horiz-adv-x="1232" 
d="M924 1516l-285 -318h-37l-285 318h41l263 -291l262 291h41zM616 1049q171 0 292.5 -121.5t121.5 -290.5v-637h-37v637q0 156 -109.5 266.5t-267.5 110.5q-156 0 -265 -110.5t-109 -266.5v-637h-37v1024h37v-223q48 112 149 180t225 68z" />
    <glyph glyph-name="Eng" unicode="&#x14a;" horiz-adv-x="1617" 
d="M1364 1434v-1540q0 -108 -55.5 -165t-157.5 -57h-90v35h90q85 0 130.5 48t45.5 139v112l-1038 1362v-1368h-35v1434h31l1044 -1373v1373h35z" />
    <glyph glyph-name="eng" unicode="&#x14b;" horiz-adv-x="1232" 
d="M616 1049q171 0 292.5 -121.5t121.5 -290.5v-768q0 -95 -57.5 -146t-155.5 -51h-90v33h90q80 0 129 44t49 122l-2 766q0 156 -109.5 266.5t-267.5 110.5q-156 0 -265 -110.5t-109 -266.5v-637h-37v1024h37v-223q48 112 149 180t225 68z" />
    <glyph glyph-name="Omacron" unicode="&#x14c;" horiz-adv-x="1753" 
d="M584 1747h585v-35h-585v35zM160 717q0 157 55 294.5t149.5 235.5t228 154.5t284.5 56.5t284 -56.5t228 -154.5t149.5 -235.5t54.5 -294.5q0 -209 -93 -379t-257 -266.5t-366 -96.5q-151 0 -284.5 56.5t-228 155t-149.5 236t-55 294.5zM1554 717q0 202 -88.5 363.5
t-243.5 252t-345 90.5q-143 0 -268.5 -53t-215.5 -145.5t-142 -224.5t-52 -283q0 -202 89 -364t244 -252.5t345 -90.5t345 90.5t243.5 252.5t88.5 364z" />
    <glyph glyph-name="omacron" unicode="&#x14d;" horiz-adv-x="1290" 
d="M352 1337h586v-34h-586v34zM647 -25q-226 0 -370 150.5t-144 386.5q0 232 146.5 384.5t367.5 152.5q224 0 369 -152.5t145 -384.5q0 -228 -147.5 -382.5t-366.5 -154.5zM647 10q209 0 345 142.5t136 359.5t-136 360.5t-345 143.5q-210 0 -343.5 -141t-133.5 -363
q0 -221 133 -361.5t344 -140.5z" />
    <glyph glyph-name="Obreve" unicode="&#x14e;" horiz-adv-x="1753" 
d="M877 1626q-117 0 -188 66t-71 174v2h35q0 -94 62 -151.5t162 -57.5t161.5 57.5t61.5 151.5h35v-2q0 -108 -70.5 -174t-187.5 -66zM887 -25q-147 0 -281 58.5t-230.5 158t-154 237t-57.5 288.5q0 201 97 371.5t263.5 270t362.5 99.5q146 0 279.5 -59t230 -158t154 -236.5
t57.5 -287.5q0 -151 -57.5 -288.5t-154 -237t-230 -158t-279.5 -58.5zM887 10q140 0 267 56t218.5 151t146 226t54.5 274q0 191 -92 354t-250 257.5t-344 94.5q-140 0 -267.5 -56t-219.5 -150.5t-146.5 -225.5t-54.5 -274q0 -191 92 -354t250.5 -258t345.5 -95z" />
    <glyph glyph-name="obreve" unicode="&#x14f;" horiz-adv-x="1290" 
d="M387 1458h35q0 -94 61.5 -151.5t161.5 -57.5t161.5 57.5t61.5 151.5h35q0 -109 -70.5 -175t-187.5 -66t-187.5 66t-70.5 175zM647 -25q-226 0 -370 150.5t-144 386.5q0 232 146.5 384.5t367.5 152.5q224 0 369 -152.5t145 -384.5q0 -228 -147.5 -382.5t-366.5 -154.5z
M647 10q209 0 345 142.5t136 359.5t-136 360.5t-345 143.5q-210 0 -343.5 -141t-133.5 -363q0 -221 133 -361.5t344 -140.5z" />
    <glyph glyph-name="Ohungarumlaut" unicode="&#x150;" horiz-adv-x="1753" 
d="M883 1925h41l-260 -317h-41zM1223 1925h41l-260 -317h-41zM160 717q0 157 55 294.5t149.5 235.5t228 154.5t284.5 56.5t284 -56.5t228 -154.5t149.5 -235.5t54.5 -294.5q0 -209 -93 -379t-257 -266.5t-366 -96.5q-151 0 -284.5 56.5t-228 155t-149.5 236t-55 294.5z
M1554 717q0 202 -88.5 363.5t-243.5 252t-345 90.5q-143 0 -268.5 -53t-215.5 -145.5t-142 -224.5t-52 -283q0 -202 89 -364t244 -252.5t345 -90.5t345 90.5t243.5 252.5t88.5 364z" />
    <glyph glyph-name="ohungarumlaut" unicode="&#x151;" horiz-adv-x="1290" 
d="M432 1198h-41l199 318h45zM741 1198h-41l199 318h45zM647 -25q-226 0 -370 150.5t-144 386.5q0 232 146.5 384.5t367.5 152.5q224 0 369 -152.5t145 -384.5q0 -228 -147.5 -382.5t-366.5 -154.5zM647 10q209 0 345 142.5t136 359.5t-136 360.5t-345 143.5
q-210 0 -343.5 -141t-133.5 -363q0 -221 133 -361.5t344 -140.5z" />
    <glyph glyph-name="OE" unicode="&#x152;" horiz-adv-x="2301" 
d="M2130 35v-35h-1253q-203 0 -366.5 90t-257 254.5t-93.5 372.5t93.5 372.5t257 254.5t366.5 90h1232v-35h-870v-658h834v-34h-834v-672h891zM1202 35v1364h-325q-143 0 -268 -49.5t-215.5 -137.5t-142.5 -216t-52 -279t52 -279t142.5 -216t215.5 -137.5t268 -49.5h325z
" />
    <glyph glyph-name="oe" unicode="&#x153;" horiz-adv-x="2203" 
d="M1630 8q129 0 233.5 61.5t166.5 172.5l30 -17q-66 -120 -179 -186t-251 -66q-185 0 -316 107t-171 287q-43 -174 -179 -283t-317 -109q-226 0 -370 150.5t-144 386.5q0 232 146.5 384.5t367.5 152.5q186 0 321 -108.5t177 -285.5q42 179 173 286.5t312 107.5
q209 0 330 -142t121 -389h-918q0 -228 128.5 -369t338.5 -141zM647 10q209 0 345 142.5t136 359.5t-136 360.5t-345 143.5q-210 0 -343.5 -141t-133.5 -363q0 -221 133 -361.5t344 -140.5zM1630 1014q-198 0 -326.5 -128t-140.5 -335h883q-4 212 -117 337.5t-299 125.5z" />
    <glyph glyph-name="Racute" unicode="&#x154;" horiz-adv-x="1429" 
d="M651 1608h-41l199 317h45zM713 612h-424v-602h-35v1424h600q167 0 286.5 -120.5t119.5 -289.5q0 -170 -119.5 -291t-286.5 -121h-96l497 -589l-26 -23zM289 647h565q153 0 262 110.5t109 266.5q0 155 -109 265t-262 110h-565v-752z" />
    <glyph glyph-name="racute" unicode="&#x155;" horiz-adv-x="743" 
d="M416 1198h-41l198 318h45zM612 1040q60 0 109 -14l-10 -33q-50 13 -99 13q-154 0 -264 -109t-110 -264v-633h-33v1024h33v-227q50 109 151 176t223 67z" />
    <glyph glyph-name="uni0156" unicode="&#x156;" horiz-adv-x="1429" 
d="M713 612h-424v-602h-35v1424h600q167 0 286.5 -120.5t119.5 -289.5q0 -170 -119.5 -291t-286.5 -121h-96l497 -589l-26 -23zM289 647h565q153 0 262 110.5t109 266.5q0 155 -109 265t-262 110h-565v-752zM705 -207h36l-88 -338h-30z" />
    <glyph glyph-name="uni0157" unicode="&#x157;" horiz-adv-x="743" 
d="M612 1040q60 0 109 -14l-10 -33q-50 13 -99 13q-154 0 -264 -109t-110 -264v-633h-33v1024h33v-227q50 109 151 176t223 67zM205 -207h37l-88 -338h-31z" />
    <glyph glyph-name="Rcaron" unicode="&#x158;" horiz-adv-x="1429" 
d="M684 1608l-285 317h41l262 -291l263 291h41l-285 -317h-37zM713 612h-424v-602h-35v1424h600q167 0 286.5 -120.5t119.5 -289.5q0 -170 -119.5 -291t-286.5 -121h-96l497 -589l-26 -23zM289 647h565q153 0 262 110.5t109 266.5q0 155 -109 265t-262 110h-565v-752z" />
    <glyph glyph-name="rcaron" unicode="&#x159;" horiz-adv-x="743" 
d="M692 1516l-284 -318h-37l-285 318h41l262 -291l262 291h41zM612 1040q60 0 109 -14l-10 -33q-50 13 -99 13q-154 0 -264 -109t-110 -264v-633h-33v1024h33v-227q50 109 151 176t223 67z" />
    <glyph glyph-name="Sacute" unicode="&#x15a;" horiz-adv-x="1255" 
d="M651 1608h-41l199 317h45zM653 -25q-202 0 -339.5 86.5t-198.5 247.5l30 13q130 -312 508 -312q212 0 329.5 94.5t117.5 257.5q0 124 -82.5 200t-278.5 122l-188 45q-211 51 -303 133.5t-92 220.5q0 171 124.5 273t346.5 102q184 0 310 -70t179 -200l-31 -14
q-107 249 -458 249q-207 0 -320.5 -88.5t-113.5 -251.5q0 -123 80 -196t286 -123l197 -47q206 -50 293.5 -135t87.5 -220q0 -179 -129.5 -283t-354.5 -104z" />
    <glyph glyph-name="sacute" unicode="&#x15b;" horiz-adv-x="1005" 
d="M516 1198h-41l199 318h45zM524 -25q-149 0 -260.5 56.5t-161.5 154.5l29 17q52 -92 154 -143.5t239 -51.5q159 0 244.5 68.5t85.5 181.5q0 85 -55.5 136t-188.5 83l-221 53q-128 30 -187 90.5t-59 155.5q0 128 97.5 200.5t271.5 72.5q133 0 228 -45t139 -130l-29 -16
q-90 158 -338 158q-162 0 -247 -63t-85 -179q0 -86 54 -135.5t186 -81.5l221 -53q133 -31 191.5 -91.5t58.5 -154.5q0 -129 -96 -206t-271 -77z" />
    <glyph glyph-name="Scircumflex" unicode="&#x15c;" horiz-adv-x="1255" 
d="M367 1608h-41l284 317h37l285 -317h-41l-262 290zM756 717q206 -50 293.5 -135t87.5 -220q0 -179 -129.5 -283t-354.5 -104q-202 0 -339.5 86.5t-198.5 247.5l30 13q130 -312 508 -312q212 0 329.5 94.5t117.5 257.5q0 124 -82.5 200t-278.5 122l-188 45
q-211 51 -303 133.5t-92 220.5q0 171 124.5 273t346.5 102q184 0 310 -70t179 -200l-31 -14q-107 249 -458 249q-207 0 -320.5 -88.5t-113.5 -251.5q0 -123 80 -196t286 -123z" />
    <glyph glyph-name="scircumflex" unicode="&#x15d;" horiz-adv-x="1005" 
d="M246 1198h-41l284 318h37l285 -318h-41l-262 291zM641 504q133 -31 191.5 -91.5t58.5 -154.5q0 -129 -96 -206t-271 -77q-149 0 -260.5 56.5t-161.5 154.5l29 17q52 -92 154 -143.5t239 -51.5q159 0 244.5 68.5t85.5 181.5q0 85 -55.5 136t-188.5 83l-221 53
q-128 30 -187 90.5t-59 155.5q0 128 97.5 200.5t271.5 72.5q133 0 228 -45t139 -130l-29 -16q-90 158 -338 158q-162 0 -247 -63t-85 -179q0 -86 54 -135.5t186 -81.5z" />
    <glyph glyph-name="Scedilla" unicode="&#x15e;" horiz-adv-x="1255" 
d="M672 -25l-123 -374h-35l123 374q-196 3 -329.5 89.5t-192.5 244.5l30 13q130 -312 508 -312q212 0 329.5 94.5t117.5 257.5q0 124 -82.5 200t-278.5 122l-188 45q-211 51 -303 133.5t-92 220.5q0 171 124.5 273t346.5 102q184 0 310 -70t179 -200l-31 -14
q-107 249 -458 249q-207 0 -320.5 -88.5t-113.5 -251.5q0 -123 80 -196t286 -123l197 -47q206 -50 293.5 -135t87.5 -220q0 -175 -123.5 -279t-341.5 -108z" />
    <glyph glyph-name="scedilla" unicode="&#x15f;" horiz-adv-x="1005" 
d="M891 258q0 -127 -95 -204.5t-266 -78.5l-122 -374h-35l123 374q-139 6 -243.5 62t-150.5 149l29 17q52 -92 154 -143.5t239 -51.5q159 0 244.5 68.5t85.5 181.5q0 85 -55.5 136t-188.5 83l-221 53q-128 30 -187 90.5t-59 155.5q0 128 97.5 200.5t271.5 72.5
q133 0 228 -45t139 -130l-29 -16q-90 158 -338 158q-162 0 -247 -63t-85 -179q0 -86 54 -135.5t186 -81.5l221 -53q133 -31 191.5 -91.5t58.5 -154.5z" />
    <glyph glyph-name="Scaron" unicode="&#x160;" horiz-adv-x="1255" 
d="M610 1608l-284 317h41l262 -291l262 291h41l-285 -317h-37zM756 717q206 -50 293.5 -135t87.5 -220q0 -179 -129.5 -283t-354.5 -104q-202 0 -339.5 86.5t-198.5 247.5l30 13q130 -312 508 -312q212 0 329.5 94.5t117.5 257.5q0 124 -82.5 200t-278.5 122l-188 45
q-211 51 -303 133.5t-92 220.5q0 171 124.5 273t346.5 102q184 0 310 -70t179 -200l-31 -14q-107 249 -458 249q-207 0 -320.5 -88.5t-113.5 -251.5q0 -123 80 -196t286 -123z" />
    <glyph glyph-name="scaron" unicode="&#x161;" horiz-adv-x="1005" 
d="M489 1198l-284 318h41l262 -291l262 291h41l-285 -318h-37zM641 504q133 -31 191.5 -91.5t58.5 -154.5q0 -129 -96 -206t-271 -77q-149 0 -260.5 56.5t-161.5 154.5l29 17q52 -92 154 -143.5t239 -51.5q159 0 244.5 68.5t85.5 181.5q0 85 -55.5 136t-188.5 83l-221 53
q-128 30 -187 90.5t-59 155.5q0 128 97.5 200.5t271.5 72.5q133 0 228 -45t139 -130l-29 -16q-90 158 -338 158q-162 0 -247 -63t-85 -179q0 -86 54 -135.5t186 -81.5z" />
    <glyph glyph-name="uni0162" unicode="&#x162;" horiz-adv-x="1241" 
d="M1180 1434v-35h-541v-1399h-2l-131 -399h-35l131 399v1399h-541v35h1119z" />
    <glyph glyph-name="uni0163" unicode="&#x163;" horiz-adv-x="780" 
d="M700 991h-372v-831q0 -52 36 -88.5t89 -36.5h247v-35h-194l-131 -399h-35l133 399h-20q-66 0 -113 47t-47 113v831h-238v35h238v309h35v-309h372v-35z" />
    <glyph glyph-name="Tcaron" unicode="&#x164;" horiz-adv-x="1241" 
d="M602 1608l-285 317h41l263 -291l262 291h41l-285 -317h-37zM1180 1434v-35h-541v-1399h-37v1399h-541v35h1119z" />
    <glyph glyph-name="tcaron" unicode="&#x165;" horiz-adv-x="772" 
d="M553 1599h37l2 -382h-39v382zM360 0q-28 0 -47.5 20t-19.5 48v923h-238v35h238v309h35v-309h372v-35h-372v-923q0 -14 9.5 -23.5t22.5 -9.5h340v-35h-340z" />
    <glyph glyph-name="Tbar" unicode="&#x166;" horiz-adv-x="1241" 
d="M639 1399v-643h354v-33h-354v-723h-37v723h-354v33h354v643h-541v35h1119v-35h-541z" />
    <glyph glyph-name="tbar" unicode="&#x167;" horiz-adv-x="780" 
d="M702 567h-374v-407q0 -52 36 -88.5t89 -36.5h247v-35h-247q-66 0 -113 47t-47 113v407h-238v33h238v391h-238v35h238v309h35v-309h372v-35h-372v-391h374v-33z" />
    <glyph glyph-name="Utilde" unicode="&#x168;" horiz-adv-x="1568" 
d="M934 1667q-78 0 -166 88q-38 40 -68 56t-65 16q-48 0 -77.5 -40t-29.5 -108h-32q0 81 39.5 130t99.5 49q75 0 164 -89q41 -41 70 -56t65 -15q48 0 77 39.5t29 109.5h33q0 -83 -39.5 -131.5t-99.5 -48.5zM797 -25q-114 0 -211.5 34t-172 100t-117 171t-42.5 238v916h35
v-916q0 -126 40 -224.5t110 -159.5t160.5 -92.5t197.5 -31.5t198.5 31.5t161.5 92.5t110 159.5t40 224.5v916h34v-916q0 -133 -42.5 -238t-117.5 -171t-172.5 -100t-211.5 -34z" />
    <glyph glyph-name="utilde" unicode="&#x169;" horiz-adv-x="1224" 
d="M592 1346q-38 39 -67.5 55t-65.5 16q-48 0 -77.5 -39.5t-29.5 -107.5h-33q0 81 40 129.5t100 48.5q76 0 164 -88q41 -41 70.5 -56.5t64.5 -15.5q48 0 77 40t29 110h33q0 -83 -39.5 -132t-99.5 -49q-77 0 -166 89zM1020 1024v-1024h-35v221q-48 -110 -150.5 -178
t-226.5 -68q-170 0 -290.5 121t-120.5 291v637h34v-637q0 -156 110.5 -266.5t266.5 -110.5t266.5 110.5t110.5 266.5v637h35z" />
    <glyph glyph-name="Umacron" unicode="&#x16a;" horiz-adv-x="1568" 
d="M492 1747h585v-35h-585v35zM797 -25q-114 0 -211.5 34t-172 100t-117 171t-42.5 238v916h35v-916q0 -126 40 -224.5t110 -159.5t160.5 -92.5t197.5 -31.5t198.5 31.5t161.5 92.5t110 159.5t40 224.5v916h34v-916q0 -133 -42.5 -238t-117.5 -171t-172.5 -100t-211.5 -34z
" />
    <glyph glyph-name="umacron" unicode="&#x16b;" horiz-adv-x="1224" 
d="M315 1337h586v-34h-586v34zM1020 1024v-1024h-35v221q-48 -110 -150.5 -178t-226.5 -68q-170 0 -290.5 121t-120.5 291v637h34v-637q0 -156 110.5 -266.5t266.5 -110.5t266.5 110.5t110.5 266.5v637h35z" />
    <glyph glyph-name="Ubreve" unicode="&#x16c;" horiz-adv-x="1568" 
d="M784 1626q-117 0 -187.5 66t-70.5 174v2h35q0 -94 61.5 -151.5t161.5 -57.5t162 57.5t62 151.5h34v-2q0 -108 -70.5 -174t-187.5 -66zM797 -25q-114 0 -211.5 34t-172 100t-117 171t-42.5 238v916h35v-916q0 -126 40 -224.5t110 -159.5t160.5 -92.5t197.5 -31.5
t198.5 31.5t161.5 92.5t110 159.5t40 224.5v916h34v-916q0 -133 -42.5 -238t-117.5 -171t-172.5 -100t-211.5 -34z" />
    <glyph glyph-name="ubreve" unicode="&#x16d;" horiz-adv-x="1224" 
d="M350 1458h35q0 -94 61.5 -151.5t161.5 -57.5t161.5 57.5t61.5 151.5h35v-2q0 -108 -70.5 -173.5t-187.5 -65.5t-187.5 65.5t-70.5 173.5v2zM1020 1024v-1024h-35v221q-48 -110 -150.5 -178t-226.5 -68q-170 0 -290.5 121t-120.5 291v637h34v-637q0 -156 110.5 -266.5
t266.5 -110.5t266.5 110.5t110.5 266.5v637h35z" />
    <glyph glyph-name="Uring" unicode="&#x16e;" horiz-adv-x="1568" 
d="M784 1618q-90 0 -149.5 58t-59.5 145t59.5 144.5t149.5 57.5t149.5 -57.5t59.5 -144.5t-59.5 -145t-149.5 -58zM784 1651q78 0 126 47.5t48 122.5t-48 122.5t-126 47.5t-126 -47.5t-48 -122.5t48 -122.5t126 -47.5zM797 -25q-114 0 -211.5 34t-172 100t-117 171
t-42.5 238v916h35v-916q0 -126 40 -224.5t110 -159.5t160.5 -92.5t197.5 -31.5t198.5 31.5t161.5 92.5t110 159.5t40 224.5v916h34v-916q0 -133 -42.5 -238t-117.5 -171t-172.5 -100t-211.5 -34z" />
    <glyph glyph-name="uring" unicode="&#x16f;" horiz-adv-x="1224" 
d="M399 1411q0 87 59.5 145t149.5 58t149.5 -58t59.5 -145t-59.5 -145t-149.5 -58t-149.5 58t-59.5 145zM782 1411q0 75 -48 122.5t-126 47.5t-126 -47.5t-48 -122.5t48 -122.5t126 -47.5t126 47.5t48 122.5zM1020 1024v-1024h-35v221q-48 -110 -150.5 -178t-226.5 -68
q-170 0 -290.5 121t-120.5 291v637h34v-637q0 -156 110.5 -266.5t266.5 -110.5t266.5 110.5t110.5 266.5v637h35z" />
    <glyph glyph-name="Uhungarumlaut" unicode="&#x170;" horiz-adv-x="1568" 
d="M791 1925h40l-260 -317h-41zM1130 1925h41l-260 -317h-41zM797 -25q-114 0 -211.5 34t-172 100t-117 171t-42.5 238v916h35v-916q0 -126 40 -224.5t110 -159.5t160.5 -92.5t197.5 -31.5t198.5 31.5t161.5 92.5t110 159.5t40 224.5v916h34v-916q0 -133 -42.5 -238
t-117.5 -171t-172.5 -100t-211.5 -34z" />
    <glyph glyph-name="uhungarumlaut" unicode="&#x171;" horiz-adv-x="1224" 
d="M395 1198h-41l199 318h45zM735 1198h-41l199 318h45zM1020 1024v-1024h-35v221q-48 -110 -150.5 -178t-226.5 -68q-170 0 -290.5 121t-120.5 291v637h34v-637q0 -156 110.5 -266.5t266.5 -110.5t266.5 110.5t110.5 266.5v637h35z" />
    <glyph glyph-name="Uogonek" unicode="&#x172;" horiz-adv-x="1568" 
d="M1307 1434h34v-916q0 -199 -91 -328.5t-246 -181.5q-199 -121 -199 -258q0 -71 49 -105t152 -34h6v-33h-6q-236 0 -236 172q0 131 150 236q-72 -11 -123 -11q-114 0 -211.5 34t-172 100t-117 171t-42.5 238v916h35v-916q0 -126 40 -224.5t110 -159.5t160.5 -92.5
t197.5 -31.5t198.5 31.5t161.5 92.5t110 159.5t40 224.5v916z" />
    <glyph glyph-name="uogonek" unicode="&#x173;" horiz-adv-x="1224" 
d="M985 1024h35v-1024q-207 -120 -207 -262q0 -71 49 -105t152 -34h6v-33h-6q-236 0 -236 172q0 158 207 270v213q-48 -110 -150.5 -178t-226.5 -68q-170 0 -290.5 121t-120.5 291v637h34v-637q0 -156 110.5 -266.5t266.5 -110.5t266.5 110.5t110.5 266.5v637z" />
    <glyph glyph-name="Wcircumflex" unicode="&#x174;" horiz-adv-x="2070" 
d="M774 1608h-41l285 317h37l284 -317h-41l-262 290zM1980 1434h35l-471 -1434h-55l-442 1368l-447 -1368h-47l-481 1434h32l471 -1397l457 1397h29l455 -1409z" />
    <glyph glyph-name="wcircumflex" unicode="&#x175;" horiz-adv-x="1652" 
d="M565 1198h-41l285 318h37l284 -318h-40l-263 291zM1591 1024l-377 -1024h-36l-355 969l-354 -969h-37l-375 1024h35l359 -975l356 975h33l356 -975l358 975h37z" />
    <glyph glyph-name="Ycircumflex" unicode="&#x176;" horiz-adv-x="1241" 
d="M358 1608h-41l285 317h37l285 -317h-41l-262 290zM1249 1434l-598 -820v-614h-35v614l-585 820h43l559 -785l571 783z" />
    <glyph glyph-name="ycircumflex" unicode="&#x177;" horiz-adv-x="1052" 
d="M266 1198h-41l285 318h37l284 -318h-40l-263 291zM1004 1024l-525 -1210q-58 -133 -123.5 -178.5t-193.5 -45.5h-109v33h109q111 0 171 41t107 150l76 176l-459 1034h39l441 -989l428 989h39z" />
    <glyph glyph-name="Ydieresis" unicode="&#x178;" horiz-adv-x="1241" 
d="M412 1731q-19 0 -31 12t-12 31t12 31t31 12t31 -12t12 -31t-12 -31t-31 -12zM829 1731q-19 0 -31 12t-12 31t12 31t31 12t31 -12t12 -31t-12 -31t-31 -12zM1249 1434l-598 -820v-614h-35v614l-585 820h43l559 -785l571 783z" />
    <glyph glyph-name="Zacute" unicode="&#x179;" horiz-adv-x="1228" 
d="M571 1608h-41l258 317h46zM1126 35v-35h-1024v31l963 1368h-942v35h991v-31l-962 -1368h974z" />
    <glyph glyph-name="zacute" unicode="&#x17a;" horiz-adv-x="987" 
d="M481 1198h-41l199 318h45zM872 33v-33h-761v27l708 964h-688v33h733v-27l-708 -964h716z" />
    <glyph glyph-name="Zdotaccent" unicode="&#x17b;" horiz-adv-x="1228" 
d="M623 1731q-19 0 -31 12t-12 31t12 31t31 12t31 -12t12 -31t-12 -31t-31 -12zM1126 35v-35h-1024v31l963 1368h-942v35h991v-31l-962 -1368h974z" />
    <glyph glyph-name="zdotaccent" unicode="&#x17c;" horiz-adv-x="987" 
d="M498 1321q-19 0 -31 12t-12 31t12 31t31 12t31 -12t12 -31t-12 -31t-31 -12zM872 33v-33h-761v27l708 964h-688v33h733v-27l-708 -964h716z" />
    <glyph glyph-name="Zcaron" unicode="&#x17d;" horiz-adv-x="1228" 
d="M604 1608l-285 317h41l263 -291l262 291h41l-285 -317h-37zM1126 35v-35h-1024v31l963 1368h-942v35h991v-31l-962 -1368h974z" />
    <glyph glyph-name="zcaron" unicode="&#x17e;" horiz-adv-x="987" 
d="M801 1516l-285 -318h-37l-284 318h41l262 -291l262 291h41zM872 33v-33h-761v27l708 964h-688v33h733v-27l-708 -964h716z" />
    <glyph glyph-name="uni01CD" unicode="&#x1cd;" horiz-adv-x="1376" 
d="M670 1608l-285 317h41l262 -291l262 291h41l-284 -317h-37zM1073 442l-799 2l-190 -444h-39l617 1434h24l617 -1434h-39zM1059 477l-385 897l-385 -897h770z" />
    <glyph glyph-name="uni01CE" unicode="&#x1ce;" horiz-adv-x="1024" 
d="M621 1198l-285 318h41l262 -291l262 291h41l-285 -318h-36zM926 0h-35v264q-37 -130 -147.5 -205t-270.5 -75q-165 0 -257.5 79.5t-92.5 217.5q0 192 201 270t567 31v116q0 157 -83.5 237.5t-238.5 80.5q-243 0 -356 -189l-29 19q60 99 158.5 151t226.5 52
q171 0 264 -91.5t93 -259.5v-698zM891 543q-222 32 -384.5 13.5t-254.5 -90t-92 -185.5q0 -125 83 -195t230 -70q191 0 304.5 112.5t113.5 307.5v107z" />
    <glyph glyph-name="uni01E2" unicode="&#x1e2;" horiz-adv-x="2197" 
d="M1751 1712h-586v35h586v-35zM2025 35v-35h-927v424h-709l-305 -424h-43l1034 1434h930v-35h-870v-658h837v-34h-837v-672h890zM1098 459v946l-682 -946h682z" />
    <glyph glyph-name="uni01E3" unicode="&#x1e3;" horiz-adv-x="1968" 
d="M1339 1337v-34h-585v34h585zM1395 8q128 0 232.5 61.5t166.5 172.5l31 -17q-66 -120 -179 -186t-251 -66q-171 0 -298 94.5t-177 254.5q-17 -111 -84.5 -189t-160.5 -113.5t-202 -35.5q-165 0 -257.5 79.5t-92.5 217.5q0 192 201 270t567 31v116q0 157 -83.5 237.5
t-238.5 80.5q-243 0 -356 -189l-29 19q60 99 158.5 151t226.5 52q168 0 260 -87t97 -249q53 154 178 245t291 91q209 0 329.5 -142t120.5 -389h-917q0 -228 128.5 -369t338.5 -141zM1395 1014q-198 0 -326.5 -128t-140.5 -335h882q-5 212 -117 337.5t-298 125.5zM891 412
v131q-222 32 -384.5 13.5t-254.5 -90t-92 -185.5q0 -125 83 -195t230 -70q205 0 311.5 108.5t106.5 287.5z" />
    <glyph glyph-name="Gcaron" unicode="&#x1e6;" horiz-adv-x="1640" 
d="M850 1608l-285 317h41l262 -291l262 291h41l-284 -317h-37zM1487 696v-508q-129 -114 -274.5 -164.5t-342.5 -50.5q-312 8 -510 215.5t-198 526.5q0 211 91 380.5t253 265t364 95.5q215 0 376 -98t239 -277l-33 -14q-75 172 -225 263t-357 91q-192 0 -345.5 -90.5
t-239.5 -252t-86 -363.5t85 -361.5t238 -250t348 -95.5q179 0 319 45.5t261 149.5v456h-442v37h479z" />
    <glyph glyph-name="gcaron" unicode="&#x1e7;" horiz-adv-x="1343" 
d="M969 1516l-285 -318h-37l-285 318h41l263 -291l262 291h41zM1139 1030v-985q0 -207 -134.5 -349t-330.5 -142q-146 0 -277 83.5t-188 212.5l31 15q53 -120 175.5 -198.5t258.5 -78.5q179 0 304.5 133t125.5 324v277q-53 -148 -178 -237t-289 -89q-224 0 -364 147
t-140 379q0 226 142.5 375.5t361.5 149.5q167 0 291 -88t176 -236v307h35zM637 33q202 0 334.5 138t132.5 351q0 212 -133 351t-334 139q-207 0 -339 -137.5t-132 -352.5q0 -217 131.5 -353t339.5 -136z" />
    <glyph glyph-name="uni01E8" unicode="&#x1e8;" horiz-adv-x="1284" 
d="M1022 1925l-285 -317h-37l-284 317h41l262 -291l262 291h41zM1221 1434l-889 -734l878 -700h-49l-858 678l-12 -10v-668h-35v1434h35v-721l878 721h52z" />
    <glyph glyph-name="uni01E9" unicode="&#x1e9;" horiz-adv-x="974" 
d="M205 1673l-285 318h41l262 -291l262 291h41l-284 -318h-37zM899 0l-641 524l-20 -16v-508h-33v1497h33v-944l636 471h48l-635 -477l653 -547h-41z" />
    <glyph glyph-name="AEacute" unicode="&#x1fc;" horiz-adv-x="2197" 
d="M1407 1608h-41l199 317h45zM2025 35v-35h-927v424h-709l-305 -424h-43l1034 1434h930v-35h-870v-658h837v-34h-837v-672h890zM1098 459v946l-682 -946h682z" />
    <glyph glyph-name="aeacute" unicode="&#x1fd;" horiz-adv-x="1968" 
d="M1354 1516l-203 -318h-41l199 318h45zM1395 8q128 0 232.5 61.5t166.5 172.5l31 -17q-66 -120 -179 -186t-251 -66q-171 0 -298 94.5t-177 254.5q-17 -111 -84.5 -189t-160.5 -113.5t-202 -35.5q-165 0 -257.5 79.5t-92.5 217.5q0 192 201 270t567 31v116
q0 157 -83.5 237.5t-238.5 80.5q-243 0 -356 -189l-29 19q60 99 158.5 151t226.5 52q168 0 260 -87t97 -249q53 154 178 245t291 91q209 0 329.5 -142t120.5 -389h-917q0 -228 128.5 -369t338.5 -141zM1395 1014q-198 0 -326.5 -128t-140.5 -335h882q-5 212 -117 337.5
t-298 125.5zM891 412v131q-222 32 -384.5 13.5t-254.5 -90t-92 -185.5q0 -125 83 -195t230 -70q205 0 311.5 108.5t106.5 287.5z" />
    <glyph glyph-name="Oslashacute" unicode="&#x1fe;" horiz-adv-x="1753" 
d="M897 1608h-41l199 317h45zM1593 717q0 -209 -93 -379t-257 -266.5t-366 -96.5q-150 0 -280.5 54.5t-227.5 154.5l-174 -174l-25 27l174 174q-184 203 -184 506q0 157 55 294.5t149.5 235.5t228 154.5t284.5 56.5q149 0 278.5 -54t228.5 -153l175 174l26 -24l-176 -176
q184 -210 184 -508zM199 717q0 -140 44.5 -263.5t125.5 -217.5l989 989q-192 198 -481 198q-143 0 -268.5 -53t-215.5 -145.5t-142 -224.5t-52 -283zM1554 717q0 287 -172 481l-989 -989q92 -95 216.5 -147t267.5 -52q190 0 345 90.5t243.5 252.5t88.5 364z" />
    <glyph glyph-name="oslashacute" unicode="&#x1ff;" horiz-adv-x="1298" 
d="M590 1198h-41l258 318h45zM1042 879q121 -146 121 -367q0 -238 -141 -387.5t-373 -149.5q-224 0 -368 144l-134 -133l-24 26l133 133q-121 146 -121 367q0 238 141 387.5t373 149.5q225 0 369 -144l131 131l27 -24zM649 1016q-212 0 -344.5 -139t-132.5 -365
q0 -207 113 -342l708 709q-131 137 -344 137zM649 8q212 0 344.5 139t132.5 365q0 204 -110 342l-709 -709q131 -137 342 -137z" />
    <glyph glyph-name="uni0218" unicode="&#x218;" horiz-adv-x="1255" 
d="M653 -25q-202 0 -339.5 86.5t-198.5 247.5l30 13q130 -312 508 -312q212 0 329.5 94.5t117.5 257.5q0 124 -82.5 200t-278.5 122l-188 45q-211 51 -303 133.5t-92 220.5q0 171 124.5 273t346.5 102q184 0 310 -70t179 -200l-31 -14q-107 249 -458 249
q-207 0 -320.5 -88.5t-113.5 -251.5q0 -123 80 -196t286 -123l197 -47q206 -50 293.5 -135t87.5 -220q0 -179 -129.5 -283t-354.5 -104zM635 -207h37l-88 -338h-31z" />
    <glyph glyph-name="uni0219" unicode="&#x219;" horiz-adv-x="1005" 
d="M524 -25q-149 0 -260.5 56.5t-161.5 154.5l29 17q52 -92 154 -143.5t239 -51.5q159 0 244.5 68.5t85.5 181.5q0 85 -55.5 136t-188.5 83l-221 53q-128 30 -187 90.5t-59 155.5q0 128 97.5 200.5t271.5 72.5q133 0 228 -45t139 -130l-29 -16q-90 158 -338 158
q-162 0 -247 -63t-85 -179q0 -86 54 -135.5t186 -81.5l221 -53q133 -31 191.5 -91.5t58.5 -154.5q0 -129 -96 -206t-271 -77zM494 -207h36l-88 -338h-30z" />
    <glyph glyph-name="uni021A" unicode="&#x21a;" horiz-adv-x="1241" 
d="M602 1399h-541v35h1119v-35h-541v-1399h-37v1399zM592 -207h37l-88 -338h-31z" />
    <glyph glyph-name="uni021B" unicode="&#x21b;" horiz-adv-x="780" 
d="M293 991h-240v33h240v311h35v-311h370v-33h-370v-770q0 -96 48 -142t148 -46h178v-33h-178q-116 0 -173.5 53.5t-57.5 167.5v770zM461 -207h28l-81 -338h-29z" />
    <glyph glyph-name="uni0237" unicode="&#x237;" horiz-adv-x="448" 
d="M-61 -377h90q85 0 131.5 49t46.5 140v1212h35v-1212q0 -108 -55.5 -165t-157.5 -57h-90v33z" />
    <glyph glyph-name="circumflex" unicode="&#x2c6;" horiz-adv-x="1269" 
d="M897 1198l-262 291l-262 -291h-41l284 318h37l285 -318h-41z" />
    <glyph glyph-name="caron" unicode="&#x2c7;" horiz-adv-x="1269" 
d="M938 1516l-285 -318h-37l-284 318h41l262 -291l262 291h41z" />
    <glyph glyph-name="breve" unicode="&#x2d8;" horiz-adv-x="1269" 
d="M635 1217q-131 0 -194.5 59t-63.5 180v2h35q0 -109 53 -159t170 -50t170 50t53 159h35v-2q0 -121 -63.5 -180t-194.5 -59z" />
    <glyph glyph-name="dotaccent" unicode="&#x2d9;" horiz-adv-x="1269" 
d="M635 1321q-19 0 -31 12t-12 31t12 31t31 12t31 -12t12 -31t-12 -31t-31 -12z" />
    <glyph glyph-name="ring" unicode="&#x2da;" horiz-adv-x="1269" 
d="M635 1208q-90 0 -149.5 58t-59.5 145t59.5 145t149.5 58t149.5 -58t59.5 -145t-59.5 -145t-149.5 -58zM635 1241q78 0 126 47.5t48 122.5t-48 122.5t-126 47.5t-126 -47.5t-48 -122.5t48 -122.5t126 -47.5z" />
    <glyph glyph-name="ogonek" unicode="&#x2db;" horiz-adv-x="1269" 
d="M696 -434h-6q-235 0 -235 172q0 159 213 274l28 -12q-207 -120 -207 -262q0 -71 49 -105t152 -34h6v-33z" />
    <glyph glyph-name="tilde" unicode="&#x2dc;" horiz-adv-x="1269" 
d="M784 1257q-77 0 -166 89q-38 39 -67.5 55t-65.5 16q-48 0 -77 -39.5t-29 -107.5h-33q0 81 39.5 129.5t99.5 48.5q76 0 164 -88q41 -41 70.5 -56.5t64.5 -15.5q48 0 77.5 40.5t29.5 109.5h33q0 -83 -40 -132t-100 -49z" />
    <glyph glyph-name="hungarumlaut" unicode="&#x2dd;" horiz-adv-x="1269" 
d="M694 1516h41l-260 -318h-41zM1034 1516h41l-260 -318h-41z" />
    <glyph glyph-name="gravecomb" unicode="&#x300;" 
d="M-627 1198l-262 318h45l258 -318h-41z" />
    <glyph glyph-name="acutecomb" unicode="&#x301;" 
d="M-424 1516h45l-262 -318h-41z" />
    <glyph glyph-name="uni0302" unicode="&#x302;" 
d="M-373 1198l-262 291l-262 -291h-41l285 318h37l284 -318h-41z" />
    <glyph glyph-name="tildecomb" unicode="&#x303;" 
d="M-485 1257q-77 0 -166 89q-38 39 -67.5 55t-65.5 16q-48 0 -77.5 -39.5t-29.5 -107.5h-33q0 81 40 129.5t100 48.5q75 0 163 -88q41 -41 70.5 -56.5t65.5 -15.5q48 0 77 40t29 110h33q0 -83 -39.5 -132t-99.5 -49z" />
    <glyph glyph-name="uni0304" unicode="&#x304;" 
d="M-928 1337h586v-34h-586v34z" />
    <glyph glyph-name="uni0306" unicode="&#x306;" 
d="M-635 1217q-131 0 -194.5 59t-63.5 180v2h35q0 -109 53 -159t170 -50t170 50t53 159h35v-2q0 -121 -63.5 -180t-194.5 -59z" />
    <glyph glyph-name="uni0307" unicode="&#x307;" 
d="M-635 1321q-19 0 -31 12t-12 31t12 31t31 12t31 -12t12 -31t-12 -31t-31 -12z" />
    <glyph glyph-name="uni0308" unicode="&#x308;" 
d="M-844 1321q-19 0 -31 12t-12 31t12 31t31 12t31 -12t12 -31t-12 -31t-31 -12zM-426 1321q-19 0 -31 12t-12 31t12 31t31 12t31 -12t12 -31t-12 -31t-31 -12z" />
    <glyph glyph-name="uni030A" unicode="&#x30a;" 
d="M-635 1208q-90 0 -149.5 58t-59.5 145t59.5 145t149.5 58t149.5 -58t59.5 -145t-59.5 -145t-149.5 -58zM-635 1241q78 0 126 47.5t48 122.5t-48 122.5t-126 47.5t-126 -47.5t-48 -122.5t48 -122.5t126 -47.5z" />
    <glyph glyph-name="uni030B" unicode="&#x30b;" 
d="M-575 1516h40l-260 -318h-41zM-236 1516h41l-260 -318h-41z" />
    <glyph glyph-name="uni030C" unicode="&#x30c;" 
d="M-332 1516l-284 -318h-37l-285 318h41l262 -291l262 291h41z" />
    <glyph glyph-name="uni0312" unicode="&#x312;" 
 />
    <glyph glyph-name="uni0315" unicode="&#x315;" 
d="M-653 1536h37l-7 -383h-30v383z" />
    <glyph glyph-name="uni0326" unicode="&#x326;" 
d="M-653 -207h37l-89 -338h-30z" />
    <glyph glyph-name="uni0327" unicode="&#x327;" 
d="M-633 6h35l-133 -405h-35z" />
    <glyph glyph-name="uni0328" unicode="&#x328;" 
d="M-573 -434h-7q-235 0 -235 172q0 159 213 274l29 -12q-207 -120 -207 -262q0 -72 43.5 -105.5t144.5 -33.5h19v-33z" />
    <glyph glyph-name="uni060C" unicode="&#x60c;" horiz-adv-x="364" 
d="M139 -6h-37l97 528h30z" />
    <glyph glyph-name="uni0615" unicode="&#x615;" 
d="M606 1604q53 0 78 -29t25 -90v-115h-308v31h50v299h30v-176q65 80 125 80zM678 1401v94q0 78 -72 78q-23 0 -57 -22.5t-66 -59.5v-90h195z" />
    <glyph glyph-name="uni061B" unicode="&#x61b;" horiz-adv-x="385" 
d="M229 698h-36l96 529h30zM207 84q19 0 31 -12t12 -31t-12 -31t-31 -12t-31 12t-12 31t12 31t31 12z" />
    <glyph glyph-name="uni061F" unicode="&#x61f;" horiz-adv-x="915" 
d="M492 516v-147h-37v147q0 89 -21 131t-102 109l-101 84q-170 140 -170 311q0 141 95.5 224t251.5 83q142 0 255 -71.5t171 -202.5l-31 -17q-55 123 -160 189.5t-235 66.5q-137 0 -223.5 -72t-86.5 -200q0 -152 144 -272l100 -84q97 -79 123.5 -129t26.5 -150zM473 0
q-19 0 -31 12t-12 31t12 31t31 12t31 -12t12 -31t-12 -31t-31 -12z" />
    <glyph glyph-name="uni0621" unicode="&#x621;" horiz-adv-x="1030" 
d="M887 31v-31h-785v29h275q-99 43 -160 133.5t-61 199.5v115q0 149 105 255t253 106q94 0 175.5 -45t131.5 -123q56 -86 56 -193h-31q0 100 -49 176q-46 73 -120 113.5t-163 40.5q-136 0 -232 -96.5t-96 -233.5v-115q0 -136 101 -233.5t237 -97.5h363z" />
    <glyph glyph-name="uni0622" unicode="&#x622;" horiz-adv-x="440" 
d="M-14 1616l-23 31l105 79q15 11 26 -4q21 -26 68.5 -45.5t95.5 -19.5q33 0 86 18t88 39l23 -31q-38 -26 -97.5 -45.5t-99.5 -19.5q-97 0 -170 59q-13 7 -25 -2zM205 0v1434h31v-1434h-31z" />
    <glyph glyph-name="uni0623" unicode="&#x623;" horiz-adv-x="399" 
d="M346 1583v-27h-297v27h72q-60 49 -60 117t43.5 111.5t102.5 43.5q61 0 103 -44.5t42 -98.5h-28q0 44 -35.5 79.5t-81.5 35.5q-51 0 -83 -35t-32 -92q0 -48 33 -82.5t82 -34.5h139zM184 14v1420h31v-1420h-31z" />
    <glyph glyph-name="uni0624" unicode="&#x624;" horiz-adv-x="1060" 
d="M780 1098v-27h-297v27h72q-59 48 -59 116t43 112t102 44q61 0 103 -44.5t42 -98.5h-28q0 44 -35.5 79t-81.5 35q-51 0 -83 -35t-32 -92q0 -48 33 -82t82 -34h139zM897 901v-969q0 -180 -119 -290q-87 -83 -211 -115.5t-295 -32.5l2 33q1 -1 34.5 -2t89.5 3.5t117.5 16.5
t129 42.5t115.5 74.5q106 100 106 270v68h-331q-181 0 -296.5 129t-115.5 317q0 127 51 230.5t146 164t215 60.5h362zM535 31h331v837h-331q-168 0 -274.5 -121t-106.5 -301q0 -175 107 -295t274 -120z" />
    <glyph glyph-name="uni0625" unicode="&#x625;" horiz-adv-x="399" 
d="M184 14v1405h31v-1405h-31zM346 -436v-27h-297v27h72q-60 49 -60 117t43.5 111.5t102.5 43.5q61 0 103 -44.5t42 -98.5h-28q0 44 -35.5 79t-81.5 35q-51 0 -83 -34.5t-32 -91.5q0 -48 33 -82.5t82 -34.5h139z" />
    <glyph glyph-name="uni0626" unicode="&#x626;" horiz-adv-x="1918" 
d="M1776 901v-897h-31v866h-408q-78 0 -134 -58t-56 -138v-963q0 -35 -26 -59.5t-60 -24.5h-504q-117 0 -217 58t-158.5 158t-58.5 218v246h31v-246q0 -167 118 -285t285 -118h504q21 0 36 15t15 38v965q0 93 66 159t159 66h439zM297 471v-27h-297v27h72q-60 49 -60 117
t43.5 111.5t102.5 43.5q61 0 103 -44.5t42 -98.5h-29q0 44 -35 79.5t-81 35.5q-51 0 -83 -35t-32 -92q0 -48 33 -82.5t82 -34.5h139z" />
    <glyph glyph-name="uni0627" unicode="&#x627;" horiz-adv-x="440" 
d="M205 0v1434h31v-1434h-31z" />
    <glyph glyph-name="uni0628" unicode="&#x628;" horiz-adv-x="1667" 
d="M1503 881v-815q0 -27 -21 -46.5t-48 -19.5h-977q-137 0 -235.5 97.5t-98.5 232.5v323h35v-323q0 -125 86.5 -212t212.5 -87h977q14 0 24 10t10 25v815h35zM803 -315q0 18 13.5 31.5t31.5 13.5q20 0 34.5 -13t14.5 -32q0 -20 -14.5 -33.5t-34.5 -13.5q-18 0 -31.5 13.5
t-13.5 33.5z" />
    <glyph glyph-name="uni0629" unicode="&#x629;" horiz-adv-x="985" 
d="M453 1159q20 0 34.5 -13t14.5 -32q0 -20 -14.5 -33.5t-34.5 -13.5q-18 0 -31.5 13.5t-13.5 33.5q0 18 13.5 31.5t31.5 13.5zM637 1159q20 0 34.5 -13t14.5 -32q0 -20 -14.5 -33.5t-34.5 -13.5q-18 0 -31.5 13.5t-13.5 33.5q0 18 13.5 31.5t31.5 13.5zM123 901h391
q161 0 273 -114t112 -277v-119q0 -164 -108.5 -277.5t-276.5 -113.5q-171 0 -281 97.5t-110 258.5v545zM514 31q156 0 255 103t99 255v121q0 151 -102.5 255.5t-251.5 104.5h-360v-505q0 -85 31 -151t83 -105t114.5 -58.5t131.5 -19.5z" />
    <glyph glyph-name="uni062A" unicode="&#x62a;" horiz-adv-x="1667" 
d="M709 948q20 0 34.5 -13t14.5 -32q0 -20 -14.5 -33.5t-34.5 -13.5q-18 0 -31.5 13.5t-13.5 33.5q0 18 13.5 31.5t31.5 13.5zM893 948q20 0 34.5 -13t14.5 -32q0 -20 -14.5 -33.5t-34.5 -13.5q-18 0 -31.5 13.5t-13.5 33.5q0 18 13.5 31.5t31.5 13.5zM1503 881v-815
q0 -27 -21 -46.5t-48 -19.5h-977q-137 0 -235.5 97.5t-98.5 232.5v323h35v-323q0 -125 86.5 -212t212.5 -87h977q14 0 24 10t10 25v815h35z" />
    <glyph glyph-name="uni062B" unicode="&#x62b;" horiz-adv-x="1646" 
d="M807 1116q20 0 34.5 -13t14.5 -32q0 -20 -14.5 -33.5t-34.5 -13.5q-18 0 -31.5 13.5t-13.5 33.5q0 18 13.5 31.5t31.5 13.5zM715 948q20 0 34.5 -13t14.5 -32q0 -20 -14.5 -33.5t-34.5 -13.5q-18 0 -31.5 13.5t-13.5 33.5q0 18 13.5 31.5t31.5 13.5zM899 948
q20 0 34.5 -13t14.5 -32q0 -20 -14.5 -33.5t-34.5 -13.5q-18 0 -31.5 13.5t-13.5 33.5q0 18 13.5 31.5t31.5 13.5zM1503 881v-815q0 -27 -21 -46.5t-48 -19.5h-977q-137 0 -235.5 97.5t-98.5 232.5v323h35v-323q0 -125 86.5 -212t212.5 -87h977q14 0 24 10t10 25v815h35z
" />
    <glyph glyph-name="uni062C" unicode="&#x62c;" horiz-adv-x="1550" 
d="M430 0q-116 0 -196 -80t-80 -196t80.5 -196.5t195.5 -80.5h440v-31h-440q-127 0 -217 90t-90 218t89.5 217.5t217.5 89.5h817q-50 30 -80 83t-30 117v150q0 258 -158 383q-59 46 -140.5 71.5t-150.5 31t-145 0.5t-111 -10.5t-61 -11.5l-4 -1l-7 28q20 5 51 11t112 13
t155 2.5t164 -32t155 -78.5q170 -132 170 -407v-150q0 -83 55.5 -141.5t133.5 -58.5h14v-31h-940zM496 -244q20 0 34.5 -13t14.5 -32q0 -20 -14.5 -33.5t-34.5 -13.5q-18 0 -31.5 13.5t-13.5 33.5q0 18 13.5 31.5t31.5 13.5z" />
    <glyph glyph-name="uni062D" unicode="&#x62d;" horiz-adv-x="1550" 
d="M430 0q-116 0 -196 -80t-80 -196t80.5 -196.5t195.5 -80.5h440v-31h-440q-127 0 -217 90t-90 218t89.5 217.5t217.5 89.5h817q-50 30 -80 83t-30 117v150q0 258 -158 383q-59 46 -140.5 71.5t-150.5 31t-145 0.5t-111 -10.5t-61 -11.5l-4 -1l-7 28q20 5 51 11t112 13
t155 2.5t164 -32t155 -78.5q170 -132 170 -407v-150q0 -83 55.5 -141.5t133.5 -58.5h14v-31h-940z" />
    <glyph glyph-name="uni062E" unicode="&#x62e;" horiz-adv-x="1550" 
d="M692 1171q20 0 34.5 -13t14.5 -32q0 -20 -14.5 -33.5t-34.5 -13.5q-18 0 -31.5 13.5t-13.5 33.5q0 18 13.5 31.5t31.5 13.5zM430 0q-116 0 -196 -80t-80 -196t80.5 -196.5t195.5 -80.5h440v-31h-440q-127 0 -217 90t-90 218t89.5 217.5t217.5 89.5h817q-50 30 -80 83
t-30 117v150q0 258 -158 383q-59 46 -140.5 71.5t-150.5 31t-145 0.5t-111 -10.5t-61 -11.5l-4 -1l-7 28q20 5 51 11t112 13t155 2.5t164 -32t155 -78.5q170 -132 170 -407v-150q0 -83 55.5 -141.5t133.5 -58.5h14v-31h-940z" />
    <glyph glyph-name="uni062F" unicode="&#x62f;" horiz-adv-x="1005" 
d="M582 0h-445v31h445q110 0 180 86q68 87 43 196l-139 578l30 8l138 -580q29 -124 -50 -221q-79 -98 -202 -98z" />
    <glyph glyph-name="uni0630" unicode="&#x630;" horiz-adv-x="1005" 
d="M637 1171q20 0 34.5 -13t14.5 -32q0 -20 -14.5 -33.5t-34.5 -13.5q-18 0 -31.5 13.5t-13.5 33.5q0 18 13.5 31.5t31.5 13.5zM582 0h-445v31h445q110 0 180 86q68 87 43 196l-139 578l30 8l138 -580q29 -124 -50 -221q-79 -98 -202 -98z" />
    <glyph glyph-name="uni0631" unicode="&#x631;" horiz-adv-x="532" 
d="M369 -35q0 -91 -25.5 -164.5t-63.5 -119t-90.5 -79.5t-97 -50t-92.5 -25l-8 31q346 72 346 407v920h31v-920z" />
    <glyph glyph-name="uni0632" unicode="&#x632;" horiz-adv-x="557" 
d="M344 1171q20 0 34.5 -13t14.5 -32q0 -20 -14.5 -33.5t-34.5 -13.5q-18 0 -31.5 13.5t-13.5 33.5q0 18 13.5 31.5t31.5 13.5zM369 -35q0 -91 -25.5 -164.5t-63.5 -119t-90.5 -79.5t-97 -50t-92.5 -25l-8 31q346 72 346 407v920h31v-920z" />
    <glyph glyph-name="uni0633" unicode="&#x633;" horiz-adv-x="2394" 
d="M1931 0q-97 0 -174.5 58.5t-105.5 150.5q-31 -94 -108 -151t-179 -58q-85 0 -155 45.5t-109 122.5v-475q0 -34 -22 -57t-54 -23h-483q-173 0 -295.5 121.5t-122.5 292.5v239h33v-239q0 -160 112 -272.5t273 -112.5h483q21 0 36 14t15 37v1009h25v-405q0 -112 77.5 -189
t188.5 -77q113 0 192.5 79.5t79.5 190.5v401h31v-405q0 -112 76.5 -189t185.5 -77q113 0 191 79.5t78 190.5v588h30v-592q-6 -133 -90.5 -215t-208.5 -82z" />
    <glyph glyph-name="uni0634" unicode="&#x634;" horiz-adv-x="2373" 
d="M1616 1141q20 0 34.5 -13t14.5 -32q0 -20 -14.5 -33.5t-34.5 -13.5q-18 0 -31.5 13.5t-13.5 33.5q0 18 13.5 31.5t31.5 13.5zM1501 948q20 0 34.5 -13t14.5 -32q0 -20 -14.5 -33.5t-34.5 -13.5q-18 0 -31.5 13.5t-13.5 33.5q0 18 13.5 31.5t31.5 13.5zM1735 948
q20 0 34.5 -13t14.5 -32q0 -20 -14.5 -33.5t-34.5 -13.5q-18 0 -31.5 13.5t-13.5 33.5q0 18 13.5 31.5t31.5 13.5zM1931 0q-97 0 -174.5 58.5t-105.5 150.5q-31 -94 -108 -151t-179 -58q-85 0 -155 45.5t-109 122.5v-475q0 -34 -22 -57t-54 -23h-483q-173 0 -295.5 121.5
t-122.5 292.5v239h33v-239q0 -160 112 -272.5t273 -112.5h483q21 0 36 14t15 37v1009h25v-405q0 -112 77.5 -189t188.5 -77q113 0 192.5 79.5t79.5 190.5v401h31v-405q0 -112 76.5 -189t185.5 -77q113 0 191 79.5t78 190.5v588h30v-592q-6 -133 -90.5 -215t-208.5 -82z" />
    <glyph glyph-name="uni0635" unicode="&#x635;" horiz-adv-x="2516" 
d="M2296 686q57 -99 57 -219v-401q0 -30 -18.5 -48t-44.5 -18h-1139v-328q0 -32 -24 -56t-58 -24h-510q-118 0 -218.5 58t-159 158t-58.5 217v251h29v-251q0 -166 120 -285t287 -119h510q22 0 37.5 15.5t15.5 35.5v1215h29v-215l641 194q147 44 288.5 -7t215.5 -173z
M2322 66v401q0 119 -55 205q-64 114 -195 159.5t-270 8.5l-651 -201v-608h1139q14 0 23 10t9 25z" />
    <glyph glyph-name="uni0636" unicode="&#x636;" horiz-adv-x="2496" 
d="M1772 1171q20 0 34.5 -13t14.5 -32q0 -20 -14.5 -33.5t-34.5 -13.5q-18 0 -32 13.5t-14 33.5q0 18 14 31.5t32 13.5zM2296 686q57 -99 57 -219v-401q0 -30 -18.5 -48t-44.5 -18h-1139v-328q0 -32 -24 -56t-58 -24h-510q-118 0 -218.5 58t-159 158t-58.5 217v251h29v-251
q0 -166 120 -285t287 -119h510q22 0 37.5 15.5t15.5 35.5v1215h29v-215l641 194q147 44 288.5 -7t215.5 -173zM2322 66v401q0 119 -55 205q-64 114 -195 159.5t-270 8.5l-651 -201v-608h1139q14 0 23 10t9 25z" />
    <glyph glyph-name="uni0637" unicode="&#x637;" horiz-adv-x="1714" 
d="M1491 696q59 -100 59 -221v-407q0 -28 -19 -48t-46 -20h-1348v31h166v1388h31v-737l649 197q148 44 291.5 -7.5t216.5 -175.5zM1520 68v407q0 115 -56 207q-69 116 -202 163.5t-271 4.5l-657 -201v-618h1151q14 0 24.5 11t10.5 26z" />
    <glyph glyph-name="uni0638" unicode="&#x638;" horiz-adv-x="1632" 
d="M1491 696q59 -100 59 -221v-407q0 -28 -19 -48t-46 -20h-1348v31h166v1388h31v-737l649 197q148 44 291.5 -7.5t216.5 -175.5zM854 1171q20 0 34.5 -13t14.5 -32q0 -20 -14.5 -33.5t-34.5 -13.5q-18 0 -31.5 13.5t-13.5 33.5q0 18 13.5 31.5t31.5 13.5zM1520 68v407
q0 115 -56 207q-69 116 -202 163.5t-271 4.5l-657 -201v-618h1151q14 0 24.5 11t10.5 26z" />
    <glyph glyph-name="uni0639" unicode="&#x639;" horiz-adv-x="1146" 
d="M971 31v-31h-557q-109 0 -185.5 -76.5t-76.5 -185.5q0 -106 77 -183t185 -77h415v-27h-415q-120 0 -205.5 84.5t-85.5 202.5q0 121 85.5 206t205.5 85h47q-99 43 -160 133.5t-61 199.5v179q0 149 105 254.5t253 105.5q151 0 257 -105t106 -255h-31q0 140 -96.5 236.5
t-235.5 96.5q-136 0 -234 -98t-98 -235v-179q0 -136 98.5 -233.5t233.5 -97.5h373z" />
    <glyph glyph-name="uni063A" unicode="&#x63a;" horiz-adv-x="1126" 
d="M567 1171q20 0 34.5 -13t14.5 -32q0 -20 -14.5 -33.5t-34.5 -13.5q-18 0 -31.5 13.5t-13.5 33.5q0 18 13.5 31.5t31.5 13.5zM971 31v-31h-557q-109 0 -185.5 -76.5t-76.5 -185.5q0 -106 77 -183t185 -77h415v-27h-415q-120 0 -205.5 84.5t-85.5 202.5q0 121 85.5 206
t205.5 85h47q-99 43 -160 133.5t-61 199.5v179q0 149 105 254.5t253 105.5q151 0 257 -105t106 -255h-31q0 140 -96.5 236.5t-235.5 96.5q-136 0 -234 -98t-98 -235v-179q0 -136 98.5 -233.5t233.5 -97.5h373z" />
    <glyph glyph-name="uni0640" unicode="&#x640;" horiz-adv-x="352" 
d="M-20 31h393v-31h-393v31z" />
    <glyph glyph-name="uni0641" unicode="&#x641;" horiz-adv-x="1970" 
d="M1559 1182q20 0 34.5 -13t14.5 -32q0 -20 -14.5 -33.5t-34.5 -13.5q-18 0 -32 13.5t-14 33.5q0 18 14 31.5t32 13.5zM1806 901v-807q0 -38 -28 -66t-66 -28h-1139q-186 0 -318 133t-132 320v262h33v-266q0 -172 122.5 -295t294.5 -123h738q-125 50 -205 166.5t-80 253.5
q0 123 61 226.5t165 163.5t225 60h329zM1696 31q32 0 55 23t23 55v761h-297q-174 0 -298 -121.5t-124 -297.5q0 -106 58.5 -204.5t148 -157t178.5 -58.5h256z" />
    <glyph glyph-name="uni0642" unicode="&#x642;" horiz-adv-x="1325" 
d="M678 1182q20 0 34.5 -13t14.5 -32q0 -20 -14.5 -33.5t-34.5 -13.5q-18 0 -31.5 13.5t-13.5 33.5q0 18 13.5 31.5t31.5 13.5zM870 1182q20 0 35 -13t15 -32q0 -20 -14.5 -33.5t-35.5 -13.5q-18 0 -31.5 13.5t-13.5 33.5q0 18 13.5 31.5t31.5 13.5zM780 901h381v-1231
q0 -35 -25 -60.5t-59 -25.5h-514q-183 0 -311.5 129t-128.5 312v249h33v-249q0 -169 119 -288.5t288 -119.5h514q23 0 37 14t14 39v330h-348q-156 0 -267.5 110.5t-111.5 268.5v145q0 155 112 266t267 111zM780 31h348v841h-348q-144 0 -246 -102.5t-102 -245.5v-145
q0 -145 101.5 -246.5t246.5 -101.5z" />
    <glyph glyph-name="uni0643" unicode="&#x643;" horiz-adv-x="1609" 
d="M1405 1419v-1341q0 -31 -23 -54.5t-55 -23.5h-782q-175 0 -298.5 123.5t-123.5 298.5v240h27v-240q0 -162 116.5 -276.5t278.5 -114.5h782q21 0 36 13.5t15 33.5v1341h27zM918 829v-26h-297v26h71q-59 48 -59 117q0 68 43 112t102 44q61 0 103.5 -45t42.5 -99h-29
q0 44 -35.5 79.5t-81.5 35.5q-51 0 -82.5 -35t-31.5 -92q0 -48 32.5 -82.5t81.5 -34.5h140z" />
    <glyph glyph-name="uni0644" unicode="&#x644;" horiz-adv-x="1351" 
d="M1065 -403h-508q-180 0 -307 127t-127 307v250h31v-250q0 -167 118 -285.5t285 -118.5h508q22 0 36.5 14.5t14.5 36.5v1741h31v-1741q0 -34 -24 -57.5t-58 -23.5z" />
    <glyph glyph-name="uni0645" unicode="&#x645;" horiz-adv-x="1214" 
d="M662 0q-123 0 -218 53.5t-139 139.5v-127q0 -86 -24 -156.5t-59.5 -115.5t-85.5 -79.5t-93.5 -52t-91.5 -29.5l-6 31q329 80 329 402v835h388q161 0 275 -114t114 -277v-119q0 -161 -114 -276t-275 -115zM662 31q149 0 253.5 104.5t104.5 253.5v121q0 151 -104.5 255.5
t-253.5 104.5h-357v-505q0 -85 30.5 -151t82 -105t113.5 -58.5t131 -19.5z" />
    <glyph glyph-name="uni0646" unicode="&#x646;" horiz-adv-x="1323" 
d="M674 934q20 0 34.5 -13t14.5 -32q0 -20 -14.5 -33.5t-34.5 -13.5q-18 0 -31.5 13.5t-13.5 33.5q0 18 13.5 31.5t31.5 13.5zM1055 -397h-500q-180 0 -306 125.5t-126 304.5v243h31v-243q0 -165 118 -283.5t283 -118.5h500q22 0 37.5 15t15.5 35v1163h31v-1163
q0 -32 -25 -55t-59 -23z" />
    <glyph glyph-name="uni0647" unicode="&#x647;" horiz-adv-x="985" 
d="M123 901h391q161 0 273 -114t112 -277v-119q0 -164 -108.5 -277.5t-276.5 -113.5q-171 0 -281 97.5t-110 258.5v545zM514 31q156 0 255 103t99 255v121q0 151 -102.5 255.5t-251.5 104.5h-360v-505q0 -85 31 -151t83 -105t114.5 -58.5t131.5 -19.5z" />
    <glyph glyph-name="uni0648" unicode="&#x648;" horiz-adv-x="1060" 
d="M897 901v-969q0 -180 -119 -290q-87 -83 -211 -115.5t-295 -32.5l2 33q1 -1 34.5 -2t89.5 3.5t117.5 16.5t129 42.5t115.5 74.5q106 100 106 270v68h-331q-181 0 -296.5 129t-115.5 317q0 127 51 230.5t146 164t215 60.5h362zM535 31h331v837h-331q-168 0 -274.5 -121
t-106.5 -301q0 -175 107 -295t274 -120z" />
    <glyph glyph-name="uni0649" unicode="&#x649;" horiz-adv-x="1939" 
d="M1776 901v-897h-31v866h-408q-78 0 -134 -58t-56 -138v-963q0 -35 -26 -59.5t-60 -24.5h-504q-117 0 -217 58t-158.5 158t-58.5 218v246h31v-246q0 -167 118 -285t285 -118h504q21 0 36 15t15 38v965q0 93 66 159t159 66h439z" />
    <glyph glyph-name="uni064A" unicode="&#x64a;" horiz-adv-x="1939" 
d="M1776 901v-897h-31v866h-408q-78 0 -134 -58t-56 -138v-963q0 -35 -26 -59.5t-60 -24.5h-504q-117 0 -217 58t-158.5 158t-58.5 218v246h31v-246q0 -167 118 -285t285 -118h504q21 0 36 15t15 38v965q0 93 66 159t159 66h439zM651 -520q20 0 34.5 -13t14.5 -32
q0 -20 -14.5 -33.5t-34.5 -13.5q-18 0 -31.5 13.5t-13.5 33.5q0 18 13.5 31.5t31.5 13.5zM850 -520q20 0 34.5 -13t14.5 -32q0 -20 -14.5 -33.5t-34.5 -13.5q-18 0 -31.5 13.5t-13.5 33.5q0 18 13.5 31.5t31.5 13.5z" />
    <glyph glyph-name="uni064B" unicode="&#x64b;" 
d="M16 1614l275 90l10 -33l-272 -90zM16 1511l275 91l10 -33l-272 -90z" />
    <glyph glyph-name="uni064C" unicode="&#x64c;" 
d="M387 1540q0 -41 -26 -70.5t-68 -42.5l-211 -65v29q3 101 -59 108h-7v27h4q83 0 89 -101v-26l118 37q-30 14 -47.5 41.5t-17.5 62.5q0 46 33 79.5t79 33.5t79.5 -33.5t33.5 -79.5zM274 1456q35 0 56.5 24t21.5 62q0 34 -21.5 57t-56.5 23t-56 -23t-21 -57q0 -39 21 -62.5
t56 -23.5z" />
    <glyph glyph-name="uni064D" unicode="&#x64d;" 
d="M16 -354l275 90l10 -33l-272 -90zM16 -457l275 90l10 -32l-272 -90z" />
    <glyph glyph-name="uni064E" unicode="&#x64e;" 
d="M37 1620l274 90l11 -33l-273 -90z" />
    <glyph glyph-name="uni064F" unicode="&#x64f;" 
d="M203 1675q46 0 79 -33t33 -79q0 -86 -92 -113l-203 -64l-8 23l150 47q-31 12 -51.5 41.5t-20.5 65.5q0 46 33.5 79t79.5 33zM203 1473q37 0 61.5 26t24.5 66q0 36 -25 61t-61 25t-61 -25t-25 -61q0 -40 24.5 -66t61.5 -26z" />
    <glyph glyph-name="uni0650" unicode="&#x650;" 
d="M33 -799l274 90l10 -32l-272 -90z" />
    <glyph glyph-name="uni0651" unicode="&#x651;" 
d="M387 1665h33v-111q0 -76 -36 -116.5t-93 -40.5q-51 0 -80 49q-7 -41 -36.5 -65.5t-63.5 -24.5q-49 0 -80 30.5t-31 96.5v65h33v-65q0 -92 78 -92q71 0 71 114v107h33v-105q0 -34 23 -52.5t53 -18.5q96 0 96 118v111z" />
    <glyph glyph-name="uni0652" unicode="&#x652;" 
d="M113 1425q-46 0 -79.5 34t-33.5 81q0 46 33.5 79.5t79.5 33.5t79 -33.5t33 -79.5q0 -47 -33 -81t-79 -34zM113 1464q31 0 51 21.5t20 56.5q0 31 -20 51.5t-51 20.5t-51.5 -20.5t-20.5 -51.5q0 -35 20.5 -56.5t51.5 -21.5z" />
    <glyph glyph-name="uni0653" unicode="&#x653;" 
d="M39 1872l-23 31l105 79q15 11 26 -4q21 -26 68.5 -45.5t95.5 -19.5q33 0 86 18t88 39l23 -31q-38 -26 -97.5 -45.5t-99.5 -19.5q-97 0 -170 59q-13 6 -24 -2z" />
    <glyph glyph-name="uni0658" unicode="&#x658;" 
 />
    <glyph glyph-name="uni0660" unicode="&#x660;" horiz-adv-x="430" 
d="M172 43q0 19 12 31t31 12t31 -12t12 -31t-12 -31t-31 -12t-31 12t-12 31z" />
    <glyph glyph-name="uni0661" unicode="&#x661;" horiz-adv-x="364" 
d="M201 1434v-1434h-37v1434h37z" />
    <glyph glyph-name="uni0662" unicode="&#x662;" horiz-adv-x="1116" 
d="M952 1434v-35h-358q-107 0 -198.5 -57t-144 -152t-52.5 -203v-987h-35v987q0 119 57.5 222t156.5 164t216 61h358z" />
    <glyph glyph-name="uni0663" unicode="&#x663;" horiz-adv-x="1482" 
d="M1020 649q-97 0 -175 58.5t-106 150.5q-31 -95 -107.5 -152t-178.5 -57q-85 0 -155.5 46t-109.5 122v-817h-24v1434h24v-488q0 -112 78 -189t189 -77q113 0 192.5 79.5t79.5 190.5v484h31v-488q0 -112 76.5 -189t185.5 -77q113 0 190.5 79.5t77.5 190.5v484h31v-488
q-6 -133 -90.5 -215t-208.5 -82z" />
    <glyph glyph-name="uni0664" unicode="&#x664;" horiz-adv-x="1146" 
d="M971 580v-31h-557q-109 0 -185.5 -76.5t-76.5 -185.5q0 -106 77 -183t185 -77h415v-27h-415q-120 0 -205.5 84.5t-85.5 202.5q0 121 85.5 206t205.5 85h47q-99 43 -160 133.5t-61 199.5v179q0 149 105 254.5t253 105.5q151 0 257 -105t106 -255h-31q0 140 -96.5 236.5
t-235.5 96.5q-136 0 -234 -98t-98 -235v-179q0 -136 98.5 -233.5t233.5 -97.5h373z" />
    <glyph glyph-name="uni0665" unicode="&#x665;" horiz-adv-x="1425" 
d="M713 -25q-160 0 -282.5 92.5t-189.5 261t-67 388.5q0 333 148 537t391 204q160 0 282.5 -92t189 -260.5t66.5 -388.5t-66.5 -388.5t-189 -261t-282.5 -92.5zM713 10q224 0 361.5 194.5t137.5 512.5t-137.5 512t-361.5 194t-362 -194t-138 -512t138 -512.5t362 -194.5z
" />
    <glyph glyph-name="uni0666" unicode="&#x666;" horiz-adv-x="1116" 
d="M164 1434h358q117 0 216 -61t156.5 -164t57.5 -222v-987h-34v987q0 108 -53 203t-144.5 152t-198.5 57h-358v35z" />
    <glyph glyph-name="uni0667" unicode="&#x667;" horiz-adv-x="1378" 
d="M1327 1434l-604 -1434h-53l-619 1434h39l606 -1399l592 1399h39z" />
    <glyph glyph-name="uni0668" unicode="&#x668;" horiz-adv-x="1378" 
d="M1327 0h-39l-592 1399l-606 -1399h-39l619 1434h53z" />
    <glyph glyph-name="uni0669" unicode="&#x669;" horiz-adv-x="1116" 
d="M563 1434q161 0 275 -114.5t114 -275.5v-1044h-34v532h-361q-113 0 -203 60t-135 148.5t-45 181.5v122q0 161 114 275.5t275 114.5zM922 563v481q0 149 -105.5 254t-253.5 105q-149 0 -253.5 -105t-104.5 -254v-122q0 -148 104.5 -253.5t253.5 -105.5h359z" />
    <glyph glyph-name="uni066A" unicode="&#x66a;" horiz-adv-x="1611" 
d="M1311 1434h43l-1053 -1434h-43zM377 1221q-37 0 -62.5 25.5t-25.5 62.5t25.5 62.5t62.5 25.5t62.5 -25.5t25.5 -62.5t-25.5 -62.5t-62.5 -25.5zM1370 0q-37 0 -62.5 25.5t-25.5 62.5t25.5 62.5t62.5 25.5t62.5 -25.5t25.5 -62.5t-25.5 -62.5t-62.5 -25.5z" />
    <glyph glyph-name="uni066B" unicode="&#x66b;" horiz-adv-x="364" 
d="M193 223h36l-96 -528h-31z" />
    <glyph glyph-name="uni066C" unicode="&#x66c;" horiz-adv-x="364" 
d="M193 223h36l-96 -528h-31z" />
    <glyph glyph-name="uni066D" unicode="&#x66d;" horiz-adv-x="911" 
d="M477 315l221 -292l-30 -23l-213 299l-213 -299l-29 20l219 297l-350 109l10 35l348 -117l-4 367h37l-4 -367l348 117l12 -35z" />
    <glyph glyph-name="uni066E" unicode="&#x66e;" horiz-adv-x="1667" 
d="M1503 881v-815q0 -27 -21 -46.5t-48 -19.5h-977q-137 0 -235.5 97.5t-98.5 232.5v346h35v-346q0 -125 86.5 -212t212.5 -87h977q14 0 24 10t10 25v815h35z" />
    <glyph glyph-name="uni066F" unicode="&#x66f;" horiz-adv-x="1325" 
d="M780 901q157 0 269 -111t112 -266v-854q0 -35 -25 -60.5t-59 -25.5h-514q-183 0 -311.5 129t-128.5 312v249h33v-249q0 -169 119 -288.5t288 -119.5h514q23 0 37 14t14 39v330h-348q-156 0 -267.5 110.5t-111.5 268.5v145q0 155 112 266t267 111zM780 31h348v493
q0 143 -101.5 245.5t-246.5 102.5q-144 0 -246 -102.5t-102 -245.5v-145q0 -145 101.5 -246.5t246.5 -101.5z" />
    <glyph glyph-name="uni0671" unicode="&#x671;" horiz-adv-x="399" 
d="M184 0v1434h31v-1434h-31z" />
    <glyph glyph-name="uni0679" unicode="&#x679;" horiz-adv-x="1667" 
d="M690 1114v31h49v299h31v-176q65 80 125 80q53 0 77.5 -29t24.5 -90v-115h-307zM772 1235v-90h195v94q0 78 -72 78q-23 0 -57 -22.5t-66 -59.5zM1468 881h35v-815q0 -27 -21 -46.5t-48 -19.5h-977q-137 0 -235.5 97.5t-98.5 232.5v346h35v-346q0 -125 86.5 -212t212.5 -87
h977q14 0 24 10t10 25v815z" />
    <glyph glyph-name="uni067E" unicode="&#x67e;" horiz-adv-x="1667" 
d="M1503 881v-815q0 -27 -21 -46.5t-48 -19.5h-977q-137 0 -235.5 97.5t-98.5 232.5v346h35v-346q0 -125 86.5 -212t212.5 -87h977q14 0 24 10t10 25v815h35zM735 -262q-18 0 -31.5 13.5t-13.5 31.5q0 20 13.5 33.5t31.5 13.5q20 0 34.5 -13.5t14.5 -33.5q0 -19 -14.5 -32
t-34.5 -13zM920 -262q-18 0 -32 13.5t-14 31.5q0 20 14 33.5t32 13.5q20 0 34.5 -13.5t14.5 -33.5q0 -19 -14.5 -32t-34.5 -13zM827 -430q-18 0 -31.5 13.5t-13.5 31.5q0 20 13.5 33.5t31.5 13.5q21 0 35.5 -13.5t14.5 -33.5q0 -19 -15 -32t-35 -13z" />
    <glyph glyph-name="uni0686" unicode="&#x686;" horiz-adv-x="1550" 
d="M430 0q-116 0 -196 -80t-80 -196t80.5 -196.5t195.5 -80.5h440v-31h-440q-127 0 -217 90t-90 218t89.5 217.5t217.5 89.5h817q-50 30 -80 83t-30 117v150q0 258 -158 383q-59 46 -140.5 71.5t-150.5 31t-145 0.5t-111 -10.5t-61 -11.5l-4 -1l-7 28q20 5 51 11t112 13
t155 2.5t164 -32t155 -78.5q170 -132 170 -407v-150q0 -83 55.5 -141.5t133.5 -58.5h14v-31h-940zM373 -281q-18 0 -31.5 13.5t-13.5 31.5q0 20 13.5 34t31.5 14q20 0 34.5 -14t14.5 -34q0 -19 -14.5 -32t-34.5 -13zM557 -281q-18 0 -31.5 13.5t-13.5 31.5q0 20 13.5 34
t31.5 14q20 0 34.5 -14t14.5 -34q0 -19 -14.5 -32t-34.5 -13zM465 -449q-17 0 -31 13.5t-14 32.5q0 20 13.5 33.5t31.5 13.5q20 0 34.5 -13.5t14.5 -33.5q0 -19 -14.5 -32.5t-34.5 -13.5z" />
    <glyph glyph-name="uni0688" unicode="&#x688;" horiz-adv-x="1005" 
d="M498 1114v31h49v299h31v-176q65 80 124 80q53 0 78 -29t25 -90v-115h-307zM580 1235v-90h194v94q0 78 -72 78q-50 0 -122 -82zM834 319q29 -124 -50 -221q-79 -98 -202 -98h-445v31h445q110 0 180 86q68 87 43 196l-139 578l30 8z" />
    <glyph glyph-name="uni0691" unicode="&#x691;" horiz-adv-x="532" 
d="M412 1348q53 0 77.5 -29t24.5 -90v-115h-307v31h49v299h31v-176q65 80 125 80zM483 1145v94q0 78 -71 78q-23 0 -57 -22.5t-66 -59.5v-90h194zM338 -35v920h31v-920q0 -91 -25.5 -164.5t-63.5 -119t-90.5 -79.5t-97 -50t-92.5 -25l-8 31q346 72 346 407z" />
    <glyph glyph-name="uni0698" unicode="&#x698;" horiz-adv-x="532" 
d="M352 1284q20 0 34.5 -13t14.5 -32q0 -20 -14.5 -33.5t-34.5 -13.5q-18 0 -31.5 13.5t-13.5 33.5q0 18 13.5 31.5t31.5 13.5zM260 1116q20 0 34.5 -13t14.5 -32q0 -20 -14.5 -33.5t-34.5 -13.5q-18 0 -31.5 13.5t-13.5 33.5q0 18 13.5 31.5t31.5 13.5zM444 1116
q20 0 35 -13t15 -32q0 -20 -14.5 -33.5t-35.5 -13.5q-18 0 -31.5 13.5t-13.5 33.5q0 18 13.5 31.5t31.5 13.5zM369 -35q0 -91 -25.5 -164.5t-63.5 -119t-90.5 -79.5t-97 -50t-92.5 -25l-8 31q346 72 346 407v920h31v-920z" />
    <glyph glyph-name="uni06A1" unicode="&#x6a1;" horiz-adv-x="1970" 
d="M1806 901v-807q0 -38 -28 -66t-66 -28h-1139q-186 0 -318 133t-132 320v262h33v-266q0 -172 122.5 -295t294.5 -123h738q-125 50 -205 166.5t-80 253.5q0 123 61 226.5t165 163.5t225 60h329zM1696 31q32 0 55 23t23 55v761h-297q-174 0 -298 -121.5t-124 -297.5
q0 -106 58.5 -204.5t148 -157t178.5 -58.5h256z" />
    <glyph glyph-name="uni06A4" unicode="&#x6a4;" horiz-adv-x="1970" 
d="M1556 1296q20 0 35 -13t15 -32q0 -20 -14.5 -33.5t-35.5 -13.5q-18 0 -31.5 13.5t-13.5 33.5q0 18 13.5 31.5t31.5 13.5zM1464 1128q20 0 34.5 -13t14.5 -32q0 -20 -14.5 -33.5t-34.5 -13.5q-18 0 -31.5 13.5t-13.5 33.5q0 18 13.5 31.5t31.5 13.5zM1649 1128
q20 0 34.5 -13t14.5 -32q0 -20 -14.5 -33.5t-34.5 -13.5q-18 0 -31.5 13.5t-13.5 33.5q0 18 13.5 31.5t31.5 13.5zM1806 901v-807q0 -38 -28 -66t-66 -28h-1139q-186 0 -318 133t-132 320v262h33v-266q0 -172 122.5 -295t294.5 -123h738q-125 50 -205 166.5t-80 253.5
q0 123 61 226.5t165 163.5t225 60h329zM1696 31q32 0 55 23t23 55v761h-297q-174 0 -298 -121.5t-124 -297.5q0 -106 58.5 -204.5t148 -157t178.5 -58.5h256z" />
    <glyph glyph-name="uni06A9" unicode="&#x6a9;" horiz-adv-x="1945" 
d="M1335 895q185 0 316 -131t131 -315v-449h-1284q-137 0 -235.5 97.5t-98.5 232.5v346h35v-346q0 -125 86.5 -212t212.5 -87h1253v418q0 172 -123 294.5t-295 122.5h-555l-14 39l424 588l24 -18l-424 -580h547z" />
    <glyph glyph-name="uni06AF" unicode="&#x6af;" horiz-adv-x="1945" 
d="M1075 1522l-401 -564l-23 17l404 563zM1335 895q185 0 316 -131t131 -315v-449h-1284q-137 0 -235.5 97.5t-98.5 232.5v346h35v-346q0 -125 86.5 -212t212.5 -87h1253v418q0 172 -123 294.5t-295 122.5h-555l-14 39l424 588l24 -18l-424 -580h547z" />
    <glyph glyph-name="uni06BA" unicode="&#x6ba;" horiz-adv-x="1302" 
d="M1055 -397h-500q-180 0 -306 125.5t-126 304.5v243h31v-243q0 -165 118 -283.5t283 -118.5h500q22 0 37.5 15t15.5 35v1163h31v-1163q0 -32 -25 -55t-59 -23z" />
    <glyph glyph-name="uni06BE" unicode="&#x6be;" horiz-adv-x="1400" 
d="M823 967q188 -66 301 -230.5t113 -371.5v-281q0 -34 -22.5 -59t-55.5 -25h-1179v31h352q-98 42 -158.5 133t-60.5 203q0 151 105.5 257.5t254.5 106.5q152 0 259.5 -106.5t107.5 -257.5v-306q0 -20 -13 -30h332q21 0 35 15.5t14 37.5v281q0 195 -109.5 353.5
t-287.5 219.5q-197 68 -369 68l4 28q190 -6 377 -67zM473 700q-138 0 -236 -97t-98 -236q0 -141 97.5 -238.5t236.5 -97.5h305q13 0 23 8.5t10 21.5v306q0 138 -100 235.5t-238 97.5z" />
    <glyph glyph-name="uni06C1" unicode="&#x6c1;" horiz-adv-x="985" 
d="M123 901h391q161 0 273 -114t112 -277v-119q0 -164 -108.5 -277.5t-276.5 -113.5q-171 0 -281 97.5t-110 258.5v545zM514 31q156 0 255 103t99 255v121q0 151 -102.5 255.5t-251.5 104.5h-360v-505q0 -85 31 -151t83 -105t114.5 -58.5t131.5 -19.5z" />
    <glyph glyph-name="uni06C2" unicode="&#x6c2;" horiz-adv-x="985" 
d="M569 1051v-27h-297v27h72q-59 48 -59 116t43 112t102 44q61 0 103 -44.5t42 -98.5h-28q0 44 -35.5 79t-81.5 35q-51 0 -83 -35t-32 -92q0 -48 33 -82t82 -34h139zM123 901h391q161 0 273 -114t112 -277v-119q0 -164 -108.5 -277.5t-276.5 -113.5q-171 0 -281 97.5
t-110 258.5v545zM514 31q156 0 255 103t99 255v121q0 151 -102.5 255.5t-251.5 104.5h-360v-505q0 -85 31 -151t83 -105t114.5 -58.5t131.5 -19.5z" />
    <glyph glyph-name="uni06C3" unicode="&#x6c3;" horiz-adv-x="985" 
d="M453 1159q20 0 34.5 -13t14.5 -32q0 -20 -14.5 -33.5t-34.5 -13.5q-18 0 -31.5 13.5t-13.5 33.5q0 18 13.5 31.5t31.5 13.5zM637 1159q20 0 34.5 -13t14.5 -32q0 -20 -14.5 -33.5t-34.5 -13.5q-18 0 -31.5 13.5t-13.5 33.5q0 18 13.5 31.5t31.5 13.5zM123 901h391
q161 0 273 -114t112 -277v-119q0 -164 -108.5 -277.5t-276.5 -113.5q-171 0 -281 97.5t-110 258.5v545zM514 31q156 0 255 103t99 255v121q0 151 -102.5 255.5t-251.5 104.5h-360v-505q0 -85 31 -151t83 -105t114.5 -58.5t131.5 -19.5z" />
    <glyph glyph-name="uni06CC" unicode="&#x6cc;" horiz-adv-x="1939" 
d="M1776 901v-897h-31v866h-408q-78 0 -134 -58t-56 -138v-963q0 -35 -26 -59.5t-60 -24.5h-504q-117 0 -217 58t-158.5 158t-58.5 218v246h31v-246q0 -167 118 -285t285 -118h504q21 0 36 15t15 38v965q0 93 66 159t159 66h439z" />
    <glyph glyph-name="uni06D2" unicode="&#x6d2;" horiz-adv-x="1179" 
d="M424 0q-124 0 -203 98q-78 96 -49 221l82 351l31 -8l-84 -349q-25 -109 43 -196q70 -86 180 -86h776v-31h-776z" />
    <glyph glyph-name="uni06D3" unicode="&#x6d3;" horiz-adv-x="1179" 
d="M418 766v-27h-297v27h72q-60 49 -60 117t43.5 111.5t102.5 43.5q61 0 103 -44.5t42 -98.5h-29q0 45 -35.5 80t-80.5 35q-51 0 -83 -35t-32 -92q0 -48 33 -82.5t82 -34.5h139zM424 0q-124 0 -203 98q-78 96 -49 221l82 351l31 -8l-84 -349q-25 -109 43 -196
q70 -86 180 -86h776v-31h-776z" />
    <glyph glyph-name="uni06D4" unicode="&#x6d4;" horiz-adv-x="1228" 
 />
    <glyph glyph-name="uni06F0" unicode="&#x6f0;" horiz-adv-x="430" 
d="M172 43q0 19 12 31t31 12t31 -12t12 -31t-12 -31t-31 -12t-31 12t-12 31z" />
    <glyph glyph-name="uni06F1" unicode="&#x6f1;" horiz-adv-x="364" 
d="M201 1434v-1434h-37v1434h37z" />
    <glyph glyph-name="uni06F2" unicode="&#x6f2;" horiz-adv-x="1116" 
d="M952 1434v-35h-358q-107 0 -198.5 -57t-144 -152t-52.5 -203v-987h-35v987q0 119 57.5 222t156.5 164t216 61h358z" />
    <glyph glyph-name="uni06F3" unicode="&#x6f3;" horiz-adv-x="1482" 
d="M1020 649q-97 0 -175 58.5t-106 150.5q-31 -95 -107.5 -152t-178.5 -57q-85 0 -155.5 46t-109.5 122v-817h-24v1434h24v-488q0 -112 78 -189t189 -77q113 0 192.5 79.5t79.5 190.5v484h31v-488q0 -112 76.5 -189t185.5 -77q113 0 190.5 79.5t77.5 190.5v484h31v-488
q-6 -133 -90.5 -215t-208.5 -82z" />
    <glyph glyph-name="uni06F4" unicode="&#x6f4;" horiz-adv-x="1294" 
d="M1118 563v-31h-897v-532h-37v1434h37v-873h387q-99 43 -160 134t-61 200v178q0 149 105 255t253 106q151 0 257 -105t106 -256h-31q0 140 -96.5 237t-235.5 97q-135 0 -233 -98t-98 -236v-178q0 -136 98 -234t233 -98h373z" />
    <glyph glyph-name="uni06F5" unicode="&#x6f5;" horiz-adv-x="1595" 
d="M1083 -25q-108 0 -181 60.5t-101 171.5q-26 -111 -99.5 -171.5t-181.5 -60.5q-80 0 -147 46.5t-113 134.5q-86 163 -86 409q0 160 40 312.5t112 271.5q86 140 207 212.5t268 72.5q295 0 471 -291q72 -119 110.5 -273.5t38.5 -316.5q0 -237 -84 -401q-94 -177 -254 -177z
M817 348q0 -31 3.5 -61.5t12 -72t27.5 -76t47 -66t73.5 -49t102.5 -17.5q143 0 228 162q80 151 80 385q0 154 -39 304.5t-109 266.5q-32 54 -70.5 99t-92 88t-125.5 67.5t-154 24.5q-67 0 -128.5 -16.5t-108 -42.5t-88.5 -63t-70.5 -72.5t-53.5 -75.5q-70 -117 -108.5 -265
t-38.5 -303q0 -234 84 -395q89 -164 231 -164q57 0 102.5 17.5t73.5 49t47 66t27.5 76t12 72t3.5 61.5v156h31v-156z" />
    <glyph glyph-name="uni06F6" unicode="&#x6f6;" horiz-adv-x="1146" 
d="M971 563v-31h-557q-101 0 -175 -66t-85 -165l-2 -301h-29l2 303q12 109 94.5 183.5t194.5 74.5h47q-99 43 -160 134t-61 200v178q0 149 105 255t253 106q151 0 257 -105t106 -256h-31q0 140 -96.5 237t-235.5 97q-136 0 -234 -98.5t-98 -235.5v-178q0 -136 98.5 -234
t233.5 -98h373z" />
    <glyph glyph-name="uni06F7" unicode="&#x6f7;" horiz-adv-x="1378" 
d="M1327 1434l-604 -1434h-53l-619 1434h39l606 -1399l592 1399h39z" />
    <glyph glyph-name="uni06F8" unicode="&#x6f8;" horiz-adv-x="1378" 
d="M1327 0h-39l-592 1399l-606 -1399h-39l619 1434h53z" />
    <glyph glyph-name="uni06F9" unicode="&#x6f9;" horiz-adv-x="1116" 
d="M563 1434q161 0 275 -114.5t114 -275.5v-1044h-34v532h-361q-113 0 -203 60t-135 148.5t-45 181.5v122q0 161 114 275.5t275 114.5zM922 563v481q0 149 -105.5 254t-253.5 105q-149 0 -253.5 -105t-104.5 -254v-122q0 -148 104.5 -253.5t253.5 -105.5h359z" />
    <glyph glyph-name="uni1E20" unicode="&#x1e20;" horiz-adv-x="1640" 
d="M1161 1712h-586v35h586v-35zM1487 696v-508q-129 -114 -274.5 -164.5t-342.5 -50.5q-312 8 -510 215.5t-198 526.5q0 211 91 380.5t253 265t364 95.5q215 0 376 -98t239 -277l-33 -14q-75 172 -225 263t-357 91q-192 0 -345.5 -90.5t-239.5 -252t-86 -363.5t85 -361.5
t238 -250t348 -95.5q179 0 319 45.5t261 149.5v456h-442v37h479z" />
    <glyph glyph-name="uni1E21" unicode="&#x1e21;" horiz-adv-x="1343" 
d="M373 1337h585v-34h-585v34zM1139 1030v-985q0 -207 -134.5 -349t-330.5 -142q-146 0 -277 83.5t-188 212.5l31 15q53 -120 175.5 -198.5t258.5 -78.5q179 0 304.5 133t125.5 324v277q-53 -148 -178 -237t-289 -89q-224 0 -364 147t-140 379q0 226 142.5 375.5
t361.5 149.5q167 0 291 -88t176 -236v307h35zM637 33q202 0 334.5 138t132.5 351q0 212 -133 351t-334 139q-207 0 -339 -137.5t-132 -352.5q0 -217 131.5 -353t339.5 -136z" />
    <glyph glyph-name="uni1E30" unicode="&#x1e30;" horiz-adv-x="1284" 
d="M668 1608h-41l198 317h45zM1221 1434l-889 -734l878 -700h-49l-858 678l-12 -10v-668h-35v1434h35v-721l878 721h52z" />
    <glyph glyph-name="uni1E31" unicode="&#x1e31;" horiz-adv-x="974" 
d="M227 1673h-41l199 318h45zM899 0l-641 524l-20 -16v-508h-33v1497h33v-944l636 471h48l-635 -477l653 -547h-41z" />
    <glyph glyph-name="uni1E3E" unicode="&#x1e3e;" horiz-adv-x="1921" 
d="M897 1608h-41l199 317h45zM1667 1434v-1434h-35v1354l-655 -1354h-53l-633 1356v-1354h-35v1432h37l657 -1399l688 1399h29z" />
    <glyph glyph-name="uni1E3F" unicode="&#x1e3f;" horiz-adv-x="1873" 
d="M895 1198h-41l199 318h45zM1309 1049q157 0 268 -110t111 -267v-670h-37v670q0 142 -100.5 242t-241.5 100q-143 0 -243.5 -100t-100.5 -242v-670h-33v670q0 142 -100.5 242t-243.5 100q-141 0 -241.5 -100t-100.5 -242v-670h-37v1022h37v-195q45 99 137 159.5t205 60.5
q124 0 223.5 -74t136.5 -189q37 114 137 188.5t224 74.5z" />
    <glyph glyph-name="uni1E40" unicode="&#x1e40;" horiz-adv-x="1921" 
d="M961 1731q-19 0 -31 12t-12 31t12 31t31 12t31 -12t12 -31t-12 -31t-31 -12zM1667 1434v-1434h-35v1354l-655 -1354h-53l-633 1356v-1354h-35v1432h37l657 -1399l688 1399h29z" />
    <glyph glyph-name="uni1E41" unicode="&#x1e41;" horiz-adv-x="1873" 
d="M903 1364q0 19 12 31t31 12t31 -12t12 -31t-12 -31t-31 -12t-31 12t-12 31zM1309 1049q157 0 268 -110t111 -267v-670h-37v670q0 142 -100.5 242t-241.5 100q-143 0 -243.5 -100t-100.5 -242v-670h-33v670q0 142 -100.5 242t-243.5 100q-141 0 -241.5 -100t-100.5 -242
v-670h-37v1022h37v-195q45 99 137 159.5t205 60.5q124 0 223.5 -74t136.5 -189q37 114 137 188.5t224 74.5z" />
    <glyph glyph-name="uni1E44" unicode="&#x1e44;" horiz-adv-x="1617" 
d="M809 1731q-19 0 -31 12t-12 31t12 31t31 12t31 -12t12 -31t-12 -31t-31 -12zM1364 1434v-1434h-41l-1032 1378v-1378h-37v1434h41l1032 -1379v1379h37z" />
    <glyph glyph-name="uni1E45" unicode="&#x1e45;" horiz-adv-x="1232" 
d="M578 1364q0 19 12 31t31 12t31 -12t12 -31t-12 -31t-31 -12t-31 12t-12 31zM616 1049q171 0 292.5 -121.5t121.5 -290.5v-637h-37v637q0 156 -109.5 266.5t-267.5 110.5q-156 0 -265 -110.5t-109 -266.5v-637h-37v1024h37v-223q48 112 149 180t225 68z" />
    <glyph glyph-name="Wgrave" unicode="&#x1e80;" horiz-adv-x="2070" 
d="M1014 1608l-203 317h45l199 -317h-41zM1980 1434h35l-471 -1434h-55l-442 1368l-447 -1368h-47l-481 1434h32l471 -1397l457 1397h29l455 -1409z" />
    <glyph glyph-name="wgrave" unicode="&#x1e81;" horiz-adv-x="1652" 
d="M797 1198l-203 318h45l199 -318h-41zM1591 1024l-377 -1024h-36l-355 969l-354 -969h-37l-375 1024h35l359 -975l356 975h33l356 -975l358 975h37z" />
    <glyph glyph-name="Wacute" unicode="&#x1e82;" horiz-adv-x="2070" 
d="M1057 1608h-41l198 317h46zM1980 1434h35l-471 -1434h-55l-442 1368l-447 -1368h-47l-481 1434h32l471 -1397l457 1397h29l455 -1409z" />
    <glyph glyph-name="wacute" unicode="&#x1e83;" horiz-adv-x="1652" 
d="M836 1198h-41l198 318h45zM1591 1024l-377 -1024h-36l-355 969l-354 -969h-37l-375 1024h35l359 -975l356 975h33l356 -975l358 975h37z" />
    <glyph glyph-name="Wdieresis" unicode="&#x1e84;" horiz-adv-x="2070" 
d="M827 1731q-19 0 -31 12t-12 31t12 31t31 12t31 -12t12 -31t-12 -31t-31 -12zM1245 1731q-19 0 -31 12t-12 31t12 31t31 12t31 -12t12 -31t-12 -31t-31 -12zM1980 1434h35l-471 -1434h-55l-442 1368l-447 -1368h-47l-481 1434h32l471 -1397l457 1397h29l455 -1409z" />
    <glyph glyph-name="wdieresis" unicode="&#x1e85;" horiz-adv-x="1652" 
d="M575 1364q0 19 12 31t31 12t31.5 -12t12.5 -31t-12.5 -31t-31.5 -12t-31 12t-12 31zM993 1364q0 19 12 31t31 12t31 -12t12 -31t-12 -31t-31 -12t-31 12t-12 31zM1591 1024l-377 -1024h-36l-355 969l-354 -969h-37l-375 1024h35l359 -975l356 975h33l356 -975l358 975h37
z" />
    <glyph glyph-name="uni1E90" unicode="&#x1e90;" horiz-adv-x="1228" 
d="M360 1608h-41l285 317h37l285 -317h-41l-262 290zM1126 35v-35h-1024v31l963 1368h-942v35h991v-31l-962 -1368h974z" />
    <glyph glyph-name="uni1E91" unicode="&#x1e91;" horiz-adv-x="987" 
d="M760 1198l-262 291l-262 -291h-41l284 318h37l285 -318h-41zM872 33v-33h-761v27l708 964h-688v33h733v-27l-708 -964h716z" />
    <glyph glyph-name="Ygrave" unicode="&#x1ef2;" horiz-adv-x="1241" 
d="M633 1608l-203 317h45l199 -317h-41zM1249 1434l-598 -820v-614h-35v614l-585 820h43l559 -785l571 783z" />
    <glyph glyph-name="ygrave" unicode="&#x1ef3;" horiz-adv-x="1052" 
d="M582 1198l-203 318h45l199 -318h-41zM1004 1024l-525 -1210q-58 -133 -123.5 -178.5t-193.5 -45.5h-109v33h109q111 0 171 41t107 150l76 176l-459 1034h39l441 -989l428 989h39z" />
    <glyph glyph-name="uni2000" unicode="&#x2000;" horiz-adv-x="1024" 
 />
    <glyph glyph-name="uni2001" unicode="&#x2001;" horiz-adv-x="2048" 
 />
    <glyph glyph-name="uni2002" unicode="&#x2002;" horiz-adv-x="1024" 
 />
    <glyph glyph-name="uni2003" unicode="&#x2003;" horiz-adv-x="2048" 
 />
    <glyph glyph-name="uni2009" unicode="&#x2009;" horiz-adv-x="471" 
 />
    <glyph glyph-name="uni200A" unicode="&#x200a;" horiz-adv-x="122" 
 />
    <glyph glyph-name="uni200B" unicode="&#x200b;" 
 />
    <glyph glyph-name="endash" unicode="&#x2013;" horiz-adv-x="1290" 
d="M133 606h1024v-33h-1024v33z" />
    <glyph glyph-name="emdash" unicode="&#x2014;" horiz-adv-x="2314" 
d="M133 606h2048v-33h-2048v33z" />
    <glyph glyph-name="quoteleft" unicode="&#x2018;" horiz-adv-x="389" 
d="M244 1458h32l-126 -467h-37z" />
    <glyph glyph-name="quoteright" unicode="&#x2019;" horiz-adv-x="389" 
d="M145 991h-32l127 467h36z" />
    <glyph glyph-name="quotesinglbase" unicode="&#x201a;" horiz-adv-x="378" 
d="M125 -285h-33l127 467h37z" />
    <glyph glyph-name="quotedblleft" unicode="&#x201c;" horiz-adv-x="677" 
d="M244 1458h32l-126 -467h-37zM532 1458h33l-127 -467h-37z" />
    <glyph glyph-name="quotedblright" unicode="&#x201d;" horiz-adv-x="677" 
d="M145 991h-32l127 467h36zM434 991h-33l127 467h37z" />
    <glyph glyph-name="quotedblbase" unicode="&#x201e;" horiz-adv-x="667" 
d="M125 -285h-33l127 467h37zM414 -285h-33l127 467h37z" />
    <glyph glyph-name="dagger" unicode="&#x2020;" horiz-adv-x="1081" 
d="M979 930h-420v-1196h-35v1196h-422v33h422v553h35v-553h420v-33z" />
    <glyph glyph-name="daggerdbl" unicode="&#x2021;" horiz-adv-x="1122" 
d="M580 930v-578h378v-33h-378v-585h-35v585h-381v33h381v578h-422v33h422v553h35v-553h419v-33h-419z" />
    <glyph glyph-name="bullet" unicode="&#x2022;" horiz-adv-x="937" 
d="M469 555q-78 0 -130 52t-52 130t52 130.5t130 52.5t130 -52.5t52 -130.5t-52 -130t-130 -52z" />
    <glyph glyph-name="ellipsis" unicode="&#x2026;" horiz-adv-x="1290" 
d="M215 0q-19 0 -31 12t-12 31t12 31t31 12t31 -12t12 -31t-12 -31t-31 -12zM645 0q-19 0 -31 12t-12 31t12 31t31 12t31 -12t12 -31t-12 -31t-31 -12zM1075 0q-19 0 -31 12t-12 31t12 31t31 12t31 -12t12 -31t-12 -31t-31 -12z" />
    <glyph glyph-name="perthousand" unicode="&#x2030;" horiz-adv-x="2404" 
d="M414 811q-141 0 -231.5 90t-90.5 234t90.5 233.5t231.5 89.5t231 -89.5t90 -233.5t-90.5 -234t-230.5 -90zM1311 1434h43l-1053 -1434h-43zM414 844q128 0 207 80.5t79 210.5t-79 210t-207 80t-207.5 -80t-79.5 -210t79.5 -210.5t207.5 -80.5zM1198 -25q-140 0 -230.5 90
t-90.5 234t90.5 234t230.5 90q141 0 231.5 -90t90.5 -234t-90.5 -234t-231.5 -90zM1991 -25q-141 0 -231.5 90t-90.5 234t90.5 234t231.5 90q140 0 230.5 -90t90.5 -234t-90.5 -234t-230.5 -90zM1198 8q128 0 207.5 80.5t79.5 210.5t-79.5 210.5t-207.5 80.5t-207.5 -80.5
t-79.5 -210.5t79.5 -210.5t207.5 -80.5zM1991 8q128 0 207 80.5t79 210.5t-79 210.5t-207 80.5t-207.5 -80.5t-79.5 -210.5t79.5 -210.5t207.5 -80.5z" />
    <glyph glyph-name="guilsinglleft" unicode="&#x2039;" horiz-adv-x="540" 
d="M135 512l293 -418h-43l-293 418l293 418h43z" />
    <glyph glyph-name="guilsinglright" unicode="&#x203a;" horiz-adv-x="540" 
d="M449 512l-293 -418h-43l293 418l-293 418h43z" />
    <glyph glyph-name="fraction" unicode="&#x2044;" horiz-adv-x="223" 
d="M594 1434h39l-1004 -1434h-39z" />
    <glyph glyph-name="Euro" unicode="&#x20ac;" horiz-adv-x="1314" 
d="M782 10q136 0 242.5 90.5t155.5 253.5l32 -8q-52 -171 -165 -271t-265 -100q-191 0 -326.5 157.5t-170.5 416.5h-203v33h199q-7 75 -7 135t7 135h-199v33h203q35 259 170.5 416t326.5 157q152 0 265 -100t165 -271l-32 -8q-49 163 -155.5 253.5t-242.5 90.5
q-175 0 -299.5 -146.5t-158.5 -391.5h596v-33h-601q-8 -57 -8 -135t8 -135h601v-33h-596q34 -245 158.5 -392t299.5 -147z" />
    </font>
</defs>
</svg>
