<?xml version="1.0" standalone="no"?>
<!DOCTYPE svg PUBLIC "-//W3C//DTD SVG 1.1//EN" "http://www.w3.org/Graphics/SVG/1.1/DTD/svg11.dtd" >
<svg xmlns="http://www.w3.org/2000/svg" xmlns:xlink="http://www.w3.org/1999/xlink" version="1.1">
<metadata>
Created by FontForge 20170731 at Sat May 27 13:23:41 2023
 By Aleksey,,,
Copyright (c) 2021 by __Designer__. All rights reserved.
</metadata>
<defs>
<font id="LamaSans-Black" horiz-adv-x="0" >
  <font-face 
    font-family="Lama Sans Black"
    font-weight="900"
    font-stretch="normal"
    units-per-em="2048"
    panose-1="0 0 2 0 0 0 0 0 0 0"
    ascent="1638"
    descent="-410"
    x-height="1024"
    cap-height="1434"
    bbox="-1116 -961 3060 2339"
    underline-thickness="102"
    underline-position="-347"
    unicode-range="U+000D-FEFC"
  />
<missing-glyph horiz-adv-x="972" 
d="M799 1434v-1946h-619v1946h619zM647 1303h-319v-64h125v-72h-127v-63h321v63h-127v72h127v64zM520 1053h-194v-203h321v65h-127v138zM453 987v-72h-64v72h64zM647 797h-321v-64h127v-71h-127v-64h194v135h127v64zM647 680h-63v-127h-258v-68h321v195zM647 442h-194v-108
h67v45h64v-92h-195v155h-63v-219h321v219zM647 106h-321v-219h321v219zM584 43v-92h-195v92h195zM647 -158h-321v-63h135l-135 -92v-64h321v64h-198l137 92h61v63z" />
    <glyph glyph-name="uniFDF2" unicode="&#x627;&#xfedf;&#xfee0;&#xfeea;" horiz-adv-x="3223" arabic-form="isolated" 
d="M1642 2167v-262h-135v221zM1481 1532q-70 0 -117 47.5t-47 116.5v96h139v-96q0 -25 23 -25q11 0 18.5 7.5t7.5 17.5v123h140v-103q0 -24 22 -24q11 0 19 7t8 17v158h139v-158q0 -72 -37 -119t-104 -47q-27 0 -56.5 10.5t-46.5 30.5q-44 -59 -108 -59zM2093 373v1061h320
v-1061q0 -154 -109.5 -263.5t-263.5 -109.5h-117q-154 0 -281 96q-117 -96 -262 -96h-198q-153 0 -262 109q-141 -109 -320 -109q-138 0 -257 66t-190 181t-71 249v30q0 223 145.5 360.5t372.5 137.5h526l2 -651q0 -30 10 -42t44 -12h116h2h43q49 0 84 34.5t35 84.5v996h322
v-998q9 -50 48.5 -83.5t90.5 -33.5h117q22 0 37.5 16t15.5 38zM2740 1434h320v-1434h-320v1434zM807 526v179h-207q-81 0 -142 -46.5t-61 -132.5v-16q0 -78 61 -134.5t142 -56.5q86 0 146.5 60.5t60.5 146.5z" />
    <glyph glyph-name="uniFEF5" unicode="&#xfedf;&#xfe82;" horiz-adv-x="1337" arabic-form="isolated" 
d="M227 1403l-84 94l158 102q17 12 39 10.5t37 -16.5q39 -39 91.5 -51t119.5 -12q15 0 41 5.5t42.5 10t50.5 14.5t36 11l53 -150q-47 -21 -115 -39t-108 -18q-140 0 -246 90q-14 14 -31 0zM915 1434h320v-1061q0 -154 -109.5 -263.5t-263.5 -109.5h-780v319h299v879h319
v-879h162q22 0 37.5 16t15.5 38v1061z" />
    <glyph glyph-name="uniFEF6" unicode="&#xfee0;&#xfe82;" horiz-adv-x="1443" arabic-form="final" 
d="M219 1393l-84 94l158 102q17 12 39 10.5t37 -16.5q39 -39 91.5 -51t119.5 -12q15 0 41 5.5t42.5 10t50.5 14.5t36 11l53 -150q-47 -21 -115 -39t-108 -18q-140 0 -246 90q-14 14 -31 0zM1448 319q66 0 113 -45.5t47 -111.5q0 -68 -47.5 -115t-114.5 -47h-70
q-153 0 -280 96q-117 -96 -262 -96h-752v319h299v875h319v-875h97q49 0 83.5 34.5t34.5 84.5v996h322v-998q9 -50 48.5 -83.5t90.5 -33.5h72z" />
    <glyph glyph-name="uniFEF7" unicode="&#xfedf;&#xfe84;" horiz-adv-x="1337" arabic-form="isolated" 
d="M770 1477v-160h-481v160h67q-11 48 -6 77q12 79 71.5 134t143.5 55q70 0 124 -33t83 -96l-123 -94q-22 37 -37 49t-47 12q-22 0 -37.5 -13t-15.5 -32q0 -11 2.5 -22t15.5 -24t35 -13h205zM915 1434h320v-1061q0 -154 -109.5 -263.5t-263.5 -109.5h-780v319h299v879h319
v-879h162q22 0 37.5 16t15.5 38v1061z" />
    <glyph glyph-name="uniFEF8" unicode="&#xfee0;&#xfe84;" horiz-adv-x="1443" arabic-form="final" 
d="M770 1477v-160h-481v160h67q-11 48 -6 77q12 79 71.5 134t143.5 55q70 0 124 -33t83 -96l-123 -94q-22 37 -37 49t-47 12q-22 0 -37.5 -13t-15.5 -32q0 -11 2.5 -22t15.5 -24t35 -13h205zM1448 319q66 0 113 -45.5t47 -111.5q0 -68 -47.5 -115t-114.5 -47h-70
q-153 0 -280 96q-117 -96 -262 -96h-584q-72 0 -120 45.5t-48 114.5t48 114t120 45h131v875h319v-875h97q49 0 83.5 34.5t34.5 84.5v996h322v-998q9 -50 48.5 -83.5t90.5 -33.5h72z" />
    <glyph glyph-name="uniFEF9" unicode="&#xfedf;&#xfe88;" horiz-adv-x="1337" arabic-form="isolated" 
d="M915 1434h320v-1061q0 -154 -109.5 -263.5t-263.5 -109.5h-780v319h299v879h319v-879h162q22 0 37.5 16t15.5 38v1061zM524 -295q-22 0 -37.5 -13t-15.5 -32q0 -11 2.5 -22t15.5 -24t35 -13h205v-160h-481v160h67q-11 48 -6 77q12 79 71.5 134t143.5 55q148 0 207 -129
l-123 -94q-22 37 -37 49t-47 12z" />
    <glyph glyph-name="uniFEFA" unicode="&#xfee0;&#xfe88;" horiz-adv-x="1443" arabic-form="final" 
d="M1448 319q66 0 113 -45.5t47 -111.5q0 -68 -47.5 -115t-114.5 -47h-70q-153 0 -280 96q-117 -96 -262 -96h-752v319h299v875h319v-875h97q49 0 83.5 34.5t34.5 84.5v996h322v-998q9 -50 48.5 -83.5t90.5 -33.5h72zM524 -295q-22 0 -37.5 -13t-15.5 -32q0 -11 2.5 -22
t15.5 -24t35 -13h205v-160h-481v160h67q-11 48 -6 77q12 79 71.5 134t143.5 55q148 0 207 -129l-123 -94q-22 37 -37 49t-47 12z" />
    <glyph glyph-name="uniFEFB" unicode="&#xfedf;&#xfe8e;" horiz-adv-x="1337" arabic-form="isolated" 
d="M915 1434h320v-1061q0 -154 -109.5 -263.5t-263.5 -109.5h-780v319h299v879h319v-879h162q22 0 37.5 16t15.5 38v1061z" />
    <glyph glyph-name="uniFEFC" unicode="&#xfee0;&#xfe8e;" horiz-adv-x="1443" arabic-form="final" 
d="M1448 319q66 0 113 -45.5t47 -111.5q0 -68 -47.5 -115t-114.5 -47h-70q-153 0 -280 96q-117 -96 -262 -96h-752v319h299v875h319v-875h97q49 0 83.5 34.5t34.5 84.5v996h322v-998q9 -50 48.5 -83.5t90.5 -33.5h72z" />
    <glyph glyph-name="uniFEDFFB51" unicode="&#xfedf;&#xfb51;" horiz-adv-x="1337" 
d="M915 1434h320v-1061q0 -154 -109.5 -263.5t-263.5 -109.5h-780v319h299v879h319v-879h162q22 0 37.5 16t15.5 38v1061z" />
    <glyph glyph-name="uniFEE0FB51" unicode="&#xfee0;&#xfb51;" horiz-adv-x="1443" 
d="M1448 319q66 0 113 -45.5t47 -111.5q0 -68 -47.5 -115t-114.5 -47h-70q-153 0 -280 96q-117 -96 -262 -96h-752v319h299v875h319v-875h97q49 0 83.5 34.5t34.5 84.5v996h322v-998q9 -50 48.5 -83.5t90.5 -33.5h72z" />
    <glyph glyph-name="uni066E.init" unicode="&#x66e;" horiz-adv-x="612" 
d="M154 0h-156q-66 0 -114 48t-48 114q0 68 47.5 112.5t114.5 44.5h158q25 0 40 16t15 40v649h319v-649q0 -154 -110 -264.5t-266 -110.5z" />
    <glyph glyph-name="uni066E.medi" unicode="&#x66e;" horiz-adv-x="778" 
d="M782 319q66 0 113 -45.5t47 -111.5q0 -68 -47.5 -115t-114.5 -47h-69q-154 0 -281 96q-117 -96 -262 -96h-164q-72 0 -120 45.5t-48 114.5t48 114t120 45h127q49 0 84 34.5t35 84.5v381h321v-383q9 -50 49 -83.5t91 -33.5h71z" />
    <glyph glyph-name="uni066E.fina" unicode="&#x66e;" horiz-adv-x="1896" 
d="M1901 319q66 0 112.5 -45.5t46.5 -111.5q0 -68 -47.5 -115t-114.5 -47h-59q-153 0 -280 96q-117 -96 -263 -96h-764q-195 0 -333 137t-138 330v352h324v-352q0 -63 42.5 -105.5t104.5 -42.5h728q49 0 83.5 34.5t34.5 84.5v586h322v-588q9 -50 48.5 -83.5t90.5 -33.5h62z
" />
    <glyph glyph-name="uni066F.fina" unicode="&#x66f;" horiz-adv-x="1804" 
d="M1825 319v-319h-238v-90q0 -143 -101 -244.5t-245 -101.5h-567q-162 0 -298.5 78.5t-215 214.5t-78.5 297v315h319v-309q0 -112 80.5 -192.5t192.5 -80.5h522q30 0 51 21t21 51v41h-174q-142 0 -262.5 67.5t-190.5 182.5t-70 250v26q0 146 68 267.5t188.5 192.5t266.5 71
q131 0 244.5 -66.5t181 -182.5t67.5 -253v-236h238zM1268 319v236q0 74 -52.5 127t-121.5 53q-89 0 -147 -60t-58 -149v-20q0 -75 61 -131t144 -56h174z" />
    <glyph glyph-name="uni06A1.init" unicode="&#x6a1;" horiz-adv-x="1200" 
d="M600 1024h498v-815q0 -86 -60.5 -147.5t-146.5 -61.5h-911v319h143q-35 79 -35 201v25q0 134 71 244.5t188 172t253 62.5zM780 352v371h-178q-82 0 -141.5 -59.5t-59.5 -143.5v-12q4 -79 63.5 -134t137.5 -55h148q12 0 21 10t9 23z" />
    <glyph glyph-name="uni06A1.medi" unicode="&#x6a1;" horiz-adv-x="1241" 
d="M1102 319h160v-319h-1282v319h172q-35 79 -35 201v25q0 135 70.5 249.5t188.5 180.5t253 67q134 1 249 -66t181.5 -182t66.5 -249v-133q0 -26 -6 -49.5t-12 -33.5zM778 319q12 0 21.5 10t9.5 23v193q0 72 -52.5 125t-125.5 53q-82 0 -141.5 -59.5t-59.5 -143.5v-12
q4 -79 63.5 -134t137.5 -55h147z" />
    <glyph glyph-name="uni06A1.fina" unicode="&#x6a1;" horiz-adv-x="2222" 
d="M2243 319v-319h-1696q-125 0 -232 62.5t-170 170t-63 234.5v250h317v-250q0 -62 43.5 -105t104.5 -43h487q-35 79 -35 201v25q0 135 70.5 249.5t188.5 180.5t253 67q134 1 249 -66t182 -182t67 -249v-226h234zM1692 319v226q0 72 -53 125t-126 53q-82 0 -141 -59.5
t-59 -143.5v-12q0 -78 60.5 -133.5t139.5 -55.5h179z" />
    <glyph glyph-name="uni06C2.fina" unicode="&#x6c2;" horiz-adv-x="1296" 
d="M1012 1333v-159h-482v159h68q-11 48 -6 78q12 79 71.5 133.5t143.5 54.5q148 0 207 -129l-123 -94q-22 37 -37 49.5t-47 12.5q-22 0 -37.5 -13t-15.5 -32q0 -11 2.5 -22.5t15.5 -24.5t35 -13h205zM696 8q-41 -8 -96 -8q-138 0 -257 66t-190 181t-71 249v30
q0 223 145.5 360.5t372.5 137.5h526l2 -651q0 -30 10 -42t44 -12h116q67 0 113.5 -45.5t48.5 -111.5q0 -66 -47 -113t-113 -49h-118q-8 0 -37.5 -1t-49 -0.5t-53 2.5t-57 10.5t-53 21.5t-50 36t-39 53.5t-27.5 75.5t-9 101v406h-207q-81 0 -142 -46.5t-61 -132.5v-16
q0 -78 61 -134.5t142 -56.5h15.5h14t11.5 0.5t12.5 2t11 4t13.5 6.5z" />
    <glyph glyph-name="uni06C3.fina" unicode="&#x6c3;" horiz-adv-x="1296" 
d="M696 8q-41 -8 -96 -8q-138 0 -257 66t-190 181t-71 249v30q0 223 145.5 360.5t372.5 137.5h526l2 -651q0 -30 10 -42t44 -12h116q67 0 113.5 -45.5t48.5 -111.5q0 -66 -47 -113t-113 -49h-118q-8 0 -37.5 -1t-49 -0.5t-53 2.5t-57 10.5t-53 21.5t-50 36t-39 53.5
t-27.5 75.5t-9 101v406h-207q-81 0 -142 -46.5t-61 -132.5v-16q0 -78 61 -134.5t142 -56.5h15.5h14t11.5 0.5t12.5 2t11 4t13.5 6.5z" />
    <glyph glyph-name="uniFB51" unicode="&#x671;" horiz-adv-x="585" arabic-form="final" 
d="M606 0h-90q-154 0 -263.5 109.5t-109.5 263.5v1061h320v-1061q0 -22 15.5 -38t37.5 -16h90v-319z" />
    <glyph glyph-name="uniFB57" unicode="&#x67e;" horiz-adv-x="1896" arabic-form="final" 
d="M1901 319q66 0 112.5 -45.5t46.5 -111.5q0 -68 -47.5 -115t-114.5 -47h-59q-153 0 -280 96q-117 -96 -263 -96h-764q-195 0 -333 137t-138 330v352h324v-352q0 -63 42.5 -105.5t104.5 -42.5h728q49 0 83.5 34.5t34.5 84.5v586h322v-588q9 -50 48.5 -83.5t90.5 -33.5h62z
M721 -524q-73 0 -125.5 52t-52.5 124q0 74 52.5 126t125.5 52t125.5 -52t52.5 -126q0 -72 -52.5 -124t-125.5 -52zM1163 -524q-73 0 -125.5 52t-52.5 124q0 74 52.5 126t125.5 52t125.5 -52t52.5 -126q0 -72 -52.5 -124t-125.5 -52zM938 -934q-73 0 -125.5 52t-52.5 124
q0 74 52 126t126 52t126 -52t52 -126q0 -72 -52.5 -124t-125.5 -52z" />
    <glyph glyph-name="uniFB58" unicode="&#x67e;" horiz-adv-x="837" arabic-form="initial" 
d="M379 0h-381q-66 0 -114 48t-48 114q0 68 47.5 112.5t114.5 44.5h383q25 0 40 16t15 40v649h320v-649q0 -154 -110.5 -264.5t-266.5 -110.5zM190 -524q-73 0 -125.5 52t-52.5 124q0 74 52 126t126 52t126.5 -52.5t52.5 -125.5q0 -72 -53 -124t-126 -52zM633 -524
q-73 0 -125.5 52t-52.5 124q0 74 52.5 126t125.5 52t125.5 -52t52.5 -126q0 -72 -52.5 -124t-125.5 -52zM408 -934q-73 0 -126 52t-53 124q0 73 52.5 125.5t126.5 52.5t126 -52t52 -126q0 -72 -52.5 -124t-125.5 -52z" />
    <glyph glyph-name="uniFB59" unicode="&#x67e;" horiz-adv-x="778" arabic-form="medial" 
d="M782 319q66 0 113 -45.5t47 -111.5q0 -68 -47.5 -115t-114.5 -47h-69q-154 0 -281 96q-117 -96 -262 -96h-164q-72 0 -120 45.5t-48 114.5t48 114t120 45h127q49 0 84 34.5t35 84.5v381h321v-383q9 -50 49 -83.5t91 -33.5h71zM164 -524q-73 0 -125.5 52t-52.5 124
q0 74 52 126t126 52t126 -52t52 -126q0 -72 -52.5 -124t-125.5 -52zM606 -524q-73 0 -125.5 52t-52.5 124q0 74 52 126t126 52t126 -52t52 -126q0 -72 -52.5 -124t-125.5 -52zM381 -934q-73 0 -125.5 52t-52.5 124q0 74 52.5 126t125.5 52t125.5 -52t52.5 -126
q0 -72 -52.5 -124t-125.5 -52z" />
    <glyph glyph-name="uniFB67" unicode="&#x679;" horiz-adv-x="1896" arabic-form="final" 
d="M598 975v135h94v371h135v-224q75 68 154 68q90 0 138 -57.5t48 -165.5v-127h-569zM963 1190q-71 0 -136 -76v-4h207q-2 37 -20.5 58.5t-50.5 21.5zM1901 319q66 0 112.5 -45.5t46.5 -111.5q0 -68 -47.5 -115t-114.5 -47h-59q-153 0 -280 96q-117 -96 -263 -96h-764
q-195 0 -333 137t-138 330v352h324v-352q0 -63 42.5 -105.5t104.5 -42.5h728q49 0 83.5 34.5t34.5 84.5v586h322v-588q9 -50 48.5 -83.5t90.5 -33.5h62z" />
    <glyph glyph-name="uniFB68" unicode="&#x679;" horiz-adv-x="612" arabic-form="initial" 
d="M469 1528q90 0 138 -57.5t48 -165.5v-127h-569v135h94v370h135v-223q75 68 154 68zM315 1317v-4h207q-2 37 -20.5 58.5t-50.5 21.5q-71 0 -136 -76zM211 375v649h319v-649q0 -154 -110 -264.5t-266 -110.5h-156q-66 0 -114 48t-48 114q0 68 47.5 112.5t114.5 44.5h158
q25 0 40 16t15 40z" />
    <glyph glyph-name="uniFB69" unicode="&#x679;" horiz-adv-x="778" arabic-form="medial" 
d="M135 1024v135h94v371h136v-223q74 67 153 67q90 0 138.5 -57.5t48.5 -165.5v-127h-570zM500 1239q-70 0 -135 -76v-4h206q-2 37 -20.5 58.5t-50.5 21.5zM782 319q66 0 113 -45.5t47 -111.5q0 -68 -47.5 -115t-114.5 -47h-69q-154 0 -281 96q-117 -96 -262 -96h-164
q-72 0 -120 45.5t-48 114.5t48 114t120 45h127q49 0 84 34.5t35 84.5v381h321v-383q9 -50 49 -83.5t91 -33.5h71z" />
    <glyph glyph-name="uniFB6B" unicode="&#x6a4;" horiz-adv-x="2140" arabic-form="final" 
d="M1524 1917q73 0 125.5 -52t52.5 -124q0 -73 -52 -125.5t-126 -52.5t-126 52.5t-52 125.5q0 72 52.5 124t125.5 52zM1307 1507q73 0 125.5 -52t52.5 -124q0 -73 -52.5 -125.5t-125.5 -52.5q-74 0 -126.5 52.5t-52.5 125.5q0 72 53 124t126 52zM1749 1507q73 0 125.5 -52
t52.5 -124q0 -73 -52.5 -125.5t-125.5 -52.5t-125.5 52.5t-52.5 125.5q0 72 52.5 124t125.5 52zM2161 319v-319h-1614q-125 0 -232 62.5t-170 170t-63 234.5v332h317v-332q0 -62 43.5 -105t104.5 -43h487q-35 79 -35 185v24q0 135 70.5 250t188.5 181t253 67
q134 1 249 -66.5t182 -182.5t67 -249v-209h152zM1692 319v209q0 72 -53 125.5t-126 53.5q-82 0 -141 -59.5t-59 -143.5v-12q0 -77 59.5 -125t140.5 -48h179z" />
    <glyph glyph-name="uniFB6C" unicode="&#x6a4;" horiz-adv-x="1200" arabic-form="initial" 
d="M715 1917q73 0 125.5 -52t52.5 -124q0 -73 -52.5 -125.5t-125.5 -52.5t-125.5 52.5t-52.5 125.5q0 72 52.5 124t125.5 52zM498 1507q73 0 125.5 -52t52.5 -124q0 -73 -52 -125.5t-126 -52.5t-126.5 52.5t-52.5 125.5q0 72 53 124t126 52zM940 1507q73 0 125.5 -52
t52.5 -124q0 -73 -52 -125.5t-126 -52.5t-126 52.5t-52 125.5q0 72 52.5 124t125.5 52zM600 1024h498v-815q0 -86 -60.5 -147.5t-146.5 -61.5h-911v319h143q-35 79 -35 201v25q0 134 71 244.5t188 172t253 62.5zM780 352v371h-178q-82 0 -141.5 -59.5t-59.5 -143.5v-12
q4 -79 63.5 -134t137.5 -55h148q12 0 21 10t9 23z" />
    <glyph glyph-name="uniFB6D" unicode="&#x6a4;" horiz-adv-x="1241" arabic-form="medial" 
d="M643 1917q73 0 125.5 -52t52.5 -124q0 -73 -52.5 -125.5t-125.5 -52.5t-125.5 52.5t-52.5 125.5q0 72 52.5 124t125.5 52zM426 1507q73 0 125.5 -52t52.5 -124q0 -73 -52 -125.5t-126 -52.5t-126 52.5t-52 125.5q0 72 52.5 124t125.5 52zM868 1507q73 0 126 -52t53 -124
q0 -73 -52.5 -125.5t-126.5 -52.5t-126 52.5t-52 125.5q0 72 52.5 124t125.5 52zM1102 319h160v-319h-1282v319h172q-35 79 -35 183v24q0 135 70.5 250t188.5 181t253 67q134 1 249 -66.5t181.5 -182.5t66.5 -249v-114q0 -26 -6 -49.5t-12 -33.5zM778 319q12 0 21.5 10
t9.5 23v174q0 72 -52.5 125.5t-125.5 53.5q-82 0 -141.5 -59.5t-59.5 -143.5v-13q0 -76 59.5 -123t141.5 -47h147z" />
    <glyph glyph-name="uniFB7B" unicode="&#x686;" horiz-adv-x="1460" arabic-form="final" 
d="M610 0q-85 0 -144.5 -60.5t-59.5 -146.5t59.5 -146.5t144.5 -60.5h404v-319h-406q-143 0 -264 70.5t-191.5 191.5t-70.5 264t70.5 264t191.5 191.5t264 70.5h465q-22 31 -22 66v18q-6 167 -101 234q-160 129 -501 12l-142 285q256 99 465.5 92.5t372.5 -127.5
q211 -171 223 -498v-18q0 -64 37 -64h188v-319h-983zM608 -205q-31 0 -52 21.5t-21 52.5t21 52.5t52 21.5t52.5 -21.5t21.5 -52.5t-21.5 -52.5t-52.5 -21.5zM791 -205q-31 0 -52.5 21.5t-21.5 52.5t21.5 52.5t52.5 21.5t52 -21.5t21 -52.5t-21 -52.5t-52 -21.5zM698 -375
q-31 0 -52 21.5t-21 52.5t21 52.5t52 21.5t52.5 -21.5t21.5 -52.5t-21.5 -52.5t-52.5 -21.5z" />
    <glyph glyph-name="uniFB7C" unicode="&#x686;" horiz-adv-x="1253" arabic-form="initial" 
d="M1192 0h-1194q-65 0 -113.5 47.5t-48.5 112.5t48.5 112t113.5 47h815q-33 21 -33 60v18q0 172 -102 248q-59 45 -135.5 58.5t-165 -1.5t-205.5 -55l-131 289q255 99 459.5 90.5t369.5 -129.5q41 -30 76.5 -69.5t70.5 -97.5t55 -139t20 -175v-35q0 -62 53 -62h47v-319z
M408 -524q-73 0 -126 52t-53 124q0 73 52.5 125.5t126.5 52.5t126 -52t52 -126q0 -72 -52.5 -124t-125.5 -52zM850 -524q-73 0 -125.5 52t-52.5 124q0 74 52 126t126 52t126 -52t52 -126q0 -72 -52.5 -124t-125.5 -52zM625 -934q-73 0 -126 52t-53 124q0 73 52.5 125.5
t126.5 52.5q73 0 125.5 -52t52.5 -126q0 -72 -52.5 -124t-125.5 -52z" />
    <glyph glyph-name="uniFB7D" unicode="&#x686;" horiz-adv-x="1249" arabic-form="medial" 
d="M1296 0h-1298q-65 0 -113.5 47.5t-48.5 112.5t48.5 112t113.5 47h815q-33 21 -33 60v16q0 172 -102 248q-161 121 -490 8l-116 287q236 99 437 86t361 -129q41 -30 76.5 -69.5t70.5 -97.5t55 -139t20 -175v-33q0 -62 53 -62h151v-319zM371 -524q-73 0 -125.5 52
t-52.5 124q0 74 52.5 126t125.5 52t125.5 -52t52.5 -126q0 -72 -52.5 -124t-125.5 -52zM813 -524q-73 0 -125.5 52t-52.5 124q0 74 52.5 126t125.5 52t125.5 -52t52.5 -126q0 -72 -52.5 -124t-125.5 -52zM588 -934q-73 0 -125.5 52t-52.5 124q0 74 52 126t126 52t126 -52
t52 -126q0 -72 -52.5 -124t-125.5 -52z" />
    <glyph glyph-name="uniFB89" unicode="&#x688;" horiz-adv-x="1298" arabic-form="final" 
d="M446 1210v136h95v370h135v-223q75 68 153 68q90 0 138.5 -58t48.5 -166v-127h-570zM811 1425q-71 0 -135 -75v-4h207q-2 37 -21 58t-51 21zM1303 319q68 0 113.5 -47t45.5 -114q0 -65 -45.5 -111.5t-113.5 -46.5h-60q-180 0 -317 106q-128 -106 -277 -106h-598v319h598
q27 0 43.5 10t20.5 21q30 25 22 66l-172 608l303 84l176 -608q5 -20 5 -23l2 -4q19 -70 71.5 -112t122.5 -42h60z" />
    <glyph glyph-name="uniFB8B" unicode="&#x698;" horiz-adv-x="780" arabic-form="final" 
d="M436 1966q73 0 125.5 -52t52.5 -124q0 -74 -52 -126t-126 -52t-126 52t-52 126q0 72 52.5 124t125.5 52zM219 1556q73 0 125.5 -52t52.5 -124q0 -74 -52.5 -126t-125.5 -52t-125.5 52t-52.5 126q0 72 52.5 124t125.5 52zM662 1556q73 0 125.5 -52t52.5 -124
q0 -74 -52 -126t-126 -52t-126.5 52.5t-52.5 125.5q0 72 53 124t126 52zM784 319q66 0 113 -46t47 -113t-47 -113.5t-113 -46.5h-53q-65 0 -139 23l-2 -23q-21 -196 -148 -323t-356 -169l-117 302q77 15 128.5 33t94.5 48t63.5 75.5t20.5 109.5v948h318v-567q0 -56 41 -97
t96 -41h53z" />
    <glyph glyph-name="uniFB8D" unicode="&#x691;" horiz-adv-x="780" arabic-form="final" 
d="M156 1202v135h94v371h135v-223q74 67 154 67q90 0 138 -57.5t48 -165.5v-127h-569zM520 1417q-70 0 -135 -76v-4h207q-2 37 -21 58.5t-51 21.5zM784 319q66 0 113 -46t47 -113t-47 -113.5t-113 -46.5h-53q-65 0 -139 23l-2 -23q-21 -196 -148 -323t-356 -169l-117 302
q77 15 128.5 33t94.5 48t63.5 75.5t20.5 109.5v948h318v-567q0 -56 41 -97t96 -41h53z" />
    <glyph glyph-name="uniFB8F" unicode="&#x6a9;" horiz-adv-x="2201" arabic-form="final" 
d="M2003 319h219v-317h-811v-2h-838q-195 0 -333 137t-138 330v350h324v-350q0 -63 42.5 -105.5t104.5 -42.5h1110v121q0 113 -78.5 191t-189.5 78h-448l-179 350l431 596l262 -187l-318 -436h273q154 0 284.5 -75.5t206.5 -206.5t76 -287v-144z" />
    <glyph glyph-name="uniFB90" unicode="&#x6a9;" horiz-adv-x="1495" arabic-form="initial" 
d="M825 1032q115 0 220.5 -44.5t181.5 -120.5t121 -181.5t45 -222.5v-277q0 -76 -55 -131t-132 -55h-1226v319h1036q23 0 40 17.5t17 40.5v63q0 113 -78.5 191t-189.5 78h-447l-237 350l409 571l263 -186l-295 -412h327z" />
    <glyph glyph-name="uniFB91" unicode="&#x6a9;" horiz-adv-x="1482" arabic-form="medial" 
d="M1284 319h219v-317l-1523 -2v319h985v121q0 113 -79 191t-190 78h-448l-178 350l430 596l262 -187l-318 -436h273q154 0 284.5 -75.5t206.5 -206.5t76 -287v-144z" />
    <glyph glyph-name="uniFB93" unicode="&#x6af;" horiz-adv-x="2201" arabic-form="final" 
d="M1096 1704l-404 -535l-100 93l395 524zM2003 319h219v-317h-811v-2h-838q-195 0 -333 137t-138 330v350h324v-350q0 -63 42.5 -105.5t104.5 -42.5h1110v121q0 113 -78.5 191t-189.5 78h-448l-179 350l431 596l262 -187l-318 -436h273q154 0 284.5 -75.5t206.5 -206.5
t76 -287v-144z" />
    <glyph glyph-name="uniFB94" unicode="&#x6af;" horiz-adv-x="1495" arabic-form="initial" 
d="M-61 1233l395 524l108 -82l-403 -534zM825 1032q115 0 220.5 -44.5t181.5 -120.5t121 -181.5t45 -222.5v-463h-1413v319h1093v121q0 113 -78.5 191t-189.5 78h-447l-237 350l409 571l263 -186l-295 -412h327z" />
    <glyph glyph-name="uniFB95" unicode="&#x6af;" horiz-adv-x="1482" arabic-form="medial" 
d="M401 1702l-403 -535l-100 93l395 524zM1284 319h219v-317l-1523 -2v319h985v121q0 113 -79 191t-190 78h-448l-178 350l430 596l262 -187l-318 -436h273q154 0 284.5 -75.5t206.5 -206.5t76 -287v-144z" />
    <glyph glyph-name="uniFB9F" unicode="&#x6ba;" horiz-adv-x="1529" arabic-form="final" 
d="M1530 319q67 0 115.5 -47t48.5 -112q0 -67 -48 -113.5t-116 -46.5h-123q-19 0 -51 4v-170q0 -96 -65.5 -163.5t-160.5 -67.5h-462q-160 0 -295 78.5t-213 213.5t-78 295v383h317v-383q0 -111 78.5 -189.5t190.5 -78.5h286q35 0 59.5 24.5t24.5 59.5v1018h318v-668
q5 -16 19 -26.5t32 -10.5h123z" />
    <glyph glyph-name="uniFBA7" unicode="&#x6c1;" horiz-adv-x="1296" arabic-form="final" 
d="M696 8q-41 -8 -96 -8q-138 0 -257 66t-190 181t-71 249v30q0 223 145.5 360.5t372.5 137.5h526l2 -651q0 -30 10 -42t44 -12h116q67 0 113.5 -45.5t48.5 -111.5q0 -66 -47 -113t-113 -49h-118q-8 0 -37.5 -1t-49 -0.5t-53 2.5t-57 10.5t-53 21.5t-50 36t-39 53.5
t-27.5 75.5t-9 101v406h-207q-81 0 -142 -46.5t-61 -132.5v-16q0 -78 61 -134.5t142 -56.5h15.5h14t11.5 0.5t12.5 2t11 4t13.5 6.5z" />
    <glyph glyph-name="uniFBA8" unicode="&#x6c1;" horiz-adv-x="612" arabic-form="initial" 
d="M154 0h-156q-66 0 -114 48t-48 114q0 68 47.5 112.5t114.5 44.5h158q25 0 40 16t15 40v649h319v-649q0 -154 -110 -264.5t-266 -110.5z" />
    <glyph glyph-name="uniFBA9" unicode="&#x6c1;" horiz-adv-x="1406" arabic-form="medial" 
d="M1237 319h190v-319h-167v-20q0 -204 -137 -317.5t-388 -113.5q-196 0 -346.5 121.5t-195.5 309.5l-5 20h-208v319h194v144q0 149 69.5 278t190 207t262.5 84q228 9 402 -151q80 -74 124 -178.5t44 -215.5q0 -86 -29 -168zM494 463v-144h163q31 0 52.5 1t60.5 5.5
t66.5 15.5t55.5 29t43 48.5t15 70.5q0 105 -71 164q-61 61 -166 58q-90 -3 -154.5 -76t-64.5 -172zM735 -137q94 0 149.5 52.5t57.5 131.5q-124 -47 -285 -47h-139l6 -12q31 -57 87 -91t124 -34z" />
    <glyph glyph-name="uniFBAB" unicode="&#x6be;" horiz-adv-x="1509" arabic-form="final" 
d="M1339 319h191v-319h-168v-20q0 -204 -136.5 -317.5t-387.5 -113.5q-196 0 -347 121.5t-196 309.5l-4 20h-209v319h194v144q0 149 70 278t190.5 207t262.5 84q227 9 401 -151q80 -74 124 -178.5t44 -215.5q0 -86 -29 -168zM596 463v-144h164q31 0 52.5 1t60.5 5.5
t66.5 15.5t55.5 29t43 48.5t15 70.5q0 104 -72 164q-61 61 -166 58q-90 -3 -154.5 -76t-64.5 -172zM838 -137q94 0 149 52.5t57 131.5q-124 -47 -284 -47h-139l6 -12q31 -57 87 -91t124 -34z" />
    <glyph glyph-name="uniFBAC" unicode="&#x6be;" horiz-adv-x="1634" arabic-form="initial" 
d="M770 1339q160 -26 299 -105t242 -198.5t162 -283t59 -349.5v-104q0 -123 -88 -211t-211 -88h-1253v317h206q-43 94 -43 209q0 125 68 223.5t180.5 150.5t245.5 52q141 0 256.5 -70.5t180.5 -190.5t65 -263v-2q0 -52 -13 -109h50q17 0 27.5 11t10.5 28v47
q0 250 -135 419.5t-356 203.5q-94 14 -299 14v316q32 0 80 -0.5t61.5 -0.5t43 -1t38.5 -1.5t32.5 -2.5t41 -4.5t49.5 -6.5zM637 635q-63 0 -118.5 -41.5t-55.5 -112.5t44.5 -117.5t92.5 -46.5h164q24 0 41.5 17t17.5 41v84q0 58 -53 116.5t-133 59.5z" />
    <glyph glyph-name="uniFBAD" unicode="&#x6be;" horiz-adv-x="1406" arabic-form="medial" 
d="M1237 319h190v-319h-167v-20q0 -204 -137 -317.5t-388 -113.5q-196 0 -346.5 121.5t-195.5 309.5l-5 20h-208v319h194v144q0 149 69.5 278t190 207t262.5 84q228 9 402 -151q80 -74 124 -178.5t44 -215.5q0 -86 -29 -168zM494 463v-144h163q31 0 52.5 1t60.5 5.5
t66.5 15.5t55.5 29t43 48.5t15 70.5q0 105 -71 164q-61 61 -166 58q-90 -3 -154.5 -76t-64.5 -172zM735 -137q94 0 149.5 52.5t57.5 131.5q-124 -47 -285 -47h-139l6 -12q31 -57 87 -91t124 -34z" />
    <glyph glyph-name="uniFBAF" unicode="&#x6d2;" horiz-adv-x="1384" arabic-form="final" 
d="M485 322h920v-320h-920q-43 0 -67 -33q-25 -38 -17 -69l105 -367l-305 -88l-109 371q-44 201 78 354q58 71 140 111.5t175 40.5z" />
    <glyph glyph-name="uniFBB1" unicode="&#x6d3;" horiz-adv-x="1384" arabic-form="final" 
d="M705 621v-160h-482v160h68q-11 48 -6 77q12 79 71.5 134t143.5 55q148 0 207 -129l-123 -94q-22 37 -37 49t-47 12q-22 0 -38 -13t-16 -32q0 -11 2.5 -22t16 -24t35.5 -13h205zM485 322h920v-320h-920q-43 0 -67 -33q-25 -38 -17 -69l105 -367l-305 -88l-109 371
q-44 201 78 354q58 71 140 111.5t175 40.5z" />
    <glyph glyph-name="uniFBFD" unicode="&#x6cc;" horiz-adv-x="1800" arabic-form="final" 
d="M1800 319q67 0 115.5 -44.5t48.5 -110.5q0 -67 -49 -115.5t-115 -48.5q-32 0 -82 6q4 -18 4 -55q0 -181 -128.5 -308.5t-307.5 -127.5h-614q-160 0 -296 78.5t-215 214.5t-79 296v408h319v-408q0 -112 79 -191t192 -79h614q46 0 81.5 35.5t35.5 81.5q0 44 -25.5 78.5
t-70.5 46.5l-359 147l142 291q68 -29 122 -52t79.5 -34.5t43.5 -19.5t26 -11.5t15 -5.5q198 -72 424 -72z" />
    <glyph glyph-name="uniFBFE" unicode="&#x6cc;" horiz-adv-x="849" arabic-form="initial" 
d="M391 0h-393q-66 0 -114 48t-48 114q0 68 47.5 112.5t114.5 44.5h395q26 0 41 16t15 40v649h319v-649q0 -154 -110.5 -264.5t-266.5 -110.5zM145 -137q73 0 126 -52t53 -124q0 -73 -53 -126t-126 -53t-125.5 52.5t-52.5 126.5q0 72 52.5 124t125.5 52zM588 -137
q73 0 125.5 -52t52.5 -124q0 -74 -52.5 -126.5t-125.5 -52.5t-125.5 52.5t-52.5 126.5q0 72 52.5 124t125.5 52z" />
    <glyph glyph-name="uniFBFF" unicode="&#x6cc;" horiz-adv-x="921" arabic-form="medial" 
d="M926 319q66 0 112.5 -45.5t46.5 -111.5q0 -68 -47 -115t-114 -47h-170q-154 0 -281 96q-117 -96 -262 -96h-207q-72 0 -120 45.5t-48 114.5t48 114t120 45h170q50 0 84.5 34.5t34.5 84.5v422h321v-424q9 -50 49 -83.5t91 -33.5h172zM219 -137q73 0 125.5 -52t52.5 -124
q0 -74 -52.5 -126.5t-125.5 -52.5t-125.5 52.5t-52.5 126.5q0 72 52.5 124t125.5 52zM662 -137q73 0 125.5 -52t52.5 -124q0 -74 -52.5 -126.5t-125.5 -52.5q-74 0 -126.5 53t-52.5 126q0 72 53 124t126 52z" />
    <glyph glyph-name="uniFE82" unicode="&#x622;" horiz-adv-x="606" arabic-form="final" 
d="M84 1665l-84 94l158 103q17 12 38.5 10t36.5 -17q39 -39 91.5 -51t119.5 -12q15 0 41 5.5t42.5 10t50.5 14.5t36 11l54 -150q-47 -20 -115.5 -38.5t-108.5 -18.5q-139 0 -245 90q-14 14 -31 0zM627 0h-90q-154 0 -263.5 109.5t-109.5 263.5v1059h319v-1059q0 -22 16 -38
t38 -16h90v-319z" />
    <glyph glyph-name="uniFE84" unicode="&#x623;" horiz-adv-x="585" arabic-form="final" 
d="M555 1704v-160h-481v160h67q-9 40 -6 78q11 79 71 133.5t144 54.5q148 0 207 -129l-123 -94q-22 37 -37 49t-47 12q-22 0 -37.5 -13t-15.5 -32q0 -11 2.5 -22t15.5 -24t35 -13h205zM606 0h-90q-154 0 -263.5 109.5t-109.5 263.5v1061h320v-1061q0 -22 15.5 -38t37.5 -16
h90v-319z" />
    <glyph glyph-name="uniFE86" unicode="&#x624;" horiz-adv-x="1275" arabic-form="final" 
d="M928 1362v-160h-482v160h68q-11 48 -6 78q12 79 71.5 133.5t143.5 54.5q70 0 124 -33t83 -96l-123 -94q-22 37 -37 49t-47 12q-22 0 -37.5 -13t-15.5 -32q0 -11 2.5 -22t15.5 -24t35 -13h205zM1268 319v-319h-176q-24 -187 -160 -311q-119 -113 -271 -148t-477 -33v316
q256 0 361.5 18t173.5 80q27 23 43 68l4 10h-166q-105 0 -201 41t-165.5 110.5t-110.5 166t-41 202.5q0 138 69.5 254t189 183t259.5 67h496v-705h172zM774 319v386h-174q-83 0 -142 -53t-59 -132q0 -84 59.5 -142.5t141.5 -58.5h174z" />
    <glyph glyph-name="uniFE88" unicode="&#x625;" horiz-adv-x="602" arabic-form="final" 
d="M606 0h-90q-154 0 -263.5 109.5t-109.5 263.5v1061h320v-1061q0 -22 15.5 -38t37.5 -16h90q66 0 113 -46.5t47 -112.5t-47 -113t-113 -47zM555 -393v-160h-481v160h67q-11 48 -6 78q12 79 71.5 133.5t143.5 54.5q148 0 207 -129l-123 -94q-22 37 -37 49t-47 12
q-22 0 -37.5 -13t-15.5 -32q0 -11 2.5 -22t15.5 -24t35 -13h205z" />
    <glyph glyph-name="uniFE8A" unicode="&#x626;" horiz-adv-x="1800" arabic-form="final" 
d="M496 791v-160h-482v160h68q-11 48 -6 77q12 79 71.5 134t143.5 55q70 0 124 -33t83 -96l-123 -94q-22 37 -37 49t-47 12q-22 0 -37.5 -13t-15.5 -32q0 -11 2.5 -22t15.5 -24t35 -13h205zM1800 319q67 0 115.5 -44.5t48.5 -110.5q0 -67 -49 -115.5t-115 -48.5q-32 0 -82 6
q4 -18 4 -55q0 -181 -128.5 -308.5t-307.5 -127.5h-614q-160 0 -296 78.5t-215 214.5t-79 296v408h319v-408q0 -112 79 -191t192 -79h614q46 0 81.5 35.5t35.5 81.5q0 44 -25.5 78.5t-70.5 46.5l-359 147l142 291q68 -29 122 -52t79.5 -34.5t43.5 -19.5t26 -11.5t15 -5.5
q198 -72 424 -72z" />
    <glyph glyph-name="uniFE8B" unicode="&#x626;" horiz-adv-x="673" arabic-form="initial" 
d="M672 1317v-160h-482v160h68q-11 48 -6 78q12 79 71.5 133.5t143.5 54.5q70 0 124 -33t83 -96l-123 -94q-22 37 -37 49t-47 12q-22 0 -37.5 -13t-15.5 -32q0 -11 2.5 -22t15.5 -24t35 -13h205zM215 0h-217q-66 0 -114 48t-48 114q0 68 47.5 112.5t114.5 44.5h219
q25 0 40 16t15 40v649h320v-649q0 -154 -110.5 -264.5t-266.5 -110.5z" />
    <glyph glyph-name="uniFE8C" unicode="&#x626;" horiz-adv-x="778" arabic-form="medial" 
d="M653 1184v-160h-481v160h68q-11 51 -7 78q12 79 72 133.5t144 54.5q147 0 206 -129l-123 -94q-22 37 -36.5 49t-46.5 12q-22 0 -38 -13t-16 -32q0 -11 2.5 -22t16 -24t35.5 -13h204zM782 319q66 0 113 -45.5t47 -111.5q0 -68 -47.5 -115t-114.5 -47h-69q-154 0 -281 96
q-117 -96 -262 -96h-164q-72 0 -120 45.5t-48 114.5t48 114t120 45h127q49 0 84 34.5t35 84.5v422h321v-424q9 -50 49 -83.5t91 -33.5h71z" />
    <glyph glyph-name="uniFE8E" unicode="&#x627;" horiz-adv-x="606" arabic-form="final" 
d="M627 0h-90q-154 0 -263.5 109.5t-109.5 263.5v1059h319v-1059q0 -22 16 -38t38 -16h90v-319z" />
    <glyph glyph-name="uniFE90" unicode="&#x628;" horiz-adv-x="1914" arabic-form="final" 
d="M1919 319q66 0 113 -45.5t47 -111.5q0 -68 -47.5 -115t-114.5 -47h-78q-153 0 -280 96q-117 -96 -263 -96h-764q-195 0 -333 137t-138 330v352h324v-352q0 -63 42.5 -105.5t104.5 -42.5h728q49 0 83.5 34.5t34.5 84.5v586h322v-588q9 -50 48.5 -83.5t90.5 -33.5h80z
M944 -137q73 0 125.5 -52t52.5 -124q0 -74 -52.5 -126.5t-125.5 -52.5t-125.5 52.5t-52.5 126.5q0 72 52.5 124t125.5 52z" />
    <glyph glyph-name="uniFE91" unicode="&#x628;" horiz-adv-x="673" arabic-form="initial" 
d="M215 0h-217q-66 0 -114 48t-48 114q0 68 47.5 112.5t114.5 44.5h219q25 0 40 16t15 40v649h320v-649q0 -154 -110.5 -264.5t-266.5 -110.5zM82 -313q0 72 52.5 124t125.5 52t125.5 -52t52.5 -124q0 -74 -52.5 -126.5t-125.5 -52.5t-125.5 52.5t-52.5 126.5z" />
    <glyph glyph-name="uniFE92" unicode="&#x628;" horiz-adv-x="714" arabic-form="medial" 
d="M719 319q66 0 113 -45.5t47 -111.5q0 -68 -47.5 -115t-114.5 -47h-55q-154 0 -281 96q-117 -96 -262 -96h-115q-72 0 -120 45.5t-48 114.5t48 114t120 45h78q50 0 84.5 34.5t34.5 84.5v381h321v-383q9 -50 49 -83.5t91 -33.5h57zM180 -313q0 72 52.5 124t125.5 52
t126 -52t53 -124q0 -73 -52.5 -126t-126.5 -53q-73 0 -125.5 52.5t-52.5 126.5z" />
    <glyph glyph-name="uniFE94" unicode="&#x629;" horiz-adv-x="1296" arabic-form="final" 
d="M500 1556q73 0 125.5 -52t52.5 -124q0 -74 -52 -126t-126 -52t-126 52t-52 126q0 72 52.5 124t125.5 52zM942 1556q73 0 125.5 -52t52.5 -124q0 -74 -52 -126t-126 -52t-126 52t-52 126q0 72 52.5 124t125.5 52zM1298 319q67 0 113.5 -45.5t48.5 -111.5q0 -66 -47 -113
t-113 -49h-118q-153 0 -262 109q-141 -109 -320 -109q-138 0 -257 66t-190 181t-71 249v30q0 223 145.5 360.5t372.5 137.5h526l2 -651q0 -30 10 -42t44 -12h116zM600 319q86 0 146.5 60.5t60.5 146.5v172l-207 7q-81 2 -142 -45t-61 -134v-16q0 -78 61 -134.5t142 -56.5z
" />
    <glyph glyph-name="uniFE96" unicode="&#x62a;" horiz-adv-x="1894" arabic-form="final" 
d="M674 1403q73 0 125.5 -52t52.5 -124q0 -73 -52 -125.5t-126 -52.5t-126 52.5t-52 125.5q0 72 52.5 124t125.5 52zM1116 1403q73 0 125.5 -52t52.5 -124q0 -73 -52 -125.5t-126 -52.5t-126 52.5t-52 125.5q0 72 52.5 124t125.5 52zM1898 319q66 0 113 -45.5t47 -111.5
q0 -68 -47.5 -115t-114.5 -47h-57q-153 0 -280 96q-117 -96 -263 -96h-764q-195 0 -333 137t-138 330v352h324v-352q0 -63 42.5 -105.5t104.5 -42.5h728q49 0 83.5 34.5t34.5 84.5v586h322v-588q9 -50 48.5 -83.5t90.5 -33.5h59z" />
    <glyph glyph-name="uniFE97" unicode="&#x62a;" horiz-adv-x="921" arabic-form="initial" 
d="M240 1556q73 0 125.5 -52t52.5 -124q0 -74 -52 -126t-126 -52t-126.5 52.5t-52.5 125.5q0 72 53 124t126 52zM682 1556q73 0 125.5 -52t52.5 -124q0 -74 -52 -126t-126 -52t-126 52t-52 126q0 72 52.5 124t125.5 52zM303 0h-305q-66 0 -114 48t-48 114q0 68 47.5 112.5
t114.5 44.5h307q25 0 40 16t15 40v649h320v-649q0 -154 -110.5 -264.5t-266.5 -110.5z" />
    <glyph glyph-name="uniFE98" unicode="&#x62a;" horiz-adv-x="845" arabic-form="medial" 
d="M215 1378q73 0 125.5 -52t52.5 -124q0 -74 -52.5 -126t-125.5 -52t-125.5 52t-52.5 126q0 72 52.5 124t125.5 52zM657 1378q73 0 126 -52t53 -124q0 -73 -52.5 -125.5t-126.5 -52.5q-73 0 -125.5 52t-52.5 126q0 72 52.5 124t125.5 52zM850 319q66 0 113 -45.5t47 -111.5
q0 -68 -47.5 -115t-114.5 -47h-100q-154 0 -281 96q-117 -96 -262 -96h-201q-72 0 -120 45.5t-48 114.5t48 114t120 45h164q50 0 84.5 34.5t34.5 84.5v381h321v-383q9 -50 49 -83.5t91 -33.5h102z" />
    <glyph glyph-name="uniFE9A" unicode="&#x62b;" horiz-adv-x="1937" arabic-form="final" 
d="M850 1812q73 0 125.5 -52t52.5 -124q0 -74 -52 -126t-126 -52t-126 52t-52 126q0 72 52.5 124t125.5 52zM633 1403q73 0 125.5 -52t52.5 -124q0 -73 -52.5 -125.5t-125.5 -52.5t-125.5 52.5t-52.5 125.5q0 72 52.5 124t125.5 52zM1075 1403q73 0 125.5 -52t52.5 -124
q0 -73 -52.5 -125.5t-125.5 -52.5t-125.5 52.5t-52.5 125.5q0 72 52.5 124t125.5 52zM1942 319q66 0 112.5 -45.5t46.5 -111.5q0 -68 -47.5 -115t-114.5 -47h-100q-153 0 -280 96q-117 -96 -263 -96h-764q-195 0 -333 137t-138 330v352h324v-352q0 -63 42.5 -105.5
t104.5 -42.5h728q49 0 83.5 34.5t34.5 84.5v586h322v-588q9 -50 48.5 -83.5t90.5 -33.5h103z" />
    <glyph glyph-name="uniFE9B" unicode="&#x62b;" horiz-adv-x="901" arabic-form="initial" 
d="M436 1966q73 0 125.5 -52t52.5 -124q0 -74 -52 -126t-126 -52t-126 52t-52 126q0 72 52.5 124t125.5 52zM219 1556q73 0 125.5 -52t52.5 -124q0 -74 -52.5 -126t-125.5 -52t-125.5 52t-52.5 126q0 72 52.5 124t125.5 52zM662 1556q73 0 125.5 -52t52.5 -124
q0 -74 -52 -126t-126 -52t-126.5 52.5t-52.5 125.5q0 72 53 124t126 52zM281 0h-283q-66 0 -114 48t-48 114q0 68 47.5 112.5t114.5 44.5h285q25 0 40 16t15 40v649h319v-649q0 -154 -110 -264.5t-266 -110.5z" />
    <glyph glyph-name="uniFE9C" unicode="&#x62b;" horiz-adv-x="882" arabic-form="medial" 
d="M436 1788q73 0 125.5 -52t52.5 -124q0 -74 -52 -126t-126 -52t-126 52t-52 126q0 72 52.5 124t125.5 52zM219 1378q73 0 125.5 -52t52.5 -124q0 -74 -52.5 -126t-125.5 -52t-125.5 52t-52.5 126q0 72 52.5 124t125.5 52zM662 1378q73 0 125.5 -52t52.5 -124
q0 -74 -52 -126t-126 -52t-126.5 52.5t-52.5 125.5q0 72 53 124t126 52zM887 319q66 0 113 -45.5t47 -111.5q0 -68 -47.5 -115t-114.5 -47h-103q-153 0 -280 96q-117 -96 -262 -96h-236q-72 0 -120 45.5t-48 114.5t48 114t120 45h199q49 0 84 34.5t35 84.5v381h321v-383
q9 -50 48.5 -83.5t90.5 -33.5h105z" />
    <glyph glyph-name="uniFE9E" unicode="&#x62c;" horiz-adv-x="1460" arabic-form="final" 
d="M610 0q-85 0 -144.5 -60.5t-59.5 -146.5t59.5 -146.5t144.5 -60.5h404v-319h-406q-143 0 -264 70.5t-191.5 191.5t-70.5 264t70.5 264t191.5 191.5t264 70.5h465q-22 31 -22 66v16q-6 167 -101 234q-160 129 -501 12l-142 285q256 99 465.5 92.5t372.5 -127.5
q211 -171 223 -498v-16q0 -64 37 -64h188v-319h-983zM674 -49q67 0 115.5 -48t48.5 -114q0 -67 -48 -115.5t-116 -48.5t-116 48.5t-48 115.5q0 66 48.5 114t115.5 48z" />
    <glyph glyph-name="uniFE9F" unicode="&#x62c;" horiz-adv-x="1253" arabic-form="initial" 
d="M1192 0h-1194q-65 0 -113.5 47.5t-48.5 112.5t48.5 112t113.5 47h815q-33 21 -33 60v14q0 172 -102 248q-59 45 -135.5 58.5t-165 -1.5t-205.5 -55l-131 289q255 99 459.5 90.5t369.5 -129.5q41 -30 76.5 -69.5t70.5 -97.5t55 -139t20 -175v-31q0 -62 53 -62h47v-319z
M612 -137q73 0 126 -52t53 -124q0 -73 -52.5 -126t-126.5 -53q-73 0 -125.5 52.5t-52.5 126.5q0 72 52.5 124t125.5 52z" />
    <glyph glyph-name="uniFEA0" unicode="&#x62c;" horiz-adv-x="1249" arabic-form="medial" 
d="M1296 0h-1298q-65 0 -113.5 47.5t-48.5 112.5t48.5 112t113.5 47h815q-33 21 -33 60v12q0 172 -102 248q-161 121 -490 8l-116 287q236 99 437 86t361 -129q41 -30 76.5 -69.5t70.5 -97.5t55 -139t20 -175v-29q0 -62 53 -62h151v-319zM621 -137q73 0 125.5 -52t52.5 -124
q0 -74 -52.5 -126.5t-125.5 -52.5t-126 53t-53 126q0 72 53 124t126 52z" />
    <glyph glyph-name="uniFEA2" unicode="&#x62d;" horiz-adv-x="1548" arabic-form="final" 
d="M532 0q-54 0 -92.5 -38.5t-38.5 -92.5q0 -55 38.5 -94t92.5 -39h486v-320h-486q-122 0 -225.5 60t-164 164t-60.5 229q0 188 131.5 319t318.5 131h541q-22 31 -22 66v14q-5 155 -101 234q-160 129 -501 12l-142 285q178 66 324 87.5t277.5 -8t236.5 -114.5
q211 -171 223 -498v-14q0 -64 37 -64h188v-319h-1061z" />
    <glyph glyph-name="uniFEA3" unicode="&#x62d;" horiz-adv-x="1253" arabic-form="initial" 
d="M1192 0h-1194q-65 0 -113.5 47.5t-48.5 112.5t48.5 112t113.5 47h815q-33 21 -33 60v18q0 172 -102 248q-59 45 -135.5 58.5t-165 -1.5t-205.5 -55l-131 289q255 99 459.5 90.5t369.5 -129.5q41 -30 76.5 -69.5t70.5 -97.5t55 -139t20 -175v-35q0 -62 53 -62h47v-319z
" />
    <glyph glyph-name="uniFEA4" unicode="&#x62d;" horiz-adv-x="1249" arabic-form="medial" 
d="M1296 0h-1298q-65 0 -113.5 47.5t-48.5 112.5t48.5 112t113.5 47h815q-33 21 -33 60v20q0 172 -102 248q-161 121 -490 8l-116 287q234 100 438.5 88t359.5 -131q41 -30 76.5 -69.5t70.5 -97.5t55 -139t20 -175v-37q0 -62 53 -62h151v-319z" />
    <glyph glyph-name="uniFEA6" unicode="&#x62e;" horiz-adv-x="1546" arabic-form="final" 
d="M797 1556q73 0 125.5 -52t52.5 -124q0 -74 -52.5 -126t-125.5 -52q-74 0 -126.5 52.5t-52.5 125.5q0 72 53 124t126 52zM532 0q-54 0 -92.5 -38.5t-38.5 -92.5q0 -55 38.5 -94t92.5 -39h486v-320h-486q-122 0 -225.5 60t-164 164t-60.5 229q0 188 131.5 319t318.5 131
h541q-22 31 -22 66v12q-5 155 -101 234q-160 129 -501 12l-142 285q178 66 324 87.5t277.5 -8t236.5 -114.5q211 -171 223 -498v-12q0 -64 37 -64h188v-319h-1061z" />
    <glyph glyph-name="uniFEA7" unicode="&#x62e;" horiz-adv-x="1253" arabic-form="initial" 
d="M334 1380q0 72 52.5 124t125.5 52t125.5 -52t52.5 -124q0 -74 -52 -126t-126 -52t-126 52t-52 126zM1192 0h-1194q-65 0 -113.5 47.5t-48.5 112.5t48.5 112t113.5 47h815q-33 21 -33 60v18q0 172 -102 248q-59 45 -135.5 58.5t-165 -1.5t-205.5 -55l-131 289
q255 99 459.5 90.5t369.5 -129.5q41 -30 76.5 -69.5t70.5 -97.5t55 -139t20 -175v-35q0 -62 53 -62h47v-319z" />
    <glyph glyph-name="uniFEA8" unicode="&#x62e;" horiz-adv-x="1249" arabic-form="medial" 
d="M334 1380q0 72 52.5 124t125.5 52t125.5 -52t52.5 -124q0 -74 -52 -126t-126 -52t-126 52t-52 126zM1296 0h-1298q-65 0 -113.5 47.5t-48.5 112.5t48.5 112t113.5 47h815q-33 21 -33 60v18q0 172 -102 248q-161 121 -490 8l-116 287q236 99 437 86t361 -129
q41 -30 76.5 -69.5t70.5 -97.5t55 -139t20 -175v-35q0 -62 53 -62h151v-319z" />
    <glyph glyph-name="uniFEAA" unicode="&#x62f;" horiz-adv-x="1298" arabic-form="final" 
d="M1303 319q68 0 113.5 -47t45.5 -114q0 -65 -45.5 -111.5t-113.5 -46.5h-60q-180 0 -317 106q-128 -106 -277 -106h-598v319h598q27 0 43.5 10t20.5 21q30 25 22 66l-172 608l303 84l176 -608q5 -20 5 -23l2 -4q19 -70 71.5 -112t122.5 -42h60z" />
    <glyph glyph-name="uniFEAC" unicode="&#x630;" horiz-adv-x="1292" arabic-form="final" 
d="M651 1163q-73 0 -125.5 52.5t-52.5 125.5q0 72 52.5 124.5t125.5 52.5t125.5 -52.5t52.5 -124.5q0 -73 -52.5 -125.5t-125.5 -52.5zM1303 319q68 0 113.5 -47t45.5 -114q0 -65 -45.5 -111.5t-113.5 -46.5h-60q-180 0 -317 106q-128 -106 -277 -106h-598v319h598
q27 0 43.5 10t20.5 21q30 25 22 66l-172 608l303 84l176 -608q5 -20 5 -23l2 -4q19 -70 71.5 -112t122.5 -42h60z" />
    <glyph glyph-name="uniFEAE" unicode="&#x631;" horiz-adv-x="780" arabic-form="final" 
d="M784 319q66 0 113 -46t47 -113t-47 -113.5t-113 -46.5h-53q-65 0 -139 23l-2 -23q-21 -196 -148 -323t-356 -169l-117 302q77 15 128.5 33t94.5 48t63.5 75.5t20.5 109.5v948h318v-567q0 -56 41 -97t96 -41h53z" />
    <glyph glyph-name="uniFEB0" unicode="&#x632;" horiz-adv-x="790" arabic-form="final" 
d="M430 1556q73 0 125.5 -52t52.5 -124q0 -74 -52 -126t-126 -52t-126 52t-52 126q0 72 52.5 124t125.5 52zM784 319q66 0 113 -46t47 -113t-47 -113.5t-113 -46.5h-53q-65 0 -139 23l-2 -23q-21 -196 -148 -323t-356 -169l-117 302q93 18 148 36t93 48.5t52 73t14 108.5
v948h318v-567q0 -56 41 -97t96 -41h53z" />
    <glyph glyph-name="uniFEB2" unicode="&#x633;" horiz-adv-x="2762" arabic-form="final" 
d="M2767 319q66 0 113 -46t47 -113q0 -66 -48 -113t-114 -47h-64q-135 0 -243 90q-126 -90 -291 -90q-187 0 -320 115q-125 -115 -303 -115q-103 0 -182 23v-127q0 -136 -97 -233t-233 -97h-364q-119 0 -227.5 46.5t-187 125t-125 187t-46.5 227.5v421h321v-421
q0 -109 78 -187t187 -78h288q35 0 60.5 25.5t25.5 60.5v852h320v-364q0 -63 43.5 -102.5t118.5 -39.5q79 0 123.5 42.5t44.5 105.5v346h319v-352q0 -68 47.5 -105t122.5 -37q60 0 104 43.5t44 104.5v557h321v-649q0 -23 14.5 -39.5t36.5 -16.5h66z" />
    <glyph glyph-name="uniFEB3" unicode="&#x633;" horiz-adv-x="1837" arabic-form="initial" 
d="M1735 1024v-561q0 -131 -65 -238t-174.5 -166t-238.5 -59q-188 0 -313 115q-73 -63 -153 -89t-189 -26q-146 0 -268 88q-106 -88 -238 -88h-100q-66 0 -113 47t-47 113q0 63 47 110t113 47h100q20 0 35.5 15.5t15.5 36.5v450h316v-364q0 -62 44 -100t114 -38
q79 0 122 40.5t41 105.5v356h320v-364q0 -63 39.5 -99.5t113.5 -36.5q77 0 118.5 39.5t41.5 104.5v561h318z" />
    <glyph glyph-name="uniFEB4" unicode="&#x633;" horiz-adv-x="1884" arabic-form="medial" 
d="M1888 317q63 0 111.5 -47t48.5 -110q0 -65 -48 -112.5t-112 -47.5h-100q-134 0 -242 90q-126 -90 -286 -90q-189 0 -314 115q-73 -63 -153 -89t-189 -26q-146 0 -268 88q-106 -88 -238 -88h-102q-66 0 -113 47t-47 113q0 63 47 110t113 47h102q21 0 36.5 15.5t15.5 36.5
v450h315v-364q0 -62 44 -100t114 -38q79 0 121 40t42 106v356h320v-364q0 -63 40 -99.5t114 -36.5q77 0 118 39.5t41 104.5v561h318v-655q0 -22 14 -37t37 -15h100z" />
    <glyph glyph-name="uniFEB6" unicode="&#x634;" horiz-adv-x="2785" arabic-form="final" 
d="M1815 1788q73 0 125.5 -52t52.5 -124q0 -74 -52.5 -126t-125.5 -52q-74 0 -126.5 52.5t-52.5 125.5q0 72 53 124t126 52zM1597 1378q73 0 126 -52t53 -124q0 -73 -52.5 -125.5t-126.5 -52.5q-73 0 -125.5 52t-52.5 126q0 72 52.5 124t125.5 52zM2040 1378q73 0 125.5 -52
t52.5 -124q0 -74 -52 -126t-126 -52t-126 52t-52 126q0 72 52.5 124t125.5 52zM2789 319q66 0 113 -46t47 -113q0 -66 -48 -113t-114 -47h-86q-135 0 -243 90q-126 -90 -291 -90q-187 0 -320 115q-125 -115 -303 -115q-103 0 -182 23v-127q0 -136 -97 -233t-233 -97h-364
q-119 0 -227.5 46.5t-187 125t-125 187t-46.5 227.5v421h321v-421q0 -109 78 -187t187 -78h288q35 0 60.5 25.5t25.5 60.5v852h320v-364q0 -63 43.5 -102.5t118.5 -39.5q79 0 123.5 42.5t44.5 105.5v346h319v-352q0 -68 47.5 -105t122.5 -37q60 0 104 43.5t44 104.5v557h321
v-649q0 -23 14.5 -39.5t36.5 -16.5h88z" />
    <glyph glyph-name="uniFEB7" unicode="&#x634;" horiz-adv-x="1847" arabic-form="initial" 
d="M891 1812q73 0 125.5 -52t52.5 -124q0 -74 -52.5 -126t-125.5 -52t-125.5 52t-52.5 126q0 72 52.5 124t125.5 52zM674 1403q73 0 125.5 -52t52.5 -124q0 -73 -52 -125.5t-126 -52.5t-126 52.5t-52 125.5q0 72 52.5 124t125.5 52zM1116 1403q73 0 125.5 -52t52.5 -124
q0 -73 -52 -125.5t-126 -52.5t-126 52.5t-52 125.5q0 72 52.5 124t125.5 52zM1745 1024v-561q0 -198 -139.5 -330.5t-337.5 -132.5q-189 0 -314 115q-73 -63 -153 -89t-189 -26q-146 0 -268 88q-106 -88 -238 -88h-110q-66 0 -113 47t-47 113q0 64 47.5 111.5t112.5 47.5
h110q21 0 36.5 15.5t15.5 36.5v448h315v-364q0 -62 44 -100t114 -38q79 0 121.5 40.5t42.5 105.5v356h319v-364q0 -63 40 -99.5t114 -36.5q77 0 118 39.5t41 104.5v561h318z" />
    <glyph glyph-name="uniFEB8" unicode="&#x634;" horiz-adv-x="1822" arabic-form="medial" 
d="M850 1812q73 0 125.5 -52t52.5 -124q0 -74 -52 -126t-126 -52t-126 52t-52 126q0 72 52.5 124t125.5 52zM633 1403q73 0 125.5 -52t52.5 -124q0 -73 -52.5 -125.5t-125.5 -52.5t-125.5 52.5t-52.5 125.5q0 72 52.5 124t125.5 52zM1075 1403q73 0 125.5 -52t52.5 -124
q0 -73 -52.5 -125.5t-125.5 -52.5t-125.5 52.5t-52.5 125.5q0 72 52.5 124t125.5 52zM1827 317q63 0 111.5 -47t48.5 -110q0 -65 -48 -112.5t-112 -47.5h-76q-134 0 -242 90q-126 -90 -286 -90q-189 0 -314 115q-73 -63 -153 -89t-189 -26q-146 0 -268 88q-106 -88 -238 -88
h-65q-66 0 -113 47t-47 113q0 63 47 110t113 47h65q21 0 36.5 15.5t15.5 36.5v450h315v-364q0 -62 44 -100t114 -38q79 0 121.5 40.5t42.5 105.5v356h319v-364q0 -63 40 -99.5t114 -36.5q77 0 118 39.5t41 104.5v561h318v-655q0 -22 14 -37t37 -15h76z" />
    <glyph glyph-name="uniFEBA" unicode="&#x635;" horiz-adv-x="2803" arabic-form="final" 
d="M2568 319h256v-319h-1470v-131q0 -123 -89.5 -213t-213.5 -90h-383q-160 0 -295 78.5t-213 213t-78 294.5v319h317v-319q0 -110 80 -188.5t189 -78.5h305q25 0 44 19t19 45v1075h318v-170l463 141q194 60 384 -9t287 -236q80 -133 80 -295v-136zM2200 319q22 0 36.5 15.5
t14.5 38.5v82q0 74 -37 135q-41 72 -125.5 100t-177.5 2l-557 -168v-205h846z" />
    <glyph glyph-name="uniFEBB" unicode="&#x635;" horiz-adv-x="1847" arabic-form="initial" 
d="M1686 750q79 -131 79 -295v-203q0 -103 -73.5 -177.5t-175.5 -74.5h-1536v319h253v705h318v-170l463 141q194 60 384.5 -9t287.5 -236zM1448 373v82q0 74 -37 135q-41 72 -125.5 100t-177.5 2l-557 -168v-205h846q22 0 36.5 15.5t14.5 38.5z" />
    <glyph glyph-name="uniFEBC" unicode="&#x635;" horiz-adv-x="1869" arabic-form="medial" 
d="M1700 319h190v-319h-1910v319h188v705h317v-170l463 141q194 60 384.5 -9t287.5 -236q80 -133 80 -295v-136zM1331 319q22 0 36.5 15.5t14.5 38.5v82q0 76 -36 135q-41 72 -126 100t-178 2l-557 -168v-205h846z" />
    <glyph glyph-name="uniFEBE" unicode="&#x636;" horiz-adv-x="2803" arabic-form="final" 
d="M1927 1202q-73 0 -125.5 52t-52.5 126q0 72 52.5 124t125.5 52t125.5 -52t52.5 -124q0 -74 -52.5 -126t-125.5 -52zM2568 319h256v-319h-1470v-131q0 -123 -89.5 -213t-213.5 -90h-383q-160 0 -295 78.5t-213 213t-78 294.5v421h317v-421q0 -110 80 -188.5t189 -78.5h305
q25 0 44 19t19 45v1075h318v-170l463 141q194 60 384 -9t287 -236q80 -133 80 -295v-136zM2200 319q22 0 36.5 15.5t14.5 38.5v82q0 74 -37 135q-41 72 -125.5 100t-177.5 2l-557 -168v-205h846z" />
    <glyph glyph-name="uniFEBF" unicode="&#x636;" horiz-adv-x="1783" arabic-form="initial" 
d="M1028 1556q73 0 125.5 -52t52.5 -124q0 -74 -52 -126t-126 -52t-126 52t-52 126q0 72 52.5 124t125.5 52zM1622 750q80 -133 80 -295v-203q0 -103 -73.5 -177.5t-176.5 -74.5h-1472v319h190v705h317v-170l463 141q194 60 384.5 -9t287.5 -236zM1384 373v82q0 76 -36 135
q-41 72 -126 100t-178 2l-557 -168v-205h846q22 0 36.5 15.5t14.5 38.5z" />
    <glyph glyph-name="uniFEC0" unicode="&#x636;" horiz-adv-x="1921" arabic-form="medial" 
d="M1010 1202q-74 0 -126.5 52.5t-52.5 125.5q0 72 53 124t126 52t125.5 -52t52.5 -124q0 -74 -52 -126t-126 -52zM1733 319h209v-319h-1962v319h221v705h317v-170l463 141q194 60 384.5 -9t287.5 -236q80 -133 80 -295v-136zM1364 319q22 0 36.5 15.5t14.5 38.5v82
q0 74 -37 135q-41 72 -125.5 100t-177.5 2l-557 -168v-205h846z" />
    <glyph glyph-name="uniFEC2" unicode="&#x637;" horiz-adv-x="2072" arabic-form="final" 
d="M1837 319h256v-319h-1991v338h203v1096h318v-580l462 141q194 60 384.5 -9t287.5 -236q80 -133 80 -295v-136zM1468 319q22 0 37 15.5t15 38.5v82q0 74 -37 135q-41 72 -125.5 100t-177.5 2l-557 -168v-205h845z" />
    <glyph glyph-name="uniFEC3" unicode="&#x637;" horiz-adv-x="1820" arabic-form="initial" 
d="M1659 750q80 -133 80 -295v-203q0 -103 -73.5 -177.5t-176.5 -74.5h-1509v319h227v1115h317v-580l463 141q194 60 384.5 -9t287.5 -236zM1421 373v82q0 74 -37 135q-41 72 -125.5 100t-177.5 2l-557 -168v-205h846q22 0 36.5 15.5t14.5 38.5z" />
    <glyph glyph-name="uniFEC4" unicode="&#x637;" horiz-adv-x="1933" arabic-form="medial" 
d="M1741 319h213v-319h-1974v319h229v1115h317v-580l463 141q194 60 384.5 -9t287.5 -236q80 -133 80 -295v-136zM1372 319q22 0 36.5 15.5t14.5 38.5v82q0 74 -37 135q-41 72 -125.5 100t-177.5 2l-557 -168v-205h846z" />
    <glyph glyph-name="uniFEC6" unicode="&#x638;" horiz-adv-x="2037" arabic-form="final" 
d="M1124 1202q-74 0 -126 52t-52 126q0 72 52.5 124t125.5 52t126 -52t53 -124q0 -73 -52.5 -125.5t-126.5 -52.5zM1802 319h256v-319h-1976v338h188v1096h318v-580l463 141q194 60 384 -9t287 -236q80 -133 80 -295v-136zM1434 319q22 0 36.5 15.5t14.5 38.5v82
q0 74 -37 135q-41 72 -125.5 100t-177.5 2l-557 -168v-205h846z" />
    <glyph glyph-name="uniFEC7" unicode="&#x638;" horiz-adv-x="1820" arabic-form="initial" 
d="M1071 1556q73 0 125.5 -52t52.5 -124q0 -74 -52.5 -126t-125.5 -52t-125.5 52t-52.5 126q0 72 52.5 124t125.5 52zM1659 750q80 -133 80 -295v-203q0 -103 -73.5 -177.5t-176.5 -74.5h-1509v319h227v1115h317v-580l463 141q194 60 384.5 -9t287.5 -236zM1421 373v82
q0 74 -37 135q-41 72 -125.5 100t-177.5 2l-557 -168v-205h846q22 0 36.5 15.5t14.5 38.5z" />
    <glyph glyph-name="uniFEC8" unicode="&#x638;" horiz-adv-x="1943" arabic-form="medial" 
d="M1100 1202q-74 0 -126 52t-52 126q0 72 52.5 124t125.5 52t125.5 -52t52.5 -124q0 -74 -52 -126t-126 -52zM1753 319h211v-319h-1984v319h241v1115h318v-580l462 141q194 60 384.5 -9t287.5 -236q80 -133 80 -295v-136zM1384 319q22 0 37 15.5t15 38.5v82q0 74 -37 135
q-41 72 -125.5 100t-177.5 2l-557 -168v-205h845z" />
    <glyph glyph-name="uniFECA" unicode="&#x639;" horiz-adv-x="1447" arabic-form="final" 
d="M1468 319v-319h-915q-55 0 -94 -39t-39 -94q0 -53 39 -92t94 -39h512v-322h-512q-187 0 -319 132.5t-132 320.5q0 104 30 189t80 138t108 83t120 36l19 2l-164 373l74 205q325 185 604 131q113 -21 200.5 -90.5t131 -169.5t32.5 -209q-16 -130 -75 -236h206zM651 676
l-4 -19l164 -319q51 15 90.5 44.5t60 59t34.5 64t17.5 52.5t4.5 30q6 42 -24.5 77.5t-78.5 43.5q-112 22 -264 -33z" />
    <glyph glyph-name="uniFECB" unicode="&#x639;" horiz-adv-x="1263" arabic-form="initial" 
d="M1161 319v-319h-1181v319h145q-43 58 -43 168l2 37q9 138 81 252.5t190 181t255 66.5q139 0 267.5 -69.5t181.5 -180.5l-232 -215q-85 143 -217 143q-79 0 -137 -53t-67 -131l-3 -26q0 -83 57.5 -128t149.5 -45h551z" />
    <glyph glyph-name="uniFECC" unicode="&#x639;" horiz-adv-x="1208" arabic-form="medial" 
d="M-14 0v319h250l-170 369l73 205q325 185 604 131q113 -21 200.5 -90.5t131.5 -169.5t33 -209q-16 -128 -76 -236h185v-319h-1231zM418 657l164 -319q51 15 90 44.5t59.5 59t34.5 64t17.5 52t4.5 30.5q6 42 -24 77.5t-78 43.5q-112 22 -264 -33z" />
    <glyph glyph-name="uniFECE" unicode="&#x63a;" horiz-adv-x="1447" arabic-form="final" 
d="M795 1202q-74 0 -126.5 52.5t-52.5 125.5q0 72 53 124t126 52t125.5 -52t52.5 -124q0 -74 -52.5 -126t-125.5 -52zM1468 319v-319h-915q-55 0 -94 -39t-39 -94q0 -53 39 -92t94 -39h512v-322h-512q-187 0 -319 132.5t-132 320.5q0 104 30 189t80 138t108 83t120 36l19 2
l-164 373l74 205q325 185 604 131q113 -21 200.5 -90.5t131 -169.5t32.5 -209q-16 -130 -75 -236h206zM651 676l-4 -19l164 -319q51 15 90.5 44.5t60 59t34.5 64t17.5 52.5t4.5 30q6 42 -24.5 77.5t-78.5 43.5q-112 22 -264 -33z" />
    <glyph glyph-name="uniFECF" unicode="&#x63a;" horiz-adv-x="1263" arabic-form="initial" 
d="M600 1556q73 0 125.5 -52t52.5 -124q0 -74 -52 -126t-126 -52t-126 52t-52 126q0 72 52.5 124t125.5 52zM1161 319v-319h-1181v319h145q-43 93 -43 191l2 18q9 138 81 252.5t190 181t255 66.5q139 0 267.5 -69.5t181.5 -180.5l-232 -215q-85 144 -217 144q-79 0 -137 -53
t-67 -132l-3 -8q0 -85 59 -140t148 -55h551z" />
    <glyph glyph-name="uniFED0" unicode="&#x63a;" horiz-adv-x="1208" arabic-form="medial" 
d="M600 1556q73 0 125.5 -52t52.5 -124q0 -74 -52 -126t-126 -52t-126 52t-52 126q0 72 52.5 124t125.5 52zM-14 0v319h250l-170 369l73 205q325 185 604 131q113 -21 200.5 -90.5t131.5 -169.5t33 -209q-16 -128 -76 -236h185v-319h-1231zM418 657l164 -319q51 15 90 44.5
t59.5 59t34.5 64t17.5 52t4.5 30.5q6 42 -24 77.5t-78 43.5q-112 22 -264 -33z" />
    <glyph glyph-name="uniFED2" unicode="&#x641;" horiz-adv-x="2154" arabic-form="final" 
d="M1522 1556q73 0 125.5 -52t52.5 -124q0 -74 -52 -126t-126 -52t-126.5 52.5t-52.5 125.5q0 72 53 124t126 52zM2175 319v-319h-1628q-125 0 -232 62.5t-170 170t-63 234.5v332h317v-332q0 -62 43.5 -105t104.5 -43h487q-35 79 -35 179v28q0 135 70.5 250t188.5 181
t253 67q134 1 249 -66.5t182 -182.5t67 -249v-207h166zM1692 319v207q0 72 -53 125.5t-126 53.5q-82 0 -141 -59.5t-59 -143.5v-4q0 -77 59.5 -128t140.5 -51h179z" />
    <glyph glyph-name="uniFED3" unicode="&#x641;" horiz-adv-x="1200" arabic-form="initial" 
d="M604 1556q73 0 125.5 -52t52.5 -124q0 -74 -52 -126t-126 -52t-126 52t-52 126q0 72 52.5 124t125.5 52zM600 1024h498v-815q0 -86 -60.5 -147.5t-146.5 -61.5h-911v319h143q-35 79 -35 201v25q0 134 71 244.5t188 172t253 62.5zM780 352v371h-178q-82 0 -141.5 -59.5
t-59.5 -143.5v-12q4 -79 63.5 -134t137.5 -55h148q12 0 21 10t9 23z" />
    <glyph glyph-name="uniFED4" unicode="&#x641;" horiz-adv-x="1249" arabic-form="medial" 
d="M621 1202q-74 0 -126.5 52.5t-52.5 125.5q0 72 53 124t126 52t125.5 -52t52.5 -124q0 -74 -52.5 -126t-125.5 -52zM1094 319h176v-319h-1290v319h163q-34 77 -34 195v16q0 135 70.5 250t188.5 181t253 67q134 1 249 -66.5t181.5 -182.5t66.5 -249v-141q0 -24 -7 -47
t-17 -23zM770 319q12 0 21.5 10t9.5 23v178q0 72 -52.5 125.5t-125.5 53.5q-83 0 -142 -55.5t-59 -139.5v-12q0 -78 60.5 -130.5t140.5 -52.5h147z" />
    <glyph glyph-name="uniFED6" unicode="&#x642;" horiz-adv-x="1753" arabic-form="final" 
d="M885 1556q73 0 125.5 -52t52.5 -124q0 -74 -52.5 -126t-125.5 -52t-125.5 52t-52.5 126q0 72 52.5 124t125.5 52zM1327 1556q73 0 125.5 -52t52.5 -124q0 -74 -52.5 -126t-125.5 -52t-125.5 52t-52.5 126q0 72 52.5 124t125.5 52zM1774 319v-319h-187v-90
q0 -143 -101 -244.5t-245 -101.5h-567q-162 0 -298.5 78.5t-215 214.5t-78.5 297v419h319v-413q0 -112 80.5 -192.5t192.5 -80.5h522q30 0 51 21t21 51v41h-174q-143 0 -263 62.5t-190 173.5t-70 245v19q0 109 40.5 207t109.5 169t166.5 112.5t206.5 41.5q131 0 244.5 -66.5
t181 -182.5t67.5 -253v-209h187zM1268 319v209q0 74 -52.5 127.5t-121.5 53.5q-89 0 -147 -60t-58 -149v-13q0 -73 60 -120.5t145 -47.5h174z" />
    <glyph glyph-name="uniFED7" unicode="&#x642;" horiz-adv-x="1226" arabic-form="initial" 
d="M496 1556q73 0 125.5 -52t52.5 -124q0 -74 -52 -126t-126 -52t-126.5 52.5t-52.5 125.5q0 72 53 124t126 52zM938 1556q73 0 125.5 -52t52.5 -124q0 -74 -52 -126t-126 -52t-126 52t-52 126q0 72 52.5 124t125.5 52zM627 1024h497v-815q0 -87 -60 -148t-146 -61h-938v319
h170q-35 79 -35 201v25q0 134 71 244.5t188 172t253 62.5zM807 352v371h-178q-82 0 -141.5 -59.5t-59.5 -143.5v-12q4 -79 63.5 -134t137.5 -55h147q12 0 21.5 10t9.5 23z" />
    <glyph glyph-name="uniFED8" unicode="&#x642;" horiz-adv-x="1241" arabic-form="medial" 
d="M416 1202q-74 0 -126 52t-52 126q0 72 52.5 124t125.5 52t125.5 -52t52.5 -124q0 -74 -52 -126t-126 -52zM858 1202q-74 0 -126 52t-52 126q0 72 52.5 124t125.5 52t125.5 -52t52.5 -124q0 -74 -52 -126t-126 -52zM1102 319h160v-319h-1282v319h172q-35 79 -35 189v24
q0 135 70.5 250t188.5 181t253 67q134 1 249 -66.5t181.5 -182.5t66.5 -249v-120q0 -26 -6 -49.5t-12 -33.5zM778 319q12 0 21.5 10t9.5 23v180q0 72 -52.5 125.5t-125.5 53.5q-82 0 -141.5 -59.5t-59.5 -143.5v-12q0 -77 60 -127t141 -50h147z" />
    <glyph glyph-name="uniFEDA" unicode="&#x643;" horiz-adv-x="1941" arabic-form="final" 
d="M1724 319h238v-319h-1395q-126 0 -233 62.5t-169.5 169t-62.5 231.5v356h320v-356q0 -60 42.5 -103t102.5 -43h633v2h146q26 6 43.5 27t17.5 49v1039h317v-1115zM1161 1063v-160h-481v160h68q-11 51 -7 78q12 79 71.5 133.5t143.5 54.5q148 0 207 -129l-123 -94
q-22 37 -37 49t-47 12q-22 0 -37.5 -13t-15.5 -32q0 -11 2.5 -22t15.5 -24t35 -13h205z" />
    <glyph glyph-name="uniFEDB" unicode="&#x643;" horiz-adv-x="1495" arabic-form="initial" 
d="M825 1032q115 0 220.5 -44.5t181.5 -120.5t121 -181.5t45 -222.5v-277q0 -76 -55 -131t-132 -55h-1226v319h1036q23 0 40 17.5t17 40.5v63q0 113 -78.5 191t-189.5 78h-447l-237 350l409 571l263 -186l-295 -412h327z" />
    <glyph glyph-name="uniFEDC" unicode="&#x643;" horiz-adv-x="1482" arabic-form="medial" 
d="M1284 319h219v-317l-1523 -2v319h985v121q0 113 -79 191t-190 78h-448l-178 350l430 596l262 -187l-318 -436h273q154 0 284.5 -75.5t206.5 -206.5t76 -287v-144z" />
    <glyph glyph-name="uniFEDE" unicode="&#x644;" horiz-adv-x="1542" arabic-form="final" 
d="M1546 319q65 0 112.5 -46.5t47.5 -114.5q0 -64 -47.5 -111t-112.5 -47h-131q-21 0 -53 4v-176q0 -94 -66.5 -159.5t-160.5 -65.5h-465q-160 0 -295 77.5t-214 212.5t-79 295v385h321v-385q0 -110 78.5 -188t188.5 -78h321q23 0 35 14t14 28t2 36v1434h320v-1057
q0 -23 16.5 -40.5t36.5 -17.5h131z" />
    <glyph glyph-name="uniFEDF" unicode="&#x644;" horiz-adv-x="622" arabic-form="initial" 
d="M-4 0q-66 0 -113 47t-47 113t47 112.5t113 46.5h90q22 0 37.5 16t15.5 38v1061h320v-1061q0 -154 -109.5 -263.5t-263.5 -109.5h-90z" />
    <glyph glyph-name="uniFEE0" unicode="&#x644;" horiz-adv-x="657" arabic-form="medial" 
d="M662 319q66 0 112.5 -45.5t46.5 -111.5q0 -68 -47.5 -115t-114.5 -47h-32q-154 0 -281 96q-117 -96 -262 -96h-80q-72 0 -120 45.5t-48 114.5t48 114t120 45h43q49 0 84 34.5t35 84.5v996h321v-998q9 -50 49 -83.5t91 -33.5h35z" />
    <glyph glyph-name="uniFEE2" unicode="&#x645;" horiz-adv-x="1378" arabic-form="final" 
d="M1399 319v-319h-144q-151 0 -258 102q-138 -102 -309 -102q-94 0 -194 39l-5 -29q-26 -181 -145 -298t-315 -154l-60 311q66 13 110.5 39.5t65 63t28 69.5t7.5 74v909h508q139 0 256.5 -69.5t185.5 -188t68 -256.5v-139q0 -22 16 -37t41 -15h144zM688 319q79 0 134.5 51
t60.5 128v12q0 79 -56 133.5t-139 54.5h-190v-200q0 -74 57 -126.5t133 -52.5z" />
    <glyph glyph-name="uniFEE3" unicode="&#x645;" horiz-adv-x="1251" arabic-form="initial" 
d="M-16 319q-67 0 -113.5 -45.5t-48.5 -111.5q0 -66 47 -113t113 -49h59q153 0 262 109q141 -109 320 -109q135 0 253.5 64.5t190 176.5t74.5 244v11q0 226 -147 377t-371 151h-529v-651q0 -31 -9.5 -42.5t-43.5 -11.5h-57zM623 319q-86 0 -144.5 46.5t-62.5 126.5v215h196
q91 0 152 -55.5t61 -141.5v-8q-3 -76 -63 -129.5t-139 -53.5z" />
    <glyph glyph-name="uniFEE4" unicode="&#x645;" horiz-adv-x="1230" arabic-form="medial" 
d="M1257 319q66 0 113 -46.5t47 -112.5t-47 -113t-113 -47h-61q-155 0 -258 106q-134 -106 -307 -106q-201 0 -336 106q-109 -106 -260 -106h-74q-66 2 -113 49t-47 113q0 65 47 111t113 46h74q28 0 40.5 13t12.5 43v649h543q135 0 251.5 -65t186.5 -177.5t74 -246.5v-160
q0 -23 15.5 -39.5t37.5 -16.5h61zM821 512v16q-6 81 -64 129t-155 48h-190v-203q0 -76 57 -129.5t133 -53.5q103 0 161 54t58 139z" />
    <glyph glyph-name="uniFEE6" unicode="&#x646;" horiz-adv-x="1529" arabic-form="final" 
d="M1530 319q67 0 115.5 -47t48.5 -112q0 -67 -48 -113.5t-116 -46.5h-123q-19 0 -51 4v-170q0 -96 -65.5 -163.5t-160.5 -67.5h-462q-160 0 -295 78.5t-213 213.5t-78 295v383h317v-383q0 -111 78.5 -189.5t190.5 -78.5h286q35 0 59.5 24.5t24.5 59.5v1018h318v-668
q5 -16 19 -26.5t32 -10.5h123zM668 993q73 0 125.5 -52t52.5 -124q0 -73 -52 -125.5t-126 -52.5t-126.5 52.5t-52.5 125.5q0 72 53 124t126 52z" />
    <glyph glyph-name="uniFEE7" unicode="&#x646;" horiz-adv-x="614" arabic-form="initial" 
d="M354 1556q73 0 125.5 -52t52.5 -124q0 -74 -52 -126t-126 -52t-126 52t-52 126q0 72 52.5 124t125.5 52zM145 0h-147q-66 0 -114 48t-48 114q0 68 47.5 112.5t114.5 44.5h149q26 0 41 16t15 40v649h319v-649q0 -154 -110.5 -264.5t-266.5 -110.5z" />
    <glyph glyph-name="uniFEE8" unicode="&#x646;" horiz-adv-x="722" arabic-form="medial" 
d="M358 1378q73 0 126 -52t53 -124q0 -73 -52.5 -125.5t-126.5 -52.5t-126 52t-52 126q0 72 52.5 124t125.5 52zM727 319q66 0 113 -45.5t47 -111.5q0 -68 -47.5 -115t-114.5 -47h-70q-153 0 -280 96q-117 -96 -262 -96h-109q-72 0 -120 45.5t-48 114.5t48 114t120 45h72
q50 0 84.5 34.5t34.5 84.5v381h321v-383q9 -50 48.5 -83.5t90.5 -33.5h72z" />
    <glyph glyph-name="uniFEEA" unicode="&#x647;" horiz-adv-x="1296" arabic-form="final" 
d="M1298 319q67 0 113.5 -45.5t48.5 -111.5q0 -66 -47 -113t-113 -49h-118q-153 0 -262 109q-141 -109 -320 -109q-138 0 -257 66t-190 181t-71 249v30q0 223 145.5 360.5t372.5 137.5h526l2 -651q0 -30 10 -42t44 -12h116zM600 319q86 0 146.5 60.5t60.5 146.5v179h-207
q-81 0 -142 -46.5t-61 -132.5v-16q0 -78 61 -134.5t142 -56.5z" />
    <glyph glyph-name="uniFEEB" unicode="&#x647;" horiz-adv-x="1634" arabic-form="initial" 
d="M770 1339q160 -26 299 -105t242 -198.5t162 -283t59 -349.5v-104q0 -123 -88 -211t-211 -88h-1253v317h206q-43 94 -43 209q0 125 68 223.5t180.5 150.5t245.5 52q141 0 256.5 -70.5t180.5 -190.5t65 -263v-2q0 -52 -13 -109h50q17 0 27.5 11t10.5 28v47
q0 250 -135 419.5t-356 203.5q-94 14 -299 14v316q32 0 80 -0.5t61.5 -0.5t43 -1t38.5 -1.5t32.5 -2.5t41 -4.5t49.5 -6.5zM637 635q-63 0 -118.5 -41.5t-55.5 -112.5t44.5 -117.5t92.5 -46.5h164q24 0 41.5 17t17.5 41v84q0 58 -53 116.5t-133 59.5z" />
    <glyph glyph-name="uniFEEC" unicode="&#x647;" horiz-adv-x="1406" arabic-form="medial" 
d="M1237 319h190v-319h-167v-20q0 -204 -137 -317.5t-388 -113.5q-196 0 -346.5 121.5t-195.5 309.5l-5 20h-208v319h194v144q0 149 69.5 278t190 207t262.5 84q228 9 402 -151q80 -74 124 -178.5t44 -215.5q0 -86 -29 -168zM494 463v-144h163q31 0 52.5 1t60.5 5.5
t66.5 15.5t55.5 29t43 48.5t15 70.5q0 105 -71 164q-61 61 -166 58q-90 -3 -154.5 -76t-64.5 -172zM735 -137q94 0 149.5 52.5t57.5 131.5q-124 -47 -285 -47h-139l6 -12q31 -57 87 -91t124 -34z" />
    <glyph glyph-name="uniFEEE" unicode="&#x648;" horiz-adv-x="1247" arabic-form="final" 
d="M1268 319v-319h-176q-24 -187 -160 -311q-119 -113 -271 -148t-477 -33v316q256 0 361.5 18t173.5 80q27 23 43 68l4 10h-166q-105 0 -201 41t-165.5 110.5t-110.5 166t-41 202.5q0 138 69.5 254t189 183t259.5 67h496v-705h172zM774 319v386h-174q-83 0 -142 -53
t-59 -132q0 -84 59.5 -142.5t141.5 -58.5h174z" />
    <glyph glyph-name="uniFEF0" unicode="&#x649;" horiz-adv-x="1800" arabic-form="final" 
d="M1800 319q67 0 115.5 -44.5t48.5 -110.5q0 -67 -49 -115.5t-115 -48.5q-32 0 -82 6q4 -18 4 -55q0 -181 -128.5 -308.5t-307.5 -127.5h-614q-160 0 -296 78.5t-215 214.5t-79 296v408h319v-408q0 -112 79 -191t192 -79h614q46 0 81.5 35.5t35.5 81.5q0 44 -25.5 78.5
t-70.5 46.5l-359 147l142 291q68 -29 122 -52t79.5 -34.5t43.5 -19.5t26 -11.5t15 -5.5q198 -72 424 -72z" />
    <glyph glyph-name="uniFEF2" unicode="&#x64a;" horiz-adv-x="1800" arabic-form="final" 
d="M1800 319q67 0 115.5 -44.5t48.5 -110.5q0 -67 -49 -115.5t-115 -48.5q-32 0 -82 6q4 -18 4 -55q0 -181 -128.5 -308.5t-307.5 -127.5h-614q-160 0 -296 78.5t-215 214.5t-79 296v408h319v-408q0 -112 79 -191t192 -79h614q46 0 81.5 35.5t35.5 81.5q0 44 -25.5 78.5
t-70.5 46.5l-359 147l142 291q68 -29 122 -52t79.5 -34.5t43.5 -19.5t26 -11.5t15 -5.5q198 -72 424 -72zM741 -606q73 0 126 -52t53 -124q0 -74 -53 -126.5t-126 -52.5t-125.5 52.5t-52.5 126.5q0 72 52.5 124t125.5 52zM1184 -606q73 0 125.5 -52t52.5 -124
q0 -74 -52.5 -126.5t-125.5 -52.5t-125.5 52.5t-52.5 126.5q0 72 52.5 124t125.5 52z" />
    <glyph glyph-name="uniFEF3" unicode="&#x64a;" horiz-adv-x="849" arabic-form="initial" 
d="M391 0h-393q-66 0 -114 48t-48 114q0 68 47.5 112.5t114.5 44.5h395q26 0 41 16t15 40v649h319v-649q0 -154 -110.5 -264.5t-266.5 -110.5zM145 -137q73 0 126 -52t53 -124q0 -73 -53 -126t-126 -53t-125.5 52.5t-52.5 126.5q0 72 52.5 124t125.5 52zM588 -137
q73 0 125.5 -52t52.5 -124q0 -74 -52.5 -126.5t-125.5 -52.5t-125.5 52.5t-52.5 126.5q0 72 52.5 124t125.5 52z" />
    <glyph glyph-name="uniFEF4" unicode="&#x64a;" horiz-adv-x="921" arabic-form="medial" 
d="M926 319q66 0 112.5 -45.5t46.5 -111.5q0 -68 -47 -115t-114 -47h-170q-154 0 -281 96q-117 -96 -262 -96h-207q-72 0 -120 45.5t-48 114.5t48 114t120 45h170q50 0 84.5 34.5t34.5 84.5v422h321v-424q9 -50 49 -83.5t91 -33.5h172zM219 -137q73 0 125.5 -52t52.5 -124
q0 -74 -52.5 -126.5t-125.5 -52.5t-125.5 52.5t-52.5 126.5q0 72 52.5 124t125.5 52zM662 -137q73 0 125.5 -52t52.5 -124q0 -74 -52.5 -126.5t-125.5 -52.5q-74 0 -126.5 53t-52.5 126q0 72 53 124t126 52z" />
    <glyph glyph-name=".notdef" horiz-adv-x="972" 
d="M799 1434v-1946h-619v1946h619zM647 1303h-319v-64h125v-72h-127v-63h321v63h-127v72h127v64zM520 1053h-194v-203h321v65h-127v138zM453 987v-72h-64v72h64zM647 797h-321v-64h127v-71h-127v-64h194v135h127v64zM647 680h-63v-127h-258v-68h321v195zM647 442h-194v-108
h67v45h64v-92h-195v155h-63v-219h321v219zM647 106h-321v-219h321v219zM584 43v-92h-195v92h195zM647 -158h-321v-63h135l-135 -92v-64h321v64h-198l137 92h61v63z" />
    <glyph glyph-name=".null" horiz-adv-x="1228" 
 />
    <glyph glyph-name="nonmarkingreturn" horiz-adv-x="682" 
 />
    <glyph glyph-name="CR" unicode="&#xd;" horiz-adv-x="450" 
 />
    <glyph glyph-name="space" unicode=" " horiz-adv-x="409" 
 />
    <glyph glyph-name="exclam" unicode="!" horiz-adv-x="663" 
d="M147 1434h369l-29 -922h-311zM113 190q0 102 59.5 161t159.5 59q103 0 161 -58.5t58 -161.5q0 -100 -58.5 -159.5t-160.5 -59.5q-100 0 -159.5 59.5t-59.5 159.5z" />
    <glyph glyph-name="quotedbl" unicode="&#x22;" horiz-adv-x="978" 
d="M82 1462h356l-47 -596h-262zM541 1462h356l-47 -596h-262z" />
    <glyph glyph-name="numbersign" unicode="#" horiz-adv-x="1462" 
d="M1155 827l-45 -221h195v-246h-242l-66 -329h-278l65 329h-245l-66 -329h-278l65 329h-188v246h235l45 221h-194v246h241l66 330h278l-65 -330h246l65 330h279l-66 -330h189v-246h-236zM877 827h-246l-45 -221h245z" />
    <glyph glyph-name="dollar" unicode="$" horiz-adv-x="1241" 
d="M1180 459q0 -182 -128.5 -297.5t-353.5 -128.5v-135h-127v135q-174 14 -308.5 88.5t-201.5 195.5l226 187q107 -139 284 -166v250l-100 24q-186 44 -281.5 143t-95.5 246q0 173 128 281.5t349 118.5v135h127v-137q154 -13 270 -76t177 -162l-225 -184q-91 102 -222 123
v-228l121 -28q361 -89 361 -385zM571 905v201q-67 -6 -102 -31.5t-35 -64.5q0 -36 30 -59t107 -46zM698 334q142 12 142 110q0 42 -31.5 67.5t-110.5 45.5v-223z" />
    <glyph glyph-name="percent" unicode="%" horiz-adv-x="1875" 
d="M436 692q-171 0 -283 109t-112 276t112 276t283 109t283 -109t112 -276t-112 -276t-283 -109zM1264 1434h299l-951 -1434h-299zM436 930q62 0 99.5 40.5t37.5 106.5t-38 107t-99 41t-99 -41t-38 -107t37.5 -106.5t99.5 -40.5zM1440 -29q-171 0 -283.5 109t-112.5 276
t112.5 276t283.5 109t283 -109t112 -276t-112 -276t-283 -109zM1440 209q62 0 99.5 40.5t37.5 106.5t-38 107t-99 41t-99 -41t-38 -107t37.5 -106.5t99.5 -40.5z" />
    <glyph glyph-name="ampersand" unicode="&#x26;" horiz-adv-x="1460" 
d="M1081 0l-80 92q-171 -121 -403 -121q-233 0 -372.5 115.5t-139.5 294.5q0 240 283 410q-140 166 -140 317q0 152 115 253t305 101q186 0 299 -94t113 -248q0 -231 -264 -385l174 -198q30 89 39 188h307q-30 -254 -135 -430l258 -295h-359zM541 1090q0 -68 88 -162
q125 73 125 159q0 44 -30 72.5t-77 28.5t-76.5 -27.5t-29.5 -70.5zM625 270q98 0 166 39l-242 275q-54 -31 -84.5 -78t-30.5 -98q0 -63 49.5 -100.5t141.5 -37.5z" />
    <glyph glyph-name="quotesingle" unicode="'" horiz-adv-x="520" 
d="M82 1462h356l-47 -596h-262z" />
    <glyph glyph-name="parenleft" unicode="(" horiz-adv-x="741" 
d="M438 -260q-153 181 -239 422t-86 477t87.5 478.5t237.5 420.5l267 -156q-118 -150 -184 -348t-66 -395q0 -199 65.5 -396.5t184.5 -346.5z" />
    <glyph glyph-name="parenright" unicode=")" horiz-adv-x="741" 
d="M629 639q0 -238 -87 -478.5t-239 -420.5l-266 156q118 150 184 350t66 393t-67 395t-183 348l266 156q152 -179 239 -422.5t87 -476.5z" />
    <glyph glyph-name="asterisk" unicode="*" horiz-adv-x="964" 
d="M655 973l181 -223l-199 -144l-156 242l-157 -240l-199 144l182 223l-276 74l75 233l267 -102l-15 286h246l-16 -288l270 102l76 -233z" />
    <glyph glyph-name="plus" unicode="+" horiz-adv-x="1454" 
d="M1198 496h-309v-336h-324v336h-309v307h309v336h324v-336h309v-307z" />
    <glyph glyph-name="comma" unicode="," horiz-adv-x="569" 
d="M154 305h344l-179 -631h-278z" />
    <glyph glyph-name="hyphen" unicode="-" horiz-adv-x="737" 
d="M61 735h615v-295h-615v295z" />
    <glyph glyph-name="period" unicode="." horiz-adv-x="602" 
d="M82 190q0 102 59.5 161t159.5 59q103 0 161 -58.5t58 -161.5q0 -100 -58.5 -159.5t-160.5 -59.5q-100 0 -159.5 59.5t-59.5 159.5z" />
    <glyph glyph-name="slash" unicode="/" horiz-adv-x="1085" 
d="M758 1516h327l-757 -1709h-328z" />
    <glyph glyph-name="zero" unicode="0" horiz-adv-x="1429" 
d="M715 -29q-181 0 -319.5 93t-214 262.5t-75.5 390.5t75.5 390t214 262t319.5 93t319 -93t213.5 -262t75.5 -390q0 -335 -167.5 -540.5t-440.5 -205.5zM715 291q112 0 180 117t68 309t-68 309t-180 117t-180 -117t-68 -309t68 -309t180 -117z" />
    <glyph glyph-name="one" unicode="1" horiz-adv-x="870" 
d="M731 1434v-1434h-348v1071h-322v363h670z" />
    <glyph glyph-name="two" unicode="2" horiz-adv-x="1198" 
d="M1133 319v-319h-1067v258l505 473q109 102 152 164t43 117q0 60 -41.5 95.5t-110.5 35.5q-86 0 -160.5 -56t-129.5 -165l-279 165q72 179 220.5 277t346.5 98q227 0 367.5 -122.5t140.5 -309.5q0 -110 -53 -208.5t-170 -207.5l-315 -295h551z" />
    <glyph glyph-name="three" unicode="3" horiz-adv-x="1173" 
d="M852 727q127 -41 193.5 -128t66.5 -210q0 -185 -147 -301.5t-396 -116.5q-341 0 -536 219l194 236q145 -139 324 -139q99 0 154 39t55 106q0 64 -67 99.5t-199 35.5h-115v312h147q103 0 158 34.5t55 98.5q0 63 -45 99t-131 36q-163 0 -295 -150l-231 220
q92 118 229 181.5t309 63.5q239 0 378 -110t139 -299q0 -122 -61 -205.5t-179 -120.5z" />
    <glyph glyph-name="four" unicode="4" horiz-adv-x="1263" 
d="M393 559h346v367h340v-367h160v-287h-160v-272h-340v272h-686v287l692 875l213 -156z" />
    <glyph glyph-name="five" unicode="5" horiz-adv-x="1210" 
d="M692 930q217 0 343 -122.5t126 -338.5q0 -236 -152.5 -367t-422.5 -131q-161 0 -291.5 52.5t-245.5 164.5l195 242q155 -143 336 -143q106 0 167.5 46.5t61.5 127.5q0 82 -57.5 131t-151.5 49q-118 0 -213 -74h-252v867h932v-310h-608v-243q98 49 233 49z" />
    <glyph glyph-name="six" unicode="6" horiz-adv-x="1220" 
d="M618 989q252 0 407 -136t155 -357q0 -233 -156.5 -374.5t-413.5 -141.5t-413 141.5t-156 374.5q0 109 37.5 229t144.5 299l252 410h387l-305 -447q20 2 61 2zM610 254q100 0 160.5 64.5t60.5 168.5t-59 169t-154 65q-103 0 -166 -65t-63 -169t60.5 -168.5t160.5 -64.5z
" />
    <glyph glyph-name="seven" unicode="7" horiz-adv-x="1097" 
d="M1069 1434v-287l-547 -1147h-389l551 1114h-655v320h1040z" />
    <glyph glyph-name="eight" unicode="8" horiz-adv-x="1269" 
d="M944 737q119 -41 191.5 -135.5t72.5 -208.5q0 -190 -157.5 -306t-415.5 -116t-416 116t-158 306q0 114 73 208.5t192 135.5q-100 40 -161 127.5t-61 190.5q0 183 146.5 295t384.5 112t384 -112t146 -295q0 -103 -60.5 -190.5t-160.5 -127.5zM444 1020q0 -72 52.5 -116
t138.5 -44t138 44t52 116t-52 116t-138 44t-138.5 -44t-52.5 -116zM635 266q95 0 154 45.5t59 118.5t-59 118.5t-154 45.5t-154 -45.5t-59 -118.5t59 -118.5t154 -45.5z" />
    <glyph glyph-name="nine" unicode="9" horiz-adv-x="1234" 
d="M602 453q-252 0 -406.5 136t-154.5 357q0 233 156 374.5t413 141.5t413.5 -141.5t156.5 -374.5q0 -108 -38 -228.5t-145 -299.5l-252 -410h-387l306 447q-20 -2 -62 -2zM610 1188q-99 0 -160 -64.5t-61 -169.5q0 -104 59 -168.5t154 -64.5q103 0 166 64.5t63 168.5
q0 105 -61 169.5t-160 64.5z" />
    <glyph glyph-name="colon" unicode=":" horiz-adv-x="612" 
d="M311 623q-100 0 -159.5 59.5t-59.5 159.5q0 102 59.5 160.5t159.5 58.5q103 0 161 -58t58 -161q0 -100 -58.5 -159.5t-160.5 -59.5zM311 -29q-100 0 -159.5 59.5t-59.5 159.5q0 102 59.5 161t159.5 59q103 0 161 -58.5t58 -161.5q0 -100 -58.5 -159.5t-160.5 -59.5z" />
    <glyph glyph-name="semicolon" unicode=";" horiz-adv-x="606" 
d="M96 842q0 102 59.5 160.5t159.5 58.5q103 0 161.5 -58t58.5 -161q0 -100 -59 -159.5t-161 -59.5q-100 0 -159.5 59.5t-59.5 159.5zM154 305h344l-179 -631h-278z" />
    <glyph glyph-name="less" unicode="&#x3c;" horiz-adv-x="1454" 
d="M1198 819l-481 -170l481 -170v-323l-942 346v295l942 346v-324z" />
    <glyph glyph-name="equal" unicode="=" horiz-adv-x="1454" 
d="M256 1028h942v-307h-942v307zM256 578h942v-308h-942v308z" />
    <glyph glyph-name="greater" unicode="&#x3e;" horiz-adv-x="1454" 
d="M1198 797v-295l-942 -346v323l481 170l-481 170v324z" />
    <glyph glyph-name="question" unicode="?" horiz-adv-x="970" 
d="M291 608q2 61 6.5 90.5t23.5 64t46.5 61.5t87.5 79l88 74q65 56 65 106q0 38 -27 59t-77 21q-136 0 -238 -166l-246 166q70 139 198 219t292 80q188 0 309 -101.5t121 -266.5q0 -86 -40 -158t-136 -152l-76 -63q-50 -41 -62 -63.5t-12 -71.5v-74h-323v96zM233 190
q0 102 60 161t160 59q103 0 161 -58.5t58 -161.5q0 -100 -58.5 -159.5t-160.5 -59.5q-100 0 -160 59.5t-60 159.5z" />
    <glyph glyph-name="at" unicode="@" horiz-adv-x="2011" 
d="M1036 1386q185 2 354 -60.5t292 -171t195 -263t69 -328.5q0 -239 -120 -393t-306 -154q-106 0 -193 50.5t-119 132.5q-43 -92 -110 -133t-176 -41q-196 0 -309 119t-113 321q0 198 118 319t310 121q86 0 153 -33t90 -86v101h256v-527q6 -45 29.5 -69.5t59.5 -24.5
q60 0 100.5 70.5t40.5 195.5q0 174 -80.5 305.5t-221 200t-319.5 68.5q-293 0 -476 -179t-183 -466q0 -285 182 -459t481 -174q222 0 363 82l125 -246q-193 -115 -492 -115q-163 -2 -311 40.5t-265.5 124.5t-203.5 193.5t-131 253t-43 296.5q-3 197 72 371.5t203.5 297.5
t306 193t372.5 67zM969 270q82 0 132 56.5t50 148.5q0 91 -50 147t-132 56q-80 0 -130.5 -56.5t-50.5 -146.5q0 -92 50.5 -148.5t130.5 -56.5z" />
    <glyph glyph-name="A" unicode="A" horiz-adv-x="1478" 
d="M1008 225h-539l-78 -225h-379l527 1434h379l548 -1434h-379zM899 532l-160 560l-159 -560h319z" />
    <glyph glyph-name="B" unicode="B" horiz-adv-x="1380" 
d="M1051 760q135 -40 201.5 -122.5t66.5 -217.5q0 -89 -31.5 -161t-85 -119.5t-128.5 -79.5t-158 -46t-177 -14h-600v1434h623q244 0 372 -91t128 -272q0 -235 -211 -311zM494 1137v-265l254 -2q65 0 103.5 43t35.5 99q-3 50 -41.5 87.5t-97.5 37.5h-254zM750 297
q190 0 190 149q0 150 -190 150h-258v-299h258z" />
    <glyph glyph-name="C" unicode="C" horiz-adv-x="1486" 
d="M840 -29q-183 0 -329.5 58.5t-239 160.5t-141 235.5t-48.5 289.5q0 155 50.5 290t144.5 236.5t239 160t324 58.5q199 0 358 -94t258 -266l-289 -172q-50 91 -137 144.5t-190 53.5q-181 0 -284 -117t-103 -294q0 -116 42 -207.5t131 -148t214 -56.5q104 0 192.5 55.5
t138.5 147.5l285 -180q-89 -176 -250 -265.5t-366 -89.5z" />
    <glyph glyph-name="D" unicode="D" horiz-adv-x="1480" 
d="M725 1434q145 0 272 -56.5t215.5 -153.5t139.5 -228.5t51 -278.5t-51 -278.5t-139.5 -228.5t-215.5 -153.5t-272 -56.5h-586v1434h586zM680 330q157 0 252.5 111.5t95.5 275.5t-95.5 275.5t-252.5 111.5h-186v-774h186z" />
    <glyph glyph-name="E" unicode="E" horiz-adv-x="1261" 
d="M1159 322v-322h-1020v1434h1000v-322h-645v-225h591v-318h-591v-247h665z" />
    <glyph glyph-name="F" unicode="F" horiz-adv-x="1167" 
d="M496 1112v-307h559v-326h-559v-479h-357v1434h957v-322h-600z" />
    <glyph glyph-name="G" unicode="G" horiz-adv-x="1554" 
d="M1462 842l-2 -555q-102 -148 -265.5 -232t-356.5 -84q-184 0 -330 58t-238 159.5t-140 235t-48 289.5t50.5 291.5t144 237t238.5 160t323 58.5q173 0 325.5 -73.5t259.5 -200.5l-290 -205q-56 68 -132 106.5t-163 38.5q-181 0 -284 -117t-103 -296q0 -177 101.5 -293.5
t285.5 -116.5q201 0 299 125v123h-279v291h604z" />
    <glyph glyph-name="H" unicode="H" horiz-adv-x="1523" 
d="M1384 1434v-1434h-356v522h-532v-522h-357v1434h357v-582h532v582h356z" />
    <glyph glyph-name="I" unicode="I" horiz-adv-x="643" 
d="M143 1434h357v-1434h-357v1434z" />
    <glyph glyph-name="J" unicode="J" horiz-adv-x="1220" 
d="M567 -33q-133 0 -252.5 63.5t-194 170.5t-83.5 229l350 111v-47q0 -74 52.5 -126.5t127.5 -52.5q73 0 125.5 52.5t52.5 126.5v940h357v-930q0 -146 -71.5 -269.5t-195 -195.5t-268.5 -72z" />
    <glyph glyph-name="K" unicode="K" horiz-adv-x="1427" 
d="M1427 1434l-577 -717l577 -717h-440l-358 473l-133 -137v-336h-357v1434h357v-641l501 641h430z" />
    <glyph glyph-name="L" unicode="L" horiz-adv-x="1175" 
d="M1130 330v-330h-991v1434h357v-1104h634z" />
    <glyph glyph-name="M" unicode="M" horiz-adv-x="1910" 
d="M1772 1434v-1434h-353v940l-340 -940h-264l-323 940v-940h-353v1434h463l346 -1026l373 1026h451z" />
    <glyph glyph-name="N" unicode="N" horiz-adv-x="1579" 
d="M1440 1434v-1434h-336l-612 854v-854h-353v1434h336l612 -854v854h353z" />
    <glyph glyph-name="O" unicode="O" horiz-adv-x="1679" 
d="M840 -29q-225 0 -397.5 93t-266.5 262.5t-94 390.5t94 390t266.5 262t397.5 93t397 -93t266 -262t94 -390t-94 -390.5t-266 -262.5t-397 -93zM840 305q175 0 282 113t107 299t-107 298.5t-282 112.5t-282 -112.5t-107 -298.5t107 -299t282 -113z" />
    <glyph glyph-name="P" unicode="P" horiz-adv-x="1329" 
d="M778 1434q220 0 355 -141.5t135 -372.5q0 -229 -135 -369.5t-355 -140.5h-282v-410h-357v1434h639zM729 731q79 0 123.5 46.5t44.5 142.5q0 86 -46.5 139t-121.5 53h-233v-381h233z" />
    <glyph glyph-name="Q" unicode="Q" horiz-adv-x="1675" 
d="M1597 717q0 -148 -56 -281.5t-157 -236.5l117 -146l-235 -186l-131 162q-141 -58 -297 -58q-183 0 -329.5 58t-239.5 160t-142 236.5t-49 291.5q0 155 50.5 290t145 236.5t240 160t324.5 58.5q155 0 295.5 -59t242 -158.5t161.5 -237.5t60 -290zM838 303q23 0 69 8
l-123 156l234 186l139 -172q70 107 70 236q0 170 -114 290.5t-275 120.5q-180 0 -283.5 -117t-103.5 -294q0 -179 101.5 -296.5t285.5 -117.5z" />
    <glyph glyph-name="R" unicode="R" horiz-adv-x="1337" 
d="M567 469h-75v-469h-357v1434h668q131 0 242 -64.5t176 -175.5t65 -242q0 -153 -85 -274t-222 -174l-25 -8l332 -496h-430zM492 791h262q68 0 114.5 46.5t46.5 114.5q0 66 -47 113t-114 47h-262v-321z" />
    <glyph glyph-name="S" unicode="S" horiz-adv-x="1308" 
d="M653 -29q-214 0 -371 82t-237 232l242 196q141 -190 379 -190q104 0 166.5 34t62.5 93q0 46 -39 76t-135 53l-232 55q-202 49 -304.5 157t-102.5 267q0 196 151 316t410 120q191 0 343.5 -76.5t232.5 -203.5l-242 -199q-148 162 -336 162q-97 0 -148 -30t-51 -81
q0 -40 42 -68.5t143 -52.5l239 -57q389 -94 389 -420q0 -208 -165.5 -336.5t-436.5 -128.5z" />
    <glyph glyph-name="T" unicode="T" horiz-adv-x="1241" 
d="M442 1104h-405v330h1167v-330h-405v-1104h-357v1104z" />
    <glyph glyph-name="U" unicode="U" horiz-adv-x="1478" 
d="M739 -25q-140 0 -257.5 48.5t-196.5 132t-122.5 196t-43.5 240.5v842h358v-863q0 -117 65 -189.5t197 -72.5q262 0 262 262v863h359v-842q0 -103 -26 -195.5t-77.5 -169.5t-125 -133t-174 -87.5t-218.5 -31.5z" />
    <glyph glyph-name="V" unicode="V" horiz-adv-x="1417" 
d="M1405 1434l-490 -1434h-413l-490 1434h383l314 -1014l313 1014h383z" />
    <glyph glyph-name="W" unicode="W" horiz-adv-x="2191" 
d="M1780 1434h383l-416 -1434h-391l-242 743l-278 -743h-392l-415 1434h383l250 -930l362 930h178l328 -930z" />
    <glyph glyph-name="X" unicode="X" horiz-adv-x="1341" 
d="M918 0l-244 436l-250 -436h-412l443 727l-408 707h402l225 -428l231 428h402l-416 -707l438 -727h-411z" />
    <glyph glyph-name="Y" unicode="Y" horiz-adv-x="1331" 
d="M1348 1434l-502 -881v-553h-361v553l-501 881h407l275 -539l274 539h408z" />
    <glyph glyph-name="Z" unicode="Z" horiz-adv-x="1253" 
d="M1176 319v-319h-1098v266l622 848h-610v320h1077v-267l-622 -848h631z" />
    <glyph glyph-name="bracketleft" unicode="[" horiz-adv-x="798" 
d="M475 1212v-1146h262v-304h-598v1754h598v-304h-262z" />
    <glyph glyph-name="backslash" unicode="\" horiz-adv-x="1085" 
d="M758 -193l-758 1709h328l757 -1709h-327z" />
    <glyph glyph-name="bracketright" unicode="]" horiz-adv-x="798" 
d="M659 1516v-1754h-598v304h263v1146h-263v304h598z" />
    <glyph glyph-name="asciicircum" unicode="^" horiz-adv-x="1251" 
d="M842 713l-215 366l-217 -366h-369l430 671h309l430 -671h-368z" />
    <glyph glyph-name="underscore" unicode="_" horiz-adv-x="901" 
d="M0 -82h901v-246h-901v246z" />
    <glyph glyph-name="grave" unicode="`" horiz-adv-x="1269" 
d="M455 1188l-301 350h399l231 -350h-329z" />
    <glyph glyph-name="a" unicode="a" horiz-adv-x="1187" 
d="M1065 0h-289v137q-39 -76 -123.5 -119t-203.5 -43q-184 0 -283.5 95t-99.5 249q0 83 35 146t96 100.5t145 56.5t181 18t206 -19l-2 34q0 63 -52.5 93t-121.5 30q-65 0 -130 -27.5t-116 -74.5l-180 194q191 179 455 179q204 0 343.5 -128.5t139.5 -318.5v-602zM731 436
q-330 57 -330 -94q0 -57 30.5 -88t107.5 -31q92 0 142 46.5t50 131.5v35z" />
    <glyph glyph-name="b" unicode="b" horiz-adv-x="1306" 
d="M774 1044q226 0 348.5 -142t122.5 -380q0 -257 -117.5 -399.5t-349.5 -142.5q-112 0 -209.5 46t-136.5 124v-150h-309v1434h336v-553q5 20 28.5 46.5t61.5 53t98 45t127 18.5zM678 279q98 0 158.5 67t60.5 176q0 106 -57.5 171t-151.5 65q-103 0 -166 -65t-63 -171
q0 -109 60.5 -176t158.5 -67z" />
    <glyph glyph-name="c" unicode="c" horiz-adv-x="1112" 
d="M618 -29q-248 0 -400 153.5t-152 399.5t152 399.5t400 153.5q159 0 283.5 -65.5t190.5 -182.5l-252 -178q-80 115 -209 115q-98 0 -157.5 -66t-59.5 -176t59.5 -175.5t157.5 -65.5q129 0 209 114l252 -178q-66 -117 -190.5 -182.5t-283.5 -65.5z" />
    <glyph glyph-name="d" unicode="d" horiz-adv-x="1306" 
d="M1188 1434v-1434h-309v150q-39 -77 -137 -123.5t-210 -46.5q-232 0 -349 142.5t-117 399.5q0 238 122.5 380t348.5 142q115 0 209.5 -58.5t105.5 -104.5v553h336zM633 279q97 0 158 67.5t61 175.5q0 106 -62.5 171t-166.5 65q-93 0 -151 -65.5t-58 -170.5
q0 -110 59.5 -176.5t159.5 -66.5z" />
    <glyph glyph-name="e" unicode="e" horiz-adv-x="1239" 
d="M410 424q0 -72 73.5 -119t167.5 -47q91 0 172.5 25.5t124.5 66.5l187 -205q-66 -75 -202.5 -120t-295.5 -45q-260 0 -418 147.5t-158 390.5q0 235 157 380.5t405 145.5q287 0 434 -164t114 -456h-761zM623 793q-86 0 -151.5 -52.5t-65.5 -107.5h428q0 66 -56.5 113
t-154.5 47z" />
    <glyph glyph-name="f" unicode="f" horiz-adv-x="856" 
d="M225 721h-184v303h184v109q0 80 28.5 140.5t77 94.5t106 50t122.5 16h264v-299h-237q-17 0 -17 -29v-82h254v-303h-254v-721h-344v721z" />
    <glyph glyph-name="g" unicode="g" horiz-adv-x="1308" 
d="M1190 1024v-901q0 -252 -163.5 -406.5t-430.5 -154.5q-143 0 -281 43.5t-223 115.5l148 248q70 -49 161 -78.5t170 -29.5q293 0 293 297v30q-89 -170 -297 -170q-237 0 -369 144.5t-132 386.5q0 229 120.5 364.5t345.5 135.5q74 0 137.5 -17.5t100.5 -42t63 -49t36 -42.5
l10 -17v143h311zM623 295q101 0 165 61.5t64 165.5q0 54 -14 96.5t-36 67.5t-52 41.5t-58.5 22.5t-58.5 6q-100 0 -159.5 -64t-59.5 -170q0 -98 56 -162.5t153 -64.5z" />
    <glyph glyph-name="h" unicode="h" horiz-adv-x="1241" 
d="M776 1044q160 0 257 -97t97 -255v-692h-344v602q0 73 -41.5 118.5t-109.5 45.5q-77 0 -124.5 -52t-47.5 -136v-578h-344v1434h344v-514q34 57 119.5 90.5t193.5 33.5z" />
    <glyph glyph-name="i" unicode="i" horiz-adv-x="585" 
d="M293 1174q-85 0 -145 59t-60 143q0 83 60 143t145 60q82 0 141.5 -60t59.5 -143q0 -84 -59.5 -143t-141.5 -59zM121 1024h344v-1024h-344v1024z" />
    <glyph glyph-name="j" unicode="j" horiz-adv-x="585" 
d="M293 1174q-94 0 -151.5 54t-57.5 144t57.5 144.5t151.5 54.5t151.5 -54.5t57.5 -144.5t-57.5 -144t-151.5 -54zM-94 -106h123q50 0 71 20.5t21 69.5v1040h344v-1106q0 -161 -89.5 -244.5t-266.5 -83.5h-203v304z" />
    <glyph glyph-name="k" unicode="k" horiz-adv-x="1193" 
d="M791 0l-246 328l-82 -99v-229h-344v1434h344v-811l338 401h397l-395 -475l395 -549h-407z" />
    <glyph glyph-name="l" unicode="l" horiz-adv-x="567" 
d="M111 0v1434h344v-1434h-344z" />
    <glyph glyph-name="m" unicode="m" horiz-adv-x="1875" 
d="M1417 1049q155 0 251.5 -111.5t96.5 -282.5v-655h-344v559q0 81 -41.5 131.5t-105.5 50.5q-73 0 -116.5 -53t-43.5 -129v-559h-344v559q0 80 -45 131t-109 51q-72 0 -112.5 -52.5t-40.5 -129.5v-559h-344v1024h336v-141q40 73 127 119.5t188 46.5q104 0 188.5 -51.5
t116.5 -133.5q40 82 134.5 133.5t207.5 51.5z" />
    <glyph glyph-name="n" unicode="n" horiz-adv-x="1241" 
d="M776 1049q148 0 251 -102t103 -249v-698h-344v578q0 67 -46.5 114t-114.5 49q-68 0 -116 -48t-48 -115l2 -578h-344v1024h336v-141q42 76 130.5 121t190.5 45z" />
    <glyph glyph-name="o" unicode="o" horiz-adv-x="1261" 
d="M631 -25q-256 0 -413 151.5t-157 397.5q0 234 159.5 379.5t418.5 145.5q251 0 406 -145.5t155 -379.5q0 -246 -156.5 -397.5t-412.5 -151.5zM631 270q100 0 160.5 68t60.5 178t-59 178t-154 68q-103 0 -166 -68t-63 -178t60.5 -178t160.5 -68z" />
    <glyph glyph-name="p" unicode="p" horiz-adv-x="1306" 
d="M774 1044q232 0 349.5 -142.5t117.5 -399.5q0 -238 -122.5 -380t-348.5 -142q-67 0 -127 18.5t-98 45t-61.5 53t-28.5 46.5v-493h-336v1374h309v-150q39 77 136.5 123.5t209.5 46.5zM684 266q93 0 151 65.5t58 170.5q0 110 -59.5 176.5t-159.5 66.5q-97 0 -158 -67.5
t-61 -175.5q0 -106 62.5 -171t166.5 -65z" />
    <glyph glyph-name="q" unicode="q" horiz-adv-x="1306" 
d="M1188 1024v-1427h-336v546q-5 -20 -28.5 -46.5t-61.5 -53t-98 -45t-127 -18.5q-226 0 -348.5 142t-122.5 380q0 257 117 399.5t349 142.5q112 0 210 -46.5t137 -123.5v150h309zM623 266q104 0 166.5 65t62.5 171q0 108 -61 175.5t-158 67.5q-100 0 -159.5 -66.5
t-59.5 -176.5q0 -105 58 -170.5t151 -65.5z" />
    <glyph glyph-name="r" unicode="r" horiz-adv-x="878" 
d="M752 1051q42 0 86 -13v-325h-152q-119 0 -171 -57t-52 -187v-469h-344v1024h336v-160q42 86 120.5 136.5t176.5 50.5z" />
    <glyph glyph-name="s" unicode="s" horiz-adv-x="1064" 
d="M537 -29q-150 0 -280 44.5t-212 123.5l148 236q69 -55 164 -89t184 -34q121 0 121 57q0 47 -99 70l-178 43q-157 37 -229 112.5t-72 190.5q0 161 122.5 256.5t332.5 95.5q135 0 255.5 -40.5t196.5 -110.5l-151 -234q-165 103 -303 103q-54 0 -82.5 -15t-28.5 -41
q0 -39 94 -61l178 -43q163 -41 236.5 -115.5t73.5 -191.5q0 -166 -125 -261.5t-346 -95.5z" />
    <glyph glyph-name="t" unicode="t" horiz-adv-x="892" 
d="M516 0q-126 0 -213.5 88.5t-87.5 214.5l2 418h-180v303h180v332h344v-332h258v-303h-258v-389q0 -10 7.5 -17.5t17.5 -7.5h237v-307h-307z" />
    <glyph glyph-name="u" unicode="u" horiz-adv-x="1232" 
d="M1114 1024v-1024h-336v141q-43 -76 -131.5 -123t-189.5 -47q-148 0 -251.5 103.5t-103.5 251.5v698h344v-578q0 -67 47 -114t115 -49q68 0 116 48t48 115l-2 578h344z" />
    <glyph glyph-name="v" unicode="v" horiz-adv-x="1163" 
d="M1151 1024l-381 -1024h-377l-381 1024h369l201 -608l200 608h369z" />
    <glyph glyph-name="w" unicode="w" horiz-adv-x="1781" 
d="M1761 1049l-311 -1049h-383l-176 600l-176 -600h-383l-312 1049h353l168 -643l192 643h316l192 -643l168 643h352z" />
    <glyph glyph-name="x" unicode="x" horiz-adv-x="1169" 
d="M768 0l-182 303l-185 -303h-385l349 535l-328 489h381l168 -258l166 258h381l-328 -489l348 -535h-385z" />
    <glyph glyph-name="y" unicode="y" horiz-adv-x="1161" 
d="M1149 1049l-432 -1172q-57 -154 -160 -220.5t-281 -66.5h-239v308h178q97 0 135.5 19.5t57.5 76.5l8 24l-404 1031h369l209 -635l190 635h369z" />
    <glyph glyph-name="z" unicode="z" horiz-adv-x="1028" 
d="M958 291v-291h-892v225l442 533h-426v291h872v-226l-442 -532h446z" />
    <glyph glyph-name="braceleft" unicode="{" horiz-adv-x="796" 
d="M530 918q0 -122 -49 -189t-153 -90q104 -23 153 -90t49 -189v-178q0 -63 26.5 -89.5t92.5 -26.5h86v-304h-205q-182 0 -258.5 73.5t-76.5 244.5v280q0 67 -32 97t-100 30h-12v304h12q68 0 100 30t32 97v280q0 171 76.5 244.5t258.5 73.5h205v-304h-86q-66 0 -92.5 -26.5
t-26.5 -89.5v-178z" />
    <glyph glyph-name="bar" unicode="|" horiz-adv-x="647" 
d="M180 1567h287v-1772h-287v1772z" />
    <glyph glyph-name="braceright" unicode="}" horiz-adv-x="796" 
d="M745 791v-304h-12q-68 0 -99.5 -30t-31.5 -97v-280q0 -171 -77 -244.5t-259 -73.5h-205v304h86q66 0 92.5 26.5t26.5 89.5v178q0 122 49.5 188.5t153.5 90.5q-104 24 -153.5 90.5t-49.5 188.5v178q0 63 -26.5 89.5t-92.5 26.5h-86v304h205q182 0 259 -73.5t77 -244.5
v-280q0 -67 31.5 -97t99.5 -30h12z" />
    <glyph glyph-name="asciitilde" unicode="~" horiz-adv-x="1454" 
d="M512 547q-68 0 -125.5 -21t-130.5 -71v307q125 90 260 90q73 0 217 -51t207 -51q148 0 258 92v-307q-66 -47 -125.5 -69t-130.5 -22q-72 0 -214 51.5t-216 51.5z" />
    <glyph glyph-name="uni00A0" unicode="&#xa0;" horiz-adv-x="450" 
 />
    <glyph glyph-name="exclamdown" unicode="&#xa1;" horiz-adv-x="663" 
d="M551 858q0 -100 -58.5 -159.5t-160.5 -59.5q-100 0 -159.5 59.5t-59.5 159.5q0 102 59.5 160.5t159.5 58.5q103 0 161 -58t58 -161zM487 537l29 -922h-369l29 922h311z" />
    <glyph glyph-name="cent" unicode="&#xa2;" horiz-adv-x="1112" 
d="M705 293q79 24 135 104l252 -178q-57 -100 -158 -163.5t-229 -78.5v-249h-117v243q-235 10 -378.5 163t-143.5 390t143.5 390t378.5 163v183h117v-189q128 -15 229 -78.5t158 -163.5l-252 -178q-57 81 -135 105v-463zM414 524q0 -97 47 -160t127 -77v475
q-80 -14 -127 -77t-47 -161z" />
    <glyph glyph-name="sterling" unicode="&#xa3;" horiz-adv-x="1124" 
d="M537 307h532v-307h-1018v307h137v275h-127v245h127v187q0 216 113.5 332t331.5 116q307 0 450 -241l-262 -183q-37 51 -75 74t-87 23q-122 0 -122 -146v-162h426v-245h-426v-275z" />
    <glyph glyph-name="currency" unicode="&#xa4;" horiz-adv-x="1132" 
d="M1006 717q0 -122 -62 -225l127 -127l-151 -154l-138 137q-91 -45 -215 -45t-215 45l-139 -137l-152 154l127 127q-61 104 -61 225t61 225l-127 127l152 154l139 -138q91 45 215 45t215 -45l138 138l151 -154l-127 -127q62 -103 62 -225zM567 584q60 0 95.5 36.5
t35.5 96.5t-35.5 96.5t-95.5 36.5q-61 0 -97 -36.5t-36 -96.5t36 -96.5t97 -36.5z" />
    <glyph glyph-name="yen" unicode="&#xa5;" horiz-adv-x="1265" 
d="M879 778h272v-200h-342v-136h342v-200h-342v-242h-352v242h-340v200h340v136h-340v200h270l-371 656h369l248 -469l248 469h368z" />
    <glyph glyph-name="brokenbar" unicode="&#xa6;" horiz-adv-x="647" 
d="M180 1567h287v-746h-287v746zM180 524h287v-729h-287v729z" />
    <glyph glyph-name="section" unicode="&#xa7;" horiz-adv-x="1144" 
d="M889 383q178 -88 178 -281q0 -174 -127.5 -271t-361.5 -97q-155 0 -288 44t-218 124l147 235q68 -54 165.5 -85.5t201.5 -31.5q72 0 102.5 17t30.5 53t-26 58.5t-87 35.5l-178 43q-332 80 -332 316q0 93 50.5 165t140.5 107q-178 85 -178 277q0 172 126 271t353 99
q144 0 266 -40.5t197 -110.5l-152 -234q-156 99 -311 99q-131 0 -131 -74q0 -64 106 -86l178 -43q170 -41 251 -119.5t81 -196.5q0 -96 -48 -167.5t-136 -106.5zM428 604q0 -51 31 -81.5t104 -45.5l55 -6q59 0 91 34t32 91q0 50 -31 79t-104 48l-55 6q-59 0 -91 -34t-32 -91
z" />
    <glyph glyph-name="dieresis" unicode="&#xa8;" horiz-adv-x="1269" 
d="M379 1174q-91 0 -147 55t-56 143t56.5 143.5t146.5 55.5t146.5 -55.5t56.5 -143.5t-56 -143t-147 -55zM891 1174q-91 0 -147 55t-56 143t56.5 143.5t146.5 55.5t146.5 -55.5t56.5 -143.5t-56 -143t-147 -55z" />
    <glyph glyph-name="copyright" unicode="&#xa9;" horiz-adv-x="1650" 
d="M825 -29q-150 -3 -289.5 56.5t-240.5 160t-160.5 240t-56.5 289.5q-3 150 56.5 289t160.5 240t240.5 160t289.5 56q150 3 289.5 -56t241 -160t161 -240t56.5 -289q3 -150 -56.5 -289.5t-161 -240t-241 -160t-289.5 -56.5zM825 133q155 -3 288.5 77t210 216t73.5 291
q3 155 -73.5 290.5t-210 215t-288.5 77.5q-116 1 -223 -45.5t-184 -126t-121.5 -187.5t-42.5 -224q-2 -116 42.5 -224.5t121.5 -188t184 -126.5t223 -45zM852 279q-198 0 -320 122.5t-122 317.5t122 317.5t320 122.5q125 0 224 -51.5t153 -144.5l-201 -144q-65 92 -168 92
q-78 0 -125 -52t-47 -140t47 -140.5t125 -52.5q103 0 168 92l201 -143q-54 -93 -153 -144.5t-224 -51.5z" />
    <glyph glyph-name="guillemotleft" unicode="&#xab;" horiz-adv-x="1312" 
d="M391 524l320 -458h-359l-321 458l321 459h359zM952 524l320 -458h-359l-321 458l321 459h359z" />
    <glyph glyph-name="logicalnot" unicode="&#xac;" horiz-adv-x="1454" 
d="M1198 803v-506h-319v199h-623v307h942z" />
    <glyph glyph-name="registered" unicode="&#xae;" horiz-adv-x="1075" 
d="M537 1464q125 0 231 -61t167.5 -166t61.5 -229q0 -189 -135 -323t-325 -134q-189 0 -324 134t-135 323q0 124 62 229t167.5 166t229.5 61zM537 672q137 0 232 98.5t95 237.5t-95 237t-232 98t-231.5 -98t-94.5 -237t94.5 -237.5t231.5 -98.5zM743 1094q0 -124 -112 -148
l125 -168h-140l-108 162h-33v-162h-123v473h215q176 0 176 -157zM475 1040h84q57 0 57 52q0 51 -57 51h-84v-103z" />
    <glyph glyph-name="macron" unicode="&#xaf;" horiz-adv-x="1519" 
d="M406 1356h708v-266h-708v266z" />
    <glyph glyph-name="degree" unicode="&#xb0;" horiz-adv-x="798" 
d="M399 770q-156 0 -257 98.5t-101 247.5t101 247.5t257 98.5t257.5 -98.5t101.5 -247.5t-101.5 -247.5t-257.5 -98.5zM399 991q55 0 88 34.5t33 90.5t-33 90.5t-88 34.5t-87.5 -34.5t-32.5 -90.5t32.5 -90.5t87.5 -34.5z" />
    <glyph glyph-name="plusminus" unicode="&#xb1;" horiz-adv-x="1454" 
d="M1198 997v-307h-309v-274h-324v274h-309v307h309v275h324v-275h309zM256 307h942v-307h-942v307z" />
    <glyph glyph-name="acute" unicode="&#xb4;" horiz-adv-x="1269" 
d="M721 1538h399l-301 -350h-330z" />
    <glyph glyph-name="uni00B5" unicode="&#xb5;" horiz-adv-x="1249" 
d="M1130 1049v-1049h-303v121q-31 -72 -88 -111t-131 -39q-87 0 -145 52v-474h-344v1500h344v-603q0 -82 37 -122.5t114 -40.5q89 0 130.5 54t41.5 175v537h344z" />
    <glyph glyph-name="paragraph" unicode="&#xb6;" horiz-adv-x="1372" 
d="M451 778h-19q-164 0 -262 90t-98 238q0 151 105.5 239.5t295.5 88.5h272v-1700h-294v1044zM897 1434h295v-1700h-295v1700z" />
    <glyph glyph-name="cedilla" unicode="&#xb8;" horiz-adv-x="1269" 
d="M500 31h291l-117 -443h-350z" />
    <glyph glyph-name="guillemotright" unicode="&#xbb;" horiz-adv-x="1312" 
d="M360 524l-319 459h358l322 -459l-322 -458h-358zM1282 524l-321 -458h-359l320 458l-320 459h359z" />
    <glyph glyph-name="questiondown" unicode="&#xbf;" horiz-adv-x="970" 
d="M737 858q0 -100 -58.5 -159.5t-160.5 -59.5q-100 0 -159.5 59.5t-59.5 159.5q0 102 59.5 160.5t159.5 58.5q103 0 161 -58t58 -161zM680 440q-2 -61 -6.5 -90.5t-23.5 -64t-46.5 -61.5t-87.5 -79l-88 -73q-66 -57 -66 -107q0 -38 27.5 -59t77.5 -21q136 0 238 166
l245 -166q-70 -139 -197.5 -219t-291.5 -80q-188 0 -309 102t-121 267q0 86 39.5 157.5t136.5 151.5l76 64q49 41 61 63t12 72v74h324v-97z" />
    <glyph glyph-name="Agrave" unicode="&#xc0;" horiz-adv-x="1478" 
d="M569 1573l-239 350h338l231 -350h-330zM1008 225h-539l-78 -225h-379l527 1434h379l548 -1434h-379zM899 532l-160 560l-159 -560h319z" />
    <glyph glyph-name="Aacute" unicode="&#xc1;" horiz-adv-x="1478" 
d="M944 1573h-330l232 350h338zM1008 225h-539l-78 -225h-379l527 1434h379l548 -1434h-379zM899 532l-160 560l-159 -560h319z" />
    <glyph glyph-name="Acircumflex" unicode="&#xc2;" horiz-adv-x="1478" 
d="M633 1573h-342l299 350h340l299 -350h-342l-127 158zM1008 225h-539l-78 -225h-379l527 1434h379l548 -1434h-379zM899 532l-160 560l-159 -560h319z" />
    <glyph glyph-name="Atilde" unicode="&#xc3;" horiz-adv-x="1478" 
d="M754 1626q-64 35 -95 35q-26 0 -37.5 -19.5t-11.5 -66.5h-248q0 346 224 346q46 0 84.5 -12.5t95.5 -42.5q64 -35 94 -35q26 0 37.5 19.5t11.5 66.5h248q0 -346 -223 -346q-46 0 -84.5 12.5t-95.5 42.5zM1008 225h-539l-78 -225h-379l527 1434h379l548 -1434h-379z
M899 532l-160 560l-159 -560h319z" />
    <glyph glyph-name="Adieresis" unicode="&#xc4;" horiz-adv-x="1478" 
d="M506 1554q-85 0 -145 59t-60 144q0 83 60 143t145 60q82 0 141.5 -60t59.5 -143q0 -84 -59.5 -143.5t-141.5 -59.5zM1018 1554q-85 0 -145 59t-60 144q0 83 60 143t145 60q82 0 141.5 -60t59.5 -143q0 -84 -59.5 -143.5t-141.5 -59.5zM1008 225h-539l-78 -225h-379
l527 1434h379l548 -1434h-379zM899 532l-160 560l-159 -560h319z" />
    <glyph glyph-name="Aring" unicode="&#xc5;" horiz-adv-x="1478" 
d="M446 1835q0 121 90.5 206t223.5 85q132 0 222.5 -85t90.5 -206t-90.5 -206t-222.5 -85q-133 0 -223.5 85t-90.5 206zM862 1835q0 48 -26.5 75t-75.5 27t-76 -27t-27 -75t27 -75t76 -27t75.5 27t26.5 75zM1008 225h-539l-78 -225h-379l527 1434h379l548 -1434h-379z
M899 532l-160 560l-159 -560h319z" />
    <glyph glyph-name="AE" unicode="&#xc6;" horiz-adv-x="2244" 
d="M2150 328v-328h-1077v266h-495l-152 -266h-426l864 1434h1266v-328h-703v-217h654v-328h-654v-233h723zM1073 561v569l-325 -569h325z" />
    <glyph glyph-name="Ccedilla" unicode="&#xc7;" horiz-adv-x="1495" 
d="M840 303q104 0 192.5 55.5t138.5 147.5l285 -180q-76 -152 -209 -240t-303 -109l-96 -389h-350l155 400q-184 36 -315 142.5t-193.5 255.5t-62.5 329q0 155 50.5 290t144.5 236.5t239 160t324 58.5q199 0 358 -94t258 -266l-289 -172q-50 91 -137 144.5t-190 53.5
q-181 0 -284 -117t-103 -294q0 -116 42 -207.5t131 -148t214 -56.5z" />
    <glyph glyph-name="Egrave" unicode="&#xc8;" horiz-adv-x="1310" 
d="M553 1573l-240 350h338l232 -350h-330zM1217 322v-322h-1078v1434h1057v-322h-702v-252h649v-317h-649v-221h723z" />
    <glyph glyph-name="Eacute" unicode="&#xc9;" horiz-adv-x="1310" 
d="M807 1573h-330l232 350h338zM1217 322v-322h-1078v1434h1057v-322h-702v-252h649v-317h-649v-221h723z" />
    <glyph glyph-name="Ecircumflex" unicode="&#xca;" horiz-adv-x="1310" 
d="M784 1573l-127 158l-127 -158h-342l299 350h340l299 -350h-342zM1217 322v-322h-1078v1434h1057v-322h-702v-252h649v-317h-649v-221h723z" />
    <glyph glyph-name="Edieresis" unicode="&#xcb;" horiz-adv-x="1310" 
d="M197 1761q0 83 59.5 143t144.5 60q82 0 141.5 -60t59.5 -143q0 -84 -59.5 -143t-141.5 -59q-85 0 -144.5 58.5t-59.5 143.5zM709 1761q0 83 59.5 143t144.5 60q82 0 141.5 -60t59.5 -143q0 -84 -59.5 -143t-141.5 -59q-85 0 -144.5 58.5t-59.5 143.5zM1217 322v-322
h-1078v1434h1057v-322h-702v-252h649v-317h-649v-221h723z" />
    <glyph glyph-name="Igrave" unicode="&#xcc;" horiz-adv-x="643" 
d="M217 1573l-301 350h399l232 -350h-330zM143 1434h357v-1434h-357v1434z" />
    <glyph glyph-name="Iacute" unicode="&#xcd;" horiz-adv-x="643" 
d="M393 1907h400l-301 -351h-330zM143 1434h357v-1434h-357v1434z" />
    <glyph glyph-name="Icircumflex" unicode="&#xce;" horiz-adv-x="643" 
d="M791 1573h-342l-127 158l-127 -158h-342l299 350h340zM143 1434h357v-1434h-357v1434z" />
    <glyph glyph-name="Idieresis" unicode="&#xcf;" horiz-adv-x="643" 
d="M66 1559q-91 0 -147 55t-56 143t56.5 143.5t146.5 55.5t146 -55.5t56 -143.5t-56 -143t-146 -55zM578 1559q-91 0 -147 55t-56 143t56.5 143.5t146.5 55.5t146 -55.5t56 -143.5t-56 -143t-146 -55zM143 1434h357v-1434h-357v1434z" />
    <glyph glyph-name="Eth" unicode="&#xd0;" horiz-adv-x="1562" 
d="M1485 717q0 -166 -52.5 -301t-146 -226t-224 -140.5t-286.5 -49.5h-575v575h-176v283h176v576h575q156 0 286.5 -49.5t224 -140.5t146 -226t52.5 -301zM1112 717q0 387 -336 387h-219v-246h270v-283h-270v-245h219q336 0 336 387z" />
    <glyph glyph-name="Eth" unicode="&#xf0;" horiz-adv-x="1562" 
d="M1485 717q0 -166 -52.5 -301t-146 -226t-224 -140.5t-286.5 -49.5h-575v575h-176v283h176v576h575q156 0 286.5 -49.5t224 -140.5t146 -226t52.5 -301zM1112 717q0 387 -336 387h-219v-246h270v-283h-270v-245h219q336 0 336 387z" />
    <glyph glyph-name="Ntilde" unicode="&#xd1;" horiz-adv-x="1599" 
d="M700 1661q-26 0 -37.5 -19.5t-11.5 -66.5h-248q0 346 224 346q46 0 84.5 -12.5t95.5 -42.5q64 -35 94 -35q26 0 37.5 19.5t11.5 66.5h248q0 -346 -223 -346q-46 0 -84.5 12.5t-95.5 42.5q-64 35 -95 35zM1460 1434v-1434h-336l-632 854v-854h-353v1434h336l633 -854v854
h352z" />
    <glyph glyph-name="Ograve" unicode="&#xd2;" horiz-adv-x="1675" 
d="M733 1573l-239 350h337l232 -350h-330zM840 -29q-225 0 -397.5 93t-266.5 262.5t-94 390.5t94 390t266.5 262t397.5 93t397 -93t266 -262t94 -390t-94 -390.5t-266 -262.5t-397 -93zM840 305q175 0 282 113t107 299t-107 298.5t-282 112.5t-282 -112.5t-107 -298.5
t107 -299t282 -113z" />
    <glyph glyph-name="Oacute" unicode="&#xd3;" horiz-adv-x="1675" 
d="M946 1573h-330l232 350h338zM840 -29q-225 0 -397.5 93t-266.5 262.5t-94 390.5t94 390t266.5 262t397.5 93t397 -93t266 -262t94 -390t-94 -390.5t-266 -262.5t-397 -93zM840 305q175 0 282 113t107 299t-107 298.5t-282 112.5t-282 -112.5t-107 -298.5t107 -299
t282 -113z" />
    <glyph glyph-name="Ocircumflex" unicode="&#xd4;" horiz-adv-x="1675" 
d="M711 1573h-342l299 350h340l299 -350h-342l-127 158zM840 -29q-225 0 -397.5 93t-266.5 262.5t-94 390.5t94 390t266.5 262t397.5 93t397 -93t266 -262t94 -390t-94 -390.5t-266 -262.5t-397 -93zM840 305q175 0 282 113t107 299t-107 298.5t-282 112.5t-282 -112.5
t-107 -298.5t107 -299t282 -113z" />
    <glyph glyph-name="Otilde" unicode="&#xd5;" horiz-adv-x="1675" 
d="M1012 1571q-46 0 -85 13t-96 42q-64 35 -94 35q-26 0 -37.5 -19.5t-11.5 -66.5h-248q0 346 224 346q46 0 84.5 -12.5t95.5 -42.5q64 -35 94 -35q26 0 37.5 19.5t11.5 66.5h248q0 -346 -223 -346zM838 -29q-160 -3 -303 54t-243.5 157t-158 239t-55.5 294q-3 207 95.5 380
t274.5 272t390 95q160 3 302.5 -54.5t243 -158t158 -240t55.5 -294.5q2 -155 -55.5 -294t-158 -239t-243 -157t-302.5 -54zM838 307q173 0 280 113.5t107 294.5t-107.5 296t-279.5 115t-279.5 -115t-107.5 -296t107 -294.5t280 -113.5z" />
    <glyph glyph-name="Odieresis" unicode="&#xd6;" horiz-adv-x="1675" 
d="M582 1559q-85 0 -145 59t-60 143q0 83 60 143t145 60q82 0 141 -60t59 -143q0 -84 -59 -143t-141 -59zM1094 1559q-85 0 -145 59t-60 143q0 83 60 143t145 60q82 0 141 -60t59 -143q0 -84 -59 -143t-141 -59zM840 -29q-225 0 -397.5 93t-266.5 262.5t-94 390.5t94 390
t266.5 262t397.5 93t397 -93t266 -262t94 -390t-94 -390.5t-266 -262.5t-397 -93zM840 305q175 0 282 113t107 299t-107 298.5t-282 112.5t-282 -112.5t-107 -298.5t107 -299t282 -113z" />
    <glyph glyph-name="multiply" unicode="&#xd7;" horiz-adv-x="1454" 
d="M936 649l266 -266l-209 -209l-266 266l-266 -266l-209 209l266 266l-266 266l209 209l266 -266l266 266l209 -209z" />
    <glyph glyph-name="Oslash" unicode="&#xd8;" horiz-adv-x="1675" 
d="M1597 715q2 -155 -55.5 -294t-158 -239t-243 -157t-302.5 -54q-251 0 -437 125l-133 -133l-182 182l129 129q-137 186 -137 441q-3 207 95.5 380t274.5 272t390 95q249 0 438 -127l135 135l182 -182l-131 -131q135 -193 135 -442zM451 715q0 -101 32 -180l545 544
q-83 47 -190 47q-172 0 -279.5 -115t-107.5 -296zM1225 715q0 98 -33 180l-543 -543q80 -45 189 -45q173 0 280 113.5t107 294.5z" />
    <glyph glyph-name="Ugrave" unicode="&#xd9;" horiz-adv-x="1478" 
d="M635 1573l-240 350h338l232 -350h-330zM739 -29q-140 0 -258 49t-196.5 133.5t-122 197.5t-43.5 241v842h358v-863q0 -117 65 -189.5t197 -72.5q262 0 262 262v863h359v-842q0 -129 -41.5 -241.5t-118 -197t-195.5 -133.5t-266 -49z" />
    <glyph glyph-name="Uacute" unicode="&#xda;" horiz-adv-x="1478" 
d="M848 1573h-330l232 350h337zM739 -29q-140 0 -258 49t-196.5 133.5t-122 197.5t-43.5 241v842h358v-863q0 -117 65 -189.5t197 -72.5q262 0 262 262v863h359v-842q0 -129 -41.5 -241.5t-118 -197t-195.5 -133.5t-266 -49z" />
    <glyph glyph-name="Ucircumflex" unicode="&#xdb;" horiz-adv-x="1478" 
d="M866 1573l-127 158l-127 -158h-342l299 350h340l299 -350h-342zM739 -29q-140 0 -258 49t-196.5 133.5t-122 197.5t-43.5 241v842h358v-863q0 -117 65 -189.5t197 -72.5q262 0 262 262v863h359v-842q0 -129 -41.5 -241.5t-118 -197t-195.5 -133.5t-266 -49z" />
    <glyph glyph-name="Udieresis" unicode="&#xdc;" horiz-adv-x="1478" 
d="M483 1559q-85 0 -144.5 58.5t-59.5 143.5q0 83 59.5 143t144.5 60q82 0 141.5 -60t59.5 -143q0 -84 -59.5 -143t-141.5 -59zM995 1559q-85 0 -144.5 58.5t-59.5 143.5q0 83 59.5 143t144.5 60q82 0 141.5 -60t59.5 -143q0 -84 -59.5 -143t-141.5 -59zM739 -29
q-140 0 -258 49t-196.5 133.5t-122 197.5t-43.5 241v842h358v-863q0 -117 65 -189.5t197 -72.5q262 0 262 262v863h359v-842q0 -129 -41.5 -241.5t-118 -197t-195.5 -133.5t-266 -49z" />
    <glyph glyph-name="Yacute" unicode="&#xdd;" horiz-adv-x="1363" 
d="M791 1573h-330l231 350h338zM1380 1434l-518 -881v-553h-360v553l-518 881h407l291 -539l291 539h407z" />
    <glyph glyph-name="Thorn" unicode="&#xde;" horiz-adv-x="1363" 
d="M1303 727q0 -491 -555 -491h-252v-236h-357v1434h357v-215h252q555 0 555 -492zM932 727q0 86 -47.5 125t-153.5 39h-235v-334h235q105 0 153 41t48 129z" />
    <glyph glyph-name="germandbls" unicode="&#xdf;" horiz-adv-x="1337" 
d="M946 766q161 -17 251.5 -111t90.5 -243q0 -184 -131 -298t-358 -114h-205v299h143q203 0 203 150q0 143 -223 143h-123v307h61q203 0 203 150q0 76 -51 117.5t-148 41.5q-102 0 -149 -49.5t-47 -154.5v-1004h-344v1018q0 236 139 367t399 131q250 0 395.5 -117
t145.5 -305q0 -124 -65.5 -211.5t-186.5 -116.5z" />
    <glyph glyph-name="agrave" unicode="&#xe0;" horiz-adv-x="1187" 
d="M481 1188l-301 350h400l231 -350h-330zM1065 0h-289v137q-39 -76 -123.5 -119t-203.5 -43q-172 0 -277.5 96.5t-105.5 247.5q0 83 36.5 146t100 100.5t148 56.5t180 18t198.5 -19l-2 53q0 48 -42 76t-103 28q-66 0 -135 -28t-119 -74l-181 194q63 70 202 122t261 52
q204 0 329.5 -116.5t125.5 -306.5v-621zM731 436q-330 57 -330 -94q0 -54 36.5 -86.5t101.5 -32.5q92 0 142 46.5t50 131.5v35z" />
    <glyph glyph-name="aacute" unicode="&#xe1;" horiz-adv-x="1239" 
d="M815 1188h-330l232 350h334zM1092 0h-289v137q-39 -76 -123.5 -119t-204.5 -43q-174 0 -291.5 98t-117.5 246q0 83 39.5 146.5t106.5 100.5t156 56t187.5 18t200.5 -19l-2 53q0 47 -40 75.5t-91 28.5q-75 0 -147 -27.5t-122 -74.5l-180 194q62 69 199.5 121.5t249.5 52.5
q230 0 349.5 -113.5t119.5 -309.5v-621zM758 436q-151 30 -254 7t-103 -101q0 -51 48.5 -85t115.5 -34q92 0 142.5 46.5t50.5 131.5v35z" />
    <glyph glyph-name="acircumflex" unicode="&#xe2;" horiz-adv-x="1216" 
d="M752 1188l-127 158l-127 -158h-342l299 350h340l299 -350h-342zM1065 0h-289v137q-39 -76 -123.5 -119t-203.5 -43q-172 0 -277.5 96.5t-105.5 247.5q0 83 36.5 146t100 100.5t148 56.5t180 18t198.5 -19l-2 53q0 48 -42 76t-103 28q-66 0 -135 -28t-119 -74l-181 194
q63 70 202 122t261 52q204 0 329.5 -116.5t125.5 -306.5v-621zM731 436q-330 57 -330 -94q0 -54 36.5 -86.5t101.5 -32.5q92 0 142 46.5t50 131.5v35z" />
    <glyph glyph-name="atilde" unicode="&#xe3;" horiz-adv-x="1146" 
d="M655 1241q-64 35 -94 35q-26 0 -37.5 -19.5t-11.5 -66.5h-248q0 346 223 346q83 0 181 -55q64 -35 94 -35q26 0 37.5 19.5t11.5 66.5h248q0 -346 -223 -346q-83 0 -181 55zM1065 0h-289v137q-39 -76 -123.5 -119t-203.5 -43q-172 0 -277.5 96.5t-105.5 247.5
q0 83 36.5 146t100 100.5t148 56.5t180 18t198.5 -19l-2 53q0 48 -42 76t-103 28q-66 0 -135 -28t-119 -74l-181 194q63 70 202 122t261 52q204 0 329.5 -116.5t125.5 -306.5v-621zM731 436q-330 57 -330 -94q0 -54 36.5 -86.5t101.5 -32.5q92 0 142 46.5t50 131.5v35z" />
    <glyph glyph-name="adieresis" unicode="&#xe4;" horiz-adv-x="1286" 
d="M451 1174q-85 0 -145 59t-60 143q0 83 60 143t145 60q82 0 141 -60t59 -143q0 -84 -59 -143t-141 -59zM963 1174q-85 0 -145 59t-60 143q0 83 60 143t145 60q82 0 141 -60t59 -143q0 -84 -59 -143t-141 -59zM1065 0h-289v137q-39 -76 -123.5 -119t-203.5 -43
q-172 0 -277.5 96.5t-105.5 247.5q0 83 36.5 146t100 100.5t148 56.5t180 18t198.5 -19l-2 53q0 48 -42 76t-103 28q-66 0 -135 -28t-119 -74l-181 194q63 70 202 122t261 52q204 0 329.5 -116.5t125.5 -306.5v-621zM731 436q-330 57 -330 -94q0 -54 36.5 -86.5t101.5 -32.5
q92 0 142 46.5t50 131.5v35z" />
    <glyph glyph-name="aring" unicode="&#xe5;" horiz-adv-x="1310" 
d="M610 1159q-132 0 -222.5 85t-90.5 206t90.5 206t222.5 85q133 0 223.5 -85t90.5 -206t-90.5 -206t-223.5 -85zM610 1552q-49 0 -75.5 -27t-26.5 -75t26.5 -75t75.5 -27t76 27t27 75t-27 75t-76 27zM1065 0h-289v137q-39 -76 -123.5 -119t-203.5 -43q-172 0 -277.5 96.5
t-105.5 247.5q0 83 36.5 146t100 100.5t148 56.5t180 18t198.5 -19l-2 53q0 48 -42 76t-103 28q-66 0 -135 -28t-119 -74l-181 194q63 70 202 122t261 52q204 0 329.5 -116.5t125.5 -306.5v-621zM731 436q-330 57 -330 -94q0 -54 36.5 -86.5t101.5 -32.5q92 0 142 46.5
t50 131.5v35z" />
    <glyph glyph-name="ae" unicode="&#xe6;" horiz-adv-x="1906" 
d="M1290 1044q287 0 434.5 -164t114.5 -456h-762q0 -72 74 -119t168 -47q91 0 172.5 25.5t124.5 66.5l186 -205q-66 -75 -202 -120t-295 -45q-140 0 -253.5 44.5t-189.5 127.5q-169 -177 -413 -177q-172 0 -277.5 96.5t-105.5 247.5q0 83 36.5 146t100 100.5t148 56.5
t180 18t198.5 -19l-2 53q0 48 -42 76t-103 28q-66 0 -135 -28t-119 -74l-181 194q63 70 202 122t261 52q200 0 320 -108q148 108 360 108zM1073 633h428q0 66 -56.5 113t-154.5 47q-86 0 -151.5 -52.5t-65.5 -107.5zM731 401v35q-330 57 -330 -94q0 -54 36.5 -86.5
t101.5 -32.5q92 0 142 46.5t50 131.5z" />
    <glyph glyph-name="ccedilla" unicode="&#xe7;" horiz-adv-x="1112" 
d="M631 283q129 0 209 114l252 -178q-104 -184 -334 -233l-105 -398h-350l160 402q-183 44 -290 187.5t-107 346.5q0 246 152 399.5t400 153.5q159 0 283.5 -65.5t190.5 -182.5l-252 -178q-80 115 -209 115q-98 0 -157.5 -66t-59.5 -176t59.5 -175.5t157.5 -65.5z" />
    <glyph glyph-name="egrave" unicode="&#xe8;" horiz-adv-x="1239" 
d="M510 1188l-301 350h399l232 -350h-330zM410 424q0 -72 73.5 -119t167.5 -47q91 0 172.5 25.5t124.5 66.5l187 -205q-66 -75 -202.5 -120t-295.5 -45q-260 0 -418 147.5t-158 390.5q0 235 157 380.5t405 145.5q287 0 434 -164t114 -456h-761zM623 793q-86 0 -151.5 -52.5
t-65.5 -107.5h428q0 66 -56.5 113t-154.5 47z" />
    <glyph glyph-name="eacute" unicode="&#xe9;" horiz-adv-x="1239" 
d="M758 1188h-330l231 350h338zM410 424q0 -72 73.5 -119t167.5 -47q91 0 172.5 25.5t124.5 66.5l187 -205q-66 -75 -202.5 -120t-295.5 -45q-260 0 -418 147.5t-158 390.5q0 235 157 380.5t405 145.5q287 0 434 -164t114 -456h-761zM623 793q-86 0 -151.5 -52.5
t-65.5 -107.5h428q0 66 -56.5 113t-154.5 47z" />
    <glyph glyph-name="ecircumflex" unicode="&#xea;" horiz-adv-x="1239" 
d="M741 1188l-127 158l-127 -158h-342l299 350h340l299 -350h-342zM410 424q0 -72 73.5 -119t167.5 -47q91 0 172.5 25.5t124.5 66.5l187 -205q-66 -75 -202.5 -120t-295.5 -45q-260 0 -418 147.5t-158 390.5q0 235 157 380.5t405 145.5q287 0 434 -164t114 -456h-761z
M623 793q-86 0 -151.5 -52.5t-65.5 -107.5h428q0 66 -56.5 113t-154.5 47z" />
    <glyph glyph-name="edieresis" unicode="&#xeb;" horiz-adv-x="1239" 
d="M358 1174q-85 0 -144.5 58.5t-59.5 143.5q0 84 60 143.5t144 59.5q82 0 141.5 -60t59.5 -143q0 -84 -59.5 -143t-141.5 -59zM870 1174q-85 0 -144.5 58.5t-59.5 143.5q0 84 60 143.5t144 59.5q82 0 141.5 -60t59.5 -143q0 -84 -59.5 -143t-141.5 -59zM410 424
q0 -72 73.5 -119t167.5 -47q91 0 172.5 25.5t124.5 66.5l187 -205q-66 -75 -202.5 -120t-295.5 -45q-260 0 -418 147.5t-158 390.5q0 235 157 380.5t405 145.5q287 0 434 -164t114 -456h-761zM623 793q-86 0 -151.5 -52.5t-65.5 -107.5h428q0 66 -56.5 113t-154.5 47z" />
    <glyph glyph-name="igrave" unicode="&#xec;" horiz-adv-x="585" 
d="M-115 1538h338l232 -350h-330zM121 1024h344v-1024h-344v1024z" />
    <glyph glyph-name="iacute" unicode="&#xed;" horiz-adv-x="585" 
d="M455 1188h-330l231 350h338zM121 1024h344v-1024h-344v1024z" />
    <glyph glyph-name="icircumflex" unicode="&#xee;" horiz-adv-x="585" 
d="M682 1188h-303l-86 160l-86 -160h-303l229 350h320zM121 1024h344v-1024h-344v1024z" />
    <glyph glyph-name="idieresis" unicode="&#xef;" horiz-adv-x="585" 
d="M96 1194q-76 0 -122 47.5t-46 130.5t46 130.5t122 47.5t122 -47.5t46 -130.5t-46 -130.5t-122 -47.5zM489 1194q-76 0 -121.5 47t-45.5 131t45.5 131t121.5 47t122 -47.5t46 -130.5t-46.5 -130.5t-121.5 -47.5zM121 1024h344v-1024h-344v1024z" />
    <glyph glyph-name="ntilde" unicode="&#xf1;" horiz-adv-x="1241" 
d="M618 1241q-64 35 -94 35q-26 0 -37.5 -19.5t-11.5 -66.5h-248q0 346 224 346q46 0 84.5 -12.5t95.5 -42.5q64 -35 94 -35q26 0 37.5 19.5t11.5 66.5h248q0 -346 -223 -346q-46 0 -85 13t-96 42zM776 1053q148 0 251 -103.5t103 -251.5v-698h-344v578q0 67 -46.5 114
t-114.5 49q-68 0 -116 -48t-48 -115l2 -578h-344v1024h336v-141q43 76 131.5 123t189.5 47z" />
    <glyph glyph-name="ograve" unicode="&#xf2;" horiz-adv-x="1269" 
d="M530 1188l-239 350h338l231 -350h-330zM631 -29q-169 0 -300 75t-200.5 200t-69.5 278q0 114 40.5 215t113.5 176t183 118.5t241 43.5q132 0 239 -43.5t177 -119t107.5 -175.5t37.5 -215t-38.5 -215.5t-109.5 -175.5t-180 -118.5t-241 -43.5zM631 279q106 0 163.5 69.5
t57.5 175.5q0 108 -54 177t-159 69t-167 -70.5t-62 -175.5q0 -108 56 -176.5t165 -68.5z" />
    <glyph glyph-name="oacute" unicode="&#xf3;" horiz-adv-x="1269" 
d="M743 1188h-329l231 350h338zM631 -29q-169 0 -300 75t-200.5 200t-69.5 278q0 114 40.5 215t113.5 176t183 118.5t241 43.5q132 0 239 -43.5t177 -119t107.5 -175.5t37.5 -215t-38.5 -215.5t-109.5 -175.5t-180 -118.5t-241 -43.5zM631 279q106 0 163.5 69.5t57.5 175.5
q0 108 -54 177t-159 69t-167 -70.5t-62 -175.5q0 -108 56 -176.5t165 -68.5z" />
    <glyph glyph-name="ocircumflex" unicode="&#xf4;" horiz-adv-x="1269" 
d="M762 1188l-127 158l-127 -158h-342l299 350h340l299 -350h-342zM631 -29q-169 0 -300 75t-200.5 200t-69.5 278q0 114 40.5 215t113.5 176t183 118.5t241 43.5q132 0 239 -43.5t177 -119t107.5 -175.5t37.5 -215t-38.5 -215.5t-109.5 -175.5t-180 -118.5t-241 -43.5z
M631 279q106 0 163.5 69.5t57.5 175.5q0 108 -54 177t-159 69t-167 -70.5t-62 -175.5q0 -108 56 -176.5t165 -68.5z" />
    <glyph glyph-name="otilde" unicode="&#xf5;" horiz-adv-x="1269" 
d="M809 1186q-46 0 -84.5 12.5t-95.5 42.5q-64 35 -94 35q-27 0 -38.5 -19.5t-11.5 -66.5h-247q0 346 223 346q46 0 84.5 -12.5t95.5 -42.5q64 -35 94 -35q26 0 37.5 19.5t11.5 66.5h248q0 -346 -223 -346zM635 -29q-126 0 -233 42.5t-180.5 116.5t-114.5 176t-41 218
t41 218t114.5 176t180.5 116.5t233 42.5t233 -42.5t180.5 -116.5t114.5 -176t41 -218t-41 -218t-114.5 -176t-180.5 -116.5t-233 -42.5zM635 279q102 0 161.5 66t59.5 179t-59.5 179.5t-161.5 66.5t-161.5 -66.5t-59.5 -179.5t59.5 -179t161.5 -66z" />
    <glyph glyph-name="odieresis" unicode="&#xf6;" horiz-adv-x="1269" 
d="M174 1376q0 83 60 143t145 60q82 0 141.5 -60t59.5 -143q0 -84 -59.5 -143t-141.5 -59q-85 0 -145 59t-60 143zM686 1376q0 83 60 143t145 60q82 0 141.5 -60t59.5 -143q0 -84 -59.5 -143t-141.5 -59q-85 0 -145 59t-60 143zM631 -29q-169 0 -300 75t-200.5 200
t-69.5 278q0 114 40.5 215t113.5 176t183 118.5t241 43.5q132 0 239 -43.5t177 -119t107.5 -175.5t37.5 -215t-38.5 -215.5t-109.5 -175.5t-180 -118.5t-241 -43.5zM631 279q106 0 163.5 69.5t57.5 175.5q0 108 -54 177t-159 69t-167 -70.5t-62 -175.5q0 -108 56 -176.5
t165 -68.5z" />
    <glyph glyph-name="divide" unicode="&#xf7;" horiz-adv-x="1454" 
d="M733 881q-82 0 -138 56t-56 138t56.5 139.5t137.5 57.5q82 0 138.5 -57.5t56.5 -139.5t-56.5 -138t-138.5 -56zM256 803h942v-307h-942v307zM733 33q-82 0 -138 56t-56 138t56.5 139.5t137.5 57.5q82 0 138.5 -57.5t56.5 -139.5t-56.5 -138t-138.5 -56z" />
    <glyph glyph-name="oslash" unicode="&#xf8;" horiz-adv-x="1277" 
d="M1114 846q94 -137 94 -322q0 -116 -41 -218t-114.5 -176t-180.5 -116.5t-233 -42.5q-177 0 -317 82l-121 -121l-154 154l117 117q-94 137 -94 321q0 116 41 218t114.5 176t180.5 116.5t233 42.5q177 0 317 -82l121 121l154 -153zM639 791q-112 0 -176 -72.5t-64 -194.5
q0 -56 15 -100l340 340q-47 27 -115 27zM639 258q112 0 176 72t64 194q0 51 -13 101l-342 -342q52 -25 115 -25z" />
    <glyph glyph-name="ugrave" unicode="&#xf9;" horiz-adv-x="1224" 
d="M506 1188l-240 350h338l232 -350h-330zM1114 1024v-1024h-336v141q-43 -76 -131.5 -123t-189.5 -47q-148 0 -251.5 103.5t-103.5 251.5v698h344v-578q0 -67 47 -114t115 -49q68 0 116 48t48 115l-2 578h344z" />
    <glyph glyph-name="uacute" unicode="&#xfa;" horiz-adv-x="1224" 
d="M719 1188h-330l232 350h337zM1114 1024v-1024h-336v141q-43 -76 -131.5 -123t-189.5 -47q-148 0 -251.5 103.5t-103.5 251.5v698h344v-578q0 -67 47 -114t115 -49q68 0 116 48t48 115l-2 578h344z" />
    <glyph glyph-name="ucircumflex" unicode="&#xfb;" horiz-adv-x="1224" 
d="M483 1188h-342l299 350h340l299 -350h-342l-127 158zM1114 1024v-1024h-336v141q-43 -76 -131.5 -123t-189.5 -47q-148 0 -251.5 103.5t-103.5 251.5v698h344v-578q0 -67 47 -114t115 -49q68 0 116 48t48 115l-2 578h344z" />
    <glyph glyph-name="udieresis" unicode="&#xfc;" horiz-adv-x="1224" 
d="M150 1376q0 84 60 143.5t144 59.5q82 0 141.5 -60t59.5 -143q0 -84 -59.5 -143t-141.5 -59q-85 0 -144.5 58.5t-59.5 143.5zM662 1376q0 84 60 143.5t144 59.5q82 0 141.5 -60t59.5 -143q0 -84 -59.5 -143t-141.5 -59q-85 0 -144.5 58.5t-59.5 143.5zM1114 1024v-1024
h-336v141q-43 -76 -131.5 -123t-189.5 -47q-148 0 -251.5 103.5t-103.5 251.5v698h344v-578q0 -67 47 -114t115 -49q68 0 116 48t48 115l-2 578h344z" />
    <glyph glyph-name="yacute" unicode="&#xfd;" horiz-adv-x="1161" 
d="M690 1188h-330l232 350h338zM1149 1024l-432 -1147q-58 -155 -160.5 -221t-280.5 -66h-239v308h178q97 0 135.5 19.5t57.5 76.5l8 24l-404 1006h369l209 -610l190 610h369z" />
    <glyph glyph-name="thorn" unicode="&#xfe;" horiz-adv-x="1306" 
d="M774 1044q232 0 349.5 -142.5t117.5 -399.5q0 -238 -122.5 -380t-348.5 -142q-67 0 -127 18.5t-98 45t-61.5 53t-28.5 46.5v-493h-336v1784h309v-560q39 77 136.5 123.5t209.5 46.5zM684 266q93 0 151 65.5t58 170.5q0 110 -59.5 176.5t-159.5 66.5q-97 0 -158 -67.5
t-61 -175.5q0 -106 62.5 -171t166.5 -65z" />
    <glyph glyph-name="ydieresis" unicode="&#xff;" horiz-adv-x="1161" 
d="M326 1174q-85 0 -145 59t-60 143q0 83 60 143t145 60q82 0 141 -60t59 -143q0 -84 -59 -143t-141 -59zM838 1174q-85 0 -145 59t-60 143q0 83 60 143t145 60q82 0 141 -60t59 -143q0 -84 -59 -143t-141 -59zM1149 1049l-432 -1172q-57 -154 -160 -220.5t-281 -66.5h-239
v308h178q97 0 135.5 19.5t57.5 76.5l8 24l-404 1031h369l209 -635l190 635h369z" />
    <glyph glyph-name="Amacron" unicode="&#x100;" horiz-adv-x="1478" 
d="M1114 1589h-708v266h708v-266zM1008 225h-539l-78 -225h-379l527 1434h379l548 -1434h-379zM899 532l-160 560l-159 -560h319z" />
    <glyph glyph-name="amacron" unicode="&#x101;" horiz-adv-x="1146" 
d="M1014 1204h-709v266h709v-266zM1065 0h-289v137q-39 -76 -123.5 -119t-203.5 -43q-172 0 -277.5 96.5t-105.5 247.5q0 83 36.5 146t100 100.5t148 56.5t180 18t198.5 -19l-2 53q0 48 -42 76t-103 28q-66 0 -135 -28t-119 -74l-181 194q63 70 202 122t261 52
q204 0 329.5 -116.5t125.5 -306.5v-621zM731 436q-330 57 -330 -94q0 -54 36.5 -86.5t101.5 -32.5q92 0 142 46.5t50 131.5v35z" />
    <glyph glyph-name="Abreve" unicode="&#x102;" horiz-adv-x="1478" 
d="M760 1556q-172 0 -277.5 90t-105.5 238v25h268q0 -63 31.5 -101.5t83.5 -38.5t83 38.5t31 101.5h269v-25q0 -148 -105.5 -238t-277.5 -90zM1008 225h-539l-78 -225h-379l527 1434h379l548 -1434h-379zM899 532l-160 560l-159 -560h319z" />
    <glyph glyph-name="abreve" unicode="&#x103;" horiz-adv-x="1284" 
d="M621 1171q-172 0 -277.5 90t-105.5 238v25h268q0 -63 31.5 -101.5t83.5 -38.5t83 38.5t31 101.5h269v-25q0 -148 -105.5 -238t-277.5 -90zM1065 0h-289v137q-39 -76 -123.5 -119t-203.5 -43q-172 0 -277.5 96.5t-105.5 247.5q0 83 36.5 146t100 100.5t148 56.5t180 18
t198.5 -19l-2 53q0 48 -42 76t-103 28q-66 0 -135 -28t-119 -74l-181 194q63 70 202 122t261 52q204 0 329.5 -116.5t125.5 -306.5v-621zM731 436q-330 57 -330 -94q0 -54 36.5 -86.5t101.5 -32.5q92 0 142 46.5t50 131.5v35z" />
    <glyph glyph-name="Aogonek" unicode="&#x104;" horiz-adv-x="1478" 
d="M1442 0q-89 -59 -125.5 -94t-36.5 -60q0 -43 92 -43h70v-241h-137q-145 0 -224.5 54.5t-79.5 147.5q0 65 38 127.5t108 108.5h-60l-79 225h-539l-78 -225h-379l527 1434h379l548 -1434h-24zM580 532h319l-160 560z" />
    <glyph glyph-name="aogonek" unicode="&#x105;" horiz-adv-x="1187" 
d="M1065 0q-89 -59 -125.5 -94t-36.5 -60q0 -43 92 -43h70v-241h-137q-145 0 -224 54.5t-79 147.5q0 65 39 128.5t112 111.5v133q-39 -76 -123.5 -119t-203.5 -43q-172 0 -277.5 96.5t-105.5 247.5q0 83 36.5 146t100 100.5t148 56.5t180 18t198.5 -19l-2 53q0 48 -42 76
t-103 28q-66 0 -135 -28t-119 -74l-181 194q63 70 202 122t261 52q204 0 329.5 -116.5t125.5 -306.5v-621zM731 401v35q-330 57 -330 -94q0 -54 36.5 -86.5t101.5 -32.5q92 0 142 46.5t50 131.5z" />
    <glyph glyph-name="Cacute" unicode="&#x106;" horiz-adv-x="1495" 
d="M973 1573h-330l231 350h338zM840 -29q-183 0 -329.5 58.5t-239 160.5t-141 235.5t-48.5 289.5q0 155 50.5 290t144.5 236.5t239 160t324 58.5q199 0 358 -94t258 -266l-289 -172q-50 91 -137 144.5t-190 53.5q-181 0 -284 -117t-103 -294q0 -116 42 -207.5t131 -148
t214 -56.5q104 0 192.5 55.5t138.5 147.5l285 -180q-89 -176 -250 -265.5t-366 -89.5z" />
    <glyph glyph-name="cacute" unicode="&#x107;" horiz-adv-x="1112" 
d="M723 1188h-330l232 350h338zM618 -29q-248 0 -400 153.5t-152 399.5t152 399.5t400 153.5q159 0 283.5 -65.5t190.5 -182.5l-252 -178q-80 115 -209 115q-98 0 -157.5 -66t-59.5 -176t59.5 -175.5t157.5 -65.5q129 0 209 114l252 -178q-66 -117 -190.5 -182.5
t-283.5 -65.5z" />
    <glyph glyph-name="Ccircumflex" unicode="&#x108;" horiz-adv-x="1495" 
d="M692 1573h-342l299 350h340l299 -350h-342l-127 158zM840 -29q-183 0 -329.5 58.5t-239 160.5t-141 235.5t-48.5 289.5q0 155 50.5 290t144.5 236.5t239 160t324 58.5q199 0 358 -94t258 -266l-289 -172q-50 91 -137 144.5t-190 53.5q-181 0 -284 -117t-103 -294
q0 -116 42 -207.5t131 -148t214 -56.5q104 0 192.5 55.5t138.5 147.5l285 -180q-89 -176 -250 -265.5t-366 -89.5z" />
    <glyph glyph-name="ccircumflex" unicode="&#x109;" horiz-adv-x="1112" 
d="M489 1188h-342l299 350h340l299 -350h-342l-127 158zM618 -29q-248 0 -400 153.5t-152 399.5t152 399.5t400 153.5q159 0 283.5 -65.5t190.5 -182.5l-252 -178q-80 115 -209 115q-98 0 -157.5 -66t-59.5 -176t59.5 -175.5t157.5 -65.5q129 0 209 114l252 -178
q-66 -117 -190.5 -182.5t-283.5 -65.5z" />
    <glyph glyph-name="Cdotaccent" unicode="&#x10a;" horiz-adv-x="1495" 
d="M819 1559q-85 0 -145 59t-60 143q0 83 60 143t145 60q82 0 141.5 -60t59.5 -143q0 -84 -59.5 -143t-141.5 -59zM840 -29q-183 0 -329.5 58.5t-239 160.5t-141 235.5t-48.5 289.5q0 155 50.5 290t144.5 236.5t239 160t324 58.5q199 0 358 -94t258 -266l-289 -172
q-50 91 -137 144.5t-190 53.5q-181 0 -284 -117t-103 -294q0 -116 42 -207.5t131 -148t214 -56.5q104 0 192.5 55.5t138.5 147.5l285 -180q-89 -176 -250 -265.5t-366 -89.5z" />
    <glyph glyph-name="cdotaccent" unicode="&#x10b;" horiz-adv-x="1112" 
d="M616 1174q-85 0 -144.5 58.5t-59.5 143.5q0 84 60 143.5t144 59.5q82 0 141.5 -60t59.5 -143q0 -84 -59.5 -143t-141.5 -59zM618 -29q-248 0 -400 153.5t-152 399.5t152 399.5t400 153.5q159 0 283.5 -65.5t190.5 -182.5l-252 -178q-80 115 -209 115q-98 0 -157.5 -66
t-59.5 -176t59.5 -175.5t157.5 -65.5q129 0 209 114l252 -178q-66 -117 -190.5 -182.5t-283.5 -65.5z" />
    <glyph glyph-name="Ccaron" unicode="&#x10c;" horiz-adv-x="1495" 
d="M649 1573l-299 350h342l127 -158l127 158h342l-299 -350h-340zM840 -29q-183 0 -329.5 58.5t-239 160.5t-141 235.5t-48.5 289.5q0 155 50.5 290t144.5 236.5t239 160t324 58.5q199 0 358 -94t258 -266l-289 -172q-50 91 -137 144.5t-190 53.5q-181 0 -284 -117
t-103 -294q0 -116 42 -207.5t131 -148t214 -56.5q104 0 192.5 55.5t138.5 147.5l285 -180q-89 -176 -250 -265.5t-366 -89.5z" />
    <glyph glyph-name="ccaron" unicode="&#x10d;" horiz-adv-x="1112" 
d="M446 1188l-299 350h342l127 -158l127 158h342l-299 -350h-340zM618 -29q-248 0 -400 153.5t-152 399.5t152 399.5t400 153.5q159 0 283.5 -65.5t190.5 -182.5l-252 -178q-80 115 -209 115q-98 0 -157.5 -66t-59.5 -176t59.5 -175.5t157.5 -65.5q129 0 209 114l252 -178
q-66 -117 -190.5 -182.5t-283.5 -65.5z" />
    <glyph glyph-name="Dcaron" unicode="&#x10e;" horiz-adv-x="1501" 
d="M489 1573l-299 350h342l127 -158l127 158h342l-299 -350h-340zM745 1434q145 0 272 -56.5t215.5 -153.5t139.5 -228.5t51 -278.5t-51 -278.5t-139.5 -228.5t-215.5 -153.5t-272 -56.5h-606v1434h606zM700 330q157 0 253 111.5t96 275.5t-96 275.5t-253 111.5h-206v-774
h206z" />
    <glyph glyph-name="dcaron" unicode="&#x10f;" horiz-adv-x="1513" 
d="M1563 1499v-440h-263v440h263zM1188 1495v-1495h-309v150q-40 -81 -118.5 -125.5t-185.5 -44.5q-237 0 -373 144t-136 390q0 241 132 385.5t361 144.5q117 0 199 -57t94 -106v614h336zM633 279q98 0 158.5 67.5t60.5 177.5t-60.5 178t-158.5 68t-158.5 -68t-60.5 -178
t60.5 -177.5t158.5 -67.5z" />
    <glyph glyph-name="Dcroat" unicode="&#x110;" horiz-adv-x="1562" 
d="M776 1434q156 0 286.5 -49.5t224 -140.5t146 -226t52.5 -301t-52.5 -301t-146 -226t-224 -140.5t-286.5 -49.5h-575v575h-176v283h176v576h575zM776 330q336 0 336 387t-336 387h-219v-246h270v-283h-270v-245h219z" />
    <glyph glyph-name="dcroat" unicode="&#x111;" horiz-adv-x="1306" 
d="M1364 1356v-266h-176v-1090h-309v150q-40 -81 -118.5 -125.5t-185.5 -44.5q-237 0 -373 144t-136 390q0 241 132 385.5t361 144.5q117 0 199 -57t94 -106v209h-197v266h197v139h336v-139h176zM633 279q98 0 158.5 67.5t60.5 177.5t-60.5 178t-158.5 68t-158.5 -68
t-60.5 -178t60.5 -177.5t158.5 -67.5z" />
    <glyph glyph-name="Emacron" unicode="&#x112;" horiz-adv-x="1310" 
d="M303 1855h709v-266h-709v266zM1217 322v-322h-1078v1434h1057v-322h-702v-252h649v-317h-649v-221h723z" />
    <glyph glyph-name="emacron" unicode="&#x113;" horiz-adv-x="1239" 
d="M260 1470h709v-266h-709v266zM410 424q0 -72 73.5 -119t167.5 -47q91 0 172.5 25.5t124.5 66.5l187 -205q-66 -75 -202.5 -120t-295.5 -45q-260 0 -418 147.5t-158 390.5q0 235 157 380.5t405 145.5q287 0 434 -164t114 -456h-761zM623 793q-86 0 -151.5 -52.5
t-65.5 -107.5h428q0 66 -56.5 113t-154.5 47z" />
    <glyph glyph-name="Ebreve" unicode="&#x114;" horiz-adv-x="1310" 
d="M274 1909h269q0 -63 31 -101.5t83 -38.5t83.5 38.5t31.5 101.5h268q0 -158 -105.5 -255.5t-277.5 -97.5t-277.5 97.5t-105.5 255.5zM1217 322v-322h-1078v1434h1057v-322h-702v-252h649v-317h-649v-221h723z" />
    <glyph glyph-name="ebreve" unicode="&#x115;" horiz-adv-x="1239" 
d="M231 1524h269q0 -63 31 -101.5t83 -38.5t83.5 38.5t31.5 101.5h268q0 -158 -105.5 -255.5t-277.5 -97.5t-277.5 97.5t-105.5 255.5zM410 424q0 -72 73.5 -119t167.5 -47q91 0 172.5 25.5t124.5 66.5l187 -205q-66 -75 -202.5 -120t-295.5 -45q-260 0 -418 147.5
t-158 390.5q0 235 157 380.5t405 145.5q287 0 434 -164t114 -456h-761zM623 793q-86 0 -151.5 -52.5t-65.5 -107.5h428q0 66 -56.5 113t-154.5 47z" />
    <glyph glyph-name="Edotaccent" unicode="&#x116;" horiz-adv-x="1310" 
d="M449 1757q0 90 57 144.5t151 54.5t151.5 -54.5t57.5 -144.5t-57.5 -144t-151.5 -54t-151 54t-57 144zM1217 322v-322h-1078v1434h1057v-322h-702v-252h649v-317h-649v-221h723z" />
    <glyph glyph-name="edotaccent" unicode="&#x117;" horiz-adv-x="1239" 
d="M406 1372q0 90 57 144.5t151 54.5t151.5 -54.5t57.5 -144.5t-57.5 -144t-151.5 -54t-151 54t-57 144zM410 424q0 -72 73.5 -119t167.5 -47q91 0 172.5 25.5t124.5 66.5l187 -205q-66 -75 -202.5 -120t-295.5 -45q-260 0 -418 147.5t-158 390.5q0 235 157 380.5t405 145.5
q287 0 434 -164t114 -456h-761zM623 793q-86 0 -151.5 -52.5t-65.5 -107.5h428q0 66 -56.5 113t-154.5 47z" />
    <glyph glyph-name="Eogonek" unicode="&#x118;" horiz-adv-x="1310" 
d="M1217 0q-89 -59 -125.5 -94t-36.5 -60q0 -29 33 -36t129 -7v-241q-241 0 -341 42.5t-100 159.5q0 65 38 127.5t108 108.5h-783v1434h1057v-322h-702v-252h649v-317h-649v-221h723v-322z" />
    <glyph glyph-name="eogonek" unicode="&#x119;" horiz-adv-x="1191" 
d="M651 258q91 0 172.5 25.5t124.5 66.5l187 -205q-85 -98 -291 -145q-37 -34 -37 -59q0 -43 92 -43h70v-242h-138q-145 0 -224 55t-79 148q0 64 37 125q-42 4 -61 8q-204 35 -323.5 176t-119.5 350q0 235 157 380.5t405 145.5q287 0 434 -164t114 -456h-761
q0 -72 73.5 -119t167.5 -47zM623 793q-86 0 -151.5 -52.5t-65.5 -107.5h428q0 66 -56.5 113t-154.5 47z" />
    <glyph glyph-name="Ecaron" unicode="&#x11a;" horiz-adv-x="1310" 
d="M1126 1923l-299 -350h-340l-299 350h342l127 -158l127 158h342zM1217 322v-322h-1078v1434h1057v-322h-702v-252h649v-317h-649v-221h723z" />
    <glyph glyph-name="ecaron" unicode="&#x11b;" horiz-adv-x="1239" 
d="M1083 1538l-299 -350h-340l-299 350h342l127 -158l127 158h342zM410 424q0 -72 73.5 -119t167.5 -47q91 0 172.5 25.5t124.5 66.5l187 -205q-66 -75 -202.5 -120t-295.5 -45q-260 0 -418 147.5t-158 390.5q0 235 157 380.5t405 145.5q287 0 434 -164t114 -456h-761z
M623 793q-86 0 -151.5 -52.5t-65.5 -107.5h428q0 66 -56.5 113t-154.5 47z" />
    <glyph glyph-name="Gcircumflex" unicode="&#x11c;" horiz-adv-x="1554" 
d="M688 1573h-342l299 350h340l299 -350h-342l-127 158zM1462 842l-2 -555q-102 -148 -265.5 -232t-356.5 -84q-184 0 -330 58t-238 159.5t-140 235t-48 289.5t50.5 291.5t144 237t238.5 160t323 58.5q173 0 325.5 -73.5t259.5 -200.5l-290 -205q-56 68 -132 106.5
t-163 38.5q-181 0 -284 -117t-103 -296q0 -177 101.5 -293.5t285.5 -116.5q201 0 299 125v123h-279v291h604z" />
    <glyph glyph-name="gcircumflex" unicode="&#x11d;" horiz-adv-x="1308" 
d="M535 1188h-342l299 350h339l299 -350h-342l-126 158zM1190 1024v-901q0 -252 -163.5 -406.5t-430.5 -154.5q-143 0 -281 43.5t-223 115.5l148 248q70 -49 161 -78.5t170 -29.5q293 0 293 297v16q-36 -69 -133.5 -112.5t-202.5 -43.5q-209 0 -335.5 146.5t-126.5 384.5
q0 223 126.5 359t335.5 136q107 0 194 -32t122 -84v96h346zM635 313q100 0 160.5 65t60.5 171t-60.5 170.5t-160.5 64.5t-160.5 -64.5t-60.5 -170.5t60.5 -171t160.5 -65z" />
    <glyph glyph-name="Gbreve" unicode="&#x11e;" horiz-adv-x="1554" 
d="M815 1556q-172 0 -277.5 90t-105.5 238v25h268q0 -63 31.5 -101.5t83.5 -38.5t83.5 38.5t31.5 101.5h268v-25q0 -148 -105.5 -238t-277.5 -90zM1462 842l-2 -555q-102 -148 -265.5 -232t-356.5 -84q-184 0 -330 58t-238 159.5t-140 235t-48 289.5t50.5 291.5t144 237
t238.5 160t323 58.5q173 0 325.5 -73.5t259.5 -200.5l-290 -205q-56 68 -132 106.5t-163 38.5q-181 0 -284 -117t-103 -296q0 -177 101.5 -293.5t285.5 -116.5q201 0 299 125v123h-279v291h604z" />
    <glyph glyph-name="gbreve" unicode="&#x11f;" horiz-adv-x="1308" 
d="M279 1524h268q0 -63 31.5 -101.5t83.5 -38.5t83 38.5t31 101.5h268v-25q0 -148 -105 -238t-277 -90t-277.5 90t-105.5 238v25zM1190 1024v-901q0 -252 -163.5 -406.5t-430.5 -154.5q-143 0 -281 43.5t-223 115.5l148 248q70 -49 161 -78.5t170 -29.5q293 0 293 297v16
q-36 -69 -133.5 -112.5t-202.5 -43.5q-209 0 -335.5 146.5t-126.5 384.5q0 223 126.5 359t335.5 136q107 0 194 -32t122 -84v96h346zM635 313q100 0 160.5 65t60.5 171t-60.5 170.5t-160.5 64.5t-160.5 -64.5t-60.5 -170.5t60.5 -171t160.5 -65z" />
    <glyph glyph-name="Gdotaccent" unicode="&#x120;" horiz-adv-x="1554" 
d="M815 1559q-94 0 -151.5 54t-57.5 144t57.5 144.5t151.5 54.5t151.5 -54.5t57.5 -144.5t-57.5 -144t-151.5 -54zM1462 842l-2 -555q-102 -148 -265.5 -232t-356.5 -84q-184 0 -330 58t-238 159.5t-140 235t-48 289.5t50.5 291.5t144 237t238.5 160t323 58.5
q173 0 325.5 -73.5t259.5 -200.5l-290 -205q-56 68 -132 106.5t-163 38.5q-181 0 -284 -117t-103 -296q0 -177 101.5 -293.5t285.5 -116.5q201 0 299 125v123h-279v291h604z" />
    <glyph glyph-name="gdotaccent" unicode="&#x121;" horiz-adv-x="1308" 
d="M457 1376q0 83 60 143t145 60q82 0 141 -60t59 -143q0 -84 -59 -143t-141 -59q-85 0 -145 59t-60 143zM1190 1024v-901q0 -252 -163.5 -406.5t-430.5 -154.5q-143 0 -281 43.5t-223 115.5l148 248q70 -49 161 -78.5t170 -29.5q293 0 293 297v16q-36 -69 -133.5 -112.5
t-202.5 -43.5q-209 0 -335.5 146.5t-126.5 384.5q0 223 126.5 359t335.5 136q107 0 194 -32t122 -84v96h346zM635 313q100 0 160.5 65t60.5 171t-60.5 170.5t-160.5 64.5t-160.5 -64.5t-60.5 -170.5t60.5 -171t160.5 -65z" />
    <glyph glyph-name="uni0122" unicode="&#x122;" horiz-adv-x="1554" 
d="M1462 842l-2 -555q-102 -148 -265.5 -232t-356.5 -84q-184 0 -330 58t-238 159.5t-140 235t-48 289.5t50.5 291.5t144 237t238.5 160t323 58.5q173 0 325.5 -73.5t259.5 -200.5l-290 -205q-56 68 -132 106.5t-163 38.5q-181 0 -284 -117t-103 -296q0 -177 101.5 -293.5
t285.5 -116.5q201 0 299 125v123h-279v291h604zM674 -160h340l-156 -391h-266z" />
    <glyph glyph-name="uni0123" unicode="&#x123;" horiz-adv-x="1308" 
d="M811 1188h-330l232 350h338zM1190 1024v-901q0 -252 -163.5 -406.5t-430.5 -154.5q-143 0 -281 43.5t-223 115.5l148 248q70 -49 161 -78.5t170 -29.5q293 0 293 297v16q-36 -69 -133.5 -112.5t-202.5 -43.5q-209 0 -335.5 146.5t-126.5 384.5q0 223 126.5 359t335.5 136
q107 0 194 -32t122 -84v96h346zM635 313q100 0 160.5 65t60.5 171t-60.5 170.5t-160.5 64.5t-160.5 -64.5t-60.5 -170.5t60.5 -171t160.5 -65z" />
    <glyph glyph-name="Hcircumflex" unicode="&#x124;" horiz-adv-x="1544" 
d="M899 1573l-127 158l-127 -158h-342l299 350h340l299 -350h-342zM1405 1434v-1434h-356v522h-553v-522h-357v1434h357v-582h553v582h356z" />
    <glyph glyph-name="hcircumflex" unicode="&#x125;" horiz-adv-x="1241" 
d="M418 1638l-127 158l-127 -158h-342l299 351h340l299 -351h-342zM776 1044q160 0 257 -97t97 -255v-692h-344v602q0 73 -41.5 118.5t-109.5 45.5q-77 0 -124.5 -52t-47.5 -136v-578h-344v1495h344v-575q34 57 119.5 90.5t193.5 33.5z" />
    <glyph glyph-name="Hbar" unicode="&#x126;" horiz-adv-x="1617" 
d="M1585 1044h-143v-1044h-357v567h-553v-567h-356v1044h-143v246h143v144h356v-144h553v144h357v-144h143v-246zM1085 1044h-553v-147h553v147z" />
    <glyph glyph-name="hbar" unicode="&#x127;" horiz-adv-x="1241" 
d="M776 1049q165 0 259.5 -101.5t94.5 -283.5v-664h-344v573q0 164 -151 164q-172 0 -172 -188v-549h-344v1151h-135v221h135v127h344v-127h311v-221h-311v-260q45 74 126.5 116t186.5 42z" />
    <glyph glyph-name="Itilde" unicode="&#x128;" horiz-adv-x="643" 
d="M496 1571q-46 0 -85 13t-96 42q-64 35 -94 35q-26 0 -37.5 -19.5t-11.5 -66.5h-248q0 346 223 346q46 0 85 -13t96 -42q64 -35 94 -35q26 0 37.5 19.5t11.5 66.5h248q0 -346 -223 -346zM143 1434h357v-1434h-357v1434z" />
    <glyph glyph-name="itilde" unicode="&#x129;" horiz-adv-x="585" 
d="M287 1241q-64 35 -94 35q-19 0 -27 -18t-8 -68h-215q0 178 43.5 262t132.5 84q46 0 84.5 -12.5t95.5 -42.5q64 -35 94 -35q19 0 27 18t8 68h215q0 -178 -43.5 -262t-132.5 -84q-46 0 -84.5 12.5t-95.5 42.5zM121 1024h344v-1024h-344v1024z" />
    <glyph glyph-name="Imacron" unicode="&#x12a;" horiz-adv-x="643" 
d="M-33 1855h709v-266h-709v266zM143 1434h357v-1434h-357v1434z" />
    <glyph glyph-name="imacron" unicode="&#x12b;" horiz-adv-x="585" 
d="M2 1470h582v-266h-582v266zM121 1024h344v-1024h-344v1024z" />
    <glyph glyph-name="Ibreve" unicode="&#x12c;" horiz-adv-x="643" 
d="M322 1556q-178 0 -280.5 88t-102.5 240v25h268q0 -69 29.5 -104.5t85.5 -35.5q114 0 114 140h269v-25q0 -152 -102.5 -240t-280.5 -88zM143 1434h357v-1434h-357v1434z" />
    <glyph glyph-name="ibreve" unicode="&#x12d;" horiz-adv-x="585" 
d="M293 1171q-156 0 -250 89.5t-94 238.5v25h250q0 -140 94 -140t94 140h250v-25q0 -149 -94 -238.5t-250 -89.5zM121 1024h344v-1024h-344v1024z" />
    <glyph glyph-name="Iogonek" unicode="&#x12e;" horiz-adv-x="643" 
d="M500 0q-89 -59 -125.5 -94t-36.5 -60q0 -43 92 -43h70v-241h-138q-145 0 -224 54.5t-79 147.5q0 65 38 127.5t108 108.5h-62v1434h357v-1434z" />
    <glyph glyph-name="iogonek" unicode="&#x12f;" horiz-adv-x="585" 
d="M293 1571q94 0 151.5 -54.5t57.5 -144.5t-57.5 -144t-151.5 -54t-151.5 54t-57.5 144t57.5 144.5t151.5 54.5zM121 1024h344v-1024q-89 -59 -125.5 -94t-36.5 -60q0 -43 92 -43h70v-241h-137q-145 0 -224 54.5t-79 147.5q0 65 37.5 127.5t107.5 108.5h-49v1024z" />
    <glyph glyph-name="Idotaccent" unicode="&#x130;" horiz-adv-x="643" 
d="M305 1559q-91 0 -147 55t-56 143t56.5 143.5t146.5 55.5t146.5 -55.5t56.5 -143.5t-56 -143t-147 -55zM143 1434h357v-1434h-357v1434z" />
    <glyph glyph-name="dotlessi" unicode="&#x131;" horiz-adv-x="585" 
d="M121 1024h344v-1024h-344v1024z" />
    <glyph glyph-name="ij" unicode="&#x133;" horiz-adv-x="1171" 
d="M293 1174q-94 0 -151.5 54t-57.5 144t57.5 144.5t151.5 54.5t151.5 -54.5t57.5 -144.5t-57.5 -144t-151.5 -54zM879 1174q-94 0 -151.5 54t-57.5 144t57.5 144.5t151.5 54.5t151 -54.5t57 -144.5t-57 -144t-151 -54zM121 1024h344v-1024h-344v1024zM492 -106h122
q50 0 71.5 20.5t21.5 69.5v1040h344v-1106q0 -161 -90 -244.5t-267 -83.5h-202v304z" />
    <glyph glyph-name="Jcircumflex" unicode="&#x134;" horiz-adv-x="1171" 
d="M1001 1573l-127 158l-126 -158h-342l299 350h339l299 -350h-342zM567 -33q-133 0 -252.5 63.5t-194 170.5t-83.5 229l350 111v-47q0 -74 52.5 -126.5t127.5 -52.5q73 0 125.5 52.5t52.5 126.5v940h357v-930q0 -146 -71.5 -269.5t-195 -195.5t-268.5 -72z" />
    <glyph glyph-name="jcircumflex" unicode="&#x135;" horiz-adv-x="585" 
d="M682 1188h-303l-86 160l-86 -160h-303l229 350h320zM121 1024h344v-1106q0 -161 -89.5 -244.5t-266.5 -83.5h-203v304h123q50 0 71 20.5t21 69.5v1040z" />
    <glyph glyph-name="uni0136" unicode="&#x136;" horiz-adv-x="1447" 
d="M1448 1434l-578 -717l578 -717h-440l-379 473l-133 -137v-336h-357v1434h357v-641l522 641h430zM575 -160h340l-155 -391h-266z" />
    <glyph glyph-name="uni0137" unicode="&#x137;" horiz-adv-x="1193" 
d="M791 0l-246 328l-82 -99v-229h-344v1499h344v-876l338 401h397l-395 -475l395 -549h-407zM455 -160h340l-156 -391h-266z" />
    <glyph glyph-name="Lacute" unicode="&#x139;" horiz-adv-x="1196" 
d="M426 1573h-330l232 350h338zM1151 330v-330h-1012v1434h357v-1104h655z" />
    <glyph glyph-name="lacute" unicode="&#x13a;" horiz-adv-x="567" 
d="M440 1638h-329l231 351h338zM111 0v1499h344v-1499h-344z" />
    <glyph glyph-name="uni013B" unicode="&#x13b;" horiz-adv-x="1196" 
d="M1151 330v-330h-1012v1434h357v-1104h655zM455 -160h340l-156 -391h-266z" />
    <glyph glyph-name="uni013C" unicode="&#x13c;" horiz-adv-x="567" 
d="M111 0v1499h344v-1499h-344zM178 -160h340l-156 -391h-266z" />
    <glyph glyph-name="Lcaron" unicode="&#x13d;" horiz-adv-x="1196" 
d="M676 1462h336l-74 -440h-262v440zM1151 330v-330h-1012v1434h357v-1104h655z" />
    <glyph glyph-name="lcaron" unicode="&#x13e;" horiz-adv-x="567" 
d="M111 0v1499h344v-1499h-344zM524 1499h262v-440h-262v440z" />
    <glyph glyph-name="Ldot" unicode="&#x13f;" horiz-adv-x="1208" 
d="M1151 330v-330h-1012v1434h357v-1104h655zM856 518q-98 0 -158.5 60.5t-60.5 158.5t60.5 158.5t158.5 60.5t158.5 -60.5t60.5 -158.5t-60.5 -158.5t-158.5 -60.5z" />
    <glyph glyph-name="ldot" unicode="&#x140;" horiz-adv-x="567" 
d="M111 0v1499h344v-1499h-344zM784 522q-85 0 -144.5 59t-59.5 144q0 83 60 143t144 60q82 0 141.5 -60t59.5 -143q0 -84 -59.5 -143.5t-141.5 -59.5z" />
    <glyph glyph-name="Lslash" unicode="&#x141;" horiz-adv-x="1265" 
d="M1221 330v-330h-1012v467l-197 -102v307l197 102v660h356v-476l416 216v-308l-416 -215v-321h656z" />
    <glyph glyph-name="lslash" unicode="&#x142;" horiz-adv-x="778" 
d="M539 735v-735h-344v547l-179 -96v290l179 97v661h344v-473l206 113v-291z" />
    <glyph glyph-name="Nacute" unicode="&#x143;" horiz-adv-x="1599" 
d="M909 1573h-329l231 350h338zM1460 1434v-1434h-336l-632 854v-854h-353v1434h336l633 -854v854h352z" />
    <glyph glyph-name="nacute" unicode="&#x144;" horiz-adv-x="1241" 
d="M743 1188h-329l231 350h338zM776 1053q148 0 251 -103.5t103 -251.5v-698h-344v578q0 67 -46.5 114t-114.5 49q-68 0 -116 -48t-48 -115l2 -578h-344v1024h336v-141q43 76 131.5 123t189.5 47z" />
    <glyph glyph-name="uni0145" unicode="&#x145;" horiz-adv-x="1599" 
d="M1460 1434v-1434h-336l-632 854v-854h-353v1434h336l633 -854v854h352zM631 -160h340l-156 -391h-266z" />
    <glyph glyph-name="uni0146" unicode="&#x146;" horiz-adv-x="1241" 
d="M776 1053q148 0 251 -103.5t103 -251.5v-698h-344v578q0 67 -46.5 114t-114.5 49q-68 0 -116 -48t-48 -115l2 -578h-344v1024h336v-141q43 76 131.5 123t189.5 47zM451 -160h340l-156 -391h-266z" />
    <glyph glyph-name="Ncaron" unicode="&#x147;" horiz-adv-x="1599" 
d="M631 1573l-299 350h342l127 -158l127 158h342l-299 -350h-340zM1460 1434v-1434h-336l-632 854v-854h-353v1434h336l633 -854v854h352z" />
    <glyph glyph-name="ncaron" unicode="&#x148;" horiz-adv-x="1241" 
d="M1094 1538l-299 -350h-340l-299 350h342l127 -158l127 158h342zM776 1053q148 0 251 -103.5t103 -251.5v-698h-344v578q0 67 -46.5 114t-114.5 49q-68 0 -116 -48t-48 -115l2 -578h-344v1024h336v-141q43 76 131.5 123t189.5 47z" />
    <glyph glyph-name="Eng" unicode="&#x14a;" horiz-adv-x="1599" 
d="M1460 1434v-1495q0 -161 -89.5 -244.5t-266.5 -83.5h-203v303h123q82 0 90 63l2 27l-624 850v-854h-353v1434h336l633 -854v854h352z" />
    <glyph glyph-name="eng" unicode="&#x14b;" horiz-adv-x="1241" 
d="M776 1053q148 0 251 -103.5t103 -251.5v-784q-8 -149 -97.5 -226t-258.5 -77h-203v303h123q50 0 71 20.5t21 69.5v574q0 67 -46.5 114t-114.5 49q-68 0 -116 -48t-48 -115l2 -578h-344v1024h336v-141q43 76 131.5 123t189.5 47z" />
    <glyph glyph-name="Omacron" unicode="&#x14c;" horiz-adv-x="1675" 
d="M483 1855h709v-266h-709v266zM78 715q-3 207 95.5 380t274.5 272t390 95q160 3 302.5 -54.5t243 -158t158 -240t55.5 -294.5q2 -155 -55.5 -294t-158 -239t-243 -157t-302.5 -54q-160 -3 -303 54t-243.5 157t-158 239t-55.5 294zM1225 715q0 181 -107.5 296t-279.5 115
t-279.5 -115t-107.5 -296t107 -294.5t280 -113.5t280 113.5t107 294.5z" />
    <glyph glyph-name="omacron" unicode="&#x14d;" horiz-adv-x="1269" 
d="M281 1470h708v-266h-708v266zM631 -29q-169 0 -300 75t-200.5 200t-69.5 278q0 114 40.5 215t113.5 176t183 118.5t241 43.5q132 0 239 -43.5t177 -119t107.5 -175.5t37.5 -215t-38.5 -215.5t-109.5 -175.5t-180 -118.5t-241 -43.5zM631 279q106 0 163.5 69.5t57.5 175.5
q0 108 -54 177t-159 69t-167 -70.5t-62 -175.5q0 -108 56 -176.5t165 -68.5z" />
    <glyph glyph-name="Obreve" unicode="&#x14e;" horiz-adv-x="1675" 
d="M838 1556q-172 0 -277.5 90t-105.5 238v25h268q0 -63 31.5 -101.5t83.5 -38.5t83 38.5t31 101.5h269v-25q0 -148 -105.5 -238t-277.5 -90zM840 -29q-225 0 -397.5 93t-266.5 262.5t-94 390.5t94 390t266.5 262t397.5 93t397 -93t266 -262t94 -390t-94 -390.5t-266 -262.5
t-397 -93zM840 305q175 0 282 113t107 299t-107 298.5t-282 112.5t-282 -112.5t-107 -298.5t107 -299t282 -113z" />
    <glyph glyph-name="obreve" unicode="&#x14f;" horiz-adv-x="1269" 
d="M252 1524h268q0 -63 31.5 -101.5t83.5 -38.5t83.5 38.5t31.5 101.5h268q0 -158 -105.5 -255.5t-277.5 -97.5t-277.5 97.5t-105.5 255.5zM631 -29q-169 0 -300 75t-200.5 200t-69.5 278q0 114 40.5 215t113.5 176t183 118.5t241 43.5q132 0 239 -43.5t177 -119
t107.5 -175.5t37.5 -215t-38.5 -215.5t-109.5 -175.5t-180 -118.5t-241 -43.5zM631 279q106 0 163.5 69.5t57.5 175.5q0 108 -54 177t-159 69t-167 -70.5t-62 -175.5q0 -108 56 -176.5t165 -68.5z" />
    <glyph glyph-name="Ohungarumlaut" unicode="&#x150;" horiz-adv-x="1675" 
d="M616 1923h340l-237 -350h-332zM1081 1923h340l-237 -350h-332zM78 715q-3 207 95.5 380t274.5 272t390 95q160 3 302.5 -54.5t243 -158t158 -240t55.5 -294.5q2 -155 -55.5 -294t-158 -239t-243 -157t-302.5 -54q-160 -3 -303 54t-243.5 157t-158 239t-55.5 294z
M1225 715q0 181 -107.5 296t-279.5 115t-279.5 -115t-107.5 -296t107 -294.5t280 -113.5t280 113.5t107 294.5z" />
    <glyph glyph-name="ohungarumlaut" unicode="&#x151;" horiz-adv-x="1269" 
d="M516 1188h-330l232 350h338zM999 1188h-329l231 350h338zM631 -29q-169 0 -300 75t-200.5 200t-69.5 278q0 114 40.5 215t113.5 176t183 118.5t241 43.5q132 0 239 -43.5t177 -119t107.5 -175.5t37.5 -215t-38.5 -215.5t-109.5 -175.5t-180 -118.5t-241 -43.5zM631 279
q106 0 163.5 69.5t57.5 175.5q0 108 -54 177t-159 69t-167 -70.5t-62 -175.5q0 -108 56 -176.5t165 -68.5z" />
    <glyph glyph-name="OE" unicode="&#x152;" horiz-adv-x="2207" 
d="M2114 322v-322h-1276q-224 0 -397 89t-268 251.5t-95 374.5q-3 209 94 374t271.5 256t394.5 89h1255v-322h-702v-229h649v-318h-649v-243h723zM1036 330v774h-198q-177 0 -282 -105.5t-105 -283.5t104.5 -281.5t282.5 -103.5h198z" />
    <glyph glyph-name="oe" unicode="&#x153;" horiz-adv-x="2027" 
d="M1411 1044q287 0 434.5 -164t114.5 -456h-762q0 -72 74 -119t168 -47q91 0 172.5 25.5t124.5 66.5l186 -205q-66 -75 -202.5 -120t-295.5 -45q-244 0 -397 131q-156 -140 -397 -140q-169 0 -300 75t-200.5 200t-69.5 278q0 114 40.5 215t113.5 176t183 118.5t241 43.5
q248 0 403 -149q147 116 369 116zM1194 633h428q0 66 -56.5 113t-154.5 47q-86 0 -151.5 -52.5t-65.5 -107.5zM631 279q98 0 154.5 59t64.5 154v26v35q-6 98 -59.5 157.5t-151.5 59.5q-105 0 -167 -70.5t-62 -175.5q0 -108 56 -176.5t165 -68.5z" />
    <glyph glyph-name="Racute" unicode="&#x154;" horiz-adv-x="1402" 
d="M784 1573h-329l231 350h338zM578 469h-86v-469h-357v1434h678q131 0 242 -64.5t176 -175.5t65 -242q0 -153 -85 -274t-222 -174l-24 -8l383 -496h-430zM492 791h272q68 0 115 47t47 114q0 66 -47.5 113t-114.5 47h-272v-321z" />
    <glyph glyph-name="racute" unicode="&#x155;" horiz-adv-x="878" 
d="M606 1188h-330l232 350h338zM752 1051q42 0 86 -13v-325h-152q-119 0 -171 -57t-52 -187v-469h-344v1024h336v-160q42 86 120.5 136.5t176.5 50.5z" />
    <glyph glyph-name="uni0156" unicode="&#x156;" horiz-adv-x="1402" 
d="M578 469h-86v-469h-357v1434h678q131 0 242 -64.5t176 -175.5t65 -242q0 -153 -85 -274t-222 -174l-24 -8l383 -496h-430zM492 791h272q68 0 115 47t47 114q0 66 -47.5 113t-114.5 47h-272v-321zM537 -160h340l-156 -391h-266z" />
    <glyph glyph-name="uni0157" unicode="&#x157;" horiz-adv-x="878" 
d="M752 1051q42 0 86 -13v-325h-152q-119 0 -171 -57t-52 -187v-469h-344v1024h336v-160q42 86 120.5 136.5t176.5 50.5zM121 -160h340l-156 -391h-266z" />
    <glyph glyph-name="Rcaron" unicode="&#x158;" horiz-adv-x="1402" 
d="M506 1573l-299 350h342l127 -158l127 158h342l-299 -350h-340zM578 469h-86v-469h-357v1434h678q131 0 242 -64.5t176 -175.5t65 -242q0 -153 -85 -274t-222 -174l-24 -8l383 -496h-430zM492 791h272q68 0 115 47t47 114q0 66 -47.5 113t-114.5 47h-272v-321z" />
    <glyph glyph-name="rcaron" unicode="&#x159;" horiz-adv-x="878" 
d="M926 1538l-299 -350h-340l-299 350h342l127 -158l127 158h342zM752 1051q42 0 86 -13v-325h-152q-119 0 -171 -57t-52 -187v-469h-344v1024h336v-160q42 86 120.5 136.5t176.5 50.5z" />
    <glyph glyph-name="Sacute" unicode="&#x15a;" horiz-adv-x="1308" 
d="M784 1573h-329l231 350h338zM676 -29q-217 0 -384.5 83t-246.5 231l242 196q68 -91 172.5 -140.5t228.5 -49.5q102 0 154.5 33t52.5 94q0 46 -39 76t-135 53l-232 55q-202 49 -304.5 157t-102.5 267q0 196 151 316t410 120q196 0 347 -69t229 -193l-242 -199
q-132 144 -336 144q-97 0 -148 -30t-51 -81q0 -40 42 -68.5t143 -52.5l239 -57q389 -94 389 -420q0 -210 -155.5 -337.5t-423.5 -127.5z" />
    <glyph glyph-name="sacute" unicode="&#x15b;" horiz-adv-x="1064" 
d="M684 1188h-330l232 350h338zM537 -29q-150 0 -280 44.5t-212 123.5l148 236q69 -55 164 -89t184 -34q121 0 121 57q0 47 -99 70l-178 43q-157 37 -229 112.5t-72 190.5q0 161 122.5 256.5t332.5 95.5q135 0 255.5 -40.5t196.5 -110.5l-151 -234q-165 103 -303 103
q-54 0 -82.5 -15t-28.5 -41q0 -39 94 -61l178 -43q163 -41 236.5 -115.5t73.5 -191.5q0 -166 -125 -261.5t-346 -95.5z" />
    <glyph glyph-name="Scircumflex" unicode="&#x15c;" horiz-adv-x="1308" 
d="M526 1573h-342l299 350h340l299 -350h-342l-127 158zM866 856q389 -94 389 -420q0 -210 -155.5 -337.5t-423.5 -127.5q-217 0 -384.5 83t-246.5 231l242 196q68 -91 172.5 -140.5t228.5 -49.5q102 0 154.5 33t52.5 94q0 46 -39 76t-135 53l-232 55q-202 49 -304.5 157
t-102.5 267q0 196 151 316t410 120q196 0 347 -69t229 -193l-242 -199q-132 144 -336 144q-97 0 -148 -30t-51 -81q0 -40 42 -68.5t143 -52.5z" />
    <glyph glyph-name="scircumflex" unicode="&#x15d;" horiz-adv-x="1064" 
d="M408 1188h-342l299 350h340l299 -350h-342l-127 158zM698 635q163 -41 236.5 -115.5t73.5 -191.5q0 -166 -125 -261.5t-346 -95.5q-150 0 -280 44.5t-212 123.5l148 236q69 -55 164 -89t184 -34q121 0 121 57q0 47 -99 70l-178 43q-157 37 -229 112.5t-72 190.5
q0 161 122.5 256.5t332.5 95.5q135 0 255.5 -40.5t196.5 -110.5l-151 -234q-165 103 -303 103q-54 0 -82.5 -15t-28.5 -41q0 -39 94 -61z" />
    <glyph glyph-name="Scedilla" unicode="&#x15e;" horiz-adv-x="1308" 
d="M827 -16l-104 -396h-350l157 394q-167 25 -293 103.5t-192 199.5l242 196q68 -91 172.5 -140.5t228.5 -49.5q102 0 154.5 33t52.5 94q0 46 -39 76t-135 53l-232 55q-202 49 -304.5 157t-102.5 267q0 196 151 316t410 120q196 0 347 -69t229 -193l-242 -199
q-132 144 -336 144q-97 0 -148 -30t-51 -81q0 -40 42 -68.5t143 -52.5l239 -57q389 -94 389 -420q0 -179 -113 -299.5t-315 -152.5z" />
    <glyph glyph-name="scedilla" unicode="&#x15f;" horiz-adv-x="1064" 
d="M1008 328q0 -134 -83.5 -223.5t-236.5 -118.5l-104 -398h-351l158 396q-225 37 -346 155l148 236q69 -55 164 -89t184 -34q121 0 121 57q0 47 -99 70l-178 43q-157 37 -229 112.5t-72 190.5q0 161 122.5 256.5t332.5 95.5q135 0 255.5 -40.5t196.5 -110.5l-151 -234
q-165 103 -303 103q-54 0 -82.5 -15t-28.5 -41q0 -39 94 -61l178 -43q163 -41 236.5 -115.5t73.5 -191.5z" />
    <glyph glyph-name="Scaron" unicode="&#x160;" horiz-adv-x="1308" 
d="M483 1573l-299 350h342l127 -158l127 158h342l-299 -350h-340zM866 856q389 -94 389 -420q0 -210 -155.5 -337.5t-423.5 -127.5q-217 0 -384.5 83t-246.5 231l242 196q68 -91 172.5 -140.5t228.5 -49.5q102 0 154.5 33t52.5 94q0 46 -39 76t-135 53l-232 55
q-202 49 -304.5 157t-102.5 267q0 196 151 316t410 120q196 0 347 -69t229 -193l-242 -199q-132 144 -336 144q-97 0 -148 -30t-51 -81q0 -40 42 -68.5t143 -52.5z" />
    <glyph glyph-name="scaron" unicode="&#x161;" horiz-adv-x="1064" 
d="M365 1188l-299 350h342l127 -158l127 158h342l-299 -350h-340zM698 635q163 -41 236.5 -115.5t73.5 -191.5q0 -166 -125 -261.5t-346 -95.5q-150 0 -280 44.5t-212 123.5l148 236q69 -55 164 -89t184 -34q121 0 121 57q0 47 -99 70l-178 43q-157 37 -229 112.5t-72 190.5
q0 161 122.5 256.5t332.5 95.5q135 0 255.5 -40.5t196.5 -110.5l-151 -234q-165 103 -303 103q-54 0 -82.5 -15t-28.5 -41q0 -39 94 -61z" />
    <glyph glyph-name="uni0162" unicode="&#x162;" horiz-adv-x="1241" 
d="M1204 1434v-330h-405v-1104h-33l-109 -412h-350l164 412h-29v1104h-405v330h1167z" />
    <glyph glyph-name="uni0163" unicode="&#x163;" horiz-adv-x="892" 
d="M823 307v-307h-145l-96 -412h-308l136 437q-88 37 -141.5 116.5t-53.5 177.5l2 402h-180v303h180v332h344v-332h258v-303h-258v-352q0 -26 18 -44t44 -18h200z" />
    <glyph glyph-name="Tcaron" unicode="&#x164;" horiz-adv-x="1241" 
d="M451 1573l-299 350h342l127 -158l127 158h342l-299 -350h-340zM1204 1434v-330h-405v-1104h-357v1104h-405v330h1167z" />
    <glyph glyph-name="tcaron" unicode="&#x165;" horiz-adv-x="901" 
d="M668 1589h262v-440h-262v440zM516 0q-126 0 -213.5 88.5t-87.5 214.5l2 418h-180v303h180v332h344v-332h258v-303h-258v-389q0 -10 7.5 -17.5t17.5 -7.5h237v-307h-307z" />
    <glyph glyph-name="Tbar" unicode="&#x166;" horiz-adv-x="1241" 
d="M799 1104v-234h223v-282h-223v-588h-357v588h-223v282h223v234h-405v330h1167v-330h-405z" />
    <glyph glyph-name="tbar" unicode="&#x167;" horiz-adv-x="892" 
d="M823 672v-303h-262q0 -26 18 -44t44 -18h200v-307h-291q-132 0 -224.5 93.5t-92.5 225.5v50h-178v303h180v49h-180v303h180v332h344v-332h258v-303h-258v-49h262z" />
    <glyph glyph-name="Utilde" unicode="&#x168;" horiz-adv-x="1478" 
d="M913 1571q-46 0 -84.5 12.5t-95.5 42.5q-64 35 -94 35q-26 0 -37.5 -19.5t-11.5 -66.5h-248q0 346 223 346q46 0 84.5 -12.5t95.5 -42.5q64 -35 95 -35q26 0 37.5 19.5t11.5 66.5h248q0 -346 -224 -346zM739 -29q-140 0 -258 49t-196.5 133.5t-122 197.5t-43.5 241v842
h358v-863q0 -117 65 -189.5t197 -72.5q262 0 262 262v863h359v-842q0 -129 -41.5 -241.5t-118 -197t-195.5 -133.5t-266 -49z" />
    <glyph glyph-name="utilde" unicode="&#x169;" horiz-adv-x="1224" 
d="M604 1241q-64 35 -94 35q-26 0 -37.5 -19.5t-11.5 -66.5h-248q0 346 223 346q46 0 84.5 -12.5t95.5 -42.5q64 -35 95 -35q26 0 37.5 19.5t11.5 66.5h248q0 -346 -224 -346q-46 0 -84.5 12.5t-95.5 42.5zM1114 1024v-1024h-336v141q-43 -76 -131.5 -123t-189.5 -47
q-148 0 -251.5 103.5t-103.5 251.5v698h344v-578q0 -67 47 -114t115 -49q68 0 116 48t48 115l-2 578h344z" />
    <glyph glyph-name="Umacron" unicode="&#x16a;" horiz-adv-x="1478" 
d="M385 1855h709v-266h-709v266zM739 -29q-140 0 -258 49t-196.5 133.5t-122 197.5t-43.5 241v842h358v-863q0 -117 65 -189.5t197 -72.5q262 0 262 262v863h359v-842q0 -129 -41.5 -241.5t-118 -197t-195.5 -133.5t-266 -49z" />
    <glyph glyph-name="umacron" unicode="&#x16b;" horiz-adv-x="1224" 
d="M256 1470h709v-266h-709v266zM1114 1024v-1024h-336v141q-43 -76 -131.5 -123t-189.5 -47q-148 0 -251.5 103.5t-103.5 251.5v698h344v-578q0 -67 47 -114t115 -49q68 0 116 48t48 115l-2 578h344z" />
    <glyph glyph-name="Ubreve" unicode="&#x16c;" horiz-adv-x="1478" 
d="M739 1556q-172 0 -277.5 90t-105.5 238v25h269q0 -63 31 -101.5t83 -38.5t83.5 38.5t31.5 101.5h268v-25q0 -148 -105.5 -238t-277.5 -90zM739 -29q-140 0 -258 49t-196.5 133.5t-122 197.5t-43.5 241v842h358v-863q0 -117 65 -189.5t197 -72.5q262 0 262 262v863h359
v-842q0 -129 -41.5 -241.5t-118 -197t-195.5 -133.5t-266 -49z" />
    <glyph glyph-name="ubreve" unicode="&#x16d;" horiz-adv-x="1224" 
d="M227 1524h269q0 -63 31 -101.5t83 -38.5t83.5 38.5t31.5 101.5h268v-25q0 -148 -105.5 -238t-277.5 -90t-277.5 90t-105.5 238v25zM1114 1024v-1024h-336v141q-43 -76 -131.5 -123t-189.5 -47q-148 0 -251.5 103.5t-103.5 251.5v698h344v-578q0 -67 47 -114t115 -49
q68 0 116 48t48 115l-2 578h344z" />
    <glyph glyph-name="Uring" unicode="&#x16e;" horiz-adv-x="1478" 
d="M739 1544q-132 0 -222.5 85t-90.5 206t90.5 206t222.5 85q133 0 223.5 -85t90.5 -206t-90.5 -206t-223.5 -85zM739 1733q49 0 76 27t27 75t-27 75t-76 27t-75.5 -27t-26.5 -75t26.5 -75t75.5 -27zM739 -29q-140 0 -258 49t-196.5 133.5t-122 197.5t-43.5 241v842h358
v-863q0 -117 65 -189.5t197 -72.5q262 0 262 262v863h359v-842q0 -129 -41.5 -241.5t-118 -197t-195.5 -133.5t-266 -49z" />
    <glyph glyph-name="uring" unicode="&#x16f;" horiz-adv-x="1224" 
d="M297 1450q0 121 90.5 206t222.5 85q133 0 223.5 -85t90.5 -206t-90.5 -206t-223.5 -85q-132 0 -222.5 85t-90.5 206zM713 1450q0 48 -27 75t-76 27t-75.5 -27t-26.5 -75t26.5 -75t75.5 -27t76 27t27 75zM1114 1024v-1024h-336v141q-43 -76 -131.5 -123t-189.5 -47
q-148 0 -251.5 103.5t-103.5 251.5v698h344v-578q0 -67 47 -114t115 -49q68 0 116 48t48 115l-2 578h344z" />
    <glyph glyph-name="Uhungarumlaut" unicode="&#x170;" horiz-adv-x="1478" 
d="M518 1923h340l-237 -350h-332zM983 1923h340l-238 -350h-331zM739 -29q-140 0 -258 49t-196.5 133.5t-122 197.5t-43.5 241v842h358v-863q0 -117 65 -189.5t197 -72.5q262 0 262 262v863h359v-842q0 -129 -41.5 -241.5t-118 -197t-195.5 -133.5t-266 -49z" />
    <glyph glyph-name="uhungarumlaut" unicode="&#x171;" horiz-adv-x="1224" 
d="M492 1188h-330l231 350h338zM1008 1188h-330l231 350h338zM1114 1024v-1024h-336v141q-43 -76 -131.5 -123t-189.5 -47q-148 0 -251.5 103.5t-103.5 251.5v698h344v-578q0 -67 47 -114t115 -49q68 0 116 48t48 115l-2 578h344z" />
    <glyph glyph-name="Uogonek" unicode="&#x172;" horiz-adv-x="1478" 
d="M1001 1434h359v-842q0 -209 -104 -367.5t-293 -220.5l18 2q-90 -59 -126 -93.5t-36 -59.5q0 -43 92 -43h70v-242h-137q-145 0 -224 55t-79 148q0 117 106 204h8q-245 29 -390.5 202t-145.5 415v842h358v-863q0 -117 65 -189.5t197 -72.5q262 0 262 262v863z" />
    <glyph glyph-name="uogonek" unicode="&#x173;" horiz-adv-x="1224" 
d="M770 1024h344v-1024h-27q-84 -55 -113.5 -90.5t-29.5 -63.5q0 -43 92 -43h70v-241h-137q-145 0 -224 54.5t-79 147.5q0 65 37.5 127.5t107.5 108.5h-33v141q-43 -76 -131.5 -123t-189.5 -47q-148 0 -251.5 103.5t-103.5 251.5v698h344v-578q0 -67 47 -114t115 -49
q68 0 116 48t48 115z" />
    <glyph glyph-name="Wcircumflex" unicode="&#x174;" horiz-adv-x="2191" 
d="M969 1573h-342l299 350h340l299 -350h-342l-127 158zM1780 1434h383l-416 -1434h-391l-260 743l-260 -743h-392l-415 1434h383l250 -930l344 930h178l346 -930z" />
    <glyph glyph-name="wcircumflex" unicode="&#x175;" horiz-adv-x="1781" 
d="M764 1188h-342l299 350h340l299 -350h-342l-127 158zM1761 1024l-311 -1024h-383l-176 600l-176 -600h-383l-312 1024h353l168 -618l192 618h316l192 -618l168 618h352z" />
    <glyph glyph-name="Ycircumflex" unicode="&#x176;" horiz-adv-x="1363" 
d="M555 1573h-342l299 350h340l299 -350h-342l-127 158zM1380 1434l-518 -881v-553h-360v553l-518 881h407l291 -539l291 539h407z" />
    <glyph glyph-name="ycircumflex" unicode="&#x177;" horiz-adv-x="1161" 
d="M455 1188h-342l299 350h340l299 -350h-342l-127 158zM1149 1049l-432 -1172q-57 -154 -160 -220.5t-281 -66.5h-239v308h178q97 0 135.5 19.5t57.5 76.5l8 24l-404 1031h369l209 -635l190 635h369z" />
    <glyph glyph-name="Ydieresis" unicode="&#x178;" horiz-adv-x="1363" 
d="M426 1559q-91 0 -147 55t-56 143t56.5 143.5t146.5 55.5t146.5 -55.5t56.5 -143.5t-56 -143t-147 -55zM938 1556q-90 0 -146.5 56.5t-56.5 144.5t56.5 143.5t146.5 55.5t146.5 -55.5t56.5 -143.5t-56.5 -144.5t-146.5 -56.5zM1380 1434l-518 -881v-553h-360v553l-518 881
h407l291 -539l291 539h407z" />
    <glyph glyph-name="Zacute" unicode="&#x179;" horiz-adv-x="1253" 
d="M735 1573h-329l231 350h399zM1176 319v-319h-1098v266l622 848h-610v320h1077v-267l-622 -848h631z" />
    <glyph glyph-name="zacute" unicode="&#x17a;" horiz-adv-x="1028" 
d="M670 1188h-330l231 350h338zM958 291v-291h-892v225l442 533h-426v291h872v-226l-442 -532h446z" />
    <glyph glyph-name="Zdotaccent" unicode="&#x17b;" horiz-adv-x="1253" 
d="M627 1559q-94 0 -151.5 54.5t-57.5 143.5t57.5 144t151.5 55t151.5 -55t57.5 -144t-57.5 -143.5t-151.5 -54.5zM1176 319v-319h-1098v266l622 848h-610v320h1077v-267l-622 -848h631z" />
    <glyph glyph-name="zdotaccent" unicode="&#x17c;" horiz-adv-x="1028" 
d="M514 1174q-85 0 -145 59t-60 143q0 83 60 143t145 60q82 0 141.5 -60t59.5 -143q0 -84 -59.5 -143t-141.5 -59zM958 291v-291h-892v225l442 533h-426v291h872v-226l-442 -532h446z" />
    <glyph glyph-name="Zcaron" unicode="&#x17d;" horiz-adv-x="1253" 
d="M457 1573l-299 350h342l127 -158l127 158h342l-299 -350h-340zM1176 319v-319h-1098v266l622 848h-610v320h1077v-267l-622 -848h631z" />
    <glyph glyph-name="zcaron" unicode="&#x17e;" horiz-adv-x="1028" 
d="M983 1538l-299 -350h-340l-299 350h342l127 -158l127 158h342zM958 291v-291h-892v225l442 533h-426v291h872v-226l-442 -532h446z" />
    <glyph glyph-name="uni01CD" unicode="&#x1cd;" horiz-adv-x="1478" 
d="M590 1573l-299 350h342l127 -158l127 158h342l-299 -350h-340zM1008 225h-539l-78 -225h-379l527 1434h379l548 -1434h-379zM899 532l-160 560l-159 -560h319z" />
    <glyph glyph-name="uni01CE" unicode="&#x1ce;" horiz-adv-x="1216" 
d="M455 1188l-299 350h342l127 -158l127 158h342l-299 -350h-340zM1065 0h-289v137q-39 -76 -123.5 -119t-203.5 -43q-172 0 -277.5 96.5t-105.5 247.5q0 83 36.5 146t100 100.5t148 56.5t180 18t198.5 -19l-2 53q0 48 -42 76t-103 28q-66 0 -135 -28t-119 -74l-181 194
q63 70 202 122t261 52q204 0 329.5 -116.5t125.5 -306.5v-621zM731 436q-330 57 -330 -94q0 -54 36.5 -86.5t101.5 -32.5q92 0 142 46.5t50 131.5v35z" />
    <glyph glyph-name="uni01E2" unicode="&#x1e2;" horiz-adv-x="2244" 
d="M1812 1589h-708v266h708v-266zM2150 328v-328h-1077v266h-495l-152 -266h-426l864 1434h1266v-328h-703v-217h654v-328h-654v-233h723zM1073 561v569l-325 -569h325z" />
    <glyph glyph-name="uni01E3" unicode="&#x1e3;" horiz-adv-x="1906" 
d="M1290 1470v-266h-708v266h708zM1290 1044q287 0 434.5 -164t114.5 -456h-762q0 -72 74 -119t168 -47q91 0 172.5 25.5t124.5 66.5l186 -205q-66 -75 -202 -120t-295 -45q-140 0 -253.5 44.5t-189.5 127.5q-169 -177 -413 -177q-172 0 -277.5 96.5t-105.5 247.5
q0 83 36.5 146t100 100.5t148 56.5t180 18t198.5 -19l-2 53q0 48 -42 76t-103 28q-66 0 -135 -28t-119 -74l-181 194q63 70 202 122t261 52q200 0 320 -108q148 108 360 108zM1073 633h428q0 66 -56.5 113t-154.5 47q-86 0 -151.5 -52.5t-65.5 -107.5zM731 401v35
q-330 57 -330 -94q0 -54 36.5 -86.5t101.5 -32.5q92 0 142 46.5t50 131.5z" />
    <glyph glyph-name="Gcaron" unicode="&#x1e6;" horiz-adv-x="1554" 
d="M645 1573l-299 350h342l127 -158l127 158h342l-299 -350h-340zM1462 842l-2 -555q-102 -148 -265.5 -232t-356.5 -84q-184 0 -330 58t-238 159.5t-140 235t-48 289.5t50.5 291.5t144 237t238.5 160t323 58.5q173 0 325.5 -73.5t259.5 -200.5l-290 -205q-56 68 -132 106.5
t-163 38.5q-181 0 -284 -117t-103 -296q0 -177 101.5 -293.5t285.5 -116.5q201 0 299 125v123h-279v291h604z" />
    <glyph glyph-name="gcaron" unicode="&#x1e7;" horiz-adv-x="1308" 
d="M1130 1538l-299 -350h-339l-299 350h342l127 -158l126 158h342zM1190 1024v-901q0 -252 -163.5 -406.5t-430.5 -154.5q-143 0 -281 43.5t-223 115.5l148 248q70 -49 161 -78.5t170 -29.5q293 0 293 297v16q-36 -69 -133.5 -112.5t-202.5 -43.5q-209 0 -335.5 146.5
t-126.5 384.5q0 223 126.5 359t335.5 136q107 0 194 -32t122 -84v96h346zM635 313q100 0 160.5 65t60.5 171t-60.5 170.5t-160.5 64.5t-160.5 -64.5t-60.5 -170.5t60.5 -171t160.5 -65z" />
    <glyph glyph-name="uni01E8" unicode="&#x1e8;" horiz-adv-x="1447" 
d="M1223 1923l-299 -350h-340l-299 350h342l127 -158l127 158h342zM1448 1434l-578 -717l578 -717h-440l-379 473l-133 -137v-336h-357v1434h357v-641l522 641h430z" />
    <glyph glyph-name="uni01E9" unicode="&#x1e9;" horiz-adv-x="1193" 
d="M119 1638l-299 351h342l127 -158l127 158h342l-299 -351h-340zM791 0l-246 328l-82 -99v-229h-344v1499h344v-876l338 401h397l-395 -475l395 -549h-407z" />
    <glyph glyph-name="AEacute" unicode="&#x1fc;" horiz-adv-x="2244" 
d="M1567 1573h-330l231 350h338zM2150 328v-328h-1077v266h-495l-152 -266h-426l864 1434h1266v-328h-703v-217h654v-328h-654v-233h723zM1073 561v569l-325 -569h325z" />
    <glyph glyph-name="aeacute" unicode="&#x1fd;" horiz-adv-x="1906" 
d="M1409 1538l-240 -350h-329l231 350h338zM1290 1044q287 0 434.5 -164t114.5 -456h-762q0 -72 74 -119t168 -47q91 0 172.5 25.5t124.5 66.5l186 -205q-66 -75 -202 -120t-295 -45q-140 0 -253.5 44.5t-189.5 127.5q-169 -177 -413 -177q-172 0 -277.5 96.5t-105.5 247.5
q0 83 36.5 146t100 100.5t148 56.5t180 18t198.5 -19l-2 53q0 48 -42 76t-103 28q-66 0 -135 -28t-119 -74l-181 194q63 70 202 122t261 52q200 0 320 -108q148 108 360 108zM1073 633h428q0 66 -56.5 113t-154.5 47q-86 0 -151.5 -52.5t-65.5 -107.5zM731 401v35
q-330 57 -330 -94q0 -54 36.5 -86.5t101.5 -32.5q92 0 142 46.5t50 131.5z" />
    <glyph glyph-name="Oslashacute" unicode="&#x1fe;" horiz-adv-x="1675" 
d="M940 1573h-330l232 350h338zM1597 715q2 -155 -55.5 -294t-158 -239t-243 -157t-302.5 -54q-251 0 -437 125l-133 -133l-182 182l129 129q-137 186 -137 441q-3 207 95.5 380t274.5 272t390 95q249 0 438 -127l135 135l182 -182l-131 -131q135 -193 135 -442zM451 715
q0 -101 32 -180l545 544q-83 47 -190 47q-172 0 -279.5 -115t-107.5 -296zM1225 715q0 98 -33 180l-543 -543q80 -45 189 -45q173 0 280 113.5t107 294.5z" />
    <glyph glyph-name="oslashacute" unicode="&#x1ff;" horiz-adv-x="1277" 
d="M748 1188h-330l231 350h400zM1114 846q94 -137 94 -322q0 -116 -41 -218t-114.5 -176t-180.5 -116.5t-233 -42.5q-177 0 -317 82l-121 -121l-154 154l117 117q-94 137 -94 321q0 116 41 218t114.5 176t180.5 116.5t233 42.5q177 0 317 -82l121 121l154 -153zM639 791
q-112 0 -176 -72.5t-64 -194.5q0 -56 15 -100l340 340q-47 27 -115 27zM639 258q112 0 176 72t64 194q0 51 -13 101l-342 -342q52 -25 115 -25z" />
    <glyph glyph-name="uni0218" unicode="&#x218;" horiz-adv-x="1308" 
d="M676 -29q-217 0 -384.5 83t-246.5 231l242 196q68 -91 172.5 -140.5t228.5 -49.5q102 0 154.5 33t52.5 94q0 46 -39 76t-135 53l-232 55q-202 49 -304.5 157t-102.5 267q0 196 151 316t410 120q196 0 347 -69t229 -193l-242 -199q-132 144 -336 144q-97 0 -148 -30
t-51 -81q0 -40 42 -68.5t143 -52.5l239 -57q389 -94 389 -420q0 -210 -155.5 -337.5t-423.5 -127.5zM502 -160h340l-156 -391h-266z" />
    <glyph glyph-name="uni0219" unicode="&#x219;" horiz-adv-x="1064" 
d="M537 -29q-150 0 -280 44.5t-212 123.5l148 236q69 -55 164 -89t184 -34q121 0 121 57q0 47 -99 70l-178 43q-157 37 -229 112.5t-72 190.5q0 161 122.5 256.5t332.5 95.5q135 0 255.5 -40.5t196.5 -110.5l-151 -234q-165 103 -303 103q-54 0 -82.5 -15t-28.5 -41
q0 -39 94 -61l178 -43q163 -41 236.5 -115.5t73.5 -191.5q0 -166 -125 -261.5t-346 -95.5zM362 -160h340l-155 -391h-266z" />
    <glyph glyph-name="uni021A" unicode="&#x21a;" horiz-adv-x="1241" 
d="M442 1104h-405v330h1167v-330h-405v-1104h-357v1104zM436 -160h340l-155 -391h-267z" />
    <glyph glyph-name="uni021B" unicode="&#x21b;" horiz-adv-x="892" 
d="M217 745h-180v304h180v307h344v-307h258v-304h-258v-344q0 -51 22 -72.5t76 -21.5h164v-307h-262q-181 0 -262.5 78t-81.5 256v411zM360 -160h263l-78 -391h-266z" />
    <glyph glyph-name="uni0237" unicode="&#x237;" horiz-adv-x="585" 
d="M-94 -106h123q50 0 71 20.5t21 69.5v1040h344v-1106q0 -161 -89.5 -244.5t-266.5 -83.5h-203v304z" />
    <glyph glyph-name="circumflex" unicode="&#x2c6;" horiz-adv-x="1269" 
d="M762 1188l-127 158l-127 -158h-342l299 350h340l299 -350h-342z" />
    <glyph glyph-name="caron" unicode="&#x2c7;" horiz-adv-x="1269" 
d="M1104 1538l-299 -350h-340l-299 350h342l127 -158l127 158h342z" />
    <glyph glyph-name="breve" unicode="&#x2d8;" horiz-adv-x="1269" 
d="M635 1171q-178 0 -280.5 88t-102.5 240v25h268q0 -69 29.5 -104.5t85.5 -35.5t85.5 35.5t29.5 104.5h268v-25q0 -152 -102.5 -240t-280.5 -88z" />
    <glyph glyph-name="dotaccent" unicode="&#x2d9;" horiz-adv-x="1269" 
d="M635 1174q-94 0 -151.5 54t-57.5 144t57.5 144.5t151.5 54.5t151.5 -54.5t57.5 -144.5t-57.5 -144t-151.5 -54z" />
    <glyph glyph-name="ring" unicode="&#x2da;" horiz-adv-x="1269" 
d="M635 1159q-132 0 -222.5 85t-90.5 206t90.5 206t222.5 85t222.5 -85t90.5 -206t-90.5 -206t-222.5 -85zM635 1348q49 0 75.5 27t26.5 75t-26.5 75t-75.5 27t-76 -27t-27 -75t27 -75t76 -27z" />
    <glyph glyph-name="ogonek" unicode="&#x2db;" horiz-adv-x="1269" 
d="M791 -438h-138q-145 0 -224 54.5t-79 147.5q0 96 81.5 181.5t225.5 128.5l134 -74q-89 -59 -125.5 -94t-36.5 -60q0 -43 92 -43h70v-241z" />
    <glyph glyph-name="tilde" unicode="&#x2dc;" horiz-adv-x="1269" 
d="M809 1186q-46 0 -84.5 12.5t-95.5 42.5q-64 35 -94 35q-27 0 -38.5 -19.5t-11.5 -66.5h-247q0 346 223 346q46 0 84.5 -12.5t95.5 -42.5q64 -35 94 -35q26 0 37.5 19.5t11.5 66.5h248q0 -346 -223 -346z" />
    <glyph glyph-name="hungarumlaut" unicode="&#x2dd;" horiz-adv-x="1269" 
d="M467 1538h340l-238 -350h-331zM932 1538h340l-238 -350h-332z" />
    <glyph glyph-name="gravecomb" unicode="&#x300;" 
d="M-815 1188l-301 350h399l232 -350h-330z" />
    <glyph glyph-name="acutecomb" unicode="&#x301;" 
d="M-549 1538h399l-301 -350h-329z" />
    <glyph glyph-name="uni0302" unicode="&#x302;" 
d="M-508 1188l-127 158l-127 -158h-342l299 350h340l299 -350h-342z" />
    <glyph glyph-name="tildecomb" unicode="&#x303;" 
d="M-461 1186q-46 0 -84.5 12.5t-95.5 42.5q-64 35 -94 35q-26 0 -37.5 -19.5t-11.5 -66.5h-248q0 346 223 346q46 0 84.5 -12.5t95.5 -42.5q64 -35 94 -35q27 0 38.5 19.5t11.5 66.5h247q0 -346 -223 -346z" />
    <glyph glyph-name="uni0304" unicode="&#x304;" 
d="M-989 1470h708v-266h-708v266z" />
    <glyph glyph-name="uni0306" unicode="&#x306;" 
d="M-635 1171q-178 0 -280.5 88t-102.5 240v25h268q0 -69 29.5 -104.5t85.5 -35.5t85.5 35.5t29.5 104.5h268v-25q0 -152 -102.5 -240t-280.5 -88z" />
    <glyph glyph-name="uni0307" unicode="&#x307;" 
d="M-635 1174q-94 0 -151.5 54t-57.5 144t57.5 144.5t151.5 54.5t151.5 -54.5t57.5 -144.5t-57.5 -144t-151.5 -54z" />
    <glyph glyph-name="uni0308" unicode="&#x308;" 
d="M-891 1174q-91 0 -147 55t-56 143t56.5 143.5t146.5 55.5t146.5 -55.5t56.5 -143.5t-56 -143t-147 -55zM-379 1174q-91 0 -147 55t-56 143t56.5 143.5t146.5 55.5t146.5 -55.5t56.5 -143.5t-56 -143t-147 -55z" />
    <glyph glyph-name="uni030A" unicode="&#x30a;" 
d="M-635 1159q-132 0 -222.5 85t-90.5 206t90.5 206t222.5 85t222.5 -85t90.5 -206t-90.5 -206t-222.5 -85zM-635 1348q49 0 76 27t27 75t-27 75t-76 27t-75.5 -27t-26.5 -75t26.5 -75t75.5 -27z" />
    <glyph glyph-name="uni030B" unicode="&#x30b;" 
d="M-803 1538h340l-237 -350h-332zM-338 1538h340l-238 -350h-331z" />
    <glyph glyph-name="uni030C" unicode="&#x30c;" 
d="M-166 1538l-299 -350h-340l-299 350h342l127 -158l127 158h342z" />
    <glyph glyph-name="uni0312" unicode="&#x312;" 
 />
    <glyph glyph-name="uni0315" unicode="&#x315;" 
d="M-803 1579h336l-74 -440h-262v440z" />
    <glyph glyph-name="uni0326" unicode="&#x326;" 
d="M-805 -160h340l-156 -391h-266z" />
    <glyph glyph-name="uni0327" unicode="&#x327;" 
d="M-770 31h291l-117 -443h-350z" />
    <glyph glyph-name="uni0328" unicode="&#x328;" 
d="M-479 -438h-137q-145 0 -224.5 54.5t-79.5 147.5q0 96 82 181.5t226 128.5l133 -74q-89 -59 -125.5 -94t-36.5 -60q0 -43 92 -43h70v-241z" />
    <glyph glyph-name="uni060C" unicode="&#x60c;" horiz-adv-x="569" 
d="M385 0h-344l178 631h279z" />
    <glyph glyph-name="uni0615" unicode="&#x615;" 
d="M668 1868q90 0 138 -57.5t48 -165.5v-127h-569v135h94v370h135v-223q75 68 154 68zM514 1657v-4h207q-2 37 -21 58.5t-51 21.5q-70 0 -135 -76z" />
    <glyph glyph-name="uni061B" unicode="&#x61b;" horiz-adv-x="606" 
d="M422 754h-344l178 630h279zM479 217q0 -102 -59.5 -160.5t-159.5 -58.5q-103 0 -161 58t-58 161q0 100 58.5 159.5t160.5 59.5q100 0 159.5 -59.5t59.5 -159.5z" />
    <glyph glyph-name="uni061F" unicode="&#x61f;" horiz-adv-x="970" 
d="M670 608v-96h-324v74q0 49 -12 71.5t-62 63.5l-75 63q-97 80 -137 152t-40 158q0 165 121.5 266.5t309.5 101.5q164 0 291.5 -80t197.5 -219l-246 -166q-102 166 -237 166q-50 0 -77.5 -21t-27.5 -59q0 -49 66 -106l88 -74q60 -52 87.5 -79t46.5 -61.5t23.5 -64
t6.5 -90.5zM727 190q0 -100 -59.5 -159.5t-159.5 -59.5q-102 0 -160.5 59.5t-58.5 159.5q0 103 58 161.5t161 58.5q100 0 159.5 -59t59.5 -161z" />
    <glyph glyph-name="uni0621" unicode="&#x621;" horiz-adv-x="1427" 
d="M1264 319v-319h-1182v319h207q-43 93 -43 191v10q0 104 43 198t115 160.5t168.5 106t199.5 39.5q158 0 303 -98q87 -59 146 -152l-273 -170q-21 34 -55 58q-52 40 -121 40q-82 0 -142.5 -54t-60.5 -134q0 -86 58.5 -140.5t146.5 -54.5h490z" />
    <glyph glyph-name="uni0622" unicode="&#x622;" horiz-adv-x="647" 
d="M84 1702l-84 94l158 102q17 12 38.5 10.5t36.5 -16.5q39 -39 91.5 -51t119.5 -12q15 0 41 5.5t42.5 10t50.5 14.5t36 11l54 -150q-47 -20 -115.5 -38.5t-108.5 -18.5q-139 0 -245 90q-14 14 -31 0zM164 0v1434h319v-1434h-319z" />
    <glyph glyph-name="uni0623" unicode="&#x623;" horiz-adv-x="606" 
d="M555 1704v-160h-481v160h67q-9 40 -6 78q11 79 71 133.5t144 54.5q148 0 207 -129l-123 -94q-22 37 -37 49t-47 12q-22 0 -37.5 -13t-15.5 -32q0 -11 2.5 -22t15.5 -24t35 -13h205zM143 0v1434h320v-1434h-320z" />
    <glyph glyph-name="uni0624" unicode="&#x624;" horiz-adv-x="1198" 
d="M977 1362v-160h-481v160h67q-11 48 -6 78q12 79 71.5 133.5t143.5 54.5q70 0 124 -33t83 -96l-123 -94q-22 37 -37 49t-47 12q-22 0 -37.5 -13t-15.5 -32q0 -11 2.5 -22t15.5 -24t35 -13h205zM1096 1024v-948q0 -240 -164 -387q-119 -113 -271 -148t-477 -33v316
q256 0 361.5 18t173.5 80q27 23 43 68l4 10h-166q-105 0 -201 41t-165.5 110.5t-110.5 166t-41 202.5q0 138 69.5 254t189 183t259.5 67h496zM600 319h174v386h-174q-83 0 -142 -53t-59 -132q0 -84 59.5 -142.5t141.5 -58.5z" />
    <glyph glyph-name="uni0625" unicode="&#x625;" horiz-adv-x="606" 
d="M143 0v1434h320v-1434h-320zM555 -393v-160h-481v160h67q-11 48 -6 78q12 79 71.5 133.5t143.5 54.5q148 0 207 -129l-123 -94q-22 37 -37 49t-47 12q-22 0 -37.5 -13t-15.5 -32q0 -11 2.5 -22t15.5 -24t35 -13h205z" />
    <glyph glyph-name="uni0626" unicode="&#x626;" horiz-adv-x="2193" 
d="M496 852v-160h-482v160h68q-11 48 -6 78q12 79 71.5 133.5t143.5 54.5q70 0 124 -33t83 -96l-123 -94q-22 37 -37 49t-47 12q-22 0 -37.5 -13t-15.5 -32q0 -11 2.5 -22t15.5 -24t35 -13h205zM2091 1024l-4 -1024h-324l9 705h-281q-24 0 -41.5 -15.5t-17.5 -36.5v-858
q0 -95 -67 -163t-161 -68h-528q-160 0 -297 80t-217 217t-80 297v415h326v-415q0 -113 79 -194t189 -81h348q35 0 59.5 24.5t24.5 59.5v686q0 154 111.5 262.5t271.5 108.5h600z" />
    <glyph glyph-name="uni0627" unicode="&#x627;" horiz-adv-x="647" 
d="M164 0v1434h319v-1434h-319z" />
    <glyph glyph-name="uni0628" unicode="&#x628;" horiz-adv-x="1802" 
d="M1700 1024v-766q0 -118 -83 -201.5t-202 -83.5h-883q-195 0 -333 137t-138 330v379h324v-379q0 -63 42.5 -105t104.5 -42h795q22 0 36.5 14.5t14.5 36.5v680h322zM707 -313q0 72 52.5 124t125.5 52t125.5 -52t52.5 -124q0 -74 -52.5 -126.5t-125.5 -52.5t-125.5 52.5
t-52.5 126.5z" />
    <glyph glyph-name="uni0629" unicode="&#x629;" horiz-adv-x="1193" 
d="M352 1556q73 0 125.5 -52t52.5 -124q0 -74 -52 -126t-126 -52t-126 52t-52 126q0 72 52.5 124t125.5 52zM795 1556q73 0 125.5 -52t52.5 -124q0 -74 -52.5 -126t-125.5 -52q-74 0 -126.5 52.5t-52.5 125.5q0 72 53 124t126 52zM86 1024l512 2q211 0 354.5 -141
t143.5 -344v-43q0 -135 -68 -250t-182.5 -181t-247.5 -67q-137 -1 -255.5 66.5t-187.5 182.5t-69 249v526zM598 319q78 0 131 52t53 133v20q0 75 -55 129t-129 54h-195v-203q0 -76 58 -130.5t137 -54.5z" />
    <glyph glyph-name="uni062A" unicode="&#x62a;" horiz-adv-x="1802" 
d="M674 1403q73 0 125.5 -52t52.5 -124q0 -73 -52 -125.5t-126 -52.5t-126 52.5t-52 125.5q0 72 52.5 124t125.5 52zM1116 1403q73 0 125.5 -52t52.5 -124q0 -73 -52 -125.5t-126 -52.5t-126 52.5t-52 125.5q0 72 52.5 124t125.5 52zM1700 1024v-739q0 -119 -83 -202
t-202 -83h-883q-195 0 -333 137t-138 330v352h324v-352q0 -63 42.5 -105.5t104.5 -42.5h795q22 0 36.5 15t14.5 37v653h322z" />
    <glyph glyph-name="uni062B" unicode="&#x62b;" horiz-adv-x="1802" 
d="M850 1812q73 0 125.5 -52t52.5 -124q0 -74 -52 -126t-126 -52t-126 52t-52 126q0 72 52.5 124t125.5 52zM633 1403q73 0 125.5 -52t52.5 -124q0 -73 -52.5 -125.5t-125.5 -52.5t-125.5 52.5t-52.5 125.5q0 72 52.5 124t125.5 52zM1075 1403q73 0 125.5 -52t52.5 -124
q0 -73 -52.5 -125.5t-125.5 -52.5t-125.5 52.5t-52.5 125.5q0 72 52.5 124t125.5 52zM1700 1024v-739q0 -119 -83 -202t-202 -83h-883q-195 0 -333 137t-138 330v352h324v-352q0 -63 42.5 -105.5t104.5 -42.5h795q22 0 36.5 15t14.5 37v653h322z" />
    <glyph glyph-name="uni062C" unicode="&#x62c;" horiz-adv-x="1458" 
d="M557 0q-85 0 -145 -60.5t-60 -146.5t60 -146.5t145 -60.5h404v-319h-406q-143 0 -264 70.5t-191.5 191.5t-70.5 264t70.5 264t191.5 191.5t264 70.5h465q-23 31 -23 66v16q0 164 -100 234q-160 129 -502 12l-141 285q178 66 324 87.5t277.5 -8t236.5 -114.5
q223 -181 223 -487v-27q0 -64 37 -64h24v-319h-819zM618 -49q67 0 115.5 -48t48.5 -114q0 -67 -48 -115.5t-116 -48.5q-67 0 -115 48t-48 116q0 66 48 114t115 48z" />
    <glyph glyph-name="uni062D" unicode="&#x62d;" horiz-adv-x="1458" 
d="M520 0q-57 0 -96 -38t-39 -95q0 -55 39.5 -94t95.5 -39h524v-322h-524q-191 0 -325 132.5t-134 322.5t134 321t325 131h504q-11 5 -20 19.5t-9 30.5v26q0 97 -25.5 157.5t-80.5 100.5q-55 43 -166 51.5t-210 -7.5t-151 -40l-81 314q47 13 96 24.5t150 24t188.5 9.5
t190.5 -31t179 -85q35 -28 64 -57t61.5 -75.5t54 -98.5t36 -125.5t14.5 -157.5v-18q0 -29 20.5 -45.5t55.5 -16.5h26v-319h-897z" />
    <glyph glyph-name="uni062E" unicode="&#x62e;" horiz-adv-x="1458" 
d="M717 1556q73 0 125.5 -52t52.5 -124q0 -74 -52.5 -126t-125.5 -52t-125.5 52t-52.5 126q0 72 52.5 124t125.5 52zM520 0q-57 0 -96 -38t-39 -95q0 -55 39.5 -94t95.5 -39h524v-322h-524q-191 0 -325 132.5t-134 322.5t134 321t325 131h504q-11 5 -20 19.5t-9 30.5v24
q0 95 -26 155t-80 103q-41 33 -117.5 46.5t-154.5 8t-147.5 -19t-107.5 -31.5l-81 314q33 9 61.5 16.5t92.5 19.5t120 18t132 6t140.5 -11t134 -38t123.5 -69q35 -28 64 -57t61.5 -75.5t54 -98.5t36 -125.5t14.5 -157.5v-16q0 -29 20.5 -45.5t55.5 -16.5h26v-319h-897z" />
    <glyph glyph-name="uni062F" unicode="&#x62f;" horiz-adv-x="1138" 
d="M653 0h-602v319h602q44 0 68 33q25 37 16 70l-172 602l305 88l177 -606q44 -201 -78 -354q-58 -71 -140.5 -111.5t-175.5 -40.5z" />
    <glyph glyph-name="uni0630" unicode="&#x630;" horiz-adv-x="1138" 
d="M471 1380q0 72 52.5 124t125.5 52t125.5 -52t52.5 -124q0 -74 -52.5 -126t-125.5 -52t-125.5 52t-52.5 126zM653 0h-602v319h602q44 0 68 33q25 37 16 70l-172 602l305 88l177 -606q44 -201 -78 -354q-58 -71 -140.5 -111.5t-175.5 -40.5z" />
    <glyph glyph-name="uni0631" unicode="&#x631;" horiz-adv-x="724" 
d="M623 76q0 -252 -135 -401.5t-402 -161.5l-117 303q194 12 265 66t71 194v948h318v-948z" />
    <glyph glyph-name="uni0632" unicode="&#x632;" horiz-adv-x="739" 
d="M459 1556q73 0 125.5 -52t52.5 -124q0 -74 -52.5 -126t-125.5 -52t-125.5 52t-52.5 126q0 72 52.5 124t125.5 52zM623 76q0 -252 -135 -401.5t-402 -161.5l-117 303q194 12 265 66t71 194v948h318v-948z" />
    <glyph glyph-name="uni0633" unicode="&#x633;" horiz-adv-x="2752" 
d="M2167 0q-187 0 -320 115q-125 -115 -303 -115q-103 0 -182 23v-127q0 -136 -97 -233t-233 -97h-364q-119 0 -227.5 46.5t-187 125t-125 187t-46.5 227.5v421h321v-421q0 -109 78 -187t187 -78h288q35 0 60.5 25.5t25.5 60.5v852h320v-364q0 -63 43.5 -102.5t118.5 -39.5
q79 0 123.5 42.5t44.5 105.5v346h319v-352q0 -68 47.5 -105t122.5 -37q60 0 104 43.5t44 104.5v557h321v-557q0 -197 -139 -332t-344 -135z" />
    <glyph glyph-name="uni0634" unicode="&#x634;" horiz-adv-x="2752" 
d="M1792 1812q73 0 125.5 -52t52.5 -124q0 -74 -52 -126t-126 -52t-126 52t-52 126q0 72 52.5 124t125.5 52zM1575 1403q73 0 125.5 -52t52.5 -124q0 -73 -52.5 -125.5t-125.5 -52.5t-125.5 52.5t-52.5 125.5q0 72 52.5 124t125.5 52zM2017 1403q73 0 125.5 -52t52.5 -124
q0 -73 -52.5 -125.5t-125.5 -52.5t-125.5 52.5t-52.5 125.5q0 72 52.5 124t125.5 52zM2167 0q-187 0 -320 115q-125 -115 -303 -115q-103 0 -182 23v-127q0 -136 -97 -233t-233 -97h-364q-119 0 -227.5 46.5t-187 125t-125 187t-46.5 227.5v421h321v-421q0 -109 78 -187
t187 -78h288q35 0 60.5 25.5t25.5 60.5v852h320v-364q0 -63 43.5 -102.5t118.5 -39.5q79 0 123.5 42.5t44.5 105.5v346h319v-352q0 -68 47.5 -105t122.5 -37q60 0 104 43.5t44 104.5v557h321v-557q0 -197 -139 -332t-344 -135z" />
    <glyph glyph-name="uni0635" unicode="&#x635;" horiz-adv-x="2670" 
d="M2488 750q80 -133 80 -295v-203q0 -103 -73.5 -177.5t-176.5 -74.5h-964v-131q0 -123 -89.5 -213t-213.5 -90h-383q-160 0 -295 78.5t-213 213t-78 294.5v360h317v-360q0 -110 80 -188.5t189 -78.5h305q25 0 44 19t19 45v1075h318v-170l463 141q194 60 384 -9t287 -236z
M2251 373v82q0 74 -37 135q-41 72 -125.5 100t-177.5 2l-557 -168v-205h846q22 0 36.5 15.5t14.5 38.5z" />
    <glyph glyph-name="uni0636" unicode="&#x636;" horiz-adv-x="2670" 
d="M1892 1556q73 0 126 -52t53 -124q0 -73 -52.5 -125.5t-126.5 -52.5t-126 52t-52 126q0 72 52.5 124t125.5 52zM2488 750q80 -133 80 -295v-203q0 -103 -73.5 -177.5t-176.5 -74.5h-964v-131q0 -123 -89.5 -213t-213.5 -90h-383q-160 0 -295 78.5t-213 213t-78 294.5v421
h317v-421q0 -110 80 -188.5t189 -78.5h305q25 0 44 19t19 45v1075h318v-170l463 141q194 60 384 -9t287 -236zM2251 373v82q0 74 -37 135q-41 72 -125.5 100t-177.5 2l-557 -168v-205h846q22 0 36.5 15.5t14.5 38.5z" />
    <glyph glyph-name="uni0637" unicode="&#x637;" horiz-adv-x="1949" 
d="M1788 750q80 -133 80 -295v-203q0 -103 -73.5 -177.5t-176.5 -74.5h-1536v319h254v1115h317v-580l463 141q194 60 384.5 -9t287.5 -236zM1550 373v82q0 74 -37 135q-41 72 -125.5 100t-177.5 2l-557 -168v-205h846q22 0 36.5 15.5t14.5 38.5z" />
    <glyph glyph-name="uni0638" unicode="&#x638;" horiz-adv-x="1949" 
d="M1239 1556q73 0 125.5 -52t52.5 -124q0 -74 -52.5 -126t-125.5 -52t-125.5 52t-52.5 126q0 72 52.5 124t125.5 52zM1788 750q80 -133 80 -295v-203q0 -103 -73.5 -177.5t-176.5 -74.5h-1536v319h254v1115h317v-580l463 141q194 60 384.5 -9t287.5 -236zM1550 373v82
q0 74 -37 135q-41 72 -125.5 100t-177.5 2l-557 -168v-205h846q22 0 36.5 15.5t14.5 38.5z" />
    <glyph glyph-name="uni0639" unicode="&#x639;" horiz-adv-x="1351" 
d="M1249 319v-319h-714q-57 0 -96.5 -39.5t-39.5 -95.5t39.5 -94.5t96.5 -38.5h530v-318h-530q-190 0 -321.5 131.5t-131.5 319.5q0 110 44.5 205t127.5 149l14 10q-50 68 -72 127.5t-22 139.5v8q0 107 42 203.5t113 166t168 110t203 40.5q363 0 492 -324l-225 -157
q-34 70 -105.5 117t-161.5 47q-84 0 -144.5 -58.5t-63.5 -140.5v-8q0 -85 59 -133t149 -48h549z" />
    <glyph glyph-name="uni063A" unicode="&#x63a;" horiz-adv-x="1351" 
d="M698 1556q73 0 126 -52t53 -124q0 -73 -52.5 -125.5t-126.5 -52.5t-126 52t-52 126q0 72 52.5 124t125.5 52zM1249 319v-319h-714q-57 0 -96.5 -39.5t-39.5 -95.5t39.5 -94.5t96.5 -38.5h542v-318h-542q-190 0 -321.5 131.5t-131.5 319.5q0 110 44.5 205t127.5 149l14 10
q-46 34 -70 107t-24 160v8q0 107 42 203.5t113 166t168 110t203 40.5q363 0 492 -324l-225 -157q-34 70 -105.5 117t-161.5 47q-84 0 -144.5 -58.5t-63.5 -140.5v-8q0 -85 59 -133t149 -48h549z" />
    <glyph glyph-name="uni0640" unicode="&#x640;" horiz-adv-x="751" 
d="M-20 319h792v-319h-792v319z" />
    <glyph glyph-name="uni0641" unicode="&#x641;" horiz-adv-x="2074" 
d="M1565 1556q73 0 125.5 -52t52.5 -124q0 -74 -52.5 -126t-125.5 -52q-74 0 -126.5 52.5t-52.5 125.5q0 72 53 124t126 52zM1972 1024v-752q0 -118 -77 -195t-195 -77h-1153q-125 0 -232 62.5t-170 170t-63 234.5v250h317v-250q0 -62 43.5 -105t104.5 -43h450
q-41 90 -41 199q0 134 69.5 250.5t190.5 186t263 69.5h493zM1589 319q26 0 45 19t19 45v324l-174 -2q-84 -1 -144.5 -62t-60.5 -137q0 -81 59 -134t146 -53h110z" />
    <glyph glyph-name="uni0642" unicode="&#x642;" horiz-adv-x="1689" 
d="M817 1556q73 0 125.5 -52t52.5 -124q0 -74 -52.5 -126t-125.5 -52t-125.5 52t-52.5 126q0 72 52.5 124t125.5 52zM1260 1556q73 0 125.5 -52t52.5 -124q0 -74 -52 -126t-126 -52t-126.5 52.5t-52.5 125.5q0 72 53 124t126 52zM1094 1024h493v-1114q0 -143 -101 -244.5
t-245 -101.5h-567q-162 0 -298.5 78.5t-215 214.5t-78.5 297v419h319v-413q0 -112 80.5 -192.5t192.5 -80.5h522q30 0 51 21t21 51v41h-174q-142 0 -262.5 67.5t-190.5 182.5t-70 250v26q0 219 149 358.5t374 139.5zM1094 319h174v416h-174q-89 0 -147 -60t-58 -149v-20
q0 -75 61 -131t144 -56z" />
    <glyph glyph-name="uni0643" unicode="&#x643;" horiz-adv-x="1867" 
d="M1724 1434v-1164q0 -113 -79 -191.5t-193 -78.5h-885q-126 0 -233 62.5t-169.5 169t-62.5 231.5v356h320v-356q0 -60 42.5 -103t102.5 -43h760q32 0 56 23t24 55v1039h317zM1161 1063v-160h-481v160h68q-11 51 -7 78q12 79 71.5 133.5t143.5 54.5q148 0 207 -129
l-123 -94q-22 37 -37 49t-47 12q-22 0 -37.5 -13t-15.5 -32q0 -11 2.5 -22t15.5 -24t35 -13h205z" />
    <glyph glyph-name="uni0644" unicode="&#x644;" horiz-adv-x="1464" 
d="M1008 -397h-338q-160 0 -295 77.5t-214 212.5t-79 295v385h321v-385q0 -110 78.5 -188t188.5 -78h274q41 0 69.5 29t28.5 69v1416l320 -4v-1475q0 -146 -104 -250t-250 -104z" />
    <glyph glyph-name="uni0645" unicode="&#x645;" horiz-adv-x="1300" 
d="M688 0q-94 0 -194 39l-2 -25q-26 -181 -146 -300t-317 -156l-60 311q66 13 110.5 39.5t65 63t28 69.5t7.5 74v909h508q139 0 256.5 -69.5t185.5 -188t68 -256.5v-10q-5 -209 -153 -354.5t-357 -145.5zM688 319q79 0 134.5 51t60.5 128v12q0 78 -56 133t-135 55h-194v-200
q4 -75 59.5 -127t130.5 -52z" />
    <glyph glyph-name="uni0646" unicode="&#x646;" horiz-adv-x="1478" 
d="M1130 -397h-462q-160 0 -295 78.5t-213 213.5t-78 295v383h317v-383q0 -111 78.5 -189.5t190.5 -78.5h286q35 0 59.5 24.5t24.5 59.5v1018h318v-1190q0 -96 -65.5 -163.5t-160.5 -67.5zM668 993q73 0 125.5 -52t52.5 -124q0 -73 -52 -125.5t-126 -52.5t-126.5 52.5
t-52.5 125.5q0 72 53 124t126 52z" />
    <glyph glyph-name="uni0647" unicode="&#x647;" horiz-adv-x="1193" 
d="M86 1024l512 2q211 0 354.5 -141t143.5 -344v-43q0 -135 -68 -250t-182.5 -181t-247.5 -67q-137 -1 -255.5 66.5t-187.5 182.5t-69 249v526zM598 319q78 0 131 52t53 133v20q0 75 -55 129t-129 54h-195v-203q0 -76 58 -130.5t137 -54.5z" />
    <glyph glyph-name="uni0648" unicode="&#x648;" horiz-adv-x="1198" 
d="M1096 1024v-948q0 -240 -164 -387q-119 -113 -271 -148t-477 -33v316q256 0 361.5 18t173.5 80q27 23 43 68l4 10h-166q-105 0 -201 41t-165.5 110.5t-110.5 166t-41 202.5q0 138 69.5 254t189 183t259.5 67h496zM600 319h174v386h-174q-83 0 -142 -53t-59 -132
q0 -84 59.5 -142.5t141.5 -58.5z" />
    <glyph glyph-name="uni0649" unicode="&#x649;" horiz-adv-x="2193" 
d="M2091 1024l-4 -1024h-324l9 705h-281q-24 0 -41.5 -15.5t-17.5 -36.5v-858q0 -95 -67 -163t-161 -68h-528q-160 0 -297 80t-217 217t-80 297v415h326v-415q0 -113 79 -194t189 -81h348q35 0 59.5 24.5t24.5 59.5v686q0 154 111.5 262.5t271.5 108.5h600z" />
    <glyph glyph-name="uni064A" unicode="&#x64a;" horiz-adv-x="2193" 
d="M2091 1024l-4 -1024h-324l9 705h-281q-24 0 -41.5 -15.5t-17.5 -36.5v-858q0 -95 -67 -163t-161 -68h-528q-160 0 -297 80t-217 217t-80 297v415h326v-415q0 -113 79 -194t189 -81h348q35 0 59.5 24.5t24.5 59.5v686q0 154 111.5 262.5t271.5 108.5h600zM690 -575
q73 0 125.5 -52.5t52.5 -124.5q0 -74 -52 -126t-126 -52t-126 52t-52 126q0 72 52.5 124.5t125.5 52.5zM1133 -575q73 0 125.5 -52.5t52.5 -124.5q0 -74 -52.5 -126t-125.5 -52q-74 0 -126.5 52.5t-52.5 125.5q0 72 53 124.5t126 52.5z" />
    <glyph glyph-name="uni064B" unicode="&#x64b;" 
d="M14 2075l426 137v-96l-426 -154v113zM14 1851l426 162v-117l-426 -155v110z" />
    <glyph glyph-name="uni064C" unicode="&#x64c;" 
d="M545 1749q0 -61 -38 -106t-95 -54l-308 -94l-20 96q-12 48 -51 45l-33 -10l-29 86l33 19q62 32 102 13.5t54 -79.5l10 -20l74 24q-21 40 -21 80q0 67 47.5 114.5t114.5 47.5q66 0 113 -47.5t47 -114.5zM389 1692q20 0 35 14t18 37q3 25 -12.5 43t-38.5 18
q-24 0 -40.5 -15.5t-16.5 -37.5q0 -26 15.5 -42.5t39.5 -16.5z" />
    <glyph glyph-name="uni064D" unicode="&#x64d;" 
d="M12 -100l426 137v-96l-426 -154v113zM12 -324l426 162v-117l-426 -155v110z" />
    <glyph glyph-name="uni064E" unicode="&#x64e;" 
d="M104 1761l426 137v-96l-426 -153v112z" />
    <glyph glyph-name="uni064F" unicode="&#x64f;" 
d="M229 2226q66 0 113 -47.5t47 -114.5q0 -111 -133 -159l-244 -86l-41 123l117 43q-20 38 -20 79q0 68 47 115t114 47zM225 2021q22 0 38 17t16 43q0 22 -16 37.5t-38 15.5q-23 0 -39 -15.5t-16 -37.5q0 -26 16 -43t39 -17z" />
    <glyph glyph-name="uni0650" unicode="&#x650;" 
d="M104 -362l426 161v-116l-426 -156v111z" />
    <glyph glyph-name="uni0651" unicode="&#x651;" 
d="M377 1825h139v-158q0 -72 -37 -119t-104 -47q-27 0 -56.5 10.5t-46.5 30.5q-44 -59 -108 -59q-70 0 -117 47.5t-47 116.5v96h139v-96q0 -25 23 -25q11 0 18.5 7.5t7.5 17.5v122h140v-102q0 -25 22 -25q11 0 19 7.5t8 17.5v158z" />
    <glyph glyph-name="uni0652" unicode="&#x652;" 
d="M252 1870q-74 0 -126 52.5t-52 127.5q0 74 52 126t126 52t126 -52t52 -126q0 -75 -52 -127.5t-126 -52.5zM252 1978q28 0 45.5 19.5t17.5 48.5q0 28 -17.5 45.5t-45.5 17.5t-46 -17.5t-18 -45.5q0 -29 18 -48.5t46 -19.5z" />
    <glyph glyph-name="uni0653" unicode="&#x653;" 
d="M82 2050l-84 94l158 103q17 12 38.5 10.5t36.5 -16.5q64 -64 211 -64q15 0 41 5.5t42.5 10t50.5 14.5t36 11l54 -150q-47 -20 -115.5 -38.5t-108.5 -18.5q-139 0 -245 90q-14 14 -31 0z" />
    <glyph glyph-name="uni0658" unicode="&#x658;" 
 />
    <glyph glyph-name="uni0660" unicode="&#x660;" horiz-adv-x="602" 
d="M82 190q0 102 59.5 161t159.5 59q103 0 161 -58.5t58 -161.5q0 -100 -58.5 -159.5t-160.5 -59.5q-100 0 -159.5 59.5t-59.5 159.5z" />
    <glyph glyph-name="uni0661" unicode="&#x661;" horiz-adv-x="630" 
d="M492 1434v-1434h-349v1434h349z" />
    <glyph glyph-name="uni0662" unicode="&#x662;" horiz-adv-x="1306" 
d="M1122 1434v-349l-426 -2q-65 0 -110 -53.5t-45 -122.5v-907h-357v897q0 143 67.5 266.5t184.5 197t256 73.5h430z" />
    <glyph glyph-name="uni0663" unicode="&#x663;" horiz-adv-x="1812" 
d="M1227 504q-188 0 -320 114q-123 -114 -303 -114q-106 0 -182 22v-528h-320v1436h320v-469q0 -63 43.5 -102.5t118.5 -39.5q79 0 123.5 42.5t44.5 105.5v463h319v-469q0 -68 47.5 -105t122.5 -37q60 0 104 43.5t44 104.5v463h321v-463q0 -197 -139 -332t-344 -135z" />
    <glyph glyph-name="uni0664" unicode="&#x664;" horiz-adv-x="1236" 
d="M1135 809v-313h-627q-40 0 -67 -27t-27 -66q0 -40 27 -66t67 -26h469v-311h-469q-85 0 -160.5 33t-129 88t-85 128.5t-31.5 153.5q0 92 35.5 172.5t98.5 129.5l16 12q-72 110 -72 248v8q0 128 65 234.5t172 166.5t230 60q167 0 275.5 -75.5t169.5 -225.5l-228 -160
q-71 149 -217 149q-62 0 -107 -43t-48 -104v-6q0 -64 45.5 -112t109.5 -48h488z" />
    <glyph glyph-name="uni0665" unicode="&#x665;" horiz-adv-x="1429" 
d="M715 -29q-181 0 -319.5 93t-214 262.5t-75.5 390.5t75.5 390t214 262t319.5 93t319 -93t213.5 -262t75.5 -390q0 -335 -167.5 -540.5t-440.5 -205.5zM715 291q112 0 180 117t68 309t-68 309t-180 117t-180 -117t-68 -309t68 -309t180 -117z" />
    <glyph glyph-name="uni0666" unicode="&#x666;" horiz-adv-x="1306" 
d="M184 1434h430q139 0 256 -73.5t184.5 -197t67.5 -266.5v-897h-356v907q0 69 -45.5 122.5t-110.5 53.5l-426 2v349z" />
    <glyph glyph-name="uni0667" unicode="&#x667;" horiz-adv-x="1417" 
d="M1405 1434l-490 -1434h-413l-490 1434h383l314 -1014l313 1014h383z" />
    <glyph glyph-name="uni0668" unicode="&#x668;" horiz-adv-x="1458" 
d="M1446 0h-383l-334 1014l-334 -1014h-383l510 1434h414z" />
    <glyph glyph-name="uni0669" unicode="&#x669;" horiz-adv-x="1200" 
d="M600 1434q134 1 249 -66.5t182 -182.5t67 -249v-936h-324v391l-92 2q-281 0 -437.5 132.5t-156.5 385.5v25q0 135 70.5 250t188.5 181t253 67zM780 711v225q0 72 -52.5 125t-125.5 53q-82 0 -141.5 -59.5t-59.5 -143.5v-12q0 -78 60.5 -133t140.5 -55h178z" />
    <glyph glyph-name="uni066A" unicode="&#x66a;" horiz-adv-x="1433" 
d="M238 1053q-85 0 -141 53.5t-56 136.5q0 84 56 138.5t141 54.5t140.5 -54.5t55.5 -138.5q0 -83 -55.5 -136.5t-140.5 -53.5zM1094 1434h299l-951 -1434h-299zM1071 -29q-85 0 -141 54t-56 137q0 84 56 138t141 54t141 -54t56 -138q0 -83 -56 -137t-141 -54z" />
    <glyph glyph-name="uni066B" unicode="&#x66b;" horiz-adv-x="569" 
d="M154 305h344l-179 -631h-278z" />
    <glyph glyph-name="uni066C" unicode="&#x66c;" horiz-adv-x="569" 
d="M154 305h344l-179 -631h-278z" />
    <glyph glyph-name="uni066D" unicode="&#x66d;" horiz-adv-x="964" 
d="M655 369l181 -224l-199 -143l-156 242l-157 -240l-199 143l182 224l-276 73l75 234l267 -103l-15 287h246l-16 -289l270 103l76 -234z" />
    <glyph glyph-name="uni066E" unicode="&#x66e;" horiz-adv-x="1781" 
d="M1700 1024v-739q0 -119 -83 -202t-202 -83h-883q-195 0 -333 137t-138 330v352h324v-352q0 -63 42.5 -105.5t104.5 -42.5h795q22 0 36.5 15t14.5 37v653h322z" />
    <glyph glyph-name="uni066F" unicode="&#x66f;" horiz-adv-x="1689" 
d="M1094 1057q131 0 244.5 -66.5t181 -182.5t67.5 -253v-645q0 -143 -101 -244.5t-245 -101.5h-567q-162 0 -298.5 78.5t-215 214.5t-78.5 297v419h319v-413q0 -112 80.5 -192.5t192.5 -80.5h522q30 0 51 21t21 51v41h-174q-142 0 -262.5 67.5t-190.5 182.5t-70 250v26
q0 146 68 267.5t188.5 192.5t266.5 71zM1094 319h174v236q0 74 -52.5 127t-121.5 53q-89 0 -147 -60t-58 -149v-20q0 -75 61 -131t144 -56z" />
    <glyph glyph-name="uni0671" unicode="&#x671;" horiz-adv-x="606" 
d="M143 0v1434h320v-1434h-320z" />
    <glyph glyph-name="uni0679" unicode="&#x679;" horiz-adv-x="1781" 
d="M614 1049v135h95v370h135v-223q75 68 153 68q90 0 138.5 -57.5t48.5 -165.5v-127h-570zM979 1264q-70 0 -135 -76v-4h207q-2 37 -21 58.5t-51 21.5zM1378 1024h322v-739q0 -119 -83 -202t-202 -83h-883q-195 0 -333 137t-138 330v352h324v-352q0 -63 42.5 -105.5
t104.5 -42.5h795q22 0 36.5 15t14.5 37v653z" />
    <glyph glyph-name="uni067E" unicode="&#x67e;" horiz-adv-x="1781" 
d="M1700 1024v-739q0 -119 -83 -202t-202 -83h-883q-195 0 -333 137t-138 330v352h324v-352q0 -63 42.5 -105.5t104.5 -42.5h795q22 0 36.5 15t14.5 37v653h322zM670 -524q-73 0 -125.5 52t-52.5 124q0 74 52 126t126 52t126 -52t52 -126q0 -72 -52.5 -124t-125.5 -52z
M1112 -524q-73 0 -125.5 52t-52.5 124q0 74 52 126t126 52t126 -52t52 -126q0 -72 -52.5 -124t-125.5 -52zM887 -934q-73 0 -125.5 52t-52.5 124q0 74 52.5 126t125.5 52t125.5 -52t52.5 -126q0 -72 -52.5 -124t-125.5 -52z" />
    <glyph glyph-name="uni0686" unicode="&#x686;" horiz-adv-x="1458" 
d="M557 0q-85 0 -145 -60.5t-60 -146.5t60 -146.5t145 -60.5h404v-319h-406q-143 0 -264 70.5t-191.5 191.5t-70.5 264t70.5 264t191.5 191.5t264 70.5h465q-23 31 -23 66v14q0 164 -100 234q-160 129 -502 12l-141 285q178 66 324 87.5t277.5 -8t236.5 -114.5
q223 -181 223 -498v-14q0 -64 37 -64h24v-319h-819zM608 -205q-31 0 -52 21.5t-21 52.5t21 52.5t52 21.5t52.5 -21.5t21.5 -52.5t-21.5 -52.5t-52.5 -21.5zM791 -205q-31 0 -52.5 21.5t-21.5 52.5t21.5 52.5t52.5 21.5t52 -21.5t21 -52.5t-21 -52.5t-52 -21.5zM698 -375
q-31 0 -52 21.5t-21 52.5t21 52.5t52 21.5t52.5 -21.5t21.5 -52.5t-21.5 -52.5t-52.5 -21.5z" />
    <glyph glyph-name="uni0688" unicode="&#x688;" horiz-adv-x="1138" 
d="M430 1159v135h94v371h135v-223q74 67 154 67q90 0 138 -57.5t48 -165.5v-127h-569zM795 1374q-71 0 -136 -76v-4h207q-2 37 -20.5 58.5t-50.5 21.5zM1047 506q44 -201 -78 -354q-58 -71 -140.5 -111.5t-175.5 -40.5h-602v319h602q44 0 68 33q25 37 16 70l-172 602l305 88
z" />
    <glyph glyph-name="uni0691" unicode="&#x691;" horiz-adv-x="724" 
d="M563 1473q90 0 138.5 -58t48.5 -166v-127h-570v135h94v371h136v-223q75 68 153 68zM410 1262v-5h206q-2 37 -20.5 58.5t-50.5 21.5q-71 0 -135 -75zM305 76v948h318v-948q0 -252 -135 -401.5t-402 -161.5l-117 303q194 12 265 66t71 194z" />
    <glyph glyph-name="uni0698" unicode="&#x698;" horiz-adv-x="724" 
d="M436 1966q73 0 125.5 -52t52.5 -124q0 -74 -52 -126t-126 -52t-126 52t-52 126q0 72 52.5 124t125.5 52zM219 1556q73 0 125.5 -52t52.5 -124q0 -74 -52.5 -126t-125.5 -52t-125.5 52t-52.5 126q0 72 52.5 124t125.5 52zM662 1556q73 0 125.5 -52t52.5 -124
q0 -74 -52 -126t-126 -52t-126.5 52.5t-52.5 125.5q0 72 53 124t126 52zM623 76q0 -252 -135 -401.5t-402 -161.5l-117 303q194 12 265 66t71 194v948h318v-948z" />
    <glyph glyph-name="uni06A1" unicode="&#x6a1;" horiz-adv-x="2074" 
d="M1972 1024v-752q0 -118 -77 -195t-195 -77h-1153q-125 0 -232 62.5t-170 170t-63 234.5v250h317v-250q0 -62 43.5 -105t104.5 -43h450q-41 90 -41 199q0 134 69.5 250.5t190.5 186t263 69.5h493zM1589 319q26 0 45 19t19 45v324l-174 -2q-84 -1 -144.5 -62t-60.5 -137
q0 -81 59 -134t146 -53h110z" />
    <glyph glyph-name="uni06A4" unicode="&#x6a4;" horiz-adv-x="2074" 
d="M1556 1917q73 0 126 -52t53 -124q0 -73 -52.5 -125.5t-126.5 -52.5t-126 52.5t-52 125.5q0 72 52.5 124t125.5 52zM1339 1507q73 0 126 -52t53 -124q0 -73 -52.5 -125.5t-126.5 -52.5q-73 0 -125.5 52.5t-52.5 125.5q0 72 52.5 124t125.5 52zM1782 1507q73 0 125.5 -52
t52.5 -124q0 -73 -52 -125.5t-126 -52.5t-126 52.5t-52 125.5q0 72 52.5 124t125.5 52zM1972 1024v-752q0 -118 -77 -195t-195 -77h-1153q-125 0 -232 62.5t-170 170t-63 234.5v250h317v-250q0 -62 43.5 -105t104.5 -43h450q-41 90 -41 199q0 134 69.5 250.5t190.5 186
t263 69.5h493zM1589 319q26 0 45 19t19 45v324l-174 -2q-84 -1 -144.5 -62t-60.5 -137q0 -81 59 -134t146 -53h110z" />
    <glyph glyph-name="uni06A9" unicode="&#x6a9;" horiz-adv-x="2179" 
d="M1509 1032q115 0 220.5 -44.5t181.5 -120.5t121 -181.5t45 -222.5v-463h-1524q-195 0 -333 137t-138 330v350h324v-350q0 -63 42.5 -105.5t104.5 -42.5h1204v121q0 113 -78.5 191t-189.5 78h-447l-237 350l409 571l263 -186l-295 -412h327z" />
    <glyph glyph-name="uni06AF" unicode="&#x6af;" horiz-adv-x="2179" 
d="M1104 1675l-383 -508l-100 93l374 497zM1509 1032q115 0 220.5 -44.5t181.5 -120.5t121 -181.5t45 -222.5v-463h-1524q-195 0 -333 137t-138 330v350h324v-350q0 -63 42.5 -105.5t104.5 -42.5h1204v121q0 113 -78.5 191t-189.5 78h-447l-237 350l409 571l263 -186
l-295 -412h327z" />
    <glyph glyph-name="uni06BA" unicode="&#x6ba;" horiz-adv-x="1478" 
d="M1130 -397h-462q-160 0 -295 78.5t-213 213.5t-78 295v383h317v-383q0 -111 78.5 -189.5t190.5 -78.5h286q35 0 59.5 24.5t24.5 59.5v1018h318v-1190q0 -96 -65.5 -163.5t-160.5 -67.5z" />
    <glyph glyph-name="uni06BE" unicode="&#x6be;" horiz-adv-x="1634" 
d="M770 1339q160 -26 299 -105t242 -198.5t162 -283t59 -349.5v-104q0 -123 -88 -211t-211 -88h-1253v317h206q-43 94 -43 209q0 125 68 223.5t180.5 150.5t245.5 52q141 0 256.5 -70.5t180.5 -190.5t65 -263v-2q0 -52 -13 -109h50q17 0 27.5 11t10.5 28v47
q0 250 -135 419.5t-356 203.5q-94 14 -299 14v316q32 0 80 -0.5t61.5 -0.5t43 -1t38.5 -1.5t32.5 -2.5t41 -4.5t49.5 -6.5zM637 635q-63 0 -118.5 -41.5t-55.5 -112.5t44.5 -117.5t92.5 -46.5h164q24 0 41.5 17t17.5 41v84q0 58 -53 116.5t-133 59.5z" />
    <glyph glyph-name="uni06C1" unicode="&#x6c1;" horiz-adv-x="1193" 
d="M86 1024l512 2q211 0 354.5 -141t143.5 -344v-43q0 -135 -68 -250t-182.5 -181t-247.5 -67q-137 -1 -255.5 66.5t-187.5 182.5t-69 249v526zM598 319q78 0 131 52t53 133v20q0 75 -55 129t-129 54h-195v-203q0 -76 58 -130.5t137 -54.5z" />
    <glyph glyph-name="uni06C2" unicode="&#x6c2;" horiz-adv-x="1193" 
d="M766 1333v-159h-481v159h67q-11 48 -6 78q12 79 71.5 133.5t143.5 54.5q70 0 124 -33t83 -96l-123 -94q-22 37 -37 49.5t-47 12.5q-22 0 -37.5 -13t-15.5 -32q0 -11 2.5 -22.5t15.5 -24.5t35 -13h205zM86 1024l512 2q211 0 354.5 -141t143.5 -344v-43q0 -135 -68 -250
t-182.5 -181t-247.5 -67q-137 -1 -255.5 66.5t-187.5 182.5t-69 249v526zM598 319q78 0 131 52t53 133v20q0 75 -55 129t-129 54h-195v-203q0 -76 58 -130.5t137 -54.5z" />
    <glyph glyph-name="uni06C3" unicode="&#x6c3;" horiz-adv-x="1193" 
d="M352 1556q73 0 125.5 -52t52.5 -124q0 -74 -52 -126t-126 -52t-126 52t-52 126q0 72 52.5 124t125.5 52zM795 1556q73 0 125.5 -52t52.5 -124q0 -74 -52.5 -126t-125.5 -52q-74 0 -126.5 52.5t-52.5 125.5q0 72 53 124t126 52zM86 1024l512 2q211 0 354.5 -141
t143.5 -344v-43q0 -135 -68 -250t-182.5 -181t-247.5 -67q-137 -1 -255.5 66.5t-187.5 182.5t-69 249v526zM598 319q78 0 131 52t53 133v20q0 75 -55 129t-129 54h-195v-203q0 -76 58 -130.5t137 -54.5z" />
    <glyph glyph-name="uni06CC" unicode="&#x6cc;" horiz-adv-x="2193" 
d="M2091 1024l-4 -1024h-324l9 705h-281q-24 0 -41.5 -15.5t-17.5 -36.5v-858q0 -95 -67 -163t-161 -68h-528q-160 0 -297 80t-217 217t-80 297v415h326v-415q0 -113 79 -194t189 -81h348q35 0 59.5 24.5t24.5 59.5v686q0 154 111.5 262.5t271.5 108.5h600z" />
    <glyph glyph-name="uni06D2" unicode="&#x6d2;" horiz-adv-x="1384" 
d="M485 0q-93 0 -175 40.5t-140 111.5q-122 153 -78 354l109 371l305 -89l-105 -366q-8 -32 17 -70q24 -33 67 -33h920v-319h-920z" />
    <glyph glyph-name="uni06D3" unicode="&#x6d3;" horiz-adv-x="1384" 
d="M623 1184v-160h-482v160h68q-11 48 -6 78q12 79 71.5 133.5t143.5 54.5q148 0 207 -129l-123 -94q-22 37 -37 49t-47 12q-22 0 -37.5 -13t-15.5 -32q0 -11 2.5 -22t15.5 -24t35 -13h205zM485 0q-93 0 -175 40.5t-140 111.5q-122 153 -78 354l109 371l305 -89l-105 -366
q-8 -32 17 -70q24 -33 67 -33h920v-319h-920z" />
    <glyph glyph-name="uni06D4" unicode="&#x6d4;" horiz-adv-x="1228" 
 />
    <glyph glyph-name="uni06F0" unicode="&#x6f0;" horiz-adv-x="602" 
d="M82 190q0 102 59.5 161t159.5 59q103 0 161 -58.5t58 -161.5q0 -100 -58.5 -159.5t-160.5 -59.5q-100 0 -159.5 59.5t-59.5 159.5z" />
    <glyph glyph-name="uni06F1" unicode="&#x6f1;" horiz-adv-x="630" 
d="M492 1434v-1434h-349v1434h349z" />
    <glyph glyph-name="uni06F2" unicode="&#x6f2;" horiz-adv-x="1306" 
d="M1122 1434v-349l-426 -2q-65 0 -110 -53.5t-45 -122.5v-907h-357v897q0 143 67.5 266.5t184.5 197t256 73.5h430z" />
    <glyph glyph-name="uni06F3" unicode="&#x6f3;" horiz-adv-x="1812" 
d="M1227 504q-188 0 -320 114q-123 -114 -303 -114q-106 0 -182 22v-528h-320v1436h320v-469q0 -63 43.5 -102.5t118.5 -39.5q79 0 123.5 42.5t44.5 105.5v463h319v-469q0 -68 47.5 -105t122.5 -37q60 0 104 43.5t44 104.5v463h321v-463q0 -197 -139 -332t-344 -135z" />
    <glyph glyph-name="uni06F4" unicode="&#x6f4;" horiz-adv-x="1734" 
d="M1632 692v-319h-1181v-373h-349v1434h349v-742h200q-49 35 -71.5 82t-22.5 127v8q0 143 71 263t192 189t263 69q363 0 492 -324l-225 -158q-34 70 -105.5 117t-161.5 47q-84 0 -145 -58.5t-64 -140.5v-8q0 -88 61.5 -150.5t147.5 -62.5h549z" />
    <glyph glyph-name="uni06F5" unicode="&#x6f5;" horiz-adv-x="1470" 
d="M940 -29q-106 0 -186 47q-77 -47 -193 -47q-115 0 -209.5 58t-154.5 164q-95 170 -95 411q0 148 36 292t102 259q83 149 204.5 228t264.5 79q150 0 279.5 -85.5t223.5 -246.5q73 -126 114.5 -282.5t41.5 -308.5q0 -228 -88 -371q-56 -94 -144 -145.5t-196 -51.5zM907 373
q0 -45 12 -70t31 -27q16 -2 34 11.5t32 40.5q43 70 43 211q0 111 -30.5 227.5t-84.5 206.5q-16 30 -37 57.5t-50.5 57t-68 47.5t-79.5 18q-111 0 -195 -139q-47 -82 -74.5 -191.5t-27.5 -218.5q0 -80 19.5 -166t60.5 -127q30 -30 69 -30q14 0 22.5 5t11.5 16t4 18.5t0 24
t-1 20.5l-2 188h309z" />
    <glyph glyph-name="uni06F6" unicode="&#x6f6;" horiz-adv-x="1351" 
d="M1249 696v-319h-714q-49 0 -86 -30t-46 -75l-4 -272h-317l2 274q6 101 50 186.5t120 135.5l14 10q-94 128 -94 299v8q0 143 71 263t192 189t263 69q363 0 492 -324l-225 -158q-34 70 -105.5 117t-161.5 47q-84 0 -144.5 -58t-63.5 -140v-9q0 -88 61 -150.5t147 -62.5h549
z" />
    <glyph glyph-name="uni06F7" unicode="&#x6f7;" horiz-adv-x="1417" 
d="M1405 1434l-490 -1434h-413l-490 1434h383l314 -1014l313 1014h383z" />
    <glyph glyph-name="uni06F8" unicode="&#x6f8;" horiz-adv-x="1458" 
d="M1446 0h-383l-334 1014l-334 -1014h-383l510 1434h414z" />
    <glyph glyph-name="uni06F9" unicode="&#x6f9;" horiz-adv-x="1200" 
d="M600 1434q134 1 249 -66.5t182 -182.5t67 -249v-936h-324v391l-92 2q-281 0 -437.5 132.5t-156.5 385.5v25q0 135 70.5 250t188.5 181t253 67zM780 711v225q0 72 -52.5 125t-125.5 53q-82 0 -141.5 -59.5t-59.5 -143.5v-12q0 -78 60.5 -133t140.5 -55h178z" />
    <glyph glyph-name="uni1E20" unicode="&#x1e20;" horiz-adv-x="1554" 
d="M1169 1589h-708v266h708v-266zM1462 842l-2 -555q-102 -148 -265.5 -232t-356.5 -84q-184 0 -330 58t-238 159.5t-140 235t-48 289.5t50.5 291.5t144 237t238.5 160t323 58.5q173 0 325.5 -73.5t259.5 -200.5l-290 -205q-56 68 -132 106.5t-163 38.5q-181 0 -284 -117
t-103 -296q0 -177 101.5 -293.5t285.5 -116.5q201 0 299 125v123h-279v291h604z" />
    <glyph glyph-name="uni1E21" unicode="&#x1e21;" horiz-adv-x="1308" 
d="M307 1470h709v-266h-709v266zM1190 1024v-901q0 -252 -163.5 -406.5t-430.5 -154.5q-143 0 -281 43.5t-223 115.5l148 248q70 -49 161 -78.5t170 -29.5q293 0 293 297v16q-36 -69 -133.5 -112.5t-202.5 -43.5q-209 0 -335.5 146.5t-126.5 384.5q0 223 126.5 359
t335.5 136q107 0 194 -32t122 -84v96h346zM635 313q100 0 160.5 65t60.5 171t-60.5 170.5t-160.5 64.5t-160.5 -64.5t-60.5 -170.5t60.5 -171t160.5 -65z" />
    <glyph glyph-name="uni1E30" unicode="&#x1e30;" horiz-adv-x="1447" 
d="M862 1573h-330l232 350h338zM1448 1434l-578 -717l578 -717h-440l-379 473l-133 -137v-336h-357v1434h357v-641l522 641h430z" />
    <glyph glyph-name="uni1E31" unicode="&#x1e31;" horiz-adv-x="1193" 
d="M477 1638h-330l232 351h338zM791 0l-246 328l-82 -99v-229h-344v1499h344v-876l338 401h397l-395 -475l395 -549h-407z" />
    <glyph glyph-name="uni1E3E" unicode="&#x1e3e;" horiz-adv-x="1910" 
d="M1065 1573h-330l232 350h338zM1772 1434v-1434h-353v940l-340 -940h-264l-323 940v-940h-353v1434h463l346 -1026l373 1026h451z" />
    <glyph glyph-name="uni1E3F" unicode="&#x1e3f;" horiz-adv-x="1875" 
d="M956 1188h-329l231 350h338zM1417 1044q157 0 252.5 -103.5t95.5 -272.5v-668h-344v582q0 71 -41.5 115t-105.5 44q-74 0 -117 -50t-43 -134v-557h-344v582q0 70 -44.5 114.5t-109.5 44.5q-74 0 -113.5 -49.5t-39.5 -134.5v-557h-344v1024h336v-141q40 72 126.5 116.5
t188.5 44.5q105 0 189 -49.5t116 -130.5q40 81 134 130.5t208 49.5z" />
    <glyph glyph-name="uni1E40" unicode="&#x1e40;" horiz-adv-x="1910" 
d="M956 1559q-85 0 -144.5 58.5t-59.5 143.5q0 83 60 143t144 60q82 0 141.5 -60t59.5 -143q0 -84 -59.5 -143t-141.5 -59zM1772 1434v-1434h-353v940l-340 -940h-264l-323 940v-940h-353v1434h463l346 -1026l373 1026h451z" />
    <glyph glyph-name="uni1E41" unicode="&#x1e41;" horiz-adv-x="1875" 
d="M750 1372q0 90 57 144.5t151 54.5t151.5 -54.5t57.5 -144.5t-57.5 -144t-151.5 -54t-151 54t-57 144zM1417 1044q157 0 252.5 -103.5t95.5 -272.5v-668h-344v582q0 71 -41.5 115t-105.5 44q-74 0 -117 -50t-43 -134v-557h-344v582q0 70 -44.5 114.5t-109.5 44.5
q-74 0 -113.5 -49.5t-39.5 -134.5v-557h-344v1024h336v-141q40 72 126.5 116.5t188.5 44.5q105 0 189 -49.5t116 -130.5q40 81 134 130.5t208 49.5z" />
    <glyph glyph-name="uni1E44" unicode="&#x1e44;" horiz-adv-x="1599" 
d="M801 1559q-85 0 -145 59t-60 143q0 83 60 143t145 60q82 0 141 -60t59 -143q0 -84 -59 -143t-141 -59zM1460 1434v-1434h-336l-632 854v-854h-353v1434h336l633 -854v854h352z" />
    <glyph glyph-name="uni1E45" unicode="&#x1e45;" horiz-adv-x="1241" 
d="M416 1372q0 90 57.5 144.5t151.5 54.5t151.5 -54.5t57.5 -144.5t-57.5 -144t-151.5 -54t-151.5 54t-57.5 144zM776 1053q148 0 251 -103.5t103 -251.5v-698h-344v578q0 67 -46.5 114t-114.5 49q-68 0 -116 -48t-48 -115l2 -578h-344v1024h336v-141q43 76 131.5 123
t189.5 47z" />
    <glyph glyph-name="Wgrave" unicode="&#x1e80;" horiz-adv-x="2191" 
d="M991 1573l-239 350h338l231 -350h-330zM1780 1434h383l-416 -1434h-391l-260 743l-260 -743h-392l-415 1434h383l250 -930l344 930h178l346 -930z" />
    <glyph glyph-name="wgrave" unicode="&#x1e81;" horiz-adv-x="1781" 
d="M707 1188l-240 350h338l231 -350h-329zM1761 1024l-311 -1024h-383l-176 600l-176 -600h-383l-312 1024h353l168 -618l192 618h316l192 -618l168 618h352z" />
    <glyph glyph-name="Wacute" unicode="&#x1e82;" horiz-adv-x="2191" 
d="M1276 1573h-330l232 350h338zM1780 1434h383l-416 -1434h-391l-260 743l-260 -743h-392l-415 1434h383l250 -930l344 930h178l346 -930z" />
    <glyph glyph-name="wacute" unicode="&#x1e83;" horiz-adv-x="1781" 
d="M1085 1188h-329l231 350h334zM1767 1024l-317 -1024h-383l-176 600l-176 -600h-383l-305 1024h352l162 -618l198 618h316l186 -618l174 618h352z" />
    <glyph glyph-name="Wdieresis" unicode="&#x1e84;" horiz-adv-x="2191" 
d="M840 1559q-85 0 -145 59t-60 143q0 83 60 143t145 60q82 0 141 -60t59 -143q0 -84 -59 -143t-141 -59zM1352 1559q-85 0 -145 59t-60 143q0 83 60 143t145 60q82 0 141 -60t59 -143q0 -84 -59 -143t-141 -59zM1780 1434h383l-416 -1434h-391l-260 743l-260 -743h-392
l-415 1434h383l250 -930l344 930h178l346 -930z" />
    <glyph glyph-name="wdieresis" unicode="&#x1e85;" horiz-adv-x="1781" 
d="M430 1376q0 83 60 143t145 60q82 0 141.5 -60t59.5 -143q0 -84 -59.5 -143t-141.5 -59q-85 0 -145 59t-60 143zM942 1376q0 83 60 143t145 60q82 0 141.5 -60t59.5 -143q0 -84 -59.5 -143t-141.5 -59q-85 0 -145 59t-60 143zM1761 1049l-311 -1049h-383l-176 600
l-176 -600h-383l-312 1049h353l168 -643l192 643h316l192 -643l168 643h352z" />
    <glyph glyph-name="uni1E90" unicode="&#x1e90;" horiz-adv-x="1253" 
d="M500 1573h-342l299 350h340l299 -350h-342l-127 158zM1176 319v-319h-1098v266l622 848h-610v320h1077v-267l-622 -848h631z" />
    <glyph glyph-name="uni1E91" unicode="&#x1e91;" horiz-adv-x="1028" 
d="M641 1188l-127 158l-127 -158h-342l299 350h340l299 -350h-342zM958 291v-291h-892v225l442 533h-426v291h872v-226l-442 -532h446z" />
    <glyph glyph-name="Ygrave" unicode="&#x1ef2;" horiz-adv-x="1363" 
d="M578 1573l-240 350h338l231 -350h-329zM1380 1434l-518 -881v-553h-360v553l-518 881h407l291 -539l291 539h407z" />
    <glyph glyph-name="ygrave" unicode="&#x1ef3;" horiz-adv-x="1161" 
d="M477 1188l-239 350h337l232 -350h-330zM1149 1049l-432 -1172q-57 -154 -160 -220.5t-281 -66.5h-239v308h178q97 0 135.5 19.5t57.5 76.5l8 24l-404 1031h369l209 -635l190 635h369z" />
    <glyph glyph-name="uni2000" unicode="&#x2000;" horiz-adv-x="1024" 
 />
    <glyph glyph-name="uni2001" unicode="&#x2001;" horiz-adv-x="2048" 
 />
    <glyph glyph-name="uni2002" unicode="&#x2002;" horiz-adv-x="1024" 
 />
    <glyph glyph-name="uni2003" unicode="&#x2003;" horiz-adv-x="2048" 
 />
    <glyph glyph-name="uni2009" unicode="&#x2009;" horiz-adv-x="409" 
 />
    <glyph glyph-name="uni200A" unicode="&#x200a;" horiz-adv-x="122" 
 />
    <glyph glyph-name="uni200B" unicode="&#x200b;" 
 />
    <glyph glyph-name="endash" unicode="&#x2013;" horiz-adv-x="1146" 
d="M61 727h1024v-287h-1024v287z" />
    <glyph glyph-name="emdash" unicode="&#x2014;" horiz-adv-x="2172" 
d="M61 727h2050v-287h-2050v287z" />
    <glyph glyph-name="quoteleft" unicode="&#x2018;" horiz-adv-x="540" 
d="M205 1462h295l-111 -569h-348z" />
    <glyph glyph-name="quoteright" unicode="&#x2019;" horiz-adv-x="540" 
d="M336 893h-295l111 569h348z" />
    <glyph glyph-name="quotesinglbase" unicode="&#x201a;" horiz-adv-x="530" 
d="M315 -305h-295l111 569h348z" />
    <glyph glyph-name="quotedblleft" unicode="&#x201c;" horiz-adv-x="1005" 
d="M205 1462h295l-111 -569h-348zM670 1462h295l-111 -569h-348z" />
    <glyph glyph-name="quotedblright" unicode="&#x201d;" horiz-adv-x="1005" 
d="M336 893h-295l111 569h348zM801 893h-295l110 569h349z" />
    <glyph glyph-name="quotedblbase" unicode="&#x201e;" horiz-adv-x="995" 
d="M315 -305h-295l111 569h348zM780 -305h-295l111 569h348z" />
    <glyph glyph-name="dagger" unicode="&#x2020;" horiz-adv-x="1060" 
d="M989 774h-295v-1040h-327v1040h-295v303h295v439h327v-439h295v-303z" />
    <glyph glyph-name="daggerdbl" unicode="&#x2021;" horiz-adv-x="1101" 
d="M715 774v-311h254v-303h-254v-426h-328v426h-254v303h254v311h-295v303h295v439h328v-439h295v-303h-295z" />
    <glyph glyph-name="bullet" unicode="&#x2022;" horiz-adv-x="1044" 
d="M164 729q0 151 103 254.5t255 103.5t255.5 -103.5t103.5 -254.5t-103.5 -254.5t-255.5 -103.5t-255 103.5t-103 254.5z" />
    <glyph glyph-name="ellipsis" unicode="&#x2026;" horiz-adv-x="1751" 
d="M82 190q0 102 59.5 161t159.5 59q103 0 161 -58.5t58 -161.5q0 -100 -58.5 -159.5t-160.5 -59.5q-100 0 -159.5 59.5t-59.5 159.5zM657 190q0 102 60 161t160 59q103 0 161 -58.5t58 -161.5q0 -100 -58.5 -159.5t-160.5 -59.5q-100 0 -160 59.5t-60 159.5zM1231 190
q0 102 59.5 161t159.5 59q103 0 161 -58.5t58 -161.5q0 -100 -58.5 -159.5t-160.5 -59.5q-100 0 -159.5 59.5t-59.5 159.5z" />
    <glyph glyph-name="perthousand" unicode="&#x2030;" horiz-adv-x="2752" 
d="M436 692q-171 0 -283 109t-112 276t112 276t283 109t283 -109t112 -276t-112 -276t-283 -109zM1264 1434h299l-951 -1434h-299zM436 930q62 0 99.5 40.5t37.5 106.5t-38 107t-99 41t-99 -41t-38 -107t37.5 -106.5t99.5 -40.5zM1440 -29q-171 0 -283.5 109t-112.5 276
t112.5 276t283.5 109t283 -109t112 -276t-112 -276t-283 -109zM2316 -29q-171 0 -283 109t-112 276t112 276t283 109t283.5 -109t112.5 -276t-112.5 -276t-283.5 -109zM1440 209q62 0 99.5 40.5t37.5 106.5t-38 107t-99 41t-99 -41t-38 -107t37.5 -106.5t99.5 -40.5z
M2316 209q62 0 100 40.5t38 106.5t-38 107t-100 41q-61 0 -99 -41t-38 -107t37.5 -106.5t99.5 -40.5z" />
    <glyph glyph-name="guilsinglleft" unicode="&#x2039;" horiz-adv-x="751" 
d="M391 524l320 -458h-359l-321 458l321 459h359z" />
    </font>
</defs>
</svg>
