<?xml version="1.0" standalone="no"?>
<!DOCTYPE svg PUBLIC "-//W3C//DTD SVG 1.1//EN" "http://www.w3.org/Graphics/SVG/1.1/DTD/svg11.dtd" >
<svg xmlns="http://www.w3.org/2000/svg" xmlns:xlink="http://www.w3.org/1999/xlink" version="1.1">
<metadata>
Created by FontForge 20170731 at Sat May 27 13:23:44 2023
 By Aleksey,,,
Copyright (c) 2021 by __Designer__. All rights reserved.
</metadata>
<defs>
<font id="LamaSans-ThinItalic" horiz-adv-x="0" >
  <font-face 
    font-family="Lama Sans Thin Italic"
    font-weight="100"
    font-style="italic"
    font-stretch="normal"
    units-per-em="2048"
    panose-1="0 0 2 0 0 0 0 0 0 0"
    ascent="1638"
    descent="-410"
    x-height="1022"
    cap-height="1434"
    bbox="-1028.76 -831 2828 2152"
    underline-thickness="102"
    underline-position="-347"
    unicode-range="U+000D-FEFC"
  />
<missing-glyph horiz-adv-x="972" 
d="M799 1434v-1946h-619v1946h619zM647 1303h-319v-64h125v-72h-127v-63h321v63h-127v72h127v64zM520 1053h-194v-203h321v65h-127v138zM453 987v-72h-64v72h64zM647 797h-321v-64h127v-71h-127v-64h194v135h127v64zM647 680h-63v-127h-258v-68h321v195zM647 442h-194v-108
h67v45h64v-92h-195v155h-63v-219h321v219zM647 106h-321v-219h321v219zM584 43v-92h-195v92h195zM647 -158h-321v-63h135l-135 -92v-64h321v64h-198l137 92h61v63z" />
    <glyph glyph-name="uniFDF2" unicode="&#x627;&#xfedf;&#xfee0;&#xfeea;" horiz-adv-x="2881" arabic-form="isolated" 
d="M1311 1796h-33l-47 217l31 15zM1274 1493q-49 0 -86 30.5t-51 96.5l-15 66h33l14 -66q21 -92 99 -92q71 0 47 114l-23 107h33l23 -104q7 -34 34 -53t56 -19q95 0 71 119l-24 110h33l24 -110q17 -76 -11 -117t-85 -41q-48 0 -90 49q1 -41 -23.5 -65.5t-58.5 -24.5z
M2525 1434l303 -1434h-30l-304 1434h31zM2087 1419l254 -1196q20 -93 -30.5 -158t-143.5 -65h-244q-74 0 -142.5 43.5t-109.5 112.5q-11 -68 -62.5 -112t-125.5 -44h-142q-114 0 -217 73t-149 183q-19 -114 -103.5 -185t-207.5 -71q-161 0 -299 114t-172 275l-27 121
q-34 163 56 277t251 114h387l123 -579q26 -120 129 -205.5t223 -85.5h142q83 0 130.5 61.5t30.5 147.5l-252 1179h31l252 -1179q17 -86 90 -147.5t158 -61.5h237q82 0 127.5 56.5t28.5 135.5l-254 1196h31zM657 31q148 0 230.5 104.5t50.5 253.5l-102 481h-357
q-149 0 -231 -104.5t-51 -255.5l26 -121q32 -149 158.5 -253.5t275.5 -104.5z" />
    <glyph glyph-name="uniFEF5" unicode="&#xfedf;&#xfe82;" horiz-adv-x="1169" arabic-form="isolated" 
d="M1069 223q20 -93 -30.5 -158t-143.5 -65h-627l-6 31h334l-209 979h31l209 -979h256q82 0 127 56t28 136l-254 1196h31zM180 1176l-28 30l88 80q11 11 26 -4q26 -26 78 -45.5t100 -19.5q33 0 82 18t80 39l29 -31q-32 -26 -87 -45.5t-95 -19.5q-99 0 -183 59q-16 6 -24 -2z
" />
    <glyph glyph-name="uniFEF6" unicode="&#xfee0;&#xfe82;" horiz-adv-x="1257" arabic-form="final" 
d="M1427 16q1 -6 -3.5 -11t-10.5 -5h-92q-74 0 -142.5 43.5t-109.5 112.5q-11 -68 -62.5 -112t-125.5 -44h-613l-6 31h334l-207 979h31l207 -979h247q83 0 131 61.5t31 147.5l-252 1179h31l252 -1179q17 -86 90 -147.5t158 -61.5h92q17 0 20 -15zM111 1188l-29 31l88 79
q5 4 13 3t14 -7q26 -26 78 -45.5t100 -19.5q33 0 82 18t80 39l28 -31q-32 -26 -87 -45.5t-95 -19.5q-98 0 -182 59q-16 7 -25 -2z" />
    <glyph glyph-name="uniFEF7" unicode="&#xfedf;&#xfe84;" horiz-adv-x="1247" arabic-form="isolated" 
d="M575 1217l7 -27h-297l-6 27h71q-70 48 -84 116q-15 68 19.5 112t93.5 44q61 0 113 -45t63 -98h-29q-9 44 -52 79t-89 35q-51 0 -75.5 -35t-12.5 -92q11 -48 50.5 -82t88.5 -34h139zM1147 223q20 -93 -30.5 -158t-143.5 -65h-627l-6 31h334l-209 979h31l209 -979h256
q82 0 127 56t28 136l-254 1196h31z" />
    <glyph glyph-name="uniFEF8" unicode="&#xfee0;&#xfe84;" horiz-adv-x="1257" arabic-form="final" 
d="M506 1217l6 -27h-297l-6 27h72q-70 48 -84 116q-15 68 19 112t93 44q61 0 113 -45t63 -98h-28q-9 44 -52.5 79t-89.5 35q-51 0 -75.5 -35t-12.5 -92q11 -48 51 -82t89 -34h139zM1427 16q1 -6 -3.5 -11t-10.5 -5h-92q-74 0 -142.5 43.5t-109.5 112.5q-11 -68 -62.5 -112
t-125.5 -44h-613q-12 0 -16 14q-3 17 10 17h334l-207 979h31l207 -979h247q83 0 131 61.5t31 147.5l-252 1179h31l252 -1179q17 -86 90 -147.5t158 -61.5h92q17 0 20 -15z" />
    <glyph glyph-name="uniFEF9" unicode="&#xfedf;&#xfe88;" horiz-adv-x="1169" arabic-form="isolated" 
d="M1069 223q20 -93 -30.5 -158t-143.5 -65h-627l-6 31h334l-209 979h31l209 -979h256q82 0 127 56t28 136l-254 1196h31zM707 -465h139l4 -27h-297l-4 27h72q-73 50 -84 117q-15 69 18 112t92 43q61 0 113 -45t63 -98h-28q-9 44 -52.5 79.5t-89.5 35.5q-51 0 -74.5 -35
t-11.5 -92q9 -48 50 -82.5t90 -34.5z" />
    <glyph glyph-name="uniFEFA" unicode="&#xfee0;&#xfe88;" horiz-adv-x="1257" arabic-form="final" 
d="M1427 16q1 -6 -3.5 -11t-10.5 -5h-92q-74 0 -142.5 43.5t-109.5 112.5q-11 -68 -62.5 -112t-125.5 -44h-613l-6 31h334l-207 979h31l207 -979h247q83 0 131 61.5t31 147.5l-252 1179h31l252 -1179q17 -86 90 -147.5t158 -61.5h92q17 0 20 -15zM727 -463h139l6 -26h-297
l-6 26h72q-70 51 -84 117q-13 69 20.5 112.5t92.5 43.5q61 0 113 -45t63 -99h-29q-9 44 -52 79.5t-89 35.5q-51 0 -75.5 -35t-12.5 -92q11 -48 50.5 -82.5t88.5 -34.5z" />
    <glyph glyph-name="uniFEFB" unicode="&#xfedf;&#xfe8e;" horiz-adv-x="1169" arabic-form="isolated" 
d="M1069 223q20 -93 -30.5 -158t-143.5 -65h-627l-6 31h334l-209 979h31l209 -979h256q82 0 127 56t28 136l-254 1196h31z" />
    <glyph glyph-name="uniFEFC" unicode="&#xfee0;&#xfe8e;" horiz-adv-x="1257" arabic-form="final" 
d="M1427 16q1 -6 -3.5 -11t-10.5 -5h-92q-74 0 -142.5 43.5t-109.5 112.5q-11 -68 -62.5 -112t-125.5 -44h-613l-6 31h334l-207 979h31l207 -979h247q83 0 131 61.5t31 147.5l-252 1179h31l252 -1179q17 -86 90 -147.5t158 -61.5h92q17 0 20 -15z" />
    <glyph glyph-name="uniFEDFFB51" unicode="&#xfedf;&#xfb51;" horiz-adv-x="1169" 
d="M1069 223q20 -93 -30.5 -158t-143.5 -65h-627l-6 31h334l-209 979h31l209 -979h256q82 0 127 56t28 136l-254 1196h31z" />
    <glyph glyph-name="uniFEE0FB51" unicode="&#xfee0;&#xfb51;" horiz-adv-x="1257" 
d="M1427 16q1 -6 -3.5 -11t-10.5 -5h-92q-74 0 -142.5 43.5t-109.5 112.5q-11 -68 -62.5 -112t-125.5 -44h-613l-6 31h334l-207 979h31l207 -979h247q83 0 131 61.5t31 147.5l-252 1179h31l252 -1179q17 -86 90 -147.5t158 -61.5h92q17 0 20 -15z" />
    <glyph glyph-name="uni066E.init" unicode="&#x66e;" horiz-adv-x="522" 
d="M270 0h-120q-17 0 -21 12q-2 8 2.5 13.5t11.5 5.5h121q87 0 136 60.5t30 146.5l-137 647h31l137 -647q20 -98 -36.5 -168t-154.5 -70z" />
    <glyph glyph-name="uni066E.medi" unicode="&#x66e;" horiz-adv-x="589" 
d="M739 31q18 0 21 -15q1 -6 -4 -11t-11 -5h-92q-74 0 -142.5 43.5t-109.5 112.5q-11 -68 -62.5 -112t-125.5 -44h-68q-13 0 -16 14q-3 17 10 17h68q83 0 131 61.5t31 147.5l-101 462h31l100 -462q17 -86 90 -147.5t158 -61.5h92z" />
    <glyph glyph-name="uni066E.fina" unicode="&#x66e;" horiz-adv-x="1810" 
d="M1960 31q17 0 20 -15q1 -6 -3.5 -11t-10.5 -5h-92q-74 0 -142.5 43.5t-109.5 112.5q-11 -68 -62.5 -112t-125.5 -44h-826q-138 0 -256 99t-147 237l-74 340h31l74 -340q26 -126 133.5 -215.5t232.5 -89.5h825q83 0 131 61.5t31 147.5l-137 641h31l137 -641
q17 -86 90 -147.5t158 -61.5h92z" />
    <glyph glyph-name="uni066F.fina" unicode="&#x66f;" horiz-adv-x="1312" 
d="M1479 31l6 -31h-172l71 -330q7 -35 -12 -60.5t-53 -25.5h-514q-120 0 -234.5 59t-195 160.5t-105.5 221.5l-53 249h33l53 -249q23 -111 97.5 -205t180 -148.5t216.5 -54.5h514q23 0 34 14t7 39l-72 330h-348q-156 0 -290.5 110.5t-168.5 268.5l-31 145q-32 155 56 266
t243 111q157 0 293 -111t168 -266l105 -493h172zM1274 31l-105 493q-31 143 -153 243.5t-268 100.5q-145 0 -225.5 -100.5t-49.5 -243.5l31 -145q31 -145 154 -246.5t268 -101.5h348z" />
    <glyph glyph-name="uni06A1.init" unicode="&#x6a1;" horiz-adv-x="1116" 
d="M524 901q161 0 299 -114t172 -275l109 -512h-973l-6 31h432q-115 45 -201 142t-112 216l-27 123q-34 161 56 275t251 114zM1067 31l-102 481q-31 149 -159 253.5t-276 104.5q-149 0 -231 -104.5t-51 -253.5l26 -123q31 -148 158.5 -253t276.5 -105h358z" />
    <glyph glyph-name="uni06A1.medi" unicode="&#x6a1;" horiz-adv-x="1232" 
d="M1098 31h286l7 -31h-1246l-6 31h430q-116 45 -201.5 141.5t-111.5 216.5l-27 121q-34 162 55.5 276.5t250.5 114.5t299 -115t172 -276l94 -442q5 -20 -2 -37zM1042 31q14 0 22.5 10.5t4.5 26.5l-94 442q-31 149 -158 253.5t-276 104.5t-231.5 -104.5t-51.5 -253.5
l27 -121q31 -148 158 -253t276 -105h323z" />
    <glyph glyph-name="uni06A1.fina" unicode="&#x6a1;" horiz-adv-x="2023" 
d="M2175 31l6 -31h-1456q-186 0 -346.5 133t-200.5 320l-53 258h31l53 -258q37 -173 187 -296.5t323 -123.5h733q-137 50 -239.5 164.5t-131.5 253.5l-14 61q-34 161 56 275t251 114t299 -114t172 -275l103 -481h227zM1917 31l-102 481q-31 148 -158.5 253t-276.5 105
q-148 0 -230.5 -105t-51.5 -253l14 -61q34 -164 170 -284t301 -134z" />
    <glyph glyph-name="uni06C2.fina" unicode="&#x6c2;" horiz-adv-x="1269" 
d="M684 1051l6 -27h-297l-6 27h72q-70 51 -84 116q-15 68 19 112t93 44q61 0 113.5 -45t63.5 -98h-29q-9 44 -52 79t-89 35q-51 0 -75.5 -35t-12.5 -92q11 -48 50.5 -82t88.5 -34h139zM885 82q-88 -82 -221 -82q-161 0 -299 114t-172 275l-27 121q-34 163 56 277t251 114
h387l123 -579q26 -120 129 -205.5t223 -85.5h86q6 0 11.5 -5.5t7.5 -11.5q2 -5 -2.5 -9.5t-10.5 -4.5h-86q-78 0 -157 38.5t-141 113t-82 167.5l-125 551h-357q-149 0 -231 -104.5t-51 -255.5l26 -121q32 -149 158.5 -253.5t275.5 -104.5q129 0 211 92z" />
    <glyph glyph-name="uni06C3.fina" unicode="&#x6c3;" horiz-adv-x="1269" 
d="M885 82q-88 -82 -221 -82q-161 0 -299 114t-172 275l-27 121q-34 163 56 277t251 114h387l123 -579q26 -120 129 -205.5t223 -85.5h86q6 0 11.5 -5.5t7.5 -11.5q2 -5 -2.5 -9.5t-10.5 -4.5h-86q-78 0 -157 38.5t-141 113t-82 167.5l-125 551h-357q-149 0 -231 -104.5
t-51 -255.5l26 -121q32 -149 158.5 -253.5t275.5 -104.5q129 0 211 92z" />
    <glyph glyph-name="uniFB51" unicode="&#x671;" horiz-adv-x="487" arabic-form="final" 
d="M659 0h-102q-92 0 -170 64.5t-98 158.5l-256 1211h30l256 -1211q17 -80 86.5 -136t151.5 -56h96z" />
    <glyph glyph-name="uniFB57" unicode="&#x67e;" horiz-adv-x="1810" arabic-form="final" 
d="M1960 31q17 0 20 -15q1 -6 -3.5 -11t-10.5 -5h-92q-74 0 -142.5 43.5t-109.5 112.5q-11 -68 -62.5 -112t-125.5 -44h-826q-138 0 -256 99t-147 237l-74 340h31l74 -340q26 -126 133.5 -215.5t232.5 -89.5h825q83 0 131 61.5t31 147.5l-137 641h31l137 -641
q17 -86 90 -147.5t158 -61.5h92zM989 -262q-18 0 -35 13.5t-20 31.5q-4 20 6.5 33.5t28.5 13.5q20 0 37.5 -13.5t21.5 -33.5q3 -19 -8 -32t-31 -13zM1174 -262q-18 0 -35.5 13.5t-20.5 31.5q-4 20 6.5 33.5t28.5 13.5q20 0 37.5 -13.5t21.5 -33.5q3 -19 -7.5 -32t-30.5 -13z
M1116 -430q-18 0 -34.5 13.5t-20.5 31.5q-3 20 7.5 33.5t27.5 13.5q21 0 38.5 -13.5t20.5 -33.5q4 -19 -7.5 -32t-31.5 -13z" />
    <glyph glyph-name="uniFB58" unicode="&#x67e;" horiz-adv-x="522" arabic-form="initial" 
d="M270 0h-120q-17 0 -21 12q-2 8 2.5 13.5t11.5 5.5h121q87 0 136 60.5t30 146.5l-137 647h31l137 -647q20 -98 -36.5 -168t-154.5 -70zM264 -262q-18 0 -35 13.5t-20 31.5q-4 20 6.5 33.5t28.5 13.5q20 0 37.5 -13.5t21.5 -33.5q3 -19 -8 -32t-31 -13zM449 -262
q-18 0 -35.5 13.5t-20.5 31.5q-4 20 6.5 33.5t28.5 13.5q20 0 37.5 -13.5t21.5 -33.5q3 -19 -7.5 -32t-30.5 -13zM391 -430q-18 0 -34.5 13.5t-20.5 31.5q-3 20 7.5 33.5t27.5 13.5q21 0 38.5 -13.5t20.5 -33.5q4 -19 -7.5 -32t-31.5 -13z" />
    <glyph glyph-name="uniFB59" unicode="&#x67e;" horiz-adv-x="589" arabic-form="medial" 
d="M739 31q18 0 21 -15q1 -6 -4 -11t-11 -5h-92q-74 0 -142.5 43.5t-109.5 112.5q-11 -68 -62.5 -112t-125.5 -44h-68q-13 0 -16 14q-3 17 10 17h68q83 0 131 61.5t31 147.5l-101 462h31l100 -462q17 -86 90 -147.5t158 -61.5h92zM391 -262q-18 0 -35 13.5t-20 31.5
q-4 20 6.5 33.5t28.5 13.5q20 0 37.5 -13.5t21.5 -33.5q3 -19 -8 -32t-31 -13zM575 -262q-18 0 -35 13.5t-20 31.5q-4 20 6.5 33.5t28.5 13.5q20 0 37.5 -13.5t21.5 -33.5q3 -19 -8 -32t-31 -13zM518 -430q-18 0 -34.5 13.5t-20.5 31.5q-3 20 7.5 33.5t27.5 13.5
q21 0 38.5 -13.5t20.5 -33.5q4 -19 -7.5 -32t-31.5 -13z" />
    <glyph glyph-name="uniFB67" unicode="&#x679;" horiz-adv-x="1810" arabic-form="final" 
d="M543 1145h49l-64 299h31l37 -176q50 80 109 80q103 0 126 -119l25 -115h-307zM711 1317q-23 0 -51.5 -22.5t-53.5 -59.5l19 -90h194l-20 94q-16 78 -88 78zM1980 16q1 -6 -3.5 -11t-10.5 -5h-92q-74 0 -142.5 43.5t-109.5 112.5q-11 -68 -62.5 -112t-125.5 -44h-826
q-138 0 -256 99t-147 237l-74 340h31l74 -340q26 -126 133.5 -215.5t232.5 -89.5h825q83 0 131 61.5t31 147.5l-137 641h31l137 -641q17 -86 90 -147.5t158 -61.5h92q17 0 20 -15z" />
    <glyph glyph-name="uniFB68" unicode="&#x679;" horiz-adv-x="522" arabic-form="initial" 
d="M88 1114l-6 31h49l-63 299h30l37 -176q50 80 109 80q104 0 127 -119l24 -115h-307zM250 1317q-23 0 -51.5 -22.5t-53.5 -59.5l19 -90h194l-20 94q-16 78 -88 78zM461 238q20 -98 -36.5 -168t-154.5 -70h-120q-17 0 -21 12q-2 8 2.5 13.5t11.5 5.5h121q87 0 136 60.5
t30 146.5l-137 647h31z" />
    <glyph glyph-name="uniFB69" unicode="&#x679;" horiz-adv-x="589" arabic-form="medial" 
d="M55 1114l-6 31h49l-63 299h31l36 -176q50 80 109 80q104 0 127 -119l24 -115h-307zM217 1317q-23 0 -51 -22.5t-53 -59.5l18 -90h195l-21 94q-16 78 -88 78zM760 16q1 -6 -4 -11t-11 -5h-92q-74 0 -142.5 43.5t-109.5 112.5q-11 -68 -62.5 -112t-125.5 -44h-68
q-13 0 -16 14q-3 17 10 17h68q83 0 131 61.5t31 147.5l-101 462h31l100 -462q17 -86 90 -147.5t158 -61.5h92q18 0 21 -15z" />
    <glyph glyph-name="uniFB6B" unicode="&#x6a4;" horiz-adv-x="2023" arabic-form="final" 
d="M1325 1296q20 0 37 -13t22 -32q3 -20 -9 -33.5t-32 -13.5q-18 0 -34 13.5t-19 33.5q-4 18 6.5 31.5t28.5 13.5zM1268 1128q20 0 37 -13t22 -32q4 -20 -7.5 -33.5t-31.5 -13.5q-18 0 -34.5 13.5t-20.5 33.5q-4 18 6.5 31.5t28.5 13.5zM1452 1128q20 0 37 -13t22 -32
q4 -20 -7 -33.5t-31 -13.5q-18 0 -35 13.5t-21 33.5q-4 18 6.5 31.5t28.5 13.5zM2175 31l6 -31h-1456q-186 0 -346.5 133t-200.5 320l-53 258h31l53 -258q37 -173 187 -296.5t323 -123.5h733q-137 50 -239.5 164.5t-131.5 253.5l-14 61q-34 161 56 275t251 114t299 -114
t172 -275l103 -481h227zM1917 31l-102 481q-31 148 -158.5 253t-276.5 105q-148 0 -230.5 -105t-51.5 -253l14 -61q34 -164 170 -284t301 -134z" />
    <glyph glyph-name="uniFB6C" unicode="&#x6a4;" horiz-adv-x="1116" arabic-form="initial" 
d="M535 1296q20 0 37 -13t22 -32q3 -20 -9 -33.5t-32 -13.5q-18 0 -34 13.5t-19 33.5q-4 18 6.5 31.5t28.5 13.5zM477 1128q20 0 38 -13t22 -32q4 -20 -7.5 -33.5t-31.5 -13.5q-18 0 -35 13.5t-21 33.5q-4 18 6.5 31.5t28.5 13.5zM662 1128q20 0 37 -13t22 -32
q4 -20 -7.5 -33.5t-31.5 -13.5q-18 0 -34.5 13.5t-20.5 33.5q-4 18 6.5 31.5t28.5 13.5zM524 901h389l179 -835q5 -28 -10.5 -47t-43.5 -19h-907l-6 31h432q-115 45 -201 142t-112 216l-27 123q-34 161 56 275t251 114zM1061 66l-172 804h-359q-149 0 -231 -104.5
t-51 -253.5l26 -123q31 -148 158.5 -253t276.5 -105h323q14 0 23 11t6 24z" />
    <glyph glyph-name="uniFB6D" unicode="&#x6a4;" horiz-adv-x="1232" arabic-form="medial" 
d="M477 1296q20 0 38 -13t22 -32q3 -20 -9 -33.5t-32 -13.5q-18 0 -34.5 13.5t-19.5 33.5q-4 18 6.5 31.5t28.5 13.5zM420 1128q20 0 37 -13t22 -32q4 -20 -7.5 -33.5t-31.5 -13.5q-18 0 -34.5 13.5t-20.5 33.5q-4 18 6.5 31.5t28.5 13.5zM604 1128q20 0 38 -13t22 -32
q4 -20 -7.5 -33.5t-31.5 -13.5q-18 0 -35 13.5t-21 33.5q-4 18 6.5 31.5t28.5 13.5zM1098 31h286l7 -31h-1246l-6 31h430q-116 45 -201.5 141.5t-111.5 216.5l-27 121q-34 162 55.5 276.5t250.5 114.5t299 -115t172 -276l94 -442q5 -20 -2 -37zM1042 31q14 0 22.5 10.5
t4.5 26.5l-94 442q-31 149 -158 253.5t-276 104.5t-231.5 -104.5t-51.5 -253.5l27 -121q31 -148 158 -253t276 -105h323z" />
    <glyph glyph-name="uniFB7B" unicode="&#x686;" horiz-adv-x="1542" arabic-form="final" 
d="M582 0q-116 0 -179 -80.5t-38 -195.5q25 -116 122.5 -196.5t212.5 -80.5h441l6 -31h-440q-127 0 -236 90t-137 218q-28 127 42.5 217t198.5 90h818q-57 30 -99 83.5t-55 116.5l-31 150q-56 261 -239 383q-69 46 -156 71.5t-157 31t-145.5 0.5t-108 -10.5t-58.5 -11.5
l-4 -1l-12 28q15 4 47.5 10.5t110 13t154 2.5t172 -31.5t171.5 -78.5q197 -132 256 -407l31 -150q19 -83 86 -141.5t145 -58.5h207l6 -31h-1132zM643 -283q-18 0 -34.5 13.5t-20.5 31.5q-4 20 6.5 34t28.5 14q20 0 37.5 -14t21.5 -34q4 -19 -7.5 -32t-31.5 -13zM827 -283
q-18 0 -34.5 13.5t-20.5 31.5q-4 20 6.5 34t28.5 14q20 0 37.5 -14t21.5 -34q4 -19 -7.5 -32t-31.5 -13zM770 -451q-18 0 -34.5 13.5t-20.5 31.5q-3 20 8 34t29 14q20 0 37 -14t20 -34q4 -19 -7.5 -32t-31.5 -13z" />
    <glyph glyph-name="uniFB7C" unicode="&#x686;" horiz-adv-x="1366" arabic-form="initial" 
d="M1337 0h-1190q-15 0 -18 16q-4 15 12 15h1069q-58 31 -100 86.5t-55 120.5l-29 129q-55 266 -246 393q-75 50 -169 76.5t-172 30.5t-152.5 -2t-109.5 -13t-44 -10l-12 30q16 4 49 11t112 13.5t157.5 1.5t176.5 -33t177 -81q205 -134 264 -417l28 -129q19 -86 87 -146.5
t147 -60.5h12zM608 -262q-18 0 -35 13.5t-20 31.5q-4 20 6.5 33.5t28.5 13.5q20 0 37.5 -13.5t21.5 -33.5q3 -19 -8 -32t-31 -13zM793 -262q-18 0 -35.5 13.5t-20.5 31.5q-4 20 6.5 33.5t28.5 13.5q20 0 37.5 -13.5t21.5 -33.5q3 -19 -7.5 -32t-30.5 -13zM735 -430
q-18 0 -34.5 13.5t-20.5 31.5q-3 20 7.5 33.5t27.5 13.5q21 0 38.5 -13.5t20.5 -33.5q4 -19 -7.5 -32t-31.5 -13z" />
    <glyph glyph-name="uniFB7D" unicode="&#x686;" horiz-adv-x="1298" arabic-form="medial" 
d="M1470 0h-1323q-15 0 -18 16q-4 15 12 15h1028q-58 31 -100 86.5t-55 120.5l-29 129q-55 266 -246 393q-75 50 -169 76.5t-172 30.5t-152.5 -2t-109.5 -13t-44 -10l-12 30q16 4 49 11t112 13.5t157.5 1.5t176.5 -33t177 -81q205 -134 264 -417l28 -129q19 -86 87 -146.5
t147 -60.5h186zM731 -262q-18 0 -35 13.5t-20 31.5q-4 20 6.5 33.5t28.5 13.5q20 0 37.5 -13.5t21.5 -33.5q3 -19 -8 -32t-31 -13zM915 -262q-18 0 -35 13.5t-20 31.5q-4 20 6.5 33.5t28.5 13.5q20 0 37.5 -13.5t21.5 -33.5q3 -19 -8 -32t-31 -13zM858 -430
q-18 0 -34.5 13.5t-20.5 31.5q-3 20 7.5 33.5t27.5 13.5q21 0 38.5 -13.5t20.5 -33.5q4 -19 -7.5 -32t-31.5 -13z" />
    <glyph glyph-name="uniFB89" unicode="&#x688;" horiz-adv-x="1214" arabic-form="final" 
d="M373 1145h49l-64 299h31l37 -176q50 80 109 80q104 0 127 -119l24 -115h-307zM541 1317q-23 0 -51.5 -22.5t-53.5 -59.5l19 -90h194l-20 94q-16 78 -88 78zM1384 14q4 -14 -14 -14h-33q-112 0 -215 57.5t-170 155.5q0 -62 -26 -113q-29 -49 -78.5 -74.5t-110.5 -25.5
h-446l-6 31h446q110 0 164 86q47 81 8 184l-270 598l26 6l281 -610q51 -117 160 -190.5t231 -73.5h33q14 0 20 -17z" />
    <glyph glyph-name="uniFB8B" unicode="&#x698;" horiz-adv-x="729" arabic-form="final" 
d="M240 1284q20 0 37 -13t22 -32q4 -20 -7.5 -33.5t-31.5 -13.5q-18 0 -34.5 13.5t-20.5 33.5q-4 18 6.5 31.5t28.5 13.5zM184 1116q20 0 37.5 -13t20.5 -32q4 -20 -7.5 -33.5t-31.5 -13.5q-18 0 -35 13.5t-21 33.5q-3 18 8 31.5t29 13.5zM369 1116q20 0 37 -13t20 -32
q4 -20 -7.5 -33.5t-31.5 -13.5q-18 0 -34.5 13.5t-20.5 33.5q-3 18 8 31.5t29 13.5zM881 31q15 0 18 -17q3 -14 -12 -14h-86q-93 0 -180.5 48t-133.5 124l43 -207q12 -58 13 -108.5t-9 -90t-26.5 -72.5t-40.5 -57t-49.5 -43t-55.5 -32t-56 -21t-54 -14l-14 31
q330 72 260 407l-195 920h31l121 -576q25 -117 123.5 -197.5t214.5 -80.5h88z" />
    <glyph glyph-name="uniFB8D" unicode="&#x691;" horiz-adv-x="729" arabic-form="final" 
d="M418 1229l24 -115h-307l-6 31h49l-63 299h30l37 -176q50 80 109 80q104 0 127 -119zM406 1145l-21 94q-16 78 -88 78q-23 0 -51 -22.5t-53 -59.5l18 -90h195zM899 14q3 -14 -12 -14h-86q-93 0 -180.5 48t-133.5 124l43 -207q12 -58 13 -108.5t-9 -90t-26.5 -72.5
t-40.5 -57t-49.5 -43t-55.5 -32t-56 -21t-54 -14l-14 31q330 72 260 407l-195 920h31l121 -576q25 -117 123.5 -197.5t214.5 -80.5h88q15 0 18 -17z" />
    <glyph glyph-name="uniFB8F" unicode="&#x6a9;" horiz-adv-x="1910" arabic-form="final" 
d="M2077 31l4 -31h-1514q-136 0 -255 97.5t-148 232.5l-74 346h35l74 -346q26 -125 131 -212t231 -87h1247l-88 418q-37 172 -186.5 294.5t-321.5 122.5h-536l-23 49l283 578l29 -18l-283 -580h530q184 0 342.5 -130.5t198.5 -315.5l88 -418h236z" />
    <glyph glyph-name="uniFB90" unicode="&#x6a9;" horiz-adv-x="1277" arabic-form="initial" 
d="M631 895q184 0 342 -130.5t198 -315.5l82 -386q5 -27 -9 -45t-40 -18h-1073l-6 31h1071q14 0 22 9.5t5 22.5l-82 386q-37 172 -186.5 294.5t-321.5 122.5h-555l-23 39l299 588l29 -18l-299 -580h547z" />
    <glyph glyph-name="uniFB91" unicode="&#x6a9;" horiz-adv-x="1329" arabic-form="medial" 
d="M1495 31l4 -31h-1368l-6 31h1102l-88 418q-37 172 -186.5 294.5t-321.5 122.5h-537l-22 49l282 578l29 -18l-283 -580h531q184 0 342 -130.5t198 -315.5l89 -418h235z" />
    <glyph glyph-name="uniFB93" unicode="&#x6af;" horiz-adv-x="1910" arabic-form="final" 
d="M838 1538l-283 -563l-25 16l283 563zM2077 31l4 -31h-1514q-136 0 -255 97.5t-148 232.5l-74 346h35l74 -346q26 -125 131 -212t231 -87h1247l-88 418q-37 172 -186.5 294.5t-321.5 122.5h-536l-23 49l283 578l29 -18l-283 -580h530q184 0 342.5 -130.5t198.5 -315.5
l88 -418h236z" />
    <glyph glyph-name="uniFB94" unicode="&#x6af;" horiz-adv-x="1277" arabic-form="initial" 
d="M-76 975l285 563l22 -16l-280 -564zM631 895q184 0 342 -130.5t198 -315.5l95 -449h-1135l-6 31h1104l-88 418q-37 172 -186.5 294.5t-321.5 122.5h-555l-23 39l299 588l29 -18l-299 -580h547z" />
    <glyph glyph-name="uniFB95" unicode="&#x6af;" horiz-adv-x="1329" arabic-form="medial" 
d="M227 1524l25 -17l-283 -563l-24 17zM1495 31l4 -31h-1368l-6 31h1102l-88 418q-37 172 -186.5 294.5t-321.5 122.5h-537l-22 49l282 578l29 -18l-283 -580h531q184 0 342 -130.5t198 -315.5l89 -418h235z" />
    <glyph glyph-name="uniFB9F" unicode="&#x6ba;" horiz-adv-x="1466" arabic-form="final" 
d="M1618 31q15 0 18 -17q1 -6 -2.5 -10t-9.5 -4h-76q-87 0 -168.5 48t-124.5 124l105 -491q6 -32 -14 -55t-54 -23h-499q-118 0 -230 57.5t-191 156.5t-104 216l-51 243h31l51 -243q23 -108 96.5 -200.5t178 -147t212.5 -54.5h500q21 0 33.5 14.5t9.5 35.5l-248 1163h31
l113 -535q25 -116 117 -197t198 -81h78z" />
    <glyph glyph-name="uniFBA7" unicode="&#x6c1;" horiz-adv-x="1269" arabic-form="final" 
d="M885 82q-88 -82 -221 -82q-161 0 -299 114t-172 275l-27 121q-34 163 56 277t251 114h387l123 -579q26 -120 129 -205.5t223 -85.5h86q6 0 11.5 -5.5t7.5 -11.5q2 -5 -2.5 -9.5t-10.5 -4.5h-86q-78 0 -157 38.5t-141 113t-82 167.5l-125 551h-357q-149 0 -231 -104.5
t-51 -255.5l26 -121q32 -149 158.5 -253.5t275.5 -104.5q129 0 211 92z" />
    <glyph glyph-name="uniFBA8" unicode="&#x6c1;" horiz-adv-x="522" arabic-form="initial" 
d="M270 0h-120q-17 0 -21 12q-2 8 2.5 13.5t11.5 5.5h121q87 0 136 60.5t30 146.5l-137 647h31l137 -647q20 -98 -36.5 -168t-154.5 -70z" />
    <glyph glyph-name="uniFBA9" unicode="&#x6c1;" horiz-adv-x="1239" arabic-form="medial" 
d="M1149 31h256l6 -31h-250l13 -51q35 -170 -60.5 -292t-265.5 -122q-172 0 -320.5 122t-183.5 292l-12 51h-201l-6 29h201l-88 415q-35 169 51 293.5t241 132.5q173 9 326 -110q148 -120 186 -293q26 -127 -14.5 -234.5t-136 -170t-223.5 -62.5h-306l13 -51
q34 -159 170 -271t295 -112t249 112t56 271l-15 61q-1 10 5.5 15.5t13.5 5.5zM268 444l88 -415h306q183 0 285.5 128.5t64.5 309.5q-36 164 -172 270q-136 111 -301 105q-95 -5 -165 -60t-98.5 -145t-7.5 -193z" />
    <glyph glyph-name="uniFBAB" unicode="&#x6be;" horiz-adv-x="1423" arabic-form="final" 
d="M1333 31h256l6 -31h-249l12 -51q35 -170 -60.5 -292t-265.5 -122q-172 0 -320.5 122t-183.5 292l-12 51h-201l-6 29h201l-88 415q-35 168 51 293t242 133q172 9 325 -110q149 -121 187 -293q26 -127 -15 -234.5t-136.5 -170t-223.5 -62.5h-305l12 -51q34 -159 170 -271
t295 -112t249 112t56 271l-14 61q-1 10 5 15.5t13 5.5zM453 444l88 -415h305q183 0 285.5 128.5t64.5 309.5q-36 164 -172 270q-136 111 -301 105q-144 -7 -223 -124t-47 -274z" />
    <glyph glyph-name="uniFBAC" unicode="&#x6be;" horiz-adv-x="1400" arabic-form="initial" 
d="M770 967q201 -66 350 -230.5t193 -371.5l59 -281q6 -35 -11 -59.5t-50 -24.5h-1180l-6 31h352q-107 42 -187 132.5t-104 203.5q-31 151 52.5 257.5t232.5 106.5q152 0 281.5 -106.5t160.5 -257.5l66 -306q5 -19 -6 -30h332q21 0 32 15.5t6 37.5l-59 281
q-41 195 -184.5 353.5t-335.5 219.5q-211 68 -383 68l-2 28q192 -6 391 -67zM477 700q-138 0 -215.5 -97t-48.5 -236q31 -141 149 -238.5t256 -97.5h306q13 0 21 8.5t5 21.5l-65 306q-29 138 -149.5 235.5t-258.5 97.5z" />
    <glyph glyph-name="uniFBAD" unicode="&#x6be;" horiz-adv-x="1239" arabic-form="medial" 
d="M1149 31h256l6 -31h-250l13 -51q35 -170 -60.5 -292t-265.5 -122q-172 0 -320.5 122t-183.5 292l-12 51h-201l-6 29h201l-88 415q-35 169 51 293.5t241 132.5q173 9 326 -110q148 -120 186 -293q26 -127 -14.5 -234.5t-136 -170t-223.5 -62.5h-306l13 -51
q34 -159 170 -271t295 -112t249 112t56 271l-15 61q-1 10 5.5 15.5t13.5 5.5zM268 444l88 -415h306q183 0 285.5 128.5t64.5 309.5q-36 164 -172 270q-136 111 -301 105q-95 -5 -165 -60t-98.5 -145t-7.5 -193z" />
    <glyph glyph-name="uniFBAF" unicode="&#x6d2;" horiz-adv-x="1179" arabic-form="final" 
d="M575 0h777l8 -31h-776q-110 0 -162 -86q-51 -85 -2 -196l158 -349l-29 -8l-156 351q-58 123 2 221q26 46 73.5 72t106.5 26z" />
    <glyph glyph-name="uniFBB1" unicode="&#x6d3;" horiz-adv-x="1179" arabic-form="final" 
d="M692 164l6 -27h-297l-6 27h72q-70 51 -84 117q-15 68 19.5 111.5t93.5 43.5q61 0 113 -45t63 -98h-29q-9 44 -52 79.5t-89 35.5q-51 0 -75.5 -35t-12.5 -92q11 -48 50.5 -82.5t88.5 -34.5h139zM575 0h777l8 -31h-776q-110 0 -162 -86q-51 -85 -2 -196l158 -349l-29 -8
l-156 351q-58 123 2 221q26 46 73.5 72t106.5 26z" />
    <glyph glyph-name="uniFBFD" unicode="&#x6cc;" horiz-adv-x="1798" arabic-form="final" 
d="M1948 31q17 0 20 -15q1 -6 -3.5 -11t-10.5 -5q-189 0 -377 43q65 -46 110 -113.5t60 -140.5q28 -129 -43.5 -220t-200.5 -91h-659q-129 0 -253 63.5t-212 173t-115 238.5l-57 274h33l57 -274q40 -184 198 -314.5t341 -130.5h659q116 0 180 82t39 199q-20 95 -93 174
t-171 111l-238 86l7 30q115 -45 196 -73q275 -86 533 -86z" />
    <glyph glyph-name="uniFBFE" unicode="&#x6cc;" horiz-adv-x="620" arabic-form="initial" 
d="M369 0h-219q-17 0 -21 12q-2 8 2.5 13.5t11.5 5.5h219q87 0 136 60.5t30 146.5l-137 647h31l137 -647q20 -98 -36 -168t-154 -70zM418 -270q21 0 38.5 -13.5t20.5 -31.5q4 -20 -7.5 -33.5t-31.5 -13.5q-18 0 -34.5 13.5t-20.5 33.5q-3 19 7.5 32t27.5 13zM616 -270
q21 0 39 -13.5t21 -31.5q4 -20 -7.5 -33.5t-31.5 -13.5q-18 0 -34.5 13.5t-20.5 33.5q-3 19 7 32t27 13z" />
    <glyph glyph-name="uniFBFF" unicode="&#x6cc;" horiz-adv-x="632" arabic-form="medial" 
d="M782 31q18 0 21 -15q1 -6 -4 -11t-11 -5h-106q-74 0 -142.5 43.5t-109.5 112.5q-11 -68 -62.5 -112t-125.5 -44h-97q-13 0 -16 16q-4 15 10 15h97q83 0 130.5 61.5t30.5 147.5l-100 462h31l100 -462q17 -86 90 -147.5t158 -61.5h106zM406 -270q21 0 38.5 -13.5
t20.5 -31.5q4 -20 -7.5 -33.5t-31.5 -13.5q-18 0 -34.5 13.5t-20.5 33.5q-3 19 7.5 32t27.5 13zM604 -270q21 0 39 -13.5t21 -31.5q4 -20 -7.5 -33.5t-31.5 -13.5q-18 0 -35 13.5t-21 33.5q-3 19 7.5 32t27.5 13z" />
    <glyph glyph-name="uniFE82" unicode="&#x622;" horiz-adv-x="507" arabic-form="final" 
d="M-201 1616l-28 31l88 79q11 11 26 -4q26 -26 78 -45.5t100 -19.5q33 0 82 18t80 39l29 -31q-32 -26 -87 -45.5t-95 -19.5q-99 0 -183 59q-16 6 -24 -2zM680 0h-102q-92 0 -170.5 64.5t-98.5 158.5l-256 1211h31l256 -1211q17 -80 85.5 -136t149.5 -56h99z" />
    <glyph glyph-name="uniFE84" unicode="&#x623;" horiz-adv-x="501" arabic-form="final" 
d="M162 1583l6 -27h-297l-6 27h72q-69 48 -84 117q-15 68 19 111.5t93 43.5q61 0 113 -45t63 -98h-28q-9 44 -52.5 79.5t-89.5 35.5q-51 0 -75.5 -35t-12.5 -92q11 -48 51 -82.5t89 -34.5h139zM659 0h-102q-92 0 -170 64.5t-98 158.5l-256 1211h30l256 -1211
q17 -80 86.5 -136t151.5 -56h96z" />
    <glyph glyph-name="uniFE86" unicode="&#x624;" horiz-adv-x="1103" arabic-form="final" 
d="M422 1098q-70 51 -84 116q-13 69 20.5 112.5t92.5 43.5q61 0 113 -45t63 -98h-29q-9 44 -52 79t-89 35q-51 0 -75.5 -35t-12.5 -92q11 -48 50.5 -82t88.5 -34h139l6 -27h-297l-6 27h72zM1049 0l14 -68q39 -179 -55 -290q-69 -83 -187 -115.5t-289 -32.5l-6 33q3 -1 36 -2
t88.5 3.5t114.5 16.5t119.5 42.5t98.5 74.5q87 103 49 270l-14 68h-332q-181 0 -323 129t-183 317q-26 127 3 230.5t111 164t202 60.5h362l184 -870h191l6 -31h-190zM1012 31l-178 837h-332q-111 0 -186.5 -56t-102 -152t-2.5 -214q37 -175 169.5 -295t299.5 -120h332z" />
    <glyph glyph-name="uniFE88" unicode="&#x625;" horiz-adv-x="501" arabic-form="final" 
d="M659 0h-102q-92 0 -170 64.5t-98 158.5l-254 1196h31l253 -1196q17 -80 86.5 -136t151.5 -56h96q6 0 11.5 -5.5t7.5 -11.5q1 -6 -3 -10t-10 -4zM621 -436l4 -27h-297l-4 27h71q-73 50 -84 117q-15 68 18.5 111.5t92.5 43.5q61 0 113 -45t63 -98h-29q-9 44 -52 79t-89 35
q-51 0 -74.5 -34.5t-11.5 -91.5q9 -48 49.5 -82.5t89.5 -34.5h140z" />
    <glyph glyph-name="uniFE8A" unicode="&#x626;" horiz-adv-x="1798" arabic-form="final" 
d="M317 391l7 -26h-297l-7 26h72q-69 48 -84 117q-15 68 19.5 112t93.5 44q60 0 111.5 -45t62.5 -99h-29q-9 45 -51.5 80t-87.5 35q-51 0 -75.5 -35t-12.5 -92q9 -48 49.5 -82.5t89.5 -34.5h139zM1948 31q17 0 20 -15q1 -6 -3.5 -11t-10.5 -5q-189 0 -377 43
q65 -46 110 -113.5t60 -140.5q28 -129 -43.5 -220t-200.5 -91h-659q-129 0 -253 63.5t-212 173t-115 238.5l-57 274h33l57 -274q40 -184 198 -314.5t341 -130.5h659q116 0 180 82t39 199q-20 95 -93 174t-171 111l-238 86l7 30q115 -45 196 -73q275 -86 533 -86z" />
    <glyph glyph-name="uniFE8B" unicode="&#x626;" horiz-adv-x="598" arabic-form="initial" 
d="M418 1102l6 -27h-297l-6 27h72q-69 48 -84 117q-15 68 19 111.5t93 43.5q61 0 113 -45t63 -98h-28q-11 45 -54 80t-88 35q-51 0 -75.5 -35t-12.5 -92q11 -48 51 -82.5t89 -34.5h139zM270 0h-120q-17 0 -21 12q-2 8 2.5 13.5t11.5 5.5h121q86 0 134.5 60.5t29.5 146.5
l-137 647h33l137 -647q20 -98 -36.5 -168t-154.5 -70z" />
    <glyph glyph-name="uniFE8C" unicode="&#x626;" horiz-adv-x="589" arabic-form="medial" 
d="M397 928l6 -27h-297l-6 27h72q-70 48 -84 116q-15 68 19.5 112t93.5 44q61 0 113 -45t63 -98h-29q-9 44 -52 79t-89 35q-51 0 -75.5 -35t-12.5 -92q11 -48 50.5 -82t88.5 -34h139zM739 31q18 0 21 -15q1 -6 -4 -11t-11 -5h-92q-74 0 -142.5 43.5t-109.5 112.5
q-11 -68 -62.5 -112t-125.5 -44h-68q-13 0 -16 16q-4 15 10 15h68q83 0 131 61.5t31 147.5l-101 462h31l100 -462q17 -86 90 -147.5t158 -61.5h92z" />
    <glyph glyph-name="uniFE8E" unicode="&#x627;" horiz-adv-x="507" arabic-form="final" 
d="M680 0h-102q-92 0 -170.5 64.5t-98.5 158.5l-256 1211h31l256 -1211q17 -80 85.5 -136t149.5 -56h99z" />
    <glyph glyph-name="uniFE90" unicode="&#x628;" horiz-adv-x="1810" arabic-form="final" 
d="M1960 31q17 0 20 -15q1 -6 -3.5 -11t-10.5 -5h-92q-74 0 -142.5 43.5t-109.5 112.5q-11 -68 -62.5 -112t-125.5 -44h-826q-138 0 -256 99t-147 237l-82 381h31l82 -381q26 -126 133.5 -215.5t232.5 -89.5h825q83 0 131 61.5t31 147.5l-141 661h31l141 -661
q17 -86 90 -147.5t158 -61.5h92zM1057 -270q21 0 38.5 -13.5t20.5 -31.5q4 -20 -7.5 -33.5t-31.5 -13.5q-18 0 -34.5 13.5t-20.5 33.5q-3 19 7.5 32t27.5 13z" />
    <glyph glyph-name="uniFE91" unicode="&#x628;" horiz-adv-x="501" arabic-form="initial" 
d="M270 0h-120q-17 0 -21 12q-2 8 2.5 13.5t11.5 5.5h121q86 0 134.5 60.5t29.5 146.5l-141 663h32l142 -663q20 -98 -36.5 -168t-154.5 -70zM379 -315q-3 19 7.5 32t27.5 13q21 0 38.5 -13.5t20.5 -31.5q4 -20 -7.5 -33.5t-31.5 -13.5q-18 0 -34.5 13.5t-20.5 33.5z" />
    <glyph glyph-name="uniFE92" unicode="&#x628;" horiz-adv-x="589" arabic-form="medial" 
d="M739 31q18 0 21 -15q1 -6 -4 -11t-11 -5h-92q-74 0 -142.5 43.5t-109.5 112.5q-11 -68 -62.5 -112t-125.5 -44h-68q-13 0 -16 14q-3 17 10 17h68q83 0 131 61.5t31 147.5l-103 477h31l102 -477q17 -86 90 -147.5t158 -61.5h92zM451 -315q-3 19 7 32t27 13q21 0 39 -13.5
t21 -31.5q4 -20 -7.5 -33.5t-31.5 -13.5q-18 0 -34.5 13.5t-20.5 33.5z" />
    <glyph glyph-name="uniFE94" unicode="&#x629;" horiz-adv-x="1249" arabic-form="final" 
d="M371 1159q20 0 37 -13t22 -32q4 -20 -7.5 -33.5t-31.5 -13.5q-18 0 -34.5 13.5t-20.5 33.5q-4 18 6.5 31.5t28.5 13.5zM555 1159q20 0 37 -13t22 -32q4 -20 -7.5 -33.5t-31.5 -13.5q-18 0 -34.5 13.5t-20.5 33.5q-4 18 6.5 31.5t28.5 13.5zM1421 31q6 0 11.5 -5.5
t7.5 -11.5q2 -5 -2.5 -9.5t-10.5 -4.5h-86q-114 0 -217 73t-149 183q-19 -114 -103.5 -185t-207.5 -71q-161 0 -299 114t-172 275l-27 121q-34 163 56 277t251 114h387l123 -579q26 -120 129 -205.5t223 -85.5h86zM657 31q148 0 230.5 104.5t50.5 253.5l-102 481h-357
q-149 0 -231 -104.5t-51 -255.5l26 -121q32 -149 158.5 -253.5t275.5 -104.5z" />
    <glyph glyph-name="uniFE96" unicode="&#x62a;" horiz-adv-x="1810" arabic-form="final" 
d="M659 948q20 0 38 -13t22 -32q3 -20 -8 -33.5t-31 -13.5q-18 0 -35 13.5t-20 33.5q-4 18 6 31.5t28 13.5zM844 948q20 0 37 -13t22 -32q3 -20 -8 -33.5t-31 -13.5q-18 0 -35 13.5t-20 33.5q-4 18 6.5 31.5t28.5 13.5zM1960 31q17 0 20 -15q1 -6 -3.5 -11t-10.5 -5h-92
q-74 0 -142.5 43.5t-109.5 112.5q-11 -68 -62.5 -112t-125.5 -44h-826q-138 0 -256 99t-147 237l-82 381h31l82 -381q26 -126 133.5 -215.5t232.5 -89.5h825q83 0 131 61.5t31 147.5l-141 661h31l141 -661q17 -86 90 -147.5t158 -61.5h92z" />
    <glyph glyph-name="uniFE97" unicode="&#x62a;" horiz-adv-x="612" arabic-form="initial" 
d="M119 1171q20 0 37 -13t20 -32q4 -20 -7.5 -33.5t-31.5 -13.5q-18 0 -34.5 13.5t-20.5 33.5q-3 18 8 31.5t29 13.5zM303 1171q20 0 37 -13t20 -32q4 -20 -7 -33.5t-31 -13.5q-18 0 -35 13.5t-21 33.5q-3 18 8 31.5t29 13.5zM270 0h-120q-17 0 -21 12q-2 8 2.5 13.5
t11.5 5.5h121q86 0 134.5 60.5t29.5 146.5l-141 663h32l142 -663q20 -98 -36.5 -168t-154.5 -70z" />
    <glyph glyph-name="uniFE98" unicode="&#x62a;" horiz-adv-x="589" arabic-form="medial" 
d="M119 1036q20 0 37 -13t22 -32q3 -20 -9 -33.5t-32 -13.5q-18 0 -34 13.5t-19 33.5q-4 18 6.5 31.5t28.5 13.5zM303 1036q20 0 37 -13t22 -32q3 -20 -8.5 -33.5t-31.5 -13.5q-18 0 -34.5 13.5t-19.5 33.5q-4 18 6.5 31.5t28.5 13.5zM739 31q18 0 21 -15q1 -6 -4 -11
t-11 -5h-92q-74 0 -142.5 43.5t-109.5 112.5q-11 -68 -62.5 -112t-125.5 -44h-68q-13 0 -16 14q-3 17 10 17h68q83 0 131 61.5t31 147.5l-103 477h31l102 -477q17 -86 90 -147.5t158 -61.5h92z" />
    <glyph glyph-name="uniFE9A" unicode="&#x62b;" horiz-adv-x="1789" arabic-form="final" 
d="M723 1116q20 0 37 -13t20 -32q4 -20 -7.5 -33.5t-31.5 -13.5q-18 0 -34.5 13.5t-20.5 33.5q-3 18 8 31.5t29 13.5zM666 948q20 0 37 -13t22 -32q3 -20 -8 -33.5t-31 -13.5q-18 0 -35 13.5t-20 33.5q-4 18 6.5 31.5t28.5 13.5zM850 948q20 0 37 -13t22 -32q3 -20 -8 -33.5
t-31 -13.5q-18 0 -35 13.5t-20 33.5q-4 18 6.5 31.5t28.5 13.5zM1960 31q17 0 20 -15q1 -6 -3.5 -11t-10.5 -5h-92q-74 0 -142.5 43.5t-109.5 112.5q-11 -68 -62.5 -112t-125.5 -44h-826q-138 0 -256 99t-147 237l-70 328h31l70 -328q26 -126 133.5 -215.5t232.5 -89.5h825
q83 0 131 61.5t31 147.5l-139 647h31l139 -647q17 -86 90 -147.5t158 -61.5h92z" />
    <glyph glyph-name="uniFE9B" unicode="&#x62b;" horiz-adv-x="622" arabic-form="initial" 
d="M188 1325q20 0 38 -13t22 -32q3 -20 -9 -33.5t-32 -13.5q-18 0 -34 13.5t-19 33.5q-4 18 6 31.5t28 13.5zM131 1157q20 0 37 -13t22 -32q4 -20 -7 -33.5t-31 -13.5q-18 0 -35 13.5t-21 33.5q-4 18 6.5 31.5t28.5 13.5zM315 1157q20 0 38 -13t22 -32q4 -20 -7.5 -33.5
t-31.5 -13.5q-18 0 -34.5 13.5t-20.5 33.5q-4 18 6 31.5t28 13.5zM270 0h-120q-17 0 -21 12q-2 8 2.5 13.5t11.5 5.5h121q87 0 136 60.5t30 146.5l-141 663h30l142 -663q20 -98 -36.5 -168t-154.5 -70z" />
    <glyph glyph-name="uniFE9C" unicode="&#x62b;" horiz-adv-x="589" arabic-form="medial" 
d="M184 1200q20 0 38 -13t22 -32q3 -20 -9 -33.5t-32 -13.5q-18 0 -34 13.5t-19 33.5q-4 18 6 31.5t28 13.5zM127 1032q20 0 37 -13t22 -32q4 -20 -7.5 -33.5t-31.5 -13.5q-18 0 -34.5 13.5t-20.5 33.5q-4 18 6.5 31.5t28.5 13.5zM311 1032q20 0 38 -13t22 -32
q4 -20 -7.5 -33.5t-31.5 -13.5q-18 0 -35 13.5t-21 33.5q-4 18 6.5 31.5t28.5 13.5zM739 31q18 0 21 -15q1 -6 -4 -11t-11 -5h-92q-74 0 -142.5 43.5t-109.5 112.5q-11 -68 -62.5 -112t-125.5 -44h-68q-13 0 -16 14q-3 17 10 17h68q83 0 131 61.5t31 147.5l-103 477h31
l102 -477q17 -86 90 -147.5t158 -61.5h92z" />
    <glyph glyph-name="uniFE9E" unicode="&#x62c;" horiz-adv-x="1542" arabic-form="final" 
d="M582 0q-116 0 -179 -80.5t-38 -195.5q25 -116 122.5 -196.5t212.5 -80.5h441l6 -31h-440q-127 0 -236 90t-137 218q-28 127 42.5 217t198.5 90h818q-57 30 -99 83.5t-55 116.5l-31 150q-56 261 -239 383q-69 46 -156 71.5t-157 31t-145.5 0.5t-108 -10.5t-58.5 -11.5
l-4 -1l-12 28q15 4 47.5 10.5t110 13t154 2.5t172 -31.5t171.5 -78.5q197 -132 256 -407l31 -150q19 -83 86 -141.5t145 -58.5h207l6 -31h-1132zM700 -244q20 0 37.5 -13t20.5 -32q4 -20 -7.5 -33.5t-31.5 -13.5q-18 0 -34.5 13.5t-20.5 33.5q-3 19 8 32t28 13z" />
    <glyph glyph-name="uniFE9F" unicode="&#x62c;" horiz-adv-x="1366" arabic-form="initial" 
d="M1337 0h-1190q-15 0 -18 16q-4 15 12 15h1069q-58 31 -100 86.5t-55 120.5l-29 129q-55 266 -246 393q-75 50 -169 76.5t-172 30.5t-152.5 -2t-109.5 -13t-44 -10l-12 30q16 4 49 11t112 13.5t157.5 1.5t176.5 -33t177 -81q205 -134 264 -417l28 -129q19 -86 87 -146.5
t147 -60.5h12zM686 -244q20 0 37 -13t20 -32q4 -20 -7 -33.5t-31 -13.5q-18 0 -35 13.5t-21 33.5q-3 18 8 31.5t29 13.5z" />
    <glyph glyph-name="uniFEA0" unicode="&#x62c;" horiz-adv-x="1298" arabic-form="medial" 
d="M1470 0h-1323q-15 0 -18 16q-4 15 12 15h1028q-58 31 -100 86.5t-55 120.5l-29 129q-55 266 -246 393q-75 50 -169 76.5t-172 30.5t-152.5 -2t-109.5 -13t-44 -10l-12 30q16 4 49 11t112 13.5t157.5 1.5t176.5 -33t177 -81q205 -134 264 -417l28 -129q19 -86 87 -146.5
t147 -60.5h186zM850 -244q20 0 37 -13t20 -32q4 -20 -7.5 -33.5t-31.5 -13.5q-18 0 -34.5 13.5t-20.5 33.5q-3 18 8 31.5t29 13.5z" />
    <glyph glyph-name="uniFEA2" unicode="&#x62d;" horiz-adv-x="1542" arabic-form="final" 
d="M582 0q-116 0 -179 -80.5t-38 -195.5q25 -116 122.5 -196.5t212.5 -80.5h441l6 -31h-440q-127 0 -236 90t-137 218q-28 127 42.5 217t198.5 90h818q-57 30 -99 83.5t-55 116.5l-31 150q-56 261 -239 383q-69 46 -156 71.5t-157 31t-145.5 0.5t-108 -10.5t-58.5 -11.5
l-4 -1l-12 28q15 4 47.5 10.5t110 13t154 2.5t172 -31.5t171.5 -78.5q197 -132 256 -407l31 -150q19 -83 86 -141.5t145 -58.5h207l6 -31h-1132z" />
    <glyph glyph-name="uniFEA3" unicode="&#x62d;" horiz-adv-x="1366" arabic-form="initial" 
d="M1337 0h-1190q-15 0 -18 16q-4 15 12 15h1069q-58 31 -100 86.5t-55 120.5l-29 129q-55 266 -246 393q-75 50 -169 76.5t-172 30.5t-152.5 -2t-109.5 -13t-44 -10l-12 30q16 4 49 11t112 13.5t157.5 1.5t176.5 -33t177 -81q205 -134 264 -417l28 -129q19 -86 87 -146.5
t147 -60.5h12z" />
    <glyph glyph-name="uniFEA4" unicode="&#x62d;" horiz-adv-x="1298" arabic-form="medial" 
d="M1470 0h-1323q-15 0 -18 16q-4 15 12 15h1028q-58 31 -100 86.5t-55 120.5l-29 129q-55 266 -246 393q-75 50 -169 76.5t-172 30.5t-152.5 -2t-109.5 -13t-44 -10l-12 30q16 4 49 11t112 13.5t157.5 1.5t176.5 -33t177 -81q205 -134 264 -417l28 -129q19 -86 87 -146.5
t147 -60.5h186z" />
    <glyph glyph-name="uniFEA6" unicode="&#x62e;" horiz-adv-x="1542" arabic-form="final" 
d="M596 1171q20 0 37 -13t20 -32q4 -20 -7.5 -33.5t-31.5 -13.5q-18 0 -34.5 13.5t-20.5 33.5q-3 18 8 31.5t29 13.5zM582 0q-116 0 -179 -80.5t-38 -195.5q25 -116 122.5 -196.5t212.5 -80.5h441l6 -31h-440q-127 0 -236 90t-137 218q-28 127 42.5 217t198.5 90h818
q-57 30 -99 83.5t-55 116.5l-31 150q-56 261 -239 383q-69 46 -156 71.5t-157 31t-145.5 0.5t-108 -10.5t-58.5 -11.5l-4 -1l-12 28q15 4 47.5 10.5t110 13t154 2.5t172 -31.5t171.5 -78.5q197 -132 256 -407l31 -150q19 -83 86 -141.5t145 -58.5h207l6 -31h-1132z" />
    <glyph glyph-name="uniFEA7" unicode="&#x62e;" horiz-adv-x="1366" arabic-form="initial" 
d="M399 1126q-3 18 8 31.5t29 13.5q20 0 37.5 -13t20.5 -32q4 -20 -7.5 -33.5t-31.5 -13.5q-18 0 -35 13.5t-21 33.5zM1337 0h-1190q-15 0 -18 16q-4 15 12 15h1069q-58 31 -100 86.5t-55 120.5l-29 129q-55 266 -246 393q-75 50 -169 76.5t-172 30.5t-152.5 -2t-109.5 -13
t-44 -10l-12 30q16 4 49 11t112 13.5t157.5 1.5t176.5 -33t177 -81q205 -134 264 -417l28 -129q19 -86 87 -146.5t147 -60.5h12z" />
    <glyph glyph-name="uniFEA8" unicode="&#x62e;" horiz-adv-x="1304" arabic-form="medial" 
d="M358 1126q-3 18 8 31.5t29 13.5q20 0 37.5 -13t20.5 -32q4 -20 -7.5 -33.5t-31.5 -13.5q-18 0 -35 13.5t-21 33.5zM1470 0h-1323q-15 0 -18 16q-4 15 12 15h1028q-58 31 -100 86.5t-55 120.5l-29 129q-55 266 -246 393q-75 50 -169 76.5t-172 30.5t-152.5 -2t-109.5 -13
t-44 -10l-12 30q16 4 49 11t112 13.5t157.5 1.5t176.5 -33t177 -81q205 -134 264 -417l28 -129q19 -86 87 -146.5t147 -60.5h186z" />
    <glyph glyph-name="uniFEAA" unicode="&#x62f;" horiz-adv-x="1214" arabic-form="final" 
d="M1384 14q4 -14 -14 -14h-33q-112 0 -215 57.5t-170 155.5q0 -62 -26 -113q-29 -49 -78.5 -74.5t-110.5 -25.5h-446l-6 31h446q110 0 164 86q47 81 8 184l-270 598l26 6l281 -610q51 -117 160 -190.5t231 -73.5h33q14 0 20 -17z" />
    <glyph glyph-name="uniFEAC" unicode="&#x630;" horiz-adv-x="1277" arabic-form="final" 
d="M559 1079q-18 0 -34.5 13.5t-20.5 33.5q-3 18 8 31.5t29 13.5q20 0 37 -13t20 -32q4 -20 -7.5 -33.5t-31.5 -13.5zM1448 14q4 -14 -14 -14h-97q-117 0 -218 57t-167 156q0 -65 -26 -113q-29 -49 -78.5 -74.5t-110.5 -25.5h-446l-6 31h446q110 0 164 86q47 81 8 184
l-270 598l26 6l281 -610q51 -117 160 -190.5t231 -73.5h96q15 0 21 -17z" />
    <glyph glyph-name="uniFEAE" unicode="&#x631;" horiz-adv-x="729" arabic-form="final" 
d="M881 31q15 0 18 -17q3 -14 -12 -14h-86q-93 0 -180.5 48t-133.5 124l43 -207q12 -58 13 -108.5t-9 -90t-26.5 -72.5t-40.5 -57t-49.5 -43t-55.5 -32t-56 -21t-54 -14l-14 31q330 72 260 407l-195 920h31l121 -576q25 -117 123.5 -197.5t214.5 -80.5h88z" />
    <glyph glyph-name="uniFEB0" unicode="&#x632;" horiz-adv-x="718" arabic-form="final" 
d="M260 1171q20 0 37 -13t20 -32q4 -20 -7 -33.5t-31 -13.5q-18 0 -35 13.5t-21 33.5q-3 18 8 31.5t29 13.5zM870 31q16 0 19 -17q3 -14 -12 -14h-76q-95 0 -180.5 45.5t-133.5 126.5l43 -207q12 -58 13 -108.5t-9 -90t-26.5 -72.5t-40.5 -57t-49.5 -43t-55.5 -32t-56 -21
t-54 -14l-14 31q330 72 260 407l-195 920h31l121 -576q25 -117 123.5 -197.5t214.5 -80.5h77z" />
    <glyph glyph-name="uniFEB2" unicode="&#x633;" horiz-adv-x="2490" arabic-form="final" 
d="M2644 31q3 0 8.5 -6t7.5 -11q1 -7 -2.5 -10.5t-7.5 -3.5h-84q-79 0 -149 52t-97 128q-24 -86 -83.5 -133t-153.5 -47q-97 0 -187.5 58.5t-136.5 150.5q-11 -94 -76 -151t-167 -58q-85 0 -164.5 45.5t-134.5 122.5l100 -475q8 -34 -8.5 -57t-48.5 -23h-484
q-173 0 -322 122t-184 292l-51 239h33l51 -239q34 -160 170 -272.5t297 -112.5h483q21 0 32 14t7 37l-211 997h25l84 -393q23 -112 116.5 -189t204.5 -77q113 0 175.5 79.5t39.5 190.5l-81 389h30l84 -393q23 -112 116 -189t202 -77q113 0 173.5 79.5t37.5 190.5l-125 588
h30l144 -672q15 -76 80.5 -131t142.5 -55h84z" />
    <glyph glyph-name="uniFEB3" unicode="&#x633;" horiz-adv-x="1769" arabic-form="initial" 
d="M1569 887l123 -576q28 -129 -45.5 -220t-202.5 -91q-104 0 -197 59t-143 156q-12 -95 -81 -155t-169 -60q-92 0 -176.5 49.5t-140.5 134.5q3 -79 -47.5 -131.5t-131.5 -52.5h-213q-13 0 -16 14q-2 6 1 11.5t9 5.5h213q80 0 123.5 55.5t26.5 134.5l-103 484h31l86 -400
q23 -114 120.5 -194t211.5 -80q117 0 182.5 81.5t40.5 198.5l-84 394h27l86 -400q23 -114 122.5 -194t215.5 -80q118 0 183 81.5t40 198.5l-123 576h31z" />
    <glyph glyph-name="uniFEB4" unicode="&#x633;" horiz-adv-x="1998" arabic-form="medial" 
d="M2148 31q17 0 21 -15q1 -7 -3.5 -11.5t-11.5 -4.5h-174q-87 0 -165 56.5t-107 140.5q-19 -89 -89.5 -143t-172.5 -54q-106 0 -204.5 63t-149.5 162q-11 -99 -83 -162t-178 -63q-32 0 -70 8.5t-85 28t-95 60t-85 96.5q3 -82 -50 -137.5t-139 -55.5h-160q-15 0 -18 16
q-1 6 2.5 10.5t9.5 4.5h160q85 0 132 59t28 143l-101 469h31l82 -380q26 -121 128.5 -206t223.5 -85q122 0 189 87t41 210l-80 374h29l81 -380q26 -120 130 -205.5t225 -85.5q124 0 192.5 87t42.5 210l-119 561h31l142 -656q19 -85 89.5 -143.5t155.5 -58.5h174z" />
    <glyph glyph-name="uniFEB6" unicode="&#x634;" horiz-adv-x="2490" arabic-form="final" 
d="M1546 1141q20 0 38 -13t22 -32q3 -20 -8 -33.5t-31 -13.5q-18 0 -35.5 14t-20.5 33q-4 18 6.5 31.5t28.5 13.5zM1473 948q20 0 37 -13t22 -32q3 -20 -8 -33.5t-31 -13.5q-18 0 -35 13.5t-20 33.5q-4 18 6.5 31.5t28.5 13.5zM1706 948q20 0 37 -13t22 -32q3 -20 -8 -33.5
t-31 -13.5q-18 0 -35 13.5t-20 33.5q-4 18 6.5 31.5t28.5 13.5zM2644 31q3 0 8.5 -6t7.5 -11q1 -7 -2.5 -10.5t-7.5 -3.5h-84q-79 0 -149 52t-97 128q-24 -86 -83.5 -133t-153.5 -47q-97 0 -187.5 58.5t-136.5 150.5q-11 -94 -76 -151t-167 -58q-85 0 -164.5 45.5
t-134.5 122.5l100 -475q8 -34 -8.5 -57t-48.5 -23h-484q-173 0 -322 122t-184 292l-51 239h33l51 -239q34 -160 170 -272.5t297 -112.5h483q21 0 32 14t7 37l-215 1012h25l88 -408q23 -112 116.5 -189t204.5 -77q113 0 175.5 79.5t39.5 190.5l-86 404h31l88 -408
q23 -112 116 -189t202 -77q113 0 173.5 79.5t37.5 190.5l-125 588h30l144 -672q15 -76 80.5 -131t142.5 -55h84z" />
    <glyph glyph-name="uniFEB7" unicode="&#x634;" horiz-adv-x="1769" arabic-form="initial" 
d="M883 1141q20 0 37 -13t22 -32q3 -20 -8 -33.5t-31 -13.5q-18 0 -35 13.5t-20 33.5q-4 18 6.5 31.5t28.5 13.5zM809 948q20 0 37 -13t22 -32q3 -20 -8 -33.5t-31 -13.5q-18 0 -35 13.5t-20 33.5q-4 18 6.5 31.5t28.5 13.5zM1042 948q20 0 38 -13t22 -32q3 -20 -8 -33.5
t-31 -13.5q-18 0 -35 13.5t-20 33.5q-4 18 6 31.5t28 13.5zM1569 887l123 -576q28 -129 -45.5 -220t-202.5 -91q-104 0 -197 59t-143 156q-12 -95 -81 -155t-169 -60q-92 0 -176.5 49.5t-140.5 134.5q3 -79 -47.5 -131.5t-131.5 -52.5h-213q-13 0 -16 14q-2 6 1 11.5t9 5.5
h213q80 0 123.5 55.5t26.5 134.5l-103 484h31l86 -400q23 -114 120.5 -194t211.5 -80q117 0 182.5 81.5t40.5 198.5l-84 394h27l86 -400q23 -114 122.5 -194t215.5 -80q118 0 183 81.5t40 198.5l-123 576h31z" />
    <glyph glyph-name="uniFEB8" unicode="&#x634;" horiz-adv-x="1998" arabic-form="medial" 
d="M895 1141q20 0 37 -13t22 -32q3 -20 -8 -33.5t-31 -13.5q-18 0 -35 13.5t-20 33.5q-4 18 6.5 31.5t28.5 13.5zM821 948q20 0 38 -13t22 -32q3 -20 -8 -33.5t-31 -13.5q-18 0 -35.5 14t-20.5 33q-4 18 6.5 31.5t28.5 13.5zM1055 948q20 0 37 -13t22 -32q3 -20 -8 -33.5
t-31 -13.5q-18 0 -35 13.5t-20 33.5q-4 18 6.5 31.5t28.5 13.5zM2148 31q17 0 21 -15q1 -7 -3.5 -11.5t-11.5 -4.5h-174q-87 0 -165 56.5t-107 140.5q-19 -89 -89.5 -143t-172.5 -54q-106 0 -204.5 63t-149.5 162q-11 -99 -83 -162t-178 -63q-32 0 -70 8.5t-85 28t-95 60
t-85 96.5q3 -82 -50 -137.5t-139 -55.5h-160q-15 0 -18 16q-1 6 2.5 10.5t9.5 4.5h160q85 0 132 59t28 143l-101 469h31l82 -380q26 -121 128.5 -206t223.5 -85q122 0 189 87t41 210l-80 374h29l81 -380q26 -120 130 -205.5t225 -85.5q124 0 192.5 87t42.5 210l-119 561h31
l142 -656q19 -85 89.5 -143.5t155.5 -58.5h174z" />
    <glyph glyph-name="uniFEBA" unicode="&#x635;" horiz-adv-x="2637" arabic-form="final" 
d="M2804 31l6 -31h-1507l69 -328q8 -32 -10.5 -56t-52.5 -24h-510q-118 0 -231 58t-193 158t-105 217l-53 251h29l53 -251q23 -109 98 -202t180.5 -147.5t215.5 -54.5h510q21 0 33 15t7 36l-258 1215h29l47 -215l598 194q137 44 290 -7t253 -173q79 -102 104 -219l86 -401
q3 -22 -2 -35h314zM2435 31q14 0 22 10t5 25l-86 401q-26 118 -99 205q-88 114 -229 159.5t-272 8.5l-609 -201l129 -608h1139z" />
    <glyph glyph-name="uniFEBB" unicode="&#x635;" horiz-adv-x="1693" arabic-form="initial" 
d="M1479 686q79 -102 104 -219l86 -401q6 -30 -9.5 -48t-41.5 -18h-1487l-6 31h319l-182 856h29l47 -215l598 194q137 44 290 -7t253 -173zM1638 66l-86 401q-27 120 -98 205q-88 114 -229.5 159.5t-272.5 8.5l-608 -201l129 -608h1139q14 0 21.5 10t4.5 25z" />
    <glyph glyph-name="uniFEBC" unicode="&#x635;" horiz-adv-x="1814" arabic-form="medial" 
d="M1980 31l7 -31h-1856l-6 31h319l-182 856h29l47 -215l598 194q137 44 290 -7t253 -173q79 -102 104 -219l86 -401q3 -22 -2 -35h313zM1612 31q14 0 21.5 10t4.5 25l-86 401q-27 120 -98 205q-88 114 -229.5 159.5t-272.5 8.5l-608 -201l129 -608h1139z" />
    <glyph glyph-name="uniFEBE" unicode="&#x636;" horiz-adv-x="2637" arabic-form="final" 
d="M1661 1079q-18 0 -34.5 13.5t-20.5 33.5q-3 19 8 32t28 13q20 0 37.5 -13t20.5 -32q4 -20 -7.5 -33.5t-31.5 -13.5zM2804 31l6 -31h-1507l69 -328q8 -32 -10.5 -56t-52.5 -24h-510q-118 0 -231 58t-193 158t-105 217l-53 251h29l53 -251q23 -109 98 -202t180.5 -147.5
t215.5 -54.5h510q21 0 33 15t7 36l-258 1215h29l47 -215l598 194q137 44 290 -7t253 -173q79 -102 104 -219l86 -401q3 -22 -2 -35h314zM2435 31q14 0 22 10t5 25l-86 401q-26 118 -99 205q-88 114 -229 159.5t-272 8.5l-609 -201l129 -608h1139z" />
    <glyph glyph-name="uniFEBF" unicode="&#x636;" horiz-adv-x="1693" arabic-form="initial" 
d="M723 1171q20 0 37 -13t20 -32q4 -20 -7.5 -33.5t-31.5 -13.5q-18 0 -34.5 13.5t-20.5 33.5q-3 18 8 31.5t29 13.5zM1479 686q79 -102 104 -219l86 -401q6 -30 -9.5 -48t-41.5 -18h-1487l-6 31h319l-182 856h29l47 -215l598 194q137 44 290 -7t253 -173zM1638 66l-86 401
q-27 120 -98 205q-88 114 -229.5 159.5t-272.5 8.5l-608 -201l129 -608h1139q14 0 21.5 10t4.5 25z" />
    <glyph glyph-name="uniFEC0" unicode="&#x636;" horiz-adv-x="1814" arabic-form="medial" 
d="M901 1079q-18 0 -34.5 13.5t-20.5 33.5q-3 18 8 31.5t29 13.5q20 0 37 -13t20 -32q4 -20 -7.5 -33.5t-31.5 -13.5zM1980 31l7 -31h-1856l-6 31h319l-182 856h29l47 -215l598 194q137 44 290 -7t253 -173q79 -102 104 -219l86 -401q3 -22 -2 -35h313zM1612 31
q14 0 21.5 10t4.5 25l-86 401q-27 120 -98 205q-88 114 -229.5 159.5t-272.5 8.5l-608 -201l129 -608h1139z" />
    <glyph glyph-name="uniFEC2" unicode="&#x637;" horiz-adv-x="1957" arabic-form="final" 
d="M2124 31l6 -31h-1841l-6 31h305l-295 1388h31l155 -733l598 195q137 44 290 -7.5t253 -173.5q81 -104 102 -219l90 -415q3 -22 -2 -35h314zM1755 31q14 0 22 10t5 25l-90 415q-23 117 -99 205q-88 114 -228 159.5t-271 8.5l-607 -201l131 -622h1137z" />
    <glyph glyph-name="uniFEC3" unicode="&#x637;" horiz-adv-x="1693" arabic-form="initial" 
d="M1477 700q81 -104 102 -219l90 -415q6 -30 -9.5 -48t-41.5 -18h-1487l-6 31h319l-294 1388h30l156 -733l598 195q137 44 290 -7.5t253 -173.5zM1638 66l-90 415q-23 119 -98 205q-88 114 -228.5 159.5t-271.5 8.5l-606 -201l131 -622h1137q14 0 21.5 10t4.5 25z" />
    <glyph glyph-name="uniFEC4" unicode="&#x637;" horiz-adv-x="1814" arabic-form="medial" 
d="M1980 31l7 -31h-1856l-6 31h319l-294 1388h30l156 -735l598 195q137 44 290 -7.5t253 -173.5q79 -102 104 -219l88 -413q3 -22 -2 -35h313zM1612 31q14 0 21.5 10t4.5 25l-88 413q-27 121 -100 205q-88 114 -228.5 159.5t-271.5 8.5l-606 -201l131 -620h1137z" />
    <glyph glyph-name="uniFEC6" unicode="&#x638;" horiz-adv-x="1957" arabic-form="final" 
d="M2124 31l6 -31h-1841l-6 31h305l-295 1388h31l155 -733l598 195q137 44 290 -7.5t253 -173.5q81 -104 102 -219l90 -415q3 -22 -2 -35h314zM1081 1079q-18 0 -34.5 13.5t-20.5 33.5q-3 18 8 31.5t29 13.5q20 0 37 -13t20 -32q4 -20 -7.5 -33.5t-31.5 -13.5zM1755 31
q14 0 22 10t5 25l-90 415q-23 117 -99 205q-88 114 -228 159.5t-271 8.5l-607 -201l131 -622h1137z" />
    <glyph glyph-name="uniFEC7" unicode="&#x638;" horiz-adv-x="1673" arabic-form="initial" 
d="M1477 700q81 -104 102 -219l90 -415q6 -30 -9.5 -48t-41.5 -18h-1487l-6 31h319l-294 1388h30l156 -733l598 195q137 44 290 -7.5t253 -173.5zM848 1171q20 0 37 -13t20 -32q4 -20 -7.5 -33.5t-31.5 -13.5q-18 0 -34.5 13.5t-20.5 33.5q-3 18 8 31.5t29 13.5zM1638 66
l-90 415q-23 119 -98 205q-88 114 -228.5 159.5t-271.5 8.5l-606 -201l131 -622h1137q14 0 21.5 10t4.5 25z" />
    <glyph glyph-name="uniFEC8" unicode="&#x638;" horiz-adv-x="1814" arabic-form="medial" 
d="M1980 31l7 -31h-1856l-6 31h319l-294 1388h30l156 -735l598 195q137 44 290 -7.5t253 -173.5q79 -102 104 -219l88 -413q3 -22 -2 -35h313zM887 1079q-18 0 -35 13.5t-21 33.5q-3 18 8 31.5t29 13.5q20 0 37.5 -13t20.5 -32q4 -20 -7.5 -33.5t-31.5 -13.5zM1612 31
q14 0 21.5 10t4.5 25l-88 413q-27 121 -100 205q-88 114 -228.5 159.5t-271.5 8.5l-606 -201l131 -620h1137z" />
    <glyph glyph-name="uniFECA" unicode="&#x639;" horiz-adv-x="1280" arabic-form="final" 
d="M1466 31l7 -31h-855q-128 0 -197.5 -91t-43.5 -218q28 -127 136.5 -217t236.5 -90h483l8 -31h-483q-143 0 -265 98.5t-153 239.5q-29 139 50.5 239.5t221.5 100.5h140l-404 641l10 119q97 69 235 99t257 7q132 -26 234.5 -136t117.5 -243q7 -64 -1.5 -130.5t-34 -137
t-82.5 -129.5t-138 -90h520zM387 770l-8 -96l405 -641q83 5 149.5 31t107.5 65.5t71 89.5t41 102t16.5 104t-2.5 95q-13 122 -104.5 222t-212.5 126q-218 42 -463 -98z" />
    <glyph glyph-name="uniFECB" unicode="&#x639;" horiz-adv-x="1058" arabic-form="initial" 
d="M1032 31l6 -31h-907l-6 29h389q-108 43 -188 133.5t-103 199.5l-39 179q-31 149 54 254.5t233 105.5q151 0 278.5 -104.5t159.5 -255.5h-30q-29 139 -145 234t-257 95q-136 0 -213.5 -96t-48.5 -233l39 -179q29 -136 147.5 -233.5t253.5 -97.5h377z" />
    <glyph glyph-name="uniFECC" unicode="&#x639;" horiz-adv-x="1110" arabic-form="medial" 
d="M145 0l-6 31h418l-403 641l10 119q97 69 234.5 99t256.5 7q133 -26 235.5 -136t117.5 -243q7 -64 -1.5 -130.5t-34 -137t-82.5 -129.5t-138 -90l510 2l6 -31zM184 674l406 -641q83 5 149.5 31t107.5 65.5t71 89.5t41 102t16.5 104t-2.5 95q-13 122 -105 222t-213 126
q-218 42 -462 -98z" />
    <glyph glyph-name="uniFECE" unicode="&#x63a;" horiz-adv-x="1280" arabic-form="final" 
d="M625 1079q-18 0 -35 13.5t-21 33.5q-3 18 8 31.5t29 13.5q20 0 37.5 -13t20.5 -32q4 -20 -7.5 -33.5t-31.5 -13.5zM1466 31l7 -31h-855q-128 0 -197.5 -91t-43.5 -218q28 -127 136.5 -217t236.5 -90h483l8 -31h-483q-143 0 -265 98.5t-153 239.5q-29 139 50.5 239.5
t221.5 100.5h140l-404 641l10 119q97 69 235 99t257 7q132 -26 234.5 -136t117.5 -243q7 -64 -1.5 -130.5t-34 -137t-82.5 -129.5t-138 -90h520zM387 770l-8 -96l405 -641q83 5 149.5 31t107.5 65.5t71 89.5t41 102t16.5 104t-2.5 95q-13 122 -104.5 222t-212.5 126
q-218 42 -463 -98z" />
    <glyph glyph-name="uniFECF" unicode="&#x63a;" horiz-adv-x="1058" arabic-form="initial" 
d="M395 1171q20 0 37.5 -13t20.5 -32q4 -20 -7.5 -33.5t-31.5 -13.5q-18 0 -35 13.5t-21 33.5q-3 18 8 31.5t29 13.5zM1044 31l7 -31h-920l-6 29h389q-108 43 -188 133.5t-103 199.5l-39 179q-31 149 54 254.5t233 105.5q151 0 278.5 -104.5t159.5 -255.5h-30
q-29 139 -145 234t-257 95q-136 0 -213.5 -96t-48.5 -233l39 -179q29 -136 147.5 -233.5t253.5 -97.5h389z" />
    <glyph glyph-name="uniFED0" unicode="&#x63a;" horiz-adv-x="1128" arabic-form="medial" 
d="M471 1171q20 0 37 -13t20 -32q4 -20 -7.5 -33.5t-31.5 -13.5q-18 0 -34.5 13.5t-20.5 33.5q-3 18 8 31.5t29 13.5zM145 0l-6 31h418l-403 641l10 119q97 69 234.5 99t256.5 7q133 -26 235.5 -136t117.5 -243q7 -64 -1.5 -130.5t-34 -137t-82.5 -129.5t-138 -90l510 2
l6 -31zM184 674l406 -641q83 5 149.5 31t107.5 65.5t71 89.5t41 102t16.5 104t-2.5 95q-13 122 -105 222t-213 126q-218 42 -462 -98z" />
    <glyph glyph-name="uniFED2" unicode="&#x641;" horiz-adv-x="2023" arabic-form="final" 
d="M1335 1182q20 0 37.5 -13t20.5 -32q4 -20 -7.5 -33.5t-31.5 -13.5q-18 0 -35 13.5t-21 33.5q-3 18 8 31.5t29 13.5zM2175 31l6 -31h-1456q-186 0 -346.5 133t-200.5 320l-53 258h31l53 -258q37 -173 187 -296.5t323 -123.5h733q-137 50 -239.5 164.5t-131.5 253.5l-14 61
q-34 161 56 275t251 114t299 -114t172 -275l103 -481h227zM1917 31l-102 481q-31 148 -158.5 253t-276.5 105q-148 0 -230.5 -105t-51.5 -253l14 -61q34 -164 170 -284t301 -134z" />
    <glyph glyph-name="uniFED3" unicode="&#x641;" horiz-adv-x="1116" arabic-form="initial" 
d="M502 1182q20 0 37 -13t20 -32q4 -20 -7.5 -33.5t-31.5 -13.5q-18 0 -34.5 13.5t-20.5 33.5q-3 18 8 31.5t29 13.5zM524 901h389l179 -835q5 -28 -10.5 -47t-43.5 -19h-907l-6 31h432q-115 45 -201 142t-112 216l-27 123q-34 161 56 275t251 114zM1061 66l-172 804h-359
q-149 0 -231 -104.5t-51 -253.5l26 -123q31 -148 158.5 -253t276.5 -105h323q14 0 23 11t6 24z" />
    <glyph glyph-name="uniFED4" unicode="&#x641;" horiz-adv-x="1232" arabic-form="medial" 
d="M520 1090q-18 0 -34.5 13.5t-20.5 33.5q-3 18 8 31.5t29 13.5q20 0 37 -13t20 -32q4 -20 -7.5 -33.5t-31.5 -13.5zM1098 31h286l7 -31h-1246l-6 31h430q-116 45 -201.5 141.5t-111.5 216.5l-27 121q-34 162 55.5 276.5t250.5 114.5t299 -115t172 -276l94 -442
q5 -20 -2 -37zM1042 31q14 0 22.5 10.5t4.5 26.5l-94 442q-31 149 -158 253.5t-276 104.5t-231.5 -104.5t-51.5 -253.5l27 -121q31 -148 158 -253t276 -105h323z" />
    <glyph glyph-name="uniFED6" unicode="&#x642;" horiz-adv-x="1312" arabic-form="final" 
d="M602 1182q20 0 37 -13t20 -32q4 -20 -7 -33.5t-31 -13.5q-18 0 -35 13.5t-21 33.5q-3 18 8 31.5t29 13.5zM795 1182q20 0 37 -13t20 -32q4 -20 -7.5 -33.5t-31.5 -13.5q-18 0 -34.5 13.5t-20.5 33.5q-3 18 8 31.5t29 13.5zM1479 31l6 -31h-172l71 -330q7 -35 -12 -60.5
t-53 -25.5h-514q-120 0 -234.5 59t-195 160.5t-105.5 221.5l-53 249h33l53 -249q23 -111 97.5 -205t180 -148.5t216.5 -54.5h514q23 0 34 14t7 39l-72 330h-348q-156 0 -290.5 110.5t-168.5 268.5l-31 145q-32 155 56 266t243 111q157 0 293 -111t168 -266l105 -493h172z
M1274 31l-105 493q-31 143 -153.5 244.5t-267.5 101.5t-225.5 -101.5t-49.5 -244.5l31 -145q31 -145 154 -246.5t268 -101.5h348z" />
    <glyph glyph-name="uniFED7" unicode="&#x642;" horiz-adv-x="1116" arabic-form="initial" 
d="M385 1182q20 0 37 -13t20 -32q4 -20 -7.5 -33.5t-31.5 -13.5q-18 0 -34.5 13.5t-20.5 33.5q-3 18 8 31.5t29 13.5zM578 1182q20 0 37 -13t20 -32q4 -20 -7.5 -33.5t-31.5 -13.5q-18 0 -34.5 13.5t-20.5 33.5q-3 18 8 31.5t29 13.5zM524 901h389l179 -835q5 -28 -10.5 -47
t-43.5 -19h-907l-6 31h432q-115 45 -201 142t-112 216l-27 123q-34 161 56 275t251 114zM1061 66l-172 804h-359q-149 0 -231 -104.5t-51 -253.5l26 -123q31 -148 158.5 -253t276.5 -105h323q14 0 23 11t6 24z" />
    <glyph glyph-name="uniFED8" unicode="&#x642;" horiz-adv-x="1232" arabic-form="medial" 
d="M410 1090q-18 0 -35 13.5t-21 33.5q-3 18 8 31.5t29 13.5q20 0 37.5 -13t20.5 -32q4 -20 -7.5 -33.5t-31.5 -13.5zM602 1090q-18 0 -34.5 13.5t-20.5 33.5q-3 18 8 31.5t29 13.5q20 0 37 -13t20 -32q4 -20 -7.5 -33.5t-31.5 -13.5zM1098 31h286l7 -31h-1246l-6 31h430
q-116 45 -201.5 141.5t-111.5 216.5l-27 121q-34 162 55.5 276.5t250.5 114.5t299 -115t172 -276l94 -442q5 -20 -2 -37zM1042 31q14 0 22.5 10.5t4.5 26.5l-94 442q-31 149 -158 254.5t-276 105.5t-231.5 -105t-51.5 -255l27 -121q31 -148 158 -253t276 -105h323z" />
    <glyph glyph-name="uniFEDA" unicode="&#x643;" horiz-adv-x="1572" arabic-form="final" 
d="M1739 31l6 -31h-1049q-175 0 -324 123.5t-186 298.5l-51 240h27l51 -240q34 -162 174.5 -276.5t302.5 -114.5h778q21 0 33 13.5t8 33.5l-284 1341h30l285 -1341q6 -25 -6 -47h205zM668 829q-70 51 -84 117q-15 68 19 112t93 44q61 0 113 -45t63 -99h-28q-9 44 -52.5 79.5
t-89.5 35.5q-51 0 -75.5 -35t-12.5 -92q11 -48 51 -82.5t89 -34.5h139l6 -26h-297l-6 26h72z" />
    <glyph glyph-name="uniFEDB" unicode="&#x643;" horiz-adv-x="1277" arabic-form="initial" 
d="M631 895q184 0 342 -130.5t198 -315.5l82 -386q5 -27 -9 -45t-40 -18h-1073l-6 31h1071q14 0 22 9.5t5 22.5l-82 386q-37 172 -186.5 294.5t-321.5 122.5h-555l-23 39l299 588l29 -18l-299 -580h547z" />
    <glyph glyph-name="uniFEDC" unicode="&#x643;" horiz-adv-x="1329" arabic-form="medial" 
d="M1495 31l4 -31h-1368l-6 31h1102l-88 418q-37 172 -186.5 294.5t-321.5 122.5h-537l-22 49l282 578l29 -18l-283 -580h531q184 0 342 -130.5t198 -315.5l89 -418h235z" />
    <glyph glyph-name="uniFEDE" unicode="&#x644;" horiz-adv-x="1474" arabic-form="final" 
d="M1626 31q16 0 19 -17q1 -6 -3 -10t-10 -4h-76q-86 0 -167.5 48t-124.5 124l104 -494q6 -34 -12.5 -57.5t-52.5 -23.5h-508q-118 0 -230.5 58t-192 158t-104.5 218l-53 250h31l53 -250q35 -167 178.5 -285.5t310.5 -118.5h508q22 0 33.5 14.5t7.5 36.5l-370 1741h30
l236 -1110q25 -116 117 -197t198 -81h78z" />
    <glyph glyph-name="uniFEDF" unicode="&#x644;" horiz-adv-x="581" arabic-form="initial" 
d="M145 0q-13 0 -16 14q-2 6 1 11.5t9 5.5h156q82 0 127.5 56.5t28.5 135.5l-254 1196h30l254 -1196q20 -93 -30.5 -158t-143.5 -65h-162z" />
    <glyph glyph-name="uniFEE0" unicode="&#x644;" horiz-adv-x="589" arabic-form="medial" 
d="M739 31q18 0 21 -15q1 -6 -4 -11t-11 -5h-92q-74 0 -142.5 43.5t-109.5 112.5q-11 -68 -62.5 -112t-125.5 -44h-68q-13 0 -16 16q-4 15 10 15h68q83 0 131 61.5t31 147.5l-252 1179h30l252 -1179q17 -86 90 -147.5t158 -61.5h92z" />
    <glyph glyph-name="uniFEE2" unicode="&#x645;" horiz-adv-x="1327" arabic-form="final" 
d="M1516 31l6 -31h-92q-104 0 -193 71t-115 173q-21 -109 -104.5 -176.5t-204.5 -67.5q-122 0 -227.5 53.5t-169.5 139.5l28 -127q16 -63 12.5 -116t-13.5 -94t-34 -74.5t-48.5 -57.5t-58 -42.5t-62 -29.5t-60.5 -19l-12 31q312 81 246 402l-178 835h387q161 0 299 -114
t172 -277l55 -252q20 -94 99.5 -160.5t174.5 -66.5h93zM807 31q149 0 232 104.5t51 253.5l-27 121q-31 150 -157.5 255t-276.5 105h-357l109 -505q23 -112 92.5 -190t154.5 -111t179 -33z" />
    <glyph glyph-name="uniFEE3" unicode="&#x645;" horiz-adv-x="1310" arabic-form="initial" 
d="M129 31q-6 0 -9 -5.5t-1 -11.5q5 -14 16 -14h86q114 0 187 73t73 183q69 -116 186.5 -187.5t241.5 -68.5q158 3 244.5 118t52.5 275l-26 117q-34 163 -172 277t-299 114h-387l122 -579q26 -120 -41.5 -205.5t-187.5 -85.5h-86zM895 31q-148 -1 -275 104t-159 254
l-103 481h357q150 0 276.5 -105t157.5 -255l27 -117q20 -98 -10 -181t-101.5 -131.5t-169.5 -49.5z" />
    <glyph glyph-name="uniFEE4" unicode="&#x645;" horiz-adv-x="1462" arabic-form="medial" 
d="M1612 31q6 0 12.5 -5t7.5 -12q2 -4 -3 -9t-11 -5h-92q-104 0 -192.5 71t-114.5 173q-21 -109 -105 -176.5t-205 -67.5q-123 0 -237.5 71t-179.5 185q0 -110 -73.5 -183t-187.5 -73h-86q-11 0 -16 14q-2 6 1 11.5t9 5.5h86q120 0 188 85.5t42 205.5l-123 579h387
q161 0 299 -114t172 -277l55 -252q20 -94 100.5 -160.5t174.5 -66.5h92zM1186 393l-27 117q-31 150 -157.5 255t-276.5 105h-356l102 -481q32 -149 159 -254t275 -104q98 1 169.5 49.5t101.5 131.5t10 181z" />
    <glyph glyph-name="uniFEE6" unicode="&#x646;" horiz-adv-x="1466" arabic-form="final" 
d="M627 934q21 0 38.5 -13.5t20.5 -31.5q4 -20 -7.5 -33.5t-31.5 -13.5q-18 0 -34.5 13.5t-20.5 33.5q-3 19 7.5 32t27.5 13zM1618 31q15 0 18 -17q1 -6 -2.5 -10t-9.5 -4h-76q-87 0 -168.5 48t-124.5 124l105 -491q6 -32 -14 -55t-54 -23h-499q-118 0 -230 57.5t-191 156.5
t-104 216l-51 243h31l51 -243q23 -108 96.5 -200.5t178 -147t212.5 -54.5h500q21 0 33.5 14.5t9.5 35.5l-248 1163h31l113 -535q25 -116 117 -197t198 -81h78z" />
    <glyph glyph-name="uniFEE7" unicode="&#x646;" horiz-adv-x="552" arabic-form="initial" 
d="M244 1171q20 0 37 -13t20 -32q4 -20 -7.5 -33.5t-31.5 -13.5q-18 0 -34.5 13.5t-20.5 33.5q-3 18 8 31.5t29 13.5zM270 0h-120q-17 0 -21 12q-2 8 2.5 13.5t11.5 5.5h121q87 0 136 60.5t30 146.5l-137 647h31l137 -647q20 -98 -36.5 -168t-154.5 -70z" />
    <glyph glyph-name="uniFEE8" unicode="&#x646;" horiz-adv-x="589" arabic-form="medial" 
d="M209 1055q20 0 37 -13t22 -32q3 -20 -9 -33.5t-32 -13.5q-18 0 -34 13.5t-19 33.5q-4 18 6.5 31.5t28.5 13.5zM739 31q18 0 21 -15q1 -6 -4 -11t-11 -5h-92q-74 0 -142.5 43.5t-109.5 112.5q-11 -68 -62.5 -112t-125.5 -44h-68q-13 0 -16 14q-3 17 10 17h68
q83 0 131 61.5t31 147.5l-101 462h31l100 -462q17 -86 90 -147.5t158 -61.5h92z" />
    <glyph glyph-name="uniFEEA" unicode="&#x647;" horiz-adv-x="1269" arabic-form="final" 
d="M1421 31q6 0 11.5 -5.5t7.5 -11.5q2 -5 -2.5 -9.5t-10.5 -4.5h-86q-114 0 -217 73t-149 183q-19 -114 -103.5 -185t-207.5 -71q-161 0 -299 114t-172 275l-27 121q-34 163 56 277t251 114h387l123 -579q26 -120 129 -205.5t223 -85.5h86zM657 31q148 0 230.5 104.5
t50.5 253.5l-102 481h-357q-149 0 -231 -104.5t-51 -255.5l26 -121q32 -149 158.5 -253.5t275.5 -104.5z" />
    <glyph glyph-name="uniFEEB" unicode="&#x647;" horiz-adv-x="1400" arabic-form="initial" 
d="M770 967q201 -66 350 -230.5t193 -371.5l59 -281q6 -35 -11 -59.5t-50 -24.5h-1180l-6 31h352q-107 42 -187 132.5t-104 203.5q-31 151 52.5 257.5t232.5 106.5q152 0 281.5 -106.5t160.5 -257.5l66 -306q5 -19 -6 -30h332q21 0 32 15.5t6 37.5l-59 281
q-41 195 -184.5 353.5t-335.5 219.5q-211 68 -383 68l-2 28q192 -6 391 -67zM477 700q-138 0 -215.5 -97t-48.5 -236q31 -141 149 -238.5t256 -97.5h306q13 0 21 8.5t5 21.5l-65 306q-29 138 -149.5 235.5t-258.5 97.5z" />
    <glyph glyph-name="uniFEEC" unicode="&#x647;" horiz-adv-x="1239" arabic-form="medial" 
d="M1149 31h256l6 -31h-250l13 -51q35 -170 -60.5 -292t-265.5 -122q-172 0 -320.5 122t-183.5 292l-12 51h-201l-6 29h201l-88 415q-35 169 51 293.5t241 132.5q173 9 326 -110q148 -120 186 -293q26 -127 -14.5 -234.5t-136 -170t-223.5 -62.5h-306l13 -51
q34 -159 170 -271t295 -112t249 112t56 271l-15 61q-1 10 5.5 15.5t13.5 5.5zM268 444l88 -415h306q183 0 285.5 128.5t64.5 309.5q-36 164 -172 270q-136 111 -301 105q-95 -5 -165 -60t-98.5 -145t-7.5 -193z" />
    <glyph glyph-name="uniFEEE" unicode="&#x648;" horiz-adv-x="1067" arabic-form="final" 
d="M1049 0l14 -68q39 -179 -55 -290q-69 -83 -187 -115.5t-289 -32.5l-6 33q3 -1 36 -2t88.5 3.5t114.5 16.5t119.5 42.5t98.5 74.5q87 103 49 270l-14 68h-332q-181 0 -323 129t-183 317q-26 127 3 230.5t111 164t202 60.5h362l184 -870h191l6 -31h-190zM1012 31l-178 837
h-332q-111 0 -186.5 -56t-102 -152t-2.5 -214q37 -175 169.5 -295t299.5 -120h332z" />
    <glyph glyph-name="uniFEF0" unicode="&#x649;" horiz-adv-x="1798" arabic-form="final" 
d="M1948 31q17 0 20 -15q1 -6 -3.5 -11t-10.5 -5q-189 0 -377 43q65 -46 110 -113.5t60 -140.5q28 -129 -43.5 -220t-200.5 -91h-659q-129 0 -253 63.5t-212 173t-115 238.5l-57 274h33l57 -274q40 -184 198 -314.5t341 -130.5h659q116 0 180 82t39 199q-20 95 -93 174
t-171 111l-238 86l7 30q115 -45 196 -73q275 -86 533 -86z" />
    <glyph glyph-name="uniFEF2" unicode="&#x64a;" horiz-adv-x="1798" arabic-form="final" 
d="M1948 31q17 0 20 -15q1 -6 -3.5 -11t-10.5 -5q-189 0 -377 43q65 -46 110 -113.5t60 -140.5q28 -129 -43.5 -220t-200.5 -91h-659q-129 0 -253 63.5t-212 173t-115 238.5l-57 274h33l57 -274q40 -184 198 -314.5t341 -130.5h659q116 0 180 82t39 199q-20 95 -93 174
t-171 111l-238 86l7 30q115 -45 196 -73q275 -86 533 -86zM1061 -684q21 0 38.5 -13.5t20.5 -31.5q4 -20 -7.5 -33.5t-31.5 -13.5q-18 0 -34.5 13.5t-20.5 33.5q-3 19 7.5 32t27.5 13zM1260 -684q21 0 38.5 -13.5t20.5 -31.5q4 -20 -7.5 -33.5t-31.5 -13.5q-18 0 -34.5 13.5
t-20.5 33.5q-3 19 7.5 32t27.5 13z" />
    <glyph glyph-name="uniFEF3" unicode="&#x64a;" horiz-adv-x="620" arabic-form="initial" 
d="M369 0h-219q-17 0 -21 12q-2 8 2.5 13.5t11.5 5.5h219q87 0 136 60.5t30 146.5l-137 647h31l137 -647q20 -98 -36 -168t-154 -70zM418 -270q21 0 38.5 -13.5t20.5 -31.5q4 -20 -7.5 -33.5t-31.5 -13.5q-18 0 -34.5 13.5t-20.5 33.5q-3 19 7.5 32t27.5 13zM616 -270
q21 0 39 -13.5t21 -31.5q4 -20 -7.5 -33.5t-31.5 -13.5q-18 0 -34.5 13.5t-20.5 33.5q-3 19 7 32t27 13z" />
    <glyph glyph-name="uniFEF4" unicode="&#x64a;" horiz-adv-x="632" arabic-form="medial" 
d="M782 31q18 0 21 -15q1 -6 -4 -11t-11 -5h-106q-74 0 -142.5 43.5t-109.5 112.5q-11 -68 -62.5 -112t-125.5 -44h-97q-13 0 -16 16q-4 15 10 15h97q83 0 130.5 61.5t30.5 147.5l-100 462h31l100 -462q17 -86 90 -147.5t158 -61.5h106zM406 -270q21 0 38.5 -13.5
t20.5 -31.5q4 -20 -7.5 -33.5t-31.5 -13.5q-18 0 -34.5 13.5t-20.5 33.5q-3 19 7.5 32t27.5 13zM604 -270q21 0 39 -13.5t21 -31.5q4 -20 -7.5 -33.5t-31.5 -13.5q-18 0 -35 13.5t-21 33.5q-3 19 7.5 32t27.5 13z" />
    <glyph glyph-name=".notdef" horiz-adv-x="972" 
d="M799 1434v-1946h-619v1946h619zM647 1303h-319v-64h125v-72h-127v-63h321v63h-127v72h127v64zM520 1053h-194v-203h321v65h-127v138zM453 987v-72h-64v72h64zM647 797h-321v-64h127v-71h-127v-64h194v135h127v64zM647 680h-63v-127h-258v-68h321v195zM647 442h-194v-108
h67v45h64v-92h-195v155h-63v-219h321v219zM647 106h-321v-219h321v219zM584 43v-92h-195v92h195zM647 -158h-321v-63h135l-135 -92v-64h321v64h-198l137 92h61v63z" />
    <glyph glyph-name=".null" 
 />
    <glyph glyph-name="nonmarkingreturn" horiz-adv-x="682" 
 />
    <glyph glyph-name="CR" unicode="&#xd;" horiz-adv-x="512" 
 />
    <glyph glyph-name="space" unicode=" " horiz-adv-x="512" 
 />
    <glyph glyph-name="exclam" unicode="!" horiz-adv-x="536" 
d="M401 1434h37l-227 -1065h-33zM117 0q-19 0 -28.5 12t-6.5 31q5 19 19.5 31t33.5 12t28 -12t5 -31q-3 -19 -17.5 -31t-33.5 -12z" />
    <glyph glyph-name="quotedbl" unicode="&#x22;" horiz-adv-x="622" 
d="M301 1458h37l-115 -528h-33zM600 1458h37l-115 -528h-33z" />
    <glyph glyph-name="numbersign" unicode="#" horiz-adv-x="1507" 
d="M1126 934l-180 -434h285l-6 -33h-291l-178 -436h-37l178 436h-491l-179 -436h-37l179 436h-279l6 33h285l180 434h-285l7 33h290l179 436h36l-178 -436h492l178 436h37l-178 -436h278l-6 -33h-285zM1090 934h-492l-180 -434h491z" />
    <glyph glyph-name="dollar" unicode="$" horiz-adv-x="1187" 
d="M995 391q-34 -162 -171.5 -257.5t-340.5 -98.5l-28 -137h-35l29 137q-176 4 -279.5 83.5t-126.5 223.5l33 12q53 -275 381 -284l137 643l-66 16q-184 46 -254.5 122.5t-42.5 203.5q33 155 169 249t339 95l29 137h35l-29 -137q155 -6 248.5 -70t116.5 -178l-33 -14
q-47 218 -340 227l-133 -625l84 -20q179 -44 242 -124t36 -204zM600 748l131 616q-189 -2 -310.5 -82t-152.5 -227q-27 -126 45.5 -189.5t286.5 -117.5zM492 70q188 3 311.5 89t154.5 232q8 38 8 69.5t-8 58.5t-27 49t-45.5 40.5t-65.5 35.5t-85.5 31.5t-107.5 29.5z" />
    <glyph glyph-name="percent" unicode="%" horiz-adv-x="1611" 
d="M434 811q-141 0 -213 90t-41 234t140.5 233.5t250.5 89.5q140 0 211.5 -89.5t40.5 -233.5t-140 -234t-249 -90zM1462 1434h43l-1355 -1434h-44zM440 844q128 0 224 80.5t124 210.5t-33.5 210t-189.5 80t-225 -80t-125 -210t34.5 -210.5t190.5 -80.5zM1040 -25
q-140 0 -211.5 90t-40.5 234t140.5 234t249.5 90q141 0 213 -90t41 -234t-141 -234t-251 -90zM1047 8q128 0 225 80.5t125 210.5t-35 210.5t-191 80.5t-224 -80.5t-124 -210.5t34 -210.5t190 -80.5z" />
    <glyph glyph-name="ampersand" unicode="&#x26;" horiz-adv-x="1353" 
d="M1053 0l-133 199q-205 -224 -484 -224q-190 0 -286.5 99.5t-61.5 263.5q26 125 126 216.5t331 211.5q-106 160 -135 236t-11 161q27 125 136 210t260 85t223 -84.5t45 -210.5q-24 -113 -123 -197t-346 -212l332 -500q139 172 215 440h35q-81 -282 -232 -467l152 -227h-43
zM434 1163q-17 -80 12.5 -155t131.5 -230q242 126 335.5 204.5t114.5 180.5q26 117 -43 189.5t-197 72.5t-228 -72.5t-126 -189.5zM442 8q268 0 461 217l-342 516q-224 -116 -317.5 -202t-118.5 -201q-32 -150 56 -240t261 -90z" />
    <glyph glyph-name="quotesingle" unicode="'" horiz-adv-x="323" 
d="M301 1458h37l-115 -528h-33z" />
    <glyph glyph-name="parenleft" unicode="(" horiz-adv-x="604" 
d="M287 -260q-115 182 -148.5 418t19.5 481q53 247 186 482t324 417l24 -20q-185 -176 -316 -409t-181 -470q-52 -233 -19.5 -468.5t143.5 -410.5z" />
    <glyph glyph-name="parenright" unicode=")" horiz-adv-x="604" 
d="M414 639q-53 -247 -186 -482t-324 -417l-25 20q184 175 315 408.5t183 470.5q51 233 18.5 468.5t-143.5 410.5l33 20q115 -182 148.5 -418t-19.5 -481z" />
    <glyph glyph-name="asterisk" unicode="*" horiz-adv-x="911" 
d="M549 1051l158 -293l-35 -23l-150 299l-276 -299l-25 21l283 297l-328 108l19 35l323 -117l74 367h37l-82 -367l373 117l4 -35z" />
    <glyph glyph-name="plus" unicode="+" horiz-adv-x="1454" 
d="M1139 633h-412l-92 -436h-35l92 436h-413l8 33h413l93 436h34l-92 -436h412z" />
    <glyph glyph-name="comma" unicode="," horiz-adv-x="364" 
d="M88 223h37l-209 -528h-31z" />
    <glyph glyph-name="hyphen" unicode="-" horiz-adv-x="839" 
d="M111 606h573l-8 -33h-574z" />
    <glyph glyph-name="period" unicode="." horiz-adv-x="430" 
d="M63 0q-19 0 -28 12t-6 31q5 19 19.5 31t33.5 12t28 -12t5 -31q-3 -19 -18 -31t-34 -12z" />
    <glyph glyph-name="slash" unicode="/" horiz-adv-x="876" 
d="M969 1516h37l-1121 -1709h-37z" />
    <glyph glyph-name="zero" unicode="0" horiz-adv-x="1425" 
d="M555 -25q-160 0 -263.5 93.5t-132.5 258.5t15 390q71 333 262 537t434 204q160 0 263.5 -93.5t132.5 -258t-15 -389.5q-71 -333 -262 -537.5t-434 -204.5zM563 10q224 0 403 194.5t246 512.5t-29.5 512t-320.5 194t-403 -194t-246 -512t29.5 -512.5t320.5 -194.5z" />
    <glyph glyph-name="one" unicode="1" horiz-adv-x="849" 
d="M735 1434l-303 -1434h-37l295 1393l-434 4l6 37h473z" />
    <glyph glyph-name="two" unicode="2" horiz-adv-x="1191" 
d="M920 35l-7 -35h-954l6 29l731 569q177 138 264 250t111 225q35 162 -51 256t-254 94q-155 0 -292 -85.5t-243 -258.5l-28 13q107 181 257 273.5t314 92.5q183 0 277 -107t57 -278q-25 -119 -116.5 -237t-270.5 -258l-698 -543h897z" />
    <glyph glyph-name="three" unicode="3" horiz-adv-x="1142" 
d="M690 731q158 -32 223 -121t35 -227q-38 -182 -195 -295t-366 -113q-142 0 -252.5 56.5t-163.5 163.5l31 20q51 -102 153.5 -153.5t239.5 -51.5q199 0 340 102t176 271q36 166 -71 251t-359 85h-92l8 35h187q187 0 307 86.5t151 236.5q34 157 -52.5 251.5t-264.5 94.5
q-145 0 -276 -64t-222 -179l-24 18q99 124 238 192t292 68q196 0 289 -107.5t57 -273.5q-28 -137 -130.5 -229.5t-258.5 -116.5z" />
    <glyph glyph-name="four" unicode="4" horiz-adv-x="1234" 
d="M74 395h772l137 654h37l-137 -654h239l-8 -35h-240l-75 -360h-37l76 360h-820l9 35l1034 1039l33 -25z" />
    <glyph glyph-name="five" unicode="5" horiz-adv-x="1181" 
d="M643 874q205 0 307 -117.5t60 -316.5q-43 -206 -206.5 -335.5t-387.5 -129.5q-134 0 -239 52t-167 155l31 21q55 -95 154 -144t229 -49q205 0 356 115t193 315q40 188 -50 295t-286 107q-205 0 -418 -146h-31l156 738h809l-6 -33h-774l-142 -664q208 137 412 137z" />
    <glyph glyph-name="six" unicode="6" horiz-adv-x="1216" 
d="M674 950q218 0 330.5 -130t64.5 -357q-50 -227 -218 -357.5t-386 -130.5q-106 0 -190.5 32.5t-138.5 95t-72.5 153t6.5 207.5q13 63 31.5 112t58.5 107t72 97.5t108 127.5l451 527h47l-506 -584q151 100 342 100zM473 10q207 0 359.5 121t197.5 332q44 211 -56.5 331.5
t-307.5 120.5q-208 0 -360.5 -121t-196.5 -331q-45 -211 56 -332t308 -121z" />
    <glyph glyph-name="seven" unicode="7" horiz-adv-x="1052" 
d="M1143 1434l-6 -31l-983 -1403h-41l981 1399h-887l6 35h930z" />
    <glyph glyph-name="eight" unicode="8" horiz-adv-x="1282" 
d="M788 737q154 -29 230 -131.5t45 -240.5q-37 -175 -196.5 -282.5t-383.5 -107.5t-338 107.5t-77 282.5q31 138 150 240.5t284 131.5q-135 29 -201.5 125t-40.5 225q37 167 185 269t354 102t311 -102t68 -269q-26 -128 -134 -224.5t-256 -125.5zM297 1087
q-31 -151 65.5 -242t286.5 -91q191 0 326 91.5t166 241.5q32 151 -64 243.5t-286 92.5t-326 -92.5t-168 -243.5zM492 10q207 0 353.5 97.5t180.5 257.5q35 159 -71.5 256.5t-313.5 97.5t-354.5 -97t-182.5 -257q-34 -160 73.5 -257.5t314.5 -97.5z" />
    <glyph glyph-name="nine" unicode="9" horiz-adv-x="1216" 
d="M543 483q-106 0 -190 32.5t-138 95t-73 153t5 207.5q50 227 218 357t387 130q106 0 190.5 -32.5t138.5 -94.5t72.5 -152.5t-6.5 -207.5q-23 -108 -84 -211t-186 -234l-498 -526h-47l553 584q-153 -101 -342 -101zM743 1423q-207 0 -359.5 -120.5t-197.5 -331.5
q-44 -211 57 -332t308 -121q208 0 360.5 121.5t196.5 331.5q45 210 -56.5 331t-308.5 121z" />
    <glyph glyph-name="colon" unicode=":" horiz-adv-x="440" 
d="M252 838q-19 0 -29 12t-6 31q5 19 18.5 31t32.5 12t29 -12t6 -31q-5 -19 -18.5 -31t-32.5 -12zM74 0q-19 0 -28.5 12t-6.5 31q5 19 19.5 31t33.5 12t28 -12t5 -31q-3 -19 -17.5 -31t-33.5 -12z" />
    <glyph glyph-name="semicolon" unicode=";" horiz-adv-x="385" 
d="M233 838q-19 0 -28.5 12t-5.5 31q5 19 18.5 31t32.5 12t29 -12t6 -31q-5 -19 -19 -31t-33 -12zM88 223h37l-209 -528h-31z" />
    <glyph glyph-name="less" unicode="&#x3c;" horiz-adv-x="1454" 
d="M1217 999l-902 -350l754 -350l-8 -35l-782 365l8 41l938 364z" />
    <glyph glyph-name="equal" unicode="=" horiz-adv-x="1454" 
d="M334 891h860l-6 -33h-860zM238 440h860l-6 -32h-861z" />
    <glyph glyph-name="greater" unicode="&#x3e;" horiz-adv-x="1454" 
d="M1147 670l-8 -41l-938 -365l8 35l901 350l-754 350l9 35z" />
    <glyph glyph-name="question" unicode="?" horiz-adv-x="915" 
d="M360 516q22 101 59 150.5t150 128.5l119 84q171 122 201 272q27 128 -44.5 200t-207.5 72q-130 0 -249.5 -66.5t-199.5 -189.5l-28 17q87 131 215 202.5t270 71.5q156 0 233.5 -83t47.5 -224q-19 -86 -75.5 -161.5t-160.5 -149.5l-119 -84q-94 -67 -124.5 -109
t-49.5 -131l-30 -147h-37zM270 0q-19 0 -28 12t-6 31q5 19 19.5 31t33.5 12t28 -12t5 -31q-3 -19 -18 -31t-34 -12z" />
    <glyph glyph-name="at" unicode="@" horiz-adv-x="1927" 
d="M1118 1307q170 0 306 -55.5t221.5 -158.5t116.5 -251t-9 -332q-48 -219 -158 -345t-239 -126q-88 0 -134 61.5t-28 180.5q-60 -111 -173.5 -176.5t-234.5 -65.5q-177 0 -257 112.5t-40 301.5q36 174 168 293.5t306 119.5q121 0 205 -64.5t96 -172.5l45 209h34l-110 -521
q-26 -119 9.5 -182t119.5 -63q116 0 213.5 117t140.5 321q38 185 8.5 327.5t-114 239.5t-212 147t-286.5 50q-233 0 -440.5 -105t-350.5 -292t-192 -422q-50 -235 15.5 -418t230.5 -283t401 -100q118 0 234 24.5t204 67.5l9 -29q-90 -44 -210 -70t-245 -26q-248 0 -420 105
t-239.5 295t-16.5 434q51 245 200.5 439.5t366 303.5t459.5 109zM793 72q146 0 273.5 105t164.5 276q35 171 -48 276t-229 105q-153 0 -272 -110.5t-152 -270.5q-38 -176 33.5 -278.5t229.5 -102.5z" />
    <glyph glyph-name="A" unicode="A" horiz-adv-x="1347" 
d="M1016 442l-799 2l-285 -444h-38l919 1434h25l313 -1434h-39zM1008 477l-195 897l-575 -897h770z" />
    <glyph glyph-name="B" unicode="B" horiz-adv-x="1421" 
d="M983 739q120 -30 180.5 -130.5t32.5 -229.5q-35 -162 -167 -270.5t-288 -108.5h-639l304 1434h595q151 0 235 -104.5t52 -252.5q-23 -113 -106 -204t-199 -134zM432 1399l-139 -649h563q135 0 251.5 94t145.5 227q29 139 -47.5 233.5t-210.5 94.5h-563zM748 35
q141 0 261.5 100t151.5 244q29 138 -50 237t-218 99h-606l-146 -680h607z" />
    <glyph glyph-name="C" unicode="C" horiz-adv-x="1609" 
d="M715 -25q-202 0 -344 95t-197 265t-10 382q44 211 171.5 380.5t310 265t384.5 95.5q215 0 355 -98.5t180 -278.5l-37 -12q-40 159 -172.5 256.5t-333.5 97.5q-192 0 -364.5 -90.5t-293 -252t-163.5 -363.5q-43 -203 9 -365t186.5 -252t326.5 -90q207 0 375 90.5
t278 261.5l33 -14q-119 -180 -297.5 -276.5t-396.5 -96.5z" />
    <glyph glyph-name="D" unicode="D" horiz-adv-x="1564" 
d="M842 1434q159 0 281.5 -52t194.5 -146t97.5 -226t-10.5 -293q-69 -327 -304.5 -522t-561.5 -195h-437l304 1434h436zM545 35q310 0 534.5 185.5t290.5 496.5t-79 496.5t-455 185.5h-402l-291 -1364h402z" />
    <glyph glyph-name="E" unicode="E" horiz-adv-x="1288" 
d="M979 35l-6 -35h-869l304 1434h847l-6 -35h-813l-151 -709h786l-6 -33h-786l-134 -622h834z" />
    <glyph glyph-name="F" unicode="F" horiz-adv-x="1247" 
d="M436 1399l-153 -717h786l-6 -35h-787l-137 -647h-35l304 1434h847l-6 -35h-813z" />
    <glyph glyph-name="G" unicode="G" horiz-adv-x="1658" 
d="M1483 696l-109 -508q-154 -114 -309 -164.5t-352 -50.5q-153 4 -273.5 60.5t-191 154.5t-96.5 232.5t10 294.5q44 211 171.5 380.5t310 265t384.5 95.5q215 0 354.5 -98t180.5 -277l-37 -14q-38 172 -168.5 263t-337.5 91q-192 0 -365 -90.5t-293.5 -252t-162.5 -363.5
q-35 -153 -11 -281t91.5 -221.5t181 -147t258.5 -57.5q179 0 328.5 45.5t293.5 149.5l97 456h-443l9 37h479z" />
    <glyph glyph-name="H" unicode="H" horiz-adv-x="1589" 
d="M1485 1434l-303 -1434h-35l137 647h-1008l-137 -647h-35l304 1434h34l-159 -752h1007l160 752h35z" />
    <glyph glyph-name="I" unicode="I" horiz-adv-x="552" 
d="M412 1434h34l-303 -1434h-34z" />
    <glyph glyph-name="J" unicode="J" horiz-adv-x="1202" 
d="M362 -25q-122 0 -212.5 59.5t-128.5 162.5t-13 225l39 18l-4 -18q-35 -169 61 -290.5t267 -121.5q170 0 316 121.5t181 290.5l215 1012h35l-215 -1012q-38 -185 -197 -316t-344 -131z" />
    <glyph glyph-name="K" unicode="K" horiz-adv-x="1261" 
d="M1362 1434l-1034 -734l721 -700h-50l-704 678l-14 -10l-142 -668h-35l304 1434h34l-151 -721l1020 721h51z" />
    <glyph glyph-name="L" unicode="L" horiz-adv-x="1212" 
d="M975 35l-6 -35h-865l304 1434h34l-297 -1399h830z" />
    <glyph glyph-name="M" unicode="M" horiz-adv-x="1923" 
d="M1819 1434l-303 -1434h-35l286 1354l-942 -1354h-53l-346 1356l-287 -1354h-35l304 1432h36l361 -1399l985 1399h29z" />
    <glyph glyph-name="N" unicode="N" horiz-adv-x="1617" 
d="M1516 1434l-304 -1434h-32l-752 1368l-291 -1368h-35l304 1434h30l754 -1373l291 1373h35z" />
    <glyph glyph-name="O" unicode="O" horiz-adv-x="1771" 
d="M729 -25q-118 0 -220.5 38t-176 105.5t-122.5 160.5t-59.5 203.5t13.5 234.5q32 150 118 287.5t204 236.5t264.5 158t293.5 59q195 0 340 -99.5t205.5 -270t18.5 -371.5q-43 -202 -176.5 -373t-320.5 -270t-382 -99zM737 10q186 0 364.5 95t305 258t166.5 354t-17.5 354
t-195.5 257.5t-324 94.5q-187 0 -365.5 -94.5t-305 -257.5t-166.5 -354q-22 -118 -12 -223t56.5 -194t116 -153.5t167.5 -100.5t210 -36z" />
    <glyph glyph-name="P" unicode="P" horiz-adv-x="1380" 
d="M985 1434q175 0 273.5 -125t60.5 -299q-26 -123 -105 -224t-187.5 -157t-223.5 -56h-543l-121 -573h-35l304 1434h577zM811 608q163 0 300.5 116.5t172.5 285.5q35 161 -54.5 275t-250.5 114h-543l-168 -791h543z" />
    <glyph glyph-name="Q" unicode="Q" horiz-adv-x="1775" 
d="M1612 717q-39 -183 -153.5 -341t-276.5 -259l143 -242l-31 -20l-143 241q-209 -121 -422 -121q-117 0 -219.5 38t-175.5 105.5t-122.5 161t-60 204t12.5 233.5q43 202 176.5 372.5t321 269.5t382.5 99q118 0 221 -37.5t177 -105t123 -160.5t60 -203.5t-13 -234.5zM737 10
q203 0 396 113l-148 248l31 20l149 -248q154 97 263 248t147 326q23 118 13 223.5t-56.5 194.5t-116.5 153.5t-167.5 100.5t-209.5 36q-186 0 -364.5 -95t-305 -258t-167.5 -355q-40 -191 17 -354t195 -258t324 -95z" />
    <glyph glyph-name="R" unicode="R" horiz-adv-x="1402" 
d="M690 612h-424l-127 -602h-35l302 1424h600q167 0 260.5 -120.5t58.5 -289.5q-37 -170 -182 -291t-312 -121h-96l373 -589l-31 -23zM274 647h566q153 0 284.5 110.5t165.5 266.5q32 155 -53.5 265t-237.5 110h-565z" />
    <glyph glyph-name="S" unicode="S" horiz-adv-x="1255" 
d="M496 -25q-202 0 -321.5 86.5t-145.5 247.5l32 13q65 -312 443 -312q212 0 349 94.5t171 257.5q27 124 -39 200t-252 122l-180 45q-200 51 -274.5 133.5t-45.5 220.5q36 171 182 273t369 102q184 0 296 -70.5t137 -199.5l-35 -14q-52 249 -406 249q-207 0 -339 -88.5
t-167 -251.5q-26 -123 39 -196t260 -123l187 -47q195 -50 264.5 -135t40.5 -220q-37 -179 -188.5 -283t-376.5 -104z" />
    <glyph glyph-name="T" unicode="T" horiz-adv-x="1263" 
d="M764 1399h-557l6 35h1141l-6 -35h-549l-297 -1399h-35z" />
    <glyph glyph-name="U" unicode="U" horiz-adv-x="1574" 
d="M639 -25q-114 0 -204 33.5t-151 101t-80.5 169.5t7.5 239l195 916h34l-194 -916q-26 -130 -8 -225.5t76 -158.5t142 -93.5t191 -30.5t205 31.5t181 92.5t143.5 159.5t87.5 224.5l194 916h35l-195 -916q-28 -133 -92.5 -238t-153.5 -171t-194 -100t-219 -34z" />
    <glyph glyph-name="V" unicode="V" horiz-adv-x="1378" 
d="M1479 1434l-908 -1434h-53l-315 1434h39l309 -1399l889 1399h39z" />
    <glyph glyph-name="W" unicode="W" horiz-adv-x="2086" 
d="M2132 1434h35l-774 -1434h-56l-151 1368l-737 -1368h-48l-178 1434h33l174 -1397l754 1397h28l156 -1409z" />
    <glyph glyph-name="X" unicode="X" horiz-adv-x="1243" 
d="M989 0l-358 698l-676 -698h-45l702 723l-368 711h43l358 -695l637 695h41l-657 -719l364 -715h-41z" />
    <glyph glyph-name="Y" unicode="Y" horiz-adv-x="1280" 
d="M1401 1434l-772 -820l-129 -614h-35l129 614l-412 820h43l393 -785l738 783z" />
    <glyph glyph-name="Z" unicode="Z" horiz-adv-x="1228" 
d="M981 35l-6 -35h-1024l6 31l1253 1368h-942l6 35h992l-6 -31l-1254 -1368h975z" />
    <glyph glyph-name="bracketleft" unicode="[" horiz-adv-x="737" 
d="M451 1483l-359 -1688h367l-6 -33h-402l373 1754h401l-8 -33h-366z" />
    <glyph glyph-name="backslash" unicode="\" horiz-adv-x="876" 
d="M606 -193l-395 1709h37l395 -1709h-37z" />
    <glyph glyph-name="bracketright" unicode="]" horiz-adv-x="737" 
d="M653 1516l-372 -1754h-402l6 33h367l358 1688h-366l8 33h401z" />
    <glyph glyph-name="asciicircum" unicode="^" horiz-adv-x="1071" 
d="M952 733l-282 615l-543 -615h-41l573 651h35l299 -651h-41z" />
    <glyph glyph-name="underscore" unicode="_" horiz-adv-x="880" 
d="M-186 -160h880l-8 -35h-881z" />
    <glyph glyph-name="grave" unicode="`" horiz-adv-x="1269" 
d="M745 1198l-194 318h45l190 -318h-41z" />
    <glyph glyph-name="a" unicode="a" horiz-adv-x="997" 
d="M774 0h-35l56 264q-65 -130 -191.5 -205t-286.5 -75q-165 0 -240 79.5t-46 217.5q40 192 257.5 270t573.5 31l25 116q33 158 -33 238t-221 80q-242 0 -397 -189l-25 19q166 203 428 203q171 0 244.5 -91.5t38.5 -259.5zM854 543q-320 51 -534.5 -19.5t-251.5 -242.5
q-28 -125 40.5 -195t215.5 -70q191 0 328.5 112.5t178.5 307.5z" />
    <glyph glyph-name="b" unicode="b" horiz-adv-x="1302" 
d="M778 1053q218 0 328 -153t61 -388q-51 -237 -223.5 -387t-394.5 -150q-161 0 -267 91t-128 243l-66 -307h-35l303 1432h35l-151 -713q87 152 231 242t307 90zM557 10q207 0 368 140.5t208 361.5q47 223 -54.5 363.5t-308.5 140.5q-203 0 -365 -142.5t-208 -361.5
q-46 -218 56 -360t304 -142z" />
    <glyph glyph-name="c" unicode="c" horiz-adv-x="1173" 
d="M477 -25q-223 0 -330.5 149.5t-56.5 385.5q50 234 223.5 386.5t391.5 152.5q140 0 238 -65.5t138 -186.5l-32 -17q-37 110 -129.5 172t-221.5 62q-207 0 -368 -141t-207 -363q-47 -220 53.5 -361t306.5 -141q129 0 249.5 64t205.5 178l27 -17q-92 -124 -220 -191
t-268 -67z" />
    <glyph glyph-name="d" unicode="d" horiz-adv-x="1302" 
d="M1249 1434l-303 -1432h-35l66 307q-87 -152 -232.5 -243t-306.5 -91q-223 0 -331.5 150.5t-57.5 386.5q33 154 124 278t221 193.5t274 69.5q163 0 268 -90t127 -242l151 713h35zM446 10q203 0 365.5 142t208.5 360q30 145 -6 260t-129 179.5t-226 64.5
q-207 0 -367.5 -140.5t-207.5 -363.5q-47 -221 54 -361.5t308 -140.5z" />
    <glyph glyph-name="e" unicode="e" horiz-adv-x="1198" 
d="M115 518q-47 -228 50.5 -369t307.5 -141q128 0 246 61.5t205 172.5l26 -17q-92 -120 -218.5 -186t-264.5 -66q-221 0 -329.5 150.5t-57.5 386.5q50 235 223 387t391 152q210 0 301 -142t37 -389h-917zM688 1014q-198 0 -353.5 -128t-211.5 -335h883q40 212 -46 337.5
t-272 125.5z" />
    <glyph glyph-name="f" unicode="f" horiz-adv-x="745" 
d="M375 991h-277l8 35h277l43 205q19 85 90 144t156 59h194l-6 -35h-194q-70 0 -131 -49.5t-76 -118.5l-43 -205h354l-8 -35h-354l-209 -991h-33z" />
    <glyph glyph-name="g" unicode="g" horiz-adv-x="1343" 
d="M1206 1030l-211 -985q-43 -207 -207.5 -349t-361.5 -142q-178 0 -283.5 80t-136.5 216l35 15q28 -127 126 -202t267 -75q179 0 333 133t194 324l59 277q-84 -148 -228.5 -237t-308.5 -89q-224 0 -332.5 147t-58.5 379q47 226 221.5 375.5t393.5 149.5q167 0 272.5 -88
t126.5 -236l65 307h35zM492 33q202 0 363.5 138t207.5 351q44 212 -59 351t-304 139q-207 0 -368 -137.5t-207 -352.5q-46 -218 56.5 -353.5t310.5 -135.5z" />
    <glyph glyph-name="h" unicode="h" horiz-adv-x="1234" 
d="M692 1044q113 0 197.5 -55.5t120.5 -150.5t12 -207l-133 -631h-35l133 631q34 157 -55.5 268t-247.5 111t-293.5 -111t-169.5 -268l-133 -631h-35l303 1434h35l-135 -637q73 111 191 179t245 68z" />
    <glyph glyph-name="i" unicode="i" horiz-adv-x="448" 
d="M354 1321q-17 0 -25 11.5t-5 29.5q3 16 16.5 27.5t30.5 11.5t25 -11.5t5 -27.5q-3 -17 -16.5 -29t-30.5 -12zM274 1022h33l-217 -1022h-33z" />
    <glyph glyph-name="j" unicode="j" horiz-adv-x="448" 
d="M352 1327q-17 0 -26.5 12t-6.5 27q4 17 19.5 29t32.5 12q18 0 26.5 -11.5t3.5 -29.5q-3 -16 -17 -27.5t-32 -11.5zM-295 -377h102q69 0 127.5 48.5t73.5 117.5l262 1233h37l-262 -1233q-19 -83 -90.5 -142t-153.5 -59h-102z" />
    <glyph glyph-name="k" unicode="k" horiz-adv-x="980" 
d="M748 0l-531 524l-24 -16l-107 -508h-33l303 1434h33l-186 -881l737 471h47l-737 -477l538 -547h-40z" />
    <glyph glyph-name="l" unicode="l" horiz-adv-x="436" 
d="M45 0l303 1434h35l-303 -1434h-35z" />
    <glyph glyph-name="m" unicode="m" horiz-adv-x="1882" 
d="M1378 1049q157 0 245 -110.5t54 -266.5l-141 -670h-37l141 670q31 142 -48 242t-220 100q-143 0 -265 -100t-153 -242l-141 -670h-33l142 670q31 142 -48.5 242t-222.5 100q-141 0 -262.5 -100t-152.5 -242l-142 -670h-37l217 1022h37l-41 -195q66 99 170 159.5t217 60.5
q124 0 209 -74.5t97 -188.5q63 115 177 189t238 74z" />
    <glyph glyph-name="n" unicode="n" horiz-adv-x="1224" 
d="M686 1049q171 0 267 -121.5t61 -290.5l-135 -637h-37l135 637q32 156 -54 266.5t-243 110.5q-156 0 -289.5 -110.5t-165.5 -266.5l-135 -637h-37l217 1024h37l-47 -223q72 112 187 180t239 68z" />
    <glyph glyph-name="o" unicode="o" horiz-adv-x="1294" 
d="M489 -25q-226 0 -338 150.5t-61 386.5q50 232 228 384.5t399 152.5q147 0 250.5 -69.5t143.5 -192t7 -275.5q-50 -228 -230 -382.5t-399 -154.5zM498 10q209 0 375 142.5t212 359.5q30 143 -7 258t-133.5 180.5t-233.5 65.5q-211 0 -374.5 -141.5t-209.5 -362.5
q-47 -221 56.5 -361.5t314.5 -140.5z" />
    <glyph glyph-name="p" unicode="p" horiz-adv-x="1343" 
d="M778 1051q223 0 331.5 -150.5t57.5 -386.5q-51 -235 -225.5 -388t-392.5 -153q-163 0 -269 90t-128 242l-150 -711h-35l303 1430h35l-65 -307q87 152 232 243t306 91zM557 10q207 0 368 140.5t208 363.5q47 221 -54.5 361.5t-308.5 140.5q-203 0 -365 -142t-208 -360
q-30 -145 5.5 -260t128.5 -179.5t226 -64.5z" />
    <glyph glyph-name="q" unicode="q" horiz-adv-x="1343" 
d="M1204 1024l-303 -1430h-35l150 711q-87 -152 -230.5 -242t-306.5 -90q-144 0 -244.5 69.5t-139.5 193.5t-5 278q51 237 224 387t395 150q161 0 267 -91t128 -243l65 307h35zM487 10q203 0 365.5 142.5t208.5 361.5q30 144 -6 258.5t-129 179t-226 64.5
q-207 0 -367.5 -140.5t-207.5 -361.5q-47 -223 54 -363.5t308 -140.5z" />
    <glyph glyph-name="r" unicode="r" horiz-adv-x="782" 
d="M682 1040q58 0 104 -14l-16 -33q-47 13 -96 13q-154 0 -287.5 -109t-167.5 -264l-133 -633h-33l217 1024h33l-49 -227q73 109 189 176t239 67z" />
    <glyph glyph-name="s" unicode="s" horiz-adv-x="1005" 
d="M367 -25q-149 0 -248 56.5t-129 154.5l33 17q31 -92 122 -143.5t228 -51.5q159 0 259 68.5t124 181.5q19 85 -25.5 136t-171.5 83l-209 53q-122 30 -168.5 90.5t-25.5 155.5q28 128 140 200.5t286 72.5q133 0 218 -45t111 -130l-30 -16q-56 158 -306 158q-161 0 -259 -63
t-123 -179q-19 -86 24 -135.5t168 -81.5l211 -53q126 -31 172 -92t25 -154q-27 -129 -139 -206t-287 -77z" />
    <glyph glyph-name="t" unicode="t" horiz-adv-x="782" 
d="M209 0q-28 0 -43.5 20t-9.5 48l194 923h-237l8 35h237l66 309h35l-66 -309h373l-8 -35h-373l-195 -923q-3 -14 4.5 -23.5t20.5 -9.5h340l-6 -35h-340z" />
    <glyph glyph-name="u" unicode="u" horiz-adv-x="1224" 
d="M1085 1024l-217 -1024h-34l47 221q-73 -111 -189.5 -178.5t-240.5 -67.5q-170 0 -265.5 121t-58.5 291l135 637h35l-135 -637q-34 -156 53.5 -266.5t243.5 -110.5q155 0 288.5 110t167.5 267l136 637h34z" />
    <glyph glyph-name="v" unicode="v" horiz-adv-x="1046" 
d="M1061 1024l-666 -1024h-37l-241 1024h39l229 -981l637 981h39z" />
    <glyph glyph-name="w" unicode="w" horiz-adv-x="1648" 
d="M1657 1024l-594 -1024h-37l-149 969l-560 -969h-36l-158 1024h35l151 -975l563 975h33l150 -975l565 975h37z" />
    <glyph glyph-name="x" unicode="x" horiz-adv-x="987" 
d="M735 0l-293 500l-497 -500h-43l524 526l-285 496h39l277 -471l469 471h41l-494 -500l305 -522h-43z" />
    <glyph glyph-name="y" unicode="y" horiz-adv-x="1073" 
d="M1092 1024l-809 -1251q-54 -84 -139.5 -133.5t-176.5 -49.5h-153l8 35h153q79 0 155.5 44t121.5 118l133 203l-244 1034h39l230 -981l645 981h37z" />
    <glyph glyph-name="z" unicode="z" horiz-adv-x="987" 
d="M727 33l-6 -33h-762l4 27l914 964h-689l9 33h733l-6 -27l-914 -964h717z" />
    <glyph glyph-name="braceleft" unicode="{" horiz-adv-x="714" 
d="M354 831q-19 -86 -56.5 -131.5t-104.5 -60.5q61 -15 79.5 -61.5t-0.5 -131.5l-92 -430q-27 -130 4.5 -175.5t143.5 -45.5h108l-6 -33h-108q-130 0 -169 55t-8 199l93 430q20 96 -8.5 136.5t-120.5 40.5h-17l8 32h17q91 0 136.5 40t65.5 136l93 431q31 144 92 199t190 55
h109l-8 -33h-109q-112 0 -162.5 -45.5t-77.5 -175.5z" />
    <glyph glyph-name="bar" unicode="|" horiz-adv-x="624" 
d="M475 1567h35l-377 -1772h-35z" />
    <glyph glyph-name="braceright" unicode="}" horiz-adv-x="714" 
d="M590 655l-8 -32h-17q-91 0 -137 -40.5t-66 -136.5l-92 -430q-31 -144 -92 -199t-190 -55h-109l6 33h109q112 0 163.5 45.5t78.5 175.5l92 430q19 86 56.5 132t104.5 61q-61 15 -79.5 61t0.5 131l92 431q27 130 -5.5 175.5t-144.5 45.5h-108l8 33h108q130 0 169 -55
t8 -199l-93 -431q-20 -96 8.5 -136t120.5 -40h17z" />
    <glyph glyph-name="asciitilde" unicode="~" horiz-adv-x="1454" 
d="M530 692q-114 0 -260 -98l9 33q131 96 260 96q41 0 91.5 -18t90 -39.5t89 -39.5t89.5 -18q62 0 119 23t137 76l-6 -33q-140 -96 -256 -96q-54 0 -117.5 28.5t-127.5 57t-118 28.5z" />
    <glyph glyph-name="uni00A0" unicode="&#xa0;" horiz-adv-x="512" 
 />
    <glyph glyph-name="exclamdown" unicode="&#xa1;" horiz-adv-x="536" 
d="M334 1024q19 0 28 -12t5 -31q-3 -19 -18 -31t-34 -12t-28 12t-6 31q5 19 19.5 31t33.5 12zM272 655l-225 -1065h-37l230 1065h32z" />
    <glyph glyph-name="cent" unicode="&#xa2;" horiz-adv-x="1173" 
d="M719 1049q134 -3 229 -68.5t133 -183.5l-32 -17q-35 107 -124.5 169t-213.5 65l-213 -1006q126 3 242 67t198 175l27 -17q-90 -121 -213.5 -188t-259.5 -70l-48 -217h-30l47 217q-215 6 -318 154.5t-53 380.5q47 229 215.5 381t382.5 158l41 194h31zM123 510
q-46 -216 49.5 -356t294.5 -146l213 1006q-202 -6 -357.5 -146t-199.5 -358z" />
    <glyph glyph-name="sterling" unicode="&#xa3;" horiz-adv-x="1069" 
d="M145 35h717l-6 -35h-936l6 35h183l139 655h-193l8 35h193l74 352q38 179 157.5 280t288.5 101q131 0 219 -62.5t119 -178.5l-33 -15q-30 110 -111 165.5t-202 55.5q-155 0 -260 -89.5t-141 -256.5l-74 -352h557l-8 -35h-557z" />
    <glyph glyph-name="currency" unicode="&#xa4;" horiz-adv-x="1150" 
d="M975 702q-39 -165 -152 -272l105 -133l-29 -25l-104 131q-132 -110 -310 -110q-177 0 -260 113l-159 -134l-23 25l162 133q-67 118 -31 272q35 164 148 273l-103 133l29 25l102 -134q135 113 309 113q180 0 263 -113l159 134l21 -25l-160 -133q67 -117 33 -273zM492 326
q163 0 288 105t160 271q34 166 -45.5 271.5t-241.5 105.5t-287 -106t-159 -271q-35 -166 44.5 -271t240.5 -105z" />
    <glyph glyph-name="yen" unicode="&#xa5;" horiz-adv-x="1099" 
d="M569 637h381l-8 -33h-399l-56 -262h400l-6 -33h-400l-65 -309h-35l65 309h-395l6 33h396l55 262h-395l8 33h377l-316 797h41l314 -789l643 789h41z" />
    <glyph glyph-name="brokenbar" unicode="&#xa6;" horiz-adv-x="624" 
d="M475 1567h35l-148 -701h-34zM244 479h35l-146 -684h-35z" />
    <glyph glyph-name="section" unicode="&#xa7;" horiz-adv-x="1099" 
d="M606 291q124 -32 171 -96.5t24 -167.5q-28 -136 -141.5 -215.5t-294.5 -79.5q-154 0 -256.5 56.5t-128.5 154.5l30 16q33 -92 125.5 -143.5t235.5 -51.5q166 0 267 70.5t126 192.5q22 96 -25.5 151.5t-175.5 87.5l-209 53q-125 31 -176 98.5t-28 178.5q26 117 112 202.5
t211 102.5q-122 31 -169 94t-23 170q29 141 143 217t297 76q282 0 336 -174l-33 -16q-56 157 -309 157q-343 0 -398 -260q-22 -99 23 -152.5t174 -86.5l209 -54q129 -32 180.5 -100t26.5 -176q-24 -118 -111 -203t-213 -102zM186 596q-21 -102 27.5 -159.5t177.5 -90.5
l62 -16q93 -20 168 -7.5t131 53t91.5 97t49.5 123.5q23 103 -26.5 160t-180.5 90l-61 16q-93 20 -168 7t-131 -54.5t-91 -97t-49 -121.5z" />
    <glyph glyph-name="dieresis" unicode="&#xa8;" horiz-adv-x="1269" 
d="M555 1321q-19 0 -28.5 12t-6.5 31q5 19 19.5 31t33.5 12t28 -12t5 -31q-3 -19 -17.5 -31t-33.5 -12zM973 1321q-19 0 -28.5 12t-6.5 31q5 19 19.5 31t33.5 12t28 -12t5 -31q-3 -19 -17.5 -31t-33.5 -12z" />
    <glyph glyph-name="copyright" unicode="&#xa9;" horiz-adv-x="1789" 
d="M737 -25q-103 0 -194 26.5t-161 75t-123.5 116t-81 150t-34.5 177.5t17 197q44 203 175.5 372.5t322 269t395.5 99.5q123 0 229 -37.5t180 -105t123 -160.5t59 -203.5t-14 -234.5q-33 -152 -118.5 -288.5t-204 -236.5t-267.5 -158.5t-303 -58.5zM743 8q197 0 378.5 94.5
t306.5 257t167 357.5q23 119 14 225t-55 195t-116.5 153t-171.5 99.5t-219 35.5q-148 0 -290.5 -55.5t-255 -150t-194 -225.5t-112.5 -277q-42 -195 14 -357.5t196.5 -257t337.5 -94.5zM825 313q-174 0 -254.5 111.5t-42.5 292.5t166.5 292t302.5 111q108 0 182.5 -46
t100.5 -136l-33 -14q-20 78 -90.5 120.5t-169.5 42.5q-153 0 -270.5 -101t-153.5 -269t39.5 -269.5t228.5 -101.5q98 0 186 43t144 121l25 -14q-64 -90 -159 -136.5t-202 -46.5z" />
    <glyph glyph-name="guillemotleft" unicode="&#xab;" horiz-adv-x="903" 
d="M92 512l203 -418h-43l-203 418l381 418h43zM455 512l202 -418h-43l-202 418l381 418h43z" />
    <glyph glyph-name="logicalnot" unicode="&#xac;" horiz-adv-x="1454" 
d="M1147 666l-57 -267h-35l49 234h-825l8 33h860z" />
    <glyph glyph-name="registered" unicode="&#xae;" horiz-adv-x="1204" 
d="M760 1460q123 0 212.5 -59.5t125.5 -161.5t10 -223q-38 -185 -194 -315t-343 -130q-186 0 -286 129.5t-62 315.5q40 185 195 314.5t342 129.5zM578 600q174 0 317 121t180 295t-55 295t-266 121t-317.5 -121t-180.5 -295t55.5 -295t266.5 -121zM879 1118
q-13 -66 -63.5 -102.5t-125.5 -36.5l123 -203h-39l-121 203h-121l-43 -203h-30l102 479h187q77 0 110 -36.5t21 -100.5zM539 1008h153q130 0 154 110q11 53 -16.5 81t-90.5 28h-153z" />
    <glyph glyph-name="macron" unicode="&#xaf;" horiz-adv-x="1269" 
d="M473 1337h586l-6 -34h-586z" />
    <glyph glyph-name="degree" unicode="&#xb0;" horiz-adv-x="737" 
d="M414 926q-116 0 -175 75.5t-36 190.5q25 115 116 190.5t207 75.5t175 -75.5t34 -190.5q-23 -115 -114 -190.5t-207 -75.5zM420 958q101 0 179.5 64.5t100.5 169.5q23 105 -28 169t-152 64t-180 -64t-102 -169q-22 -105 29.5 -169.5t152.5 -64.5z" />
    <glyph glyph-name="plusminus" unicode="&#xb1;" horiz-adv-x="1454" 
d="M1143 653l-6 -32h-412l-86 -406h-35l86 406h-414l7 32h413l86 406h35l-86 -406h412zM152 33h860l-6 -33h-861z" />
    <glyph glyph-name="acute" unicode="&#xb4;" horiz-adv-x="1269" 
d="M1016 1516h45l-330 -318h-41z" />
    <glyph glyph-name="uni00B5" unicode="&#xb5;" horiz-adv-x="1241" 
d="M1102 1024l-217 -1024h-35l53 256q-64 -129 -191 -205t-288 -76q-262 0 -297 213l-135 -639h-35l313 1475h35l-133 -621q-82 -395 258 -395q187 0 327.5 111.5t182.5 304.5l127 600h35z" />
    <glyph glyph-name="paragraph" unicode="&#xb6;" horiz-adv-x="1288" 
d="M578 860h-46q-180 0 -257.5 81.5t-49.5 205.5q27 126 141 206.5t308 80.5h61l-360 -1700h-37zM1108 1434h37l-361 -1700h-36z" />
    <glyph glyph-name="cedilla" unicode="&#xb8;" horiz-adv-x="1269" 
d="M485 6h35l-219 -405h-35z" />
    <glyph glyph-name="guillemotright" unicode="&#xbb;" horiz-adv-x="903" 
d="M362 512l-204 418h43l205 -418l-383 -418h-43zM768 512l-383 -418h-43l383 418l-205 418h43z" />
    <glyph glyph-name="questiondown" unicode="&#xbf;" horiz-adv-x="915" 
d="M559 1024q19 0 28 -12t5 -31q-3 -19 -17.5 -31t-33.5 -12t-28.5 12t-6.5 31q5 19 19.5 31t33.5 12zM467 508q-20 -100 -57.5 -149.5t-151.5 -129.5l-117 -84q-166 -117 -202 -272q-27 -128 44 -200t207 -72q130 0 250.5 67t200.5 189l27 -17q-85 -131 -213.5 -202.5
t-270.5 -71.5q-155 0 -233 83t-49 224q38 172 237 311l117 84q95 66 125 108.5t49 131.5l33 147h37z" />
    <glyph glyph-name="Agrave" unicode="&#xc0;" horiz-adv-x="1376" 
d="M834 1608l-136 317h45l131 -317h-40zM1016 442l-799 2l-285 -444h-38l919 1434h25l313 -1434h-39zM1008 477l-195 897l-575 -897h770z" />
    <glyph glyph-name="Aacute" unicode="&#xc1;" horiz-adv-x="1376" 
d="M870 1608h-41l267 317h45zM1016 442l-799 2l-285 -444h-38l919 1434h25l313 -1434h-39zM1008 477l-195 897l-575 -897h770z" />
    <glyph glyph-name="Acircumflex" unicode="&#xc2;" horiz-adv-x="1376" 
d="M614 1608h-41l353 317h37l217 -317h-41l-199 290zM1016 442l-799 2l-285 -444h-38l919 1434h25l313 -1434h-39zM1008 477l-195 897l-575 -897h770z" />
    <glyph glyph-name="Atilde" unicode="&#xc3;" horiz-adv-x="1376" 
d="M893 1755q-31 40 -57.5 56t-61.5 16q-48 0 -86 -40t-51 -108h-33q17 81 66.5 130t109.5 49q77 0 146 -89q33 -41 59 -56t62 -15q48 0 86 40t51 109h33q-17 -83 -67 -131.5t-110 -48.5q-40 0 -74.5 19.5t-72.5 68.5zM1016 442l-799 2l-285 -444h-38l919 1434h25l313 -1434
h-39zM1008 477l-195 897l-575 -897h770z" />
    <glyph glyph-name="Adieresis" unicode="&#xc4;" horiz-adv-x="1376" 
d="M694 1731q-19 0 -28 12t-4 31q3 19 17.5 31t33.5 12t28.5 -12t6.5 -31q-4 -19 -19.5 -31t-34.5 -12zM1112 1731q-19 0 -28 12t-5 31q3 19 17.5 31t33.5 12t28.5 -12t6.5 -31q-5 -19 -19.5 -31t-33.5 -12zM1016 442l-799 2l-285 -444h-38l919 1434h25l313 -1434h-39z
M1008 477l-195 897l-575 -897h770z" />
    <glyph glyph-name="Aring" unicode="&#xc5;" horiz-adv-x="1376" 
d="M881 1618q-90 0 -137.5 58t-28.5 145q17 86 89 144t163 58q90 0 136.5 -57.5t29.5 -144.5q-19 -87 -90.5 -145t-161.5 -58zM958 1991q-78 0 -135.5 -47.5t-72.5 -122.5q-17 -75 21 -122.5t116 -47.5q77 0 135.5 47t75.5 123q15 75 -23.5 122.5t-116.5 47.5zM1016 442
l-799 2l-285 -444h-38l919 1434h25l313 -1434h-39zM1008 477l-195 897l-575 -897h770z" />
    <glyph glyph-name="AE" unicode="&#xc6;" horiz-adv-x="2197" 
d="M1880 35l-6 -35h-928l90 424h-708l-396 -424h-43l1338 1434h930l-7 -35h-870l-139 -658h837l-8 -34h-837l-144 -672h891zM1042 459l201 946l-883 -946h682z" />
    <glyph glyph-name="Ccedilla" unicode="&#xc7;" horiz-adv-x="1607" 
d="M1030 1458q215 0 355 -98.5t180 -278.5l-37 -12q-38 172 -168.5 263t-337.5 91q-192 0 -364.5 -90.5t-293 -252t-163.5 -363.5q-43 -203 9 -365t186.5 -252t326.5 -90q207 0 375 90.5t278 261.5l33 -14q-119 -180 -297.5 -276.5t-396.5 -96.5h-2l-203 -374h-35l203 374
q-291 14 -436 221.5t-78 520.5q44 211 171.5 380.5t310 265t384.5 95.5z" />
    <glyph glyph-name="Egrave" unicode="&#xc8;" horiz-adv-x="1353" 
d="M938 1608l-135 317h45l131 -317h-41zM1022 35l-6 -35h-912l304 1434h890l-6 -35h-856l-151 -709h829l-6 -33h-829l-134 -622h877z" />
    <glyph glyph-name="Eacute" unicode="&#xc9;" horiz-adv-x="1353" 
d="M834 1608h-41l266 317h45zM1036 35l-6 -35h-928l304 1434h907l-6 -35h-871l-139 -658h833l-8 -34h-833l-144 -672h891z" />
    <glyph glyph-name="Ecircumflex" unicode="&#xca;" horiz-adv-x="1353" 
d="M1147 1608l-199 290l-325 -290h-41l352 317h37l217 -317h-41zM1022 35l-6 -35h-912l304 1434h890l-6 -35h-856l-151 -709h829l-6 -33h-829l-134 -622h877z" />
    <glyph glyph-name="Edieresis" unicode="&#xcb;" horiz-adv-x="1353" 
d="M670 1774q3 19 17.5 31t33.5 12t28.5 -12t6.5 -31q-4 -19 -19.5 -31t-34.5 -12t-28 12t-4 31zM1087 1774q3 19 18 31t34 12t28.5 -12t6.5 -31q-4 -19 -19.5 -31t-34.5 -12t-28 12t-5 31zM1022 35l-6 -35h-912l304 1434h890l-6 -35h-856l-151 -709h829l-6 -33h-829
l-134 -622h877z" />
    <glyph glyph-name="Igrave" unicode="&#xcc;" horiz-adv-x="552" 
d="M442 1608l-135 317h45l131 -317h-41zM410 1434h36l-303 -1434h-37z" />
    <glyph glyph-name="Iacute" unicode="&#xcd;" horiz-adv-x="552" 
d="M709 1925h45l-271 -317h-41zM410 1434h36l-303 -1434h-37z" />
    <glyph glyph-name="Icircumflex" unicode="&#xce;" horiz-adv-x="552" 
d="M768 1608h-41l-199 290l-325 -290h-41l352 317h37zM410 1434h36l-303 -1434h-37z" />
    <glyph glyph-name="Idieresis" unicode="&#xcf;" horiz-adv-x="552" 
d="M283 1731q-19 0 -28 12t-5 31q3 19 17.5 31t33.5 12t28.5 -12t6.5 -31q-5 -19 -19.5 -31t-33.5 -12zM700 1731q-19 0 -28 12t-4 31q3 19 17.5 31t33.5 12t28.5 -12t6.5 -31q-4 -19 -19.5 -31t-34.5 -12zM410 1434h36l-303 -1434h-37z" />
    <glyph glyph-name="Eth" unicode="&#xd0;" horiz-adv-x="1593" 
d="M1434 717q-48 -228 -172.5 -391t-303 -244.5t-395.5 -81.5h-432l148 700h-234l8 33h234l147 701h432q330 0 485 -187t83 -530zM1395 717q70 329 -76.5 505.5t-458.5 176.5h-395l-141 -666h475l-8 -33h-476l-141 -665h395q205 0 373 76t287 231t166 375z" />
    <glyph glyph-name="Eth" unicode="&#xf0;" horiz-adv-x="1593" 
d="M1434 717q-48 -228 -172.5 -391t-303 -244.5t-395.5 -81.5h-432l148 700h-234l8 33h234l147 701h432q330 0 485 -187t83 -530zM1395 717q70 329 -76.5 505.5t-458.5 176.5h-395l-141 -666h475l-8 -33h-476l-141 -665h395q205 0 373 76t287 231t166 375z" />
    <glyph glyph-name="Ntilde" unicode="&#xd1;" horiz-adv-x="1617" 
d="M895 1827q-48 0 -86 -40t-51 -108h-33q17 81 66.5 130t109.5 49q77 0 146 -89q34 -41 59.5 -56t60.5 -15q48 0 86.5 40t51.5 109h32q-17 -83 -66.5 -131.5t-109.5 -48.5q-40 0 -74.5 19.5t-72.5 68.5q-31 40 -57.5 56t-61.5 16zM1516 1434l-304 -1434h-32l-752 1368
l-291 -1368h-35l304 1434h30l754 -1373l291 1373h35z" />
    <glyph glyph-name="Ograve" unicode="&#xd2;" horiz-adv-x="1753" 
d="M1071 1608l-135 317h45l131 -317h-41zM729 -25q-118 0 -220.5 38t-176 105.5t-122.5 160.5t-59.5 203.5t13.5 234.5q32 150 118 287.5t204 236.5t264.5 158t293.5 59q195 0 340 -99.5t205.5 -270t18.5 -371.5q-43 -202 -176.5 -373t-320.5 -270t-382 -99zM737 10
q186 0 364.5 95t305 258t166.5 354t-17.5 354t-195.5 257.5t-324 94.5q-187 0 -365.5 -94.5t-305 -257.5t-166.5 -354q-22 -118 -12 -223t56.5 -194t116 -153.5t167.5 -100.5t210 -36z" />
    <glyph glyph-name="Oacute" unicode="&#xd3;" horiz-adv-x="1753" 
d="M1085 1608h-41l267 317h45zM729 -25q-118 0 -220.5 38t-176 105.5t-122.5 160.5t-59.5 203.5t13.5 234.5q32 150 118 287.5t204 236.5t264.5 158t293.5 59q195 0 340 -99.5t205.5 -270t18.5 -371.5q-43 -202 -176.5 -373t-320.5 -270t-382 -99zM737 10q186 0 364.5 95
t305 258t166.5 354t-17.5 354t-195.5 257.5t-324 94.5q-187 0 -365.5 -94.5t-305 -257.5t-166.5 -354q-22 -118 -12 -223t56.5 -194t116 -153.5t167.5 -100.5t210 -36z" />
    <glyph glyph-name="Ocircumflex" unicode="&#xd4;" horiz-adv-x="1753" 
d="M803 1608h-41l352 317h37l217 -317h-41l-199 290zM729 -25q-118 0 -220.5 38t-176 105.5t-122.5 160.5t-59.5 203.5t13.5 234.5q32 150 118 287.5t204 236.5t264.5 158t293.5 59q195 0 340 -99.5t205.5 -270t18.5 -371.5q-43 -202 -176.5 -373t-320.5 -270t-382 -99z
M737 10q186 0 364.5 95t305 258t166.5 354t-17.5 354t-195.5 257.5t-324 94.5q-187 0 -365.5 -94.5t-305 -257.5t-166.5 -354q-22 -118 -12 -223t56.5 -194t116 -153.5t167.5 -100.5t210 -36z" />
    <glyph glyph-name="Otilde" unicode="&#xd5;" horiz-adv-x="1753" 
d="M1229 1667q-40 0 -75 19.5t-73 68.5q-31 40 -57 56t-61 16q-48 0 -86.5 -40t-51.5 -108h-32q17 81 66.5 130t109.5 49q76 0 145 -89q33 -41 59 -56t62 -15q48 0 86 40t51 109h33q-17 -83 -66.5 -131.5t-109.5 -48.5zM719 -25q-121 0 -224 36.5t-175.5 102.5t-119.5 158.5
t-56 204.5t16 240q44 209 173.5 379t314 266t386.5 96q121 0 224 -36.5t175.5 -102.5t119.5 -158t56 -204t-16 -240q-44 -209 -173.5 -379t-314 -266.5t-386.5 -96.5zM727 10q190 0 364 90.5t297 252.5t166 364q35 154 9 283.5t-95.5 223.5t-184 146.5t-257.5 52.5
q-190 0 -364 -90.5t-297 -252t-166 -363.5t11.5 -364t190.5 -252.5t326 -90.5z" />
    <glyph glyph-name="Odieresis" unicode="&#xd6;" horiz-adv-x="1753" 
d="M883 1731q-19 0 -28 12t-5 31q3 19 17.5 31t33.5 12t28.5 -12t6.5 -31q-5 -19 -19.5 -31t-33.5 -12zM1300 1731q-19 0 -28 12t-4 31q3 19 17.5 31t33.5 12t28.5 -12t6.5 -31q-4 -19 -19.5 -31t-34.5 -12zM729 -25q-118 0 -220.5 38t-176 105.5t-122.5 160.5t-59.5 203.5
t13.5 234.5q32 150 118 287.5t204 236.5t264.5 158t293.5 59q195 0 340 -99.5t205.5 -270t18.5 -371.5q-43 -202 -176.5 -373t-320.5 -270t-382 -99zM737 10q186 0 364.5 95t305 258t166.5 354t-17.5 354t-195.5 257.5t-324 94.5q-187 0 -365.5 -94.5t-305 -257.5
t-166.5 -354q-22 -118 -12 -223t56.5 -194t116 -153.5t167.5 -100.5t210 -36z" />
    <glyph glyph-name="multiply" unicode="&#xd7;" horiz-adv-x="1454" 
d="M737 649l267 -338l-31 -24l-266 338l-410 -338l-18 24l409 338l-266 338l31 25l266 -338l409 338l19 -25z" />
    <glyph glyph-name="Oslash" unicode="&#xd8;" horiz-adv-x="1753" 
d="M1593 717q-44 -209 -173.5 -379t-314 -266.5t-386.5 -96.5q-150 0 -269 54.5t-194 154.5l-211 -174l-20 27l211 174q-140 206 -76 506q44 209 173.5 379t314 266t386.5 96q150 0 268.5 -54t194.5 -153l213 174l21 -24l-213 -176q66 -100 86 -227.5t-11 -280.5zM199 717
q-61 -284 67 -481l1200 989q-71 95 -184 146.5t-256 51.5q-190 0 -364 -90.5t-297 -252t-166 -363.5zM1554 717q61 286 -69 481l-1200 -989q71 -95 185 -147t257 -52q190 0 364 90.5t297 252.5t166 364z" />
    <glyph glyph-name="Ugrave" unicode="&#xd9;" horiz-adv-x="1568" 
d="M926 1608l-135 317h45l131 -317h-41zM639 -25q-114 0 -204 33.5t-151 101t-80.5 169.5t7.5 239l195 916h34l-194 -916q-26 -130 -8 -225.5t76 -158.5t142 -93.5t191 -30.5t205 31.5t181 92.5t143.5 159.5t87.5 224.5l194 916h35l-195 -916q-28 -133 -92.5 -238
t-153.5 -171t-194 -100t-219 -34z" />
    <glyph glyph-name="Uacute" unicode="&#xda;" horiz-adv-x="1568" 
d="M971 1608h-41l266 317h45zM639 -25q-114 0 -204 33.5t-151 101t-80.5 169.5t7.5 239l195 916h34l-194 -916q-26 -130 -8 -225.5t76 -158.5t142 -93.5t191 -30.5t205 31.5t181 92.5t143.5 159.5t87.5 224.5l194 916h35l-195 -916q-28 -133 -92.5 -238t-153.5 -171
t-194 -100t-219 -34z" />
    <glyph glyph-name="Ucircumflex" unicode="&#xdb;" horiz-adv-x="1568" 
d="M1235 1608l-199 290l-325 -290h-41l352 317h37l217 -317h-41zM639 -25q-114 0 -204 33.5t-151 101t-80.5 169.5t7.5 239l195 916h34l-194 -916q-26 -130 -8 -225.5t76 -158.5t142 -93.5t191 -30.5t205 31.5t181 92.5t143.5 159.5t87.5 224.5l194 916h35l-195 -916
q-28 -133 -92.5 -238t-153.5 -171t-194 -100t-219 -34z" />
    <glyph glyph-name="Udieresis" unicode="&#xdc;" horiz-adv-x="1568" 
d="M791 1731q-19 0 -28 12t-5 31q3 19 17.5 31t33.5 12t28.5 -12t6.5 -31q-5 -19 -19.5 -31t-33.5 -12zM1208 1731q-19 0 -28 12t-4 31q3 19 17.5 31t33.5 12t28.5 -12t6.5 -31q-4 -19 -19.5 -31t-34.5 -12zM639 -25q-114 0 -204 33.5t-151 101t-80.5 169.5t7.5 239l195 916
h34l-194 -916q-26 -130 -8 -225.5t76 -158.5t142 -93.5t191 -30.5t205 31.5t181 92.5t143.5 159.5t87.5 224.5l194 916h35l-195 -916q-28 -133 -92.5 -238t-153.5 -171t-194 -100t-219 -34z" />
    <glyph glyph-name="Yacute" unicode="&#xdd;" horiz-adv-x="1241" 
d="M819 1608h-41l266 317h46zM1401 1434l-772 -820l-129 -614h-35l129 614l-412 820h43l393 -785l738 783z" />
    <glyph glyph-name="Thorn" unicode="&#xde;" horiz-adv-x="1382" 
d="M1268 737q-43 -200 -191 -310t-375 -110h-495l-68 -317h-37l304 1434h36l-57 -277h496q227 0 328.5 -110t58.5 -310zM1231 737q39 186 -55.5 285.5t-303.5 99.5h-495l-164 -770h496q209 0 346 99.5t176 285.5z" />
    <glyph glyph-name="germandbls" unicode="&#xdf;" horiz-adv-x="1220" 
d="M737 762q178 -7 253 -104.5t38 -268.5q-40 -189 -176 -289t-350 -100h-140l7 33h139q201 0 323.5 91t159.5 265q36 172 -45 260t-270 88h-160l8 33h68q187 0 310 93t161 272q36 169 -38.5 258.5t-246.5 89.5q-182 0 -299.5 -98t-154.5 -277l-236 -1108h-35l236 1108
q41 198 172.5 303t324.5 105q185 0 268 -98.5t44 -282.5q-32 -152 -125 -247t-236 -126z" />
    <glyph glyph-name="agrave" unicode="&#xe0;" horiz-adv-x="1007" 
d="M707 1198l-136 318h45l132 -318h-41zM774 0h-35l56 264q-65 -130 -191.5 -205t-286.5 -75q-165 0 -240 79.5t-46 217.5q40 192 257.5 270t573.5 31l25 116q33 158 -33 238t-221 80q-242 0 -397 -189l-25 19q166 203 428 203q171 0 244.5 -91.5t38.5 -259.5zM854 543
q-320 51 -534.5 -19.5t-251.5 -242.5q-28 -125 40.5 -195t215.5 -70q191 0 328.5 112.5t178.5 307.5z" />
    <glyph glyph-name="aacute" unicode="&#xe1;" horiz-adv-x="1007" 
d="M743 1198h-41l267 318h37zM774 0h-35l56 264q-65 -130 -191.5 -205t-286.5 -75q-165 0 -240 79.5t-46 217.5q40 192 257.5 270t573.5 31l25 116q33 158 -33 238t-221 80q-242 0 -397 -189l-25 19q166 203 428 203q171 0 244.5 -91.5t38.5 -259.5zM854 543
q-320 51 -534.5 -19.5t-251.5 -242.5q-28 -125 40.5 -195t215.5 -70q191 0 328.5 112.5t178.5 307.5z" />
    <glyph glyph-name="acircumflex" unicode="&#xe2;" horiz-adv-x="1007" 
d="M969 1198l-201 291l-324 -291h-41l353 318h37l217 -318h-41zM774 0h-35l56 264q-65 -130 -191.5 -205t-286.5 -75q-165 0 -240 79.5t-46 217.5q40 192 257.5 270t573.5 31l25 116q33 158 -33 238t-221 80q-242 0 -397 -189l-25 19q166 203 428 203q171 0 244.5 -91.5
t38.5 -259.5zM854 543q-320 51 -534.5 -19.5t-251.5 -242.5q-28 -125 40.5 -195t215.5 -70q191 0 328.5 112.5t178.5 307.5z" />
    <glyph glyph-name="atilde" unicode="&#xe3;" horiz-adv-x="1032" 
d="M778 1346q-29 40 -55 55.5t-61 15.5q-48 0 -86.5 -39.5t-53.5 -107.5h-33q18 81 68.5 129.5t110.5 48.5q77 0 145 -88q32 -41 58 -56.5t61 -15.5q48 0 86 40.5t53 109.5h33q-18 -83 -68 -132t-110 -49q-83 0 -148 89zM774 0h-35l56 264q-65 -130 -191.5 -205t-286.5 -75
q-165 0 -240 79.5t-46 217.5q40 192 257.5 270t573.5 31l25 116q33 158 -33 238t-221 80q-242 0 -397 -189l-25 19q166 203 428 203q171 0 244.5 -91.5t38.5 -259.5zM854 543q-320 51 -534.5 -19.5t-251.5 -242.5q-28 -125 40.5 -195t215.5 -70q191 0 328.5 112.5
t178.5 307.5z" />
    <glyph glyph-name="adieresis" unicode="&#xe4;" horiz-adv-x="1007" 
d="M532 1321q-19 0 -28 12t-6 31q5 19 19.5 31t33.5 12t28 -12t5 -31q-3 -19 -18 -31t-34 -12zM950 1321q-19 0 -28.5 12t-6.5 31q4 19 19.5 31t34.5 12t28 -12t4 -31q-3 -19 -17.5 -31t-33.5 -12zM774 0h-35l56 264q-65 -130 -191.5 -205t-286.5 -75q-165 0 -240 79.5
t-46 217.5q40 192 257.5 270t573.5 31l25 116q33 158 -33 238t-221 80q-242 0 -397 -189l-25 19q166 203 428 203q171 0 244.5 -91.5t38.5 -259.5zM854 543q-320 51 -534.5 -19.5t-251.5 -242.5q-28 -125 40.5 -195t215.5 -70q191 0 328.5 112.5t178.5 307.5z" />
    <glyph glyph-name="aring" unicode="&#xe5;" horiz-adv-x="1007" 
d="M752 1208q-90 0 -137.5 58t-28.5 145t90.5 145t161.5 58t137.5 -58t28.5 -145t-90.5 -145t-161.5 -58zM831 1581q-78 0 -136.5 -47.5t-73.5 -122.5q-15 -76 22.5 -123t114.5 -47q78 0 137 47.5t74 122.5t-23 122.5t-115 47.5zM774 0h-35l56 264q-65 -130 -191.5 -205
t-286.5 -75q-165 0 -240 79.5t-46 217.5q40 192 257.5 270t573.5 31l25 116q33 158 -33 238t-221 80q-242 0 -397 -189l-25 19q166 203 428 203q171 0 244.5 -91.5t38.5 -259.5zM854 543q-320 51 -534.5 -19.5t-251.5 -242.5q-28 -125 40.5 -195t215.5 -70
q191 0 328.5 112.5t178.5 307.5z" />
    <glyph glyph-name="ae" unicode="&#xe6;" horiz-adv-x="1927" 
d="M1761 518h-917q-47 -228 50.5 -369t307.5 -141q128 0 246 61.5t205 172.5l26 -17q-92 -120 -218.5 -186t-264.5 -66q-173 0 -279 95t-120 256q-40 -111 -125 -189.5t-186 -114.5t-210 -36q-165 0 -240 79.5t-46 217.5q40 192 257.5 270t573.5 31l25 116q33 158 -33 238
t-221 80q-242 0 -397 -189l-25 19q166 203 428 203q168 0 242 -88t43 -250q86 155 230 246.5t310 91.5q210 0 301 -142t37 -389zM1417 1014q-198 0 -353.5 -128t-211.5 -335h883q40 212 -46 337.5t-272 125.5zM283 16q205 0 334.5 108.5t166.5 287.5l29 131
q-320 51 -534.5 -19.5t-251.5 -242.5q-28 -125 40.5 -195t215.5 -70z" />
    <glyph glyph-name="ccedilla" unicode="&#xe7;" horiz-adv-x="1173" 
d="M477 -25q-223 0 -330.5 149.5t-56.5 385.5q50 234 223.5 386.5t391.5 152.5q140 0 238 -65.5t138 -186.5l-32 -17q-37 110 -129.5 172t-221.5 62q-207 0 -368 -141t-207 -363q-47 -220 53.5 -361t306.5 -141q129 0 249.5 64t205.5 178l27 -17q-92 -124 -220 -191
t-268 -67zM498 -25l-203 -374h-35l203 374h35z" />
    <glyph glyph-name="egrave" unicode="&#xe8;" horiz-adv-x="1198" 
d="M696 1198l-135 318h45l131 -318h-41zM115 518q-47 -228 50.5 -369t307.5 -141q128 0 246 61.5t205 172.5l26 -17q-92 -120 -218.5 -186t-264.5 -66q-221 0 -329.5 150.5t-57.5 386.5q50 235 223 387t391 152q210 0 301 -142t37 -389h-917zM688 1014q-198 0 -353.5 -128
t-211.5 -335h883q40 212 -46 337.5t-272 125.5z" />
    <glyph glyph-name="eacute" unicode="&#xe9;" horiz-adv-x="1214" 
d="M727 1198h-41l266 318h45zM115 518q-47 -228 50.5 -369t307.5 -141q128 0 246 61.5t205 172.5l26 -17q-92 -120 -218.5 -186t-264.5 -66q-221 0 -329.5 150.5t-57.5 386.5q50 235 223 387t391 152q210 0 301 -142t37 -389h-917zM688 1014q-198 0 -353.5 -128t-211.5 -335
h883q40 212 -46 337.5t-272 125.5z" />
    <glyph glyph-name="ecircumflex" unicode="&#xea;" horiz-adv-x="1198" 
d="M991 1198l-200 291l-324 -291h-41l352 318h37l217 -318h-41zM115 518q-47 -228 50.5 -369t307.5 -141q128 0 246 61.5t205 172.5l26 -17q-92 -120 -218.5 -186t-264.5 -66q-221 0 -329.5 150.5t-57.5 386.5q50 235 223 387t391 152q210 0 301 -142t37 -389h-917z
M688 1014q-198 0 -353.5 -128t-211.5 -335h883q40 212 -46 337.5t-272 125.5z" />
    <glyph glyph-name="edieresis" unicode="&#xeb;" horiz-adv-x="1198" 
d="M522 1321q-19 0 -28.5 12t-6.5 31q4 19 19.5 31t34.5 12t28 -12t4 -31q-3 -19 -17.5 -31t-33.5 -12zM940 1321q-19 0 -28.5 12t-6.5 31q5 19 19.5 31t33.5 12t28 -12t5 -31q-3 -19 -17.5 -31t-33.5 -12zM115 518q-47 -228 50.5 -369t307.5 -141q128 0 246 61.5t205 172.5
l26 -17q-92 -120 -218.5 -186t-264.5 -66q-221 0 -329.5 150.5t-57.5 386.5q50 235 223 387t391 152q210 0 301 -142t37 -389h-917zM688 1014q-198 0 -353.5 -128t-211.5 -335h883q40 212 -46 337.5t-272 125.5z" />
    <glyph glyph-name="igrave" unicode="&#xec;" horiz-adv-x="448" 
d="M100 1516h45l160 -318h-41zM272 1024h35l-217 -1024h-35z" />
    <glyph glyph-name="iacute" unicode="&#xed;" horiz-adv-x="448" 
d="M338 1198h-41l266 318h45zM272 1024h35l-217 -1024h-35z" />
    <glyph glyph-name="icircumflex" unicode="&#xee;" horiz-adv-x="448" 
d="M602 1198h-41l-172 291l-295 -291h-41l324 318h37zM272 1024h35l-217 -1024h-35z" />
    <glyph glyph-name="idieresis" unicode="&#xef;" horiz-adv-x="448" 
d="M168 1321q-19 0 -28.5 12t-6.5 31q5 19 19.5 31t33.5 12t28 -12t5 -31q-3 -19 -17.5 -31t-33.5 -12zM541 1321q-19 0 -28.5 12t-6.5 31q5 19 19.5 31t33.5 12t28 -12t5 -31q-3 -19 -17.5 -31t-33.5 -12zM272 1024h35l-217 -1024h-35z" />
    <glyph glyph-name="ntilde" unicode="&#xf1;" horiz-adv-x="1224" 
d="M737 1346q-29 40 -55 55.5t-61 15.5q-48 0 -86.5 -39.5t-53.5 -107.5h-32q18 81 68 129.5t110 48.5q77 0 145 -88q32 -41 58 -56.5t61 -15.5q48 0 86 40.5t53 109.5h33q-18 -83 -68 -132t-110 -49q-79 0 -148 89zM686 1049q171 0 267 -121.5t61 -290.5l-135 -637h-37
l135 637q32 156 -54 266.5t-243 110.5q-156 0 -289.5 -110.5t-165.5 -266.5l-135 -637h-37l217 1024h37l-47 -223q72 112 187 180t239 68z" />
    <glyph glyph-name="ograve" unicode="&#xf2;" horiz-adv-x="1290" 
d="M801 1198l-135 318h45l131 -318h-41zM489 -25q-226 0 -338 150.5t-61 386.5q50 232 228 384.5t399 152.5q147 0 250.5 -69.5t143.5 -192t7 -275.5q-50 -228 -230 -382.5t-399 -154.5zM498 10q209 0 375 142.5t212 359.5q30 143 -7 258t-133.5 180.5t-233.5 65.5
q-211 0 -374.5 -141.5t-209.5 -362.5q-47 -221 56.5 -361.5t314.5 -140.5z" />
    <glyph glyph-name="oacute" unicode="&#xf3;" horiz-adv-x="1290" 
d="M770 1198h-41l266 318h45zM489 -25q-226 0 -338 150.5t-61 386.5q50 232 228 384.5t399 152.5q147 0 250.5 -69.5t143.5 -192t7 -275.5q-50 -228 -230 -382.5t-399 -154.5zM498 10q209 0 375 142.5t212 359.5q30 143 -7 258t-133.5 180.5t-233.5 65.5
q-211 0 -374.5 -141.5t-209.5 -362.5q-47 -221 56.5 -361.5t314.5 -140.5z" />
    <glyph glyph-name="ocircumflex" unicode="&#xf4;" horiz-adv-x="1290" 
d="M1010 1198l-201 291l-324 -291h-41l353 318h37l217 -318h-41zM489 -25q-226 0 -338 150.5t-61 386.5q50 232 228 384.5t399 152.5q147 0 250.5 -69.5t143.5 -192t7 -275.5q-50 -228 -230 -382.5t-399 -154.5zM498 10q209 0 375 142.5t212 359.5q30 143 -7 258
t-133.5 180.5t-233.5 65.5q-211 0 -374.5 -141.5t-209.5 -362.5q-47 -221 56.5 -361.5t314.5 -140.5z" />
    <glyph glyph-name="otilde" unicode="&#xf5;" horiz-adv-x="1290" 
d="M909 1257q-78 0 -147 89q-29 39 -55 55t-62 16q-48 0 -86 -39.5t-53 -107.5h-33q18 81 68 129.5t110 48.5q78 0 146 -88q32 -41 57.5 -56.5t60.5 -15.5q48 0 86.5 40.5t53.5 109.5h32q-18 -83 -68 -132t-110 -49zM487 -25q-232 0 -341 149.5t-58 387.5
q50 238 222.5 387.5t404.5 149.5q153 0 256 -68.5t140.5 -190t4.5 -278.5q-51 -238 -224.5 -387.5t-404.5 -149.5zM494 8q212 0 374 139t211 365q47 226 -55.5 365t-314.5 139t-374.5 -139t-209.5 -365q-49 -226 54 -365t315 -139z" />
    <glyph glyph-name="odieresis" unicode="&#xf6;" horiz-adv-x="1290" 
d="M530 1364q4 19 19.5 31t34.5 12t28 -12t4 -31q-3 -19 -17.5 -31t-33.5 -12t-28.5 12t-6.5 31zM948 1364q5 19 19.5 31t33.5 12t28 -12t5 -31q-3 -19 -17.5 -31t-33.5 -12t-28.5 12t-6.5 31zM489 -25q-226 0 -338 150.5t-61 386.5q50 232 228 384.5t399 152.5
q147 0 250.5 -69.5t143.5 -192t7 -275.5q-50 -228 -230 -382.5t-399 -154.5zM498 10q209 0 375 142.5t212 359.5q30 143 -7 258t-133.5 180.5t-233.5 65.5q-211 0 -374.5 -141.5t-209.5 -362.5q-47 -221 56.5 -361.5t314.5 -140.5z" />
    <glyph glyph-name="divide" unicode="&#xf7;" horiz-adv-x="1454" 
d="M780 963q-19 0 -29 12t-6 31q5 19 19 31t33 12t28.5 -12t5.5 -31q-5 -19 -18.5 -31t-32.5 -12zM287 666h860l-8 -33h-860zM627 248q-19 0 -28 12t-5 31q3 19 17.5 31t33.5 12t28.5 -12t6.5 -31q-5 -19 -19.5 -31t-33.5 -12z" />
    <glyph glyph-name="oslash" unicode="&#xf8;" horiz-adv-x="1298" 
d="M1077 879q89 -147 43 -367q-51 -238 -224 -387.5t-404 -149.5q-223 0 -338 144l-162 -133l-19 26l162 133q-92 147 -43 367q50 238 222.5 387.5t404.5 149.5q225 0 340 -144l158 131l22 -24zM713 1016q-212 0 -374.5 -139t-209.5 -365q-46 -205 39 -342l860 709
q-103 137 -315 137zM498 8q212 0 374 139t211 365q43 201 -39 342l-858 -709q103 -137 312 -137z" />
    <glyph glyph-name="ugrave" unicode="&#xf9;" horiz-adv-x="1224" 
d="M760 1198l-135 318h45l131 -318h-41zM1085 1024l-217 -1024h-34l53 256q-64 -129 -191.5 -205t-287.5 -76q-368 0 -279 422l133 627h35l-133 -621q-82 -395 252 -395q185 0 325.5 111.5t182.5 304.5l127 600h34z" />
    <glyph glyph-name="uacute" unicode="&#xfa;" horiz-adv-x="1224" 
d="M662 1198h-41l266 318h45zM1085 1024l-217 -1024h-34l47 221q-73 -111 -189.5 -178.5t-240.5 -67.5q-170 0 -265.5 121t-58.5 291l135 637h35l-135 -637q-34 -156 53.5 -266.5t243.5 -110.5q155 0 288.5 110t167.5 267l136 637h34z" />
    <glyph glyph-name="ucircumflex" unicode="&#xfb;" horiz-adv-x="1224" 
d="M449 1198h-41l352 318h37l217 -318h-41l-201 291zM1085 1024l-217 -1024h-34l47 221q-73 -111 -189.5 -178.5t-240.5 -67.5q-170 0 -265.5 121t-58.5 291l135 637h35l-135 -637q-34 -156 53.5 -266.5t243.5 -110.5q155 0 288.5 110t167.5 267l136 637h34z" />
    <glyph glyph-name="udieresis" unicode="&#xfc;" horiz-adv-x="1224" 
d="M494 1364q5 19 19.5 31t33.5 12t28 -12t5 -31q-3 -19 -18 -31t-34 -12t-28 12t-6 31zM911 1364q4 19 19.5 31t34.5 12t28 -12t4 -31q-3 -19 -17.5 -31t-33.5 -12t-28.5 12t-6.5 31zM1085 1024l-217 -1024h-34l47 221q-73 -111 -189.5 -178.5t-240.5 -67.5
q-170 0 -265.5 121t-58.5 291l135 637h35l-135 -637q-34 -156 53.5 -266.5t243.5 -110.5q155 0 288.5 110t167.5 267l136 637h34z" />
    <glyph glyph-name="yacute" unicode="&#xfd;" horiz-adv-x="1052" 
d="M582 1198h-41l266 318h45zM1069 1024l-782 -1210q-85 -133 -161 -178.5t-204 -45.5h-108l6 33h108q111 0 180.5 41t139.5 150l114 176l-239 1034h39l229 -989l639 989h39z" />
    <glyph glyph-name="thorn" unicode="&#xfe;" horiz-adv-x="1343" 
d="M778 1051q223 0 331.5 -150.5t57.5 -386.5q-51 -235 -225.5 -388t-392.5 -153q-163 0 -269 90t-128 242l-150 -711h-35l389 1840h35l-151 -717q87 152 232 243t306 91zM557 10q207 0 368 140.5t208 363.5q47 221 -54.5 361.5t-308.5 140.5q-203 0 -365 -142t-208 -360
q-30 -145 5.5 -260t128.5 -179.5t226 -64.5z" />
    <glyph glyph-name="ydieresis" unicode="&#xff;" horiz-adv-x="1052" 
d="M449 1321q-19 0 -28.5 12t-6.5 31q5 19 19.5 31t33.5 12t28 -12t5 -31q-3 -19 -17.5 -31t-33.5 -12zM866 1321q-19 0 -28.5 12t-6.5 31q4 19 19.5 31t34.5 12t28 -12t5 -31q-3 -19 -18 -31t-34 -12zM1069 1024l-782 -1210q-85 -133 -161 -178.5t-204 -45.5h-108l6 33h108
q111 0 180.5 41t139.5 150l114 176l-239 1034h39l229 -989l639 989h39z" />
    <glyph glyph-name="Amacron" unicode="&#x100;" horiz-adv-x="1376" 
d="M1192 1712h-586l8 35h586zM1016 442l-799 2l-285 -444h-38l919 1434h25l313 -1434h-39zM1008 477l-195 897l-575 -897h770z" />
    <glyph glyph-name="amacron" unicode="&#x101;" horiz-adv-x="1007" 
d="M1028 1303h-586l7 34h585zM774 0h-35l56 264q-65 -130 -191.5 -205t-286.5 -75q-165 0 -240 79.5t-46 217.5q40 192 257.5 270t573.5 31l25 116q33 158 -33 238t-221 80q-242 0 -397 -189l-25 19q166 203 428 203q171 0 244.5 -91.5t38.5 -259.5zM854 543
q-320 51 -534.5 -19.5t-251.5 -242.5q-28 -125 40.5 -195t215.5 -70q191 0 328.5 112.5t178.5 307.5z" />
    <glyph glyph-name="Abreve" unicode="&#x102;" horiz-adv-x="1376" 
d="M881 1626q-117 0 -173.5 66t-33.5 174v2h35q-20 -93 30 -151t150 -58t173 57.5t93 151.5h35v-2q-23 -108 -108 -174t-201 -66zM1016 442l-799 2l-285 -444h-38l919 1434h25l313 -1434h-39zM1008 477l-195 897l-575 -897h770z" />
    <glyph glyph-name="abreve" unicode="&#x103;" horiz-adv-x="1017" 
d="M784 1217q-117 0 -173 65.5t-33 173.5v2h34q-20 -94 29.5 -151.5t149.5 -57.5t174 57.5t94 151.5h35v-2q-23 -108 -108 -173.5t-202 -65.5zM774 0h-35l56 264q-65 -130 -191.5 -205t-286.5 -75q-165 0 -240 79.5t-46 217.5q40 192 257.5 270t573.5 31l25 116
q33 158 -33 238t-221 80q-242 0 -397 -189l-25 19q166 203 428 203q171 0 244.5 -91.5t38.5 -259.5zM854 543q-320 51 -534.5 -19.5t-251.5 -242.5q-28 -125 40.5 -195t215.5 -70q191 0 328.5 112.5t178.5 307.5z" />
    <glyph glyph-name="Aogonek" unicode="&#x104;" horiz-adv-x="1376" 
d="M907 -262q-14 -71 28 -105t144 -34h6l-6 -33h-6q-119 0 -169 44.5t-32 127.5q19 82 76.5 145t163.5 117l-96 442l-799 2l-285 -444h-38l919 1434h25l313 -1434q-115 -59 -171.5 -122.5t-72.5 -139.5zM238 477h770l-195 897z" />
    <glyph glyph-name="aogonek" unicode="&#x105;" horiz-adv-x="1013" 
d="M639 1049q171 0 244.5 -91.5t38.5 -259.5l-148 -698h6q-234 -120 -264 -262q-14 -71 28 -105t144 -34h6l-6 -33h-6q-119 0 -169 44.5t-32 127.5q31 142 262 262h-4l56 264q-65 -130 -191.5 -205t-286.5 -75q-165 0 -240 79.5t-46 217.5q40 192 257.5 270t573.5 31l25 116
q33 158 -33 238t-221 80q-242 0 -397 -189l-25 19q166 203 428 203zM831 436l23 107q-320 51 -534.5 -19.5t-251.5 -242.5q-28 -125 40.5 -195t215.5 -70q191 0 328.5 112.5t178.5 307.5z" />
    <glyph glyph-name="Cacute" unicode="&#x106;" horiz-adv-x="1607" 
d="M1063 1608h-41l266 317h45zM715 -25q-202 0 -344 95t-197 265t-10 382q44 211 171.5 380.5t310 265t384.5 95.5q215 0 355 -98.5t180 -278.5l-37 -12q-38 172 -168.5 263t-337.5 91q-192 0 -364.5 -90.5t-293 -252t-163.5 -363.5q-43 -203 9 -365t186.5 -252t326.5 -90
q207 0 375 90.5t278 261.5l33 -14q-119 -180 -297.5 -276.5t-396.5 -96.5z" />
    <glyph glyph-name="cacute" unicode="&#x107;" horiz-adv-x="1173" 
d="M727 1198h-41l266 318h45zM477 -25q-223 0 -330.5 149.5t-56.5 385.5q50 234 223.5 386.5t391.5 152.5q140 0 238 -65.5t138 -186.5l-32 -17q-37 110 -129.5 172t-221.5 62q-207 0 -368 -141t-207 -363q-47 -220 53.5 -361t306.5 -141q129 0 249.5 64t205.5 178l27 -17
q-92 -124 -220 -191t-268 -67z" />
    <glyph glyph-name="Ccircumflex" unicode="&#x108;" horiz-adv-x="1607" 
d="M795 1608h-41l352 317h37l217 -317h-41l-199 290zM715 -25q-202 0 -344 95t-197 265t-10 382q44 211 171.5 380.5t310 265t384.5 95.5q215 0 355 -98.5t180 -278.5l-37 -12q-38 172 -168.5 263t-337.5 91q-192 0 -364.5 -90.5t-293 -252t-163.5 -363.5q-43 -203 9 -365
t186.5 -252t326.5 -90q207 0 375 90.5t278 261.5l33 -14q-119 -180 -297.5 -276.5t-396.5 -96.5z" />
    <glyph glyph-name="ccircumflex" unicode="&#x109;" horiz-adv-x="1173" 
d="M475 1198h-41l352 318h37l217 -318h-41l-200 291zM477 -25q-223 0 -330.5 149.5t-56.5 385.5q50 234 223.5 386.5t391.5 152.5q140 0 238 -65.5t138 -186.5l-32 -17q-37 110 -129.5 172t-221.5 62q-207 0 -368 -141t-207 -363q-47 -220 53.5 -361t306.5 -141
q129 0 249.5 64t205.5 178l27 -17q-92 -124 -220 -191t-268 -67z" />
    <glyph glyph-name="Cdotaccent" unicode="&#x10a;" horiz-adv-x="1607" 
d="M1083 1731q-19 0 -28 12t-4 31q3 19 17.5 31t33.5 12t28.5 -12t6.5 -31q-4 -19 -19.5 -31t-34.5 -12zM715 -25q-202 0 -344 95t-197 265t-10 382q44 211 171.5 380.5t310 265t384.5 95.5q215 0 355 -98.5t180 -278.5l-37 -12q-38 172 -168.5 263t-337.5 91
q-192 0 -364.5 -90.5t-293 -252t-163.5 -363.5q-43 -203 9 -365t186.5 -252t326.5 -90q207 0 375 90.5t278 261.5l33 -14q-119 -180 -297.5 -276.5t-396.5 -96.5z" />
    <glyph glyph-name="cdotaccent" unicode="&#x10b;" horiz-adv-x="1173" 
d="M764 1321q-19 0 -28.5 12t-6.5 31q5 19 19.5 31t33.5 12t28 -12t5 -31q-3 -19 -17.5 -31t-33.5 -12zM477 -25q-223 0 -330.5 149.5t-56.5 385.5q50 234 223.5 386.5t391.5 152.5q140 0 238 -65.5t138 -186.5l-32 -17q-37 110 -129.5 172t-221.5 62q-207 0 -368 -141
t-207 -363q-47 -220 53.5 -361t306.5 -141q129 0 249.5 64t205.5 178l27 -17q-92 -124 -220 -191t-268 -67z" />
    <glyph glyph-name="Ccaron" unicode="&#x10c;" horiz-adv-x="1607" 
d="M1038 1608l-217 317h41l201 -291l323 291h41l-352 -317h-37zM715 -25q-202 0 -344 95t-197 265t-10 382q44 211 171.5 380.5t310 265t384.5 95.5q215 0 355 -98.5t180 -278.5l-37 -12q-38 172 -168.5 263t-337.5 91q-192 0 -364.5 -90.5t-293 -252t-163.5 -363.5
q-43 -203 9 -365t186.5 -252t326.5 -90q207 0 375 90.5t278 261.5l33 -14q-119 -180 -297.5 -276.5t-396.5 -96.5z" />
    <glyph glyph-name="ccaron" unicode="&#x10d;" horiz-adv-x="1173" 
d="M719 1198l-217 318h41l200 -291l324 291h41l-352 -318h-37zM477 -25q-223 0 -330.5 149.5t-56.5 385.5q50 234 223.5 386.5t391.5 152.5q140 0 238 -65.5t138 -186.5l-32 -17q-37 110 -129.5 172t-221.5 62q-207 0 -368 -141t-207 -363q-47 -220 53.5 -361t306.5 -141
q129 0 249.5 64t205.5 178l27 -17q-92 -124 -220 -191t-268 -67z" />
    <glyph glyph-name="Dcaron" unicode="&#x10e;" horiz-adv-x="1564" 
d="M891 1608l-217 317h41l200 -291l324 291h41l-352 -317h-37zM842 1434q159 0 281.5 -52t194.5 -146t97.5 -226t-10.5 -293q-69 -327 -304.5 -522t-561.5 -195h-437l304 1434h436zM545 35q310 0 534.5 185.5t290.5 496.5t-79 496.5t-455 185.5h-402l-291 -1364h402z" />
    <glyph glyph-name="dcaron" unicode="&#x10f;" horiz-adv-x="1417" 
d="M1559 1499l-82 -383h-37l82 383h37zM1264 1495l-318 -1493h-35l66 307q-87 -152 -232.5 -243t-306.5 -91q-223 0 -331.5 150.5t-57.5 386.5q33 154 124 278t221 193.5t274 69.5q163 0 268 -90t127 -242l166 774h35zM446 10q203 0 365.5 142t208.5 360q30 145 -6 260
t-129 179.5t-226 64.5q-207 0 -367.5 -140.5t-207.5 -363.5q-47 -221 54 -361.5t308 -140.5z" />
    <glyph glyph-name="Dcroat" unicode="&#x110;" horiz-adv-x="1601" 
d="M866 1434q330 0 485 -187t83 -530q-48 -228 -172.5 -391t-303 -244.5t-395.5 -81.5h-432l148 700h-234l8 33h234l147 701h432zM569 35q205 0 373 76t287 231t166 375q70 329 -76.5 505.5t-458.5 176.5h-395l-141 -666h475l-8 -33h-476l-141 -665h395z" />
    <glyph glyph-name="dcroat" unicode="&#x111;" horiz-adv-x="1302" 
d="M1532 1337l-6 -34h-303l-277 -1301h-35l66 307q-87 -152 -232.5 -243t-306.5 -91q-223 0 -331.5 150.5t-57.5 386.5q33 154 124 278t221 193.5t274 69.5q163 0 268 -90t127 -242l125 582h-248l6 34h250l33 158h35l-33 -158h301zM1020 512q30 145 -6 260t-129 179.5
t-226 64.5q-207 0 -367.5 -140.5t-207.5 -363.5q-47 -221 54 -361.5t308 -140.5q203 0 365.5 142t208.5 360z" />
    <glyph glyph-name="Emacron" unicode="&#x112;" horiz-adv-x="1353" 
d="M623 1747h585l-8 -35h-586zM1022 35l-6 -35h-912l304 1434h890l-6 -35h-856l-151 -709h829l-6 -33h-829l-134 -622h877z" />
    <glyph glyph-name="emacron" unicode="&#x113;" horiz-adv-x="1198" 
d="M465 1337h586l-7 -34h-585zM115 518q-47 -228 50.5 -369t307.5 -141q128 0 246 61.5t205 172.5l26 -17q-92 -120 -218.5 -186t-264.5 -66q-221 0 -329.5 150.5t-57.5 386.5q50 235 223 387t391 152q210 0 301 -142t37 -389h-917zM688 1014q-198 0 -353.5 -128
t-211.5 -335h883q40 212 -46 337.5t-272 125.5z" />
    <glyph glyph-name="Ebreve" unicode="&#x114;" horiz-adv-x="1353" 
d="M682 1868h35q-20 -93 30 -151t150 -58t173 57.5t93 151.5h35q-23 -109 -107.5 -175.5t-201.5 -66.5t-173.5 66.5t-33.5 175.5zM1022 35l-6 -35h-912l304 1434h890l-6 -35h-856l-151 -709h829l-6 -33h-829l-134 -622h877z" />
    <glyph glyph-name="ebreve" unicode="&#x115;" horiz-adv-x="1198" 
d="M526 1456l35 2q-20 -94 29 -151.5t149 -57.5t174.5 57.5t94.5 151.5l34 -2q-23 -108 -107.5 -173.5t-201.5 -65.5t-173.5 66t-33.5 173zM115 518q-47 -228 50.5 -369t307.5 -141q128 0 246 61.5t205 172.5l26 -17q-92 -120 -218.5 -186t-264.5 -66q-221 0 -329.5 150.5
t-57.5 386.5q50 235 223 387t391 152q210 0 301 -142t37 -389h-917zM688 1014q-198 0 -353.5 -128t-211.5 -335h883q40 212 -46 337.5t-272 125.5z" />
    <glyph glyph-name="Edotaccent" unicode="&#x116;" horiz-adv-x="1353" 
d="M879 1774q3 19 17.5 31t33.5 12t28.5 -12t6.5 -31q-4 -19 -19.5 -31t-34.5 -12t-28 12t-4 31zM1022 35l-6 -35h-912l304 1434h890l-6 -35h-856l-151 -709h829l-6 -33h-829l-134 -622h877z" />
    <glyph glyph-name="edotaccent" unicode="&#x117;" horiz-adv-x="1198" 
d="M721 1364q5 19 19.5 31t33.5 12t28 -12t5 -31q-3 -19 -17.5 -31t-33.5 -12t-28.5 12t-6.5 31zM115 518q-47 -228 50.5 -369t307.5 -141q128 0 246 61.5t205 172.5l26 -17q-92 -120 -218.5 -186t-264.5 -66q-221 0 -329.5 150.5t-57.5 386.5q50 235 223 387t391 152
q210 0 301 -142t37 -389h-917zM688 1014q-198 0 -353.5 -128t-211.5 -335h883q40 212 -46 337.5t-272 125.5z" />
    <glyph glyph-name="Eogonek" unicode="&#x118;" horiz-adv-x="1353" 
d="M1292 1399h-856l-151 -709h829l-6 -33h-829l-134 -622h877l-6 -35h-4q-234 -120 -264 -262q-15 -74 30 -106.5t148 -32.5l-6 -33q-121 0 -173.5 43t-33.5 129q33 150 248 262h-857l304 1434h890z" />
    <glyph glyph-name="eogonek" unicode="&#x119;" horiz-adv-x="1214" 
d="M473 8q128 0 246 61.5t205 172.5l26 -17q-117 -151 -278 -213q-74 -49 -119.5 -111t-58.5 -122q-15 -71 26.5 -105t143.5 -34h6l-6 -33h-7q-119 0 -168 44.5t-30 127.5q11 53 45.5 109t85.5 100q-62 -15 -123 -15q-221 0 -329.5 150.5t-57.5 386.5q50 235 223 387
t391 152q210 0 301 -142t37 -389h-917q-47 -228 50.5 -369t307.5 -141zM688 1014q-198 0 -353.5 -128t-211.5 -335h883q40 212 -46 337.5t-272 125.5z" />
    <glyph glyph-name="Ecaron" unicode="&#x11a;" horiz-adv-x="1353" 
d="M1255 1925l-352 -317h-37l-217 317h41l201 -291l323 291h41zM1022 35l-6 -35h-912l304 1434h890l-6 -35h-856l-151 -709h829l-6 -33h-829l-134 -622h877z" />
    <glyph glyph-name="ecaron" unicode="&#x11b;" horiz-adv-x="1198" 
d="M1100 1516l-352 -318h-37l-217 318h41l200 -291l324 291h41zM115 518q-47 -228 50.5 -369t307.5 -141q128 0 246 61.5t205 172.5l26 -17q-92 -120 -218.5 -186t-264.5 -66q-221 0 -329.5 150.5t-57.5 386.5q50 235 223 387t391 152q210 0 301 -142t37 -389h-917z
M688 1014q-198 0 -353.5 -128t-211.5 -335h883q40 212 -46 337.5t-272 125.5z" />
    <glyph glyph-name="Gcircumflex" unicode="&#x11c;" horiz-adv-x="1640" 
d="M795 1608h-41l352 317h37l217 -317h-41l-199 290zM1483 696l-109 -508q-154 -114 -309 -164.5t-352 -50.5q-153 4 -273.5 60.5t-191 154.5t-96.5 232.5t10 294.5q44 211 171.5 380.5t310 265t384.5 95.5q215 0 354.5 -98t180.5 -277l-37 -14q-38 172 -168.5 263
t-337.5 91q-192 0 -365 -90.5t-293.5 -252t-162.5 -363.5q-35 -153 -11 -281t91.5 -221.5t181 -147t258.5 -57.5q179 0 328.5 45.5t293.5 149.5l97 456h-443l9 37h479z" />
    <glyph glyph-name="gcircumflex" unicode="&#x11d;" horiz-adv-x="1343" 
d="M506 1198h-41l352 318h37l217 -318h-41l-201 291zM1204 1024l-198 -934q-53 -246 -218.5 -385t-406.5 -139q-150 0 -255.5 53.5t-156.5 147.5l33 22q46 -89 147.5 -139.5t237.5 -50.5q221 0 378 131t206 360l51 246q-80 -156 -222.5 -246t-314.5 -90q-225 0 -334 147.5
t-61 376.5t219.5 377t397.5 148q172 0 277 -90t120 -246l65 311h35zM492 33q203 0 365 138t208 353q30 141 -7 254t-130.5 175.5t-227.5 62.5q-203 0 -365 -138.5t-208 -353.5q-46 -214 58 -352.5t307 -138.5z" />
    <glyph glyph-name="Gbreve" unicode="&#x11e;" horiz-adv-x="1640" 
d="M1061 1626q-117 0 -173.5 66t-33.5 174v2h35q-20 -93 30 -151t150 -58t173 57.5t93 151.5h35v-2q-23 -108 -108 -174t-201 -66zM1483 696l-109 -508q-154 -114 -309 -164.5t-352 -50.5q-153 4 -273.5 60.5t-191 154.5t-96.5 232.5t10 294.5q44 211 171.5 380.5t310 265
t384.5 95.5q215 0 354.5 -98t180.5 -277l-37 -14q-38 172 -168.5 263t-337.5 91q-192 0 -365 -90.5t-293.5 -252t-162.5 -363.5q-35 -153 -11 -281t91.5 -221.5t181 -147t258.5 -57.5q179 0 328.5 45.5t293.5 149.5l97 456h-443l9 37h479z" />
    <glyph glyph-name="gbreve" unicode="&#x11f;" horiz-adv-x="1343" 
d="M565 1458h35q-20 -94 29 -151.5t149 -57.5t174.5 57.5t94.5 151.5h34v-2q-23 -108 -107.5 -173.5t-201.5 -65.5t-173.5 66t-33.5 173v2zM1206 1030l-211 -985q-43 -207 -207.5 -349t-361.5 -142q-146 0 -259 83.5t-142 212.5l34 15q26 -120 132.5 -198.5t242.5 -78.5
q179 0 333 133t194 324l59 277q-84 -148 -228.5 -237t-308.5 -89q-224 0 -332.5 147t-58.5 379q47 226 221.5 375.5t393.5 149.5q167 0 272.5 -88t126.5 -236l65 307h35zM492 33q202 0 363.5 138t207.5 351q44 212 -59 351t-304 139q-207 0 -368 -137.5t-207 -352.5
q-46 -218 56.5 -353.5t310.5 -135.5z" />
    <glyph glyph-name="Gdotaccent" unicode="&#x120;" horiz-adv-x="1640" 
d="M1083 1731q-19 0 -28 12t-4 31q3 19 17.5 31t33.5 12t28.5 -12t6.5 -31q-4 -19 -19.5 -31t-34.5 -12zM1483 696l-109 -508q-154 -114 -309 -164.5t-352 -50.5q-153 4 -273.5 60.5t-191 154.5t-96.5 232.5t10 294.5q44 211 171.5 380.5t310 265t384.5 95.5
q215 0 354.5 -98t180.5 -277l-37 -14q-38 172 -168.5 263t-337.5 91q-192 0 -365 -90.5t-293.5 -252t-162.5 -363.5q-35 -153 -11 -281t91.5 -221.5t181 -147t258.5 -57.5q179 0 328.5 45.5t293.5 149.5l97 456h-443l9 37h479z" />
    <glyph glyph-name="gdotaccent" unicode="&#x121;" horiz-adv-x="1343" 
d="M760 1364q5 19 19.5 31t33.5 12t28 -12t5 -31q-3 -19 -17.5 -31t-33.5 -12t-28.5 12t-6.5 31zM1206 1030l-211 -985q-43 -207 -207.5 -349t-361.5 -142q-146 0 -259 83.5t-142 212.5l34 15q26 -120 132.5 -198.5t242.5 -78.5q179 0 333 133t194 324l59 277
q-84 -148 -228.5 -237t-308.5 -89q-224 0 -332.5 147t-58.5 379q47 226 221.5 375.5t393.5 149.5q167 0 272.5 -88t126.5 -236l65 307h35zM492 33q202 0 363.5 138t207.5 351q44 212 -59 351t-304 139q-207 0 -368 -137.5t-207 -352.5q-46 -218 56.5 -353.5t310.5 -135.5z
" />
    <glyph glyph-name="uni0122" unicode="&#x122;" horiz-adv-x="1640" 
d="M1483 696l-109 -508q-154 -114 -309 -164.5t-352 -50.5q-153 4 -273.5 60.5t-191 154.5t-96.5 232.5t10 294.5q44 211 171.5 380.5t310 265t384.5 95.5q215 0 354.5 -98t180.5 -277l-37 -14q-38 172 -168.5 263t-337.5 91q-192 0 -365 -90.5t-293.5 -252t-162.5 -363.5
q-35 -153 -11 -281t91.5 -221.5t181 -147t258.5 -57.5q179 0 328.5 45.5t293.5 149.5l97 456h-443l9 37h479zM678 -207h37l-160 -338h-31z" />
    <glyph glyph-name="uni0123" unicode="&#x123;" horiz-adv-x="1343" 
d="M772 1198h-41l266 318h45zM1206 1030l-211 -985q-43 -207 -207.5 -349t-361.5 -142q-146 0 -259 83.5t-142 212.5l34 15q26 -120 132.5 -198.5t242.5 -78.5q179 0 333 133t194 324l59 277q-84 -148 -228.5 -237t-308.5 -89q-224 0 -332.5 147t-58.5 379
q47 226 221.5 375.5t393.5 149.5q167 0 272.5 -88t126.5 -236l65 307h35zM492 33q202 0 363.5 138t207.5 351q44 212 -59 351t-304 139q-207 0 -368 -137.5t-207 -352.5q-46 -218 56.5 -353.5t310.5 -135.5z" />
    <glyph glyph-name="Hcircumflex" unicode="&#x124;" horiz-adv-x="1597" 
d="M1249 1608l-198 290l-326 -290h-41l352 317h37l217 -317h-41zM1495 1434l-303 -1434h-35l137 647h-1018l-137 -647h-35l304 1434h34l-159 -752h1017l160 752h35z" />
    <glyph glyph-name="hcircumflex" unicode="&#x125;" horiz-adv-x="1232" 
d="M688 1673l-201 291l-323 -291h-41l352 318h37l217 -318h-41zM694 1051q113 0 197 -56t120 -151t13 -207l-135 -637h-35l135 637q32 157 -56.5 268t-246.5 111q-104 0 -203 -51t-169 -138t-91 -190l-135 -637h-35l318 1499h35l-148 -696q73 111 191 179.5t245 68.5z" />
    <glyph glyph-name="Hbar" unicode="&#x126;" horiz-adv-x="1662" 
d="M1595 1069h-143l-227 -1069h-37l151 721h-1015l-152 -721h-37l227 1069h-143l6 33h144l69 332h37l-69 -332h1015l70 332h37l-70 -332h144zM1415 1069h-1016l-67 -313h1016z" />
    <glyph glyph-name="hbar" unicode="&#x127;" horiz-adv-x="1232" 
d="M729 1040q187 0 259 -107.5t26 -320.5l-129 -612h-35l129 612q85 396 -258 396q-187 0 -327.5 -111.5t-180.5 -304.5l-125 -592h-35l266 1255h-196l6 33h197l45 211h35l-46 -211h453l-6 -33h-453l-106 -495q65 129 192.5 204.5t288.5 75.5z" />
    <glyph glyph-name="Itilde" unicode="&#x128;" horiz-adv-x="552" 
d="M629 1667q-40 0 -75 19.5t-73 68.5q-31 40 -57.5 56t-61.5 16q-48 0 -86 -40t-51 -108h-32q17 81 66.5 130t109.5 49q76 0 145 -89q33 -41 59 -56t62 -15q48 0 86 40t51 109h33q-17 -83 -66.5 -131.5t-109.5 -48.5zM410 1434h36l-303 -1434h-37z" />
    <glyph glyph-name="itilde" unicode="&#x129;" horiz-adv-x="448" 
d="M342 1346q-52 71 -111 71q-41 0 -68 -34.5t-44 -112.5h-33q39 178 152 178q71 0 139 -88q32 -41 56.5 -56.5t55.5 -15.5q42 0 69 35.5t44 114.5h33q-39 -181 -152 -181q-72 0 -141 89zM272 1024h35l-217 -1024h-35z" />
    <glyph glyph-name="Imacron" unicode="&#x12a;" horiz-adv-x="552" 
d="M203 1747h585l-8 -35h-585zM410 1434h36l-303 -1434h-37z" />
    <glyph glyph-name="imacron" unicode="&#x12b;" horiz-adv-x="448" 
d="M111 1337h491l-6 -34h-492zM272 1024h35l-217 -1024h-35z" />
    <glyph glyph-name="Ibreve" unicode="&#x12c;" horiz-adv-x="552" 
d="M469 1626q-131 0 -181.5 59.5t-25.5 180.5v2h35q-23 -109 20 -159t160 -50t180 50t86 159h35v-2q-50 -240 -309 -240zM410 1434h36l-303 -1434h-37z" />
    <glyph glyph-name="ibreve" unicode="&#x12d;" horiz-adv-x="448" 
d="M332 1217q-126 0 -173.5 59.5t-21.5 179.5v2h35q-23 -109 16.5 -159t149.5 -50t171.5 50t84.5 159h35v-2q-26 -121 -99 -180t-198 -59zM272 1024h35l-217 -1024h-35z" />
    <glyph glyph-name="Iogonek" unicode="&#x12e;" horiz-adv-x="552" 
d="M143 0q-234 -120 -264 -262q-15 -71 25.5 -103.5t134.5 -35.5h18l-6 -33h-16q-113 3 -160.5 46t-30.5 126q35 156 262 270l5 15l299 1411h36z" />
    <glyph glyph-name="iogonek" unicode="&#x12f;" horiz-adv-x="448" 
d="M373 1407q19 0 28 -12t5 -31q-3 -19 -18 -31t-34 -12t-28.5 12t-6.5 31q4 19 19.5 31t34.5 12zM272 1024h35l-217 -1024q-234 -120 -264 -262q-14 -71 28 -105t144 -34h6l-6 -33h-6q-119 0 -169 44.5t-32 127.5q36 158 264 270l2 8z" />
    <glyph glyph-name="Idotaccent" unicode="&#x130;" horiz-adv-x="552" 
d="M492 1731q-19 0 -28 12t-5 31q3 19 17.5 31t33.5 12t28.5 -12t6.5 -31q-5 -19 -19.5 -31t-33.5 -12zM410 1434h36l-303 -1434h-37z" />
    <glyph glyph-name="dotlessi" unicode="&#x131;" horiz-adv-x="448" 
d="M272 1024h35l-217 -1024h-35z" />
    <glyph glyph-name="ij" unicode="&#x133;" horiz-adv-x="897" 
d="M352 1321q-19 0 -28.5 12t-6.5 31q4 19 19.5 31t34.5 12t28 -12t4 -31q-3 -19 -17.5 -31t-33.5 -12zM801 1321q-19 0 -28.5 12t-6.5 31q5 19 19.5 31t33.5 12t28 -12t5 -31q-3 -19 -17.5 -31t-33.5 -12zM272 1024h35l-217 -1024h-35zM154 -377h90q85 0 142.5 49.5
t76.5 139.5l258 1212h35l-258 -1212q-23 -108 -90.5 -165t-169.5 -57h-91z" />
    <glyph glyph-name="Jcircumflex" unicode="&#x134;" horiz-adv-x="1202" 
d="M1401 1608l-199 290l-325 -290h-41l352 317h37l217 -317h-41zM362 -25q-122 0 -212.5 59.5t-128.5 162.5t-13 225l39 18l-4 -18q-35 -169 61 -290.5t267 -121.5q170 0 316 121.5t181 290.5l215 1012h35l-215 -1012q-38 -185 -197 -316t-344 -131z" />
    <glyph glyph-name="jcircumflex" unicode="&#x135;" horiz-adv-x="448" 
d="M602 1198h-41l-172 291l-295 -291h-41l324 318h37zM272 1024h35l-258 -1212q-23 -108 -90.5 -165t-169.5 -57h-90l6 33h90q85 0 142.5 49.5t76.5 139.5z" />
    <glyph glyph-name="uni0136" unicode="&#x136;" horiz-adv-x="1284" 
d="M1372 1434l-1044 -734l731 -700h-49l-715 678l-14 -10l-142 -668h-35l304 1434h34l-151 -721l1030 721h51zM481 -207h37l-160 -338h-30z" />
    <glyph glyph-name="uni0137" unicode="&#x137;" horiz-adv-x="980" 
d="M748 0l-531 524l-24 -16l-107 -508h-33l318 1497h32l-200 -944l737 471h47l-737 -477l538 -547h-40zM332 -207h37l-160 -338h-31z" />
    <glyph glyph-name="Lacute" unicode="&#x139;" horiz-adv-x="1220" 
d="M483 1608h-41l267 317h45zM987 35l-6 -35h-877l304 1434h34l-297 -1399h842z" />
    <glyph glyph-name="lacute" unicode="&#x13a;" horiz-adv-x="436" 
d="M428 1673h-41l266 318h45zM45 0l317 1499h35l-317 -1499h-35z" />
    <glyph glyph-name="uni013B" unicode="&#x13b;" horiz-adv-x="1220" 
d="M989 35l-6 -35h-881l304 1434h36l-297 -1399h844zM457 -207h37l-160 -338h-31z" />
    <glyph glyph-name="uni013C" unicode="&#x13c;" horiz-adv-x="436" 
d="M45 0l317 1499h35l-317 -1499h-35zM6 -207h37l-160 -338h-30z" />
    <glyph glyph-name="Lcaron" unicode="&#x13d;" horiz-adv-x="1220" 
d="M817 1458h37l-88 -383h-31zM989 35l-6 -35h-881l304 1434h36l-297 -1399h844z" />
    <glyph glyph-name="lcaron" unicode="&#x13e;" horiz-adv-x="436" 
d="M45 0l317 1499h35l-317 -1499h-35zM498 1499h37l-80 -383h-39z" />
    <glyph glyph-name="Ldot" unicode="&#x13f;" horiz-adv-x="1232" 
d="M989 35l-6 -35h-881l304 1434h36l-297 -1399h844zM774 692q-19 0 -28 12t-5 31q3 19 18 31t34 12t28 -12t6 -31q-5 -19 -19.5 -31t-33.5 -12z" />
    <glyph glyph-name="ldot" unicode="&#x140;" horiz-adv-x="436" 
d="M45 0l317 1499h35l-317 -1499h-35zM414 692q-19 0 -28 12t-5 31q3 19 17.5 31t33.5 12t28.5 -12t6.5 -31q-5 -19 -19.5 -31t-33.5 -12z" />
    <glyph glyph-name="Lslash" unicode="&#x141;" horiz-adv-x="1245" 
d="M1014 35l-6 -35h-881l119 567l-295 -137l8 37l295 137l176 830h37l-172 -809l682 317l-6 -37l-682 -317l-119 -553h844z" />
    <glyph glyph-name="lslash" unicode="&#x142;" horiz-adv-x="634" 
d="M307 766l-162 -766h-34l157 748l-252 -123l9 37l251 122l152 715h35l-148 -696l314 151l-8 -36z" />
    <glyph glyph-name="Nacute" unicode="&#x143;" horiz-adv-x="1617" 
d="M946 1608h-41l266 317h46zM1516 1434l-304 -1434h-32l-752 1368l-291 -1368h-35l304 1434h30l754 -1373l291 1373h35z" />
    <glyph glyph-name="nacute" unicode="&#x144;" horiz-adv-x="1232" 
d="M702 1198h-40l266 318h45zM686 1049q171 0 267 -121.5t61 -290.5l-135 -637h-37l135 637q32 156 -54 266.5t-243 110.5q-156 0 -289.5 -110.5t-165.5 -266.5l-135 -637h-37l217 1024h37l-47 -223q72 112 187 180t239 68z" />
    <glyph glyph-name="uni0145" unicode="&#x145;" horiz-adv-x="1617" 
d="M1516 1434l-304 -1434h-41l-739 1378l-293 -1378h-37l304 1434h40l740 -1379l293 1379h37zM594 -207h37l-160 -338h-31z" />
    <glyph glyph-name="uni0146" unicode="&#x146;" horiz-adv-x="1232" 
d="M686 1049q171 0 267 -121.5t61 -290.5l-135 -637h-37l135 637q32 156 -54 266.5t-243 110.5q-156 0 -289.5 -110.5t-165.5 -266.5l-135 -637h-37l217 1024h37l-47 -223q72 112 187 180t239 68zM401 -207h37l-159 -338h-31z" />
    <glyph glyph-name="Ncaron" unicode="&#x147;" horiz-adv-x="1617" 
d="M979 1608l-217 317h41l201 -291l323 291h41l-352 -317h-37zM1516 1434l-304 -1434h-32l-752 1368l-291 -1368h-35l304 1434h30l754 -1373l291 1373h35z" />
    <glyph glyph-name="ncaron" unicode="&#x148;" horiz-adv-x="1232" 
d="M1094 1516l-353 -318h-36l-218 318h41l201 -291l324 291h41zM686 1049q171 0 267 -121.5t61 -290.5l-135 -637h-37l135 637q32 156 -54 266.5t-243 110.5q-156 0 -289.5 -110.5t-165.5 -266.5l-135 -637h-37l217 1024h37l-47 -223q72 112 187 180t239 68z" />
    <glyph glyph-name="Eng" unicode="&#x14a;" horiz-adv-x="1617" 
d="M1516 1434l-326 -1540q-25 -108 -91.5 -165t-168.5 -57h-90l6 35h90q85 0 141 48t76 139l23 112l-748 1362l-291 -1368h-35l304 1434h30l754 -1373l291 1373h35z" />
    <glyph glyph-name="eng" unicode="&#x14b;" horiz-adv-x="1232" 
d="M686 1049q171 0 267 -121.5t61 -290.5l-164 -768q-20 -95 -88 -146t-166 -51h-90l6 33h90q80 0 138 44t75 122l162 766q32 156 -54 266.5t-243 110.5q-156 0 -289.5 -110.5t-165.5 -266.5l-135 -637h-37l217 1024h37l-47 -223q72 112 187 180t239 68z" />
    <glyph glyph-name="Omacron" unicode="&#x14c;" horiz-adv-x="1753" 
d="M803 1747h586l-9 -35h-585zM160 717q44 209 173.5 379t314 266t386.5 96q121 0 224 -36.5t175.5 -102.5t119.5 -158t56 -204t-16 -240q-44 -209 -173.5 -379t-314 -266.5t-386.5 -96.5q-121 0 -224 36.5t-175.5 102.5t-119.5 158.5t-56 204.5t16 240zM1554 717
q35 154 9 283.5t-95.5 223.5t-184 146.5t-257.5 52.5q-190 0 -364 -90.5t-297 -252t-166 -363.5t11.5 -364t190.5 -252.5t326 -90.5t364 90.5t297 252.5t166 364z" />
    <glyph glyph-name="omacron" unicode="&#x14d;" horiz-adv-x="1290" 
d="M483 1337h586l-6 -34h-586zM489 -25q-226 0 -338 150.5t-61 386.5q50 232 228 384.5t399 152.5q147 0 250.5 -69.5t143.5 -192t7 -275.5q-50 -228 -230 -382.5t-399 -154.5zM498 10q209 0 375 142.5t212 359.5q30 143 -7 258t-133.5 180.5t-233.5 65.5
q-211 0 -374.5 -141.5t-209.5 -362.5q-47 -221 56.5 -361.5t314.5 -140.5z" />
    <glyph glyph-name="Obreve" unicode="&#x14e;" horiz-adv-x="1753" 
d="M1069 1626q-117 0 -173.5 66t-33.5 174v2h35q-20 -93 30 -151t150 -58t173 57.5t93 151.5h35v-2q-23 -108 -108 -174t-201 -66zM729 -25q-118 0 -220.5 38t-176 105.5t-122.5 160.5t-59.5 203.5t13.5 234.5q32 150 118 287.5t204 236.5t264.5 158t293.5 59
q195 0 340 -99.5t205.5 -270t18.5 -371.5q-43 -202 -176.5 -373t-320.5 -270t-382 -99zM737 10q186 0 364.5 95t305 258t166.5 354t-17.5 354t-195.5 257.5t-324 94.5q-187 0 -365.5 -94.5t-305 -257.5t-166.5 -354q-22 -118 -12 -223t56.5 -194t116 -153.5t167.5 -100.5
t210 -36z" />
    <glyph glyph-name="obreve" unicode="&#x14f;" horiz-adv-x="1290" 
d="M545 1458h35q-20 -94 29 -151.5t149 -57.5t174 57.5t94 151.5h35q-23 -109 -107.5 -175t-201.5 -66t-173.5 66t-33.5 175zM489 -25q-226 0 -338 150.5t-61 386.5q50 232 228 384.5t399 152.5q147 0 250.5 -69.5t143.5 -192t7 -275.5q-50 -228 -230 -382.5t-399 -154.5z
M498 10q209 0 375 142.5t212 359.5q30 143 -7 258t-133.5 180.5t-233.5 65.5q-211 0 -374.5 -141.5t-209.5 -362.5q-47 -221 56.5 -361.5t314.5 -140.5z" />
    <glyph glyph-name="Ohungarumlaut" unicode="&#x150;" horiz-adv-x="1753" 
d="M1139 1925h41l-328 -317h-41zM1479 1925h41l-328 -317h-41zM160 717q44 209 173.5 379t314 266t386.5 96q121 0 224 -36.5t175.5 -102.5t119.5 -158t56 -204t-16 -240q-44 -209 -173.5 -379t-314 -266.5t-386.5 -96.5q-121 0 -224 36.5t-175.5 102.5t-119.5 158.5
t-56 204.5t16 240zM1554 717q35 154 9 283.5t-95.5 223.5t-184 146.5t-257.5 52.5q-190 0 -364 -90.5t-297 -252t-166 -363.5t11.5 -364t190.5 -252.5t326 -90.5t364 90.5t297 252.5t166 364z" />
    <glyph glyph-name="ohungarumlaut" unicode="&#x151;" horiz-adv-x="1290" 
d="M535 1198h-41l266 318h45zM844 1198h-41l266 318h45zM489 -25q-226 0 -338 150.5t-61 386.5q50 232 228 384.5t399 152.5q147 0 250.5 -69.5t143.5 -192t7 -275.5q-50 -228 -230 -382.5t-399 -154.5zM498 10q209 0 375 142.5t212 359.5q30 143 -7 258t-133.5 180.5
t-233.5 65.5q-211 0 -374.5 -141.5t-209.5 -362.5q-47 -221 56.5 -361.5t314.5 -140.5z" />
    <glyph glyph-name="OE" unicode="&#x152;" horiz-adv-x="2301" 
d="M1985 35l-7 -35h-1253q-152 0 -274 52.5t-196 147t-102 226.5t7 291q44 208 172 372.5t310.5 254.5t385.5 90h1233l-6 -35h-871l-139 -658h834l-8 -34h-834l-143 -672h891zM1057 35l291 1364h-326q-192 0 -363.5 -84t-294 -240.5t-165.5 -357.5q-34 -154 -8 -279.5
t96.5 -215t185.5 -138.5t258 -49h326z" />
    <glyph glyph-name="oe" unicode="&#x153;" horiz-adv-x="2203" 
d="M2038 518h-918q-47 -228 51 -369t308 -141q128 0 245.5 61.5t204.5 172.5l27 -17q-92 -120 -218.5 -186t-264.5 -66q-185 0 -293.5 108t-110.5 288q-81 -174 -240 -284t-340 -110q-226 0 -338 150.5t-61 386.5q50 232 228 384.5t399 152.5q186 0 298.5 -108.5
t117.5 -285.5q77 178 231 286t336 108q210 0 301 -142t37 -389zM498 10q209 0 375 142.5t212 359.5q30 143 -7 258t-133.5 180.5t-233.5 65.5q-211 0 -374.5 -141.5t-209.5 -362.5q-47 -221 56.5 -361.5t314.5 -140.5zM1694 1014q-198 0 -354 -128t-212 -335h883
q40 213 -45.5 338t-271.5 125z" />
    <glyph glyph-name="Racute" unicode="&#x154;" horiz-adv-x="1429" 
d="M840 1608h-41l266 317h45zM690 612h-424l-127 -602h-35l302 1424h600q167 0 260.5 -120.5t58.5 -289.5q-37 -170 -182 -291t-312 -121h-96l373 -589l-31 -23zM274 647h566q153 0 284.5 110.5t165.5 266.5q32 155 -53.5 265t-237.5 110h-565z" />
    <glyph glyph-name="racute" unicode="&#x155;" horiz-adv-x="743" 
d="M518 1198h-41l266 318h45zM682 1040q58 0 104 -14l-16 -33q-47 13 -96 13q-154 0 -287.5 -109t-167.5 -264l-133 -633h-33l217 1024h33l-49 -227q73 109 189 176t239 67z" />
    <glyph glyph-name="uni0156" unicode="&#x156;" horiz-adv-x="1429" 
d="M690 612h-424l-127 -602h-35l302 1424h600q167 0 260.5 -120.5t58.5 -289.5q-37 -170 -182 -291t-312 -121h-96l373 -589l-31 -23zM274 647h566q153 0 284.5 110.5t165.5 266.5q32 155 -53.5 265t-237.5 110h-565zM508 -207h37l-160 -338h-31z" />
    <glyph glyph-name="uni0157" unicode="&#x157;" horiz-adv-x="743" 
d="M682 1040q58 0 104 -14l-16 -33q-47 13 -96 13q-154 0 -287.5 -109t-167.5 -264l-133 -633h-33l217 1024h33l-49 -227q73 109 189 176t239 67zM8 -207h37l-160 -338h-30z" />
    <glyph glyph-name="Rcaron" unicode="&#x158;" horiz-adv-x="1429" 
d="M872 1608l-217 317h41l201 -291l324 291h41l-353 -317h-37zM690 612h-424l-127 -602h-35l302 1424h600q167 0 260.5 -120.5t58.5 -289.5q-37 -170 -182 -291t-312 -121h-96l373 -589l-31 -23zM274 647h566q153 0 284.5 110.5t165.5 266.5q32 155 -53.5 265t-237.5 110
h-565z" />
    <glyph glyph-name="rcaron" unicode="&#x159;" horiz-adv-x="743" 
d="M862 1516l-352 -318h-37l-217 318h41l201 -291l323 291h41zM682 1040q58 0 104 -14l-16 -33q-47 13 -96 13q-154 0 -287.5 -109t-167.5 -264l-133 -633h-33l217 1024h33l-49 -227q73 109 189 176t239 67z" />
    <glyph glyph-name="Sacute" unicode="&#x15a;" horiz-adv-x="1255" 
d="M840 1608h-41l266 317h45zM496 -25q-202 0 -321.5 86.5t-145.5 247.5l32 13q65 -312 443 -312q212 0 349 94.5t171 257.5q27 124 -39 200t-252 122l-180 45q-200 51 -274.5 133.5t-45.5 220.5q36 171 182 273t369 102q184 0 296 -70.5t137 -199.5l-35 -14
q-52 249 -406 249q-207 0 -339 -88.5t-167 -251.5q-26 -123 39 -196t260 -123l187 -47q195 -50 264.5 -135t40.5 -220q-37 -179 -188.5 -283t-376.5 -104z" />
    <glyph glyph-name="sacute" unicode="&#x15b;" horiz-adv-x="1005" 
d="M618 1198h-40l266 318h45zM367 -25q-149 0 -248 56.5t-129 154.5l33 17q31 -92 122 -143.5t228 -51.5q159 0 259 68.5t124 181.5q19 85 -25.5 136t-171.5 83l-209 53q-122 30 -168.5 90.5t-25.5 155.5q28 128 140 200.5t286 72.5q133 0 218 -45t111 -130l-30 -16
q-56 158 -306 158q-161 0 -259 -63t-123 -179q-19 -86 24 -135.5t168 -81.5l211 -53q126 -31 172 -92t25 -154q-27 -129 -139 -206t-287 -77z" />
    <glyph glyph-name="Scircumflex" unicode="&#x15c;" horiz-adv-x="1255" 
d="M555 1608h-41l352 317h37l217 -317h-41l-198 290zM756 717q195 -50 264.5 -135t40.5 -220q-37 -179 -188.5 -283t-376.5 -104q-202 0 -321.5 86.5t-145.5 247.5l32 13q65 -312 443 -312q212 0 349 94.5t171 257.5q27 124 -39 200t-252 122l-180 45q-200 51 -274.5 133.5
t-45.5 220.5q36 171 182 273t369 102q184 0 296 -70.5t137 -199.5l-35 -14q-52 249 -406 249q-207 0 -339 -88.5t-167 -251.5q-26 -123 39 -196t260 -123z" />
    <glyph glyph-name="scircumflex" unicode="&#x15d;" horiz-adv-x="1005" 
d="M348 1198h-41l352 318h37l217 -318h-41l-200 291zM596 504q126 -31 172 -92t25 -154q-27 -129 -139 -206t-287 -77q-149 0 -248 56.5t-129 154.5l33 17q31 -92 122 -143.5t228 -51.5q159 0 259 68.5t124 181.5q19 85 -25.5 136t-171.5 83l-209 53q-122 30 -168.5 90.5
t-25.5 155.5q28 128 140 200.5t286 72.5q133 0 218 -45t111 -130l-30 -16q-56 158 -306 158q-161 0 -259 -63t-123 -179q-19 -86 24 -135.5t168 -81.5z" />
    <glyph glyph-name="Scedilla" unicode="&#x15e;" horiz-adv-x="1255" 
d="M514 -25l-203 -374h-35l203 374q-196 3 -310.5 89.5t-139.5 244.5l32 13q65 -312 443 -312q212 0 349 94.5t171 257.5q27 124 -39 200t-252 122l-180 45q-200 51 -274.5 133.5t-45.5 220.5q36 171 182 273t369 102q184 0 296 -70.5t137 -199.5l-35 -14q-52 249 -406 249
q-207 0 -339 -88.5t-167 -251.5q-26 -123 39 -196t260 -123l187 -47q195 -50 264.5 -135t40.5 -220q-37 -175 -182.5 -279t-364.5 -108z" />
    <glyph glyph-name="scedilla" unicode="&#x15f;" horiz-adv-x="1005" 
d="M793 258q-27 -127 -138 -204.5t-282 -78.5l-203 -374h-35l203 374q-137 6 -229.5 62t-118.5 149l33 17q31 -92 122 -143.5t228 -51.5q159 0 259 68.5t124 181.5q19 85 -25.5 136t-171.5 83l-209 53q-122 30 -168.5 90.5t-25.5 155.5q28 128 140 200.5t286 72.5
q133 0 218 -45t111 -130l-30 -16q-56 158 -306 158q-161 0 -259 -63t-123 -179q-19 -86 24 -135.5t168 -81.5l211 -53q126 -31 172 -92t25 -154z" />
    <glyph glyph-name="Scaron" unicode="&#x160;" horiz-adv-x="1255" 
d="M799 1608l-217 317h41l200 -291l324 291h41l-352 -317h-37zM756 717q195 -50 264.5 -135t40.5 -220q-37 -179 -188.5 -283t-376.5 -104q-202 0 -321.5 86.5t-145.5 247.5l32 13q65 -312 443 -312q212 0 349 94.5t171 257.5q27 124 -39 200t-252 122l-180 45
q-200 51 -274.5 133.5t-45.5 220.5q36 171 182 273t369 102q184 0 296 -70.5t137 -199.5l-35 -14q-52 249 -406 249q-207 0 -339 -88.5t-167 -251.5q-26 -123 39 -196t260 -123z" />
    <glyph glyph-name="scaron" unicode="&#x161;" horiz-adv-x="1005" 
d="M592 1198l-217 318h41l200 -291l324 291h41l-352 -318h-37zM596 504q126 -31 172 -92t25 -154q-27 -129 -139 -206t-287 -77q-149 0 -248 56.5t-129 154.5l33 17q31 -92 122 -143.5t228 -51.5q159 0 259 68.5t124 181.5q19 85 -25.5 136t-171.5 83l-209 53
q-122 30 -168.5 90.5t-25.5 155.5q28 128 140 200.5t286 72.5q133 0 218 -45t111 -130l-30 -16q-56 158 -306 158q-161 0 -259 -63t-123 -179q-19 -86 24 -135.5t168 -81.5z" />
    <glyph glyph-name="uni0162" unicode="&#x162;" horiz-adv-x="1241" 
d="M1331 1434l-6 -35h-541l-297 -1399h-2l-217 -399h-35l218 399l2 12l295 1387h-541l6 35h1118z" />
    <glyph glyph-name="uni0163" unicode="&#x163;" horiz-adv-x="780" 
d="M385 991l-176 -831q-11 -53 17.5 -89t80.5 -36h248l-6 -35h-195l-217 -399h-35l217 399h-18q-66 0 -103.5 47t-23.5 113l176 831h-237l8 35h237l66 309h35l-66 -309h373l-8 -35h-373z" />
    <glyph glyph-name="Tcaron" unicode="&#x164;" horiz-adv-x="1241" 
d="M791 1608l-218 317h41l201 -291l324 291h41l-353 -317h-36zM1331 1434l-6 -35h-541l-297 -1399h-36l297 1399h-541l6 35h1118z" />
    <glyph glyph-name="tcaron" unicode="&#x165;" horiz-adv-x="772" 
d="M741 1599h37l-80 -382h-39zM209 0q-28 0 -43.5 20t-9.5 48l194 923h-237l8 35h237l66 309h35l-66 -309h373l-8 -35h-373l-195 -923q-3 -14 4.5 -23.5t20.5 -9.5h340l-6 -35h-340z" />
    <glyph glyph-name="Tbar" unicode="&#x166;" horiz-adv-x="1241" 
d="M784 1399l-137 -643h354l-6 -33h-354l-154 -723h-36l153 723h-354l6 33h354l138 643h-541l6 35h1118l-6 -35h-541z" />
    <glyph glyph-name="tbar" unicode="&#x167;" horiz-adv-x="780" 
d="M758 991h-373l-82 -391h375l-8 -33h-375l-86 -407q-11 -53 17.5 -89t80.5 -36h248l-6 -35h-248q-66 0 -103.5 47t-23.5 113l86 407h-237l8 33h237l82 391h-237l8 35h237l66 309h35l-66 -309h373z" />
    <glyph glyph-name="Utilde" unicode="&#x168;" horiz-adv-x="1568" 
d="M1137 1667q-40 0 -75 19.5t-73 68.5q-31 40 -57.5 56t-61.5 16q-48 0 -86 -40t-51 -108h-33q17 81 67 130t110 49q76 0 145 -89q33 -41 59 -56t62 -15q48 0 86 40t51 109h33q-17 -83 -66.5 -131.5t-109.5 -48.5zM639 -25q-114 0 -204 33.5t-151 101t-80.5 169.5t7.5 239
l195 916h34l-194 -916q-26 -130 -8 -225.5t76 -158.5t142 -93.5t191 -30.5t205 31.5t181 92.5t143.5 159.5t87.5 224.5l194 916h35l-195 -916q-28 -133 -92.5 -238t-153.5 -171t-194 -100t-219 -34z" />
    <glyph glyph-name="utilde" unicode="&#x169;" horiz-adv-x="1224" 
d="M725 1346q-29 39 -55 55t-62 16q-48 0 -86 -39.5t-53 -107.5h-33q18 81 68 129.5t110 48.5q78 0 146 -88q32 -41 58 -56.5t61 -15.5q48 0 86 40.5t53 109.5h33q-18 -83 -68.5 -132t-110.5 -49q-78 0 -147 89zM1085 1024l-217 -1024h-34l47 221q-73 -111 -189.5 -178.5
t-240.5 -67.5q-170 0 -265.5 121t-58.5 291l135 637h35l-135 -637q-34 -156 53.5 -266.5t243.5 -110.5q155 0 288.5 110t167.5 267l136 637h34z" />
    <glyph glyph-name="Umacron" unicode="&#x16a;" horiz-adv-x="1568" 
d="M711 1747h585l-8 -35h-586zM639 -25q-114 0 -204 33.5t-151 101t-80.5 169.5t7.5 239l195 916h34l-194 -916q-26 -130 -8 -225.5t76 -158.5t142 -93.5t191 -30.5t205 31.5t181 92.5t143.5 159.5t87.5 224.5l194 916h35l-195 -916q-28 -133 -92.5 -238t-153.5 -171
t-194 -100t-219 -34z" />
    <glyph glyph-name="umacron" unicode="&#x16b;" horiz-adv-x="1224" 
d="M446 1337h586l-6 -34h-586zM1085 1024l-217 -1024h-34l47 221q-73 -111 -189.5 -178.5t-240.5 -67.5q-170 0 -265.5 121t-58.5 291l135 637h35l-135 -637q-34 -156 53.5 -266.5t243.5 -110.5q155 0 288.5 110t167.5 267l136 637h34z" />
    <glyph glyph-name="Ubreve" unicode="&#x16c;" horiz-adv-x="1568" 
d="M977 1626q-117 0 -173.5 66t-33.5 174v2h35q-20 -93 30 -151t150 -58t173 57.5t93 151.5h35v-2q-23 -108 -108 -174t-201 -66zM639 -25q-114 0 -204 33.5t-151 101t-80.5 169.5t7.5 239l195 916h34l-194 -916q-26 -130 -8 -225.5t76 -158.5t142 -93.5t191 -30.5t205 31.5
t181 92.5t143.5 159.5t87.5 224.5l194 916h35l-195 -916q-28 -133 -92.5 -238t-153.5 -171t-194 -100t-219 -34z" />
    <glyph glyph-name="ubreve" unicode="&#x16d;" horiz-adv-x="1224" 
d="M508 1458h35q-20 -94 29 -151.5t149 -57.5t174 57.5t94 151.5h35v-2q-23 -108 -107.5 -173.5t-201.5 -65.5t-173.5 66t-33.5 173v2zM1085 1024l-217 -1024h-34l47 221q-73 -111 -189.5 -178.5t-240.5 -67.5q-170 0 -265.5 121t-58.5 291l135 637h35l-135 -637
q-34 -156 53.5 -266.5t243.5 -110.5q155 0 288.5 110t167.5 267l136 637h34z" />
    <glyph glyph-name="Uring" unicode="&#x16e;" horiz-adv-x="1568" 
d="M977 1618q-90 0 -137.5 58t-28.5 145q17 86 89 144t163 58q90 0 136.5 -57.5t29.5 -144.5q-19 -87 -90.5 -145t-161.5 -58zM983 1651q77 0 135.5 47t75.5 123q15 75 -23 122.5t-116 47.5t-136 -47.5t-73 -122.5q-17 -75 21 -122.5t116 -47.5zM639 -25q-114 0 -204 33.5
t-151 101t-80.5 169.5t7.5 239l195 916h34l-194 -916q-26 -130 -8 -225.5t76 -158.5t142 -93.5t191 -30.5t205 31.5t181 92.5t143.5 159.5t87.5 224.5l194 916h35l-195 -916q-28 -133 -92.5 -238t-153.5 -171t-194 -100t-219 -34z" />
    <glyph glyph-name="uring" unicode="&#x16f;" horiz-adv-x="1224" 
d="M547 1411q19 87 90.5 145t161.5 58t137.5 -58t28.5 -145t-90.5 -145t-161.5 -58t-137.5 58t-28.5 145zM930 1411q15 76 -22.5 123t-114.5 47q-78 0 -137 -47.5t-74 -122.5q-15 -76 22.5 -123t114.5 -47q78 0 137 47.5t74 122.5zM1085 1024l-217 -1024h-34l47 221
q-73 -111 -189.5 -178.5t-240.5 -67.5q-170 0 -265.5 121t-58.5 291l135 637h35l-135 -637q-34 -156 53.5 -266.5t243.5 -110.5q155 0 288.5 110t167.5 267l136 637h34z" />
    <glyph glyph-name="Uhungarumlaut" unicode="&#x170;" horiz-adv-x="1568" 
d="M1047 1925h40l-327 -317h-41zM1386 1925h41l-327 -317h-41zM639 -25q-114 0 -204 33.5t-151 101t-80.5 169.5t7.5 239l195 916h34l-194 -916q-26 -130 -8 -225.5t76 -158.5t142 -93.5t191 -30.5t205 31.5t181 92.5t143.5 159.5t87.5 224.5l194 916h35l-195 -916
q-28 -133 -92.5 -238t-153.5 -171t-194 -100t-219 -34z" />
    <glyph glyph-name="uhungarumlaut" unicode="&#x171;" horiz-adv-x="1224" 
d="M498 1198h-41l266 318h45zM838 1198h-41l266 318h45zM1085 1024l-217 -1024h-34l47 221q-73 -111 -189.5 -178.5t-240.5 -67.5q-170 0 -265.5 121t-58.5 291l135 637h35l-135 -637q-34 -156 53.5 -266.5t243.5 -110.5q155 0 288.5 110t167.5 267l136 637h34z" />
    <glyph glyph-name="Uogonek" unicode="&#x172;" horiz-adv-x="1568" 
d="M1458 1434h35l-195 -916q-41 -198 -159.5 -328t-284.5 -182q-116 -61 -177.5 -124t-76.5 -134t26.5 -105t143.5 -34h6l-6 -33h-6q-120 0 -169 44.5t-30 127.5q25 131 199 236q-75 -11 -125 -11q-114 0 -204 33.5t-151 101t-80.5 169.5t7.5 239l195 916h34l-194 -916
q-26 -130 -8 -225.5t76 -158.5t142 -93.5t191 -30.5t205 31.5t181 92.5t143.5 159.5t87.5 224.5z" />
    <glyph glyph-name="uogonek" unicode="&#x173;" horiz-adv-x="1224" 
d="M1051 1024h34l-215 -1008l-2 -16q-234 -120 -264 -262q-14 -71 28 -105t144 -34h6l-6 -33h-6q-119 0 -169 44.5t-32 127.5q36 158 265 270l4 15l43 198q-73 -111 -189.5 -178.5t-240.5 -67.5q-170 0 -265.5 121t-58.5 291l135 637h35l-135 -637q-34 -156 53.5 -266.5
t243.5 -110.5q155 0 288.5 110t167.5 267z" />
    <glyph glyph-name="Wcircumflex" unicode="&#x174;" horiz-adv-x="2070" 
d="M963 1608h-41l352 317h37l217 -317h-41l-199 290zM2132 1434h35l-774 -1434h-56l-151 1368l-737 -1368h-48l-178 1434h33l174 -1397l754 1397h28l156 -1409z" />
    <glyph glyph-name="wcircumflex" unicode="&#x175;" horiz-adv-x="1652" 
d="M668 1198h-41l352 318h37l217 -318h-41l-201 291zM1657 1024l-594 -1024h-37l-149 969l-560 -969h-36l-158 1024h35l151 -975l563 975h33l150 -975l565 975h37z" />
    <glyph glyph-name="Ycircumflex" unicode="&#x176;" horiz-adv-x="1241" 
d="M547 1608h-41l352 317h37l217 -317h-41l-199 290zM1401 1434l-772 -820l-129 -614h-35l129 614l-412 820h43l393 -785l738 783z" />
    <glyph glyph-name="ycircumflex" unicode="&#x177;" horiz-adv-x="1052" 
d="M369 1198h-41l352 318h37l217 -318h-41l-201 291zM1069 1024l-782 -1210q-85 -133 -161 -178.5t-204 -45.5h-108l6 33h108q111 0 180.5 41t139.5 150l114 176l-239 1034h39l229 -989l639 989h39z" />
    <glyph glyph-name="Ydieresis" unicode="&#x178;" horiz-adv-x="1241" 
d="M627 1731q-19 0 -28 12t-5 31q3 19 17.5 31t33.5 12t28.5 -12t6.5 -31q-5 -19 -19.5 -31t-33.5 -12zM1044 1731q-19 0 -28 12t-4 31q3 19 17.5 31t33.5 12t28.5 -12t6.5 -31q-4 -19 -19.5 -31t-34.5 -12zM1401 1434l-772 -820l-129 -614h-35l129 614l-412 820h43
l393 -785l738 783z" />
    <glyph glyph-name="Zacute" unicode="&#x179;" horiz-adv-x="1228" 
d="M760 1608h-41l325 317h46zM981 35l-6 -35h-1024l6 31l1253 1368h-942l6 35h992l-6 -31l-1254 -1368h975z" />
    <glyph glyph-name="zacute" unicode="&#x17a;" horiz-adv-x="987" 
d="M584 1198h-41l266 318h45zM727 33l-6 -33h-762l4 27l914 964h-689l9 33h733l-6 -27l-914 -964h717z" />
    <glyph glyph-name="Zdotaccent" unicode="&#x17b;" horiz-adv-x="1228" 
d="M838 1731q-19 0 -28 12t-5 31q3 19 17.5 31t33.5 12t28.5 -12t6.5 -31q-5 -19 -19.5 -31t-33.5 -12zM981 35l-6 -35h-1024l6 31l1253 1368h-942l6 35h992l-6 -31l-1254 -1368h975z" />
    <glyph glyph-name="zdotaccent" unicode="&#x17c;" horiz-adv-x="987" 
d="M627 1321q-19 0 -28.5 12t-6.5 31q5 19 19.5 31t33.5 12t28 -12t5 -31q-3 -19 -17.5 -31t-33.5 -12zM727 33l-6 -33h-762l4 27l914 964h-689l9 33h733l-6 -27l-914 -964h717z" />
    <glyph glyph-name="Zcaron" unicode="&#x17d;" horiz-adv-x="1228" 
d="M793 1608l-218 317h41l201 -291l324 291h41l-353 -317h-36zM981 35l-6 -35h-1024l6 31l1253 1368h-942l6 35h992l-6 -31l-1254 -1368h975z" />
    <glyph glyph-name="zcaron" unicode="&#x17e;" horiz-adv-x="987" 
d="M971 1516l-353 -318h-36l-217 318h41l200 -291l324 291h41zM727 33l-6 -33h-762l4 27l914 964h-689l9 33h733l-6 -27l-914 -964h717z" />
    <glyph glyph-name="uni01CD" unicode="&#x1cd;" horiz-adv-x="1376" 
d="M858 1608l-217 317h41l201 -291l323 291h41l-352 -317h-37zM1016 442l-799 2l-285 -444h-38l919 1434h25l313 -1434h-39zM1008 477l-195 897l-575 -897h770z" />
    <glyph glyph-name="uni01CE" unicode="&#x1ce;" horiz-adv-x="1024" 
d="M723 1198l-217 318h41l201 -291l323 291h41l-352 -318h-37zM774 0h-35l56 264q-65 -130 -191.5 -205t-286.5 -75q-165 0 -240 79.5t-46 217.5q40 192 257.5 270t573.5 31l25 116q33 158 -33 238t-221 80q-242 0 -397 -189l-25 19q166 203 428 203q171 0 244.5 -91.5
t38.5 -259.5zM854 543q-320 51 -534.5 -19.5t-251.5 -242.5q-28 -125 40.5 -195t215.5 -70q191 0 328.5 112.5t178.5 307.5z" />
    <glyph glyph-name="uni01E2" unicode="&#x1e2;" horiz-adv-x="2197" 
d="M1962 1712h-586l8 35h586zM1880 35l-6 -35h-928l90 424h-708l-396 -424h-43l1338 1434h930l-7 -35h-870l-139 -658h837l-8 -34h-837l-144 -672h891zM1042 459l201 946l-883 -946h682z" />
    <glyph glyph-name="uni01E3" unicode="&#x1e3;" horiz-adv-x="1968" 
d="M1470 1337l-6 -34h-585l6 34h585zM1802 518h-917q-47 -228 50.5 -369t307.5 -141q128 0 246 61.5t205 172.5l26 -17q-92 -120 -218.5 -186t-264.5 -66q-173 0 -279 95t-120 256q-40 -111 -125 -189.5t-186 -114.5t-210 -36q-165 0 -240 79.5t-46 217.5q40 192 257.5 270
t573.5 31l25 116q33 158 -33 238t-221 80q-242 0 -397 -189l-25 19q166 203 428 203q168 0 242 -88t43 -250q86 155 230 246.5t310 91.5q210 0 301 -142t37 -389zM1458 1014q-198 0 -353.5 -128t-211.5 -335h883q40 212 -46 337.5t-272 125.5zM324 16q205 0 334.5 108.5
t166.5 287.5l29 131q-320 51 -534.5 -19.5t-251.5 -242.5q-28 -125 40.5 -195t215.5 -70z" />
    <glyph glyph-name="Gcaron" unicode="&#x1e6;" horiz-adv-x="1640" 
d="M1038 1608l-217 317h41l201 -291l323 291h41l-352 -317h-37zM1483 696l-109 -508q-154 -114 -309 -164.5t-352 -50.5q-153 4 -273.5 60.5t-191 154.5t-96.5 232.5t10 294.5q44 211 171.5 380.5t310 265t384.5 95.5q215 0 354.5 -98t180.5 -277l-37 -14
q-38 172 -168.5 263t-337.5 91q-192 0 -365 -90.5t-293.5 -252t-162.5 -363.5q-35 -153 -11 -281t91.5 -221.5t181 -147t258.5 -57.5q179 0 328.5 45.5t293.5 149.5l97 456h-443l9 37h479z" />
    <glyph glyph-name="gcaron" unicode="&#x1e7;" horiz-adv-x="1343" 
d="M1139 1516l-353 -318h-36l-218 318h41l201 -291l324 291h41zM1206 1030l-211 -985q-43 -207 -207.5 -349t-361.5 -142q-146 0 -259 83.5t-142 212.5l34 15q26 -120 132.5 -198.5t242.5 -78.5q179 0 333 133t194 324l59 277q-84 -148 -228.5 -237t-308.5 -89
q-224 0 -332.5 147t-58.5 379q47 226 221.5 375.5t393.5 149.5q167 0 272.5 -88t126.5 -236l65 307h35zM492 33q202 0 363.5 138t207.5 351q44 212 -59 351t-304 139q-207 0 -368 -137.5t-207 -352.5q-46 -218 56.5 -353.5t310.5 -135.5z" />
    <glyph glyph-name="uni01E8" unicode="&#x1e8;" horiz-adv-x="1284" 
d="M1278 1925l-352 -317h-37l-217 317h41l200 -291l324 291h41zM1372 1434l-1044 -734l731 -700h-49l-715 678l-14 -10l-142 -668h-35l304 1434h34l-151 -721l1030 721h51z" />
    <glyph glyph-name="uni01E9" unicode="&#x1e9;" horiz-adv-x="974" 
d="M408 1673l-218 318h41l201 -291l324 291h41l-353 -318h-36zM748 0l-531 524l-24 -16l-107 -508h-33l318 1497h32l-200 -944l737 471h47l-737 -477l538 -547h-40z" />
    <glyph glyph-name="AEacute" unicode="&#x1fc;" horiz-adv-x="2197" 
d="M1595 1608h-41l267 317h45zM1880 35l-6 -35h-928l90 424h-708l-396 -424h-43l1338 1434h930l-7 -35h-870l-139 -658h837l-8 -34h-837l-144 -672h891zM1042 459l201 946l-883 -946h682z" />
    <glyph glyph-name="aeacute" unicode="&#x1fd;" horiz-adv-x="1968" 
d="M1524 1516l-271 -318h-41l267 318h45zM1802 518h-917q-47 -228 50.5 -369t307.5 -141q128 0 246 61.5t205 172.5l26 -17q-92 -120 -218.5 -186t-264.5 -66q-173 0 -279 95t-120 256q-40 -111 -125 -189.5t-186 -114.5t-210 -36q-165 0 -240 79.5t-46 217.5
q40 192 257.5 270t573.5 31l25 116q33 158 -33 238t-221 80q-242 0 -397 -189l-25 19q166 203 428 203q168 0 242 -88t43 -250q86 155 230 246.5t310 91.5q210 0 301 -142t37 -389zM1458 1014q-198 0 -353.5 -128t-211.5 -335h883q40 212 -46 337.5t-272 125.5zM324 16
q205 0 334.5 108.5t166.5 287.5l29 131q-320 51 -534.5 -19.5t-251.5 -242.5q-28 -125 40.5 -195t215.5 -70z" />
    <glyph glyph-name="Oslashacute" unicode="&#x1fe;" horiz-adv-x="1753" 
d="M1085 1608h-41l267 317h45zM1593 717q-44 -209 -173.5 -379t-314 -266.5t-386.5 -96.5q-150 0 -269 54.5t-194 154.5l-211 -174l-20 27l211 174q-140 206 -76 506q44 209 173.5 379t314 266t386.5 96q150 0 268.5 -54t194.5 -153l213 174l21 -24l-213 -176
q66 -100 86 -227.5t-11 -280.5zM199 717q-61 -284 67 -481l1200 989q-71 95 -184 146.5t-256 51.5q-190 0 -364 -90.5t-297 -252t-166 -363.5zM1554 717q61 286 -69 481l-1200 -989q71 -95 185 -147t257 -52q190 0 364 90.5t297 252.5t166 364z" />
    <glyph glyph-name="oslashacute" unicode="&#x1ff;" horiz-adv-x="1298" 
d="M692 1198h-41l326 318h45zM1077 879q89 -147 43 -367q-51 -238 -224 -387.5t-404 -149.5q-223 0 -338 144l-162 -133l-19 26l162 133q-92 147 -43 367q50 238 222.5 387.5t404.5 149.5q225 0 340 -144l158 131l22 -24zM713 1016q-212 0 -374.5 -139t-209.5 -365
q-46 -205 39 -342l860 709q-103 137 -315 137zM498 8q212 0 374 139t211 365q43 201 -39 342l-858 -709q103 -137 312 -137z" />
    <glyph glyph-name="uni0218" unicode="&#x218;" horiz-adv-x="1255" 
d="M496 -25q-202 0 -321.5 86.5t-145.5 247.5l32 13q65 -312 443 -312q212 0 349 94.5t171 257.5q27 124 -39 200t-252 122l-180 45q-200 51 -274.5 133.5t-45.5 220.5q36 171 182 273t369 102q184 0 296 -70.5t137 -199.5l-35 -14q-52 249 -406 249q-207 0 -339 -88.5
t-167 -251.5q-26 -123 39 -196t260 -123l187 -47q195 -50 264.5 -135t40.5 -220q-37 -179 -188.5 -283t-376.5 -104zM438 -207h37l-160 -338h-30z" />
    <glyph glyph-name="uni0219" unicode="&#x219;" horiz-adv-x="1005" 
d="M367 -25q-149 0 -248 56.5t-129 154.5l33 17q31 -92 122 -143.5t228 -51.5q159 0 259 68.5t124 181.5q19 85 -25.5 136t-171.5 83l-209 53q-122 30 -168.5 90.5t-25.5 155.5q28 128 140 200.5t286 72.5q133 0 218 -45t111 -130l-30 -16q-56 158 -306 158q-161 0 -259 -63
t-123 -179q-19 -86 24 -135.5t168 -81.5l211 -53q126 -31 172 -92t25 -154q-27 -129 -139 -206t-287 -77zM297 -207h37l-160 -338h-31z" />
    <glyph glyph-name="uni021A" unicode="&#x21a;" horiz-adv-x="1241" 
d="M748 1399h-541l6 35h1118l-6 -35h-541l-297 -1399h-36zM395 -207h37l-160 -338h-30z" />
    <glyph glyph-name="uni021B" unicode="&#x21b;" horiz-adv-x="780" 
d="M350 991h-239l8 33h239l66 311h35l-66 -311h371l-8 -33h-371l-162 -770q-22 -96 17 -142t139 -46h178l-6 -33h-178q-116 0 -162.5 53.5t-22.5 167.5zM264 -207h29l-154 -338h-28z" />
    <glyph glyph-name="uni0237" unicode="&#x237;" horiz-adv-x="448" 
d="M-295 -377h90q85 0 142.5 49.5t76.5 139.5l258 1212h35l-258 -1212q-23 -108 -90.5 -165t-169.5 -57h-90z" />
    <glyph glyph-name="circumflex" unicode="&#x2c6;" horiz-adv-x="1269" 
d="M999 1198l-200 291l-324 -291h-41l352 318h37l217 -318h-41z" />
    <glyph glyph-name="caron" unicode="&#x2c7;" horiz-adv-x="1269" 
d="M1108 1516l-352 -318h-37l-217 318h41l200 -291l324 291h41z" />
    <glyph glyph-name="breve" unicode="&#x2d8;" horiz-adv-x="1269" 
d="M741 1217q-131 0 -181.5 59t-24.5 180v2h34q-23 -109 19.5 -159t159.5 -50t181 50t87 159h35v-2q-52 -239 -310 -239z" />
    <glyph glyph-name="dotaccent" unicode="&#x2d9;" horiz-adv-x="1269" 
d="M764 1321q-19 0 -28.5 12t-6.5 31q5 19 19.5 31t33.5 12t28 -12t5 -31q-3 -19 -17.5 -31t-33.5 -12z" />
    <glyph glyph-name="ring" unicode="&#x2da;" horiz-adv-x="1269" 
d="M739 1208q-90 0 -137.5 58t-28.5 145t90.5 145t161.5 58t137.5 -58t28.5 -145t-90.5 -145t-161.5 -58zM745 1241q78 0 137 47.5t74 122.5q15 76 -22.5 123t-114.5 47q-78 0 -137 -47.5t-74 -122.5q-15 -76 22.5 -123t114.5 -47z" />
    <glyph glyph-name="ogonek" unicode="&#x2db;" horiz-adv-x="1269" 
d="M453 -434h-7q-119 0 -168.5 44.5t-31.5 127.5q36 160 272 274l27 -12q-234 -120 -264 -262q-14 -71 28 -105t144 -34h6z" />
    <glyph glyph-name="tilde" unicode="&#x2dc;" horiz-adv-x="1269" 
d="M899 1257q-78 0 -147 89q-29 39 -55 55t-62 16q-48 0 -86 -39.5t-53 -107.5h-33q18 81 68 129.5t110 48.5q77 0 145 -88q32 -41 58 -56.5t61 -15.5q48 0 86 40.5t53 109.5h33q-18 -83 -68 -132t-110 -49z" />
    <glyph glyph-name="hungarumlaut" unicode="&#x2dd;" horiz-adv-x="1269" 
d="M864 1516h41l-327 -318h-41zM1204 1516h41l-327 -318h-41z" />
    <glyph glyph-name="gravecomb" unicode="&#x300;" 
d="M-524 1198l-195 318h45l191 -318h-41z" />
    <glyph glyph-name="acutecomb" unicode="&#x301;" 
d="M-254 1516h45l-330 -318h-41z" />
    <glyph glyph-name="uni0302" unicode="&#x302;" 
d="M-270 1198l-201 291l-324 -291h-41l353 318h37l217 -318h-41z" />
    <glyph glyph-name="tildecomb" unicode="&#x303;" 
d="M-371 1257q-78 0 -147 89q-29 39 -55 55t-62 16q-48 0 -86 -39.5t-53 -107.5h-33q18 81 68 129.5t110 48.5q78 0 146 -88q32 -41 57.5 -56.5t60.5 -15.5q48 0 86.5 40.5t53.5 109.5h32q-18 -83 -68 -132t-110 -49z" />
    <glyph glyph-name="uni0304" unicode="&#x304;" 
d="M-797 1337h586l-6 -34h-586z" />
    <glyph glyph-name="uni0306" unicode="&#x306;" 
d="M-528 1217q-132 0 -182.5 59.5t-24.5 179.5v2h35q-23 -109 19 -159t159 -50t181 50t87 159h35v-2q-26 -121 -102 -180t-207 -59z" />
    <glyph glyph-name="uni0307" unicode="&#x307;" 
d="M-506 1321q-19 0 -28.5 12t-6.5 31q4 19 19.5 31t34.5 12t28 -12t4 -31q-3 -19 -17.5 -31t-33.5 -12z" />
    <glyph glyph-name="uni0308" unicode="&#x308;" 
d="M-715 1321q-19 0 -28.5 12t-6.5 31q4 19 19.5 31t34.5 12t28 -12t4 -31q-3 -19 -17.5 -31t-33.5 -12zM-297 1321q-19 0 -28.5 12t-6.5 31q5 19 19.5 31t33.5 12t28 -12t5 -31q-3 -19 -17.5 -31t-33.5 -12z" />
    <glyph glyph-name="uni030A" unicode="&#x30a;" 
d="M-530 1208q-90 0 -137.5 58t-28.5 145t90.5 145t161.5 58t137 -58t28 -145t-90 -145t-161 -58zM-524 1241q78 0 137 47.5t74 122.5t-23 122.5t-115 47.5q-78 0 -137 -47.5t-74 -122.5t22.5 -122.5t115.5 -47.5z" />
    <glyph glyph-name="uni030B" unicode="&#x30b;" 
d="M-406 1516h41l-327 -318h-41zM-66 1516h41l-327 -318h-41z" />
    <glyph glyph-name="uni030C" unicode="&#x30c;" 
d="M-162 1516l-352 -318h-37l-217 318h41l201 -291l323 291h41z" />
    <glyph glyph-name="uni0312" unicode="&#x312;" 
 />
    <glyph glyph-name="uni0315" unicode="&#x315;" 
d="M-479 1536h37l-88 -383h-31z" />
    <glyph glyph-name="uni0326" unicode="&#x326;" 
d="M-850 -207h37l-160 -338h-31z" />
    <glyph glyph-name="uni0327" unicode="&#x327;" 
d="M-784 6h34l-219 -405h-35z" />
    <glyph glyph-name="uni0328" unicode="&#x328;" 
d="M-817 -434h-6q-119 0 -169 44.5t-32 127.5q36 160 272 274l27 -12q-234 -120 -264 -262q-14 -72 22.5 -105.5t137.5 -33.5h18z" />
    <glyph glyph-name="uni060C" unicode="&#x60c;" horiz-adv-x="364" 
d="M293 -6h-37l-16 528h30z" />
    <glyph glyph-name="uni0615" unicode="&#x615;" 
d="M545 1485l24 -115h-307l-6 31h49l-63 299h30l37 -176q50 80 109 80q104 0 127 -119zM532 1401l-20 94q-16 78 -88 78q-23 0 -51.5 -22.5t-53.5 -59.5l19 -90h194z" />
    <glyph glyph-name="uni061B" unicode="&#x61b;" horiz-adv-x="385" 
d="M233 698h-36l-17 529h31zM342 84q19 0 33.5 -12t17.5 -31q4 -19 -5 -31t-28 -12t-33.5 12t-19.5 31q-3 19 6.5 31t28.5 12z" />
    <glyph glyph-name="uni061F" unicode="&#x61f;" horiz-adv-x="915" 
d="M575 516l64 -147h-37l-63 147q-37 88 -76.5 130.5t-147.5 109.5l-137 84q-230 140 -301 311q-60 143 -0.5 225t215.5 82q142 0 285 -71.5t258 -202.5l-25 -17q-105 122 -239.5 189t-264.5 67q-136 0 -191.5 -72t-0.5 -200q62 -151 258 -272l137 -84q130 -79 177.5 -129
t88.5 -150zM776 0q-19 0 -36 12t-23 31q-9 19 -3 31t25 12t37 -12t27 -31q6 -19 -1 -31t-26 -12z" />
    <glyph glyph-name="uni0621" unicode="&#x621;" horiz-adv-x="1030" 
d="M1032 31l6 -31h-784l-6 29h274q-108 43 -188 133.5t-103 199.5l-24 115q-32 149 50 255t230 106q94 0 186 -45t158 -123q75 -88 97 -193h-31q-22 100 -86 176q-63 74 -144.5 114t-170.5 40q-135 0 -211 -96t-47 -234l24 -115q29 -136 150.5 -233.5t257.5 -97.5h362z" />
    <glyph glyph-name="uni0622" unicode="&#x622;" horiz-adv-x="440" 
d="M-207 1616l-29 31l89 79q11 11 26 -4q26 -26 78 -45.5t100 -19.5q33 0 82 18t80 39l29 -31q-32 -26 -87 -45.5t-95 -19.5q-99 0 -183 59q-16 6 -24 -2zM356 0l-303 1434h31l303 -1434h-31z" />
    <glyph glyph-name="uni0623" unicode="&#x623;" horiz-adv-x="399" 
d="M162 1583l6 -27h-297l-6 27h72q-69 48 -84 117q-15 68 19 111.5t93 43.5q61 0 113 -45t63 -98h-28q-9 44 -52.5 79.5t-89.5 35.5q-51 0 -75.5 -35t-12.5 -92q11 -48 51 -82.5t89 -34.5h139zM334 14l-301 1420h30l302 -1420h-31z" />
    <glyph glyph-name="uni0624" unicode="&#x624;" horiz-adv-x="1060" 
d="M698 1098l7 -27h-297l-7 27h72q-70 51 -84 116q-13 69 20.5 112.5t92.5 43.5q61 0 113 -45t63 -98h-29q-9 44 -52 79t-89 35q-51 0 -75.5 -35t-12.5 -92q11 -48 50.5 -82t88.5 -34h139zM858 901l205 -969q39 -179 -55 -290q-69 -83 -187 -115.5t-289 -32.5l-6 33
q3 -1 36 -2t88.5 3.5t114.5 16.5t119.5 42.5t98.5 74.5q87 103 49 270l-14 68h-332q-181 0 -323 129t-183 317q-26 127 3 230.5t111 164t202 60.5h362zM680 31h332l-178 837h-332q-111 0 -186.5 -56t-102 -152t-2.5 -214q37 -175 169.5 -295t299.5 -120z" />
    <glyph glyph-name="uni0625" unicode="&#x625;" horiz-adv-x="399" 
d="M334 14l-299 1405h31l299 -1405h-31zM592 -436l4 -27h-297l-4 27h72q-73 50 -84 117q-15 69 18 112t92 43q61 0 113 -45t63 -98h-28q-9 44 -52.5 79t-89.5 35q-51 0 -74.5 -34.5t-11.5 -91.5q9 -48 50 -82.5t90 -34.5h139z" />
    <glyph glyph-name="uni0626" unicode="&#x626;" horiz-adv-x="1918" 
d="M1737 901l190 -897h-31l-184 866h-407q-78 0 -122.5 -58.5t-27.5 -137.5l205 -963q7 -35 -13.5 -59.5t-54.5 -24.5h-504q-117 0 -229.5 58t-192 158t-104.5 218l-51 246h31l51 -246q35 -167 178.5 -285t310.5 -118h504q21 0 33 15t6 38l-205 965q-20 93 32.5 159
t145.5 66h439zM350 471l4 -27h-297l-4 27h72q-72 50 -86 117q-13 69 20.5 112t92.5 43q61 0 113 -45t63 -98h-29q-9 44 -52 79.5t-89 35.5q-51 0 -75 -35t-13 -92q11 -48 51.5 -82.5t89.5 -34.5h139z" />
    <glyph glyph-name="uni0627" unicode="&#x627;" horiz-adv-x="440" 
d="M356 0l-303 1434h31l303 -1434h-31z" />
    <glyph glyph-name="uni0628" unicode="&#x628;" horiz-adv-x="1667" 
d="M1468 881l174 -815q4 -27 -13 -46.5t-44 -19.5h-977q-136 0 -255 97.5t-148 232.5l-68 323h35l68 -323q26 -125 131 -212t231 -87h977q14 0 23 10t6 25l-174 815h34zM1022 -315q-3 19 7.5 32t27.5 13q21 0 38.5 -13.5t20.5 -31.5q4 -20 -7.5 -33.5t-31.5 -13.5
q-18 0 -34.5 13.5t-20.5 33.5z" />
    <glyph glyph-name="uni0629" unicode="&#x629;" horiz-adv-x="985" 
d="M358 1159q20 0 38 -13t22 -32q4 -20 -7.5 -33.5t-31.5 -13.5q-18 0 -34.5 13.5t-20.5 33.5q-4 18 6 31.5t28 13.5zM543 1159q20 0 37 -13t22 -32q4 -20 -7.5 -33.5t-31.5 -13.5q-18 0 -34.5 13.5t-20.5 33.5q-4 18 6.5 31.5t28.5 13.5zM84 901h391q161 0 297 -114
t170 -277l27 -119q34 -164 -50.5 -277.5t-252.5 -113.5q-171 0 -301.5 97.5t-165.5 258.5zM659 31q156 0 234 103t45 255l-27 121q-31 151 -156 255.5t-274 104.5h-360l108 -505q23 -112 93.5 -190t156.5 -111t180 -33z" />
    <glyph glyph-name="uni062A" unicode="&#x62a;" horiz-adv-x="1667" 
d="M659 948q20 0 38 -13t22 -32q3 -20 -8 -33.5t-31 -13.5q-18 0 -35 13.5t-20 33.5q-4 18 6 31.5t28 13.5zM844 948q20 0 37 -13t22 -32q3 -20 -8 -33.5t-31 -13.5q-18 0 -35 13.5t-20 33.5q-4 18 6.5 31.5t28.5 13.5zM1468 881l174 -815q4 -27 -13 -46.5t-44 -19.5h-977
q-136 0 -255 97.5t-148 232.5l-68 323h35l68 -323q26 -125 131 -212t231 -87h977q14 0 23 10t6 25l-174 815h34z" />
    <glyph glyph-name="uni062B" unicode="&#x62b;" horiz-adv-x="1646" 
d="M723 1116q20 0 37 -13t20 -32q4 -20 -7.5 -33.5t-31.5 -13.5q-18 0 -34.5 13.5t-20.5 33.5q-3 18 8 31.5t29 13.5zM666 948q20 0 37 -13t22 -32q3 -20 -8 -33.5t-31 -13.5q-18 0 -35 13.5t-20 33.5q-4 18 6.5 31.5t28.5 13.5zM850 948q20 0 37 -13t22 -32q3 -20 -8 -33.5
t-31 -13.5q-18 0 -35 13.5t-20 33.5q-4 18 6.5 31.5t28.5 13.5zM1468 881l174 -815q4 -27 -13 -46.5t-44 -19.5h-977q-136 0 -255 97.5t-148 232.5l-68 323h35l68 -323q26 -125 131 -212t231 -87h977q14 0 23 10t6 25l-174 815h34z" />
    <glyph glyph-name="uni062C" unicode="&#x62c;" horiz-adv-x="1550" 
d="M582 0q-116 0 -179 -80.5t-38 -195.5q25 -116 122.5 -196.5t212.5 -80.5h441l6 -31h-440q-127 0 -236 90t-137 218q-28 127 42.5 217t198.5 90h818q-57 30 -99 83.5t-55 116.5l-31 150q-56 261 -239 383q-69 46 -156 71.5t-157 31t-145.5 0.5t-108 -10.5t-58.5 -11.5
l-4 -1l-12 28q15 4 47.5 10.5t110 13t154 2.5t172 -31.5t171.5 -78.5q197 -132 256 -407l31 -150q19 -83 86 -141.5t145 -58.5h15l6 -31h-940zM700 -244q20 0 37.5 -13t20.5 -32q4 -20 -7.5 -33.5t-31.5 -13.5q-18 0 -34.5 13.5t-20.5 33.5q-3 19 8 32t28 13z" />
    <glyph glyph-name="uni062D" unicode="&#x62d;" horiz-adv-x="1550" 
d="M582 0q-116 0 -179 -80.5t-38 -195.5q25 -116 122.5 -196.5t212.5 -80.5h441l6 -31h-440q-127 0 -236 90t-137 218q-28 127 42.5 217t198.5 90h818q-57 30 -99 83.5t-55 116.5l-31 150q-56 261 -239 383q-69 46 -156 71.5t-157 31t-145.5 0.5t-108 -10.5t-58.5 -11.5
l-4 -1l-12 28q15 4 47.5 10.5t110 13t154 2.5t172 -31.5t171.5 -78.5q197 -132 256 -407l31 -150q19 -83 86 -141.5t145 -58.5h15l6 -31h-940z" />
    <glyph glyph-name="uni062E" unicode="&#x62e;" horiz-adv-x="1550" 
d="M596 1171q20 0 37 -13t20 -32q4 -20 -7.5 -33.5t-31.5 -13.5q-18 0 -34.5 13.5t-20.5 33.5q-3 18 8 31.5t29 13.5zM582 0q-116 0 -179 -80.5t-38 -195.5q25 -116 122.5 -196.5t212.5 -80.5h441l6 -31h-440q-127 0 -236 90t-137 218q-28 127 42.5 217t198.5 90h818
q-57 30 -99 83.5t-55 116.5l-31 150q-56 261 -239 383q-69 46 -156 71.5t-157 31t-145.5 0.5t-108 -10.5t-58.5 -11.5l-4 -1l-12 28q15 4 47.5 10.5t110 13t154 2.5t172 -31.5t171.5 -78.5q197 -132 256 -407l31 -150q19 -83 86 -141.5t145 -58.5h15l6 -31h-940z" />
    <glyph glyph-name="uni062F" unicode="&#x62f;" horiz-adv-x="1005" 
d="M733 0h-444l-6 31h444q110 0 162 86q51 85 2 196l-262 578l28 8l261 -580q56 -125 -3 -221q-26 -46 -74 -72t-108 -26z" />
    <glyph glyph-name="uni0630" unicode="&#x630;" horiz-adv-x="1005" 
d="M541 1171q20 0 37 -13t20 -32q4 -20 -7.5 -33.5t-31.5 -13.5q-18 0 -34.5 13.5t-20.5 33.5q-3 18 8 31.5t29 13.5zM733 0h-444l-6 31h444q110 0 162 86q51 85 2 196l-262 578l28 8l261 -580q56 -125 -3 -221q-26 -46 -74 -72t-108 -26z" />
    <glyph glyph-name="uni0631" unicode="&#x631;" horiz-adv-x="532" 
d="M528 -35q12 -58 13 -108.5t-8.5 -90t-26 -72.5t-40.5 -57t-49 -43t-55.5 -32t-56 -21t-53.5 -14l-14 31q330 72 260 407l-195 920h31z" />
    <glyph glyph-name="uni0632" unicode="&#x632;" horiz-adv-x="557" 
d="M248 1171q20 0 37 -13t20 -32q4 -20 -7.5 -33.5t-31.5 -13.5q-18 0 -34.5 13.5t-20.5 33.5q-3 18 8 31.5t29 13.5zM528 -35q12 -58 13 -108.5t-8.5 -90t-26 -72.5t-40.5 -57t-49 -43t-55.5 -32t-56 -21t-53.5 -14l-14 31q330 72 260 407l-195 920h31z" />
    <glyph glyph-name="uni0633" unicode="&#x633;" horiz-adv-x="2394" 
d="M2083 0q-97 0 -187.5 58.5t-136.5 150.5q-11 -94 -76 -151t-167 -58q-85 0 -164.5 45.5t-134.5 122.5l100 -475q8 -34 -8.5 -57t-48.5 -23h-484q-173 0 -322 122t-184 292l-51 239h33l51 -239q34 -160 170 -272.5t297 -112.5h483q21 0 32 14t7 37l-215 1009h25l88 -405
q23 -112 116.5 -189t204.5 -77q113 0 175.5 79.5t39.5 190.5l-86 401h31l88 -405q23 -112 116 -189t202 -77q113 0 173.5 79.5t37.5 190.5l-125 588h30l127 -592q21 -133 -46.5 -215t-190.5 -82z" />
    <glyph glyph-name="uni0634" unicode="&#x634;" horiz-adv-x="2373" 
d="M1526 1141q20 0 37 -13t22 -32q3 -20 -8 -33.5t-31 -13.5q-18 0 -35 13.5t-20 33.5q-4 18 6.5 31.5t28.5 13.5zM1452 948q20 0 37 -13t22 -32q3 -20 -7.5 -33.5t-30.5 -13.5q-18 0 -35.5 14t-20.5 33q-4 18 6.5 31.5t28.5 13.5zM1686 948q20 0 37 -13t22 -32
q3 -20 -8 -33.5t-31 -13.5q-18 0 -35 13.5t-20 33.5q-4 18 6.5 31.5t28.5 13.5zM2083 0q-97 0 -187.5 58.5t-136.5 150.5q-11 -94 -76 -151t-167 -58q-85 0 -164.5 45.5t-134.5 122.5l100 -475q8 -34 -8.5 -57t-48.5 -23h-484q-173 0 -322 122t-184 292l-51 239h33l51 -239
q34 -160 170 -272.5t297 -112.5h483q21 0 32 14t7 37l-215 1009h25l88 -405q23 -112 116.5 -189t204.5 -77q113 0 175.5 79.5t39.5 190.5l-86 401h31l88 -405q23 -112 116 -189t202 -77q113 0 173.5 79.5t37.5 190.5l-125 588h30l127 -592q21 -133 -46.5 -215t-190.5 -82z
" />
    <glyph glyph-name="uni0635" unicode="&#x635;" horiz-adv-x="2516" 
d="M2302 686q79 -102 104 -219l86 -401q6 -30 -9.5 -48t-41.5 -18h-1138l69 -328q8 -32 -10.5 -56t-52.5 -24h-510q-118 0 -231 58t-193 158t-105 217l-53 251h29l53 -251q23 -109 98 -202t180.5 -147.5t215.5 -54.5h510q21 0 33 15t7 36l-258 1215h29l47 -215l598 194
q137 44 290 -7t253 -173zM2462 66l-86 401q-26 118 -99 205q-88 114 -229 159.5t-272 8.5l-609 -201l129 -608h1139q14 0 22 10t5 25z" />
    <glyph glyph-name="uni0636" unicode="&#x636;" horiz-adv-x="2496" 
d="M1675 1171q20 0 37.5 -13t20.5 -32q4 -20 -7.5 -33.5t-31.5 -13.5q-18 0 -35 13.5t-21 33.5q-3 18 8 31.5t29 13.5zM2302 686q79 -102 104 -219l86 -401q6 -30 -9.5 -48t-41.5 -18h-1138l69 -328q8 -32 -10.5 -56t-52.5 -24h-510q-118 0 -231 58t-193 158t-105 217
l-53 251h29l53 -251q23 -109 98 -202t180.5 -147.5t215.5 -54.5h510q21 0 33 15t7 36l-258 1215h29l47 -215l598 194q137 44 290 -7t253 -173zM2462 66l-86 401q-26 118 -99 205q-88 114 -229 159.5t-272 8.5l-609 -201l129 -608h1139q14 0 22 10t5 25z" />
    <glyph glyph-name="uni0637" unicode="&#x637;" horiz-adv-x="1714" 
d="M1495 696q84 -104 107 -221l86 -407q6 -28 -9 -48t-43 -20h-1347l-6 31h166l-295 1388h30l158 -737l606 197q138 44 292.5 -7.5t254.5 -175.5zM1657 68l-86 407q-25 116 -98 207q-94 116 -237.5 163.5t-272.5 4.5l-615 -201l131 -618h1151q14 0 22.5 11t4.5 26z" />
    <glyph glyph-name="uni0638" unicode="&#x638;" horiz-adv-x="1632" 
d="M1495 696q84 -104 107 -221l86 -407q6 -28 -9 -48t-43 -20h-1347l-6 31h166l-295 1388h30l158 -737l606 197q138 44 292.5 -7.5t254.5 -175.5zM758 1171q20 0 37 -13t20 -32q4 -20 -7.5 -33.5t-31.5 -13.5q-18 0 -34.5 13.5t-20.5 33.5q-3 18 8 31.5t29 13.5zM1657 68
l-86 407q-25 116 -98 207q-94 116 -237.5 163.5t-272.5 4.5l-615 -201l131 -618h1151q14 0 22.5 11t4.5 26z" />
    <glyph glyph-name="uni0639" unicode="&#x639;" horiz-adv-x="1146" 
d="M1116 31l6 -31h-557q-109 0 -168.5 -76.5t-36.5 -185.5q22 -106 116 -183t202 -77h416l4 -27h-416q-120 0 -222.5 84t-127.5 203q-26 121 40.5 206t186.5 85h47q-108 43 -188 133.5t-103 199.5l-39 179q-31 149 52 254.5t231 105.5q151 0 278.5 -104.5t159.5 -255.5h-30
q-29 140 -146 236.5t-256 96.5q-136 0 -213.5 -98t-48.5 -235l39 -179q29 -136 147.5 -233.5t253.5 -97.5h373z" />
    <glyph glyph-name="uni063A" unicode="&#x63a;" horiz-adv-x="1126" 
d="M471 1171q20 0 37 -13t20 -32q4 -20 -7.5 -33.5t-31.5 -13.5q-18 0 -34.5 13.5t-20.5 33.5q-3 18 8 31.5t29 13.5zM1116 31l6 -31h-557q-109 0 -168.5 -76.5t-36.5 -185.5q22 -106 116 -183t202 -77h416l4 -27h-416q-120 0 -222.5 84t-127.5 203q-26 121 40.5 206
t186.5 85h47q-108 43 -188 133.5t-103 199.5l-39 179q-31 149 52 254.5t231 105.5q151 0 278.5 -104.5t159.5 -255.5h-30q-29 140 -146 236.5t-256 96.5q-136 0 -213.5 -98t-48.5 -235l39 -179q29 -136 147.5 -233.5t253.5 -97.5h373z" />
    <glyph glyph-name="uni0640" unicode="&#x640;" horiz-adv-x="352" 
d="M125 31h393l6 -31h-393z" />
    <glyph glyph-name="uni0641" unicode="&#x641;" horiz-adv-x="1970" 
d="M1460 1182q20 0 37.5 -13t20.5 -32q4 -20 -7.5 -33.5t-31.5 -13.5q-18 0 -35 13.5t-21 33.5q-3 18 8 31.5t29 13.5zM1767 901l172 -807q8 -38 -14.5 -66t-60.5 -28h-1139q-186 0 -346.5 133t-200.5 320l-55 262h33l57 -266q37 -172 185.5 -295t320.5 -123h737
q-136 50 -240 166.5t-133 253.5q-26 123 13 226.5t130 163.5t212 60h329zM1841 31q32 0 50.5 23t11.5 55l-162 761h-297q-174 0 -272 -121.5t-60 -297.5q22 -106 101 -204.5t181 -157t191 -58.5h256z" />
    <glyph glyph-name="uni0642" unicode="&#x642;" horiz-adv-x="1325" 
d="M580 1182q20 0 37 -13t20 -32q4 -20 -7.5 -33.5t-31.5 -13.5q-18 0 -34.5 13.5t-20.5 33.5q-3 18 8 31.5t29 13.5zM772 1182q20 0 37 -13t20 -32q4 -20 -7 -33.5t-31 -13.5q-18 0 -35 13.5t-21 33.5q-3 18 8 31.5t29 13.5zM741 901h381l262 -1231q7 -35 -12 -60.5
t-53 -25.5h-514q-120 0 -234.5 59t-195 160.5t-105.5 221.5l-53 249h33l53 -249q23 -111 97.5 -205t180 -148.5t216.5 -54.5h514q23 0 34 14t7 39l-72 330h-348q-156 0 -290.5 110.5t-168.5 268.5l-31 145q-32 155 56 266t243 111zM926 31h348l-178 841h-348
q-144 0 -225 -102.5t-50 -245.5l31 -145q31 -145 154 -246.5t268 -101.5z" />
    <glyph glyph-name="uni0643" unicode="&#x643;" horiz-adv-x="1609" 
d="M1255 1419l285 -1341q8 -31 -10.5 -54.5t-50.5 -23.5h-783q-175 0 -324 123.5t-186 298.5l-51 240h27l51 -240q34 -162 174.5 -276.5t302.5 -114.5h783q21 0 32.5 13.5t7.5 33.5l-284 1341h26zM893 829l6 -26h-297l-6 26h72q-70 51 -84 117q-15 68 19 112t93 44
q61 0 113 -45t63 -99h-28q-9 44 -52.5 79.5t-89.5 35.5q-51 0 -75.5 -35t-12.5 -92q11 -48 51 -82.5t89 -34.5h139z" />
    <glyph glyph-name="uni0644" unicode="&#x644;" horiz-adv-x="1351" 
d="M1303 -403h-508q-118 0 -230.5 58t-192 158t-104.5 218l-53 250h31l53 -250q35 -167 178.5 -285.5t310.5 -118.5h508q22 0 33.5 14.5t7.5 36.5l-370 1741h30l371 -1741q6 -34 -12.5 -57.5t-52.5 -23.5z" />
    <glyph glyph-name="uni0645" unicode="&#x645;" horiz-adv-x="1214" 
d="M813 0q-122 0 -227.5 53.5t-169.5 139.5l28 -127q16 -63 12.5 -116t-13.5 -94t-34 -74.5t-48.5 -57.5t-58 -42.5t-62 -29.5t-60.5 -19l-12 31q312 81 246 402l-178 835h387q161 0 299 -114t172 -277l26 -119q34 -161 -56 -276t-251 -115zM807 31q149 0 232 104.5
t51 253.5l-27 121q-31 150 -157.5 255t-276.5 105h-357l109 -505q23 -112 92.5 -190t154.5 -111t179 -33z" />
    <glyph glyph-name="uni0646" unicode="&#x646;" horiz-adv-x="1323" 
d="M627 934q21 0 38.5 -13.5t20.5 -31.5q4 -20 -7.5 -33.5t-31.5 -13.5q-18 0 -34.5 13.5t-20.5 33.5q-3 19 7.5 32t27.5 13zM1292 -397h-499q-118 0 -230 57.5t-191 156.5t-104 216l-51 243h31l51 -243q23 -108 96.5 -200.5t178 -147t212.5 -54.5h500q21 0 33.5 14.5
t9.5 35.5l-248 1163h31l248 -1163q6 -32 -14 -55t-54 -23z" />
    <glyph glyph-name="uni0647" unicode="&#x647;" horiz-adv-x="985" 
d="M84 901h391q161 0 297 -114t170 -277l27 -119q34 -164 -50.5 -277.5t-252.5 -113.5q-171 0 -301.5 97.5t-165.5 258.5zM659 31q156 0 234 103t45 255l-27 121q-31 151 -156 255.5t-274 104.5h-360l108 -505q23 -112 93.5 -190t156.5 -111t180 -33z" />
    <glyph glyph-name="uni0648" unicode="&#x648;" horiz-adv-x="1060" 
d="M858 901l205 -969q39 -179 -55 -290q-69 -83 -187 -115.5t-289 -32.5l-6 33q3 -1 36 -2t88.5 3.5t114.5 16.5t119.5 42.5t98.5 74.5q87 103 49 270l-14 68h-332q-181 0 -323 129t-183 317q-26 127 3 230.5t111 164t202 60.5h362zM680 31h332l-178 837h-332
q-111 0 -186.5 -56t-102 -152t-2.5 -214q37 -175 169.5 -295t299.5 -120z" />
    <glyph glyph-name="uni0649" unicode="&#x649;" horiz-adv-x="1939" 
d="M1737 901l190 -897h-31l-184 866h-407q-78 0 -122.5 -58.5t-27.5 -137.5l205 -963q7 -35 -13.5 -59.5t-54.5 -24.5h-504q-117 0 -229.5 58t-192 158t-104.5 218l-51 246h31l51 -246q35 -167 178.5 -285t310.5 -118h504q21 0 33 15t6 38l-205 965q-20 93 32.5 159
t145.5 66h439z" />
    <glyph glyph-name="uni064A" unicode="&#x64a;" horiz-adv-x="1939" 
d="M1737 901l190 -897h-31l-184 866h-407q-78 0 -122.5 -58.5t-27.5 -137.5l205 -963q7 -35 -13.5 -59.5t-54.5 -24.5h-504q-117 0 -229.5 58t-192 158t-104.5 218l-51 246h31l51 -246q35 -167 178.5 -285t310.5 -118h504q21 0 33 15t6 38l-205 965q-20 93 32.5 159
t145.5 66h439zM913 -520q21 0 39 -13.5t21 -31.5q4 -20 -7.5 -33.5t-31.5 -13.5q-18 0 -34.5 13.5t-20.5 33.5q-3 19 7 32t27 13zM1112 -520q21 0 38.5 -13.5t20.5 -31.5q4 -20 -7 -33.5t-31 -13.5q-18 0 -35 13.5t-21 33.5q-3 19 7.5 32t27.5 13z" />
    <glyph glyph-name="uni064B" unicode="&#x64b;" 
d="M-174 1614l256 90l16 -33l-254 -90zM-152 1511l254 91l19 -33l-254 -90z" />
    <glyph glyph-name="uni064C" unicode="&#x64c;" 
d="M213 1540q9 -41 -11.5 -70.5t-60.5 -42.5l-196 -65l-6 29q-9 50 -31 77.5t-51 30.5h-7l-6 27h4q82 0 109 -101l6 -26l111 37q-33 14 -56.5 41.5t-29.5 62.5q-10 46 16 79.5t72 33.5t86 -33.5t51 -79.5zM117 1456q35 0 51.5 24t7.5 62q-6 34 -32.5 57t-61.5 23
t-51.5 -22.5t-10.5 -57.5q9 -39 35.5 -62.5t61.5 -23.5z" />
    <glyph glyph-name="uni064D" unicode="&#x64d;" 
d="M244 -354l256 90l16 -33l-252 -90zM266 -457l254 90l19 -32l-254 -90z" />
    <glyph glyph-name="uni064E" unicode="&#x64e;" 
d="M-156 1620l256 90l17 -33l-252 -90z" />
    <glyph glyph-name="uni064F" unicode="&#x64f;" 
d="M0 1675q46 0 86 -33t49 -79q18 -86 -67 -113l-191 -64l-12 23l139 47q-33 12 -60 41.5t-34 65.5q-9 46 17.5 79t72.5 33zM43 1473q37 0 56 26t10 66q-8 36 -38.5 61t-66.5 25t-55.5 -25t-11.5 -61q9 -40 39 -66t67 -26z" />
    <glyph glyph-name="uni0650" unicode="&#x650;" 
d="M354 -799l256 90l17 -32l-252 -90z" />
    <glyph glyph-name="uni0651" unicode="&#x651;" 
d="M186 1665h33l23 -111q17 -76 -11.5 -116.5t-85.5 -40.5q-48 0 -90 49q1 -41 -22.5 -65.5t-57.5 -24.5q-49 0 -86.5 30.5t-50.5 96.5l-14 65h33l14 -65q18 -92 96 -92q71 0 47 114l-22 107h33l22 -105q7 -34 33.5 -52.5t56.5 -18.5q96 0 72 118z" />
    <glyph glyph-name="uni0652" unicode="&#x652;" 
d="M-39 1425q-46 0 -86 34t-49 81q-10 46 16 79.5t72 33.5t86 -33.5t51 -79.5q9 -47 -17.5 -81t-72.5 -34zM-47 1464q31 0 46.5 21.5t8.5 56.5q-6 31 -30.5 51.5t-55.5 20.5t-47 -20.5t-10 -51.5q7 -35 32 -56.5t56 -21.5z" />
    <glyph glyph-name="uni0653" unicode="&#x653;" 
d="M-207 1872l-29 31l89 79q11 11 26 -4q26 -26 78 -45.5t100 -19.5q33 0 82 18t80 39l29 -31q-32 -26 -87 -45.5t-95 -19.5q-99 0 -183 59q-16 6 -24 -2z" />
    <glyph glyph-name="uni0658" unicode="&#x658;" 
 />
    <glyph glyph-name="uni0660" unicode="&#x660;" horiz-adv-x="430" 
d="M315 43q-4 19 5 31t28 12t33.5 -12t19.5 -31q3 -19 -6 -31t-28 -12t-34 12t-18 31z" />
    <glyph glyph-name="uni0661" unicode="&#x661;" horiz-adv-x="364" 
d="M49 1434l303 -1434h-37l-303 1434h37z" />
    <glyph glyph-name="uni0662" unicode="&#x662;" horiz-adv-x="1116" 
d="M801 1434l6 -35h-358q-107 0 -186.5 -57t-112 -152t-9.5 -203l209 -987h-35l-209 987q-25 119 10.5 222t122 164t203.5 61h359z" />
    <glyph glyph-name="uni0663" unicode="&#x663;" horiz-adv-x="1482" 
d="M1034 649q-97 0 -187 58.5t-138 150.5q-11 -95 -75.5 -152t-166.5 -57q-85 0 -164.5 45.5t-134.5 122.5l172 -817h-25l-303 1434h25l102 -488q25 -112 119 -189t205 -77q113 0 175.5 79.5t39.5 190.5l-103 484h31l103 -488q25 -112 117.5 -189t201.5 -77
q113 0 173.5 79.5t37.5 190.5l-102 484h30l103 -488q23 -133 -44.5 -215t-191.5 -82z" />
    <glyph glyph-name="uni0664" unicode="&#x664;" horiz-adv-x="1146" 
d="M999 580l7 -31h-557q-109 0 -168.5 -76.5t-36.5 -185.5q22 -106 115.5 -183t201.5 -77h416l4 -27h-416q-120 0 -222.5 84t-127.5 203q-26 121 40.5 206t186.5 85h47q-107 43 -187 133.5t-103 199.5l-39 179q-31 149 51.5 254.5t230.5 105.5q151 0 279 -104.5t160 -255.5
h-31q-29 140 -145.5 236.5t-255.5 96.5q-136 0 -214 -98t-49 -235l39 -179q29 -136 148 -233.5t254 -97.5h372z" />
    <glyph glyph-name="uni0665" unicode="&#x665;" horiz-adv-x="1425" 
d="M870 -25q-243 0 -434 204.5t-262 537.5q-44 225 -15 389.5t132.5 258t263.5 93.5q243 0 434 -204t262 -537q44 -225 15 -390t-132.5 -258.5t-263.5 -93.5zM862 10q224 0 320.5 194.5t29.5 512.5t-246 512t-403 194t-320.5 -194t-29.5 -512t246 -512.5t403 -194.5z" />
    <glyph glyph-name="uni0666" unicode="&#x666;" horiz-adv-x="1116" 
d="M315 1434h359q117 0 203.5 -61t122 -164t10.5 -222l-209 -987h-35l209 987q23 108 -9 203t-111.5 152t-186.5 57h-359z" />
    <glyph glyph-name="uni0667" unicode="&#x667;" horiz-adv-x="1378" 
d="M1325 1434l-602 -1434h-53l-621 1434h39l606 -1399l592 1399h39z" />
    <glyph glyph-name="uni0668" unicode="&#x668;" horiz-adv-x="1378" 
d="M1479 0h-39l-889 1399l-309 -1399h-39l315 1434h53z" />
    <glyph glyph-name="uni0669" unicode="&#x669;" horiz-adv-x="1116" 
d="M412 1434q161 0 299 -114.5t172 -275.5l94 -446l127 -598h-35l-113 532h-360q-86 0 -167 35t-140.5 91.5t-101 125.5t-56.5 138l-27 122q-34 161 56.5 275.5t251.5 114.5zM954 563l-102 481q-32 149 -159 254t-275 105q-149 0 -232 -105t-51 -254l27 -122
q31 -148 158 -253.5t276 -105.5h358z" />
    <glyph glyph-name="uni066A" unicode="&#x66a;" horiz-adv-x="1611" 
d="M1159 1434h43l-749 -1434h-43zM270 1221q-37 0 -68 25.5t-38 62.5q-9 37 10.5 62.5t56.5 25.5t68.5 -25.5t40.5 -62.5q8 -37 -12.5 -62.5t-57.5 -25.5zM1522 0q-37 0 -68.5 25.5t-38.5 62.5q-8 37 12.5 62.5t57.5 25.5t68 -25.5t38 -62.5q8 -37 -12 -62.5t-57 -25.5z" />
    <glyph glyph-name="uni066B" unicode="&#x66b;" horiz-adv-x="364" 
d="M297 223h37l16 -528h-31z" />
    <glyph glyph-name="uni066C" unicode="&#x66c;" horiz-adv-x="364" 
d="M297 223h37l16 -528h-31z" />
    <glyph glyph-name="uni066D" unicode="&#x66d;" horiz-adv-x="911" 
d="M563 315l283 -292l-27 -23l-276 299l-150 -299l-33 20l156 297l-373 109l4 35l373 -117l-82 367h37l74 -367l323 117l19 -35z" />
    <glyph glyph-name="uni066E" unicode="&#x66e;" horiz-adv-x="1667" 
d="M1468 881l174 -815q4 -27 -13 -46.5t-44 -19.5h-977q-136 0 -255 97.5t-148 232.5l-74 346h35l74 -346q26 -125 131 -212t231 -87h977q14 0 23 10t6 25l-174 815h34z" />
    <glyph glyph-name="uni066F" unicode="&#x66f;" horiz-adv-x="1325" 
d="M741 901q157 0 293 -111t168 -266l182 -854q7 -35 -12 -60.5t-53 -25.5h-514q-120 0 -234.5 59t-195 160.5t-105.5 221.5l-53 249h33l53 -249q23 -111 97.5 -205t180 -148.5t216.5 -54.5h514q23 0 34 14t7 39l-72 330h-348q-156 0 -290.5 110.5t-168.5 268.5l-31 145
q-32 155 56 266t243 111zM926 31h348l-105 493q-31 144 -153.5 246t-267.5 102q-144 0 -225 -102.5t-50 -245.5l31 -145q31 -145 154 -246.5t268 -101.5z" />
    <glyph glyph-name="uni0671" unicode="&#x671;" horiz-adv-x="399" 
d="M336 0l-303 1434h30l304 -1434h-31z" />
    <glyph glyph-name="uni0679" unicode="&#x679;" horiz-adv-x="1667" 
d="M598 1145h49l-63 299h30l37 -176q50 80 109 80q104 0 127 -119l24 -115h-307zM766 1317q-23 0 -51 -22.5t-53 -59.5l18 -90h194l-20 94q-16 78 -88 78zM1642 66q4 -27 -13 -46.5t-44 -19.5h-977q-136 0 -255 97.5t-148 232.5l-74 346h35l74 -346q26 -125 131 -212
t231 -87h977q14 0 23 10t6 25l-174 815h34z" />
    <glyph glyph-name="uni067E" unicode="&#x67e;" horiz-adv-x="1667" 
d="M1468 881l174 -815q4 -27 -13 -46.5t-44 -19.5h-977q-136 0 -255 97.5t-148 232.5l-74 346h35l74 -346q26 -125 131 -212t231 -87h977q14 0 23 10t6 25l-174 815h34zM944 -262q-18 0 -35 13.5t-20 31.5q-4 20 6.5 33.5t28.5 13.5q20 0 37.5 -13.5t21.5 -33.5
q3 -19 -8 -32t-31 -13zM1128 -262q-18 0 -35 13.5t-20 31.5q-4 20 6.5 33.5t28.5 13.5q20 0 37.5 -13.5t21.5 -33.5q3 -19 -8 -32t-31 -13zM1071 -430q-18 0 -34.5 13.5t-20.5 31.5q-3 20 7.5 33.5t27.5 13.5q21 0 38.5 -13.5t20.5 -33.5q4 -19 -7.5 -32t-31.5 -13z" />
    <glyph glyph-name="uni0686" unicode="&#x686;" horiz-adv-x="1550" 
d="M582 0q-116 0 -179 -80.5t-38 -195.5q25 -116 122.5 -196.5t212.5 -80.5h441l6 -31h-440q-127 0 -236 90t-137 218q-28 127 42.5 217t198.5 90h818q-57 30 -99 83.5t-55 116.5l-31 150q-56 261 -239 383q-69 46 -156 71.5t-157 31t-145.5 0.5t-108 -10.5t-58.5 -11.5
l-4 -1l-12 28q15 4 47.5 10.5t110 13t154 2.5t172 -31.5t171.5 -78.5q197 -132 256 -407l31 -150q19 -83 86 -141.5t145 -58.5h15l6 -31h-940zM586 -281q-18 0 -35.5 13.5t-20.5 31.5q-4 20 6.5 34t28.5 14q20 0 38 -14t22 -34q3 -19 -8 -32t-31 -13zM770 -281
q-18 0 -35 13.5t-20 31.5q-4 20 6.5 34t28.5 14q20 0 37.5 -14t21.5 -34q3 -19 -8 -32t-31 -13zM713 -449q-17 0 -34.5 13.5t-21.5 32.5q-3 20 7.5 33.5t27.5 13.5q21 0 39 -13.5t21 -33.5q4 -19 -7.5 -32.5t-31.5 -13.5z" />
    <glyph glyph-name="uni0688" unicode="&#x688;" horiz-adv-x="1005" 
d="M406 1145h49l-64 299h31l37 -176q50 80 108 80q104 0 127 -119l25 -115h-307zM573 1317q-23 0 -51 -22.5t-53 -59.5l18 -90h195l-20 94q-16 78 -89 78zM918 319q56 -125 -3 -221q-26 -46 -74 -72t-108 -26h-444l-6 31h444q110 0 162 86q51 85 2 196l-262 578l28 8z" />
    <glyph glyph-name="uni0691" unicode="&#x691;" horiz-adv-x="532" 
d="M403 1229l25 -115h-307l-6 31h49l-64 299h31l37 -176q50 80 108 80q104 0 127 -119zM391 1145l-20 94q-16 78 -88 78q-23 0 -51.5 -22.5t-53.5 -59.5l19 -90h194zM528 -35q12 -58 13 -108.5t-8.5 -90t-26 -72.5t-40.5 -57t-49 -43t-55.5 -32t-56 -21t-53.5 -14l-14 31
q330 72 260 407l-195 920h31z" />
    <glyph glyph-name="uni0698" unicode="&#x698;" horiz-adv-x="532" 
d="M231 1284q20 0 38 -13t22 -32q4 -20 -7.5 -33.5t-31.5 -13.5q-18 0 -34.5 13.5t-20.5 33.5q-4 18 6 31.5t28 13.5zM176 1116q20 0 37 -13t20 -32q4 -20 -7 -33.5t-31 -13.5q-18 0 -35 13.5t-21 33.5q-3 18 8 31.5t29 13.5zM360 1116q20 0 37.5 -13t20.5 -32
q4 -20 -7.5 -33.5t-31.5 -13.5q-18 0 -34.5 13.5t-20.5 33.5q-3 19 8 32t28 13zM528 -35q12 -58 13 -108.5t-8.5 -90t-26 -72.5t-40.5 -57t-49 -43t-55.5 -32t-56 -21t-53.5 -14l-14 31q330 72 260 407l-195 920h31z" />
    <glyph glyph-name="uni06A1" unicode="&#x6a1;" horiz-adv-x="1970" 
d="M1767 901l172 -807q8 -38 -14.5 -66t-60.5 -28h-1139q-186 0 -346.5 133t-200.5 320l-55 262h33l57 -266q37 -172 185.5 -295t320.5 -123h737q-136 50 -240 166.5t-133 253.5q-26 123 13 226.5t130 163.5t212 60h329zM1841 31q32 0 50.5 23t11.5 55l-162 761h-297
q-174 0 -272 -121.5t-60 -297.5q22 -106 101 -204.5t181 -157t191 -58.5h256z" />
    <glyph glyph-name="uni06A4" unicode="&#x6a4;" horiz-adv-x="1970" 
d="M1378 1296q20 0 38 -13t22 -32q3 -20 -9 -33.5t-32 -13.5q-18 0 -34.5 13.5t-19.5 33.5q-4 18 6.5 31.5t28.5 13.5zM1321 1128q20 0 37 -13t22 -32q4 -20 -7.5 -33.5t-31.5 -13.5q-18 0 -34.5 13.5t-20.5 33.5q-4 18 6.5 31.5t28.5 13.5zM1505 1128q20 0 38 -13t22 -32
q4 -20 -7.5 -33.5t-31.5 -13.5q-18 0 -35 13.5t-21 33.5q-4 18 6.5 31.5t28.5 13.5zM1767 901l172 -807q8 -38 -14.5 -66t-60.5 -28h-1139q-186 0 -346.5 133t-200.5 320l-55 262h33l57 -266q37 -172 185.5 -295t320.5 -123h737q-136 50 -240 166.5t-133 253.5
q-26 123 13 226.5t130 163.5t212 60h329zM1841 31q32 0 50.5 23t11.5 55l-162 761h-297q-174 0 -272 -121.5t-60 -297.5q22 -106 101 -204.5t181 -157t191 -58.5h256z" />
    <glyph glyph-name="uni06A9" unicode="&#x6a9;" horiz-adv-x="1945" 
d="M1839 449l94 -449h-1284q-136 0 -255 97.5t-148 232.5l-74 346h35l74 -346q26 -125 131 -212t231 -87h1253l-88 418q-37 172 -186.5 294.5t-321.5 122.5h-555l-22 39l299 588l29 -18l-299 -580h546q184 0 342.5 -130.5t198.5 -315.5z" />
    <glyph glyph-name="uni06AF" unicode="&#x6af;" horiz-adv-x="1945" 
d="M903 1522l-280 -564l-27 17l285 563zM1839 449l94 -449h-1284q-136 0 -255 97.5t-148 232.5l-74 346h35l74 -346q26 -125 131 -212t231 -87h1253l-88 418q-37 172 -186.5 294.5t-321.5 122.5h-555l-22 39l299 588l29 -18l-299 -580h546q184 0 342.5 -130.5t198.5 -315.5z
" />
    <glyph glyph-name="uni06BA" unicode="&#x6ba;" horiz-adv-x="1302" 
d="M1292 -397h-499q-118 0 -230 57.5t-191 156.5t-104 216l-51 243h31l51 -243q23 -108 96.5 -200.5t178 -147t212.5 -54.5h500q21 0 33.5 14.5t9.5 35.5l-248 1163h31l248 -1163q6 -32 -14 -55t-54 -23z" />
    <glyph glyph-name="uni06BE" unicode="&#x6be;" horiz-adv-x="1400" 
d="M770 967q201 -66 350 -230.5t193 -371.5l59 -281q6 -35 -11 -59.5t-50 -24.5h-1180l-6 31h352q-107 42 -187 132.5t-104 203.5q-31 151 52.5 257.5t232.5 106.5q152 0 281.5 -106.5t160.5 -257.5l66 -306q5 -19 -6 -30h332q21 0 32 15.5t6 37.5l-59 281
q-41 195 -184.5 353.5t-335.5 219.5q-211 68 -383 68l-2 28q192 -6 391 -67zM477 700q-138 0 -215.5 -97t-48.5 -236q31 -141 149 -238.5t256 -97.5h306q13 0 21 8.5t5 21.5l-65 306q-29 138 -149.5 235.5t-258.5 97.5z" />
    <glyph glyph-name="uni06C1" unicode="&#x6c1;" horiz-adv-x="985" 
d="M84 901h391q161 0 297 -114t170 -277l27 -119q34 -164 -50.5 -277.5t-252.5 -113.5q-171 0 -301.5 97.5t-165.5 258.5zM659 31q156 0 234 103t45 255l-27 121q-31 151 -156 255.5t-274 104.5h-360l108 -505q23 -112 93.5 -190t156.5 -111t180 -33z" />
    <glyph glyph-name="uni06C2" unicode="&#x6c2;" horiz-adv-x="985" 
d="M498 1051l6 -27h-297l-6 27h71q-70 51 -84 116q-15 68 19.5 112t93.5 44q61 0 113 -45t63 -98h-28q-9 44 -52.5 79t-89.5 35q-51 0 -75.5 -35t-12.5 -92q11 -48 50.5 -82t88.5 -34h140zM84 901h391q161 0 297 -114t170 -277l27 -119q34 -164 -50.5 -277.5t-252.5 -113.5
q-171 0 -301.5 97.5t-165.5 258.5zM659 31q156 0 234 103t45 255l-27 121q-31 151 -156 255.5t-274 104.5h-360l108 -505q23 -112 93.5 -190t156.5 -111t180 -33z" />
    <glyph glyph-name="uni06C3" unicode="&#x6c3;" horiz-adv-x="985" 
d="M358 1159q20 0 38 -13t22 -32q4 -20 -7.5 -33.5t-31.5 -13.5q-18 0 -34.5 13.5t-20.5 33.5q-4 18 6 31.5t28 13.5zM543 1159q20 0 37 -13t22 -32q4 -20 -7.5 -33.5t-31.5 -13.5q-18 0 -34.5 13.5t-20.5 33.5q-4 18 6.5 31.5t28.5 13.5zM84 901h391q161 0 297 -114
t170 -277l27 -119q34 -164 -50.5 -277.5t-252.5 -113.5q-171 0 -301.5 97.5t-165.5 258.5zM659 31q156 0 234 103t45 255l-27 121q-31 151 -156 255.5t-274 104.5h-360l108 -505q23 -112 93.5 -190t156.5 -111t180 -33z" />
    <glyph glyph-name="uni06CC" unicode="&#x6cc;" horiz-adv-x="1939" 
d="M1737 901l190 -897h-31l-184 866h-407q-78 0 -122.5 -58.5t-27.5 -137.5l205 -963q7 -35 -13.5 -59.5t-54.5 -24.5h-504q-117 0 -229.5 58t-192 158t-104.5 218l-51 246h31l51 -246q35 -167 178.5 -285t310.5 -118h504q21 0 33 15t6 38l-205 965q-20 93 32.5 159
t145.5 66h439z" />
    <glyph glyph-name="uni06D2" unicode="&#x6d2;" horiz-adv-x="1179" 
d="M575 0q-122 0 -223 98q-99 99 -96 221l8 351l33 -8l-10 -349q-3 -106 84 -196q89 -86 198 -86h777l6 -31h-777z" />
    <glyph glyph-name="uni06D3" unicode="&#x6d3;" horiz-adv-x="1179" 
d="M408 766l6 -27h-297l-6 27h71q-69 48 -84 117q-15 68 19.5 111.5t93.5 43.5q60 0 111.5 -44.5t64.5 -98.5h-29q-11 45 -53.5 80t-87.5 35q-51 0 -75.5 -35t-12.5 -92q9 -48 49.5 -82.5t89.5 -34.5h140zM575 0q-122 0 -223 98q-99 99 -96 221l8 351l33 -8l-10 -349
q-3 -106 84 -196q89 -86 198 -86h777l6 -31h-777z" />
    <glyph glyph-name="uni06D4" unicode="&#x6d4;" horiz-adv-x="1228" 
 />
    <glyph glyph-name="uni06F0" unicode="&#x6f0;" horiz-adv-x="430" 
d="M315 43q-4 19 5 31t28 12t33.5 -12t19.5 -31q3 -19 -6 -31t-28 -12t-34 12t-18 31z" />
    <glyph glyph-name="uni06F1" unicode="&#x6f1;" horiz-adv-x="364" 
d="M49 1434l303 -1434h-37l-303 1434h37z" />
    <glyph glyph-name="uni06F2" unicode="&#x6f2;" horiz-adv-x="1116" 
d="M801 1434l6 -35h-358q-107 0 -186.5 -57t-112 -152t-9.5 -203l209 -987h-35l-209 987q-25 119 10.5 222t122 164t203.5 61h359z" />
    <glyph glyph-name="uni06F3" unicode="&#x6f3;" horiz-adv-x="1482" 
d="M1034 649q-97 0 -187 58.5t-138 150.5q-11 -95 -75.5 -152t-166.5 -57q-85 0 -164.5 45.5t-134.5 122.5l172 -817h-25l-303 1434h25l102 -488q25 -112 119 -189t205 -77q113 0 175.5 79.5t39.5 190.5l-103 484h31l103 -488q25 -112 117.5 -189t201.5 -77
q113 0 173.5 79.5t37.5 190.5l-102 484h30l103 -488q23 -133 -44.5 -215t-191.5 -82z" />
    <glyph glyph-name="uni06F4" unicode="&#x6f4;" horiz-adv-x="1294" 
d="M1157 532h-897l113 -532h-37l-303 1434h37l184 -873h387q-108 43 -188 134t-103 200l-39 178q-32 149 51.5 255t231.5 106q151 0 278.5 -105t159.5 -256h-31q-29 140 -146.5 237t-256.5 97q-135 0 -212 -98t-48 -236l39 -178q28 -136 147 -234t254 -98h373z" />
    <glyph glyph-name="uni06F5" unicode="&#x6f5;" horiz-adv-x="1595" 
d="M1241 -25q-108 0 -194.5 60.5t-137.5 171.5q-3 -111 -63 -171.5t-168 -60.5q-80 0 -157.5 47t-141.5 134q-120 160 -172 409q-35 163 -27.5 313.5t53.5 270.5q57 140 163 212.5t253 72.5q294 0 533 -291q97 -120 168.5 -274.5t105.5 -315.5q51 -237 2 -401
q-26 -82 -80 -129.5t-137 -47.5zM895 348q9 -39 21 -75.5t39.5 -88t62.5 -88.5t92 -63.5t125 -26.5q142 0 192 162q48 150 -2 385q-32 154 -103 304.5t-165 266.5q-225 279 -502 279q-83 0 -151.5 -24t-114 -65.5t-75.5 -85.5t-50 -95q-45 -117 -52 -263.5t26 -304.5
q49 -236 168 -395q124 -164 266 -164q57 0 99 18t63 48.5t32.5 65.5t11.5 76.5t-3.5 72.5t-10.5 61l-33 156h31z" />
    <glyph glyph-name="uni06F6" unicode="&#x6f6;" horiz-adv-x="1146" 
d="M1004 563l6 -31h-557q-101 0 -160.5 -66t-50.5 -165l61 -301h-29l-61 303q-11 110 55 184t178 74h48q-108 43 -188 134t-103 200l-39 178q-32 149 51 255t231 106q151 0 279 -105t160 -256h-31q-29 140 -146.5 237t-256.5 97q-135 0 -212.5 -98t-48.5 -236l39 -178
q28 -136 147 -234t255 -98h373z" />
    <glyph glyph-name="uni06F7" unicode="&#x6f7;" horiz-adv-x="1378" 
d="M1325 1434l-297 -1434h-53l-926 1434h39l905 -1399l293 1399h39z" />
    <glyph glyph-name="uni06F8" unicode="&#x6f8;" horiz-adv-x="1378" 
d="M1479 0h-39l-889 1399l-309 -1399h-39l315 1434h53z" />
    <glyph glyph-name="uni06F9" unicode="&#x6f9;" horiz-adv-x="1116" 
d="M412 1434q161 0 299 -114.5t172 -275.5l94 -446l127 -598h-35l-113 532h-360q-86 0 -167 35t-140.5 91.5t-101 125.5t-56.5 138l-27 122q-34 161 56.5 275.5t251.5 114.5zM954 563l-102 481q-32 149 -159 254t-275 105q-149 0 -232 -105t-51 -254l27 -122
q31 -148 158 -253.5t276 -105.5h358z" />
    </font>
</defs>
</svg>
