<?xml version="1.0" standalone="no"?>
<!DOCTYPE svg PUBLIC "-//W3C//DTD SVG 1.1//EN" "http://www.w3.org/Graphics/SVG/1.1/DTD/svg11.dtd" >
<svg xmlns="http://www.w3.org/2000/svg" xmlns:xlink="http://www.w3.org/1999/xlink" version="1.1">
<metadata>
Created by FontForge 20170731 at Sat May 27 13:23:44 2023
 By Aleksey,,,
Copyright (c) 2021 by __Designer__. All rights reserved.
</metadata>
<defs>
<font id="LamaSans-BoldItalic" horiz-adv-x="1454" >
  <font-face 
    font-family="Lama Sans Bold Italic"
    font-weight="700"
    font-style="italic"
    font-stretch="normal"
    units-per-em="2048"
    panose-1="0 0 2 0 0 0 0 0 0 0"
    ascent="1638"
    descent="-410"
    x-height="1024"
    cap-height="1434"
    bbox="-1141 -915 3115 2292"
    underline-thickness="102"
    underline-position="-347"
    unicode-range="U+000D-FEFC"
  />
<missing-glyph horiz-adv-x="972" 
d="M799 1434v-1946h-619v1946h619zM647 1303h-319v-64h125v-72h-127v-63h321v63h-127v72h127v64zM520 1053h-194v-203h321v65h-127v138zM453 987v-72h-64v72h64zM647 797h-321v-64h127v-71h-127v-64h194v135h127v64zM647 680h-63v-127h-258v-68h321v195zM647 442h-194v-108
h67v45h64v-92h-195v155h-63v-219h321v219zM647 106h-321v-219h321v219zM584 43v-92h-195v92h195zM647 -158h-321v-63h135l-135 -92v-64h321v64h-198l137 92h61v63z" />
    <glyph glyph-name="uniFDF2" unicode="&#x627;&#xfedf;&#xfee0;&#xfeea;" horiz-adv-x="3137" arabic-form="isolated" 
d="M1370 1878h-108l-48 219l103 35zM1298 1522q-65 0 -116 43t-66 112l-20 88h112l21 -88q8 -41 45 -41q38 0 26 47l-22 119h113l20 -104q8 -35 43 -35q44 0 35 47l-31 145h113l31 -145q15 -73 -13 -118.5t-92 -45.5q-63 0 -106 43q-10 -32 -35 -49.5t-58 -17.5zM2812 1434
l303 -1434h-246l-303 1434h246zM2218 1430l231 -1094q29 -138 -48.5 -237t-215.5 -99h-147q-151 0 -289 111q-36 -51 -96 -81t-133 -30h-185q-83 0 -163 38.5t-142 106.5q-47 -68 -125 -106.5t-176 -38.5q-129 0 -254.5 62.5t-214.5 171t-115 235.5l-12 53q-42 209 67 340
t320 131h492l135 -633q26 -112 137 -112h156q58 0 90 41t20 100l-221 1041h250l221 -1043q19 -58 72.5 -98.5t112.5 -40.5h147q37 0 58 25.5t14 62.5l-234 1094h248zM678 248q101 0 157.5 71.5t34.5 172.5l-55 253h-244q-98 0 -156 -60.5t-36 -162.5l8 -43
q22 -96 107.5 -163.5t183.5 -67.5z" />
    <glyph glyph-name="uniFEF5" unicode="&#xfedf;&#xfe82;" horiz-adv-x="1296" arabic-form="isolated" 
d="M121 1339l-86 80l123 97q14 10 32 8.5t33 -15.5q73 -63 213 -63q52 0 162 45l72 -121q-41 -22 -103 -40.5t-102 -18.5q-131 0 -246 84q-17 10 -29 -2zM1247 336q29 -138 -48.5 -237t-215.5 -99h-743l-52 248h308l-193 903h248l192 -903h185q37 0 57.5 25.5t13.5 62.5
l-231 1094h246z" />
    <glyph glyph-name="uniFEF6" unicode="&#xfee0;&#xfe82;" horiz-adv-x="1396" arabic-form="final" 
d="M102 1335l-86 78l123 98q12 9 31.5 7.5t34.5 -13.5q73 -63 211 -63q52 0 162 45l71 -121q-39 -21 -101.5 -40t-101.5 -19q-129 0 -245 82q-16 13 -29 0zM1653 125q10 -52 -20 -88.5t-81 -36.5h-75q-151 0 -289 111q-36 -51 -96.5 -81t-133.5 -30h-716l-52 248h308
l-191 901h246l192 -901h134q58 0 91 41t21 100l-221 1041h248l221 -1043q20 -59 73 -99t111 -40h78q51 0 95.5 -35.5t56.5 -87.5z" />
    <glyph glyph-name="uniFEF7" unicode="&#xfedf;&#xfe84;" horiz-adv-x="1343" arabic-form="isolated" 
d="M629 1411l28 -125h-436l-26 125h67q-32 48 -37 88q-8 76 37.5 128t122.5 52q67 0 125.5 -35.5t93.5 -97.5l-84 -69q-24 39 -48.5 56t-59.5 17q-30 0 -46 -18t-10 -47q6 -27 27.5 -50.5t56.5 -23.5h189zM1298 336q29 -138 -49.5 -237t-216.5 -99h-741l-51 248h307
l-193 903h248l193 -903h184q37 0 58 25.5t14 62.5l-234 1094h248z" />
    <glyph glyph-name="uniFEF8" unicode="&#xfee0;&#xfe84;" horiz-adv-x="1396" arabic-form="final" 
d="M584 1411l26 -125h-434l-29 125h70q-33 45 -39 88q-8 76 37.5 128t122.5 52q68 0 126.5 -36t92.5 -97l-84 -69q-24 39 -48.5 56t-59.5 17q-30 0 -45.5 -18t-8.5 -47q4 -25 26 -49.5t58 -24.5h189zM1653 125q10 -52 -20 -88.5t-81 -36.5h-75q-151 0 -289 111
q-36 -51 -96.5 -81t-133.5 -30h-589q-56 0 -101 35.5t-55 87.5q-11 54 18 89.5t84 35.5h183l-191 901h246l192 -901h134q58 0 91 41t21 100l-221 1041h248l221 -1043q20 -59 73 -99t111 -40h78q51 0 95.5 -35.5t56.5 -87.5z" />
    <glyph glyph-name="uniFEF9" unicode="&#xfedf;&#xfe88;" horiz-adv-x="1296" arabic-form="isolated" 
d="M1249 336q29 -138 -48.5 -237t-215.5 -99h-743l-52 248h310l-195 903h248l192 -903h185q37 0 57.5 25.5t13.5 62.5l-231 1094h246zM748 -416h188l27 -127h-437l-24 127h67q-35 52 -37 88q-8 76 36.5 128.5t121.5 52.5q67 0 126.5 -36t94.5 -98l-86 -71q-23 39 -47 57.5
t-59 18.5q-29 0 -45 -19t-10 -47q6 -27 27.5 -50.5t56.5 -23.5z" />
    <glyph glyph-name="uniFEFA" unicode="&#xfee0;&#xfe88;" horiz-adv-x="1396" arabic-form="final" 
d="M1653 125q10 -52 -20 -88.5t-81 -36.5h-75q-151 0 -289 111q-36 -51 -96.5 -81t-133.5 -30h-716l-52 248h308l-191 901h246l192 -901h134q58 0 91 41t21 100l-221 1041h248l221 -1043q20 -59 73 -99t111 -40h78q51 0 95.5 -35.5t56.5 -87.5zM754 -416h188l27 -127h-437
l-26 127h69q-33 50 -38 88q-6 77 38 129t121 52q67 0 127 -36t95 -98l-87 -69q-23 38 -48 56t-60 18q-28 0 -43.5 -19t-9.5 -47q4 -25 26 -49.5t58 -24.5z" />
    <glyph glyph-name="uniFEFB" unicode="&#xfedf;&#xfe8e;" horiz-adv-x="1296" arabic-form="isolated" 
d="M1249 336q29 -138 -48.5 -237t-215.5 -99h-743l-52 248h308l-193 903h248l192 -903h185q37 0 57.5 25.5t13.5 62.5l-231 1094h246z" />
    <glyph glyph-name="uniFEFC" unicode="&#xfee0;&#xfe8e;" horiz-adv-x="1396" arabic-form="final" 
d="M1653 125q10 -52 -20 -88.5t-81 -36.5h-75q-151 0 -289 111q-36 -51 -96.5 -81t-133.5 -30h-716l-52 248h308l-191 901h246l192 -901h134q58 0 91 41t21 100l-221 1041h248l221 -1043q20 -59 73 -99t111 -40h78q51 0 95.5 -35.5t56.5 -87.5z" />
    <glyph glyph-name="uniFEDFFB51" unicode="&#xfedf;&#xfb51;" horiz-adv-x="1296" 
d="M1249 336q29 -138 -48.5 -237t-215.5 -99h-743l-52 248h310l-195 903h248l192 -903h185q37 0 57.5 25.5t13.5 62.5l-231 1094h246z" />
    <glyph glyph-name="uniFEE0FB51" unicode="&#xfee0;&#xfb51;" horiz-adv-x="1396" 
d="M1653 125q10 -52 -20 -88.5t-81 -36.5h-75q-151 0 -289 111q-36 -51 -96.5 -81t-133.5 -30h-716l-52 248h308l-191 901h246l192 -901h134q58 0 91 41t21 100l-221 1041h248l221 -1043q20 -59 73 -99t111 -40h78q51 0 95.5 -35.5t56.5 -87.5z" />
    <glyph glyph-name="uni066E.init" unicode="&#x66e;" horiz-adv-x="589" 
d="M297 0h-147q-51 0 -96.5 37t-55.5 88q-12 53 17.5 88t82.5 35h148q41 0 61.5 26.5t11.5 65.5l-137 649h248l137 -649q31 -139 -49 -239.5t-221 -100.5z" />
    <glyph glyph-name="uni066E.medi" unicode="&#x66e;" horiz-adv-x="731" 
d="M836 248q51 0 95 -35.5t54 -87.5q11 -53 -18 -89t-82 -36h-74q-151 0 -289 111q-36 -51 -96 -81t-133 -30h-139q-56 0 -101 35.5t-55 87.5q-12 54 17 89.5t85 35.5h113q58 0 90.5 41t20.5 100l-86 402h249l86 -404q19 -58 72.5 -98.5t112.5 -40.5h78z" />
    <glyph glyph-name="uni066E.fina" unicode="&#x66e;" horiz-adv-x="1875" 
d="M1978 248q51 0 95.5 -35.5t56.5 -87.5q10 -52 -19.5 -88.5t-80.5 -36.5h-68q-151 0 -289 111q-36 -51 -96 -81t-133 -30h-778q-181 0 -336 127t-193 307l-76 350h252l74 -350q17 -78 82.5 -132t142.5 -54h752q59 0 92 41.5t21 99.5l-129 600h249l127 -602
q20 -59 73.5 -99t111.5 -40h69z" />
    <glyph glyph-name="uni066F.fina" unicode="&#x66f;" horiz-adv-x="1681" 
d="M1802 248l51 -248h-221l33 -150q26 -117 -38 -199.5t-181 -82.5h-555q-113 0 -225.5 43.5t-202.5 117.5t-155.5 176.5t-88.5 215.5l-63 299h247l64 -293q26 -127 134.5 -217t236.5 -90h520q28 0 43 19t10 48l-27 113h-217q-132 0 -257 63t-213 171t-115 235l-13 57
q-28 134 12 247t138 179t233 66q190 0 357.5 -138t208.5 -333l63 -299h221zM1333 248l-63 299q-20 92 -99 156.5t-167 64.5q-102 0 -156.5 -70t-32.5 -172l12 -51q19 -93 103.5 -160t183.5 -67h219z" />
    <glyph glyph-name="uni06A1.init" unicode="&#x6a1;" horiz-adv-x="1179" 
d="M528 1008q195 1 363.5 -138t208.5 -333l112 -537h-1081l-51 248h215q-106 95 -137 239l-11 50q-27 128 16 236.5t140 171t225 63.5zM915 248l-61 289q-19 92 -98.5 157.5t-171.5 65.5q-99 0 -155 -70.5t-36 -171.5l10 -39q25 -97 108.5 -164t180.5 -67h223z" />
    <glyph glyph-name="uni06A1.medi" unicode="&#x6a1;" horiz-adv-x="1239" 
d="M1163 248h193l51 -248h-1272l-53 248h237q-106 95 -137 239l-10 50q-27 127 15.5 235.5t140 171.5t225.5 64t250 -62.5t208 -172.5t113 -236l45 -211q5 -24 3 -42t-4.5 -26t-4.5 -10zM907 248q13 0 21 10t4 23l-53 256q-20 91 -100 157t-173 66q-98 0 -153 -71t-35 -171
l10 -39q23 -97 107.5 -164t181.5 -67h190z" />
    <glyph glyph-name="uni06A1.fina" unicode="&#x6a1;" horiz-adv-x="2172" 
d="M2290 248l51 -248h-1636q-124 0 -243.5 62t-204.5 168.5t-112 232.5l-53 252h246l53 -252q20 -90 96 -152.5t166 -62.5h549q-115 98 -151 256l-7 33q-27 128 15.5 236.5t140 171t225.5 63.5t250 -62.5t208.5 -172.5t113.5 -236l59 -289h234zM1810 248l-59 289
q-20 91 -100 157t-172 66q-98 0 -153.5 -71t-35.5 -171l6 -24q22 -100 109 -171.5t188 -74.5h217z" />
    <glyph glyph-name="uni06C2.fina" unicode="&#x6c2;" horiz-adv-x="1290" 
d="M831 1264l29 -127h-436l-27 127h68q-35 52 -37 86q-8 76 36.5 128t121.5 52q67 0 126.5 -35.5t94.5 -95.5l-84 -72q-25 39 -49.5 57.5t-59.5 18.5q-29 0 -45 -19t-10 -47q6 -26 27.5 -49.5t56.5 -23.5h188zM858 27q-62 -27 -129 -27q-129 0 -254.5 62.5t-214.5 171
t-115 235.5l-12 53q-42 209 67 340t320 131h492l135 -633q26 -112 137 -112h109q52 0 95.5 -36t55.5 -87q10 -51 -18.5 -87t-79.5 -38h-111q-36 0 -56 0.5t-64 6.5t-73.5 16.5t-70 33t-68 54t-53 81.5t-39.5 113l-96 440h-244q-98 0 -156 -60.5t-36 -162.5l8 -43
q22 -96 107.5 -163.5t183.5 -67.5q39 0 62.5 7t45.5 26z" />
    <glyph glyph-name="uni06C3.fina" unicode="&#x6c3;" horiz-adv-x="1290" 
d="M858 27q-62 -27 -129 -27q-129 0 -254.5 62.5t-214.5 171t-115 235.5l-12 53q-42 209 67 340t320 131h492l135 -633q26 -112 137 -112h109q52 0 95.5 -36t55.5 -87q10 -51 -18.5 -87t-79.5 -38h-111q-36 0 -56 0.5t-64 6.5t-73.5 16.5t-70 33t-68 54t-53 81.5t-39.5 113
l-96 440h-244q-98 0 -156 -60.5t-36 -162.5l8 -43q22 -96 107.5 -163.5t183.5 -67.5q39 0 62.5 7t45.5 26z" />
    <glyph glyph-name="uniFB51" unicode="&#x671;" horiz-adv-x="561" arabic-form="final" 
d="M733 0h-92q-138 0 -257 99t-148 237l-234 1098h248l233 -1098q7 -37 38.5 -62.5t68.5 -25.5h92z" />
    <glyph glyph-name="uniFB57" unicode="&#x67e;" horiz-adv-x="1875" arabic-form="final" 
d="M1978 248q51 0 95.5 -35.5t56.5 -87.5q10 -52 -19.5 -88.5t-80.5 -36.5h-68q-151 0 -289 111q-36 -51 -96 -81t-133 -30h-778q-181 0 -336 127t-193 307l-76 350h252l74 -350q17 -78 82.5 -132t142.5 -54h752q59 0 92 41.5t21 99.5l-129 600h249l127 -602
q20 -59 73.5 -99t111.5 -40h69zM987 -459q-60 0 -112 42.5t-64 101.5q-13 60 20.5 102.5t92.5 42.5q61 0 112.5 -42.5t65.5 -102.5q12 -59 -21.5 -101.5t-93.5 -42.5zM1364 -459q-60 0 -111 42.5t-63 101.5q-13 60 20 102.5t93 42.5t112.5 -42.5t65.5 -102.5
q12 -59 -22.5 -101.5t-94.5 -42.5zM1245 -809q-60 0 -111 42t-63 101q-12 61 21.5 103.5t93.5 42.5t112 -42.5t64 -103.5q12 -59 -22.5 -101t-94.5 -42z" />
    <glyph glyph-name="uniFB58" unicode="&#x67e;" horiz-adv-x="759" arabic-form="initial" 
d="M465 0h-315q-51 0 -96.5 37t-55.5 88q-12 53 17.5 88t82.5 35h318q40 0 61 27t12 65l-137 649h246l137 -649q31 -140 -48.5 -240t-221.5 -100zM408 -459q-60 0 -112.5 42.5t-64.5 101.5q-13 60 21 102.5t94 42.5t111 -42.5t65 -102.5q12 -59 -21 -101.5t-93 -42.5z
M784 -459q-59 0 -110.5 43t-63.5 101q-13 60 20 102.5t93 42.5t112.5 -42.5t65.5 -102.5q12 -59 -22 -101.5t-95 -42.5zM666 -809q-59 0 -110.5 42.5t-63.5 100.5q-12 61 21 103.5t93 42.5t112 -42.5t64 -103.5q12 -59 -21.5 -101t-94.5 -42z" />
    <glyph glyph-name="uniFB59" unicode="&#x67e;" horiz-adv-x="731" arabic-form="medial" 
d="M836 248q51 0 95 -35.5t54 -87.5q11 -53 -18 -89t-82 -36h-74q-151 0 -289 111q-36 -51 -96 -81t-133 -30h-139q-56 0 -101 35.5t-55 87.5q-12 54 17 89.5t85 35.5h113q58 0 90.5 41t20.5 100l-86 402h249l86 -404q19 -58 72.5 -98.5t112.5 -40.5h78zM420 -459
q-60 0 -112 42.5t-64 101.5q-13 60 20 102.5t92 42.5q61 0 113 -42.5t66 -102.5q12 -59 -21.5 -101.5t-93.5 -42.5zM797 -459q-60 0 -111 42.5t-63 101.5q-14 60 19 102.5t93 42.5t112.5 -42.5t65.5 -102.5q12 -59 -22 -101.5t-94 -42.5zM678 -809q-60 0 -111 42t-63 101
q-12 61 21 103.5t93 42.5q61 0 113 -42.5t64 -103.5q12 -59 -22.5 -101t-94.5 -42z" />
    <glyph glyph-name="uniFB67" unicode="&#x679;" horiz-adv-x="1875" arabic-form="final" 
d="M545 1010l-23 108h84l-78 355h111l45 -211q56 69 131 69q80 0 133.5 -50t73.5 -146l27 -125h-504zM825 1223q-62 0 -116 -78l6 -27h203l-3 19q-9 40 -33 63t-57 23zM2128 125q10 -52 -19.5 -88.5t-80.5 -36.5h-68q-151 0 -289 111q-36 -51 -96 -81t-133 -30h-778
q-181 0 -336 127t-193 307l-76 350h252l74 -350q17 -78 82.5 -132t142.5 -54h752q59 0 92 41.5t21 99.5l-129 600h249l127 -602q20 -59 73.5 -99t111.5 -40h69q51 0 95.5 -35.5t56.5 -87.5z" />
    <glyph glyph-name="uniFB68" unicode="&#x679;" horiz-adv-x="589" arabic-form="initial" 
d="M12 1161l-22 109h84l-78 354h110l46 -211q56 70 131 70q80 0 133 -50.5t73 -146.5l27 -125h-504zM293 1374q-63 0 -117 -78l6 -26h203l-2 18q-9 40 -33 63t-57 23zM567 340q31 -139 -49 -239.5t-221 -100.5h-147q-51 0 -96.5 37t-55.5 88q-12 53 17.5 88t82.5 35h148
q41 0 61.5 26.5t11.5 65.5l-137 649h248z" />
    <glyph glyph-name="uniFB69" unicode="&#x679;" horiz-adv-x="731" arabic-form="medial" 
d="M66 1047l-23 108h84l-78 354h111l45 -211q56 70 131 70q80 0 133.5 -50.5t73.5 -146.5l26 -124h-503zM346 1260q-63 0 -117 -78l7 -27h202l-2 19q-9 40 -33 63t-57 23zM985 125q11 -53 -18 -89t-82 -36h-74q-151 0 -289 111q-36 -51 -96 -81t-133 -30h-139
q-56 0 -101 35.5t-55 87.5q-12 54 17 89.5t85 35.5h113q58 0 90.5 41t20.5 100l-86 402h249l86 -404q19 -58 72.5 -98.5t112.5 -40.5h78q51 0 95 -35.5t54 -87.5z" />
    <glyph glyph-name="uniFB6B" unicode="&#x6a4;" horiz-adv-x="2111" arabic-form="final" 
d="M1282 1761q61 0 113.5 -42t64.5 -101q12 -60 -22.5 -102.5t-94.5 -42.5t-111 42.5t-63 102.5t20.5 101.5t92.5 41.5zM1171 1413q60 0 112.5 -42.5t64.5 -100.5q12 -60 -21.5 -103t-93.5 -43t-112 43t-64 103q-12 59 21 101t93 42zM1548 1413q61 0 112.5 -42t63.5 -101
q14 -60 -19 -103t-93 -43t-112 43t-66 103q-12 58 21.5 100.5t92.5 42.5zM2228 248l51 -248h-1574q-124 0 -243.5 62t-204.5 168.5t-112 232.5l-65 313h246l65 -313q20 -90 96 -152.5t166 -62.5h549q-118 101 -147 244l-8 32q-27 128 16 236.5t139.5 171t224.5 63.5
t250 -62.5t208.5 -172.5t113.5 -236l57 -276h172zM1810 248l-57 276q-19 91 -98.5 157.5t-171.5 66.5q-99 0 -156 -71.5t-35 -170.5l6 -25q21 -99 107 -164.5t188 -68.5h217z" />
    <glyph glyph-name="uniFB6C" unicode="&#x6a4;" horiz-adv-x="1179" arabic-form="initial" 
d="M477 1761q62 0 114 -41.5t64 -101.5t-21.5 -102.5t-94.5 -42.5q-59 0 -110.5 42.5t-63.5 102.5t20.5 101.5t91.5 41.5zM367 1413q60 0 112 -42.5t64 -100.5q12 -61 -21 -103.5t-94 -42.5q-59 0 -111.5 43t-64.5 103q-12 59 21.5 101t93.5 42zM745 1413q60 0 111.5 -42
t65.5 -101q12 -60 -21.5 -103t-93.5 -43t-112 43t-64 103q-13 58 20.5 100.5t93.5 42.5zM532 993h472l174 -819q15 -72 -25 -123t-111 -51h-911l-51 248h215q-106 95 -137 239l-11 50q-27 128 17 233t141.5 163.5t226.5 59.5zM909 281l-102 479h-223q-99 0 -155 -70.5
t-36 -171.5l10 -39q25 -97 108.5 -164t180.5 -67h191q14 0 21.5 10t4.5 23z" />
    <glyph glyph-name="uniFB6D" unicode="&#x6a4;" horiz-adv-x="1239" arabic-form="medial" 
d="M410 1761q61 0 113.5 -42t64.5 -101q12 -60 -22.5 -102.5t-94.5 -42.5t-111 42.5t-63 102.5t20.5 101.5t92.5 41.5zM299 1413q60 0 112 -42.5t64 -100.5q12 -60 -21.5 -103t-93.5 -43t-112 43t-64 103q-12 59 21.5 101t93.5 42zM676 1413q61 0 112.5 -42t63.5 -101
q14 -60 -19.5 -103t-93.5 -43t-112 43t-66 103q-12 58 22 100.5t93 42.5zM1163 248h193l51 -248h-1272l-53 248h237q-104 94 -133 225l-10 49q-27 128 15.5 236.5t140 171t225.5 63.5q127 1 248.5 -62.5t207.5 -172.5t113 -236l43 -196q5 -24 3 -42t-4.5 -26t-4.5 -10z
M907 248q13 0 21 10t4 23l-51 241q-19 92 -98.5 157.5t-172.5 65.5q-99 0 -154.5 -70t-33.5 -171l8 -39q21 -95 104.5 -156t182.5 -61h190z" />
    <glyph glyph-name="uniFB7B" unicode="&#x686;" horiz-adv-x="1480" arabic-form="final" 
d="M717 0q-92 0 -143 -65.5t-31 -159.5q20 -93 99 -158.5t171 -65.5h412l53 -247h-414q-196 0 -363 138t-208 333q-27 129 13 238t135 172t223 63h553q-17 9 -38 37.5t-28 60.5l-10 51q-48 195 -174 273q-76 52 -175.5 67.5t-187 3.5t-172.5 -43l-156 222q96 38 192.5 56.5
t199.5 18.5t208 -31t199 -92q235 -165 311 -475l11 -51q7 -36 32.5 -67t63.5 -31h193l51 -248h-1020zM764 -225q-27 0 -51.5 20t-28.5 47q-6 28 8.5 48t42.5 20t52 -20t30 -48t-9 -47.5t-44 -19.5zM948 -225q-28 0 -52 19.5t-30 47.5t9 48t43 20t52.5 -20t28.5 -48
q6 -28 -8.5 -47.5t-42.5 -19.5zM891 -393q-28 0 -52 19t-28 46q-7 28 8 48t43 20t52 -20t30 -48t-9.5 -46.5t-43.5 -18.5z" />
    <glyph glyph-name="uniFB7C" unicode="&#x686;" horiz-adv-x="1282" arabic-form="initial" 
d="M1341 0h-1191q-52 0 -97 36.5t-55 88.5q-10 51 19 87t79 36h879q-60 33 -72 96l-10 45q-42 197 -178 285q-62 41 -133.5 60t-143.5 16t-136 -16.5t-128 -37.5l-147 224q126 53 254.5 70t271.5 -11.5t268 -110.5q244 -154 309 -465l15 -57q9 -44 37.5 -71t68.5 -27h39z
M655 -459q-59 0 -110.5 43t-63.5 101q-13 60 20 102.5t93 42.5t112.5 -42.5t65.5 -102.5q12 -59 -22 -101.5t-95 -42.5zM1034 -459q-60 0 -112 42.5t-64 101.5q-13 60 21 102.5t94 42.5t111 -42.5t65 -102.5q12 -59 -21.5 -101.5t-93.5 -42.5zM915 -809q-60 0 -111 42
t-65 101q-12 61 22 103.5t93 42.5q62 0 113 -42.5t63 -103.5q13 -58 -21 -100.5t-94 -42.5z" />
    <glyph glyph-name="uniFB7D" unicode="&#x686;" horiz-adv-x="1261" arabic-form="medial" 
d="M1454 0h-1304q-52 0 -97 36.5t-55 88.5q-10 51 19 87t79 36h869q-60 33 -72 96l-10 45q-42 194 -176 283q-79 52 -180 67t-186 2t-165 -43l-137 224q110 52 239 67.5t271 -14.5t264 -107q104 -66 188 -182t119 -285l15 -55q9 -44 37.5 -71t68.5 -27h160zM659 -459
q-60 0 -112 42.5t-64 101.5q-13 60 21 102.5t94 42.5t111 -42.5t65 -102.5q12 -59 -21.5 -101.5t-93.5 -42.5zM1036 -459q-59 0 -110.5 43t-63.5 101q-13 60 20 102.5t93 42.5t112.5 -42.5t65.5 -102.5q12 -59 -22 -101.5t-95 -42.5zM918 -809q-59 0 -111 42.5t-64 100.5
q-12 61 21.5 103.5t93.5 42.5t112 -42.5t64 -103.5q12 -59 -21.5 -101t-94.5 -42z" />
    <glyph glyph-name="uniFB89" unicode="&#x688;" horiz-adv-x="1277" arabic-form="final" 
d="M352 1186l-22 108h84l-78 355h110l46 -211q56 69 131 69q80 0 133 -50t73 -146l27 -125h-504zM633 1399q-63 0 -117 -78l6 -27h203l-2 19q-9 40 -33 63t-57 23zM1532 123q11 -52 -17 -87.5t-81 -35.5h-54q-183 0 -344 119q-44 -55 -110 -87t-142 -32h-559l-53 248h561
q64 0 84 45q32 40 4 104l-289 596l220 64l297 -602q1 -3 4 -9.5t4 -9.5l4 -8q37 -80 110.5 -130t157.5 -50h51q55 0 98 -36.5t54 -88.5z" />
    <glyph glyph-name="uniFB8B" unicode="&#x698;" horiz-adv-x="768" arabic-form="final" 
d="M188 1796q60 0 112.5 -42.5t64.5 -100.5q13 -60 -21 -103t-94 -43t-111 43t-65 103q-12 59 21 101t93 42zM78 1446q60 0 111 -41.5t63 -101.5q14 -60 -19.5 -103t-93.5 -43t-113 43t-65 103t22.5 101.5t94.5 41.5zM455 1446q60 0 112 -41.5t64 -101.5t-21.5 -103
t-93.5 -43t-112 43t-64 103t21.5 101.5t93.5 41.5zM872 248q51 0 94.5 -35.5t55.5 -89.5q10 -52 -18.5 -87.5t-79.5 -35.5h-62q-97 0 -186 59l12 -67q28 -199 -71 -320t-298 -159l-139 233q35 7 63 15t56 19t49.5 24.5t40 30.5t30 38.5t18 47.5t6 58.5t-8.5 69.5l-201 940
h246l121 -569q15 -70 77.5 -121t131.5 -51h63z" />
    <glyph glyph-name="uniFB8D" unicode="&#x691;" horiz-adv-x="768" arabic-form="final" 
d="M74 1180l-23 108h84l-78 354h111l45 -210q56 69 131 69q80 0 133.5 -50t73.5 -146l27 -125h-504zM354 1393q-62 0 -116 -78l6 -27h202l-2 19q-9 40 -33 63t-57 23zM1022 123q10 -52 -18.5 -87.5t-79.5 -35.5h-62q-97 0 -186 59l12 -67q28 -199 -71 -320t-298 -159
l-139 233q35 7 63 15t56 19t49.5 24.5t40 30.5t30 38.5t18 47.5t6 58.5t-8.5 69.5l-201 940h246l121 -569q15 -70 77.5 -121t131.5 -51h63q51 0 94.5 -35.5t55.5 -89.5z" />
    <glyph glyph-name="uniFB8F" unicode="&#x6a9;" horiz-adv-x="2129" arabic-form="final" 
d="M2300 2h-848v-2h-766q-119 0 -231.5 58t-192 157.5t-104.5 216.5l-74 350h252l74 -350q17 -78 81.5 -131t141.5 -53h1145l-41 194q-28 128 -136 217t-235 89h-471l-195 276l299 590l234 -144l-240 -473h336q146 0 285 -71t237 -195t129 -272l45 -211h224z" />
    <glyph glyph-name="uniFB90" unicode="&#x6a9;" horiz-adv-x="1441" arabic-form="initial" 
d="M725 997q145 0 283.5 -71t237 -195t130.5 -272l64 -303q14 -65 -22.5 -110.5t-100.5 -45.5h-1188l-51 248h1044q20 0 32 14.5t9 36.5l-30 143q-28 128 -136 217t-235 89h-473l-240 272l289 575l235 -143l-231 -455h383z" />
    <glyph glyph-name="uniFB91" unicode="&#x6a9;" horiz-adv-x="1443" arabic-form="medial" 
d="M1565 248l51 -246l-1485 -2l-51 248h1014l-41 194q-28 128 -136 217t-235 89h-471l-195 276l299 590l232 -144l-240 -473h338q146 0 285 -71t237 -195t129 -272l45 -211h224z" />
    <glyph glyph-name="uniFB93" unicode="&#x6af;" horiz-adv-x="2129" arabic-form="final" 
d="M874 1663l-288 -543l-97 74l285 535zM2300 2h-848v-2h-766q-119 0 -231.5 58t-192 157.5t-104.5 216.5l-74 350h252l74 -350q17 -78 81.5 -131t141.5 -53h1145l-41 194q-28 128 -136 217t-235 89h-471l-195 276l299 590l234 -144l-240 -473h336q146 0 285 -71t237 -195
t129 -272l45 -211h224z" />
    <glyph glyph-name="uniFB94" unicode="&#x6af;" horiz-adv-x="1441" arabic-form="initial" 
d="M-147 1169l284 533l101 -66l-289 -540zM727 997q145 0 283.5 -71t237 -195t130.5 -272l97 -459h-1344l-51 248h1096l-41 194q-28 128 -136 217t-235 89h-473l-240 272l289 575l235 -143l-231 -455h383z" />
    <glyph glyph-name="uniFB95" unicode="&#x6af;" horiz-adv-x="1443" arabic-form="medial" 
d="M106 1718l101 -65l-289 -541l-94 74zM1565 248l51 -246l-1485 -2l-51 248h1014l-41 194q-28 128 -136 217t-235 89h-471l-195 276l299 590l232 -144l-240 -473h338q146 0 285 -71t237 -195t129 -272l45 -211h224z" />
    <glyph glyph-name="uniFB9F" unicode="&#x6ba;" horiz-adv-x="1513" arabic-form="final" 
d="M1616 248q52 0 97 -37t56 -88q10 -52 -19.5 -87.5t-82.5 -35.5h-111q-68 0 -112 47l55 -252q15 -80 -27.5 -136t-121.5 -56h-473q-149 0 -291 73.5t-242 200t-131 275.5l-74 348h246l74 -348q26 -125 132.5 -214.5t231.5 -89.5h340q32 0 50 22.5t12 53.5l-226 1055h246
l135 -635q12 -40 47.5 -68t75.5 -28h113z" />
    <glyph glyph-name="uniFBA7" unicode="&#x6c1;" horiz-adv-x="1290" arabic-form="final" 
d="M858 27q-62 -27 -129 -27q-129 0 -254.5 62.5t-214.5 171t-115 235.5l-12 53q-42 209 67 340t320 131h492l135 -633q26 -112 137 -112h109q52 0 95.5 -36t55.5 -87q10 -51 -18.5 -87t-79.5 -38h-111q-36 0 -56 0.5t-64 6.5t-73.5 16.5t-70 33t-68 54t-53 81.5t-39.5 113
l-96 440h-244q-98 0 -156 -60.5t-36 -162.5l8 -43q22 -96 107.5 -163.5t183.5 -67.5q39 0 62.5 7t45.5 26z" />
    <glyph glyph-name="uniFBA8" unicode="&#x6c1;" horiz-adv-x="589" arabic-form="initial" 
d="M297 0h-147q-51 0 -96.5 37t-55.5 88q-12 53 17.5 88t82.5 35h148q41 0 61.5 26.5t11.5 65.5l-137 649h248l137 -649q31 -139 -49 -239.5t-221 -100.5z" />
    <glyph glyph-name="uniFBA9" unicode="&#x6c1;" horiz-adv-x="1366" arabic-form="medial" 
d="M1350 0l6 -29q41 -196 -68 -311t-338 -115q-190 0 -359.5 121.5t-242.5 304.5l-10 29h-207l-51 248h194l-45 211q-44 212 66.5 368t308.5 164q213 9 408 -141q90 -70 151.5 -166.5t83.5 -200.5q27 -130 -12 -235h250l53 -248h-188zM477 459l45 -211h199q41 0 82 6.5
t83.5 23t72 42t43 68t2.5 95.5q-27 123 -123 191q-90 72 -209 69q-104 -4 -161 -87.5t-34 -196.5zM899 -211q111 0 166.5 68t34.5 168l-13 53q-122 -78 -313 -78h-180l10 -23q40 -83 122 -135.5t173 -52.5z" />
    <glyph glyph-name="uniFBAB" unicode="&#x6be;" horiz-adv-x="1488" arabic-form="final" 
d="M1473 0l6 -29q41 -196 -68 -311t-338 -115q-190 0 -359.5 121.5t-242.5 304.5l-10 29h-207l-51 248h194l-45 211q-44 212 66.5 368t308.5 164q213 9 408 -141q90 -70 151.5 -166.5t83.5 -200.5q27 -130 -12 -235h250l53 -248h-188zM600 459l45 -211h199q41 0 82 6.5
t83 23t71.5 42t43 68t2.5 95.5q-27 124 -122 191q-90 72 -209 69q-104 -4 -161 -87.5t-34 -196.5zM1022 -211q111 0 166.5 68t34.5 168l-13 53q-122 -78 -313 -78h-180l10 -23q40 -83 122 -135.5t173 -52.5z" />
    <glyph glyph-name="uniFBAC" unicode="&#x6be;" horiz-adv-x="1576" arabic-form="initial" 
d="M670 1247q200 -38 377 -153.5t305.5 -298.5t175.5 -402l31 -147q22 -101 -35 -173.5t-158 -72.5h-1235l-51 246h242q-48 45 -85.5 110t-52.5 131q-37 179 73 294.5t302 115.5q198 0 362.5 -141t206.5 -342l17 -78q12 -48 6 -90h121q18 0 27.5 12.5t5.5 30.5l-23 104
q-51 237 -215 404t-383 207q-146 28 -324 28l-49 244q142 -1 197.5 -6t161.5 -23zM610 651q-81 0 -136 -55.5t-36 -142.5q19 -88 89.5 -147.5t140.5 -59.5h198q22 0 34.5 14.5t8.5 36.5l-28 139q-16 77 -96 145.5t-175 69.5z" />
    <glyph glyph-name="uniFBAD" unicode="&#x6be;" horiz-adv-x="1366" arabic-form="medial" 
d="M1350 0l6 -29q41 -196 -68 -311t-338 -115q-190 0 -359.5 121.5t-242.5 304.5l-10 29h-207l-51 248h194l-45 211q-44 212 66.5 368t308.5 164q213 9 408 -141q90 -70 151.5 -166.5t83.5 -200.5q27 -130 -12 -235h250l53 -248h-188zM477 459l45 -211h199q41 0 82 6.5
t83.5 23t72 42t43 68t2.5 95.5q-27 123 -123 191q-90 72 -209 69q-104 -4 -161 -87.5t-34 -196.5zM899 -211q111 0 166.5 68t34.5 168l-13 53q-122 -78 -313 -78h-180l10 -23q40 -83 122 -135.5t173 -52.5z" />
    <glyph glyph-name="uniFBAF" unicode="&#x6d2;" horiz-adv-x="1333" arabic-form="final" 
d="M571 242h883l53 -248h-882q-63 0 -86 -47q-25 -48 -2 -101l176 -362l-221 -68l-181 365q-79 184 2 321q39 66 106 103t152 37z" />
    <glyph glyph-name="uniFBB1" unicode="&#x6d3;" horiz-adv-x="1333" arabic-form="final" 
d="M717 506l28 -125h-436l-26 125h67q-35 52 -37 88q-8 76 36.5 128t121.5 52q67 0 126.5 -35.5t94.5 -97.5l-84 -70q-25 39 -49 56.5t-59 17.5q-30 0 -46 -18t-10 -47q6 -27 27.5 -50.5t56.5 -23.5h189zM571 242h883l53 -248h-882q-63 0 -86 -47q-25 -48 -2 -101l176 -362
l-221 -68l-181 365q-79 184 2 321q39 66 106 103t152 37z" />
    <glyph glyph-name="uniFBFD" unicode="&#x6cc;" horiz-adv-x="1800" arabic-form="final" 
d="M1901 248q52 0 96.5 -34.5t54.5 -86.5q12 -52 -17.5 -89.5t-82.5 -37.5q-65 0 -156 16q43 -46 53 -106q24 -109 -10.5 -203t-116 -148.5t-190.5 -54.5h-625q-152 0 -297.5 75.5t-249 205.5t-135.5 283l-80 372h248l80 -372q28 -130 140 -223t241 -93h627q63 0 99.5 47.5
t21.5 110.5q-11 57 -53.5 103t-102.5 63l-352 131l61 227q265 -105 283 -110q229 -76 463 -76z" />
    <glyph glyph-name="uniFBFE" unicode="&#x6cc;" horiz-adv-x="792" arabic-form="initial" 
d="M500 0h-350q-51 0 -96.5 37t-55.5 88q-12 53 17.5 88t82.5 35h351q41 0 61.5 26.5t11.5 65.5l-137 649h248l137 -649q31 -139 -49 -239.5t-221 -100.5zM350 -170q60 0 112 -42t64 -101q12 -61 -21 -103.5t-93 -42.5t-112 42.5t-64 103.5q-12 59 21 101t93 42zM731 -170
q61 0 112.5 -42t63.5 -101q13 -61 -20.5 -103.5t-93.5 -42.5t-112 42.5t-65 103.5q-12 58 22 100.5t93 42.5z" />
    <glyph glyph-name="uniFBFF" unicode="&#x6cc;" horiz-adv-x="849" arabic-form="medial" 
d="M952 248q53 0 96.5 -35.5t55.5 -87.5q10 -52 -19.5 -88.5t-80.5 -36.5h-154q-151 0 -289 111q-36 -51 -96 -81t-133 -30h-178q-56 0 -101 35.5t-55 89.5q-12 52 17 87.5t85 35.5h152q59 0 92 41.5t21 99.5l-95 432h250l92 -434q20 -59 73.5 -99t111.5 -40h155zM403 -170
q60 0 112.5 -42.5t64.5 -100.5q12 -61 -22.5 -103.5t-94.5 -42.5t-111 42.5t-63 103.5q-12 59 21 101t93 42zM784 -170q60 0 112.5 -42.5t64.5 -100.5q12 -62 -22 -104t-95 -42q-59 0 -110.5 42.5t-63.5 103.5q-12 59 21 101t93 42z" />
    <glyph glyph-name="uniFE82" unicode="&#x622;" horiz-adv-x="581" arabic-form="final" 
d="M-139 1653l-86 80l125 96q12 11 30 9t33 -15q76 -64 213 -64q52 0 162 45l72 -121q-41 -22 -102.5 -40.5t-100.5 -18.5q-131 0 -246 84q-18 11 -31 -2zM754 0h-92q-138 0 -257.5 99t-148.5 237l-233 1096h247l234 -1096q7 -37 38 -62.5t68 -25.5h92z" />
    <glyph glyph-name="uniFE84" unicode="&#x623;" horiz-adv-x="565" arabic-form="final" 
d="M301 1673l25 -125h-435l-26 125h67q-30 44 -38 88q-8 76 37.5 128.5t123.5 52.5q67 0 125 -36t94 -98l-84 -69q-24 39 -48.5 56t-59.5 17q-30 0 -45.5 -18t-9.5 -47q6 -26 28 -50t58 -24h188zM733 0h-92q-138 0 -257 99t-148 237l-234 1098h248l233 -1098
q7 -37 38.5 -62.5t68.5 -25.5h92z" />
    <glyph glyph-name="uniFE86" unicode="&#x624;" horiz-adv-x="1232" arabic-form="final" 
d="M346 1169l-27 127h70q-34 51 -39 88q-6 77 38 129t122 52q68 0 126.5 -36t92.5 -97l-84 -72q-25 40 -49 58t-59 18q-29 0 -45 -19t-9 -47q4 -25 26 -49.5t58 -24.5h189l24 -127h-434zM1374 0h-176q28 -199 -82 -324q-89 -105 -227.5 -139.5t-425.5 -32.5l-49 246
q215 -2 325 17t172 90q38 45 33 118l-2 25h-207q-205 0 -379.5 146.5t-218.5 355.5q-23 103 -2 192.5t71.5 156t133.5 104.5t184 38h463l158 -745h178zM897 248l-106 497h-213q-105 0 -161 -69.5t-34 -173.5q23 -106 110 -180t191 -74h213z" />
    <glyph glyph-name="uniFE88" unicode="&#x625;" horiz-adv-x="577" arabic-form="final" 
d="M733 0h-92q-138 0 -257 99t-148 237l-234 1094h248l233 -1094q7 -37 38.5 -62.5t68.5 -25.5h92q51 0 95 -36.5t54 -88.5q10 -51 -18.5 -87t-79.5 -36zM748 -403l28 -127h-436l-27 127h68q-32 48 -37 86q-6 76 38.5 128t121.5 52q67 0 125 -35t94 -96l-84 -72
q-25 39 -49.5 57.5t-59.5 18.5q-29 0 -45 -19t-10 -47q6 -26 27.5 -49.5t56.5 -23.5h189z" />
    <glyph glyph-name="uniFE8A" unicode="&#x626;" horiz-adv-x="1800" arabic-form="final" 
d="M438 690l29 -125h-436l-27 125h68q-33 55 -37 88q-6 76 38.5 128t121.5 52q67 0 125.5 -35.5t93.5 -97.5l-84 -69q-25 39 -48.5 56t-58.5 17q-29 0 -45 -18t-12 -47q6 -27 27.5 -50.5t56.5 -23.5h188zM1901 248q52 0 96.5 -34.5t54.5 -86.5q12 -52 -17.5 -89.5
t-82.5 -37.5q-65 0 -156 16q43 -46 53 -106q24 -109 -10.5 -203t-116 -148.5t-190.5 -54.5h-625q-152 0 -297.5 75.5t-249 205.5t-135.5 283l-80 372h248l80 -372q28 -130 140 -223t241 -93h627q63 0 99.5 47.5t21.5 110.5q-11 57 -53.5 103t-102.5 63l-352 131l61 227
q265 -105 283 -110q229 -76 463 -76z" />
    <glyph glyph-name="uniFE8B" unicode="&#x626;" horiz-adv-x="655" arabic-form="initial" 
d="M514 1264l25 -127h-435l-26 127h69q-35 48 -38 88q-8 76 36.5 128t122.5 52q68 0 126.5 -36t92.5 -97l-84 -72q-25 40 -49 58t-59 18q-29 0 -44.5 -19t-8.5 -47q4 -25 26 -49t58 -24h188zM342 0h-192q-51 0 -96.5 37t-55.5 88q-12 53 17.5 88t82.5 35h195q40 0 60.5 27
t11.5 65l-138 649h248l137 -649q31 -140 -48.5 -240t-221.5 -100z" />
    <glyph glyph-name="uniFE8C" unicode="&#x626;" horiz-adv-x="731" arabic-form="medial" 
d="M516 1120l27 -127h-437l-26 127h70q-34 51 -39 88q-6 77 38 129t121 52q67 0 125 -36t94 -98l-83 -71q-25 39 -49.5 57.5t-59.5 18.5q-28 0 -44 -19t-11 -47q6 -26 28 -50t58 -24h188zM836 248q51 0 95 -35.5t54 -87.5q11 -53 -18 -89t-82 -36h-74q-151 0 -289 111
q-36 -51 -96 -81t-133 -30h-139q-56 0 -101 35.5t-55 89.5q-12 52 17 87.5t85 35.5h113q58 0 90.5 41t20.5 100l-93 432h250l92 -434q19 -58 72.5 -98.5t112.5 -40.5h78z" />
    <glyph glyph-name="uniFE8E" unicode="&#x627;" horiz-adv-x="581" arabic-form="final" 
d="M754 0h-92q-138 0 -257.5 99t-148.5 237l-233 1096h247l234 -1096q7 -37 38 -62.5t68 -25.5h92z" />
    <glyph glyph-name="uniFE90" unicode="&#x628;" horiz-adv-x="1888" arabic-form="final" 
d="M1993 248q51 0 95 -35.5t56 -87.5q10 -52 -19.5 -88.5t-80.5 -36.5h-82q-151 0 -289 111q-36 -51 -96 -81t-133 -30h-778q-181 0 -336 127t-193 307l-78 361h252l76 -361q17 -78 82.5 -132t142.5 -54h752q59 0 92 41.5t21 99.5l-129 604h247l129 -606q20 -59 73.5 -99
t111.5 -40h84zM1110 -170q60 0 112 -42t64 -101q12 -61 -22.5 -103.5t-94.5 -42.5t-111 42.5t-63 103.5q-12 59 21.5 101t93.5 42z" />
    <glyph glyph-name="uniFE91" unicode="&#x628;" horiz-adv-x="630" arabic-form="initial" 
d="M342 0h-192q-51 0 -96.5 37t-55.5 88q-12 53 17.5 88t82.5 35h195q40 0 60.5 27t11.5 65l-138 653h248l137 -653q31 -140 -48.5 -240t-221.5 -100zM322 -313q-12 59 21 101t93 42t112 -42t64 -101q12 -61 -22 -103.5t-94 -42.5t-111 42.5t-63 103.5z" />
    <glyph glyph-name="uniFE92" unicode="&#x628;" horiz-adv-x="684" arabic-form="medial" 
d="M786 248q53 0 96.5 -35.5t55.5 -87.5q10 -52 -19.5 -88.5t-80.5 -36.5h-64q-151 0 -289 111q-36 -51 -96 -81t-133 -30h-102q-56 0 -101 35.5t-55 87.5q-12 54 17 89.5t85 35.5h76q58 0 90.5 41t20.5 100l-86 406h248l88 -408q19 -58 72 -98.5t112 -40.5h65zM412 -313
q-12 58 21.5 100.5t92.5 42.5q61 0 112.5 -42t63.5 -101q13 -61 -20.5 -103.5t-93.5 -42.5t-111.5 42.5t-64.5 103.5z" />
    <glyph glyph-name="uniFE94" unicode="&#x629;" horiz-adv-x="1284" arabic-form="final" 
d="M334 1458q60 0 112 -42.5t64 -100.5q12 -62 -21 -104t-94 -42q-59 0 -111.5 42.5t-64.5 103.5q-12 59 21.5 101t93.5 42zM713 1458q60 0 111 -42t65 -101q12 -61 -21.5 -103.5t-93.5 -42.5t-112 42.5t-64 103.5q-13 58 21 100.5t94 42.5zM1393 248q52 0 95.5 -36
t55.5 -87q10 -51 -18.5 -87t-79.5 -38h-111q-83 0 -163 38.5t-142 106.5q-47 -68 -125 -106.5t-176 -38.5q-129 0 -254.5 62.5t-214.5 171t-115 235.5l-12 53q-42 209 67 340t320 131h492l135 -633q26 -112 137 -112h109zM678 248q101 0 157.5 71.5t34.5 172.5l-53 249
l-246 4q-98 2 -156 -59t-36 -164l8 -43q22 -96 107.5 -163.5t183.5 -67.5z" />
    <glyph glyph-name="uniFE96" unicode="&#x62a;" horiz-adv-x="1873" arabic-form="final" 
d="M561 1290q60 0 112 -42t64 -101q12 -62 -20.5 -104t-93.5 -42q-59 0 -112 42.5t-65 103.5q-12 59 21.5 101t93.5 42zM940 1290q60 0 111 -42t65 -101q12 -61 -21.5 -103.5t-93.5 -42.5t-112 42.5t-64 103.5q-13 58 21 100.5t94 42.5zM1976 248q53 0 96.5 -35.5
t55.5 -87.5q10 -52 -19.5 -88.5t-80.5 -36.5h-66q-151 0 -289 111q-36 -51 -96 -81t-133 -30h-778q-181 0 -336 127t-193 307l-78 361h252l76 -361q17 -78 82.5 -132t142.5 -54h752q59 0 92 41.5t21 99.5l-129 604h247l129 -606q20 -59 73.5 -99t111.5 -40h67z" />
    <glyph glyph-name="uniFE97" unicode="&#x62a;" horiz-adv-x="843" arabic-form="initial" 
d="M76 1460q60 0 112 -42t64 -101q12 -60 -21.5 -103t-93.5 -43t-112 43t-64 103q-12 59 21.5 101t93.5 42zM455 1460q60 0 111 -42t63 -101q14 -60 -19.5 -103t-93.5 -43t-112 43t-66 103q-12 59 22.5 101t94.5 42zM410 0h-260q-51 0 -96.5 37t-55.5 88q-12 53 17.5 88
t82.5 35h260q41 0 62 26.5t12 65.5l-139 653h248l139 -653q29 -140 -50 -240t-220 -100z" />
    <glyph glyph-name="uniFE98" unicode="&#x62a;" horiz-adv-x="782" arabic-form="medial" 
d="M86 1292q60 0 112 -41.5t64 -101.5t-21.5 -102.5t-93.5 -42.5t-112 42.5t-64 102.5t21.5 101.5t93.5 41.5zM463 1292q61 0 113.5 -42t64.5 -101q12 -60 -22.5 -102.5t-94.5 -42.5t-111 42.5t-63 102.5t20.5 101.5t92.5 41.5zM885 248q52 0 95.5 -35t55.5 -88
q10 -52 -19.5 -88.5t-80.5 -36.5h-98q-151 0 -289 111q-36 -51 -95 -81t-132 -30h-168q-56 0 -101 35.5t-55 87.5q-12 54 17 89.5t85 35.5h142q57 0 89.5 41.5t20.5 99.5l-88 406h250l86 -408q20 -59 73 -99t113 -40h99z" />
    <glyph glyph-name="uniFE9A" unicode="&#x62b;" horiz-adv-x="1900" arabic-form="final" 
d="M643 1638q60 0 113 -42.5t65 -100.5q12 -60 -22 -102.5t-94 -42.5t-111.5 42.5t-63.5 102.5q-12 59 20.5 101t92.5 42zM532 1290q60 0 112.5 -42.5t64.5 -100.5q12 -61 -21.5 -103.5t-93.5 -42.5t-112 42.5t-64 103.5q-12 59 21 101t93 42zM909 1290q61 0 112.5 -42
t63.5 -101q12 -62 -20 -104t-92 -42q-61 0 -113.5 42.5t-64.5 103.5q-12 58 21.5 100.5t92.5 42.5zM2009 248q51 0 95.5 -35.5t56.5 -87.5q10 -52 -20 -88.5t-81 -36.5h-98q-151 0 -289 111q-36 -51 -96 -81t-133 -30h-778q-181 0 -336 127t-193 307l-74 346h250l74 -346
q17 -78 82.5 -132t142.5 -54h752q59 0 92 41.5t21 99.5l-129 600h247l129 -602q20 -59 73.5 -99t111.5 -40h100z" />
    <glyph glyph-name="uniFE9B" unicode="&#x62b;" horiz-adv-x="831" arabic-form="initial" 
d="M174 1806q61 0 113.5 -42t64.5 -101q12 -60 -21.5 -102.5t-94.5 -42.5q-59 0 -111 42.5t-64 102.5q-12 59 21.5 101t91.5 42zM63 1456q61 0 113 -41.5t64 -101.5q12 -61 -21 -103.5t-94 -42.5q-59 0 -111.5 43t-64.5 103t21 101.5t93 41.5zM442 1456q60 0 111.5 -41.5
t64.5 -101.5q12 -60 -21 -103t-93 -43t-112 43t-64 103q-13 60 20.5 101.5t93.5 41.5zM391 0h-241q-51 0 -96.5 37t-55.5 88q-12 53 17.5 88t82.5 35h244q40 0 61.5 27t12.5 65l-140 653h248l138 -653q31 -140 -49 -240t-222 -100z" />
    <glyph glyph-name="uniFE9C" unicode="&#x62b;" horiz-adv-x="808" arabic-form="medial" 
d="M203 1640q60 0 112 -41.5t64 -101.5t-21.5 -102.5t-93.5 -42.5t-112 42.5t-64 102.5t21.5 101.5t93.5 41.5zM90 1292q60 0 113 -42.5t65 -100.5q12 -60 -21.5 -102.5t-94.5 -42.5q-59 0 -111 42.5t-64 102.5q-14 59 19.5 101t93.5 42zM469 1292q60 0 112 -42t64 -101
q13 -60 -21 -102.5t-94 -42.5t-111 42.5t-65 102.5q-12 59 21.5 101t93.5 42zM913 248q51 0 95.5 -35.5t56.5 -87.5q10 -52 -19.5 -88.5t-80.5 -36.5h-101q-151 0 -289 111q-36 -51 -96 -81t-133 -30h-192q-56 0 -101 35.5t-55 87.5q-12 54 17 89.5t85 35.5h166
q59 0 92 41.5t21 99.5l-88 406h250l86 -408q20 -59 73 -99t111 -40h102z" />
    <glyph glyph-name="uniFE9E" unicode="&#x62c;" horiz-adv-x="1480" arabic-form="final" 
d="M717 0q-92 0 -143 -65.5t-31 -159.5q20 -93 99 -158.5t171 -65.5h412l53 -247h-414q-196 0 -363 138t-208 333q-27 129 13 238t135 172t223 63h553q-17 9 -38 37.5t-28 60.5l-10 51q-48 193 -172 271q-77 52 -177 67.5t-187.5 3.5t-172.5 -43l-153 222q128 52 256 69.5
t271.5 -9.5t268.5 -108q237 -162 311 -475l11 -49q7 -36 32.5 -67t63.5 -31h193l51 -248h-1020zM803 -98q56 0 104 -39t58 -94q13 -55 -18.5 -94.5t-88.5 -39.5q-54 0 -102 39.5t-60 94.5q-11 56 20.5 94.5t86.5 38.5z" />
    <glyph glyph-name="uniFE9F" unicode="&#x62c;" horiz-adv-x="1282" arabic-form="initial" 
d="M1341 0h-1191q-52 0 -97 36.5t-55 88.5q-10 51 19 87t79 36h879q-60 33 -72 96l-8 43q-46 198 -178 285q-216 140 -543 20l-147 226q126 52 254.5 68.5t272 -11.5t269.5 -109q48 -31 92 -71.5t87 -97t77.5 -132.5t53.5 -164l12 -55q9 -44 37.5 -71t68.5 -27h39zM768 -164
q60 0 112 -42t64 -101q12 -60 -22.5 -103t-94.5 -43t-111 43t-63 103q-12 59 21.5 101t93.5 42z" />
    <glyph glyph-name="uniFEA0" unicode="&#x62c;" horiz-adv-x="1261" arabic-form="medial" 
d="M1454 0h-1304q-52 0 -97 36.5t-55 88.5q-10 51 19 87t79 36h869q-60 33 -72 96l-8 41q-46 198 -178 285q-60 40 -132 58.5t-143 16t-133.5 -14.5t-122.5 -34l-137 224q110 52 239 67.5t271 -15t264 -108.5q104 -67 188.5 -181.5t120.5 -283.5l13 -53q9 -44 37.5 -71
t68.5 -27h160zM815 -164q60 0 112 -42t64 -101q12 -60 -22.5 -103t-94.5 -43t-111 43t-63 103q-12 59 21.5 101t93.5 42z" />
    <glyph glyph-name="uniFEA2" unicode="&#x62d;" horiz-adv-x="1546" arabic-form="final" 
d="M659 0q-69 0 -107.5 -49.5t-23.5 -118.5q15 -70 74.5 -119t128.5 -49h475l51 -248h-473q-172 0 -319 121t-184 295q-24 113 11 209t118.5 151.5t195.5 55.5h611q-17 9 -38 37.5t-28 60.5l-10 49q-46 187 -172 271q-76 52 -176 68t-188 3.5t-173 -43.5l-153 221
q96 39 192.5 59t200 20.5t208 -31t197.5 -95.5q235 -161 309 -475l11 -47q7 -36 32.5 -67t63.5 -31h193l51 -248h-1078z" />
    <glyph glyph-name="uniFEA3" unicode="&#x62d;" horiz-adv-x="1282" arabic-form="initial" 
d="M1341 0h-1191q-52 0 -97 36.5t-55 88.5q-10 51 19 87t79 36h879q-60 33 -72 96l-10 45q-42 197 -178 285q-62 41 -133.5 60t-143.5 16t-136 -16.5t-128 -37.5l-147 224q126 53 254.5 70t271.5 -11.5t268 -110.5q244 -154 309 -465l15 -57q9 -44 37.5 -71t68.5 -27h39z
" />
    <glyph glyph-name="uniFEA4" unicode="&#x62d;" horiz-adv-x="1261" arabic-form="medial" 
d="M1454 0h-1304q-52 0 -97 36.5t-55 88.5q-10 51 19 87t79 36h869q-60 33 -72 96l-10 47q-43 198 -178 285q-60 40 -132 58.5t-143 16t-133.5 -14.5t-122.5 -34l-135 224q111 53 239.5 68.5t271 -14.5t261.5 -110q106 -66 190 -180.5t119 -283.5l15 -60q9 -44 37.5 -71
t68.5 -27h160z" />
    <glyph glyph-name="uniFEA6" unicode="&#x62e;" horiz-adv-x="1546" arabic-form="final" 
d="M612 1460q61 0 112.5 -42t63.5 -101q12 -61 -20.5 -103.5t-93.5 -42.5q-59 0 -111.5 43t-64.5 103q-12 58 21.5 100.5t92.5 42.5zM659 0q-69 0 -107.5 -49.5t-23.5 -118.5q15 -70 74.5 -119t128.5 -49h475l51 -248h-473q-172 0 -319 121t-184 295q-24 113 11 209
t118.5 151.5t195.5 55.5h611q-17 9 -38 37.5t-28 60.5l-10 47q-43 184 -172 271q-75 52 -175.5 68t-188 4t-171.5 -42l-155 219q96 39 192.5 59t200 20.5t208 -31t197.5 -95.5q235 -161 309 -475l11 -45q7 -36 32.5 -67t63.5 -31h193l51 -248h-1078z" />
    <glyph glyph-name="uniFEA7" unicode="&#x62e;" horiz-adv-x="1282" arabic-form="initial" 
d="M244 1317q-12 59 22 101t94 42t111.5 -42t63.5 -101q14 -60 -19.5 -103t-93.5 -43t-112 43t-66 103zM1341 0h-1191q-52 0 -97 36.5t-55 88.5q-10 51 19 87t79 36h879q-60 33 -72 96l-10 45q-42 197 -178 285q-62 41 -133.5 60t-143.5 16t-136 -16.5t-128 -37.5l-147 224
q126 53 254.5 70t271.5 -11.5t268 -110.5q244 -154 309 -465l15 -57q9 -44 37.5 -71t68.5 -27h39z" />
    <glyph glyph-name="uniFEA8" unicode="&#x62e;" horiz-adv-x="1263" arabic-form="medial" 
d="M233 1317q-12 59 22.5 101t94.5 42t111 -42t63 -101q14 -60 -19 -103t-93 -43t-113 43t-66 103zM1454 0h-1304q-52 0 -97 36.5t-55 88.5q-10 51 19 87t79 36h869q-60 33 -72 96l-10 45q-42 197 -178 285q-79 52 -179.5 67t-185 2t-164.5 -43l-137 224q110 52 239 67.5
t270.5 -15t262.5 -108.5q244 -154 309 -465l15 -57q9 -44 37.5 -71t68.5 -27h160z" />
    <glyph glyph-name="uniFEAA" unicode="&#x62f;" horiz-adv-x="1277" arabic-form="final" 
d="M1532 123q11 -52 -17 -87.5t-81 -35.5h-54q-183 0 -344 119q-44 -55 -110 -87t-142 -32h-559l-53 248h561q64 0 84 45q32 40 4 104l-289 596l220 64l297 -602q1 -3 4 -9.5t4 -9.5l4 -8q37 -80 110.5 -130t157.5 -50h51q55 0 98 -36.5t54 -88.5z" />
    <glyph glyph-name="uniFEAC" unicode="&#x630;" horiz-adv-x="1288" arabic-form="final" 
d="M557 1143q-59 0 -111.5 43t-64.5 102q-12 58 22 101t93 43q61 0 112.5 -42.5t63.5 -101.5q12 -60 -21 -102.5t-94 -42.5zM1548 123q11 -52 -17 -87.5t-81 -35.5h-70q-183 0 -344 119q-42 -55 -108.5 -87t-143.5 -32h-559l-53 248h561q64 0 84 45q29 33 8 96l-293 604
l220 64l297 -602l6 -15l6 -12q37 -80 110.5 -130t157.5 -50h68q53 0 96.5 -36.5t54.5 -88.5z" />
    <glyph glyph-name="uniFEAE" unicode="&#x631;" horiz-adv-x="768" arabic-form="final" 
d="M872 248q51 0 94.5 -35.5t55.5 -89.5q10 -52 -18.5 -87.5t-79.5 -35.5h-62q-97 0 -186 59l12 -67q28 -199 -71 -320t-298 -159l-139 233q35 7 63 15t56 19t49.5 24.5t40 30.5t30 38.5t18 47.5t6 58.5t-8.5 69.5l-201 940h246l121 -569q15 -70 77.5 -121t131.5 -51h63z
" />
    <glyph glyph-name="uniFEB0" unicode="&#x632;" horiz-adv-x="772" arabic-form="final" 
d="M254 1460q60 0 112 -42t64 -101q12 -60 -21.5 -103t-93.5 -43t-112 43t-64 103q-12 59 21.5 101t93.5 42zM868 248q53 0 96.5 -35.5t55.5 -89.5q10 -52 -18.5 -87.5t-79.5 -35.5h-60q-101 0 -186 59l12 -67q28 -199 -71 -320t-298 -159l-139 233q47 10 82 20t66.5 23.5
t52 30t36.5 38.5t22 49.5t5 63t-10 78.5l-201 940h246l121 -569q15 -70 77.5 -121t131.5 -51h59z" />
    <glyph glyph-name="uniFEB2" unicode="&#x633;" horiz-adv-x="2695" arabic-form="final" 
d="M2800 248q51 0 94 -36t55 -89q10 -51 -19 -87t-79 -36h-70q-70 0 -137.5 30.5t-120.5 82.5q-89 -113 -264 -113q-190 0 -338 139q-37 -65 -108 -102t-162 -37q-115 0 -215 59l45 -215q25 -110 -36.5 -188t-172.5 -78h-393q-147 0 -288 73t-241 198t-131 272l-80 377h250
l80 -377q26 -123 130 -209t226 -86h338q31 0 49 23t11 55l-187 889h246l78 -373q15 -74 77 -123t146 -49q88 0 131 51.5t27 126.5l-76 356h248l78 -362q15 -79 79 -125.5t148 -46.5q73 0 114 52t27 126l-121 565h248l140 -655q9 -37 39 -62.5t65 -25.5h70z" />
    <glyph glyph-name="uniFEB3" unicode="&#x633;" horiz-adv-x="1820" arabic-form="initial" 
d="M1645 989l118 -563q39 -182 -62.5 -304t-283.5 -122q-196 0 -338 139q-96 -139 -301 -139q-157 0 -293 113q-30 -52 -85 -82.5t-124 -30.5h-129q-51 0 -95 36t-54 87q-11 50 17 86.5t79 36.5h129q35 0 55 25.5t13 60.5l-96 459h243l80 -373q15 -75 78 -123.5t145 -48.5
q88 0 131 51t25 129l-78 365h246l80 -373q15 -76 75.5 -123t145.5 -47q88 0 129 50t23 128l-119 563h246z" />
    <glyph glyph-name="uniFEB4" unicode="&#x633;" horiz-adv-x="1912" arabic-form="medial" 
d="M2017 246q47 0 93.5 -37t56.5 -84q10 -52 -19.5 -88.5t-79.5 -36.5h-118q-72 0 -141 31.5t-121 85.5q-43 -55 -113.5 -86t-155.5 -31q-196 0 -342 143q-92 -143 -303 -143q-75 0 -154.5 28.5t-144.5 86.5q-30 -53 -85 -84t-126 -31h-117q-51 0 -95 36.5t-54 88.5
q-11 48 17.5 84.5t80.5 36.5h117q36 0 56.5 26t13.5 64l-97 455h244l78 -369q17 -77 81 -126.5t148 -49.5q89 0 131.5 52t24.5 132l-76 361h246l80 -369q18 -78 78.5 -126t146.5 -48q89 0 131.5 51.5t24.5 130.5l-119 561h246l139 -655q7 -38 38.5 -64t69.5 -26h119z" />
    <glyph glyph-name="uniFEB6" unicode="&#x634;" horiz-adv-x="2711" arabic-form="final" 
d="M1577 1626q60 0 112 -42t64 -101q12 -61 -21 -103.5t-94 -42.5q-59 0 -111.5 43t-64.5 103q-12 59 21.5 101t93.5 42zM1460 1272q60 0 113 -43t65 -101q12 -62 -21.5 -103.5t-94.5 -41.5q-59 0 -110.5 42t-63.5 103q-12 59 20.5 101.5t91.5 42.5zM1851 1272
q60 0 112.5 -42.5t64.5 -101.5q12 -61 -21.5 -103t-93.5 -42q-61 0 -112.5 42t-63.5 103q-12 59 21 101.5t93 42.5zM2816 248q51 0 95.5 -36.5t54.5 -88.5q10 -51 -19 -87t-80 -36h-86q-70 0 -137.5 30.5t-120.5 82.5q-89 -113 -264 -113q-190 0 -338 139q-37 -65 -108 -102
t-162 -37q-115 0 -215 59l45 -215q25 -110 -36.5 -188t-172.5 -78h-393q-147 0 -288 73t-241 198t-131 272l-80 377h250l80 -377q26 -123 130 -209t226 -86h338q31 0 49 23t11 55l-189 891h246l80 -375q15 -74 77 -123t146 -49q88 0 131 51.5t27 126.5l-78 360h248l80 -366
q15 -79 79 -125.5t148 -46.5q73 0 114 52t27 126l-121 565h248l140 -655q9 -37 39 -62.5t65 -25.5h86z" />
    <glyph glyph-name="uniFEB7" unicode="&#x634;" horiz-adv-x="1828" arabic-form="initial" 
d="M715 1645q60 0 112 -42.5t64 -101.5q12 -60 -21.5 -102.5t-93.5 -42.5t-112 42.5t-64 102.5q-12 59 21.5 101.5t93.5 42.5zM598 1290q61 0 112.5 -42t63.5 -101q12 -62 -20 -104t-92 -42q-61 0 -114 42.5t-65 103.5q-12 58 22 100.5t93 42.5zM989 1290q60 0 112 -42
t64 -101q12 -61 -21 -103.5t-93 -42.5q-61 0 -113 42.5t-64 103.5q-12 59 21.5 101t93.5 42zM1653 989l119 -563q39 -182 -63.5 -304t-283.5 -122q-196 0 -338 139q-96 -139 -301 -139q-155 0 -294 113q-30 -52 -84.5 -82.5t-124.5 -30.5h-136q-51 0 -95 36t-54 87
q-11 50 17.5 87.5t78.5 37.5h137q36 0 55.5 25t12.5 61l-98 457h245l80 -373q15 -75 77.5 -123.5t144.5 -48.5q89 0 131 51t24 129l-78 365h248l80 -373q15 -76 75.5 -123t145.5 -47q88 0 129 50t23 128l-119 563h246z" />
    <glyph glyph-name="uniFEB8" unicode="&#x634;" horiz-adv-x="1867" arabic-form="medial" 
d="M686 1645q60 0 113 -43t65 -101q12 -60 -21.5 -102.5t-94.5 -42.5q-59 0 -111 42.5t-64 102.5q-12 59 20.5 101.5t92.5 42.5zM571 1290q60 0 112.5 -42.5t64.5 -100.5q12 -61 -21.5 -103.5t-93.5 -42.5t-112 42.5t-64 103.5q-12 59 21 101t93 42zM961 1290
q61 0 112.5 -42t63.5 -101q12 -62 -20.5 -104t-92.5 -42q-61 0 -113.5 42.5t-64.5 103.5q-12 58 22 100.5t93 42.5zM1970 246q49 0 95 -37t57 -84q10 -51 -20.5 -88t-78.5 -37h-100q-72 0 -142 31.5t-122 85.5q-93 -117 -266 -117q-199 0 -342 143q-96 -143 -303 -143
q-76 0 -155 28.5t-144 86.5q-30 -53 -85 -84t-126 -31h-91q-51 0 -95 36.5t-54 88.5q-11 48 17.5 84.5t80.5 36.5h88q37 0 58 26t14 64l-98 455h243l80 -369q17 -77 81 -126.5t147 -49.5q90 0 132.5 52t24.5 132l-78 361h248l78 -369q17 -78 78.5 -126t146.5 -48
q90 0 132 51t24 131l-119 561h246l141 -655q8 -38 38.5 -64t68.5 -26h100z" />
    <glyph glyph-name="uniFEBA" unicode="&#x635;" horiz-adv-x="2762" arabic-form="final" 
d="M2882 248l53 -248h-1481l39 -180q22 -100 -36 -174t-159 -74h-415q-149 0 -291 73.5t-242 200t-131 275.5l-63 301h245l64 -301q26 -125 133.5 -213t232.5 -88h357q24 0 38.5 17.5t10.5 41.5l-238 1110h246l39 -180l473 154q170 57 363 -8t317 -222q95 -114 133 -274
l45 -211h267zM2322 248q19 0 30 14t7 35l-35 162q-19 86 -73 151q-66 83 -169 115.5t-200 3.5l-545 -176l66 -305h919z" />
    <glyph glyph-name="uniFEBB" unicode="&#x635;" horiz-adv-x="1808" arabic-form="initial" 
d="M1630 733q100 -124 131 -274l54 -254q19 -84 -28.5 -144.5t-131.5 -60.5h-1524l-51 248h270l-157 741h243l41 -180l473 154q170 57 362 -8t318 -222zM1550 297l-34 162q-19 84 -74 151q-64 83 -167.5 115.5t-201.5 3.5l-543 -176l64 -305h919q20 0 30.5 13.5t6.5 35.5z
" />
    <glyph glyph-name="uniFEBC" unicode="&#x635;" horiz-adv-x="1855" arabic-form="medial" 
d="M1976 248l52 -248h-1897l-51 248h221l-158 741h244l41 -180l473 154q170 57 362 -8t318 -222q100 -124 131 -274l45 -211h219zM1464 248q20 0 30.5 13.5t6.5 35.5l-35 162q-19 86 -73 151q-64 83 -167.5 115.5t-201.5 3.5l-543 -176l64 -305h919z" />
    <glyph glyph-name="uniFEBE" unicode="&#x636;" horiz-adv-x="2762" arabic-form="final" 
d="M1784 1171q-60 0 -112 43t-64 103q-12 59 21 101t93 42t112 -42t64 -101q12 -60 -21 -103t-93 -43zM2882 248l53 -248h-1481l39 -180q22 -100 -36 -174t-159 -74h-415q-149 0 -291 73.5t-242 200t-131 275.5l-80 379h246l80 -379q26 -125 133.5 -213t232.5 -88h357
q24 0 38.5 17.5t10.5 41.5l-238 1110h246l39 -180l473 154q170 57 363 -8t317 -222q95 -114 133 -274l45 -211h267zM2322 248q19 0 30 14t7 35l-35 162q-19 86 -73 151q-66 83 -169 115.5t-200 3.5l-545 -176l66 -305h919z" />
    <glyph glyph-name="uniFEBF" unicode="&#x636;" horiz-adv-x="1761" arabic-form="initial" 
d="M819 1460q60 0 111 -42t63 -101q14 -60 -19 -103t-93 -43t-113 43t-66 103q-12 59 22.5 101t94.5 42zM1581 733q101 -122 133 -274l53 -254q19 -84 -28 -144.5t-131 -60.5h-1477l-51 248h221l-158 741h246l39 -180l475 154q170 57 361.5 -8t316.5 -222zM1503 297l-35 162
q-19 86 -73 151q-64 83 -167.5 115.5t-201.5 3.5l-543 -176l64 -305h919q20 0 30.5 13.5t6.5 35.5z" />
    <glyph glyph-name="uniFEC0" unicode="&#x636;" horiz-adv-x="1894" arabic-form="medial" 
d="M905 1171q-59 0 -111.5 43t-64.5 103q-12 58 22 100.5t93 42.5q61 0 112.5 -42t63.5 -101q12 -61 -21 -103.5t-94 -42.5zM2015 248l51 -248h-1935l-51 248h246l-158 741h244l41 -180l473 154q170 57 362 -8t318 -222q100 -124 131 -274l45 -211h233zM1489 248
q20 0 30.5 13.5t6.5 35.5l-35 162q-19 84 -74 151q-64 83 -167.5 115.5t-200.5 3.5l-543 -176l63 -305h920z" />
    <glyph glyph-name="uniFEC2" unicode="&#x637;" horiz-adv-x="2043" arabic-form="final" 
d="M2165 248l51 -248h-1954l-55 262h229l-248 1168h246l131 -617l473 154q170 57 363 -8t317 -222q99 -119 131 -276l45 -213h271zM1604 248q20 0 30 13.5t6 35.5l-36 164q-16 83 -74 153q-64 83 -167 115.5t-200 3.5l-542 -176l63 -309h920z" />
    <glyph glyph-name="uniFEC3" unicode="&#x637;" horiz-adv-x="1789" arabic-form="initial" 
d="M1610 737q100 -124 131 -276l55 -256q17 -85 -30 -145t-132 -60h-1503l-51 248h250l-250 1182h246l131 -617l473 154q170 57 362 -8t318 -222zM1532 297l-37 164q-19 83 -74 153q-64 83 -167.5 115.5t-200.5 3.5l-543 -176l65 -309h918q20 0 31 13.5t8 35.5z" />
    <glyph glyph-name="uniFEC4" unicode="&#x637;" horiz-adv-x="1904" arabic-form="medial" 
d="M2023 248l54 -248h-1946l-51 248h252l-252 1182h246l131 -619l475 156q170 55 361.5 -10t316.5 -220q103 -127 133 -276l45 -213h235zM1495 248q20 0 30.5 13.5t6.5 35.5l-35 164q-19 83 -74 153q-65 82 -167.5 114.5t-200.5 4.5l-543 -176l66 -309h917z" />
    <glyph glyph-name="uniFEC6" unicode="&#x638;" horiz-adv-x="2017" arabic-form="final" 
d="M1036 1171q-59 0 -111.5 43t-64.5 103q-12 58 22 100.5t93 42.5q61 0 112.5 -42t63.5 -101q12 -61 -21 -103.5t-94 -42.5zM2138 248l51 -248h-1941l-55 262h217l-248 1168h246l131 -617l475 154q170 57 361.5 -8t316.5 -222q102 -123 133 -276l45 -213h268zM1577 248
q20 0 30.5 13.5t6.5 35.5l-35 164q-19 83 -74 153q-66 83 -168.5 115.5t-199.5 3.5l-543 -176l65 -309h918z" />
    <glyph glyph-name="uniFEC7" unicode="&#x638;" horiz-adv-x="1783" arabic-form="initial" 
d="M883 1460q60 0 111 -42t63 -101q14 -60 -19.5 -103t-93.5 -43t-112 43t-66 103q-12 59 22.5 101t94.5 42zM1610 737q100 -124 131 -276l55 -256q17 -85 -30 -145t-132 -60h-1503l-51 248h250l-250 1182h246l131 -617l473 154q170 57 362 -8t318 -222zM1532 297l-37 164
q-19 83 -74 153q-64 83 -167.5 115.5t-200.5 3.5l-543 -176l65 -309h918q20 0 31 13.5t8 35.5z" />
    <glyph glyph-name="uniFEC8" unicode="&#x638;" horiz-adv-x="1910" arabic-form="medial" 
d="M971 1171q-60 0 -112 43t-66 103q-12 59 22 101t94 42t111 -42t63 -101q14 -60 -19 -103t-93 -43zM2032 248l51 -248h-1952l-51 248h260l-250 1182h246l131 -619l473 156q170 55 362 -10t318 -220q100 -123 131 -276l45 -213h236zM1505 248q19 0 30 14t7 35l-37 164
q-16 84 -73 153q-64 82 -166.5 114.5t-200.5 4.5l-545 -176l66 -309h919z" />
    <glyph glyph-name="uniFECA" unicode="&#x639;" horiz-adv-x="1406" arabic-form="final" 
d="M1532 248l51 -248h-899q-73 0 -113.5 -52t-25.5 -126q15 -71 78.5 -122.5t136.5 -51.5h504l53 -250h-506q-174 0 -325 124.5t-189 299.5q-19 100 -7 176.5t50.5 129.5t92 82t116.5 34h47l-283 440l25 184q270 177 555 125q167 -31 293 -160t143 -286q8 -84 -11 -164.5
t-73 -134.5h287zM592 700l-2 -38l274 -400q51 11 90.5 34.5t61 52t37 62t18.5 63.5t5.5 56t-1.5 41q-6 63 -57 115t-117 64q-130 26 -309 -50z" />
    <glyph glyph-name="uniFECB" unicode="&#x639;" horiz-adv-x="1212" arabic-form="initial" 
d="M1192 248l53 -248h-1114l-51 248h205q-103 71 -131 209l-15 71q-20 127 24 234t140 169t223 62q142 0 281.5 -77.5t204.5 -198.5l-148 -162q-39 79 -114.5 134.5t-169.5 55.5t-148.5 -63.5t-40.5 -157.5l10 -65q21 -96 101.5 -153.5t181.5 -57.5h508z" />
    <glyph glyph-name="uniFECC" unicode="&#x639;" horiz-adv-x="1183" arabic-form="medial" 
d="M139 0l-51 248h291l-287 436l27 184q270 177 553 125q168 -31 293.5 -159.5t144.5 -286.5q7 -85 -12 -165t-72 -134h264l53 -248h-1204zM369 662l274 -400q44 9 79.5 28t58 42t38.5 51.5t23.5 54.5t11 53t3 46t-2.5 34q-4 63 -55 115t-119 64q-130 26 -309 -50z" />
    <glyph glyph-name="uniFECE" unicode="&#x63a;" horiz-adv-x="1406" arabic-form="final" 
d="M676 1171q-60 0 -112 43t-64 103q-12 59 21 101t93 42t112.5 -42.5t64.5 -100.5q12 -60 -21.5 -103t-93.5 -43zM1532 248l51 -248h-899q-73 0 -113.5 -52t-25.5 -126q15 -71 78.5 -122.5t136.5 -51.5h504l53 -250h-506q-174 0 -325 124.5t-189 299.5q-19 100 -7 176.5
t50.5 129.5t92 82t116.5 34h47l-283 440l25 184q270 177 555 125q167 -31 293 -160t143 -286q8 -84 -11 -164.5t-73 -134.5h287zM592 700l-2 -38l274 -400q51 11 90.5 34.5t61 52t37 62t18.5 63.5t5.5 56t-1.5 41q-6 63 -57 115t-117 64q-130 26 -309 -50z" />
    <glyph glyph-name="uniFECF" unicode="&#x63a;" horiz-adv-x="1212" arabic-form="initial" 
d="M416 1460q60 0 112 -42t64 -101q12 -60 -21.5 -103t-93.5 -43t-112 43t-64 103q-12 59 21.5 101t93.5 42zM1196 248l51 -248h-1116l-51 248h205q-107 99 -135 225l-11 59q-20 127 24 234t140 169t223 62q142 0 281.5 -78.5t204.5 -199.5l-148 -162q-41 80 -116 135.5
t-168 55.5q-94 0 -149 -64t-42 -158l10 -49q20 -99 102.5 -164t182.5 -65h512z" />
    <glyph glyph-name="uniFED0" unicode="&#x63a;" horiz-adv-x="1187" arabic-form="medial" 
d="M434 1460q60 0 112 -42t64 -101q12 -60 -21 -103t-93 -43t-112.5 43t-64.5 103q-12 59 21.5 101t93.5 42zM139 0l-51 248h291l-287 436l27 184q270 177 553 125q168 -31 293.5 -159.5t144.5 -286.5q7 -85 -12 -165t-72 -134h264l53 -248h-1204zM369 662l274 -400
q44 9 79.5 28t58 42t38.5 51.5t23.5 54.5t11 53t3 46t-2.5 34q-4 63 -55 115t-119 64q-130 26 -309 -50z" />
    <glyph glyph-name="uniFED2" unicode="&#x641;" horiz-adv-x="2121" arabic-form="final" 
d="M1341 1462q61 0 113 -41.5t64 -101.5t-21.5 -102.5t-93.5 -42.5t-112 42.5t-64 102.5t21 101.5t93 41.5zM2238 248l52 -248h-1585q-124 0 -243.5 62t-204.5 168.5t-112 232.5l-65 313h246l65 -313q20 -90 96 -152.5t166 -62.5h549q-119 102 -147 237l-8 37
q-27 128 16 236.5t139.5 171t224.5 63.5t250 -62.5t208.5 -172.5t113.5 -236l57 -274h182zM1810 248l-57 274q-19 92 -98.5 157.5t-171.5 65.5q-99 0 -155 -70t-36 -171l6 -19q21 -98 107.5 -166t187.5 -71h217z" />
    <glyph glyph-name="uniFED3" unicode="&#x641;" horiz-adv-x="1179" arabic-form="initial" 
d="M444 1462q62 0 113.5 -41.5t63.5 -101.5t-21 -102.5t-94 -42.5q-59 0 -111.5 43t-64.5 102q-12 60 21.5 101.5t92.5 41.5zM532 993h472l174 -819q15 -72 -25 -123t-111 -51h-911l-51 248h215q-106 95 -137 239l-11 50q-27 128 17 233t141.5 163.5t226.5 59.5zM909 281
l-102 479h-223q-99 0 -155 -70.5t-36 -171.5l10 -39q25 -97 108.5 -164t180.5 -67h191q14 0 21.5 10t4.5 23z" />
    <glyph glyph-name="uniFED4" unicode="&#x641;" horiz-adv-x="1245" arabic-form="medial" 
d="M518 1174q-59 0 -111.5 43t-64.5 102q-12 60 22 101.5t93 41.5q62 0 113 -41.5t63 -101.5t-21 -102.5t-94 -42.5zM1157 248h205l51 -248h-1278l-53 248h231q-108 97 -135 235l-10 43q-26 127 17 235.5t140.5 171.5t225.5 64q127 0 248.5 -63.5t207.5 -172t113 -235.5
l45 -217q5 -20 3 -40t-11 -21zM901 248q13 0 21 10t4 23l-52 245q-20 91 -99 157.5t-171 66.5q-99 0 -155.5 -68.5t-34.5 -167.5l8 -41q20 -95 105.5 -160t183.5 -65h190z" />
    <glyph glyph-name="uniFED6" unicode="&#x642;" horiz-adv-x="1642" arabic-form="final" 
d="M680 1462q62 0 113 -41.5t63 -101.5t-21 -102.5t-94 -42.5q-59 0 -111.5 43t-64.5 102q-12 60 22 101.5t93 41.5zM1061 1462q60 0 112 -41.5t64 -101.5t-21.5 -102.5t-93.5 -42.5t-112 42.5t-64 102.5t21.5 101.5t93.5 41.5zM1763 248l52 -248h-183l33 -150
q26 -117 -38 -199.5t-181 -82.5h-555q-113 0 -225.5 43.5t-202.5 117.5t-155.5 176.5t-88.5 215.5l-80 379h248l80 -373q26 -127 134.5 -217t236.5 -90h520q28 0 43 19t10 48l-27 113h-217q-133 0 -257 59.5t-211.5 165t-114.5 232.5l-9 49q-24 102 -4 191.5t69 156t131 105
t183 38.5q124 0 245.5 -62.5t208.5 -171t114 -235.5l59 -280h182zM1333 248l-59 280q-20 91 -98.5 156.5t-165.5 65.5q-103 0 -157.5 -71.5t-31.5 -172.5l8 -45q20 -91 103 -152t182 -61h219z" />
    <glyph glyph-name="uniFED7" unicode="&#x642;" horiz-adv-x="1200" arabic-form="initial" 
d="M334 1462q62 0 113 -41.5t63 -101.5t-21 -102.5t-94 -42.5q-59 0 -111.5 43t-64.5 102q-12 60 22 101.5t93 41.5zM715 1462q60 0 112 -41.5t64 -101.5t-21.5 -102.5t-93.5 -42.5t-112 42.5t-64 102.5t21.5 101.5t93.5 41.5zM553 993h469l176 -819q15 -72 -25 -123
t-112 -51h-930l-51 248h235q-106 95 -137 239l-10 50q-27 128 17 233t141.5 163.5t226.5 59.5zM930 281l-105 479h-223q-98 0 -153 -70.5t-35 -171.5l10 -39q23 -97 107.5 -164t181.5 -67h190q12 0 21 10t6 23z" />
    <glyph glyph-name="uniFED8" unicode="&#x642;" horiz-adv-x="1239" arabic-form="medial" 
d="M338 1174q-60 0 -112 42.5t-64 102.5t21 101.5t93 41.5q61 0 113 -41.5t64 -101.5t-21.5 -102.5t-93.5 -42.5zM717 1174q-59 0 -111.5 43t-64.5 102q-12 60 21.5 101.5t92.5 41.5q62 0 113 -41.5t63 -101.5q12 -61 -20.5 -103t-93.5 -42zM1163 248h193l51 -248h-1272
l-53 248h237q-107 96 -133 231l-12 47q-27 128 16 237t140.5 171.5t224.5 62.5q128 1 250 -62.5t208 -172.5t113 -236l43 -200q5 -24 3 -42t-4.5 -26t-4.5 -10zM907 248q13 0 21 10t4 23l-51 245q-20 93 -99.5 159.5t-171.5 66.5q-99 0 -154.5 -71.5t-33.5 -172.5l8 -39
q20 -95 104 -158t183 -63h190z" />
    <glyph glyph-name="uniFEDA" unicode="&#x643;" horiz-adv-x="1849" arabic-form="final" 
d="M1970 248l51 -248h-1308q-187 0 -348 133.5t-201 319.5l-70 327h246l70 -327q19 -86 92.5 -146.5t159.5 -60.5h643v2h137q24 6 35.5 24.5t5.5 42.5l-236 1115h246l250 -1182h227zM631 879l-27 127h68q-32 48 -37 86q-8 76 36.5 128t121.5 52q67 0 126.5 -35.5t94.5 -95.5
l-84 -72q-25 39 -49.5 57.5t-59.5 18.5q-29 0 -45 -19t-10 -47q6 -26 27.5 -49.5t56.5 -23.5h188l29 -127h-436z" />
    <glyph glyph-name="uniFEDB" unicode="&#x643;" horiz-adv-x="1441" arabic-form="initial" 
d="M727 997q145 0 283.5 -71t237 -195t130.5 -272l64 -303q14 -65 -22.5 -110.5t-100.5 -45.5h-1188l-51 248h1044q20 0 32 14.5t9 36.5l-30 143q-28 128 -136 217t-235 89h-473l-240 272l289 575l235 -143l-231 -455h383z" />
    <glyph glyph-name="uniFEDC" unicode="&#x643;" horiz-adv-x="1443" arabic-form="medial" 
d="M1565 248l51 -246l-1485 -2l-51 248h1014l-41 194q-28 128 -136 217t-235 89h-471l-195 276l299 590l232 -144l-240 -473h338q146 0 285 -71t237 -195t129 -272l45 -211h224z" />
    <glyph glyph-name="uniFEDE" unicode="&#x644;" horiz-adv-x="1525" arabic-form="final" 
d="M1630 248q50 0 94 -36t56 -89q10 -51 -19 -87t-80 -36h-116q-69 0 -113 47l53 -256q17 -79 -27 -134.5t-122 -55.5h-477q-148 0 -290 73t-243 199.5t-133 276.5l-74 350h248l76 -350q26 -126 131.5 -214t230.5 -88h369q50 0 37 72l-322 1510h248l227 -1070
q9 -45 47 -78.5t80 -33.5h119z" />
    <glyph glyph-name="uniFEDF" unicode="&#x644;" horiz-adv-x="612" arabic-form="initial" 
d="M147 0q-51 0 -95 36t-54 87q-11 53 17 89t79 36h107q37 0 57.5 25.5t13.5 62.5l-231 1094h246l233 -1094q29 -138 -48.5 -237t-215.5 -99h-109z" />
    <glyph glyph-name="uniFEE0" unicode="&#x644;" horiz-adv-x="641" arabic-form="medial" 
d="M743 248q53 0 96.5 -35.5t55.5 -87.5q10 -52 -19.5 -88.5t-80.5 -36.5h-47q-151 0 -289 111q-36 -51 -96.5 -81t-133.5 -30h-75q-56 0 -101 35.5t-55 89.5q-12 52 17 87.5t85 35.5h50q58 0 91 41t21 100l-221 1041h248l221 -1043q20 -59 73 -99t111 -40h49z" />
    <glyph glyph-name="uniFEE2" unicode="&#x645;" horiz-adv-x="1366" arabic-form="final" 
d="M1491 248l53 -248h-131q-81 0 -158 37.5t-129 99.5q-48 -65 -123.5 -101t-168.5 -36q-131 0 -252 78l8 -53q21 -185 -71.5 -299.5t-266.5 -149.5l-98 242q230 50 180 284l-189 891h478q131 0 255 -65.5t211.5 -176.5t114.5 -241l37 -168q9 -39 43.5 -66.5t75.5 -27.5h131
zM780 248q98 0 152 63.5t39 159.5l-10 39q-20 97 -102.5 164t-182.5 67h-232l60 -276q21 -97 101.5 -157t174.5 -60z" />
    <glyph glyph-name="uniFEE3" unicode="&#x645;" horiz-adv-x="1265" arabic-form="initial" 
d="M84 248q-52 0 -80.5 -36t-17.5 -87q10 -51 53 -87t94 -38h68q83 0 147.5 38.5t95.5 106.5q78 -68 173 -107t192 -38q95 1 175.5 37.5t132.5 98.5t73.5 147.5t3.5 179.5l-8 37q-29 138 -116.5 251.5t-212.5 177.5t-261 64h-494l136 -633q11 -53 -11.5 -82.5t-79.5 -29.5
h-63zM754 248q-100 0 -183.5 61t-107.5 158l-60 281h236q106 0 192.5 -68t106.5 -170l8 -35q19 -95 -38 -161t-154 -66z" />
    <glyph glyph-name="uniFEE4" unicode="&#x645;" horiz-adv-x="1288" arabic-form="medial" 
d="M1409 248q52 0 97 -36.5t55 -88.5q10 -51 -19 -87t-80 -36h-69q-82 0 -158.5 38.5t-128.5 102.5q-47 -66 -122.5 -103.5t-168.5 -37.5q-213 0 -375 143q-31 -67 -94.5 -105t-146.5 -38h-78q-51 2 -95.5 38t-54.5 87q-11 51 18 87t81 36h75q52 0 76 30.5t12 83.5l-133 631
h504q128 0 251 -62t211.5 -169t117.5 -234l39 -182q9 -41 43 -69.5t73 -28.5h70zM944 483l-8 41q-25 97 -108.5 159t-192.5 62h-232l58 -272q20 -93 103 -159t177 -66q115 0 170 67t33 168z" />
    <glyph glyph-name="uniFEE6" unicode="&#x646;" horiz-adv-x="1513" arabic-form="final" 
d="M1616 248q52 0 97 -37t56 -88q10 -52 -19.5 -87.5t-82.5 -35.5h-111q-68 0 -112 47l55 -252q15 -80 -27.5 -136t-121.5 -56h-473q-149 0 -291 73.5t-242 200t-131 275.5l-74 348h246l74 -348q26 -125 132.5 -214.5t231.5 -89.5h340q32 0 50 22.5t12 53.5l-226 1055h246
l135 -635q12 -40 47.5 -68t75.5 -28h113zM612 979q61 0 114 -42t65 -101q12 -60 -21.5 -103t-93.5 -43t-112 43t-64 103q-12 59 21 101t91 42z" />
    <glyph glyph-name="uniFEE7" unicode="&#x646;" horiz-adv-x="600" arabic-form="initial" 
d="M193 1460q61 0 112.5 -42t63.5 -101q12 -61 -21 -103.5t-94 -42.5q-59 0 -111.5 43t-64.5 103q-12 58 22 100.5t93 42.5zM291 0h-141q-51 0 -96.5 37t-55.5 88q-12 53 17.5 88t82.5 35h142q41 0 61.5 26.5t11.5 65.5l-137 649h248l137 -649q31 -139 -49 -239.5
t-221 -100.5z" />
    <glyph glyph-name="uniFEE8" unicode="&#x646;" horiz-adv-x="690" arabic-form="medial" 
d="M215 1298q60 0 113 -42.5t65 -100.5q12 -61 -22.5 -103t-94.5 -42t-111 42t-63 103q-12 59 20.5 101t92.5 42zM793 248q52 0 95.5 -35t55.5 -88q10 -52 -19.5 -88.5t-80.5 -36.5h-76q-148 0 -289 111q-35 -51 -94.5 -81t-132.5 -30h-98q-56 0 -101 35.5t-55 87.5
q-12 54 17 89.5t85 35.5h72q57 0 90 41.5t21 99.5l-86 402h247l88 -404q19 -59 72 -99t113 -40h76z" />
    <glyph glyph-name="uniFEEA" unicode="&#x647;" horiz-adv-x="1290" arabic-form="final" 
d="M1393 248q52 0 95.5 -36t55.5 -87q10 -51 -18.5 -87t-79.5 -38h-111q-83 0 -163 38.5t-142 106.5q-47 -68 -125 -106.5t-176 -38.5q-129 0 -254.5 62.5t-214.5 171t-115 235.5l-12 53q-42 209 67 340t320 131h492l135 -633q26 -112 137 -112h109zM678 248
q101 0 157.5 71.5t34.5 172.5l-55 253h-244q-98 0 -156 -60.5t-36 -162.5l8 -43q22 -96 107.5 -163.5t183.5 -67.5z" />
    <glyph glyph-name="uniFEEB" unicode="&#x647;" horiz-adv-x="1576" arabic-form="initial" 
d="M670 1247q200 -38 377 -153.5t305.5 -298.5t175.5 -402l31 -147q22 -101 -35 -173.5t-158 -72.5h-1235l-51 246h242q-48 45 -85.5 110t-52.5 131q-37 179 73 294.5t302 115.5q198 0 362.5 -141t206.5 -342l17 -78q12 -48 6 -90h121q18 0 27.5 12.5t5.5 30.5l-23 104
q-51 237 -215 404t-383 207q-146 28 -324 28l-49 244q142 -1 197.5 -6t161.5 -23zM610 651q-81 0 -136 -55.5t-36 -142.5q19 -88 89.5 -147.5t140.5 -59.5h198q22 0 34.5 14.5t8.5 36.5l-28 139q-16 77 -96 145.5t-175 69.5z" />
    <glyph glyph-name="uniFEEC" unicode="&#x647;" horiz-adv-x="1366" arabic-form="medial" 
d="M1350 0l6 -29q41 -196 -68 -311t-338 -115q-190 0 -359.5 121.5t-242.5 304.5l-10 29h-207l-51 248h194l-45 211q-44 212 66.5 368t308.5 164q213 9 408 -141q90 -70 151.5 -166.5t83.5 -200.5q27 -130 -12 -235h250l53 -248h-188zM477 459l45 -211h199q41 0 82 6.5
t83.5 23t72 42t43 68t2.5 95.5q-27 123 -123 191q-90 72 -209 69q-104 -4 -161 -87.5t-34 -196.5zM899 -211q111 0 166.5 68t34.5 168l-13 53q-122 -78 -313 -78h-180l10 -23q40 -83 122 -135.5t173 -52.5z" />
    <glyph glyph-name="uniFEEE" unicode="&#x648;" horiz-adv-x="1202" arabic-form="final" 
d="M1374 0h-176q28 -199 -82 -324q-89 -105 -227.5 -139.5t-425.5 -32.5l-49 246q215 -2 325 17t172 90q38 45 33 118l-2 25h-207q-205 0 -379.5 146.5t-218.5 355.5q-23 103 -2 192.5t71.5 156t133.5 104.5t184 38h463l158 -745h178zM897 248l-106 497h-213
q-105 0 -161 -69.5t-34 -173.5q23 -106 110 -180t191 -74h213z" />
    <glyph glyph-name="uniFEF0" unicode="&#x649;" horiz-adv-x="1800" arabic-form="final" 
d="M1901 248q52 0 96.5 -34.5t54.5 -86.5q12 -52 -17.5 -89.5t-82.5 -37.5q-65 0 -156 16q43 -46 53 -106q24 -109 -10.5 -203t-116 -148.5t-190.5 -54.5h-625q-152 0 -297.5 75.5t-249 205.5t-135.5 283l-80 372h248l80 -372q28 -130 140 -223t241 -93h627q63 0 99.5 47.5
t21.5 110.5q-11 57 -53.5 103t-102.5 63l-352 131l61 227q265 -105 283 -110q229 -76 463 -76z" />
    <glyph glyph-name="uniFEF2" unicode="&#x64a;" horiz-adv-x="1800" arabic-form="final" 
d="M1901 248q52 0 96.5 -34.5t54.5 -86.5q12 -52 -17.5 -89.5t-82.5 -37.5q-65 0 -156 16q43 -46 53 -106q24 -109 -10.5 -203t-116 -148.5t-190.5 -54.5h-625q-152 0 -297.5 75.5t-249 205.5t-135.5 283l-80 372h248l80 -372q28 -130 140 -223t241 -93h627q63 0 99.5 47.5
t21.5 110.5q-11 57 -53.5 103t-102.5 63l-352 131l61 227q265 -105 283 -110q229 -76 463 -76zM1032 -627q61 0 113.5 -42t64.5 -101q12 -60 -22 -102.5t-94 -42.5t-111 42.5t-63 102.5t20 101.5t92 41.5zM1413 -627q61 0 113.5 -42t64.5 -101q12 -60 -21.5 -102.5
t-94.5 -42.5q-59 0 -111 42.5t-64 102.5t20.5 101.5t92.5 41.5z" />
    <glyph glyph-name="uniFEF3" unicode="&#x64a;" horiz-adv-x="792" arabic-form="initial" 
d="M500 0h-350q-51 0 -96.5 37t-55.5 88q-12 53 17.5 88t82.5 35h351q41 0 61.5 26.5t11.5 65.5l-137 649h248l137 -649q31 -139 -49 -239.5t-221 -100.5zM350 -170q60 0 112 -42t64 -101q12 -61 -21 -103.5t-93 -42.5t-112 42.5t-64 103.5q-12 59 21 101t93 42zM731 -170
q61 0 112.5 -42t63.5 -101q13 -61 -20.5 -103.5t-93.5 -42.5t-112 42.5t-65 103.5q-12 58 22 100.5t93 42.5z" />
    <glyph glyph-name="uniFEF4" unicode="&#x64a;" horiz-adv-x="849" arabic-form="medial" 
d="M952 248q53 0 96.5 -35.5t55.5 -87.5q10 -52 -19.5 -88.5t-80.5 -36.5h-154q-151 0 -289 111q-36 -51 -96 -81t-133 -30h-178q-56 0 -101 35.5t-55 89.5q-12 52 17 87.5t85 35.5h152q59 0 92 41.5t21 99.5l-95 432h250l92 -434q20 -59 73.5 -99t111.5 -40h155zM403 -170
q60 0 112.5 -42.5t64.5 -100.5q12 -61 -22.5 -103.5t-94.5 -42.5t-111 42.5t-63 103.5q-12 59 21 101t93 42zM784 -170q60 0 112.5 -42.5t64.5 -100.5q12 -62 -22 -104t-95 -42q-59 0 -110.5 42.5t-63.5 103.5q-12 59 21 101t93 42z" />
    <glyph glyph-name=".notdef" horiz-adv-x="972" 
d="M799 1434v-1946h-619v1946h619zM647 1303h-319v-64h125v-72h-127v-63h321v63h-127v72h127v64zM520 1053h-194v-203h321v65h-127v138zM453 987v-72h-64v72h64zM647 797h-321v-64h127v-71h-127v-64h194v135h127v64zM647 680h-63v-127h-258v-68h321v195zM647 442h-194v-108
h67v45h64v-92h-195v155h-63v-219h321v219zM647 106h-321v-219h321v219zM584 43v-92h-195v92h195zM647 -158h-321v-63h135l-135 -92v-64h321v64h-198l137 92h61v63z" />
    <glyph glyph-name=".null" horiz-adv-x="921" 
 />
    <glyph glyph-name="nonmarkingreturn" horiz-adv-x="682" 
 />
    <glyph glyph-name="CR" unicode="&#xd;" horiz-adv-x="466" 
 />
    <glyph glyph-name="space" unicode=" " horiz-adv-x="436" 
 />
    <glyph glyph-name="exclam" unicode="!" horiz-adv-x="632" 
d="M326 1434h284l-223 -957h-242zM29 143q14 77 65 123.5t127 50.5q78 5 115.5 -35t25.5 -118q-11 -74 -62 -122t-128 -52q-75 -4 -113.5 37t-29.5 116z" />
    <glyph glyph-name="quotedbl" unicode="&#x22;" horiz-adv-x="890" 
d="M256 1462h276l-157 -579h-205zM674 1462h276l-157 -579h-205z" />
    <glyph glyph-name="numbersign" unicode="#" horiz-adv-x="1474" 
d="M1165 854l-112 -274h217l-41 -193h-254l-148 -356h-217l146 356h-307l-146 -356h-219l147 356h-211l41 193h248l113 274h-217l41 193h254l145 356h219l-145 -356h307l145 356h218l-146 -356h211l-41 -193h-248zM946 854h-307l-113 -274h308z" />
    <glyph glyph-name="dollar" unicode="$" horiz-adv-x="1228" 
d="M1092 442q-37 -176 -185.5 -286.5t-369.5 -122.5l-29 -135h-105l29 135q-172 12 -286.5 88.5t-151.5 202.5l207 143q69 -172 282 -197l74 348l-88 23q-357 91 -295 375q35 168 182.5 272t366.5 113l29 135h104l-29 -137q151 -12 251 -75t136 -165l-206 -141
q-64 129 -232 147l-69 -325l106 -27q341 -86 279 -371zM610 866l64 305q-99 -6 -160 -45t-76 -104q-10 -59 26.5 -92t145.5 -64zM586 268q101 4 162 47t79 117q12 64 -25.5 99t-146.5 63z" />
    <glyph glyph-name="percent" unicode="%" horiz-adv-x="1810" 
d="M432 723q-163 0 -248 104t-51 265q35 161 163.5 265.5t291.5 104.5t248.5 -104.5t50.5 -265.5q-34 -161 -163 -265t-292 -104zM1427 1434h236l-1280 -1434h-236zM471 909q78 0 137 50.5t76 132.5q19 83 -18.5 133.5t-114.5 50.5q-78 0 -137 -50.5t-78 -133.5
q-19 -81 19 -132t116 -51zM1223 -29q-163 0 -248.5 105t-50.5 266q34 161 162.5 266t291.5 105t248 -105t51 -266q-35 -161 -163 -266t-291 -105zM1260 160q78 0 137 50t78 132q19 83 -19 133.5t-117 50.5q-78 0 -137 -50.5t-76 -133.5q-19 -81 19 -131.5t115 -50.5z" />
    <glyph glyph-name="ampersand" unicode="&#x26;" horiz-adv-x="1433" 
d="M961 0l-80 119q-198 -148 -441 -148q-222 0 -333 112.5t-74 287.5q26 122 120.5 221t272.5 192q-65 101 -87 180.5t-3 157.5q30 145 159 242.5t310 97.5q177 0 264.5 -92t56.5 -240q-23 -112 -113.5 -206t-262.5 -185l180 -272q72 110 114 250h240q-83 -256 -229 -438
l186 -279h-280zM573 1108q-10 -48 7.5 -94.5t68.5 -122.5q114 60 168 108.5t64 106.5q15 62 -20 101.5t-103 39.5t-120 -39t-65 -100zM508 205q140 0 246 84l-224 334q-193 -99 -223 -232q-19 -85 35 -135.5t166 -50.5z" />
    <glyph glyph-name="quotesingle" unicode="'" horiz-adv-x="471" 
d="M256 1462h276l-157 -579h-205z" />
    <glyph glyph-name="parenleft" unicode="(" horiz-adv-x="706" 
d="M246 -260q-116 181 -150.5 423t17.5 476q49 238 187 478.5t327 420.5l180 -121q-157 -157 -271.5 -364t-158.5 -414q-44 -203 -18 -412.5t118 -365.5z" />
    <glyph glyph-name="parenright" unicode=")" horiz-adv-x="706" 
d="M563 639q-51 -239 -188 -479t-326 -420l-182 121q158 157 272 366t158 412q44 199 17.5 412t-117.5 366l233 121q114 -179 149 -422.5t-16 -476.5z" />
    <glyph glyph-name="asterisk" unicode="*" horiz-adv-x="952" 
d="M670 993l139 -241l-180 -113l-115 256l-227 -254l-131 113l241 241l-278 82l100 185l264 -107l54 307h194l-80 -309l312 107l20 -185z" />
    <glyph glyph-name="plus" unicode="+" 
d="M1149 530h-336l-76 -360h-252l76 360h-334l52 238h333l78 362h252l-78 -362h336z" />
    <glyph glyph-name="comma" unicode="," horiz-adv-x="518" 
d="M72 285h266l-285 -607h-217z" />
    <glyph glyph-name="hyphen" unicode="-" horiz-adv-x="763" 
d="M78 702h604l-51 -229h-604z" />
    <glyph glyph-name="period" unicode="." horiz-adv-x="559" 
d="M-8 143q13 76 65 122.5t127 51.5q79 5 117 -35.5t25 -117.5q-9 -74 -60.5 -122t-128.5 -52q-76 -4 -115 37t-30 116z" />
    <glyph glyph-name="slash" unicode="/" horiz-adv-x="1034" 
d="M938 1516h256l-1120 -1709h-256z" />
    <glyph glyph-name="zero" unicode="0" horiz-adv-x="1429" 
d="M557 -29q-175 0 -290.5 94.5t-151.5 260t8 391.5q70 334 276.5 539.5t472.5 205.5q175 0 290.5 -94t151 -259.5t-8.5 -391.5q-71 -335 -277 -540.5t-471 -205.5zM610 221q139 0 252.5 136t163.5 360q47 224 -10 359.5t-197 135.5t-254.5 -135.5t-161.5 -359.5
q-47 -223 9.5 -359.5t197.5 -136.5z" />
    <glyph glyph-name="one" unicode="1" horiz-adv-x="866" 
d="M846 1434l-303 -1434h-271l244 1151l-348 2l57 281h621z" />
    <glyph glyph-name="two" unicode="2" horiz-adv-x="1196" 
d="M1016 248l-51 -248h-1041l43 201l637 497q144 110 208 185t79 145q17 85 -30 134.5t-140 49.5q-104 0 -203 -63t-184 -188l-191 129q110 179 274.5 275.5t354.5 96.5q216 0 325 -119t70 -303q-25 -113 -103 -215t-228 -219l-457 -358h637z" />
    <glyph glyph-name="three" unicode="3" horiz-adv-x="1165" 
d="M813 729q129 -40 181 -127t26 -215q-39 -184 -206.5 -300t-407.5 -116q-160 0 -283 56.5t-191 165.5l193 180q113 -156 317 -156q125 0 208 55t102 148q20 90 -51.5 138t-233.5 48h-111l54 242h157q125 0 201.5 47.5t93.5 132.5q19 87 -30.5 138t-157.5 51
q-199 0 -371 -175l-145 170q114 120 262 185t313 65q229 0 338.5 -109.5t71.5 -293.5q-26 -125 -111.5 -210.5t-218.5 -119.5z" />
    <glyph glyph-name="four" unicode="4" horiz-adv-x="1257" 
d="M289 518h452l93 438h264l-92 -438h180l-49 -223h-179l-63 -295h-264l63 295h-721l50 223l915 916l143 -123z" />
    <glyph glyph-name="five" unicode="5" horiz-adv-x="1204" 
d="M715 915q214 0 313.5 -120.5t54.5 -331.5q-50 -230 -224.5 -361t-432.5 -131q-306 0 -471 215l192 187q123 -156 324 -156q132 0 223.5 64t114.5 176q23 107 -34.5 171t-176.5 64q-139 0 -276 -92h-197l176 834h901l-51 -240h-649l-74 -348q132 69 287 69z" />
    <glyph glyph-name="six" unicode="6" horiz-adv-x="1220" 
d="M676 979q244 0 366.5 -135t73.5 -357q-49 -232 -231 -371t-428 -139q-248 0 -371 139t-74 371q23 110 85 222t204 286l367 439h303l-426 -482q55 27 131 27zM502 193q127 0 220.5 78.5t121.5 209.5q29 131 -30 210t-183 79q-130 0 -225 -79t-123 -210t32 -209.5
t187 -78.5z" />
    <glyph glyph-name="seven" unicode="7" horiz-adv-x="1087" 
d="M1202 1434l-47 -224l-838 -1210h-303l836 1186h-713l51 248h1014z" />
    <glyph glyph-name="eight" unicode="8" horiz-adv-x="1273" 
d="M909 737q120 -38 178.5 -134t32.5 -216q-40 -187 -216 -301.5t-425 -114.5q-250 0 -378.5 114t-90.5 302q26 120 126 216t237 134q-101 37 -149.5 127t-26.5 199q38 180 202.5 289.5t395.5 109.5t348.5 -109.5t79.5 -289.5q-23 -109 -109.5 -199t-204.5 -127zM455 1036
q-19 -91 38 -146.5t169 -55.5t191 55.5t99 146.5q20 92 -36 148.5t-168 56.5t-192.5 -56.5t-100.5 -148.5zM526 203q124 0 212 58t108 153q22 95 -42 153t-188 58q-123 0 -211 -58t-108 -153t43 -153t186 -58z" />
    <glyph glyph-name="nine" unicode="9" horiz-adv-x="1230" 
d="M547 461q-245 0 -367.5 134t-75.5 357q49 232 230.5 371t429.5 139t370.5 -139t73.5 -371q-23 -108 -85.5 -224t-202.5 -284l-379 -438h-303l440 481q-62 -26 -131 -26zM719 1247q-127 0 -220.5 -79t-121.5 -210t30.5 -209.5t182.5 -78.5q128 0 224.5 78.5t125.5 209.5
q28 131 -33 210t-188 79z" />
    <glyph glyph-name="colon" unicode=":" horiz-adv-x="569" 
d="M281 676q-78 0 -116.5 48.5t-21.5 127.5q17 81 75 127.5t138 46.5q82 0 118.5 -46t19.5 -128q-17 -81 -74 -128.5t-139 -47.5zM133 -23q-78 0 -116 48.5t-23 128.5q19 81 76.5 128.5t136.5 47.5q83 0 119.5 -47t17.5 -129q-15 -80 -72 -128.5t-139 -48.5z" />
    <glyph glyph-name="semicolon" unicode=";" horiz-adv-x="550" 
d="M152 842q10 76 61.5 122.5t128.5 51.5q78 4 115.5 -36.5t25.5 -117.5q-11 -75 -61.5 -122.5t-128.5 -51.5q-77 -5 -115 37t-26 117zM72 285h266l-285 -607h-217z" />
    <glyph glyph-name="less" unicode="&#x3c;" 
d="M1221 864l-615 -215l522 -215l-53 -252l-848 353l49 231l996 350z" />
    <glyph glyph-name="equal" unicode="=" 
d="M326 993h921l-51 -237h-922zM229 543h922l-49 -238h-922z" />
    <glyph glyph-name="greater" unicode="&#x3e;" 
d="M1198 766l-49 -231l-995 -353l53 252l612 215l-520 215l51 252z" />
    <glyph glyph-name="question" unicode="?" horiz-adv-x="956" 
d="M291 586q26 108 61 153.5t160 137.5l109 75q98 70 116 148q12 62 -23.5 95.5t-105.5 33.5q-172 0 -317 -189l-164 129q97 137 237 215t298 78q180 0 274 -97t61 -257q-19 -87 -74.5 -159t-166.5 -150l-97 -70q-67 -48 -87.5 -75t-32.5 -85l-19 -92h-252zM158 143
q14 77 65 123.5t127 50.5q79 5 116.5 -35t25.5 -118q-11 -74 -62.5 -122t-128.5 -52q-75 -4 -113.5 37t-29.5 116z" />
    <glyph glyph-name="at" unicode="@" horiz-adv-x="1990" 
d="M1165 1366q144 2 270.5 -36.5t220 -110.5t155 -173.5t77 -226t-13.5 -268.5q-51 -235 -193 -381.5t-315 -146.5q-102 0 -170 53t-74 143q-123 -190 -344 -190q-191 0 -276.5 117.5t-44.5 316.5q40 191 181.5 311.5t328.5 120.5q95 0 161 -40.5t78 -106.5l27 126h201
l-111 -524q-9 -64 13.5 -98.5t68.5 -34.5q73 0 139.5 82.5t97.5 226.5q32 147 6 262.5t-97 195.5t-182.5 122.5t-252.5 42.5q-309 0 -543 -192t-299 -498q-64 -302 90.5 -488t469.5 -186q231 0 393 84l57 -193q-208 -108 -500 -108q-134 -1 -251 28t-207.5 84.5t-159 135.5
t-104 179t-43 215.5t23.5 246.5q38 193 146.5 363.5t258.5 290.5t337.5 188.5t379.5 66.5zM854 221q98 0 176.5 68.5t102.5 179.5q23 111 -27 179.5t-148 68.5t-174 -70t-98 -178q-25 -112 22 -180t146 -68z" />
    <glyph glyph-name="A" unicode="A" horiz-adv-x="1445" 
d="M932 281h-604l-164 -281h-295l852 1434h291l262 -1434h-293zM897 518l-80 645l-352 -645h432z" />
    <glyph glyph-name="B" unicode="B" horiz-adv-x="1390" 
d="M1040 756q126 -39 178 -126t23 -220q-22 -103 -82 -183.5t-144 -129t-182.5 -73t-205.5 -24.5h-611l303 1434h617q220 0 323 -94.5t66 -266.5q-51 -239 -285 -317zM547 1202l-78 -360l330 -2q82 0 147.5 56t79.5 130q12 74 -29.5 125t-119.5 51h-330zM682 231
q106 0 178.5 53.5t91.5 145.5q19 91 -31 144t-155 53h-346l-84 -396h346z" />
    <glyph glyph-name="C" unicode="C" horiz-adv-x="1517" 
d="M690 -29q-118 0 -216 26.5t-168.5 74.5t-122 115.5t-74.5 150.5t-27 178.5t20 198.5q33 156 113 292t195.5 236.5t269.5 158.5t326 58q202 0 341 -95.5t197 -268.5l-252 -133q-35 108 -124.5 172.5t-215.5 64.5q-210 0 -364.5 -137.5t-198.5 -347.5q-29 -137 1 -246.5
t121.5 -174.5t233.5 -65q129 0 247.5 65.5t197.5 176.5l192 -139q-124 -177 -304 -269t-388 -92z" />
    <glyph glyph-name="D" unicode="D" horiz-adv-x="1501" 
d="M868 1434q198 0 335.5 -95t190 -258.5t9.5 -363.5q-43 -202 -163.5 -365t-298 -257.5t-376.5 -94.5h-549l303 1434h549zM586 256q195 0 340.5 130.5t187.5 330.5q42 201 -48.5 331t-285.5 130h-239l-197 -922h242z" />
    <glyph glyph-name="E" unicode="E" horiz-adv-x="1267" 
d="M1051 250l-52 -250h-983l303 1434h963l-53 -250h-686l-74 -346h641l-53 -246h-639l-74 -342h707z" />
    <glyph glyph-name="F" unicode="F" horiz-adv-x="1187" 
d="M545 1184l-88 -410h616l-55 -252h-615l-110 -522h-277l303 1434h930l-51 -250h-653z" />
    <glyph glyph-name="G" unicode="G" horiz-adv-x="1581" 
d="M1487 805l-117 -543q-140 -140 -314.5 -215.5t-367.5 -75.5q-118 0 -216.5 26.5t-169 74.5t-121 115.5t-73.5 149.5t-26.5 177.5t20.5 198.5q33 157 113 293t195 237t269 159t325 58q183 0 321.5 -80.5t208.5 -220.5l-262 -155q-39 93 -122 144.5t-200 51.5
q-209 0 -364 -138.5t-199 -348.5q-29 -136 1 -244.5t121 -173.5t232 -66q240 0 402 144l43 205h-320l49 227h572z" />
    <glyph glyph-name="H" unicode="H" horiz-adv-x="1540" 
d="M1524 1434l-303 -1434h-277l117 553h-651l-117 -553h-277l303 1434h277l-131 -625h651l131 625h277z" />
    <glyph glyph-name="I" unicode="I" horiz-adv-x="620" 
d="M324 1434h276l-303 -1434h-277z" />
    <glyph glyph-name="J" unicode="J" horiz-adv-x="1216" 
d="M397 -31q-130 0 -232 62.5t-150.5 168.5t-30.5 228l290 88l-8 -41q-20 -97 35 -166t154 -69q97 0 181.5 69t104.5 166l203 959h277l-203 -951q-29 -140 -122.5 -258.5t-226.5 -187t-272 -68.5z" />
    <glyph glyph-name="K" unicode="K" horiz-adv-x="1386" 
d="M1526 1434l-807 -721l500 -713h-342l-369 524l-127 -104l-88 -420h-277l303 1434h277l-139 -662l733 662h336z" />
    <glyph glyph-name="L" unicode="L" horiz-adv-x="1185" 
d="M1030 256l-53 -256h-961l303 1434h277l-250 -1178h684z" />
    <glyph glyph-name="M" unicode="M" horiz-adv-x="1914" 
d="M1896 1434l-303 -1434h-272l221 1044l-639 -1044h-213l-180 1044l-219 -1044h-275l303 1434h357l188 -1119l688 1119h344z" />
    <glyph glyph-name="N" unicode="N" horiz-adv-x="1589" 
d="M1573 1434l-303 -1434h-260l-512 983l-209 -983h-273l303 1434h261l512 -983l208 983h273z" />
    <glyph glyph-name="O" unicode="O" horiz-adv-x="1701" 
d="M694 -29q-217 0 -368 95t-210 265t-14 386q45 215 176.5 385t323 265t408.5 95t367.5 -95t209 -264.5t12.5 -385.5q-34 -161 -118.5 -300t-203 -237t-269.5 -153.5t-314 -55.5zM748 231q203 0 363 137t204 349q46 212 -56 348.5t-305 136.5q-202 0 -361.5 -136.5
t-205.5 -348.5q-44 -212 57.5 -349t303.5 -137z" />
    <glyph glyph-name="P" unicode="P" horiz-adv-x="1341" 
d="M944 1434q209 0 312 -137t57 -355t-207 -354.5t-371 -136.5h-348l-94 -451h-277l303 1434h625zM752 700q99 0 174.5 64t99.5 178q23 104 -26 173t-146 69h-309l-105 -484h312z" />
    <glyph glyph-name="Q" unicode="Q" horiz-adv-x="1699" 
d="M1602 717q-33 -157 -125.5 -296.5t-225.5 -242.5l101 -170l-213 -145l-109 182q-167 -74 -338 -74q-117 0 -215 26.5t-169 75t-123 117t-76 151t-28.5 178t19.5 198.5q33 154 114 290t197 237t271 159.5t326 58.5q123 0 230 -38t184 -105.5t128.5 -161t63.5 -204.5
t-12 -236zM748 229q65 0 151 35l-104 178l213 146l114 -191q71 62 122 145t71 175q28 132 -10.5 243.5t-131.5 176.5t-219 65q-206 0 -363.5 -139.5t-201.5 -345.5q-29 -135 2.5 -245t124 -176.5t232.5 -66.5z" />
    <glyph glyph-name="R" unicode="R" horiz-adv-x="1353" 
d="M559 506h-164l-104 -504h-277l303 1432h650q126 0 220 -62t133.5 -168.5t12.5 -232.5q-33 -157 -152 -279t-272 -162l-45 -6l264 -518l-329 -6zM451 756h337q88 0 164 62.5t95 152.5q20 88 -29.5 150.5t-138.5 62.5h-338z" />
    <glyph glyph-name="S" unicode="S" horiz-adv-x="1296" 
d="M496 -29q-211 0 -345.5 83.5t-179.5 236.5l224 151q88 -221 362 -221q131 0 218 49t106 133q12 67 -29 109t-156 70l-209 53q-384 98 -317 405q40 190 208.5 306t418.5 116q189 0 318.5 -75t176.5 -203l-221 -154q-94 184 -328 184q-125 0 -199.5 -44t-92.5 -123
q-12 -61 30 -100.5t162 -69.5l217 -56q369 -92 303 -403q-43 -201 -225 -324t-442 -123z" />
    <glyph glyph-name="T" unicode="T" horiz-adv-x="1247" 
d="M584 1178h-443l54 256h1161l-53 -256h-443l-250 -1178h-274z" />
    <glyph glyph-name="U" unicode="U" horiz-adv-x="1503" 
d="M596 -25q-269 0 -399 167.5t-74 430.5l182 861h277l-185 -875q-33 -150 33 -236.5t221 -86.5q164 0 262.5 85t130.5 238l185 875h278l-182 -861q-57 -266 -254 -432t-475 -166z" />
    <glyph glyph-name="V" unicode="V" horiz-adv-x="1406" 
d="M1538 1434l-821 -1434h-324l-219 1434h297l152 -1110l618 1110h297z" />
    <glyph glyph-name="W" unicode="W" horiz-adv-x="2164" 
d="M1982 1434h295l-733 -1434h-307l-100 899l-512 -899h-306l-129 1434h297l82 -1047l609 1047h141l137 -1049z" />
    <glyph glyph-name="X" unicode="X" horiz-adv-x="1316" 
d="M821 0l-203 502l-425 -502h-320l623 727l-285 707h311l191 -494l401 494h311l-589 -709l305 -725h-320z" />
    <glyph glyph-name="Y" unicode="Y" horiz-adv-x="1318" 
d="M1475 1434l-709 -865l-121 -569h-278l120 569l-340 865h316l219 -600l475 600h318z" />
    <glyph glyph-name="Z" unicode="Z" horiz-adv-x="1247" 
d="M1065 248l-53 -248h-1080l43 207l916 979h-692l51 248h1057l-43 -207l-916 -979h717z" />
    <glyph glyph-name="bracketleft" unicode="[" horiz-adv-x="784" 
d="M547 1280l-273 -1282h289l-49 -236h-549l373 1754h549l-51 -236h-289z" />
    <glyph glyph-name="backslash" unicode="\" horiz-adv-x="1034" 
d="M575 -193l-395 1709h256l395 -1709h-256z" />
    <glyph glyph-name="bracketright" unicode="]" horiz-adv-x="784" 
d="M786 1516l-372 -1754h-551l49 236h289l272 1282h-287l52 236h548z" />
    <glyph glyph-name="asciicircum" unicode="^" horiz-adv-x="1206" 
d="M870 719l-174 428l-356 -428h-287l572 665h239l293 -665h-287z" />
    <glyph glyph-name="underscore" unicode="_" horiz-adv-x="897" 
d="M-174 -102h897l-41 -193h-897z" />
    <glyph glyph-name="grave" unicode="`" horiz-adv-x="1269" 
d="M602 1190l-219 342h311l166 -342h-258z" />
    <glyph glyph-name="a" unicode="a" horiz-adv-x="1140" 
d="M879 0h-226l35 170q-58 -91 -159.5 -142t-231.5 -51q-179 0 -257.5 91t-45.5 241q17 82 64.5 144t117 100t160.5 57.5t194.5 19t217.5 -19.5l10 56q18 87 -33.5 129.5t-142.5 42.5q-78 0 -156 -32t-143 -91l-111 149q215 185 477 185q195 0 298 -119t65 -303zM717 463
q-188 35 -313 1t-146 -136q-33 -156 150 -156q116 0 196 63t103 175z" />
    <glyph glyph-name="b" unicode="b" horiz-adv-x="1306" 
d="M827 1047q225 0 322 -145.5t47 -381.5q-55 -253 -209.5 -398t-384.5 -145q-123 0 -215 58t-115 155l-39 -190h-241l303 1434h260l-125 -592q39 75 150 140t247 65zM580 211q124 0 220.5 86t125.5 223q28 135 -30 219t-181 84q-128 0 -226.5 -85t-126.5 -218
q-29 -136 32 -222.5t186 -86.5z" />
    <glyph glyph-name="c" unicode="c" horiz-adv-x="1128" 
d="M465 -29q-242 0 -359.5 153.5t-64.5 395.5q53 244 234 397.5t421 153.5q155 0 263 -65.5t149 -184.5l-227 -137q-59 143 -226 143q-127 0 -221.5 -84t-122.5 -223q-29 -136 29.5 -220.5t183.5 -84.5q166 0 289 145l168 -137q-93 -119 -227.5 -185.5t-288.5 -66.5z" />
    <glyph glyph-name="d" unicode="d" horiz-adv-x="1306" 
d="M1317 1434l-303 -1434h-240l39 190q-64 -97 -180.5 -155t-241.5 -58q-231 0 -323 145.5t-37 397.5q51 237 209 382t383 145q127 0 214 -66t95 -139l125 592h260zM518 211q123 0 220 86.5t126 222.5q28 134 -34 218.5t-191 84.5q-122 0 -216 -84t-122 -219
q-29 -138 30.5 -223.5t186.5 -85.5z" />
    <glyph glyph-name="e" unicode="e" horiz-adv-x="1228" 
d="M291 449q-24 -111 47.5 -181.5t193.5 -70.5q101 0 196 34t157 93l112 -158q-85 -86 -226.5 -137.5t-293.5 -51.5q-251 0 -372.5 149t-69.5 390q49 235 233.5 383t423.5 148q268 0 376 -158.5t24 -439.5h-801zM651 848q-114 0 -210.5 -71.5t-118.5 -164.5h540
q22 103 -34 169.5t-177 66.5z" />
    <glyph glyph-name="f" unicode="f" horiz-adv-x="829" 
d="M262 788h-207l51 236h207l29 133q29 138 130.5 207.5t227.5 69.5h248l-49 -234h-227q-26 0 -44 -17.5t-24 -45.5l-24 -113h280l-51 -236h-281l-166 -788h-266z" />
    <glyph glyph-name="g" unicode="g" horiz-adv-x="1316" 
d="M1243 1026l-196 -922q-51 -242 -239.5 -393t-438.5 -151q-152 0 -274 52.5t-183 141.5l158 189q56 -68 143.5 -109t187.5 -41q140 0 251 83t147 253l20 92q-64 -95 -162.5 -152t-220.5 -57q-233 0 -337 146t-52 385q47 227 203 366.5t379 139.5q73 0 132 -17t94 -41.5
t60 -55t35 -53t13 -40.5l38 184h242zM522 229q127 0 225 81t127 212q14 80 3 136.5t-45 92t-78.5 52t-98.5 16.5q-126 0 -221 -82t-123 -215q-27 -128 30 -210.5t181 -82.5z" />
    <glyph glyph-name="h" unicode="h" horiz-adv-x="1239" 
d="M807 1044q163 0 245 -102.5t48 -263.5l-144 -678h-266l129 610q20 94 -26.5 155.5t-137.5 61.5q-97 0 -174.5 -67t-99.5 -168l-125 -592h-268l305 1434h266l-115 -545q52 70 151 112.5t212 42.5z" />
    <glyph glyph-name="i" unicode="i" horiz-adv-x="550" 
d="M381 1210q-67 0 -105 47t-24 115q14 66 72 114t125 48q66 0 103 -48t23 -114q-13 -67 -71 -114.5t-123 -47.5zM209 1024h266l-217 -1024h-266z" />
    <glyph glyph-name="j" unicode="j" horiz-adv-x="550" 
d="M381 1212q-75 0 -111.5 43.5t-21.5 114.5q15 72 71 116t130 44q75 0 111.5 -44t21.5 -116q-15 -70 -71 -114t-130 -44zM-274 -174h116q109 0 133 108l232 1090h268l-242 -1139q-31 -141 -129 -218t-251 -77h-179z" />
    <glyph glyph-name="k" unicode="k" horiz-adv-x="1140" 
d="M666 0l-265 377l-84 -78l-61 -299h-268l305 1434h266l-176 -828l502 418h309l-555 -475l344 -549h-317z" />
    <glyph glyph-name="l" unicode="l" horiz-adv-x="534" 
d="M-20 0l305 1434h266l-303 -1434h-268z" />
    <glyph glyph-name="m" unicode="m" horiz-adv-x="1878" 
d="M1460 1049q156 0 233.5 -111.5t41.5 -278.5l-140 -659h-268l125 588q20 96 -22.5 158.5t-126.5 62.5q-91 0 -162 -64t-90 -157l-125 -588h-267l125 588q20 96 -24.5 158.5t-128.5 62.5q-90 0 -159.5 -64t-90.5 -157l-123 -588h-268l217 1024h262l-35 -154q59 79 158 129
t203 50q109 0 185.5 -57t90.5 -146q59 90 166 146.5t223 56.5z" />
    <glyph glyph-name="n" unicode="n" horiz-adv-x="1236" 
d="M807 1049q154 0 238.5 -106.5t52.5 -258.5l-144 -684h-268l127 592q19 91 -31 154t-139 63q-90 0 -166.5 -63.5t-95.5 -153.5l-125 -592h-268l219 1024h260l-35 -162q63 86 165 136.5t210 50.5z" />
    <glyph glyph-name="o" unicode="o" horiz-adv-x="1269" 
d="M477 -25q-249 0 -370 151t-68 396q50 233 236.5 380t435.5 147q245 0 366.5 -147t71.5 -380q-51 -242 -238 -394.5t-434 -152.5zM526 205q127 0 225.5 86.5t127.5 224.5q29 136 -30.5 222.5t-182.5 86.5q-131 0 -230.5 -85.5t-128.5 -223.5t31.5 -224.5t187.5 -86.5z" />
    <glyph glyph-name="p" unicode="p" horiz-adv-x="1316" 
d="M827 1047q230 0 322.5 -145t40.5 -396q-52 -238 -210.5 -383.5t-383.5 -145.5q-136 0 -219 65.5t-90 141.5l-115 -549h-262l297 1389h239l-40 -188q64 96 180.5 153.5t240.5 57.5zM580 203q122 0 216.5 84t123.5 219q29 138 -31 222.5t-187 84.5q-123 0 -220 -86
t-126 -221t33 -219t191 -84z" />
    <glyph glyph-name="q" unicode="q" horiz-adv-x="1316" 
d="M1241 1024l-303 -1427h-260l123 587q-39 -76 -150 -141.5t-248 -65.5q-224 0 -320 146t-44 383q52 250 206.5 395.5t383.5 145.5q124 0 216.5 -57.5t115.5 -153.5l40 188h240zM516 203q129 0 227 84t127 219t-31.5 221t-183.5 86q-127 0 -223 -84.5t-125 -222.5
q-29 -134 29.5 -218.5t179.5 -84.5z" />
    <glyph glyph-name="r" unicode="r" horiz-adv-x="854" 
d="M788 1049q45 0 89 -13l-56 -254q-90 4 -137 4q-128 0 -210.5 -70t-111.5 -206l-106 -510h-268l219 1024h260l-39 -176q64 92 160 146.5t200 54.5z" />
    <glyph glyph-name="s" unicode="s" horiz-adv-x="1050" 
d="M377 -29q-150 0 -265.5 48t-172.5 133l157 180q50 -64 139.5 -103t190.5 -39q84 0 134 29t61 78q8 39 -18.5 64t-94.5 42l-178 46q-143 36 -197 107.5t-29 180.5q32 153 167 243.5t335 90.5q135 0 241 -42.5t159 -115.5l-160 -180q-120 117 -287 117q-165 0 -188 -102
q-6 -36 18.5 -59.5t91.5 -41.5l178 -45q148 -38 203 -109t31 -182q-34 -158 -170.5 -249t-345.5 -91z" />
    <glyph glyph-name="t" unicode="t" horiz-adv-x="866" 
d="M326 0q-101 0 -157 71.5t-34 172.5l115 544h-195l51 236h195l70 328h266l-68 -328h287l-51 -236h-287l-110 -522q-3 -26 20 -26h262l-49 -240h-315z" />
    <glyph glyph-name="u" unicode="u" horiz-adv-x="1230" 
d="M1157 1024l-217 -1024h-262l35 162q-64 -86 -166.5 -138.5t-208.5 -52.5q-154 0 -239.5 108.5t-53.5 262.5l148 682h266l-127 -592q-19 -90 30.5 -152.5t139.5 -64.5q89 0 166.5 63t97.5 154l123 592h268z" />
    <glyph glyph-name="v" unicode="v" horiz-adv-x="1134" 
d="M1178 1024l-615 -1024h-293l-182 1024h287l110 -700l406 700h287z" />
    <glyph glyph-name="w" unicode="w" horiz-adv-x="1748" 
d="M1788 1042l-549 -1042h-295l-76 692l-366 -692h-297l-107 1042h273l63 -725l387 725h244l80 -725l368 725h275z" />
    <glyph glyph-name="x" unicode="x" horiz-adv-x="1124" 
d="M647 0l-164 352l-309 -352h-301l477 532l-237 492h295l153 -311l283 311h297l-449 -492l254 -532h-299z" />
    <glyph glyph-name="y" unicode="y" horiz-adv-x="1138" 
d="M1188 1042l-713 -1192q-82 -136 -190.5 -198t-264.5 -62h-219l52 240h172q91 0 142 25.5t87 87.5l43 69l-201 1030h287l115 -720l403 720h287z" />
    <glyph glyph-name="z" unicode="z" horiz-adv-x="1017" 
d="M834 227l-48 -227h-862l37 176l645 641h-491l49 225h837l-36 -176l-646 -639h515z" />
    <glyph glyph-name="braceleft" unicode="{" horiz-adv-x="776" 
d="M518 897q-23 -113 -80 -174.5t-155 -83.5q90 -22 121 -83t6 -173l-52 -242q-17 -79 6.5 -111t100.5 -32h92l-49 -236h-182q-169 0 -224 68.5t-20 232.5l68 320q15 73 -11 106t-100 33h-14l51 236h14q73 0 112 32t56 107l68 317q35 165 119.5 233.5t252.5 68.5h183
l-52 -236h-92q-77 0 -114 -31t-54 -112z" />
    <glyph glyph-name="bar" unicode="|" horiz-adv-x="641" 
d="M389 1567h223l-376 -1772h-224z" />
    <glyph glyph-name="braceright" unicode="}" horiz-adv-x="776" 
d="M719 758l-51 -236h-13q-74 0 -114.5 -33t-55.5 -106l-67 -320q-35 -164 -119.5 -232.5t-253.5 -68.5h-182l49 236h92q78 0 115.5 31.5t54.5 111.5l51 242q25 112 82 173t156 83q-90 22 -121 83.5t-8 174.5l51 240q17 81 -7 112t-102 31h-90l52 236h180q169 0 225 -69
t21 -233l-68 -317q-17 -74 10 -106.5t101 -32.5h12z" />
    <glyph glyph-name="asciitilde" unicode="~" 
d="M489 584q-65 0 -126 -21.5t-144 -73.5l51 240q140 90 273 90q71 0 200.5 -52t190.5 -52q140 0 274 94l-51 -240q-150 -92 -270 -92q-59 0 -128.5 26.5t-139.5 53.5t-130 27z" />
    <glyph glyph-name="uni00A0" unicode="&#xa0;" horiz-adv-x="466" 
 />
    <glyph glyph-name="exclamdown" unicode="&#xa1;" horiz-adv-x="632" 
d="M520 899q-12 -75 -63.5 -122.5t-128.5 -51.5q-75 -5 -113.5 37t-28.5 117q12 76 63 122.5t128 51.5q78 5 115.5 -35.5t27.5 -118.5zM406 567l-183 -958h-284l225 958h242z" />
    <glyph glyph-name="cent" unicode="&#xa2;" horiz-adv-x="1128" 
d="M584 221q126 21 229 139l168 -137q-82 -107 -198.5 -171.5t-250.5 -76.5l-51 -239h-94l49 235q-151 7 -252.5 78.5t-139 194t-3.5 276.5q51 237 224.5 389.5t404.5 161.5l39 184h96l-41 -188q129 -13 218 -77t126 -169l-227 -137q-47 114 -168 139zM311 520
q-28 -126 21 -208.5t157 -94.5l129 608q-114 -12 -197.5 -94t-109.5 -211z" />
    <glyph glyph-name="sterling" unicode="&#xa3;" horiz-adv-x="1110" 
d="M373 240h579l-49 -240h-999l49 240h149l80 368h-143l41 195h143l49 227q43 205 176.5 318.5t337.5 113.5q299 0 385 -241l-233 -142q-53 127 -184 127q-173 0 -217 -194l-43 -209h458l-41 -195h-458z" />
    <glyph glyph-name="currency" unicode="&#xa4;" horiz-adv-x="1136" 
d="M997 713q-28 -135 -118 -236l100 -129l-145 -121l-107 135q-110 -61 -246 -61q-134 0 -219 61l-168 -135l-94 121l158 129q-46 105 -19 236t119 237l-100 129l145 121l107 -135q110 61 247 61q135 0 220 -61l165 135l95 -121l-158 -129q48 -104 18 -237zM526 520
q86 0 150.5 53.5t83.5 139.5q17 88 -23.5 141t-126.5 53t-150 -53t-83 -141q-17 -87 23 -140t126 -53z" />
    <glyph glyph-name="yen" unicode="&#xa5;" horiz-adv-x="1224" 
d="M811 743h299l-33 -159h-356l-35 -166h356l-34 -160h-357l-53 -258h-274l55 258h-354l34 160h355l35 166h-355l33 159h297l-252 691h287l190 -549l420 549h287z" />
    <glyph glyph-name="brokenbar" unicode="&#xa6;" horiz-adv-x="641" 
d="M389 1567h223l-153 -733h-226zM166 514h223l-153 -719h-224z" />
    <glyph glyph-name="section" unicode="&#xa7;" horiz-adv-x="1134" 
d="M764 360q182 -81 139 -276q-35 -165 -174.5 -257.5t-359.5 -92.5q-156 0 -275 47t-176 131l158 180q50 -63 140.5 -99t205.5 -36q184 0 209 117q11 51 -16.5 81.5t-102.5 49.5l-180 45q-299 77 -250 307q22 99 92 175t174 106q-178 77 -137 272q34 164 173.5 258
t354.5 94q143 0 249.5 -42t158.5 -115l-160 -181q-115 115 -293 115q-187 0 -211 -121q-9 -48 17.5 -78t97.5 -47l180 -45q154 -39 214.5 -114.5t35.5 -190.5q-22 -102 -91.5 -177.5t-172.5 -105.5zM350 602q-12 -64 17 -101t114 -57l56 -8q88 -10 147.5 36t75.5 124
q13 63 -17.5 99.5t-113.5 58.5l-58 8q-88 11 -146.5 -35.5t-74.5 -124.5z" />
    <glyph glyph-name="dieresis" unicode="&#xa8;" horiz-adv-x="1269" 
d="M496 1210q-72 0 -107.5 44.5t-21.5 115.5q15 71 70 115.5t128 44.5q72 0 107 -44.5t20 -115.5q-13 -70 -68.5 -115t-127.5 -45zM983 1210q-72 0 -107 44.5t-20 115.5q13 70 69 115t128 45t107.5 -44.5t21.5 -115.5q-15 -71 -70.5 -115.5t-128.5 -44.5z" />
    <glyph glyph-name="copyright" unicode="&#xa9;" horiz-adv-x="1685" 
d="M686 -29q-202 -3 -354 98t-215.5 274t-18.5 374q29 150 117.5 289t210 239.5t273 159.5t302.5 57q101 1 192.5 -25t163 -75t126.5 -117.5t84.5 -151.5t37 -178.5t-17.5 -197.5q-29 -150 -117.5 -289t-209.5 -240t-272.5 -160t-301.5 -57zM711 102q167 -2 325 81.5
t267.5 225.5t142.5 308q21 102 13.5 193.5t-48 169t-102 134t-148 87.5t-186.5 30q-166 2 -323.5 -81t-267.5 -225t-144 -308q-37 -166 12 -308t171 -225.5t288 -81.5zM774 287q-191 0 -282.5 119.5t-51.5 312.5q42 192 184 311t334 119q122 0 206.5 -50.5t115.5 -142.5
l-182 -110q-20 54 -65 82t-109 28q-96 0 -170 -65t-97 -172q-23 -108 23.5 -173t142.5 -65q133 0 221 111l136 -111q-72 -93 -177.5 -143.5t-228.5 -50.5z" />
    <glyph glyph-name="guillemotleft" unicode="&#xab;" horiz-adv-x="1210" 
d="M287 522l215 -448h-279l-219 448l412 449h278zM797 522l217 -448h-279l-219 448l410 449h280z" />
    <glyph glyph-name="logicalnot" unicode="&#xac;" 
d="M1200 768l-96 -444h-248l43 206h-672l52 238h921z" />
    <glyph glyph-name="registered" unicode="&#xae;" horiz-adv-x="1107" 
d="M713 1464q124 0 215.5 -61t130 -165.5t12.5 -227.5q-40 -188 -201 -320.5t-350 -132.5q-93 0 -170 35.5t-124 97t-67 144t1 176.5q40 188 202 321t351 133zM539 653q147 0 270 104.5t154 252.5q32 148 -47 252t-226 104t-269 -103.5t-153 -252.5t46.5 -253t224.5 -104z
M838 1100q-24 -128 -156 -146l98 -176h-114l-86 172h-56l-37 -172h-98l100 475h207q85 0 121 -39t21 -114zM543 1032h102q73 0 88 66q14 65 -61 65h-101z" />
    <glyph glyph-name="macron" unicode="&#xaf;" horiz-adv-x="1458" 
d="M524 1352h678l-43 -209h-678z" />
    <glyph glyph-name="degree" unicode="&#xb0;" horiz-adv-x="784" 
d="M412 809q-145 0 -220.5 93.5t-46.5 232.5q29 140 143.5 233.5t260.5 93.5q147 0 222 -93.5t44 -233.5q-30 -139 -143.5 -232.5t-259.5 -93.5zM449 983q66 0 116.5 42.5t63.5 109.5q15 69 -17 111t-100 42q-66 0 -115.5 -42t-64.5 -111q-14 -68 18 -110t99 -42z" />
    <glyph glyph-name="plusminus" unicode="&#xb1;" 
d="M1229 911l-51 -237h-334l-66 -307h-250l64 307h-336l51 237h336l66 308h252l-66 -308h334zM164 240h921l-49 -240h-921z" />
    <glyph glyph-name="acute" unicode="&#xb4;" horiz-adv-x="1269" 
d="M926 1532h311l-365 -342h-258z" />
    <glyph glyph-name="uni00B5" unicode="&#xb5;" horiz-adv-x="1247" 
d="M1176 1042l-220 -1042h-237l33 156q-51 -87 -132 -136t-176 -49q-132 0 -176 92l-108 -514h-269l318 1493h266l-127 -606q-25 -113 13 -167t139 -54q233 0 293 274l116 553h267z" />
    <glyph glyph-name="paragraph" unicode="&#xb6;" horiz-adv-x="1351" 
d="M492 799h-25q-168 0 -246.5 87.5t-48.5 229.5q32 145 153.5 231.5t311.5 86.5h219l-360 -1700h-230zM1063 1434h231l-360 -1700h-232z" />
    <glyph glyph-name="cedilla" unicode="&#xb8;" horiz-adv-x="1269" 
d="M387 25h227l-213 -435h-272z" />
    <glyph glyph-name="guillemotright" unicode="&#xbb;" horiz-adv-x="1210" 
d="M330 522l-217 449h280l219 -449l-411 -448h-281zM1122 522l-409 -448h-281l410 448l-217 449h280z" />
    <glyph glyph-name="questiondown" unicode="&#xbf;" horiz-adv-x="956" 
d="M717 899q-12 -74 -64 -122t-129 -52q-75 -5 -114 37t-27 117q10 76 61 122.5t127 51.5q79 5 117.5 -35.5t28.5 -118.5zM582 457q-18 -76 -37 -114.5t-56.5 -74.5t-128.5 -102l-106 -76q-98 -68 -117 -147q-12 -62 22.5 -95.5t106.5 -33.5q174 0 318 188l164 -129
q-97 -137 -237 -215t-298 -78q-180 0 -274.5 97t-61.5 257q19 87 75 159.5t167 150.5l96 69q66 48 87 75t34 87l18 92h252z" />
    <glyph glyph-name="Agrave" unicode="&#xc0;" 
d="M772 1581l-158 342h265l151 -342h-258zM932 281h-604l-164 -281h-295l852 1434h291l262 -1434h-293zM897 518l-80 645l-352 -645h432z" />
    <glyph glyph-name="Aacute" unicode="&#xc1;" 
d="M1063 1581h-258l295 342h266zM932 281h-604l-164 -281h-295l852 1434h291l262 -1434h-293zM897 518l-80 645l-352 -645h432z" />
    <glyph glyph-name="Acircumflex" unicode="&#xc2;" 
d="M766 1581h-268l368 342h264l224 -342h-267l-120 193zM932 281h-604l-164 -281h-295l852 1434h291l262 -1434h-293zM897 518l-80 645l-352 -645h432z" />
    <glyph glyph-name="Atilde" unicode="&#xc3;" 
d="M934 1659q-53 43 -94 43q-63 0 -86 -100h-195q65 303 268 303q44 0 80.5 -15t81.5 -49q53 -43 96 -43q64 0 84 103h195q-32 -152 -99.5 -229t-166.5 -77q-44 0 -80.5 15t-83.5 49zM932 281h-604l-164 -281h-295l852 1434h291l262 -1434h-293zM897 518l-80 645l-352 -645
h432z" />
    <glyph glyph-name="Adieresis" unicode="&#xc4;" 
d="M686 1599q-68 0 -106 47.5t-23 114.5q13 67 72 115.5t127 48.5q66 0 103.5 -48t23.5 -116q-15 -67 -73 -114.5t-124 -47.5zM1176 1599q-68 0 -106 47.5t-23 114.5q12 67 70.5 115.5t127.5 48.5q64 0 101.5 -48t25.5 -116q-15 -67 -72.5 -114.5t-123.5 -47.5zM932 281
h-604l-164 -281h-295l852 1434h291l262 -1434h-293zM897 518l-80 645l-352 -645h432z" />
    <glyph glyph-name="Aring" unicode="&#xc5;" 
d="M733 1782q-3 90 66.5 168t173.5 100t176.5 -27.5t75.5 -140.5q3 -90 -66.5 -168t-173.5 -100t-176.5 27.5t-75.5 140.5zM1065 1874q-12 35 -42 44.5t-71 -9.5q-40 -18 -55 -50.5t-4 -68.5q25 -75 113 -35q40 18 55 50.5t4 68.5zM932 281h-604l-164 -281h-295l852 1434
h291l262 -1434h-293zM897 518l-80 645l-352 -645h432z" />
    <glyph glyph-name="AE" unicode="&#xc6;" horiz-adv-x="2232" 
d="M2021 254l-53 -254h-1040l63 305h-549l-254 -305h-329l1210 1434h1182l-53 -254h-746l-68 -328h699l-53 -254h-701l-72 -344h764zM1040 537l142 663l-555 -663h413z" />
    <glyph glyph-name="Ccedilla" unicode="&#xc7;" horiz-adv-x="1523" 
d="M745 229q129 0 247.5 65.5t197.5 176.5l192 -139q-112 -160 -271 -251t-343 -106l-184 -385h-271l230 394q-136 22 -236 88t-152.5 162t-68.5 219.5t16 261.5q33 156 113 292t195.5 236.5t269.5 158.5t326 58q202 0 341 -95.5t197 -268.5l-252 -133q-34 111 -123 174
t-217 63q-210 0 -364.5 -137.5t-198.5 -347.5q-29 -137 1 -246.5t121.5 -174.5t233.5 -65z" />
    <glyph glyph-name="Egrave" unicode="&#xc8;" horiz-adv-x="1320" 
d="M786 1581l-157 342h264l151 -342h-258zM1106 250l-53 -250h-1037l303 1434h1016l-51 -250h-741l-78 -367h694l-53 -246h-694l-68 -321h762z" />
    <glyph glyph-name="Eacute" unicode="&#xc9;" horiz-adv-x="1320" 
d="M950 1581h-258l297 342h264zM1108 250l-51 -250h-1041l303 1434h1020l-53 -250h-743l-76 -353h696l-53 -247h-694l-72 -334h764z" />
    <glyph glyph-name="Ecircumflex" unicode="&#xca;" horiz-adv-x="1320" 
d="M1012 1581l-121 193l-201 -193h-266l367 342h264l223 -342h-266zM1106 250l-53 -250h-1037l303 1434h1016l-51 -250h-741l-78 -367h694l-53 -246h-694l-68 -321h762z" />
    <glyph glyph-name="Edieresis" unicode="&#xcb;" horiz-adv-x="1320" 
d="M481 1765q13 66 72 114t127 48q66 0 103.5 -48t23.5 -114q-13 -68 -71.5 -115.5t-125.5 -47.5q-68 0 -105 47t-24 116zM969 1765q15 66 73 114t125 48q66 0 104 -48t23 -114q-13 -68 -71 -115.5t-123 -47.5q-69 0 -107 47t-24 116zM1106 250l-53 -250h-1037l303 1434
h1016l-51 -250h-741l-78 -367h694l-53 -246h-694l-68 -321h762z" />
    <glyph glyph-name="Igrave" unicode="&#xcc;" horiz-adv-x="620" 
d="M410 1581l-203 342h309l152 -342h-258zM324 1434h276l-303 -1434h-277z" />
    <glyph glyph-name="Iacute" unicode="&#xcd;" horiz-adv-x="620" 
d="M662 1911h311l-350 -342h-256zM324 1434h276l-303 -1434h-277z" />
    <glyph glyph-name="Icircumflex" unicode="&#xce;" horiz-adv-x="620" 
d="M922 1581h-267l-120 193l-201 -193h-266l366 342h264zM324 1434h276l-303 -1434h-277z" />
    <glyph glyph-name="Idieresis" unicode="&#xcf;" horiz-adv-x="620" 
d="M254 1602q-72 0 -107.5 44t-21.5 115q15 71 70.5 115.5t128.5 44.5q72 0 107 -44.5t20 -115.5q-13 -70 -69 -114.5t-128 -44.5zM741 1602q-72 0 -107 44t-20 115q13 70 69 115t128 45t107.5 -44.5t21.5 -115.5q-15 -71 -70.5 -115t-128.5 -44zM324 1434h276l-303 -1434
h-277z" />
    <glyph glyph-name="Eth" unicode="&#xd0;" horiz-adv-x="1570" 
d="M1473 717q-47 -222 -172 -385.5t-303 -247.5t-388 -84h-540l127 606h-191l49 221h191l127 607h540q210 0 352.5 -84t198.5 -247.5t9 -385.5zM1184 717q49 227 -37 344t-289 117h-262l-74 -351h322l-49 -221h-322l-74 -350h265q202 0 336.5 117t183.5 344z" />
    <glyph glyph-name="Eth" unicode="&#xf0;" horiz-adv-x="1570" 
d="M1473 717q-47 -222 -172 -385.5t-303 -247.5t-388 -84h-540l127 606h-191l49 221h191l127 607h540q210 0 352.5 -84t198.5 -247.5t9 -385.5zM1184 717q49 227 -37 344t-289 117h-262l-74 -351h322l-49 -221h-322l-74 -350h265q202 0 336.5 117t183.5 344z" />
    <glyph glyph-name="Ntilde" unicode="&#xd1;" horiz-adv-x="1603" 
d="M899 1702q-64 0 -84 -100h-194q32 150 99.5 226.5t166.5 76.5q45 0 82 -15t82 -49q53 -43 96 -43q64 0 84 103h194q-32 -152 -99.5 -229t-166.5 -77q-45 0 -82 15t-84 49q-49 43 -94 43zM1587 1434l-303 -1434h-260l-526 983l-209 -983h-273l303 1434h261l528 -983
l207 983h272z" />
    <glyph glyph-name="Ograve" unicode="&#xd2;" horiz-adv-x="1695" 
d="M954 1581l-157 342h264l151 -342h-258zM694 -29q-217 0 -368 95t-210 265t-14 386q45 215 176.5 385t323 265t408.5 95t367.5 -95t209 -264.5t12.5 -385.5q-34 -161 -118.5 -300t-203 -237t-269.5 -153.5t-314 -55.5zM748 231q203 0 363 137t204 349q46 212 -56 348.5
t-305 136.5q-202 0 -361.5 -136.5t-205.5 -348.5q-44 -212 57.5 -349t303.5 -137z" />
    <glyph glyph-name="Oacute" unicode="&#xd3;" horiz-adv-x="1695" 
d="M1118 1581h-258l295 342h266zM694 -29q-217 0 -368 95t-210 265t-14 386q45 215 176.5 385t323 265t408.5 95t367.5 -95t209 -264.5t12.5 -385.5q-34 -161 -118.5 -300t-203 -237t-269.5 -153.5t-314 -55.5zM748 231q203 0 363 137t204 349q46 212 -56 348.5t-305 136.5
q-202 0 -361.5 -136.5t-205.5 -348.5q-44 -212 57.5 -349t303.5 -137z" />
    <glyph glyph-name="Ocircumflex" unicode="&#xd4;" horiz-adv-x="1695" 
d="M870 1581h-266l367 342h264l223 -342h-266l-121 193zM694 -29q-217 0 -368 95t-210 265t-14 386q45 215 176.5 385t323 265t408.5 95t367.5 -95t209 -264.5t12.5 -385.5q-34 -161 -118.5 -300t-203 -237t-269.5 -153.5t-314 -55.5zM748 231q203 0 363 137t204 349
q46 212 -56 348.5t-305 136.5q-202 0 -361.5 -136.5t-205.5 -348.5q-44 -212 57.5 -349t303.5 -137z" />
    <glyph glyph-name="Otilde" unicode="&#xd5;" horiz-adv-x="1695" 
d="M1202 1595q-44 0 -80.5 15t-83.5 49q-49 43 -94 43q-64 0 -84 -100h-194q32 150 99.5 226.5t166.5 76.5q44 0 80.5 -15t81.5 -49q53 -43 96 -43q63 0 86 103h194q-65 -306 -268 -306zM690 -29q-212 -3 -364.5 95t-213 270t-14.5 379q41 208 175 380.5t328.5 271
t404.5 95.5q211 3 363 -95.5t212.5 -271t15.5 -380.5q-32 -155 -118.5 -294t-206.5 -238.5t-272 -156.5t-310 -55zM743 233q202 0 361 135.5t203 346.5q46 212 -54.5 348.5t-302.5 136.5q-201 0 -359 -136.5t-204 -348.5q-44 -211 55.5 -346.5t300.5 -135.5z" />
    <glyph glyph-name="Odieresis" unicode="&#xd6;" horiz-adv-x="1695" 
d="M791 1602q-68 0 -105 47t-24 116q14 66 72.5 114t125.5 48q66 0 103.5 -48t23.5 -114q-13 -68 -71 -115.5t-125 -47.5zM1280 1602q-69 0 -107 47t-24 116q15 66 73.5 114t125.5 48q66 0 104 -48t23 -114q-13 -68 -71 -115.5t-124 -47.5zM694 -29q-217 0 -368 95t-210 265
t-14 386q45 215 176.5 385t323 265t408.5 95t367.5 -95t209 -264.5t12.5 -385.5q-34 -161 -118.5 -300t-203 -237t-269.5 -153.5t-314 -55.5zM748 231q203 0 363 137t204 349q46 212 -56 348.5t-305 136.5q-202 0 -361.5 -136.5t-205.5 -348.5q-44 -212 57.5 -349
t303.5 -137z" />
    <glyph glyph-name="multiply" unicode="&#xd7;" 
d="M877 649l223 -284l-197 -162l-225 284l-344 -284l-129 162l346 284l-223 285l196 162l224 -283l344 283l129 -162z" />
    <glyph glyph-name="Oslash" unicode="&#xd8;" horiz-adv-x="1695" 
d="M1597 715q-32 -155 -118.5 -294t-206.5 -238.5t-272 -156.5t-310 -55q-264 0 -424 148l-174 -144l-112 144l170 139q-110 194 -52 457q41 208 175 380.5t328.5 271t404.5 95.5q261 0 424 -147l176 145l112 -143l-172 -143q105 -200 51 -459zM387 715q-30 -140 12 -254
l797 655q-94 84 -246 84q-201 0 -359 -136.5t-204 -348.5zM1307 715q31 147 -15 256l-792 -654q93 -84 243 -84q202 0 361 135.5t203 346.5z" />
    <glyph glyph-name="Ugrave" unicode="&#xd9;" horiz-adv-x="1501" 
d="M844 1581l-158 342h264l152 -342h-258zM596 -29q-178 0 -299 78t-166 214.5t-8 309.5l182 861h277l-185 -875q-33 -150 33 -236.5t221 -86.5q164 0 262.5 85t130.5 238l185 875h278l-182 -861q-57 -266 -254 -434t-475 -168z" />
    <glyph glyph-name="Uacute" unicode="&#xda;" horiz-adv-x="1501" 
d="M1016 1581h-258l295 342h266zM596 -29q-178 0 -299 78t-166 214.5t-8 309.5l182 861h277l-185 -875q-33 -150 33 -236.5t221 -86.5q164 0 262.5 85t130.5 238l185 875h278l-182 -861q-57 -266 -254 -434t-475 -168z" />
    <glyph glyph-name="Ucircumflex" unicode="&#xdb;" horiz-adv-x="1501" 
d="M1096 1581l-121 193l-201 -193h-266l366 342h265l223 -342h-266zM596 -29q-178 0 -299 78t-166 214.5t-8 309.5l182 861h277l-185 -875q-33 -150 33 -236.5t221 -86.5q164 0 262.5 85t130.5 238l185 875h278l-182 -861q-57 -266 -254 -434t-475 -168z" />
    <glyph glyph-name="Udieresis" unicode="&#xdc;" horiz-adv-x="1501" 
d="M694 1602q-68 0 -105 47t-24 116q14 66 72 114t127 48q65 0 102.5 -48t24.5 -114q-13 -68 -71.5 -115.5t-125.5 -47.5zM1182 1602q-68 0 -105 47t-24 116q15 66 73 114t125 48q66 0 104 -48t23 -114q-13 -68 -71 -115.5t-125 -47.5zM596 -29q-178 0 -299 78t-166 214.5
t-8 309.5l182 861h277l-185 -875q-33 -150 33 -236.5t221 -86.5q164 0 262.5 85t130.5 238l185 875h278l-182 -861q-57 -266 -254 -434t-475 -168z" />
    <glyph glyph-name="Yacute" unicode="&#xdd;" horiz-adv-x="1333" 
d="M934 1581h-256l295 342h264zM1499 1434l-721 -865l-121 -569h-278l121 569l-353 865h316l231 -600l488 600h317z" />
    <glyph glyph-name="Thorn" unicode="&#xde;" horiz-adv-x="1368" 
d="M1296 729q-51 -234 -211.5 -353.5t-425.5 -119.5h-313l-53 -256h-277l303 1434h277l-47 -230h311q265 0 375.5 -120t60.5 -355zM1008 729q25 112 -28.5 165.5t-184.5 53.5h-301l-95 -442h301q262 0 308 223z" />
    <glyph glyph-name="germandbls" unicode="&#xdf;" horiz-adv-x="1308" 
d="M901 766q164 -15 235.5 -109.5t37.5 -250.5q-39 -184 -189.5 -295t-374.5 -111h-188l49 233h143q254 0 295 201q22 96 -33 145.5t-190 49.5h-131l51 237h64q250 0 293 205q22 99 -28.5 153t-166.5 54q-243 0 -293 -248l-219 -1030h-268l221 1040q50 227 207.5 351.5
t400.5 124.5q234 0 345 -112.5t71 -299.5q-28 -130 -114.5 -219.5t-217.5 -118.5z" />
    <glyph glyph-name="agrave" unicode="&#xe0;" horiz-adv-x="1142" 
d="M612 1190l-202 342h309l151 -342h-258zM879 0h-226l35 170q-58 -91 -159.5 -142t-231.5 -51q-169 0 -252 92.5t-51 239.5q17 82 66 144t120.5 100t163 57.5t193.5 19t211 -19.5l14 70q15 75 -29.5 116.5t-128.5 41.5q-79 0 -161 -32.5t-144 -90.5l-111 149
q77 77 217.5 130t264.5 53q196 0 289 -110.5t55 -295.5zM717 463q-188 35 -313 1t-146 -136q-15 -71 25 -113.5t125 -42.5q116 0 196 63t103 175z" />
    <glyph glyph-name="aacute" unicode="&#xe1;" horiz-adv-x="1181" 
d="M872 1190h-258l297 342h258zM899 0h-225l35 170q-58 -91 -160 -142t-232 -51q-172 0 -263.5 93t-59.5 239q17 82 68 144.5t125 100t168.5 57t198.5 19t214 -19.5l12 70q15 74 -27 116t-118 42q-88 0 -170.5 -32t-145.5 -91l-110 149q77 77 215.5 130t255.5 53
q215 0 304 -108.5t50 -297.5zM737 463q-188 35 -323 0.5t-156 -135.5q-15 -70 33 -113t135 -43q117 0 196.5 63t102.5 175z" />
    <glyph glyph-name="acircumflex" unicode="&#xe2;" horiz-adv-x="1165" 
d="M881 1190l-121 192l-201 -192h-266l369 342h264l223 -342h-268zM879 0h-226l35 170q-58 -91 -159.5 -142t-231.5 -51q-169 0 -252 92.5t-51 239.5q17 82 66 144t120.5 100t163 57.5t193.5 19t211 -19.5l14 70q15 75 -29.5 116.5t-128.5 41.5q-79 0 -161 -32.5t-144 -90.5
l-111 149q77 77 217.5 130t264.5 53q196 0 289 -110.5t55 -295.5zM717 463q-188 35 -313 1t-146 -136q-15 -71 25 -113.5t125 -42.5q116 0 196 63t103 175z" />
    <glyph glyph-name="atilde" unicode="&#xe3;" horiz-adv-x="1118" 
d="M770 1268q-53 43 -94 43q-63 0 -86 -101h-195q32 150 101 226.5t168 76.5q84 0 161 -63q53 -43 97 -43q63 0 86 102h192q-65 -305 -266 -305q-83 0 -164 64zM879 0h-226l35 170q-58 -91 -159.5 -142t-231.5 -51q-169 0 -252 92.5t-51 239.5q17 82 66 144t120.5 100
t163 57.5t193.5 19t211 -19.5l14 70q15 75 -29.5 116.5t-128.5 41.5q-79 0 -161 -32.5t-144 -90.5l-111 149q77 77 217.5 130t264.5 53q196 0 289 -110.5t55 -295.5zM717 463q-188 35 -313 1t-146 -136q-15 -71 25 -113.5t125 -42.5q116 0 196 63t103 175z" />
    <glyph glyph-name="adieresis" unicode="&#xe4;" horiz-adv-x="1216" 
d="M543 1210q-68 0 -105 47.5t-24 116.5q15 66 73 114t125 48q66 0 104 -48t23 -114q-13 -68 -71 -116t-125 -48zM1032 1210q-67 0 -105 47.5t-26 116.5q15 66 73.5 114t127.5 48q65 0 102.5 -48t22.5 -114q-12 -68 -70 -116t-125 -48zM879 0h-226l35 170
q-58 -91 -159.5 -142t-231.5 -51q-169 0 -252 92.5t-51 239.5q17 82 66 144t120.5 100t163 57.5t193.5 19t211 -19.5l14 70q15 75 -29.5 116.5t-128.5 41.5q-79 0 -161 -32.5t-144 -90.5l-111 149q77 77 217.5 130t264.5 53q196 0 289 -110.5t55 -295.5zM717 463
q-188 35 -313 1t-146 -136q-15 -71 25 -113.5t125 -42.5q116 0 196 63t103 175z" />
    <glyph glyph-name="aring" unicode="&#xe5;" horiz-adv-x="1234" 
d="M717 1171q-122 0 -188.5 79t-43.5 190q25 113 123.5 191.5t220.5 78.5q123 0 190 -78.5t42 -191.5q-23 -111 -122.5 -190t-221.5 -79zM799 1561q-55 0 -94.5 -32.5t-51.5 -88.5q-11 -55 14 -87t81 -32q57 0 95.5 32.5t49.5 86.5q12 56 -12.5 88.5t-81.5 32.5zM879 0h-226
l35 170q-58 -91 -159.5 -142t-231.5 -51q-169 0 -252 92.5t-51 239.5q17 82 66 144t120.5 100t163 57.5t193.5 19t211 -19.5l14 70q15 75 -29.5 116.5t-128.5 41.5q-79 0 -161 -32.5t-144 -90.5l-111 149q77 77 217.5 130t264.5 53q196 0 289 -110.5t55 -295.5zM717 463
q-188 35 -313 1t-146 -136q-15 -71 25 -113.5t125 -42.5q116 0 196 63t103 175z" />
    <glyph glyph-name="ae" unicode="&#xe6;" horiz-adv-x="1912" 
d="M1774 449h-801q-24 -111 48 -181.5t196 -70.5q100 0 195 34.5t155 92.5l114 -158q-86 -86 -227.5 -137.5t-294.5 -51.5q-144 0 -247 51.5t-158 145.5q-103 -100 -224 -148.5t-243 -48.5q-169 0 -252 92.5t-51 239.5q17 82 66 144t120.5 100t162.5 57.5t193 19t211 -19.5
l15 70q15 75 -29.5 116.5t-128.5 41.5q-79 0 -161 -32.5t-144 -90.5l-111 149q77 77 217 130t264 53q108 0 187 -35.5t121 -100.5q182 136 409 136q267 0 374.5 -158.5t23.5 -439.5zM1335 848q-115 0 -211 -71t-120 -165h542q21 103 -35 169.5t-176 66.5zM397 172
q120 0 197.5 62t99.5 169l13 60q-188 35 -313 1t-146 -136q-15 -71 24.5 -113.5t124.5 -42.5z" />
    <glyph glyph-name="ccedilla" unicode="&#xe7;" horiz-adv-x="1128" 
d="M524 215q166 0 289 145l168 -137q-75 -97 -180.5 -160t-227.5 -83l-188 -390h-272l233 394q-185 37 -268 181.5t-37 354.5q53 244 234 397.5t421 153.5q155 0 263 -65.5t149 -184.5l-227 -137q-59 143 -226 143q-127 0 -221.5 -84t-122.5 -223q-29 -136 29.5 -220.5
t183.5 -84.5z" />
    <glyph glyph-name="egrave" unicode="&#xe8;" horiz-adv-x="1228" 
d="M633 1190l-205 342h311l150 -342h-256zM291 449q-24 -111 47.5 -181.5t193.5 -70.5q101 0 196 34t157 93l112 -158q-85 -86 -226.5 -137.5t-293.5 -51.5q-251 0 -372.5 149t-69.5 390q49 235 233.5 383t423.5 148q268 0 376 -158.5t24 -439.5h-801zM651 848
q-114 0 -210.5 -71.5t-118.5 -164.5h540q22 103 -34 169.5t-177 66.5z" />
    <glyph glyph-name="eacute" unicode="&#xe9;" horiz-adv-x="1232" 
d="M825 1190h-258l297 342h264zM291 449q-24 -111 47.5 -181.5t193.5 -70.5q101 0 196 34t157 93l112 -158q-85 -86 -226.5 -137.5t-293.5 -51.5q-251 0 -372.5 149t-69.5 390q49 235 233.5 383t423.5 148q268 0 376 -158.5t24 -439.5h-801zM651 848q-114 0 -210.5 -71.5
t-118.5 -164.5h540q22 103 -34 169.5t-177 66.5z" />
    <glyph glyph-name="ecircumflex" unicode="&#xea;" horiz-adv-x="1228" 
d="M879 1190l-121 192l-201 -192h-266l368 342h265l223 -342h-268zM291 449q-24 -111 47.5 -181.5t193.5 -70.5q101 0 196 34t157 93l112 -158q-85 -86 -226.5 -137.5t-293.5 -51.5q-251 0 -372.5 149t-69.5 390q49 235 233.5 383t423.5 148q268 0 376 -158.5t24 -439.5
h-801zM651 848q-114 0 -210.5 -71.5t-118.5 -164.5h540q22 103 -34 169.5t-177 66.5z" />
    <glyph glyph-name="edieresis" unicode="&#xeb;" horiz-adv-x="1228" 
d="M471 1210q-68 0 -105 47.5t-24 116.5q15 66 73.5 114t125.5 48q66 0 104 -48t23 -114q-13 -68 -71.5 -116t-125.5 -48zM961 1210q-68 0 -106 47.5t-26 116.5q15 66 73.5 114t127.5 48q65 0 102.5 -48t22.5 -114q-12 -68 -69.5 -116t-124.5 -48zM291 449
q-24 -111 47.5 -181.5t193.5 -70.5q101 0 196 34t157 93l112 -158q-85 -86 -226.5 -137.5t-293.5 -51.5q-251 0 -372.5 149t-69.5 390q49 235 233.5 383t423.5 148q268 0 376 -158.5t24 -439.5h-801zM651 848q-114 0 -210.5 -71.5t-118.5 -164.5h540q22 103 -34 169.5
t-177 66.5z" />
    <glyph glyph-name="igrave" unicode="&#xec;" horiz-adv-x="550" 
d="M70 1532h264l160 -342h-258zM209 1024h266l-217 -1024h-268z" />
    <glyph glyph-name="iacute" unicode="&#xed;" horiz-adv-x="550" 
d="M502 1190h-258l295 342h264zM209 1024h266l-217 -1024h-268z" />
    <glyph glyph-name="icircumflex" unicode="&#xee;" horiz-adv-x="550" 
d="M737 1190h-237l-82 192l-164 -192h-238l310 342h247zM209 1024h266l-217 -1024h-268z" />
    <glyph glyph-name="idieresis" unicode="&#xef;" horiz-adv-x="550" 
d="M190 1227q-61 0 -90 38t-16 105q15 67 61 106.5t107 39.5q62 0 90.5 -39.5t15.5 -106.5q-15 -67 -60.5 -105t-107.5 -38zM580 1227q-62 0 -92 38t-15 105q13 67 59.5 106.5t108.5 39.5t90.5 -39.5t13.5 -106.5q-13 -66 -58.5 -104.5t-106.5 -38.5zM209 1024h266
l-217 -1024h-268z" />
    <glyph glyph-name="ntilde" unicode="&#xf1;" horiz-adv-x="1236" 
d="M731 1268q-49 43 -94 43q-64 0 -84 -101h-195q32 150 100 226.5t167 76.5q46 0 82 -14.5t81 -48.5q49 -43 95 -43q33 0 53.5 24.5t32.5 77.5h194q-65 -305 -268 -305q-44 0 -80.5 15t-83.5 49zM807 1053q153 0 238 -108t53 -261l-144 -684h-268l127 592q19 91 -31 154
t-139 63q-90 0 -166.5 -63.5t-95.5 -153.5l-125 -592h-268l219 1024h260l-35 -162q63 86 165.5 138.5t209.5 52.5z" />
    <glyph glyph-name="ograve" unicode="&#xf2;" horiz-adv-x="1275" 
d="M674 1190l-158 342h264l152 -342h-258zM477 -29q-163 0 -275.5 73t-154.5 198.5t-8 279.5q33 153 127 277t238 198t311 74q168 0 279.5 -74t149.5 -197.5t5 -277.5q-25 -114 -85 -214.5t-145.5 -175.5t-200 -118t-241.5 -43zM528 211q132 0 228 88.5t125 222.5
t-27.5 221.5t-187.5 87.5t-230 -88t-127 -221q-30 -136 27.5 -223.5t191.5 -87.5z" />
    <glyph glyph-name="oacute" unicode="&#xf3;" horiz-adv-x="1275" 
d="M825 1190h-258l297 342h264zM477 -29q-163 0 -275.5 73t-154.5 198.5t-8 279.5q33 153 127 277t238 198t311 74q168 0 279.5 -74t149.5 -197.5t5 -277.5q-25 -114 -85 -214.5t-145.5 -175.5t-200 -118t-241.5 -43zM528 211q132 0 228 88.5t125 222.5t-27.5 221.5
t-187.5 87.5t-230 -88t-127 -221q-30 -136 27.5 -223.5t191.5 -87.5z" />
    <glyph glyph-name="ocircumflex" unicode="&#xf4;" horiz-adv-x="1275" 
d="M899 1190l-121 192l-200 -192h-267l367 342h264l223 -342h-266zM477 -29q-163 0 -275.5 73t-154.5 198.5t-8 279.5q33 153 127 277t238 198t311 74q168 0 279.5 -74t149.5 -197.5t5 -277.5q-25 -114 -85 -214.5t-145.5 -175.5t-200 -118t-241.5 -43zM528 211
q132 0 228 88.5t125 222.5t-27.5 221.5t-187.5 87.5t-230 -88t-127 -221q-30 -136 27.5 -223.5t191.5 -87.5z" />
    <glyph glyph-name="otilde" unicode="&#xf5;" horiz-adv-x="1275" 
d="M909 1204q-44 0 -80.5 15t-83.5 49q-49 43 -94 43q-63 0 -86 -101h-192q32 150 99.5 226.5t166.5 76.5q44 0 81 -15t81 -48q53 -43 96 -43q33 0 53.5 24.5t32.5 77.5h195q-32 -151 -101 -228t-168 -77zM479 -29q-164 0 -276 72t-154 197t-8 282q52 238 238 393.5
t434 155.5q164 0 276 -72t154 -196.5t8 -280.5q-52 -240 -237.5 -395.5t-434.5 -155.5zM530 211q130 0 226 85t125 226q31 140 -28.5 224.5t-188.5 84.5q-130 0 -226 -84.5t-127 -224.5q-29 -141 30.5 -226t188.5 -85z" />
    <glyph glyph-name="odieresis" unicode="&#xf6;" horiz-adv-x="1275" 
d="M369 1374q14 66 72.5 114t125.5 48q66 0 103.5 -48t23.5 -114q-13 -68 -71 -116t-125 -48q-68 0 -105 47.5t-24 116.5zM856 1374q15 66 73.5 114t125.5 48q66 0 104 -48t23 -114q-13 -68 -71.5 -116t-123.5 -48q-69 0 -107 47.5t-24 116.5zM477 -29q-163 0 -275.5 73
t-154.5 198.5t-8 279.5q33 153 127 277t238 198t311 74q168 0 279.5 -74t149.5 -197.5t5 -277.5q-25 -114 -85 -214.5t-145.5 -175.5t-200 -118t-241.5 -43zM528 211q132 0 228 88.5t125 222.5t-27.5 221.5t-187.5 87.5t-230 -88t-127 -221q-30 -136 27.5 -223.5
t191.5 -87.5z" />
    <glyph glyph-name="divide" unicode="&#xf7;" 
d="M772 901q-66 0 -102.5 46t-22.5 112q14 65 70.5 111.5t120.5 46.5q65 0 101 -46.5t22 -111.5q-13 -66 -68.5 -112t-120.5 -46zM279 768h921l-51 -238h-922zM598 86q-66 0 -101.5 46t-21.5 112q12 65 68 111t123 46q65 0 99.5 -45t22.5 -112q-14 -66 -69 -112t-121 -46z
" />
    <glyph glyph-name="oslash" unicode="&#xf8;" horiz-adv-x="1284" 
d="M1124 854q74 -139 31 -332q-52 -240 -237.5 -395.5t-434.5 -155.5q-183 0 -309 99l-149 -125l-97 123l148 120q-75 140 -31 334q52 238 238 393.5t434 155.5q188 0 309 -98l150 123l98 -121zM670 848q-136 0 -236.5 -89t-132.5 -237q-20 -93 6 -162l522 433
q-52 55 -159 55zM530 197q137 0 237 88t132 237q19 85 -4 160l-524 -434q60 -51 159 -51z" />
    <glyph glyph-name="ugrave" unicode="&#xf9;" horiz-adv-x="1224" 
d="M645 1190l-158 342h265l151 -342h-258zM1157 1024l-217 -1024h-262l35 170q-59 -90 -164.5 -144.5t-222.5 -54.5q-157 0 -235.5 105t-43.5 268l146 680h266l-125 -588q-22 -102 22 -161.5t136 -59.5q97 0 176 63t100 162l121 584h268z" />
    <glyph glyph-name="uacute" unicode="&#xfa;" horiz-adv-x="1224" 
d="M780 1190h-258l295 342h266zM1157 1024l-217 -1024h-262l35 162q-64 -86 -166.5 -138.5t-208.5 -52.5q-154 0 -239.5 108.5t-53.5 262.5l148 682h266l-127 -592q-19 -90 30.5 -152.5t139.5 -64.5q89 0 166.5 63t97.5 154l123 592h268z" />
    <glyph glyph-name="ucircumflex" unicode="&#xfb;" horiz-adv-x="1224" 
d="M551 1190h-268l368 342h264l224 -342h-267l-120 192zM1157 1024l-217 -1024h-262l35 162q-64 -86 -166.5 -138.5t-208.5 -52.5q-154 0 -239.5 108.5t-53.5 262.5l148 682h266l-127 -592q-19 -90 30.5 -152.5t139.5 -64.5q89 0 166.5 63t97.5 154l123 592h268z" />
    <glyph glyph-name="udieresis" unicode="&#xfc;" horiz-adv-x="1224" 
d="M340 1374q15 66 73.5 114t125.5 48q66 0 104 -48t23 -114q-13 -68 -71.5 -116t-123.5 -48q-69 0 -107 47.5t-24 116.5zM829 1374q13 66 72 114t127 48q66 0 103.5 -48t23.5 -114q-13 -68 -71.5 -116t-125.5 -48q-68 0 -105 47.5t-24 116.5zM1157 1024l-217 -1024h-262
l35 162q-64 -86 -166.5 -138.5t-208.5 -52.5q-154 0 -239.5 108.5t-53.5 262.5l148 682h266l-127 -592q-19 -90 30.5 -152.5t139.5 -64.5q89 0 166.5 63t97.5 154l123 592h268z" />
    <glyph glyph-name="yacute" unicode="&#xfd;" horiz-adv-x="1134" 
d="M739 1190h-258l295 342h264zM1178 1024l-703 -1163q-90 -150 -195.5 -210.5t-271.5 -60.5h-207l52 238h159q101 0 150.5 25t89.5 96l41 63l-203 1012h285l119 -705l399 705h285z" />
    <glyph glyph-name="thorn" unicode="&#xfe;" horiz-adv-x="1316" 
d="M827 1047q230 0 322.5 -145t40.5 -396q-52 -238 -210.5 -383.5t-383.5 -145.5q-136 0 -219 65.5t-90 141.5l-115 -549h-262l383 1799h239l-126 -598q64 96 180.5 153.5t240.5 57.5zM580 203q122 0 216.5 84t123.5 219q29 138 -31 222.5t-187 84.5q-123 0 -220 -86
t-126 -221t33 -219t191 -84z" />
    <glyph glyph-name="ydieresis" unicode="&#xff;" horiz-adv-x="1134" 
d="M428 1210q-68 0 -105 47.5t-24 116.5q15 66 73.5 114t125.5 48q66 0 104 -48t23 -114q-13 -68 -71.5 -116t-125.5 -48zM918 1210q-68 0 -106 47.5t-26 116.5q15 66 73.5 114t127.5 48q65 0 102.5 -48t22.5 -114q-12 -68 -69.5 -116t-124.5 -48zM1182 1042l-707 -1181
q-88 -149 -194.5 -210t-272.5 -61h-207l52 238h159q101 0 150.5 25t89.5 96l41 63l-201 1030h287l115 -723l401 723h287z" />
    <glyph glyph-name="Amacron" unicode="&#x100;" 
d="M1274 1620h-678l43 209h678zM932 281h-604l-164 -281h-295l852 1434h291l262 -1434h-293zM897 518l-80 645l-352 -645h432z" />
    <glyph glyph-name="amacron" unicode="&#x101;" horiz-adv-x="1112" 
d="M1096 1229h-678l43 209h678zM879 0h-226l35 170q-58 -91 -159.5 -142t-231.5 -51q-169 0 -252 92.5t-51 239.5q17 82 66 144t120.5 100t163 57.5t193.5 19t211 -19.5l14 70q15 75 -29.5 116.5t-128.5 41.5q-79 0 -161 -32.5t-144 -90.5l-111 149q77 77 217.5 130
t264.5 53q196 0 289 -110.5t55 -295.5zM717 463q-188 35 -313 1t-146 -136q-15 -71 25 -113.5t125 -42.5q116 0 196 63t103 175z" />
    <glyph glyph-name="Abreve" unicode="&#x102;" 
d="M924 1575q-158 0 -237 83.5t-50 221.5l4 18h211q-15 -70 14.5 -112.5t94.5 -42.5q63 0 111 42.5t63 112.5h211l-5 -18q-29 -138 -143.5 -221.5t-273.5 -83.5zM932 281h-604l-164 -281h-295l852 1434h291l262 -1434h-293zM897 518l-80 645l-352 -645h432z" />
    <glyph glyph-name="abreve" unicode="&#x103;" horiz-adv-x="1218" 
d="M733 1184q-158 0 -236.5 83.5t-50.5 221.5l7 18h209q-15 -71 14.5 -113t93.5 -42q63 0 112 42.5t64 112.5h209l-4 -18q-29 -138 -144 -221.5t-274 -83.5zM879 0h-226l35 170q-58 -91 -159.5 -142t-231.5 -51q-169 0 -252 92.5t-51 239.5q17 82 66 144t120.5 100t163 57.5
t193.5 19t211 -19.5l14 70q15 75 -29.5 116.5t-128.5 41.5q-79 0 -161 -32.5t-144 -90.5l-111 149q77 77 217.5 130t264.5 53q196 0 289 -110.5t55 -295.5zM717 463q-188 35 -313 1t-146 -136q-15 -71 25 -113.5t125 -42.5q116 0 196 63t103 175z" />
    <glyph glyph-name="Aogonek" unicode="&#x104;" 
d="M1255 0q-103 -58 -150.5 -100.5t-55.5 -79.5q-6 -34 19.5 -51t84.5 -17h53l-39 -190h-104q-139 0 -202 52.5t-44 143.5q32 143 207 242h-43l-49 281h-604l-164 -281h-295l852 1434h291l262 -1434h-19zM465 518h432l-80 645z" />
    <glyph glyph-name="aogonek" unicode="&#x105;" horiz-adv-x="1144" 
d="M670 1047q196 0 289 -110.5t55 -295.5l-135 -641h2q-198 -109 -213 -180q-6 -34 19.5 -51t84.5 -17h55l-41 -190h-104q-138 0 -201 52.5t-45 143.5q15 68 71.5 131.5t145.5 112.5l35 168q-58 -91 -159.5 -142t-231.5 -51q-169 0 -252 92.5t-51 239.5q17 82 66 144
t120.5 100t163 57.5t193.5 19t211 -19.5l14 70q15 75 -29.5 116.5t-128.5 41.5q-79 0 -161 -32.5t-144 -90.5l-111 149q77 77 217.5 130t264.5 53zM408 172q116 0 196 63t103 175l10 53q-188 35 -313 1t-146 -136q-15 -71 25 -113.5t125 -42.5z" />
    <glyph glyph-name="Cacute" unicode="&#x106;" horiz-adv-x="1523" 
d="M1133 1581h-259l295 342h267zM690 -29q-118 0 -216 26.5t-168.5 74.5t-122 115.5t-74.5 150.5t-27 178.5t20 198.5q33 156 113 292t195.5 236.5t269.5 158.5t326 58q202 0 341 -95.5t197 -268.5l-252 -133q-34 111 -123 174t-217 63q-210 0 -364.5 -137.5t-198.5 -347.5
q-29 -137 1 -246.5t121.5 -174.5t233.5 -65q129 0 247.5 65.5t197.5 176.5l192 -139q-124 -177 -304 -269t-388 -92z" />
    <glyph glyph-name="cacute" unicode="&#x107;" horiz-adv-x="1128" 
d="M799 1190h-256l295 342h264zM465 -29q-242 0 -359.5 153.5t-64.5 395.5q53 244 234 397.5t421 153.5q155 0 263 -65.5t149 -184.5l-227 -137q-59 143 -226 143q-127 0 -221.5 -84t-122.5 -223q-29 -136 29.5 -220.5t183.5 -84.5q166 0 289 145l168 -137
q-93 -119 -227.5 -185.5t-288.5 -66.5z" />
    <glyph glyph-name="Ccircumflex" unicode="&#x108;" horiz-adv-x="1523" 
d="M854 1581h-266l368 342h265l223 -342h-268l-119 193zM690 -29q-118 0 -216 26.5t-168.5 74.5t-122 115.5t-74.5 150.5t-27 178.5t20 198.5q33 156 113 292t195.5 236.5t269.5 158.5t326 58q202 0 341 -95.5t197 -268.5l-252 -133q-34 111 -123 174t-217 63
q-210 0 -364.5 -137.5t-198.5 -347.5q-29 -137 1 -246.5t121.5 -174.5t233.5 -65q129 0 247.5 65.5t197.5 176.5l192 -139q-124 -177 -304 -269t-388 -92z" />
    <glyph glyph-name="ccircumflex" unicode="&#x109;" horiz-adv-x="1128" 
d="M561 1190h-266l367 342h264l223 -342h-266l-121 192zM465 -29q-242 0 -359.5 153.5t-64.5 395.5q53 244 234 397.5t421 153.5q155 0 263 -65.5t149 -184.5l-227 -137q-59 143 -226 143q-127 0 -221.5 -84t-122.5 -223q-29 -136 29.5 -220.5t183.5 -84.5q166 0 289 145
l168 -137q-93 -119 -227.5 -185.5t-288.5 -66.5z" />
    <glyph glyph-name="Cdotaccent" unicode="&#x10a;" horiz-adv-x="1523" 
d="M1020 1602q-69 0 -107 47t-24 116q15 66 73 114t125 48q66 0 104 -48t23 -114q-13 -68 -71 -115.5t-123 -47.5zM690 -29q-118 0 -216 26.5t-168.5 74.5t-122 115.5t-74.5 150.5t-27 178.5t20 198.5q33 156 113 292t195.5 236.5t269.5 158.5t326 58q202 0 341 -95.5
t197 -268.5l-252 -133q-34 111 -123 174t-217 63q-210 0 -364.5 -137.5t-198.5 -347.5q-29 -137 1 -246.5t121.5 -174.5t233.5 -65q129 0 247.5 65.5t197.5 176.5l192 -139q-124 -177 -304 -269t-388 -92z" />
    <glyph glyph-name="cdotaccent" unicode="&#x10b;" horiz-adv-x="1128" 
d="M725 1210q-68 0 -105 47.5t-24 116.5q15 66 73.5 114t125.5 48q66 0 104 -48t23 -114q-13 -68 -71.5 -116t-125.5 -48zM465 -29q-242 0 -359.5 153.5t-64.5 395.5q53 244 234 397.5t421 153.5q155 0 263 -65.5t149 -184.5l-227 -137q-59 143 -226 143q-127 0 -221.5 -84
t-122.5 -223q-29 -136 29.5 -220.5t183.5 -84.5q166 0 289 145l168 -137q-93 -119 -227.5 -185.5t-288.5 -66.5z" />
    <glyph glyph-name="Ccaron" unicode="&#x10c;" horiz-adv-x="1523" 
d="M883 1581l-224 342h269l121 -190l200 190h267l-369 -342h-264zM690 -29q-118 0 -216 26.5t-168.5 74.5t-122 115.5t-74.5 150.5t-27 178.5t20 198.5q33 156 113 292t195.5 236.5t269.5 158.5t326 58q202 0 341 -95.5t197 -268.5l-252 -133q-34 111 -123 174t-217 63
q-210 0 -364.5 -137.5t-198.5 -347.5q-29 -137 1 -246.5t121.5 -174.5t233.5 -65q129 0 247.5 65.5t197.5 176.5l192 -139q-124 -177 -304 -269t-388 -92z" />
    <glyph glyph-name="ccaron" unicode="&#x10d;" horiz-adv-x="1128" 
d="M590 1190l-223 342h266l121 -191l200 191h269l-369 -342h-264zM465 -29q-242 0 -359.5 153.5t-64.5 395.5q53 244 234 397.5t421 153.5q155 0 263 -65.5t149 -184.5l-227 -137q-59 143 -226 143q-127 0 -221.5 -84t-122.5 -223q-29 -136 29.5 -220.5t183.5 -84.5
q166 0 289 145l168 -137q-93 -119 -227.5 -185.5t-288.5 -66.5z" />
    <glyph glyph-name="Dcaron" unicode="&#x10e;" horiz-adv-x="1517" 
d="M727 1581l-223 342h266l121 -190l201 190h266l-367 -342h-264zM883 1434q198 0 336 -95t190.5 -258.5t9.5 -363.5q-43 -202 -163.5 -365t-298.5 -257.5t-377 -94.5h-564l303 1434h564zM600 256q195 0 340.5 130.5t187.5 330.5q43 201 -46.5 331t-284.5 130h-256
l-197 -922h256z" />
    <glyph glyph-name="dcaron" unicode="&#x10f;" horiz-adv-x="1488" 
d="M1686 1499l-91 -426h-206l92 426h205zM1331 1495l-317 -1495h-240l39 190q-65 -100 -167 -156.5t-222 -56.5q-234 0 -341 146.5t-54 390.5q52 239 217.5 386t392.5 147q128 0 206 -65t87 -140l139 653h260zM518 211q124 0 220.5 86.5t125.5 224.5q28 137 -31.5 223
t-183.5 86q-126 0 -222.5 -85.5t-125.5 -223.5t31 -224.5t186 -86.5z" />
    <glyph glyph-name="Dcroat" unicode="&#x110;" horiz-adv-x="1572" 
d="M913 1434q210 0 352.5 -84t198.5 -247.5t9 -385.5t-172 -385.5t-303 -247.5t-388 -84h-540l127 606h-191l49 221h191l127 607h540zM664 256q202 0 336.5 117t183.5 344t-37 344t-289 117h-262l-74 -351h322l-49 -221h-322l-74 -350h265z" />
    <glyph glyph-name="dcroat" unicode="&#x111;" horiz-adv-x="1306" 
d="M1507 1352l-43 -209h-209l-241 -1143h-240l39 190q-65 -100 -167 -156.5t-222 -56.5q-234 0 -341 146.5t-54 390.5q52 239 217.5 386t392.5 147q128 0 206 -65t87 -140l63 301h-209l43 209h211l31 143h260l-31 -143h207zM864 522q28 137 -31.5 223t-183.5 86
q-126 0 -222.5 -85.5t-125.5 -223.5t31 -224.5t186 -86.5q124 0 220.5 86.5t125.5 224.5z" />
    <glyph glyph-name="Emacron" unicode="&#x112;" horiz-adv-x="1320" 
d="M565 1829h678l-45 -209h-678zM1106 250l-53 -250h-1037l303 1434h1016l-51 -250h-741l-78 -367h694l-53 -246h-694l-68 -321h762z" />
    <glyph glyph-name="emacron" unicode="&#x113;" horiz-adv-x="1228" 
d="M432 1438h678l-43 -209h-678zM291 449q-24 -111 47.5 -181.5t193.5 -70.5q101 0 196 34t157 93l112 -158q-85 -86 -226.5 -137.5t-293.5 -51.5q-251 0 -372.5 149t-69.5 390q49 235 233.5 383t423.5 148q268 0 376 -158.5t24 -439.5h-801zM651 848q-114 0 -210.5 -71.5
t-118.5 -164.5h540q22 103 -34 169.5t-177 66.5z" />
    <glyph glyph-name="Ebreve" unicode="&#x114;" horiz-adv-x="1320" 
d="M567 1898h209q-15 -70 14.5 -112.5t94.5 -42.5t113 42.5t63 112.5h209q-31 -146 -146 -234.5t-274 -88.5q-158 0 -236 88.5t-47 234.5zM1106 250l-53 -250h-1037l303 1434h1016l-51 -250h-741l-78 -367h694l-53 -246h-694l-68 -321h762z" />
    <glyph glyph-name="ebreve" unicode="&#x115;" horiz-adv-x="1228" 
d="M434 1507h211q-15 -71 14 -113t93 -42q65 0 113 42.5t63 112.5h211q-32 -146 -148 -234.5t-274 -88.5t-236 88.5t-47 234.5zM291 449q-24 -111 47.5 -181.5t193.5 -70.5q101 0 196 34t157 93l112 -158q-85 -86 -226.5 -137.5t-293.5 -51.5q-251 0 -372.5 149t-69.5 390
q49 235 233.5 383t423.5 148q268 0 376 -158.5t24 -439.5h-801zM651 848q-114 0 -210.5 -71.5t-118.5 -164.5h540q22 103 -34 169.5t-177 66.5z" />
    <glyph glyph-name="Edotaccent" unicode="&#x116;" horiz-adv-x="1320" 
d="M723 1761q15 72 70.5 116t130.5 44t111.5 -44t21.5 -116t-71.5 -115.5t-131.5 -43.5q-74 0 -111 44t-20 115zM1106 250l-53 -250h-1037l303 1434h1016l-51 -250h-741l-78 -367h694l-53 -246h-694l-68 -321h762z" />
    <glyph glyph-name="edotaccent" unicode="&#x117;" horiz-adv-x="1228" 
d="M590 1370q15 72 71 116t130 44q75 0 112.5 -44t20.5 -116q-15 -72 -71 -116t-130 -44q-75 0 -112.5 44t-20.5 116zM291 449q-24 -111 47.5 -181.5t193.5 -70.5q101 0 196 34t157 93l112 -158q-85 -86 -226.5 -137.5t-293.5 -51.5q-251 0 -372.5 149t-69.5 390
q49 235 233.5 383t423.5 148q268 0 376 -158.5t24 -439.5h-801zM651 848q-114 0 -210.5 -71.5t-118.5 -164.5h540q22 103 -34 169.5t-177 66.5z" />
    <glyph glyph-name="Eogonek" unicode="&#x118;" horiz-adv-x="1320" 
d="M1284 1184h-741l-78 -367h694l-53 -246h-694l-68 -321h762l-53 -250q-198 -109 -213 -180q-9 -41 26.5 -54.5t130.5 -13.5l-39 -190q-211 0 -292 43t-58 153q15 67 69 130t140 112h-801l303 1434h1016z" />
    <glyph glyph-name="eogonek" unicode="&#x119;" horiz-adv-x="1198" 
d="M532 197q101 0 196 34t157 93l112 -158q-109 -113 -309 -162q-70 -51 -84 -104q-8 -34 19 -51t88 -17h53l-41 -188h-105q-137 0 -200.5 52.5t-42.5 141.5q15 75 80 146q-51 0 -76 4q-202 26 -296.5 169.5t-47.5 358.5q49 235 233.5 383t423.5 148q268 0 376 -158.5
t24 -439.5h-801q-24 -111 47.5 -181.5t193.5 -70.5zM651 848q-114 0 -210.5 -71.5t-118.5 -164.5h540q22 103 -34 169.5t-177 66.5z" />
    <glyph glyph-name="Ecaron" unicode="&#x11a;" horiz-adv-x="1320" 
d="M1352 1923l-369 -342h-264l-223 342h266l121 -190l200 190h269zM1106 250l-53 -250h-1037l303 1434h1016l-51 -250h-741l-78 -367h694l-53 -246h-694l-68 -321h762z" />
    <glyph glyph-name="ecaron" unicode="&#x11b;" horiz-adv-x="1228" 
d="M1219 1532l-369 -342h-264l-224 342h269l121 -191l200 191h267zM291 449q-24 -111 47.5 -181.5t193.5 -70.5q101 0 196 34t157 93l112 -158q-85 -86 -226.5 -137.5t-293.5 -51.5q-251 0 -372.5 149t-69.5 390q49 235 233.5 383t423.5 148q268 0 376 -158.5t24 -439.5
h-801zM651 848q-114 0 -210.5 -71.5t-118.5 -164.5h540q22 103 -34 169.5t-177 66.5z" />
    <glyph glyph-name="Gcircumflex" unicode="&#x11c;" horiz-adv-x="1576" 
d="M852 1581h-266l366 342h265l223 -342h-266l-121 193zM1487 805l-117 -543q-140 -140 -314.5 -215.5t-367.5 -75.5q-118 0 -216.5 26.5t-169 74.5t-121 115.5t-73.5 149.5t-26.5 177.5t20.5 198.5q33 157 113 293t195 237t269 159t325 58q183 0 321.5 -80.5t208.5 -220.5
l-262 -155q-39 93 -122 144.5t-200 51.5q-209 0 -364 -138.5t-199 -348.5q-29 -136 1 -244.5t121 -173.5t232 -66q240 0 402 144l43 205h-320l49 227h572z" />
    <glyph glyph-name="gcircumflex" unicode="&#x11d;" horiz-adv-x="1316" 
d="M602 1190h-266l369 342h264l223 -342h-268l-121 192zM1243 1024l-194 -909q-54 -251 -242 -402t-449 -151q-145 0 -267.5 46.5t-186.5 123.5l157 192q57 -60 145.5 -94.5t182.5 -34.5q151 0 263 83t151 263l14 74q-58 -91 -172.5 -146t-236.5 -55q-213 0 -313 146.5
t-50 382.5q47 225 207 364.5t373 139.5q124 0 209.5 -47t107.5 -126l33 150h268zM535 244q126 0 222.5 83t125.5 216q28 133 -33.5 216t-187.5 83q-125 0 -222 -83t-125 -216q-28 -134 33 -216.5t187 -82.5z" />
    <glyph glyph-name="Gbreve" unicode="&#x11e;" horiz-adv-x="1576" 
d="M1010 1575q-158 0 -236.5 83.5t-50.5 221.5l6 18h209q-15 -70 14.5 -112.5t94.5 -42.5t113 42.5t63 112.5h209l-5 -18q-29 -138 -143.5 -221.5t-273.5 -83.5zM1487 805l-117 -543q-140 -140 -314.5 -215.5t-367.5 -75.5q-118 0 -216.5 26.5t-169 74.5t-121 115.5
t-73.5 149.5t-26.5 177.5t20.5 198.5q33 157 113 293t195 237t269 159t325 58q183 0 321.5 -80.5t208.5 -220.5l-262 -155q-39 93 -122 144.5t-200 51.5q-209 0 -364 -138.5t-199 -348.5q-29 -136 1 -244.5t121 -173.5t232 -66q240 0 402 144l43 205h-320l49 227h572z" />
    <glyph glyph-name="gbreve" unicode="&#x11f;" horiz-adv-x="1316" 
d="M479 1507h211q-15 -71 14 -113t93 -42q65 0 113 42.5t63 112.5h211l-6 -18q-28 -138 -142.5 -221.5t-273.5 -83.5q-158 0 -237 83.5t-50 221.5zM1243 1026l-196 -922q-51 -242 -239.5 -393t-438.5 -151q-143 0 -268 53.5t-185 140.5l160 189q53 -67 142.5 -108.5
t182.5 -41.5q140 0 251 83t147 253l18 82q-59 -88 -174.5 -143.5t-234.5 -55.5q-213 0 -312.5 147t-48.5 384q46 223 206.5 362t371.5 139q122 0 208 -45.5t111 -121.5l31 149h268zM535 244q126 0 222.5 83t125.5 216q26 133 -35 216t-186 83q-126 0 -222.5 -83t-124.5 -216
q-29 -133 32.5 -216t187.5 -83z" />
    <glyph glyph-name="Gdotaccent" unicode="&#x120;" horiz-adv-x="1576" 
d="M1016 1602q-75 0 -111.5 43.5t-21.5 115.5q17 72 72 116t130 44t112 -44t22 -116q-17 -72 -72.5 -115.5t-130.5 -43.5zM1487 805l-117 -543q-140 -140 -314.5 -215.5t-367.5 -75.5q-118 0 -216.5 26.5t-169 74.5t-121 115.5t-73.5 149.5t-26.5 177.5t20.5 198.5
q33 157 113 293t195 237t269 159t325 58q183 0 321.5 -80.5t208.5 -220.5l-262 -155q-39 93 -122 144.5t-200 51.5q-209 0 -364 -138.5t-199 -348.5q-29 -136 1 -244.5t121 -173.5t232 -66q240 0 402 144l43 205h-320l49 227h572z" />
    <glyph glyph-name="gdotaccent" unicode="&#x121;" horiz-adv-x="1316" 
d="M637 1374q15 66 73.5 114t125.5 48q66 0 104 -48t23 -114q-13 -68 -71.5 -116t-123.5 -48q-69 0 -107 47.5t-24 116.5zM1243 1026l-196 -922q-51 -242 -239.5 -393t-438.5 -151q-143 0 -268 53.5t-185 140.5l160 189q53 -67 142.5 -108.5t182.5 -41.5q140 0 251 83
t147 253l18 82q-59 -88 -174.5 -143.5t-234.5 -55.5q-213 0 -312.5 147t-48.5 384q46 223 206.5 362t371.5 139q122 0 208 -45.5t111 -121.5l31 149h268zM535 244q126 0 222.5 83t125.5 216q26 133 -35 216t-186 83q-126 0 -222.5 -83t-124.5 -216q-29 -133 32.5 -216
t187.5 -83z" />
    <glyph glyph-name="uni0122" unicode="&#x122;" horiz-adv-x="1576" 
d="M1487 805l-117 -543q-140 -140 -314.5 -215.5t-367.5 -75.5q-118 0 -216.5 26.5t-169 74.5t-121 115.5t-73.5 149.5t-26.5 177.5t20.5 198.5q33 157 113 293t195 237t269 159t325 58q183 0 321.5 -80.5t208.5 -220.5l-262 -155q-39 93 -122 144.5t-200 51.5
q-209 0 -364 -138.5t-199 -348.5q-29 -136 1 -244.5t121 -173.5t232 -66q240 0 402 144l43 205h-320l49 227h572zM535 -172h264l-219 -377h-207z" />
    <glyph glyph-name="uni0123" unicode="&#x123;" horiz-adv-x="1316" 
d="M877 1190h-259l297 342h265zM1243 1026l-196 -922q-51 -242 -239.5 -393t-438.5 -151q-143 0 -268 53.5t-185 140.5l160 189q53 -67 142.5 -108.5t182.5 -41.5q140 0 251 83t147 253l18 82q-59 -88 -174.5 -143.5t-234.5 -55.5q-213 0 -312.5 147t-48.5 384
q46 223 206.5 362t371.5 139q122 0 208 -45.5t111 -121.5l31 149h268zM535 244q126 0 222.5 83t125.5 216q26 133 -35 216t-186 83q-126 0 -222.5 -83t-124.5 -216q-29 -133 32.5 -216t187.5 -83z" />
    <glyph glyph-name="Hcircumflex" unicode="&#x124;" horiz-adv-x="1558" 
d="M1124 1581l-120 193l-201 -193h-268l368 342h264l224 -342h-267zM1542 1434l-303 -1434h-276l116 553h-669l-117 -553h-277l303 1434h277l-131 -625h668l133 625h276z" />
    <glyph glyph-name="hcircumflex" unicode="&#x125;" horiz-adv-x="1239" 
d="M633 1647l-121 192l-201 -192h-266l367 342h264l223 -342h-266zM809 1047q162 0 243.5 -103.5t47.5 -265.5l-144 -678h-266l129 610q20 95 -26.5 157t-137.5 62q-97 0 -174.5 -67t-99.5 -170l-125 -592h-268l319 1497h266l-129 -606q53 70 152.5 113t212.5 43z" />
    <glyph glyph-name="Hbar" unicode="&#x126;" horiz-adv-x="1630" 
d="M1640 1051h-143l-223 -1051h-277l127 606h-667l-127 -606h-277l221 1051h-143l43 192h143l39 191h277l-39 -191h668l38 191h277l-39 -191h143zM1221 1051h-670l-39 -189h668z" />
    <glyph glyph-name="hbar" unicode="&#x127;" horiz-adv-x="1239" 
d="M817 1047q170 0 243 -103.5t32 -292.5l-136 -651h-268l123 584q49 221 -152 221q-111 0 -185 -63.5t-99 -182.5l-119 -559h-268l250 1178h-150l37 174h149l33 147h266l-30 -147h346l-37 -174h-346l-70 -320q62 89 162 139t219 50z" />
    <glyph glyph-name="Itilde" unicode="&#x128;" horiz-adv-x="620" 
d="M666 1595q-44 0 -80.5 15t-83.5 49q-53 43 -94 43q-63 0 -86 -100h-193q31 150 99 226.5t167 76.5q44 0 80.5 -15t81.5 -49q53 -43 96 -43q63 0 86 103h193q-31 -151 -99 -228.5t-167 -77.5zM324 1434h276l-303 -1434h-277z" />
    <glyph glyph-name="itilde" unicode="&#x129;" horiz-adv-x="550" 
d="M383 1268q-49 43 -92 43q-24 0 -40 -23t-28 -78h-170q65 303 226 303q44 0 80 -14.5t81 -48.5q53 -43 95 -43q25 0 40 22t27 80h170q-65 -305 -225 -305q-44 0 -80.5 15t-83.5 49zM209 1024h266l-217 -1024h-268z" />
    <glyph glyph-name="Imacron" unicode="&#x12a;" horiz-adv-x="620" 
d="M207 1829h678l-43 -209h-678zM324 1434h276l-303 -1434h-277z" />
    <glyph glyph-name="imacron" unicode="&#x12b;" horiz-adv-x="550" 
d="M150 1438h559l-43 -209h-560zM209 1024h266l-217 -1024h-268z" />
    <glyph glyph-name="Ibreve" unicode="&#x12c;" horiz-adv-x="620" 
d="M492 1575q-166 0 -241 80t-46 225l6 18h209q-34 -155 108 -155q140 0 177 155h208l-4 -18q-31 -145 -140.5 -225t-276.5 -80zM324 1434h276l-303 -1434h-277z" />
    <glyph glyph-name="ibreve" unicode="&#x12d;" horiz-adv-x="550" 
d="M375 1184q-147 0 -215 82t-39 223l4 18h197q-34 -155 88 -155q64 0 102 38t55 117h197l-4 -18q-29 -141 -133 -223t-252 -82zM209 1024h266l-217 -1024h-268z" />
    <glyph glyph-name="Iogonek" unicode="&#x12e;" horiz-adv-x="620" 
d="M297 0q-106 -59 -155.5 -101.5t-55.5 -78.5q-7 -35 17.5 -51.5t82.5 -16.5h58l-41 -190h-107q-136 1 -198.5 53t-44.5 143q15 69 70 132t145 112l-45 4l301 1428h276z" />
    <glyph glyph-name="iogonek" unicode="&#x12f;" horiz-adv-x="550" 
d="M451 1530q74 0 111 -44.5t20 -115.5q-15 -72 -70.5 -116t-130.5 -44t-111.5 44t-21.5 116t71.5 116t131.5 44zM209 1024h266l-217 -1024q-198 -109 -213 -180q-6 -34 19.5 -51t85.5 -17h55l-41 -190h-105q-138 0 -201 52.5t-44 143.5q15 69 70 132t145 112l-37 2z" />
    <glyph glyph-name="Idotaccent" unicode="&#x130;" horiz-adv-x="620" 
d="M485 1602q-72 0 -107 44t-20 115q13 70 69 115t128 45t107.5 -44.5t21.5 -115.5q-15 -70 -71 -114.5t-128 -44.5zM324 1434h276l-303 -1434h-277z" />
    <glyph glyph-name="dotlessi" unicode="&#x131;" horiz-adv-x="550" 
d="M209 1024h266l-217 -1024h-268z" />
    <glyph glyph-name="ij" unicode="&#x133;" horiz-adv-x="1103" 
d="M381 1210q-75 0 -112.5 44t-20.5 116q15 72 71 116t130 44q75 0 112.5 -44t20.5 -116q-15 -72 -71 -116t-130 -44zM932 1210q-75 0 -111.5 44t-21.5 116t71 116t131 44q74 0 111.5 -44.5t20.5 -115.5q-15 -72 -70.5 -116t-130.5 -44zM209 1024h266l-217 -1024h-268z
M276 -174h115q59 0 92 27.5t45 87.5l232 1083h266l-242 -1133q-31 -148 -128 -224.5t-255 -76.5h-176z" />
    <glyph glyph-name="Jcircumflex" unicode="&#x134;" horiz-adv-x="1179" 
d="M1239 1581l-121 193l-200 -193h-269l369 342h264l223 -342h-266zM397 -31q-130 0 -232 62.5t-150.5 168.5t-30.5 228l290 88l-8 -41q-20 -97 35 -166t154 -69q97 0 181.5 69t104.5 166l203 959h277l-203 -951q-29 -140 -122.5 -258.5t-226.5 -187t-272 -68.5z" />
    <glyph glyph-name="jcircumflex" unicode="&#x135;" horiz-adv-x="550" 
d="M737 1190h-237l-82 192l-164 -192h-238l310 342h247zM209 1024h266l-242 -1133q-31 -148 -128.5 -224.5t-256.5 -76.5h-174l52 236h114q114 0 137 115z" />
    <glyph glyph-name="uni0136" unicode="&#x136;" horiz-adv-x="1406" 
d="M1542 1434l-807 -721l502 -713h-342l-387 524l-127 -104l-88 -420h-277l303 1434h277l-139 -662l751 662h334zM412 -172h264l-219 -377h-207z" />
    <glyph glyph-name="uni0137" unicode="&#x137;" horiz-adv-x="1140" 
d="M666 0l-265 377l-84 -78l-61 -299h-268l319 1499h266l-190 -893l502 418h309l-555 -475l344 -549h-317zM285 -172h264l-219 -377h-209z" />
    <glyph glyph-name="Lacute" unicode="&#x139;" horiz-adv-x="1202" 
d="M578 1581h-259l295 342h267zM1049 256l-54 -256h-979l303 1434h277l-250 -1178h703z" />
    <glyph glyph-name="lacute" unicode="&#x13a;" horiz-adv-x="534" 
d="M586 1647h-258l295 342h264zM-20 0l319 1499h266l-317 -1499h-268z" />
    <glyph glyph-name="uni013B" unicode="&#x13b;" horiz-adv-x="1202" 
d="M1049 256l-54 -256h-979l303 1434h277l-250 -1178h703zM315 -172h265l-220 -377h-206z" />
    <glyph glyph-name="uni013C" unicode="&#x13c;" horiz-adv-x="534" 
d="M-20 0l319 1499h266l-317 -1499h-268zM-4 -172h264l-219 -377h-209z" />
    <glyph glyph-name="Lcaron" unicode="&#x13d;" horiz-adv-x="1202" 
d="M829 1462h263l-148 -426h-205zM1049 256l-54 -256h-979l303 1434h277l-250 -1178h703z" />
    <glyph glyph-name="lcaron" unicode="&#x13e;" horiz-adv-x="534" 
d="M-20 0l319 1499h266l-317 -1499h-268zM643 1499h205l-90 -426h-207z" />
    <glyph glyph-name="Ldot" unicode="&#x13f;" horiz-adv-x="1214" 
d="M1049 256l-54 -256h-979l303 1434h277l-250 -1178h703zM803 561q-77 0 -114.5 48.5t-22.5 127.5q17 78 76 126t137 48t116 -48t21 -126q-15 -78 -75 -127t-138 -49z" />
    <glyph glyph-name="ldot" unicode="&#x140;" horiz-adv-x="534" 
d="M-20 0l319 1499h266l-317 -1499h-268zM662 565q-68 0 -106.5 47.5t-23.5 114.5q12 67 71 115.5t128 48.5q64 0 101.5 -48t25.5 -116q-15 -67 -72.5 -114.5t-123.5 -47.5z" />
    <glyph glyph-name="Lslash" unicode="&#x141;" horiz-adv-x="1261" 
d="M1108 256l-53 -256h-979l102 492l-237 -111l51 240l237 110l150 703h276l-118 -560l516 242l-49 -239l-519 -242l-79 -379h702z" />
    <glyph glyph-name="lslash" unicode="&#x142;" horiz-adv-x="743" 
d="M483 743l-155 -743h-269l127 598l-213 -104l50 227l213 104l141 674h268l-113 -528l252 123l-49 -228z" />
    <glyph glyph-name="Nacute" unicode="&#x143;" horiz-adv-x="1603" 
d="M1055 1581h-256l295 342h264zM1587 1434l-303 -1434h-260l-526 983l-209 -983h-273l303 1434h261l528 -983l207 983h272z" />
    <glyph glyph-name="nacute" unicode="&#x144;" horiz-adv-x="1239" 
d="M809 1190h-258l295 342h266zM807 1053q153 0 238 -108t53 -261l-144 -684h-268l127 592q19 91 -31 154t-139 63q-90 0 -166.5 -63.5t-95.5 -153.5l-125 -592h-268l219 1024h260l-35 -162q63 86 165.5 138.5t209.5 52.5z" />
    <glyph glyph-name="uni0145" unicode="&#x145;" horiz-adv-x="1603" 
d="M1587 1434l-303 -1434h-262l-524 985l-207 -985h-275l303 1434h263l524 -985l209 985h272zM481 -172h264l-219 -377h-207z" />
    <glyph glyph-name="uni0146" unicode="&#x146;" horiz-adv-x="1239" 
d="M807 1053q153 0 238 -108t53 -261l-144 -684h-268l127 592q19 91 -31 154t-139 63q-90 0 -166.5 -63.5t-95.5 -153.5l-125 -592h-268l219 1024h260l-35 -162q63 86 165.5 138.5t209.5 52.5zM299 -172h264l-219 -377h-209z" />
    <glyph glyph-name="Ncaron" unicode="&#x147;" horiz-adv-x="1603" 
d="M854 1581l-223 342h268l121 -190l201 190h266l-369 -342h-264zM1587 1434l-303 -1434h-260l-526 983l-209 -983h-273l303 1434h261l528 -983l207 983h272z" />
    <glyph glyph-name="ncaron" unicode="&#x148;" horiz-adv-x="1239" 
d="M1225 1532l-369 -342h-264l-223 342h268l121 -191l200 191h267zM807 1053q153 0 238 -108t53 -261l-144 -684h-268l127 592q19 91 -31 154t-139 63q-90 0 -166.5 -63.5t-95.5 -153.5l-125 -592h-268l219 1024h260l-35 -162q63 86 165.5 138.5t209.5 52.5z" />
    <glyph glyph-name="Eng" unicode="&#x14a;" horiz-adv-x="1603" 
d="M1587 1434l-319 -1508q-31 -147 -128 -224t-255 -77h-176l51 238h114q109 0 132 94l12 47l-520 979l-209 -983h-273l303 1434h261l528 -983l207 983h272z" />
    <glyph glyph-name="eng" unicode="&#x14b;" horiz-adv-x="1239" 
d="M807 1053q153 0 238 -108t53 -261l-164 -782q-35 -134 -132.5 -205.5t-248.5 -71.5h-174l51 236h115q112 0 135 110l133 621q19 91 -31 154t-139 63q-90 0 -166.5 -63.5t-95.5 -153.5l-125 -592h-268l219 1024h260l-35 -162q63 86 165.5 138.5t209.5 52.5z" />
    <glyph glyph-name="Omacron" unicode="&#x14c;" horiz-adv-x="1695" 
d="M745 1829h678l-45 -209h-678zM98 715q41 208 175 380.5t328.5 271t404.5 95.5q211 3 363 -95.5t212.5 -271t15.5 -380.5q-32 -155 -118.5 -294t-206.5 -238.5t-272 -156.5t-310 -55q-212 -3 -364.5 95t-213 270t-14.5 379zM1307 715q46 212 -54.5 348.5t-302.5 136.5
q-201 0 -359 -136.5t-204 -348.5q-44 -211 55.5 -346.5t300.5 -135.5q202 0 361 135.5t203 346.5z" />
    <glyph glyph-name="omacron" unicode="&#x14d;" horiz-adv-x="1275" 
d="M451 1438h677l-43 -209h-677zM477 -29q-163 0 -275.5 73t-154.5 198.5t-8 279.5q33 153 127 277t238 198t311 74q168 0 279.5 -74t149.5 -197.5t5 -277.5q-25 -114 -85 -214.5t-145.5 -175.5t-200 -118t-241.5 -43zM528 211q132 0 228 88.5t125 222.5t-27.5 221.5
t-187.5 87.5t-230 -88t-127 -221q-30 -136 27.5 -223.5t191.5 -87.5z" />
    <glyph glyph-name="Obreve" unicode="&#x14e;" horiz-adv-x="1695" 
d="M1030 1575q-158 0 -237 83.5t-50 221.5l5 18h208q-15 -70 14.5 -112.5t94.5 -42.5t113 42.5t63 112.5h209l-4 -18q-29 -138 -143.5 -221.5t-272.5 -83.5zM694 -29q-217 0 -368 95t-210 265t-14 386q45 215 176.5 385t323 265t408.5 95t367.5 -95t209 -264.5t12.5 -385.5
q-34 -161 -118.5 -300t-203 -237t-269.5 -153.5t-314 -55.5zM748 231q203 0 363 137t204 349q46 212 -56 348.5t-305 136.5q-202 0 -361.5 -136.5t-205.5 -348.5q-44 -212 57.5 -349t303.5 -137z" />
    <glyph glyph-name="obreve" unicode="&#x14f;" horiz-adv-x="1275" 
d="M455 1507h209q-15 -71 14.5 -113t93.5 -42q65 0 113 42.5t63 112.5h209q-31 -146 -146 -234.5t-274 -88.5q-158 0 -235.5 88.5t-46.5 234.5zM477 -29q-163 0 -275.5 73t-154.5 198.5t-8 279.5q33 153 127 277t238 198t311 74q168 0 279.5 -74t149.5 -197.5t5 -277.5
q-25 -114 -85 -214.5t-145.5 -175.5t-200 -118t-241.5 -43zM528 211q132 0 228 88.5t125 222.5t-27.5 221.5t-187.5 87.5t-230 -88t-127 -221q-30 -136 27.5 -223.5t191.5 -87.5z" />
    <glyph glyph-name="Ohungarumlaut" unicode="&#x150;" horiz-adv-x="1695" 
d="M940 1923h264l-315 -342h-258zM1372 1923h266l-315 -342h-260zM98 715q41 208 175 380.5t328.5 271t404.5 95.5q211 3 363 -95.5t212.5 -271t15.5 -380.5q-32 -155 -118.5 -294t-206.5 -238.5t-272 -156.5t-310 -55q-212 -3 -364.5 95t-213 270t-14.5 379zM1307 715
q46 212 -54.5 348.5t-302.5 136.5q-201 0 -359 -136.5t-204 -348.5q-44 -211 55.5 -346.5t300.5 -135.5q202 0 361 135.5t203 346.5z" />
    <glyph glyph-name="ohungarumlaut" unicode="&#x151;" horiz-adv-x="1275" 
d="M596 1190h-258l297 342h264zM1036 1190h-258l295 342h266zM477 -29q-163 0 -275.5 73t-154.5 198.5t-8 279.5q33 153 127 277t238 198t311 74q168 0 279.5 -74t149.5 -197.5t5 -277.5q-25 -114 -85 -214.5t-145.5 -175.5t-200 -118t-241.5 -43zM528 211q132 0 228 88.5
t125 222.5t-27.5 221.5t-187.5 87.5t-230 -88t-127 -221q-30 -136 27.5 -223.5t191.5 -87.5z" />
    <glyph glyph-name="OE" unicode="&#x152;" horiz-adv-x="2232" 
d="M2019 250l-53 -250h-1270q-219 0 -371 89.5t-212 252.5t-15 373q42 209 173.5 374t322 256t405.5 89h1250l-51 -250h-746l-72 -336h697l-54 -248h-696l-74 -350h766zM981 256l195 922h-230q-207 0 -361 -126.5t-198 -336.5q-44 -209 56.5 -334t306.5 -125h231z" />
    <glyph glyph-name="oe" unicode="&#x153;" horiz-adv-x="2072" 
d="M1933 449h-800q-24 -111 47.5 -181.5t195.5 -70.5q100 0 195 34.5t155 92.5l115 -158q-86 -86 -227.5 -137.5t-294.5 -51.5q-132 0 -230.5 43.5t-156.5 124.5q-192 -174 -455 -174q-163 0 -275.5 73t-154.5 198.5t-8 279.5q33 153 127 277t238 198t311 74
q135 0 233 -47.5t152 -132.5q189 156 436 156q267 0 374 -158.5t23 -439.5zM1495 848q-115 0 -211.5 -71t-120.5 -165h543q21 103 -35 169.5t-176 66.5zM528 211q122 0 214 76t128 196l7 33q3 19 10 41q16 121 -41.5 197.5t-179.5 76.5q-131 0 -230 -88t-127 -221
q-30 -136 27.5 -223.5t191.5 -87.5z" />
    <glyph glyph-name="Racute" unicode="&#x154;" horiz-adv-x="1409" 
d="M936 1581h-258l295 342h264zM565 506h-170l-104 -504h-277l303 1432h658q126 0 219.5 -62t133 -168.5t13.5 -232.5q-33 -158 -152.5 -279.5t-273.5 -161.5l-43 -6l302 -518l-330 -6zM451 756h344q89 0 164.5 62t95.5 153q19 88 -30.5 150.5t-137.5 62.5h-346z" />
    <glyph glyph-name="racute" unicode="&#x155;" horiz-adv-x="845" 
d="M659 1190h-258l297 342h265zM788 1049q45 0 89 -13l-56 -254q-90 4 -137 4q-128 0 -210.5 -70t-111.5 -206l-106 -510h-268l219 1024h260l-39 -176q64 92 160 146.5t200 54.5z" />
    <glyph glyph-name="uni0156" unicode="&#x156;" horiz-adv-x="1409" 
d="M565 506h-170l-104 -504h-277l303 1432h658q126 0 219.5 -62t133 -168.5t13.5 -232.5q-33 -158 -152.5 -279.5t-273.5 -161.5l-43 -6l302 -518l-330 -6zM451 756h344q89 0 164.5 62t95.5 153q19 88 -30.5 150.5t-137.5 62.5h-346zM389 -172h264l-219 -377h-207z" />
    <glyph glyph-name="uni0157" unicode="&#x157;" horiz-adv-x="845" 
d="M788 1049q45 0 89 -13l-56 -254q-90 4 -137 4q-128 0 -210.5 -70t-111.5 -206l-106 -510h-268l219 1024h260l-39 -176q64 92 160 146.5t200 54.5zM-47 -172h264l-219 -377h-209z" />
    <glyph glyph-name="Rcaron" unicode="&#x158;" horiz-adv-x="1409" 
d="M735 1581l-223 342h266l121 -190l201 190h266l-367 -342h-264zM565 506h-170l-104 -504h-277l303 1432h658q126 0 219.5 -62t133 -168.5t13.5 -232.5q-33 -158 -152.5 -279.5t-273.5 -161.5l-43 -6l302 -518l-330 -6zM451 756h344q89 0 164.5 62t95.5 153
q19 88 -30.5 150.5t-137.5 62.5h-346z" />
    <glyph glyph-name="rcaron" unicode="&#x159;" horiz-adv-x="845" 
d="M1040 1532l-366 -342h-264l-224 342h267l120 -191l201 191h266zM788 1049q45 0 89 -13l-56 -254q-90 4 -137 4q-128 0 -210.5 -70t-111.5 -206l-106 -510h-268l219 1024h260l-39 -176q64 92 160 146.5t200 54.5z" />
    <glyph glyph-name="Sacute" unicode="&#x15a;" horiz-adv-x="1296" 
d="M936 1581h-258l295 342h264zM512 -29q-213 0 -355 84.5t-186 235.5l224 151q43 -107 141 -164t239 -57q129 0 208 48t98 134q12 67 -29 109t-156 70l-209 53q-384 98 -317 405q40 190 208.5 306t418.5 116q193 0 323 -69.5t174 -194.5l-219 -154q-87 170 -332 170
q-125 0 -199.5 -44t-92.5 -123q-12 -61 30 -100.5t162 -69.5l217 -56q369 -92 303 -403q-43 -202 -218 -324.5t-433 -122.5z" />
    <glyph glyph-name="sacute" unicode="&#x15b;" horiz-adv-x="1050" 
d="M743 1190h-258l295 342h267zM377 -29q-150 0 -265.5 48t-172.5 133l157 180q50 -64 139.5 -103t190.5 -39q84 0 134 29t61 78q8 39 -18.5 64t-94.5 42l-178 46q-143 36 -197 107.5t-29 180.5q32 153 167 243.5t335 90.5q135 0 241 -42.5t159 -115.5l-160 -180
q-120 117 -287 117q-165 0 -188 -102q-6 -36 18.5 -59.5t91.5 -41.5l178 -45q148 -38 203 -109t31 -182q-34 -158 -170.5 -249t-345.5 -91z" />
    <glyph glyph-name="Scircumflex" unicode="&#x15c;" horiz-adv-x="1296" 
d="M670 1581h-267l369 342h264l224 -342h-269l-119 193zM860 821q369 -92 303 -403q-43 -202 -218 -324.5t-433 -122.5q-213 0 -355 84.5t-186 235.5l224 151q43 -107 141 -164t239 -57q129 0 208 48t98 134q12 67 -29 109t-156 70l-209 53q-384 98 -317 405
q40 190 208.5 306t418.5 116q193 0 323 -69.5t174 -194.5l-219 -154q-87 170 -332 170q-125 0 -199.5 -44t-92.5 -123q-12 -61 30 -100.5t162 -69.5z" />
    <glyph glyph-name="scircumflex" unicode="&#x15d;" horiz-adv-x="1050" 
d="M469 1190h-268l368 342h265l223 -342h-266l-121 192zM659 602q148 -38 203 -109t31 -182q-34 -158 -170.5 -249t-345.5 -91q-150 0 -265.5 48t-172.5 133l157 180q50 -64 139.5 -103t190.5 -39q84 0 134 29t61 78q8 39 -18.5 64t-94.5 42l-178 46q-143 36 -197 107.5
t-29 180.5q32 153 167 243.5t335 90.5q135 0 241 -42.5t159 -115.5l-160 -180q-120 117 -287 117q-165 0 -188 -102q-6 -36 18.5 -59.5t91.5 -41.5z" />
    <glyph glyph-name="Scedilla" unicode="&#x15e;" horiz-adv-x="1296" 
d="M633 -18l-193 -392h-270l231 390q-171 20 -282 100.5t-148 210.5l224 151q43 -107 141 -164t239 -57q129 0 208 48t98 134q12 67 -29 109t-156 70l-209 53q-384 98 -317 405q40 190 208.5 306t418.5 116q193 0 323 -69.5t174 -194.5l-219 -154q-87 170 -332 170
q-125 0 -199.5 -44t-92.5 -123q-12 -61 30 -100.5t162 -69.5l217 -56q369 -92 303 -403q-38 -178 -178.5 -294t-351.5 -142z" />
    <glyph glyph-name="scedilla" unicode="&#x15f;" horiz-adv-x="1050" 
d="M893 311q-29 -133 -133.5 -219t-265.5 -108l-193 -394h-272l233 392q-112 13 -196 57.5t-127 112.5l157 180q50 -64 139.5 -103t190.5 -39q84 0 134 29t61 78q8 39 -18.5 64t-94.5 42l-178 46q-143 36 -197 107.5t-29 180.5q32 153 167 243.5t335 90.5q135 0 241 -42.5
t159 -115.5l-160 -180q-120 117 -287 117q-165 0 -188 -102q-6 -36 18.5 -59.5t91.5 -41.5l178 -45q148 -38 203 -109t31 -182z" />
    <glyph glyph-name="Scaron" unicode="&#x160;" horiz-adv-x="1296" 
d="M698 1581l-223 342h268l121 -190l201 190h266l-368 -342h-265zM860 821q369 -92 303 -403q-43 -202 -218 -324.5t-433 -122.5q-213 0 -355 84.5t-186 235.5l224 151q43 -107 141 -164t239 -57q129 0 208 48t98 134q12 67 -29 109t-156 70l-209 53q-384 98 -317 405
q40 190 208.5 306t418.5 116q193 0 323 -69.5t174 -194.5l-219 -154q-87 170 -332 170q-125 0 -199.5 -44t-92.5 -123q-12 -61 30 -100.5t162 -69.5z" />
    <glyph glyph-name="scaron" unicode="&#x161;" horiz-adv-x="1050" 
d="M498 1190l-224 342h267l121 -191l200 191h266l-366 -342h-264zM659 602q148 -38 203 -109t31 -182q-34 -158 -170.5 -249t-345.5 -91q-150 0 -265.5 48t-172.5 133l157 180q50 -64 139.5 -103t190.5 -39q84 0 134 29t61 78q8 39 -18.5 64t-94.5 42l-178 46
q-143 36 -197 107.5t-29 180.5q32 153 167 243.5t335 90.5q135 0 241 -42.5t159 -115.5l-160 -180q-120 117 -287 117q-165 0 -188 -102q-6 -36 18.5 -59.5t91.5 -41.5z" />
    <glyph glyph-name="uni0162" unicode="&#x162;" horiz-adv-x="1241" 
d="M1350 1434l-54 -256h-440l-248 -1178h-26l-201 -410h-272l243 410l-20 4l248 1174h-439l54 256h1155z" />
    <glyph glyph-name="uni0163" unicode="&#x163;" horiz-adv-x="864" 
d="M518 788l-100 -471q-7 -33 9.5 -55t49.5 -22h213l-49 -240h-160l-190 -410h-240l223 424q-78 28 -115.5 101.5t-17.5 165.5l109 507h-195l51 236h195l70 328h266l-68 -328h287l-51 -236h-287z" />
    <glyph glyph-name="Tcaron" unicode="&#x164;" horiz-adv-x="1241" 
d="M672 1581l-223 342h268l121 -190l200 190h267l-369 -342h-264zM1350 1434l-54 -256h-440l-248 -1178h-276l248 1178h-439l54 256h1155z" />
    <glyph glyph-name="tcaron" unicode="&#x165;" horiz-adv-x="868" 
d="M825 1591h207l-90 -426h-207zM326 0q-101 0 -157 71.5t-34 172.5l115 544h-195l51 236h195l70 328h266l-68 -328h287l-51 -236h-287l-110 -522q-3 -26 20 -26h262l-49 -240h-315z" />
    <glyph glyph-name="Tbar" unicode="&#x166;" horiz-adv-x="1241" 
d="M856 1178l-70 -336h256l-47 -219h-256l-131 -623h-276l131 623h-256l47 219h256l70 336h-439l54 256h1155l-54 -256h-440z" />
    <glyph glyph-name="tbar" unicode="&#x167;" horiz-adv-x="864" 
d="M805 788h-287l-29 -135h291l-51 -235h-291l-20 -101q-7 -33 9.5 -55t49.5 -22h213l-49 -240h-281q-116 0 -180 82t-39 199l29 137h-193l52 235h192l29 135h-195l51 236h195l70 328h266l-68 -328h287z" />
    <glyph glyph-name="Utilde" unicode="&#x168;" horiz-adv-x="1501" 
d="M1106 1595q-44 0 -80.5 15t-83.5 49q-53 43 -94 43q-63 0 -86 -100h-193q30 149 99 226t168 77q44 0 80 -15t81 -49q53 -43 97 -43q63 0 86 103h192q-31 -151 -99 -228.5t-167 -77.5zM596 -29q-178 0 -299 78t-166 214.5t-8 309.5l182 861h277l-185 -875
q-33 -150 33 -236.5t221 -86.5q164 0 262.5 85t130.5 238l185 875h278l-182 -861q-57 -266 -254 -434t-475 -168z" />
    <glyph glyph-name="utilde" unicode="&#x169;" horiz-adv-x="1224" 
d="M717 1268q-49 43 -92 43q-63 0 -86 -101h-195q65 303 268 303q44 0 81 -15t81 -48q53 -43 96 -43q64 0 84 102h195q-65 -305 -266 -305q-45 0 -82 15t-84 49zM1157 1024l-217 -1024h-262l35 162q-64 -86 -166.5 -138.5t-208.5 -52.5q-154 0 -239.5 108.5t-53.5 262.5
l148 682h266l-127 -592q-19 -90 30.5 -152.5t139.5 -64.5q89 0 166.5 63t97.5 154l123 592h268z" />
    <glyph glyph-name="Umacron" unicode="&#x16a;" horiz-adv-x="1501" 
d="M647 1829h678l-43 -209h-678zM596 -29q-178 0 -299 78t-166 214.5t-8 309.5l182 861h277l-185 -875q-33 -150 33 -236.5t221 -86.5q164 0 262.5 85t130.5 238l185 875h278l-182 -861q-57 -266 -254 -434t-475 -168z" />
    <glyph glyph-name="umacron" unicode="&#x16b;" horiz-adv-x="1224" 
d="M424 1438h678l-43 -209h-678zM1157 1024l-217 -1024h-262l35 162q-64 -86 -166.5 -138.5t-208.5 -52.5q-154 0 -239.5 108.5t-53.5 262.5l148 682h266l-127 -592q-19 -90 30.5 -152.5t139.5 -64.5q89 0 166.5 63t97.5 154l123 592h268z" />
    <glyph glyph-name="Ubreve" unicode="&#x16c;" horiz-adv-x="1501" 
d="M932 1575q-158 0 -236.5 83.5t-50.5 221.5l6 18h209q-15 -70 14.5 -112.5t94.5 -42.5t113 42.5t63 112.5h209l-4 -18q-29 -138 -144 -221.5t-274 -83.5zM596 -29q-178 0 -299 78t-166 214.5t-8 309.5l182 861h277l-185 -875q-33 -150 33 -236.5t221 -86.5q164 0 262.5 85
t130.5 238l185 875h278l-182 -861q-57 -266 -254 -434t-475 -168z" />
    <glyph glyph-name="ubreve" unicode="&#x16d;" horiz-adv-x="1224" 
d="M426 1507h211q-15 -70 14 -112.5t92 -42.5q65 0 113.5 42.5t63.5 112.5h210l-4 -18q-29 -138 -143.5 -221.5t-273.5 -83.5q-158 0 -237 83.5t-50 221.5zM1157 1024l-217 -1024h-262l35 162q-64 -86 -166.5 -138.5t-208.5 -52.5q-154 0 -239.5 108.5t-53.5 262.5l148 682
h266l-127 -592q-19 -90 30.5 -152.5t139.5 -64.5q89 0 166.5 63t97.5 154l123 592h268z" />
    <glyph glyph-name="Uring" unicode="&#x16e;" horiz-adv-x="1501" 
d="M932 1563q-122 0 -189.5 78.5t-42.5 189.5q25 113 123.5 191.5t220.5 78.5t188.5 -78.5t43.5 -191.5q-25 -112 -123.5 -190t-220.5 -78zM963 1712q55 0 94 32.5t51 86.5q12 56 -12.5 88.5t-81.5 32.5t-96 -32.5t-50 -88.5q-12 -54 13 -86.5t82 -32.5zM596 -29
q-178 0 -299 78t-166 214.5t-8 309.5l182 861h277l-185 -875q-33 -150 33 -236.5t221 -86.5q164 0 262.5 85t130.5 238l185 875h278l-182 -861q-57 -266 -254 -434t-475 -168z" />
    <glyph glyph-name="uring" unicode="&#x16f;" horiz-adv-x="1224" 
d="M477 1440q23 113 122.5 191.5t221.5 78.5t188.5 -78.5t41.5 -191.5q-23 -111 -122.5 -190t-221.5 -79t-188 79t-42 190zM885 1440q11 56 -14 88.5t-80 32.5q-57 0 -96.5 -32.5t-51.5 -88.5q-11 -55 13.5 -87t80.5 -32q57 0 97 32.5t51 86.5zM1157 1024l-217 -1024h-262
l35 162q-64 -86 -166.5 -138.5t-208.5 -52.5q-154 0 -239.5 108.5t-53.5 262.5l148 682h266l-127 -592q-19 -90 30.5 -152.5t139.5 -64.5q89 0 166.5 63t97.5 154l123 592h268z" />
    <glyph glyph-name="Uhungarumlaut" unicode="&#x170;" horiz-adv-x="1501" 
d="M842 1923h266l-315 -342h-261zM1276 1923h266l-315 -342h-260zM596 -29q-178 0 -299 78t-166 214.5t-8 309.5l182 861h277l-185 -875q-33 -150 33 -236.5t221 -86.5q164 0 262.5 85t130.5 238l185 875h278l-182 -861q-57 -266 -254 -434t-475 -168z" />
    <glyph glyph-name="uhungarumlaut" unicode="&#x171;" horiz-adv-x="1224" 
d="M569 1190h-258l295 342h264zM1040 1190h-258l297 342h264zM1157 1024l-217 -1024h-262l35 162q-64 -86 -166.5 -138.5t-208.5 -52.5q-154 0 -239.5 108.5t-53.5 262.5l148 682h266l-127 -592q-19 -90 30.5 -152.5t139.5 -64.5q89 0 166.5 63t97.5 154l123 592h268z" />
    <glyph glyph-name="Uogonek" unicode="&#x172;" horiz-adv-x="1501" 
d="M1229 1434h278l-182 -861q-43 -204 -172.5 -354t-318.5 -211h4q-107 -61 -155 -103t-56 -79q-7 -34 18.5 -50t85.5 -16h55l-41 -190h-104q-139 0 -202 52.5t-42 141.5q21 116 154 209q-164 9 -274 88.5t-150 212.5t-4 299l182 861h277l-185 -875q-33 -150 33 -236.5
t221 -86.5q164 0 262.5 85t130.5 238z" />
    <glyph glyph-name="uogonek" unicode="&#x173;" horiz-adv-x="1224" 
d="M889 1024h268l-217 -1020l-20 -4q-102 -56 -146.5 -98.5t-52.5 -81.5q-6 -34 19.5 -51t84.5 -17h54l-39 -190h-105q-139 0 -202 52.5t-44 143.5q15 68 70 131.5t143 112.5l-22 4l33 156q-64 -86 -166.5 -138.5t-208.5 -52.5q-154 0 -239.5 108.5t-53.5 262.5l148 682h266
l-127 -592q-19 -90 30.5 -152.5t139.5 -64.5q89 0 166.5 63t97.5 154z" />
    <glyph glyph-name="Wcircumflex" unicode="&#x174;" horiz-adv-x="2160" 
d="M1104 1581h-266l366 342h264l224 -342h-267l-120 193zM1982 1434h295l-733 -1434h-307l-115 899l-497 -899h-306l-129 1434h297l82 -1047l594 1047h142l151 -1049z" />
    <glyph glyph-name="wcircumflex" unicode="&#x175;" horiz-adv-x="1748" 
d="M815 1190h-266l366 342h265l223 -342h-266l-121 192zM1784 1024l-545 -1024h-295l-76 692l-366 -692h-297l-109 1024h273l65 -707l383 707h246l82 -707l366 707h273z" />
    <glyph glyph-name="Ycircumflex" unicode="&#x176;" horiz-adv-x="1333" 
d="M690 1581h-266l367 342h264l223 -342h-266l-121 193zM1499 1434l-721 -865l-121 -569h-278l121 569l-353 865h316l231 -600l488 600h317z" />
    <glyph glyph-name="ycircumflex" unicode="&#x177;" horiz-adv-x="1134" 
d="M508 1190h-266l368 342h264l224 -342h-269l-120 192zM1182 1042l-707 -1181q-88 -149 -194.5 -210t-272.5 -61h-207l52 238h159q101 0 150.5 25t89.5 96l41 63l-201 1030h287l115 -723l401 723h287z" />
    <glyph glyph-name="Ydieresis" unicode="&#x178;" horiz-adv-x="1333" 
d="M610 1602q-72 0 -107.5 44t-21.5 115q15 71 70.5 115.5t128.5 44.5q72 0 107 -44.5t20 -115.5q-13 -70 -69 -114.5t-128 -44.5zM1098 1599q-72 0 -107 45.5t-20 116.5q13 70 68.5 115t127.5 45t107.5 -44.5t21.5 -115.5q-15 -71 -70 -116.5t-128 -45.5zM1499 1434
l-721 -865l-121 -569h-278l121 569l-353 865h316l231 -600l488 600h317z" />
    <glyph glyph-name="Zacute" unicode="&#x179;" horiz-adv-x="1247" 
d="M879 1581h-258l311 342h309zM1065 248l-53 -248h-1080l43 207l916 979h-692l51 248h1057l-43 -207l-916 -979h717z" />
    <glyph glyph-name="zacute" unicode="&#x17a;" horiz-adv-x="1017" 
d="M723 1190h-256l295 342h264zM834 227l-48 -227h-862l37 176l645 641h-491l49 225h837l-36 -176l-646 -639h515z" />
    <glyph glyph-name="Zdotaccent" unicode="&#x17b;" horiz-adv-x="1247" 
d="M813 1602q-74 0 -110.5 44t-22.5 115q15 72 71.5 116t131.5 44t111 -44t22 -116q-15 -70 -71.5 -114.5t-131.5 -44.5zM1065 248l-53 -248h-1080l43 207l916 979h-692l51 248h1057l-43 -207l-916 -979h717z" />
    <glyph glyph-name="zdotaccent" unicode="&#x17c;" horiz-adv-x="1017" 
d="M614 1210q-68 0 -105 47.5t-24 116.5q13 66 72 114t127 48q66 0 103.5 -48t23.5 -114q-13 -68 -71.5 -116t-125.5 -48zM834 227l-48 -227h-862l37 176l645 641h-491l49 225h837l-36 -176l-646 -639h515z" />
    <glyph glyph-name="Zcaron" unicode="&#x17d;" horiz-adv-x="1247" 
d="M678 1581l-223 342h266l121 -190l200 190h267l-367 -342h-264zM1065 248l-53 -248h-1080l43 207l916 979h-692l51 248h1057l-43 -207l-916 -979h717z" />
    <glyph glyph-name="zcaron" unicode="&#x17e;" horiz-adv-x="1017" 
d="M1110 1532l-367 -342h-264l-223 342h266l121 -191l201 191h266zM834 227l-48 -227h-862l37 176l645 641h-491l49 225h837l-36 -176l-646 -639h515z" />
    <glyph glyph-name="uni01CD" unicode="&#x1cd;" 
d="M795 1581l-224 342h267l120 -190l201 190h266l-366 -342h-264zM932 281h-604l-164 -281h-295l852 1434h291l262 -1434h-293zM897 518l-80 645l-352 -645h432z" />
    <glyph glyph-name="uni01CE" unicode="&#x1ce;" horiz-adv-x="1169" 
d="M598 1190l-223 342h266l121 -191l201 191h266l-367 -342h-264zM879 0h-226l35 170q-58 -91 -159.5 -142t-231.5 -51q-169 0 -252 92.5t-51 239.5q17 82 66 144t120.5 100t163 57.5t193.5 19t211 -19.5l14 70q15 75 -29.5 116.5t-128.5 41.5q-79 0 -161 -32.5t-144 -90.5
l-111 149q77 77 217.5 130t264.5 53q196 0 289 -110.5t55 -295.5zM717 463q-188 35 -313 1t-146 -136q-15 -71 25 -113.5t125 -42.5q116 0 196 63t103 175z" />
    <glyph glyph-name="uni01E2" unicode="&#x1e2;" horiz-adv-x="2232" 
d="M1991 1620h-678l43 209h678zM2021 254l-53 -254h-1040l63 305h-549l-254 -305h-329l1210 1434h1182l-53 -254h-746l-68 -328h699l-53 -254h-701l-72 -344h764zM1040 537l142 663l-555 -663h413z" />
    <glyph glyph-name="uni01E3" unicode="&#x1e3;" horiz-adv-x="1923" 
d="M1456 1438l-43 -209h-678l43 209h678zM1784 449h-801q-24 -111 48 -181.5t196 -70.5q100 0 195 34.5t155 92.5l115 -158q-86 -86 -228 -137.5t-295 -51.5q-144 0 -247 51.5t-158 145.5q-103 -100 -224 -148.5t-243 -48.5q-169 0 -252 92.5t-51 239.5q17 82 66 144
t120.5 100t163 57.5t193.5 19t211 -19.5l14 70q15 75 -29.5 116.5t-128.5 41.5q-79 0 -161 -32.5t-144 -90.5l-111 149q77 77 217.5 130t264.5 53q108 0 186.5 -35.5t120.5 -100.5q182 136 409 136q267 0 374.5 -158.5t23.5 -439.5zM1346 848q-115 0 -211.5 -71t-120.5 -165
h542q21 103 -34.5 169.5t-175.5 66.5zM408 172q120 0 197.5 62t99.5 169l12 60q-188 35 -313 1t-146 -136q-15 -71 25 -113.5t125 -42.5z" />
    <glyph glyph-name="Gcaron" unicode="&#x1e6;" horiz-adv-x="1576" 
d="M881 1581l-224 342h267l120 -190l201 190h266l-366 -342h-264zM1487 805l-117 -543q-140 -140 -314.5 -215.5t-367.5 -75.5q-118 0 -216.5 26.5t-169 74.5t-121 115.5t-73.5 149.5t-26.5 177.5t20.5 198.5q33 157 113 293t195 237t269 159t325 58q183 0 321.5 -80.5
t208.5 -220.5l-262 -155q-39 93 -122 144.5t-200 51.5q-209 0 -364 -138.5t-199 -348.5q-29 -136 1 -244.5t121 -173.5t232 -66q240 0 402 144l43 205h-320l49 227h572z" />
    <glyph glyph-name="gcaron" unicode="&#x1e7;" horiz-adv-x="1316" 
d="M1264 1532l-369 -342h-264l-223 342h268l121 -191l200 191h267zM1243 1026l-196 -922q-51 -242 -239.5 -393t-438.5 -151q-143 0 -268 53.5t-185 140.5l160 189q53 -67 142.5 -108.5t182.5 -41.5q140 0 251 83t147 253l18 82q-59 -88 -174.5 -143.5t-234.5 -55.5
q-213 0 -312.5 147t-48.5 384q46 223 206.5 362t371.5 139q122 0 208 -45.5t111 -121.5l31 149h268zM535 244q126 0 222.5 83t125.5 216q26 133 -35 216t-186 83q-126 0 -222.5 -83t-124.5 -216q-29 -133 32.5 -216t187.5 -83z" />
    <glyph glyph-name="uni01E8" unicode="&#x1e8;" horiz-adv-x="1406" 
d="M1430 1923l-369 -342h-264l-224 342h267l121 -190l200 190h269zM1542 1434l-807 -721l502 -713h-342l-387 524l-127 -104l-88 -420h-277l303 1434h277l-139 -662l751 662h334z" />
    <glyph glyph-name="uni01E9" unicode="&#x1e9;" horiz-adv-x="1138" 
d="M338 1647l-223 342h268l121 -191l201 191h266l-369 -342h-264zM666 0l-265 377l-84 -78l-61 -299h-268l319 1499h266l-190 -893l502 418h309l-555 -475l344 -549h-317z" />
    <glyph glyph-name="AEacute" unicode="&#x1fc;" horiz-adv-x="2232" 
d="M1710 1581h-256l295 342h264zM2021 254l-53 -254h-1040l63 305h-549l-254 -305h-329l1210 1434h1182l-53 -254h-746l-68 -328h699l-53 -254h-701l-72 -344h764zM1040 537l142 663l-555 -663h413z" />
    <glyph glyph-name="aeacute" unicode="&#x1fd;" horiz-adv-x="1923" 
d="M1569 1532l-303 -342h-258l297 342h264zM1784 449h-801q-24 -111 48 -181.5t196 -70.5q100 0 195 34.5t155 92.5l115 -158q-86 -86 -228 -137.5t-295 -51.5q-144 0 -247 51.5t-158 145.5q-103 -100 -224 -148.5t-243 -48.5q-169 0 -252 92.5t-51 239.5q17 82 66 144
t120.5 100t163 57.5t193.5 19t211 -19.5l14 70q15 75 -29.5 116.5t-128.5 41.5q-79 0 -161 -32.5t-144 -90.5l-111 149q77 77 217.5 130t264.5 53q108 0 186.5 -35.5t120.5 -100.5q182 136 409 136q267 0 374.5 -158.5t23.5 -439.5zM1346 848q-115 0 -211.5 -71t-120.5 -165
h542q21 103 -34.5 169.5t-175.5 66.5zM408 172q120 0 197.5 62t99.5 169l12 60q-188 35 -313 1t-146 -136q-15 -71 25 -113.5t125 -42.5z" />
    <glyph glyph-name="Oslashacute" unicode="&#x1fe;" horiz-adv-x="1695" 
d="M1114 1581h-258l295 342h264zM1597 715q-32 -155 -118.5 -294t-206.5 -238.5t-272 -156.5t-310 -55q-264 0 -424 148l-174 -144l-112 144l170 139q-110 194 -52 457q41 208 175 380.5t328.5 271t404.5 95.5q261 0 424 -147l176 145l112 -143l-172 -143q105 -200 51 -459z
M387 715q-30 -140 12 -254l797 655q-94 84 -246 84q-201 0 -359 -136.5t-204 -348.5zM1307 715q31 147 -15 256l-792 -654q93 -84 243 -84q202 0 361 135.5t203 346.5z" />
    <glyph glyph-name="oslashacute" unicode="&#x1ff;" horiz-adv-x="1284" 
d="M809 1190h-258l311 342h312zM1124 854q74 -139 31 -332q-52 -240 -237.5 -395.5t-434.5 -155.5q-183 0 -309 99l-149 -125l-97 123l148 120q-75 140 -31 334q52 238 238 393.5t434 155.5q188 0 309 -98l150 123l98 -121zM670 848q-136 0 -236.5 -89t-132.5 -237
q-20 -93 6 -162l522 433q-52 55 -159 55zM530 197q137 0 237 88t132 237q19 85 -4 160l-524 -434q60 -51 159 -51z" />
    <glyph glyph-name="uni0218" unicode="&#x218;" horiz-adv-x="1296" 
d="M512 -29q-213 0 -355 84.5t-186 235.5l224 151q43 -107 141 -164t239 -57q129 0 208 48t98 134q12 67 -29 109t-156 70l-209 53q-384 98 -317 405q40 190 208.5 306t418.5 116q193 0 323 -69.5t174 -194.5l-219 -154q-87 170 -332 170q-125 0 -199.5 -44t-92.5 -123
q-12 -61 30 -100.5t162 -69.5l217 -56q369 -92 303 -403q-43 -202 -218 -324.5t-433 -122.5zM346 -172h264l-219 -377h-207z" />
    <glyph glyph-name="uni0219" unicode="&#x219;" horiz-adv-x="1050" 
d="M377 -29q-150 0 -265.5 48t-172.5 133l157 180q50 -64 139.5 -103t190.5 -39q84 0 134 29t61 78q8 39 -18.5 64t-94.5 42l-178 46q-143 36 -197 107.5t-29 180.5q32 153 167 243.5t335 90.5q135 0 241 -42.5t159 -115.5l-160 -180q-120 117 -287 117q-165 0 -188 -102
q-6 -36 18.5 -59.5t91.5 -41.5l178 -45q148 -38 203 -109t31 -182q-34 -158 -170.5 -249t-345.5 -91zM207 -172h264l-219 -377h-209z" />
    <glyph glyph-name="uni021A" unicode="&#x21a;" horiz-adv-x="1241" 
d="M580 1178h-439l54 256h1155l-54 -256h-440l-248 -1178h-276zM287 -172h264l-219 -377h-209z" />
    <glyph glyph-name="uni021B" unicode="&#x21b;" horiz-adv-x="864" 
d="M256 807h-197l52 235h194l66 310h266l-66 -310h287l-49 -235h-287l-96 -451q-14 -62 9 -89t89 -27h166l-49 -240h-240q-165 0 -225 72t-26 233zM197 -172h204l-159 -377h-207z" />
    <glyph glyph-name="uni0237" unicode="&#x237;" horiz-adv-x="550" 
d="M-274 -174h114q114 0 137 115l232 1083h266l-242 -1133q-31 -148 -128.5 -224.5t-256.5 -76.5h-174z" />
    <glyph glyph-name="circumflex" unicode="&#x2c6;" horiz-adv-x="1269" 
d="M897 1190l-121 192l-201 -192h-266l367 342h264l223 -342h-266z" />
    <glyph glyph-name="caron" unicode="&#x2c7;" horiz-adv-x="1269" 
d="M1235 1532l-367 -342h-264l-223 342h266l121 -191l201 191h266z" />
    <glyph glyph-name="breve" unicode="&#x2d8;" horiz-adv-x="1269" 
d="M733 1184q-166 0 -242 80.5t-45 224.5l7 18h209q-34 -155 108 -155q139 0 176 155h209l-4 -18q-31 -145 -141 -225t-277 -80z" />
    <glyph glyph-name="dotaccent" unicode="&#x2d9;" horiz-adv-x="1269" 
d="M739 1210q-75 0 -111.5 44t-21.5 116q17 72 72.5 116t130.5 44t111.5 -44t21.5 -116q-17 -72 -72.5 -116t-130.5 -44z" />
    <glyph glyph-name="ring" unicode="&#x2da;" horiz-adv-x="1269" 
d="M731 1171q-122 0 -187.5 78.5t-41.5 190.5q25 113 123.5 191.5t220.5 78.5t188 -78.5t41 -191.5q-23 -111 -122.5 -190t-221.5 -79zM762 1321q57 0 96.5 32.5t50.5 86.5q12 56 -12.5 88.5t-81.5 32.5t-96 -32.5t-51 -88.5q-11 -55 14 -87t80 -32z" />
    <glyph glyph-name="ogonek" unicode="&#x2db;" horiz-adv-x="1269" 
d="M522 -438h-104q-139 0 -202 52.5t-44 143.5q21 93 112.5 174t235.5 127l96 -59q-198 -109 -213 -180q-6 -34 19.5 -51t85.5 -17h53z" />
    <glyph glyph-name="tilde" unicode="&#x2dc;" horiz-adv-x="1269" 
d="M907 1204q-44 0 -80.5 15t-83.5 49q-53 43 -94 43q-63 0 -86 -101h-194q32 150 100.5 226.5t167.5 76.5q44 0 81 -15t81 -48q53 -43 96 -43q63 0 86 102h193q-32 -151 -100 -228t-167 -77z" />
    <glyph glyph-name="hungarumlaut" unicode="&#x2dd;" horiz-adv-x="1269" 
d="M696 1532h267l-316 -342h-260zM1130 1532h267l-316 -342h-260z" />
    <glyph glyph-name="gravecomb" unicode="&#x300;" horiz-adv-x="0" 
d="M-668 1190l-219 342h312l165 -342h-258z" />
    <glyph glyph-name="acutecomb" unicode="&#x301;" horiz-adv-x="0" 
d="M-344 1532h309l-362 -342h-258z" />
    <glyph glyph-name="uni0302" unicode="&#x302;" horiz-adv-x="0" 
d="M-373 1190l-121 192l-200 -192h-269l369 342h264l224 -342h-267z" />
    <glyph glyph-name="tildecomb" unicode="&#x303;" horiz-adv-x="0" 
d="M-362 1204q-45 0 -82 15t-84 49q-49 43 -93 43q-63 0 -86 -101h-194q65 303 268 303q44 0 81 -15t81 -48q53 -43 96 -43q64 0 84 102h195q-65 -305 -266 -305z" />
    <glyph glyph-name="uni0304" unicode="&#x304;" horiz-adv-x="0" 
d="M-821 1438h678l-43 -209h-678z" />
    <glyph glyph-name="uni0306" unicode="&#x306;" horiz-adv-x="0" 
d="M-537 1184q-166 0 -241.5 80t-44.5 225l4 18h211q-34 -155 106 -155q142 0 176 155h211l-4 -18q-31 -145 -141 -225t-277 -80z" />
    <glyph glyph-name="uni0307" unicode="&#x307;" horiz-adv-x="0" 
d="M-530 1210q-75 0 -112 44t-22 116t71.5 116t131.5 44q74 0 111 -44.5t20 -115.5q-15 -72 -70 -116t-130 -44z" />
    <glyph glyph-name="uni0308" unicode="&#x308;" horiz-adv-x="0" 
d="M-774 1210q-73 0 -108.5 44.5t-20.5 115.5t69.5 115.5t126.5 44.5q73 0 108.5 -44.5t20.5 -115.5t-69.5 -115.5t-126.5 -44.5zM-287 1210q-72 0 -107.5 44.5t-21.5 115.5q15 70 71 115t128 45t107 -44.5t20 -115.5q-13 -70 -69 -115t-128 -45z" />
    <glyph glyph-name="uni030A" unicode="&#x30a;" horiz-adv-x="0" 
d="M-539 1171q-122 0 -187.5 78.5t-41.5 190.5q23 113 122.5 191.5t221.5 78.5t188 -78.5t41 -191.5q-23 -111 -122.5 -190t-221.5 -79zM-508 1321q57 0 97 32.5t51 86.5q11 56 -14.5 88.5t-80.5 32.5q-57 0 -96 -32.5t-51 -88.5q-11 -55 13.5 -87t80.5 -32z" />
    <glyph glyph-name="uni030B" unicode="&#x30b;" horiz-adv-x="0" 
d="M-573 1532h266l-316 -342h-260zM-139 1532h266l-317 -342h-259z" />
    <glyph glyph-name="uni030C" unicode="&#x30c;" horiz-adv-x="0" 
d="M-35 1532l-366 -342h-265l-223 342h266l121 -191l201 191h266z" />
    <glyph glyph-name="uni0312" unicode="&#x312;" horiz-adv-x="0" 
 />
    <glyph glyph-name="uni0315" unicode="&#x315;" horiz-adv-x="0" 
d="M-586 1569h262l-147 -426h-205z" />
    <glyph glyph-name="uni0326" unicode="&#x326;" horiz-adv-x="0" 
d="M-956 -172h264l-219 -377h-207z" />
    <glyph glyph-name="uni0327" unicode="&#x327;" horiz-adv-x="0" 
d="M-883 25h228l-213 -435h-273z" />
    <glyph glyph-name="uni0328" unicode="&#x328;" horiz-adv-x="0" 
d="M-748 -438h-104q-139 0 -202 52.5t-44 143.5q21 93 112.5 174t235.5 127l95 -59q-105 -59 -154 -101.5t-57 -78.5q-8 -34 16.5 -51t83.5 -17h57z" />
    <glyph glyph-name="uni060C" unicode="&#x60c;" horiz-adv-x="518" 
d="M475 -2h-266l29 606h217z" />
    <glyph glyph-name="uni0615" unicode="&#x615;" horiz-adv-x="0" 
d="M629 1606l26 -125h-503l-23 108h84l-78 355h111l45 -211q56 69 131 69q80 0 133.5 -50t73.5 -146zM524 1589l-2 19q-9 40 -33 63t-57 23q-63 0 -117 -78l7 -27h202z" />
    <glyph glyph-name="uni061B" unicode="&#x61b;" horiz-adv-x="550" 
d="M369 739h-267l29 607h217zM524 184q22 -76 -9 -123.5t-105 -52.5q-76 -4 -131.5 36.5t-77.5 117.5q-21 76 9.5 124t106.5 52q74 5 130.5 -37t76.5 -117z" />
    <glyph glyph-name="uni061F" unicode="&#x61f;" horiz-adv-x="956" 
d="M680 586l47 -109h-252l-39 92q-24 58 -50.5 85t-102.5 75l-113 70q-128 78 -198.5 150.5t-106.5 158.5q-68 160 5 257t253 97q159 0 315 -78t283 -215l-137 -129q-186 189 -357 189q-72 0 -100 -33.5t-2 -95.5q35 -78 147 -148l125 -75q145 -91 189 -137t94 -154z
M907 143q26 -75 -3.5 -116.5t-106.5 -36.5q-79 4 -140 52t-88 122q-29 77 1 117.5t110 35.5q75 -5 136.5 -51.5t90.5 -122.5z" />
    <glyph glyph-name="uni0621" unicode="&#x621;" horiz-adv-x="1329" 
d="M1270 248l51 -248h-1081l-54 248h224q-108 100 -136 225l-8 37q-27 128 17 236t142 169.5t226 61.5q173 0 330 -115q91 -64 158 -162l-185 -127q-26 47 -71 86q-82 70 -178 70q-95 0 -151 -64.5t-36 -158.5l6 -29q22 -99 104 -164t183 -65h459z" />
    <glyph glyph-name="uni0622" unicode="&#x622;" horiz-adv-x="595" 
d="M-145 1679l-86 80l125 96q12 11 30 9t33 -15q75 -63 213 -63q52 0 162 45l71 -121q-41 -22 -102 -40.5t-100 -18.5q-131 0 -246 84q-18 11 -31 -2zM326 0l-303 1434h247l303 -1434h-247z" />
    <glyph glyph-name="uni0623" unicode="&#x623;" horiz-adv-x="555" 
d="M301 1673l25 -125h-435l-26 125h67q-30 44 -38 88q-8 76 37.5 128.5t123.5 52.5q67 0 125 -36t94 -98l-84 -69q-24 39 -48.5 56t-59.5 17q-30 0 -45.5 -18t-9.5 -47q6 -26 28 -50t58 -24h188zM305 4l-303 1430h248l303 -1430h-248z" />
    <glyph glyph-name="uni0624" unicode="&#x624;" horiz-adv-x="1163" 
d="M805 1296l26 -127h-434l-28 127h69q-34 51 -39 88q-6 76 38.5 128.5t121.5 52.5q67 0 126.5 -35.5t94.5 -97.5l-84 -72q-25 39 -50 57.5t-60 18.5q-28 0 -44 -19t-10 -47q4 -25 26 -49.5t58 -24.5h189zM987 993l203 -952q48 -228 -74 -365q-89 -105 -227.5 -139.5
t-425.5 -32.5l-49 246q215 -2 325 17t172 90q38 45 33 118l-2 25h-207q-205 0 -379.5 146.5t-218.5 355.5q-23 103 -2 192.5t71.5 156t133.5 104.5t184 38h463zM684 248h213l-106 497h-213q-105 0 -161 -69.5t-34 -173.5q23 -106 110 -180t191 -74z" />
    <glyph glyph-name="uni0625" unicode="&#x625;" horiz-adv-x="555" 
d="M305 4l-303 1426h248l303 -1426h-248zM741 -403l27 -127h-434l-29 127h70q-34 51 -39 86q-6 76 38.5 128t121.5 52q67 0 126 -35.5t93 -95.5l-84 -72q-25 39 -49.5 57.5t-59.5 18.5q-29 0 -44 -19t-9 -47q6 -26 27.5 -49.5t56.5 -23.5h188z" />
    <glyph glyph-name="uni0626" unicode="&#x626;" horiz-adv-x="2125" 
d="M438 758l27 -127h-434l-29 127h70q-37 55 -39 86q-6 77 38 128.5t122 51.5q67 0 126 -35.5t93 -95.5l-84 -72q-25 39 -49.5 57.5t-59.5 18.5q-29 0 -44 -19t-9 -47q4 -25 26 -49t58 -24h188zM1954 993l207 -991h-250l-152 743h-313q-38 0 -59 -26t-13 -60l187 -884
q17 -81 -27.5 -138t-122.5 -57h-522q-149 0 -293 74.5t-246 202t-133 276.5l-80 375h252l80 -375q26 -126 134.5 -216.5t232.5 -90.5h387q32 0 49.5 23t9.5 55l-160 755q-31 138 49.5 236t223.5 98h559z" />
    <glyph glyph-name="uni0627" unicode="&#x627;" horiz-adv-x="595" 
d="M326 0l-303 1434h247l303 -1434h-247z" />
    <glyph glyph-name="uni0628" unicode="&#x628;" horiz-adv-x="1769" 
d="M1593 989l166 -778q20 -96 -33 -163.5t-149 -67.5h-907q-118 0 -231 58t-193 158t-105 218l-78 364h252l78 -364q15 -78 81 -132.5t144 -54.5h840q20 0 30.5 13.5t6.5 33.5l-152 715h250zM950 -313q-12 59 21.5 101t93.5 42t112 -42t64 -101q12 -62 -22 -104t-95 -42
q-59 0 -110.5 42.5t-63.5 103.5z" />
    <glyph glyph-name="uni0629" unicode="&#x629;" horiz-adv-x="1142" 
d="M221 1458q60 0 111 -42t65 -101q12 -61 -21 -103.5t-93 -42.5q-61 0 -113 42.5t-64 103.5q-13 58 21 100.5t94 42.5zM598 1458q60 0 112 -42.5t64 -100.5q12 -62 -21 -104t-94 -42q-59 0 -111.5 42.5t-64.5 103.5q-12 59 21.5 101t93.5 42zM37 993l481 2
q199 0 362.5 -134.5t204.5 -328.5l15 -61q26 -128 -14 -236t-134.5 -171t-222.5 -64q-130 -1 -253.5 60.5t-211 168.5t-114.5 234zM676 248q98 0 149 64.5t31 162.5l-10 45q-20 95 -101 161.5t-174 66.5h-237l59 -279q23 -98 105 -159.5t178 -61.5z" />
    <glyph glyph-name="uni062A" unicode="&#x62a;" horiz-adv-x="1769" 
d="M561 1290q60 0 112 -42t64 -101q12 -62 -20.5 -104t-93.5 -42q-59 0 -112 42.5t-65 103.5q-12 59 21.5 101t93.5 42zM940 1290q60 0 111 -42t65 -101q12 -61 -21.5 -103.5t-93.5 -42.5t-112 42.5t-64 103.5q-13 58 21 100.5t94 42.5zM1593 989l162 -760q20 -95 -34 -162
t-150 -67h-905q-119 0 -232 58t-192.5 157.5t-104.5 216.5l-74 346h252l74 -346q17 -78 81.5 -131t141.5 -53h842q19 0 30 13.5t7 33.5l-148 694h250z" />
    <glyph glyph-name="uni062B" unicode="&#x62b;" horiz-adv-x="1763" 
d="M643 1638q60 0 113 -42.5t65 -100.5q12 -60 -22 -102.5t-94 -42.5t-111.5 42.5t-63.5 102.5q-12 59 20.5 101t92.5 42zM532 1290q60 0 112.5 -42.5t64.5 -100.5q12 -61 -21.5 -103.5t-93.5 -42.5t-112 42.5t-64 103.5q-12 59 21 101t93 42zM909 1290q61 0 112.5 -42
t63.5 -101q12 -62 -20 -104t-92 -42q-61 0 -113.5 42.5t-64.5 103.5q-12 58 21.5 100.5t92.5 42.5zM1593 989l162 -760q20 -95 -34 -162t-150 -67h-905q-119 0 -232 58t-192.5 157.5t-104.5 216.5l-74 346h252l74 -346q17 -78 81.5 -131t141.5 -53h842q19 0 30 13.5t7 33.5
l-148 694h250z" />
    <glyph glyph-name="uni062C" unicode="&#x62c;" horiz-adv-x="1480" 
d="M678 0q-92 0 -143 -65.5t-31 -159.5q20 -93 98 -158.5t170 -65.5h414l51 -247h-414q-128 0 -250 63t-208 171.5t-113 236.5q-27 129 13 238t135 172t223 63h553q-17 9 -38 37.5t-28 60.5l-8 51q-44 188 -172 271q-77 52 -177 67.5t-188.5 3.5t-171.5 -43l-153 222
q96 39 192 58.5t199 20t207.5 -31t197.5 -95.5q247 -169 310 -467l12 -57q7 -36 32.5 -67t61.5 -31h23l51 -248h-848zM760 -98q57 0 105.5 -39t58.5 -94q12 -55 -19.5 -94.5t-87.5 -39.5q-55 0 -102.5 39t-59.5 95q-12 55 19.5 94t85.5 39z" />
    <glyph glyph-name="uni062D" unicode="&#x62d;" horiz-adv-x="1480" 
d="M649 0q-71 0 -109.5 -49t-23.5 -121q15 -69 75 -118.5t132 -49.5h502l53 -250h-504q-115 0 -223.5 56t-185 152t-101.5 210q-37 174 61 296t273 122h582q-23 11 -42.5 35t-25.5 51l-12 57q-41 199 -180 291q-59 39 -147.5 55.5t-169.5 11t-144.5 -17.5t-91.5 -26
l-115 241q43 12 81 21t135 21t180 9t190 -30.5t192 -83.5q249 -170 318 -488l10 -51q9 -43 43 -69.5t80 -26.5h24l51 -248h-907z" />
    <glyph glyph-name="uni062E" unicode="&#x62e;" horiz-adv-x="1480" 
d="M553 1460q60 0 112 -42t64 -101q12 -60 -21.5 -103t-93.5 -43t-112 43t-64 103q-12 59 21.5 101t93.5 42zM649 0q-71 0 -109.5 -49t-23.5 -121q15 -69 75 -118.5t132 -49.5h502l53 -250h-504q-115 0 -223.5 56t-185 152t-101.5 210q-37 174 61 296t273 122h582
q-23 11 -42.5 35t-25.5 51l-10 57q-43 197 -182 289q-77 52 -201 63t-217.5 -4.5t-134.5 -36.5l-115 242q36 11 80.5 22t136.5 22.5t178.5 9t192 -31t190.5 -85.5q249 -170 318 -488l10 -49q9 -43 43 -69.5t80 -26.5h24l51 -248h-907z" />
    <glyph glyph-name="uni062F" unicode="&#x62f;" horiz-adv-x="1105" 
d="M786 0h-561l-53 248h563q61 0 86 45q24 51 2 102l-291 596l222 68l295 -600q77 -185 -2 -320q-39 -65 -107.5 -102t-153.5 -37z" />
    <glyph glyph-name="uni0630" unicode="&#x630;" horiz-adv-x="1105" 
d="M383 1329q-6 54 29 89.5t92 31.5q56 -6 100 -48t51 -97q6 -56 -27.5 -90.5t-90.5 -30.5t-101.5 46.5t-52.5 98.5zM786 0h-561l-53 248h563q61 0 86 45q24 51 2 102l-291 596l222 68l295 -600q77 -185 -2 -320q-39 -65 -107.5 -102t-153.5 -37z" />
    <glyph glyph-name="uni0631" unicode="&#x631;" horiz-adv-x="677" 
d="M702 49q51 -241 -50.5 -379.5t-332.5 -152.5l-139 233q71 6 120.5 18t87.5 34.5t55.5 55t23 80.5t-9.5 111l-201 940h246z" />
    <glyph glyph-name="uni0632" unicode="&#x632;" horiz-adv-x="694" 
d="M272 1460q60 0 112.5 -42.5t64.5 -100.5q12 -60 -21.5 -103t-93.5 -43t-112 43t-64 103q-12 59 21 101t93 42zM702 49q51 -241 -50.5 -379.5t-332.5 -152.5l-139 233q71 6 120.5 18t87.5 34.5t55.5 55t23 80.5t-9.5 111l-201 940h246z" />
    <glyph glyph-name="uni0633" unicode="&#x633;" horiz-adv-x="2662" 
d="M2259 0q-190 0 -338 139q-37 -65 -108 -102t-162 -37q-115 0 -215 59l45 -215q25 -110 -36.5 -188t-172.5 -78h-393q-147 0 -288 73t-241 198t-131 272l-80 377h250l80 -377q26 -123 130 -209t226 -86h338q31 0 49 23t11 55l-189 891h246l80 -375q15 -74 77 -123t146 -49
q88 0 131 51.5t27 126.5l-78 360h248l80 -366q15 -79 79 -125.5t148 -46.5q73 0 114 52t27 126l-121 565h248l121 -567q37 -182 -62.5 -303t-285.5 -121z" />
    <glyph glyph-name="uni0634" unicode="&#x634;" horiz-adv-x="2658" 
d="M1550 1645q60 0 113.5 -43t65.5 -101q12 -60 -22 -102.5t-95 -42.5q-59 0 -110.5 42.5t-63.5 102.5q-12 59 20.5 101.5t91.5 42.5zM1436 1290q60 0 112 -42t64 -101q12 -61 -21.5 -103.5t-93.5 -42.5t-112 42.5t-64 103.5q-12 59 21.5 101t93.5 42zM1825 1290
q61 0 112.5 -42t63.5 -101q12 -62 -20.5 -104t-92.5 -42q-61 0 -113.5 42.5t-64.5 103.5q-12 58 22 100.5t93 42.5zM2259 0q-190 0 -338 139q-37 -65 -108 -102t-162 -37q-115 0 -215 59l45 -215q25 -110 -36.5 -188t-172.5 -78h-393q-147 0 -288 73t-241 198t-131 272
l-80 377h250l80 -377q26 -123 130 -209t226 -86h338q31 0 49 23t11 55l-189 891h246l80 -375q15 -74 77 -123t146 -49q88 0 131 51.5t27 126.5l-78 360h248l80 -366q15 -79 79 -125.5t148 -46.5q73 0 114 52t27 126l-121 565h248l121 -567q37 -182 -62.5 -303t-285.5 -121z
" />
    <glyph glyph-name="uni0635" unicode="&#x635;" horiz-adv-x="2631" 
d="M2437 733q95 -114 133 -274l53 -254q17 -85 -29.5 -145t-129.5 -60h-1010l39 -180q22 -100 -36 -174t-159 -74h-415q-149 0 -291 73.5t-242 200t-131 275.5l-72 332h246l72 -332q26 -125 133.5 -213t232.5 -88h357q24 0 38.5 17.5t10.5 41.5l-238 1110h246l39 -180
l473 154q170 57 363 -8t317 -222zM2359 297l-35 162q-19 86 -73 151q-66 83 -169 115.5t-200 3.5l-545 -176l66 -305h919q19 0 30 14t7 35z" />
    <glyph glyph-name="uni0636" unicode="&#x636;" horiz-adv-x="2627" 
d="M1704 1460q61 0 112.5 -42t63.5 -101q12 -61 -21 -103.5t-94 -42.5q-59 0 -111.5 43t-64.5 103q-12 58 22 100.5t93 42.5zM2437 733q95 -114 133 -274l53 -254q17 -85 -29.5 -145t-129.5 -60h-1010l39 -180q22 -100 -36 -174t-159 -74h-415q-149 0 -291 73.5t-242 200
t-131 275.5l-80 379h246l80 -379q26 -125 133.5 -213t232.5 -88h357q24 0 38.5 17.5t10.5 41.5l-238 1110h246l39 -180l473 154q170 57 363 -8t317 -222zM2359 297l-35 162q-19 86 -73 151q-66 83 -169 115.5t-200 3.5l-545 -176l66 -305h919q19 0 30 14t7 35z" />
    <glyph glyph-name="uni0637" unicode="&#x637;" horiz-adv-x="1890" 
d="M1710 737q103 -127 133 -276l53 -254q19 -85 -27.5 -146t-131.5 -61h-1489l-53 248h233l-252 1182h246l133 -619l475 156q171 56 363.5 -9t316.5 -221zM1632 297l-35 164q-19 86 -73 151q-66 83 -170 116.5t-201 2.5l-545 -176l66 -307h921q20 0 30.5 13.5t6.5 35.5z" />
    <glyph glyph-name="uni0638" unicode="&#x638;" horiz-adv-x="1869" 
d="M985 1460q60 0 112 -42t64 -101q12 -60 -21 -103t-93 -43t-112.5 43t-64.5 103q-12 59 21.5 101t93.5 42zM1710 737q103 -127 133 -276l53 -254q19 -85 -27.5 -146t-131.5 -61h-1489l-53 248h233l-252 1182h246l133 -619l475 156q171 56 363.5 -9t316.5 -221zM1632 297
l-35 164q-19 86 -73 151q-66 83 -170 116.5t-201 2.5l-545 -176l66 -307h921q20 0 30.5 13.5t6.5 35.5z" />
    <glyph glyph-name="uni0639" unicode="&#x639;" horiz-adv-x="1300" 
d="M1280 248l51 -248h-676q-69 0 -107 -49.5t-24 -118.5q15 -68 74.5 -116t128.5 -48h502l51 -246h-502q-171 0 -316.5 120.5t-180.5 289.5q-24 114 10.5 206.5t118.5 133.5l22 8q-153 121 -186 283l-13 51q-22 100 -0.5 187t72 152t132.5 102.5t179 37.5q172 0 310.5 -87
t220.5 -244l-152 -119q-44 88 -134.5 147.5t-192.5 59.5q-97 0 -153 -69.5t-36 -164.5l10 -51q21 -97 102.5 -157t182.5 -60h506z" />
    <glyph glyph-name="uni063A" unicode="&#x63a;" horiz-adv-x="1296" 
d="M508 1460q60 0 112 -42t64 -101q12 -60 -21.5 -103t-93.5 -43t-112 43t-64 103q-12 59 21.5 101t93.5 42zM1280 248l51 -248h-676q-69 0 -107 -49.5t-24 -118.5q15 -68 74.5 -116t128.5 -48h512l51 -246h-512q-171 0 -316.5 120.5t-180.5 289.5q-24 114 10.5 206.5
t118.5 133.5l22 8q-68 36 -117.5 113t-68.5 170l-13 51q-22 100 -0.5 187t72 152t132.5 102.5t179 37.5q172 0 310.5 -87t220.5 -244l-152 -119q-44 88 -134.5 147.5t-192.5 59.5q-97 0 -153 -69.5t-36 -164.5l10 -51q21 -97 102.5 -157t182.5 -60h506z" />
    <glyph glyph-name="uni0640" unicode="&#x640;" horiz-adv-x="651" 
d="M80 248h692l51 -248h-692z" />
    <glyph glyph-name="uni0641" unicode="&#x641;" horiz-adv-x="2048" 
d="M1405 1462q60 0 112 -41.5t64 -101.5t-21.5 -102.5t-93.5 -42.5t-112 42.5t-64 102.5t21.5 101.5t93.5 41.5zM1872 993l164 -766q20 -98 -31.5 -162.5t-149.5 -64.5h-1150q-124 0 -243.5 62t-204.5 168.5t-112 232.5l-53 254h246l55 -254q20 -90 96 -152.5t164 -62.5h523
q-56 46 -98.5 114.5t-57.5 139.5q-28 131 15 244t145 180t239 67h453zM1716 248q27 0 42.5 19.5t10.5 47.5l-92 433l-204 -3q-107 0 -167 -76t-38 -177q22 -100 112 -172t189 -72h147z" />
    <glyph glyph-name="uni0642" unicode="&#x642;" horiz-adv-x="1599" 
d="M625 1462q60 0 112 -41.5t64 -101.5t-21.5 -102.5t-93.5 -42.5t-112 42.5t-64 102.5t21.5 101.5t93.5 41.5zM1004 1462q62 0 113 -41.5t63 -101.5t-21 -102.5t-94 -42.5q-59 0 -111.5 43t-64.5 102q-12 60 22 101.5t93 41.5zM956 993h465l244 -1143q26 -117 -38 -199.5
t-181 -82.5h-555q-113 0 -225.5 43.5t-202.5 117.5t-155.5 176.5t-88.5 215.5l-80 379h248l80 -373q26 -127 134.5 -217t236.5 -90h520q28 0 43 19t10 48l-27 113h-217q-132 0 -257 63t-213 171t-115 235l-13 57q-42 203 69 335t318 132zM1114 248h219l-110 522h-219
q-102 0 -156.5 -71t-32.5 -173l12 -51q19 -93 103.5 -160t183.5 -67z" />
    <glyph glyph-name="uni0643" unicode="&#x643;" horiz-adv-x="1804" 
d="M1493 1430l256 -1207q20 -92 -31 -157.5t-145 -65.5h-860q-187 0 -348 133.5t-201 319.5l-70 327h246l70 -327q19 -86 92.5 -146.5t159.5 -60.5h765q30 0 47 20t11 49l-236 1115h244zM1038 1006l29 -127h-436l-27 127h68q-32 48 -37 86q-8 76 36.5 128t121.5 52
q67 0 126.5 -35.5t94.5 -95.5l-84 -72q-25 39 -49.5 57.5t-59.5 18.5q-29 0 -45 -19t-10 -47q6 -26 27.5 -49.5t56.5 -23.5h188z" />
    <glyph glyph-name="uni0644" unicode="&#x644;" horiz-adv-x="1435" 
d="M1260 -399h-381q-148 0 -290 73t-243 199.5t-133 276.5l-74 350h248l76 -350q26 -126 131.5 -214t230.5 -88h334q35 0 55 25.5t13 60.5l-318 1498l248 -2l328 -1543q25 -119 -41 -202.5t-184 -83.5z" />
    <glyph glyph-name="uni0645" unicode="&#x645;" horiz-adv-x="1280" 
d="M834 0q-131 0 -252 78l10 -51q21 -184 -72.5 -300t-267.5 -151l-98 242q230 50 180 284l-189 891h478q131 0 255 -65.5t211.5 -176.5t114.5 -241l10 -37q24 -129 -17.5 -238t-137.5 -172t-225 -63zM780 248q98 0 152 63.5t39 159.5l-10 39q-20 97 -102 164t-179 67h-236
l60 -276q24 -98 103.5 -157.5t172.5 -59.5z" />
    <glyph glyph-name="uni0646" unicode="&#x646;" horiz-adv-x="1439" 
d="M1350 -397h-473q-149 0 -291 73.5t-242 200t-131 275.5l-74 348h246l74 -348q26 -125 132.5 -214.5t231.5 -89.5h340q32 0 50 22.5t12 53.5l-226 1055h246l254 -1184q15 -80 -27.5 -136t-121.5 -56zM612 979q61 0 114 -42t65 -101q12 -60 -21.5 -103t-93.5 -43t-112 43
t-64 103q-12 59 21 101t91 42z" />
    <glyph glyph-name="uni0647" unicode="&#x647;" horiz-adv-x="1142" 
d="M37 993l481 2q199 0 362.5 -134.5t204.5 -328.5l15 -61q26 -128 -14 -236t-134.5 -171t-222.5 -64q-130 -1 -253.5 60.5t-211 168.5t-114.5 234zM676 248q98 0 149 64.5t31 162.5l-10 45q-20 95 -101 161.5t-174 66.5h-237l59 -279q23 -98 105 -159.5t178 -61.5z" />
    <glyph glyph-name="uni0648" unicode="&#x648;" horiz-adv-x="1163" 
d="M987 993l203 -952q48 -228 -74 -365q-89 -105 -227.5 -139.5t-425.5 -32.5l-49 246q215 -2 325 17t172 90q38 45 33 118l-2 25h-207q-205 0 -379.5 146.5t-218.5 355.5q-23 103 -2 192.5t71.5 156t133.5 104.5t184 38h463zM684 248h213l-106 497h-213q-105 0 -161 -69.5
t-34 -173.5q23 -106 110 -180t191 -74z" />
    <glyph glyph-name="uni0649" unicode="&#x649;" horiz-adv-x="2129" 
d="M1954 993l207 -991h-250l-152 743h-313q-38 0 -59 -26t-13 -60l187 -884q17 -81 -27.5 -138t-122.5 -57h-522q-149 0 -293 74.5t-246 202t-133 276.5l-80 375h252l80 -375q26 -126 134.5 -216.5t232.5 -90.5h387q32 0 49.5 23t9.5 55l-160 755q-31 138 49.5 236t223.5 98
h559z" />
    <glyph glyph-name="uni064A" unicode="&#x64a;" horiz-adv-x="2129" 
d="M1954 993l207 -991h-250l-152 743h-313q-38 0 -59 -26t-13 -60l187 -884q17 -81 -27.5 -138t-122.5 -57h-522q-149 0 -293 74.5t-246 202t-133 276.5l-80 375h252l80 -375q26 -126 134.5 -216.5t232.5 -90.5h387q32 0 49.5 23t9.5 55l-160 755q-31 138 49.5 236t223.5 98
h559zM952 -561q60 0 112 -42.5t64 -101.5q13 -61 -20.5 -103t-93.5 -42t-111.5 42t-64.5 103q-12 59 21 101.5t93 42.5zM1333 -561q60 0 112 -42.5t64 -101.5q13 -61 -19.5 -103t-94.5 -42q-59 0 -111 42t-65 103q-12 59 21 101.5t93 42.5z" />
    <glyph glyph-name="uni064B" unicode="&#x64b;" horiz-adv-x="0" 
d="M-250 1960l363 125l20 -80l-360 -137zM-209 1767l359 144l24 -96l-360 -140z" />
    <glyph glyph-name="uni064C" unicode="&#x64c;" horiz-adv-x="0" 
d="M297 1698q12 -56 -14 -97.5t-78 -52.5l-264 -86l-33 80q-22 63 -66 60l-24 -7l-37 70l22 14q52 25 91.5 5t64.5 -78l12 -23l78 29q-40 35 -49 86q-13 61 21 105t96 44t115 -44t65 -105zM166 1632q25 0 37.5 17t9.5 45q-3 26 -24.5 45.5t-47.5 19.5q-27 0 -41 -17t-8 -42
q4 -29 25.5 -48.5t48.5 -19.5z" />
    <glyph glyph-name="uni064D" unicode="&#x64d;" horiz-adv-x="0" 
d="M201 -164l362 125l19 -80l-357 -137zM242 -356l356 143l25 -96l-359 -140z" />
    <glyph glyph-name="uni064E" unicode="&#x64e;" horiz-adv-x="0" 
d="M-127 1726l360 125l21 -79l-358 -138z" />
    <glyph glyph-name="uni064F" unicode="&#x64f;" horiz-adv-x="0" 
d="M-70 2089q62 0 115.5 -44.5t65.5 -105.5q22 -106 -91 -147l-217 -82l-53 98l115 45q-42 34 -51 86q-14 62 20.5 106t95.5 44zM-29 1884q26 0 39.5 19.5t7.5 48.5q-6 25 -27.5 43t-45.5 18q-28 0 -42.5 -18t-8.5 -43q6 -29 28.5 -48.5t48.5 -19.5z" />
    <glyph glyph-name="uni0650" unicode="&#x650;" horiz-adv-x="0" 
d="M340 -471l356 143l23 -96l-359 -139z" />
    <glyph glyph-name="uni0651" unicode="&#x651;" horiz-adv-x="0" 
d="M154 1786h112l29 -148q18 -72 -9.5 -117.5t-92.5 -45.5q-25 0 -55.5 12t-51.5 31q-21 -66 -90 -66q-65 0 -118 43t-68 111l-17 88h113l16 -88q9 -41 47 -41q39 0 27 47l-25 119h113l22 -103q3 -18 15.5 -27.5t28.5 -9.5q44 0 32 47z" />
    <glyph glyph-name="uni0652" unicode="&#x652;" horiz-adv-x="0" 
d="M-6 1759q-67 0 -124.5 48t-70.5 116q-15 66 22.5 114t104.5 48t124.5 -47.5t72.5 -114.5q13 -69 -24 -116.5t-105 -47.5zM-25 1849q29 0 43.5 20.5t8.5 51.5q-6 28 -29 47t-51 19q-29 0 -43 -19t-8 -47q6 -31 28.5 -51.5t50.5 -20.5z" />
    <glyph glyph-name="uni0653" unicode="&#x653;" horiz-adv-x="0" 
d="M-203 2005l-86 80l125 96q12 11 30.5 9t33.5 -15q76 -64 213 -64q49 0 161 46l72 -121q-42 -22 -103 -41t-100 -19q-130 0 -245 84q-18 11 -31 -2z" />
    <glyph glyph-name="uni0658" unicode="&#x658;" horiz-adv-x="0" 
 />
    <glyph glyph-name="uni0660" unicode="&#x660;" horiz-adv-x="559" 
d="M225 154q-19 81 19 128.5t118 47.5q81 0 137.5 -47t75.5 -129q15 -81 -21.5 -129t-117.5 -48q-80 0 -138 49t-73 128z" />
    <glyph glyph-name="uni0661" unicode="&#x661;" horiz-adv-x="565" 
d="M268 1434l303 -1434h-270l-305 1434h272z" />
    <glyph glyph-name="uni0662" unicode="&#x662;" horiz-adv-x="1259" 
d="M928 1434l57 -271h-410q-89 0 -136.5 -70.5t-28.5 -164.5l196 -928h-274l-197 920q-28 136 12.5 254.5t138.5 189t230 70.5h412z" />
    <glyph glyph-name="uni0663" unicode="&#x663;" horiz-adv-x="1730" 
d="M1212 541q-191 0 -340 137q-37 -64 -107.5 -100.5t-160.5 -36.5q-123 0 -215 59l127 -602h-246l-305 1436h248l98 -473q18 -75 80.5 -124t145.5 -49q87 0 129 51.5t28 127.5l-100 467h248l98 -473q18 -80 82.5 -126.5t148.5 -46.5q73 0 114 52.5t26 126.5l-99 467h248
l101 -469q37 -181 -63.5 -302.5t-285.5 -121.5z" />
    <glyph glyph-name="uni0664" unicode="&#x664;" horiz-adv-x="1214" 
d="M1085 752l54 -242h-611q-57 0 -87.5 -39.5t-18.5 -95.5q10 -57 58.5 -96t105.5 -39h456l50 -240h-455q-159 0 -291.5 111t-163.5 264q-22 99 8 180.5t99 118.5l22 8q-132 110 -166 270l-12 49q-25 121 15 222t129 158t206 57q162 0 288 -83t202 -233l-154 -121
q-44 91 -119.5 144t-167.5 53q-80 0 -126 -56.5t-31 -137.5l10 -50q19 -82 90 -142t152 -60h458z" />
    <glyph glyph-name="uni0665" unicode="&#x665;" horiz-adv-x="1429" 
d="M872 -29q-265 0 -471.5 205.5t-277.5 540.5q-44 226 -8 391.5t151.5 259.5t290.5 94q265 0 471 -205t277 -540q44 -226 8.5 -391.5t-151 -260t-290.5 -94.5zM819 221q140 0 197 137t10 359q-50 224 -163.5 359.5t-252.5 135.5q-141 0 -197.5 -135.5t-9.5 -359.5
q47 -223 161.5 -359.5t254.5 -136.5z" />
    <glyph glyph-name="uni0666" unicode="&#x666;" horiz-adv-x="1259" 
d="M332 1434h411q132 0 230 -70.5t138.5 -189t12.5 -254.5l-196 -920h-275l197 928q19 94 -29 164.5t-137 70.5h-410z" />
    <glyph glyph-name="uni0667" unicode="&#x667;" horiz-adv-x="1406" 
d="M1384 1434l-516 -1434h-323l-525 1434h297l388 -1110l382 1110h297z" />
    <glyph glyph-name="uni0668" unicode="&#x668;" horiz-adv-x="1437" 
d="M1569 0h-297l-635 1110l-166 -1110h-297l234 1434h323z" />
    <glyph glyph-name="uni0669" unicode="&#x669;" horiz-adv-x="1179" 
d="M440 1434q127 1 249 -62.5t208 -172.5t113 -236l75 -363l127 -600h-249l-91 426l-159 2q-252 0 -425 129.5t-220 355.5l-11 50q-27 128 16 236.5t141 171t226 63.5zM825 674l-61 289q-20 92 -99 157.5t-171 65.5q-99 0 -155.5 -71t-33.5 -171l8 -39q20 -96 106 -163.5
t183 -67.5h223z" />
    <glyph glyph-name="uni066A" unicode="&#x66a;" horiz-adv-x="1478" 
d="M997 1434h234l-672 -1434h-235zM193 1096q-72 0 -131 47t-74 117q-15 72 23 118.5t110 46.5q73 0 132.5 -47t72.5 -118q17 -70 -21.5 -117t-111.5 -47zM1303 -23q-72 0 -131 48t-72 118q-17 71 21.5 118.5t111.5 47.5q72 0 131 -47t74 -119q15 -70 -24 -118t-111 -48z
" />
    <glyph glyph-name="uni066B" unicode="&#x66b;" horiz-adv-x="518" 
d="M256 285h266l-28 -607h-218z" />
    <glyph glyph-name="uni066C" unicode="&#x66c;" horiz-adv-x="518" 
d="M256 285h266l-28 -607h-218z" />
    <glyph glyph-name="uni066D" unicode="&#x66d;" horiz-adv-x="952" 
d="M688 356l242 -241l-133 -113l-226 256l-116 -254l-181 113l142 241l-314 82l21 185l309 -107l-76 307h193l53 -309l266 107l99 -185z" />
    <glyph glyph-name="uni066E" unicode="&#x66e;" horiz-adv-x="1753" 
d="M1593 989l162 -760q20 -95 -34 -162t-150 -67h-905q-119 0 -232 58t-192.5 157.5t-104.5 216.5l-76 352h252l76 -352q17 -78 81.5 -131t141.5 -53h842q19 0 30 13.5t7 33.5l-148 694h250z" />
    <glyph glyph-name="uni066F" unicode="&#x66f;" horiz-adv-x="1599" 
d="M952 1018q190 0 357.5 -138t208.5 -333l147 -697q26 -117 -38 -199.5t-181 -82.5h-555q-113 0 -225.5 43.5t-202.5 117.5t-155.5 176.5t-88.5 215.5l-80 379h248l80 -373q26 -127 134.5 -217t236.5 -90h520q28 0 43 19t10 48l-27 113h-217q-132 0 -257 63t-213 171
t-115 235l-13 57q-28 134 12 247t138 179t233 66zM1114 248h219l-63 299q-20 92 -99 157.5t-167 65.5q-102 0 -156.5 -71t-32.5 -173l12 -51q19 -93 103.5 -160t183.5 -67z" />
    <glyph glyph-name="uni0671" unicode="&#x671;" horiz-adv-x="555" 
d="M305 0l-303 1434h248l303 -1434h-248z" />
    <glyph glyph-name="uni0679" unicode="&#x679;" horiz-adv-x="1753" 
d="M559 1065l-22 109h84l-78 354h110l45 -211q56 69 131 69q80 0 133.5 -50t73.5 -146l27 -125h-504zM840 1278q-63 0 -117 -78l6 -26h203l-2 18q-9 40 -33 63t-57 23zM1755 229q20 -95 -34 -162t-150 -67h-905q-119 0 -232 58t-192.5 157.5t-104.5 216.5l-76 352h252
l76 -352q17 -78 81.5 -131t141.5 -53h842q19 0 30 13.5t7 33.5l-148 694h250z" />
    <glyph glyph-name="uni067E" unicode="&#x67e;" horiz-adv-x="1753" 
d="M1593 989l162 -760q20 -95 -34 -162t-150 -67h-905q-119 0 -232 58t-192.5 157.5t-104.5 216.5l-76 352h252l76 -352q17 -78 81.5 -131t141.5 -53h842q19 0 30 13.5t7 33.5l-148 694h250zM936 -459q-59 0 -110.5 43t-63.5 101q-14 60 19 102.5t93 42.5t113 -42.5
t66 -102.5q12 -59 -22 -101.5t-95 -42.5zM1315 -459q-60 0 -112 42.5t-64 101.5q-13 60 20.5 102.5t93.5 42.5t111.5 -42.5t65.5 -102.5q12 -59 -21.5 -101.5t-93.5 -42.5zM1196 -809q-60 0 -111 42t-65 101q-12 61 22 103.5t93 42.5q62 0 113 -42.5t63 -103.5
q13 -58 -21 -100.5t-94 -42.5z" />
    <glyph glyph-name="uni0686" unicode="&#x686;" horiz-adv-x="1480" 
d="M678 0q-92 0 -143 -65.5t-31 -159.5q20 -93 98 -158.5t170 -65.5h414l51 -247h-414q-128 0 -250 63t-208 171.5t-113 236.5q-27 129 13 238t135 172t223 63h553q-17 9 -38 37.5t-28 60.5l-8 49q-44 188 -172 271q-76 52 -176.5 68t-188 3.5t-172.5 -43.5l-153 221
q96 39 192 59t199 20.5t207.5 -31t197.5 -95.5q246 -166 312 -475l10 -47q7 -36 32.5 -67t61.5 -31h23l51 -248h-848zM750 -223q-27 0 -51.5 19t-28.5 46q-6 28 8.5 48t42.5 20t52 -20t30 -48t-9 -46.5t-44 -18.5zM934 -223q-28 0 -53 19t-29 46q-6 28 8.5 48t42.5 20
t53 -20.5t29 -47.5q6 -28 -8.5 -46.5t-42.5 -18.5zM877 -393q-28 0 -52 19t-28 46q-7 29 8 48.5t43 19.5t52 -19.5t30 -48.5q6 -28 -9.5 -46.5t-43.5 -18.5z" />
    <glyph glyph-name="uni0688" unicode="&#x688;" horiz-adv-x="1105" 
d="M354 1147l-22 108h84l-78 355h111l45 -211q56 69 131 69q80 0 133 -50t73 -146l27 -125h-504zM635 1360q-63 0 -117 -78l6 -27h203l-2 19q-9 40 -33 63t-57 23zM1049 459q77 -185 -2 -320q-39 -65 -107.5 -102t-153.5 -37h-561l-53 248h563q61 0 86 45q24 51 2 102
l-291 596l222 68z" />
    <glyph glyph-name="uni0691" unicode="&#x691;" horiz-adv-x="677" 
d="M100 1120l-22 109h84l-78 354h111l45 -211q56 70 131 70q80 0 133.5 -50.5t73.5 -146.5l26 -125h-504zM381 1333q-63 0 -117 -78l6 -26h203l-2 18q-9 40 -33 63t-57 23zM700 49q51 -241 -50.5 -379.5t-332.5 -152.5l-139 233q71 6 120.5 18t87.5 34.5t55.5 55t23 80.5
t-9.5 111l-201 940h246z" />
    <glyph glyph-name="uni0698" unicode="&#x698;" horiz-adv-x="677" 
d="M186 1796q60 0 112 -42.5t64 -100.5q13 -60 -20.5 -103t-93.5 -43t-111 43t-65 103q-12 59 21 101t93 42zM76 1446q60 0 111 -41.5t63 -101.5q14 -60 -19.5 -103t-93.5 -43t-113 43t-65 103t22.5 101.5t94.5 41.5zM453 1446q60 0 112 -41.5t64 -101.5t-21.5 -103
t-93.5 -43t-112 43t-64 103t21.5 101.5t93.5 41.5zM702 49q51 -241 -50.5 -379.5t-332.5 -152.5l-139 233q71 6 120.5 18t87.5 34.5t55.5 55t23 80.5t-9.5 111l-201 940h246z" />
    <glyph glyph-name="uni06A1" unicode="&#x6a1;" horiz-adv-x="2048" 
d="M1872 993l164 -766q20 -98 -31.5 -162.5t-149.5 -64.5h-1150q-124 0 -243.5 62t-204.5 168.5t-112 232.5l-53 254h246l55 -254q20 -90 96 -152.5t164 -62.5h523q-56 46 -98.5 114.5t-57.5 139.5q-28 131 15 244t145 180t239 67h453zM1716 248q27 0 42.5 19.5t10.5 47.5
l-92 433l-204 -3q-107 0 -167 -76t-38 -177q22 -100 112 -172t189 -72h147z" />
    <glyph glyph-name="uni06A4" unicode="&#x6a4;" horiz-adv-x="2048" 
d="M1321 1761q60 0 112 -41.5t64 -101.5t-21.5 -102.5t-93.5 -42.5t-112 42.5t-64 102.5t21.5 101.5t93.5 41.5zM1208 1413q61 0 112.5 -42t63.5 -101q14 -60 -19 -103t-93 -43t-112 43t-66 103q-12 58 21.5 100.5t92.5 42.5zM1587 1413q60 0 112 -42.5t64 -100.5
q12 -60 -21 -103t-93 -43t-112 43t-64 103q-12 59 21 101t93 42zM1872 993l164 -766q20 -98 -31.5 -162.5t-149.5 -64.5h-1150q-124 0 -243.5 62t-204.5 168.5t-112 232.5l-53 254h246l55 -254q20 -90 96 -152.5t164 -62.5h523q-56 46 -98.5 114.5t-57.5 139.5
q-28 131 15 244t145 180t239 67h453zM1716 248q27 0 42.5 19.5t10.5 47.5l-92 433l-204 -3q-107 0 -167 -76t-38 -177q22 -100 112 -172t189 -72h147z" />
    <glyph glyph-name="uni06A9" unicode="&#x6a9;" horiz-adv-x="2121" 
d="M2058 459l96 -459h-1464q-118 0 -230.5 58t-191.5 157.5t-104 216.5l-74 350h250l74 -350q17 -78 82 -131t143 -53h1216l-40 194q-28 128 -136 217t-235 89h-473l-240 272l289 575l235 -143l-231 -455h383q145 0 283.5 -71t237 -195t130.5 -272z" />
    <glyph glyph-name="uni06AF" unicode="&#x6af;" horiz-adv-x="2121" 
d="M901 1636l-276 -520l-97 72l273 514zM2058 459l96 -459h-1464q-118 0 -230.5 58t-191.5 157.5t-104 216.5l-74 350h250l74 -350q17 -78 82 -131t143 -53h1216l-40 194q-28 128 -136 217t-235 89h-473l-240 272l289 575l235 -143l-231 -455h383q145 0 283.5 -71t237 -195
t130.5 -272z" />
    <glyph glyph-name="uni06BA" unicode="&#x6ba;" horiz-adv-x="1435" 
d="M1350 -397h-473q-149 0 -291 73.5t-242 200t-131 275.5l-74 348h246l74 -348q26 -125 132.5 -214.5t231.5 -89.5h340q32 0 50 22.5t12 53.5l-226 1055h246l254 -1184q15 -80 -27.5 -136t-121.5 -56z" />
    <glyph glyph-name="uni06BE" unicode="&#x6be;" horiz-adv-x="1576" 
d="M668 1247q200 -38 377 -153.5t305.5 -298.5t175.5 -402l30 -147q22 -101 -34.5 -173.5t-157.5 -72.5h-1235l-51 246h241q-48 45 -85 109.5t-52 131.5q-37 179 73 294.5t302 115.5q198 0 362.5 -141t206.5 -342l17 -78q12 -48 6 -90h121q18 0 27.5 12.5t5.5 30.5l-23 104
q-51 237 -215 404t-383 207q-146 28 -324 28l-49 244q142 -1 197.5 -6t161.5 -23zM608 651q-81 0 -136 -55.5t-36 -142.5q19 -88 89.5 -147.5t140.5 -59.5h198q22 0 34.5 14.5t8.5 36.5l-28 139q-16 77 -96 145.5t-175 69.5z" />
    <glyph glyph-name="uni06C1" unicode="&#x6c1;" horiz-adv-x="1142" 
d="M35 993l481 2q199 0 362.5 -134.5t204.5 -328.5l15 -61q26 -128 -14 -236t-134.5 -171t-222.5 -64q-130 -1 -254 60.5t-211.5 168.5t-114.5 234zM674 248q98 0 149 64.5t31 162.5l-10 45q-20 95 -101 161.5t-174 66.5h-237l59 -279q23 -98 105 -159.5t178 -61.5z" />
    <glyph glyph-name="uni06C2" unicode="&#x6c2;" horiz-adv-x="1142" 
d="M600 1264l29 -127h-436l-27 127h67q-34 50 -36 86q-8 76 36 128t121 52q67 0 126.5 -35.5t94.5 -95.5l-83 -72q-25 39 -49.5 57.5t-59.5 18.5q-29 0 -45 -19t-10 -47q6 -26 27.5 -49.5t56.5 -23.5h188zM37 993l481 2q199 0 362.5 -134.5t204.5 -328.5l15 -61
q26 -128 -14 -236t-134.5 -171t-222.5 -64q-130 -1 -253.5 60.5t-211 168.5t-114.5 234zM676 248q98 0 149 64.5t31 162.5l-10 45q-20 95 -101 161.5t-174 66.5h-237l59 -279q23 -98 105 -159.5t178 -61.5z" />
    <glyph glyph-name="uni06C3" unicode="&#x6c3;" horiz-adv-x="1142" 
d="M219 1458q60 0 111 -42t65 -101q12 -61 -21 -103.5t-93 -42.5q-61 0 -113 42.5t-64 103.5q-13 58 21 100.5t94 42.5zM596 1458q60 0 112 -42.5t64 -100.5q12 -62 -21 -104t-94 -42q-59 0 -111.5 42.5t-64.5 103.5q-12 59 21.5 101t93.5 42zM35 993l481 2
q199 0 362.5 -134.5t204.5 -328.5l15 -61q26 -128 -14 -236t-134.5 -171t-222.5 -64q-130 -1 -254 60.5t-211.5 168.5t-114.5 234zM674 248q98 0 149 64.5t31 162.5l-10 45q-20 95 -101 161.5t-174 66.5h-237l59 -279q23 -98 105 -159.5t178 -61.5z" />
    <glyph glyph-name="uni06CC" unicode="&#x6cc;" horiz-adv-x="2129" 
d="M1954 993l207 -991h-250l-152 743h-313q-38 0 -59 -26t-13 -60l187 -884q17 -81 -27.5 -138t-122.5 -57h-522q-149 0 -293 74.5t-246 202t-133 276.5l-80 375h252l80 -375q26 -126 134.5 -216.5t232.5 -90.5h387q32 0 49.5 23t9.5 55l-160 755q-31 138 49.5 236t223.5 98
h559z" />
    <glyph glyph-name="uni06D2" unicode="&#x6d2;" horiz-adv-x="1333" 
d="M623 0q-85 0 -168 37t-148 102q-142 136 -139 320l22 366l252 -67l-22 -363q-2 -43 45 -102q41 -45 104 -45h885l51 -248h-882z" />
    <glyph glyph-name="uni06D3" unicode="&#x6d3;" horiz-adv-x="1333" 
d="M496 1079l26 -127h-436l-27 127h70q-34 51 -39 88q-6 76 38.5 128.5t121.5 52.5q67 0 125 -36t94 -98l-84 -69q-25 38 -49.5 56t-59.5 18q-28 0 -44 -19t-11 -47q6 -26 28 -50t58 -24h189zM623 0q-85 0 -168 37t-148 102q-142 136 -139 320l22 366l252 -67l-22 -363
q-2 -43 45 -102q41 -45 104 -45h885l51 -248h-882z" />
    <glyph glyph-name="uni06D4" unicode="&#x6d4;" horiz-adv-x="1228" 
 />
    <glyph glyph-name="uni06F0" unicode="&#x6f0;" horiz-adv-x="559" 
d="M225 154q-19 81 19 128.5t118 47.5q81 0 137.5 -47t75.5 -129q15 -81 -21.5 -129t-117.5 -48q-80 0 -138 49t-73 128z" />
    <glyph glyph-name="uni06F1" unicode="&#x6f1;" horiz-adv-x="565" 
d="M268 1434l303 -1434h-270l-305 1434h272z" />
    <glyph glyph-name="uni06F2" unicode="&#x6f2;" horiz-adv-x="1259" 
d="M928 1434l57 -271h-410q-89 0 -136.5 -70.5t-28.5 -164.5l196 -928h-274l-197 920q-28 136 12.5 254.5t138.5 189t230 70.5h412z" />
    <glyph glyph-name="uni06F3" unicode="&#x6f3;" horiz-adv-x="1730" 
d="M1212 541q-191 0 -340 137q-37 -64 -107.5 -100.5t-160.5 -36.5q-123 0 -215 59l127 -602h-246l-305 1436h248l98 -473q18 -75 80.5 -124t145.5 -49q87 0 129 51.5t28 127.5l-100 467h248l98 -473q18 -80 82.5 -126.5t148.5 -46.5q73 0 114 52.5t26 126.5l-99 467h248
l101 -469q37 -181 -63.5 -302.5t-285.5 -121.5z" />
    <glyph glyph-name="uni06F4" unicode="&#x6f4;" horiz-adv-x="1624" 
d="M1569 414h-1112l88 -414h-271l-303 1434h271l164 -775h247q-142 77 -176 240l-12 51q-28 131 14.5 242.5t140.5 175.5t228 64q172 0 309.5 -88t220.5 -246l-151 -119q-44 88 -135 147.5t-193 59.5q-97 0 -152.5 -68.5t-35.5 -163.5l8 -51q23 -100 109 -172t184 -72h506z
" />
    <glyph glyph-name="uni06F5" unicode="&#x6f5;" horiz-adv-x="1501" 
d="M1135 -29q-131 0 -232 95q-53 -95 -194 -95q-105 0 -205 55.5t-178 157.5q-128 165 -179 410q-34 153 -27.5 298t50.5 261q52 148 156 225.5t249 77.5q150 0 295 -82.5t269 -238.5q99 -124 172 -280.5t106 -311.5q52 -228 -4 -379q-34 -91 -105.5 -142t-172.5 -51z
M961 367q8 -40 22 -73t42.5 -58.5t66.5 -26.5q63 -3 88 80q37 94 -2 254q-25 121 -84.5 246.5t-137.5 222.5q-165 205 -329 205q-154 0 -224 -173q-34 -91 -38 -209.5t22 -240.5q17 -86 56.5 -176.5t91.5 -141.5q57 -63 122 -63q20 0 34.5 6.5t23 13.5t12 23t4.5 24.5
t-1.5 29.5t-3.5 25.5t-5 24.5l-39 181h240z" />
    </font>
</defs>
</svg>
