<?xml version="1.0" standalone="no"?>
<!DOCTYPE svg PUBLIC "-//W3C//DTD SVG 1.1//EN" "http://www.w3.org/Graphics/SVG/1.1/DTD/svg11.dtd" >
<svg xmlns="http://www.w3.org/2000/svg" xmlns:xlink="http://www.w3.org/1999/xlink" version="1.1">
<metadata>
Created by FontForge 20170731 at Sat May 27 13:23:48 2023
 By Aleksey,,,
Copyright (c) 2021 by __Designer__. All rights reserved.
</metadata>
<defs>
<font id="LamaSans-ExtraLightItalic" horiz-adv-x="0" >
  <font-face 
    font-family="Lama Sans ExtraLight Italic"
    font-weight="200"
    font-style="italic"
    font-stretch="normal"
    units-per-em="2048"
    panose-1="0 0 2 0 0 0 0 0 0 0"
    ascent="1638"
    descent="-410"
    x-height="1022"
    cap-height="1434"
    bbox="-1040.66 -799 2875 2175"
    underline-thickness="102"
    underline-position="-347"
    unicode-range="U+000D-FEFC"
  />
<missing-glyph horiz-adv-x="972" 
d="M799 1434v-1946h-619v1946h619zM647 1303h-319v-64h125v-72h-127v-63h321v63h-127v72h127v64zM520 1053h-194v-203h321v65h-127v138zM453 987v-72h-64v72h64zM647 797h-321v-64h127v-71h-127v-64h194v135h127v64zM647 680h-63v-127h-258v-68h321v195zM647 442h-194v-108
h67v45h64v-92h-195v155h-63v-219h321v219zM647 106h-321v-219h321v219zM584 43v-92h-195v92h195zM647 -158h-321v-63h135l-135 -92v-64h321v64h-198l137 92h61v63z" />
    <glyph glyph-name="uniFDF2" unicode="&#x627;&#xfedf;&#xfee0;&#xfeea;" horiz-adv-x="2924" arabic-form="isolated" 
d="M1321 1810h-45l-47 218l43 18zM1278 1497q-51 0 -91 33t-54 100l-15 70h45l17 -70q18 -84 90 -84q64 0 43 103l-23 108h45l23 -104q7 -31 31.5 -48.5t50.5 -17.5q89 0 65 109l-24 114h45l26 -114q17 -77 -11.5 -118.5t-86.5 -41.5q-53 0 -92 49q0 -40 -25 -64t-59 -24z
M2572 1434l303 -1434h-65l-303 1434h65zM2109 1421l250 -1179q22 -101 -33 -171.5t-155 -70.5h-229q-74 0 -144 40.5t-115 106.5q-14 -65 -67 -106t-127 -41h-148q-109 0 -208.5 67.5t-147.5 170.5q-24 -106 -108 -172t-203 -66q-166 0 -310.5 118t-179.5 285l-24 109
q-35 170 58.5 288t262.5 118h404l125 -590q25 -108 117 -184t200 -76h143q78 0 123.5 57.5t30.5 138.5l-248 1157h68l248 -1157q17 -82 86 -139t151 -57h221q74 0 115.5 51t26.5 123l-250 1179h67zM662 68q139 0 217 99t49 239l-97 444h-335q-140 0 -219 -98t-50 -240
l23 -109q31 -140 151 -237.5t261 -97.5z" />
    <glyph glyph-name="uniFEF5" unicode="&#xfedf;&#xfe82;" horiz-adv-x="1189" arabic-form="isolated" 
d="M1100 242q22 -101 -34.5 -171.5t-156.5 -70.5h-645l-14 68h330l-207 966h67l207 -966h244q73 0 114.5 51t26.5 123l-250 1179h66zM170 1202l-37 39l92 84q6 4 16.5 3t18.5 -7q28 -28 80.5 -47t101.5 -19q32 0 81 18t81 38l37 -47q-34 -25 -90.5 -44.5t-95.5 -19.5
q-105 0 -193 64q-16 6 -24 -2z" />
    <glyph glyph-name="uniFEF6" unicode="&#xfee0;&#xfe82;" horiz-adv-x="1280" arabic-form="final" 
d="M1464 35q3 -13 -5.5 -24t-22.5 -11h-88q-75 0 -144.5 40.5t-113.5 106.5q-15 -65 -69 -106t-128 -41h-629l-14 68h330l-205 964h67l205 -964h227q80 0 125.5 57.5t28.5 138.5l-246 1157h68l246 -1157q17 -81 87 -138.5t150 -57.5h90q14 0 26 -9t15 -24zM109 1212l-37 39
l94 82q4 6 15 4.5t18 -8.5q28 -27 80.5 -46t101.5 -19q32 0 81.5 17.5t80.5 37.5l37 -45q-34 -25 -91 -44.5t-96 -19.5q-98 0 -192 62q-16 9 -25 0z" />
    <glyph glyph-name="uniFEF7" unicode="&#xfedf;&#xfe84;" horiz-adv-x="1263" arabic-form="isolated" 
d="M584 1249l10 -43h-320l-10 43h72q-65 50 -76 113q-13 69 22.5 114.5t98.5 45.5q61 0 113.5 -44t68.5 -100l-37 -10q-12 43 -52.5 75t-84.5 32q-46 0 -69 -32.5t-13 -84.5q9 -44 46 -76.5t83 -32.5h148zM1171 242q22 -101 -33 -171.5t-155 -70.5h-645l-14 68h327l-205 966
h68l205 -966h246q73 0 114.5 51t26.5 123l-252 1179h68z" />
    <glyph glyph-name="uniFEF8" unicode="&#xfee0;&#xfe84;" horiz-adv-x="1280" arabic-form="final" 
d="M518 1249l10 -43h-319l-10 43h71q-63 46 -75 113q-15 69 20.5 114.5t97.5 45.5t115.5 -44t69.5 -100l-39 -10q-11 43 -51 75t-84 32q-48 0 -71 -32.5t-11 -84.5q9 -44 46 -76.5t83 -32.5h147zM1464 35q3 -13 -5.5 -24t-22.5 -11h-88q-75 0 -144.5 40.5t-113.5 106.5
q-15 -65 -69 -106t-128 -41h-608q-13 0 -24.5 9.5t-14.5 23.5q-3 15 4 25t20 10h310l-205 964h67l205 -964h227q80 0 125.5 57.5t28.5 138.5l-246 1157h68l246 -1157q17 -81 87 -138.5t150 -57.5h90q14 0 26 -9t15 -24z" />
    <glyph glyph-name="uniFEF9" unicode="&#xfedf;&#xfe88;" horiz-adv-x="1189" arabic-form="isolated" 
d="M1100 242q22 -101 -34.5 -171.5t-156.5 -70.5h-645l-14 68h330l-207 966h67l205 -966h246q73 0 114.5 51t26.5 123l-250 1179h66zM713 -457h147l8 -43h-319l-8 43h71q-67 52 -75 113q-13 70 21.5 115t96.5 45q61 0 115 -44t68 -100l-37 -10q-12 43 -52.5 75t-84.5 32
q-46 0 -68 -32.5t-12 -84.5q8 -44 45.5 -76.5t83.5 -32.5z" />
    <glyph glyph-name="uniFEFA" unicode="&#xfee0;&#xfe88;" horiz-adv-x="1280" arabic-form="final" 
d="M1464 35q3 -13 -5.5 -24t-22.5 -11h-88q-75 0 -144.5 40.5t-113.5 106.5q-15 -65 -69 -106t-128 -41h-629l-14 68h330l-205 964h67l205 -964h227q80 0 125.5 57.5t28.5 138.5l-246 1157h68l246 -1157q17 -81 87 -138.5t150 -57.5h90q14 0 26 -9t15 -24zM731 -455h148
l10 -43h-320l-10 43h72q-64 49 -78 111q-12 70 23.5 115t97.5 45t115 -43.5t69 -98.5l-39 -10q-11 43 -51 75t-84 32q-48 0 -71 -32.5t-11 -84.5q9 -44 46 -76.5t83 -32.5z" />
    <glyph glyph-name="uniFEFB" unicode="&#xfedf;&#xfe8e;" horiz-adv-x="1189" arabic-form="isolated" 
d="M1100 242q22 -101 -34.5 -171.5t-156.5 -70.5h-645l-14 68h330l-207 966h67l207 -966h244q73 0 114.5 51t26.5 123l-250 1179h66z" />
    <glyph glyph-name="uniFEFC" unicode="&#xfee0;&#xfe8e;" horiz-adv-x="1280" arabic-form="final" 
d="M1464 35q3 -13 -5.5 -24t-22.5 -11h-88q-75 0 -144.5 40.5t-113.5 106.5q-15 -65 -69 -106t-128 -41h-629l-14 68h330l-205 964h67l205 -964h227q80 0 125.5 57.5t28.5 138.5l-246 1157h68l246 -1157q17 -81 87 -138.5t150 -57.5h90q14 0 26 -9t15 -24z" />
    <glyph glyph-name="uniFEDFFB51" unicode="&#xfedf;&#xfb51;" horiz-adv-x="1189" 
d="M1100 242q22 -101 -34.5 -171.5t-156.5 -70.5h-645l-14 68h330l-207 966h67l205 -966h246q73 0 114.5 51t26.5 123l-250 1179h66z" />
    <glyph glyph-name="uniFEE0FB51" unicode="&#xfee0;&#xfb51;" horiz-adv-x="1280" 
d="M1464 35q3 -13 -5.5 -24t-22.5 -11h-88q-75 0 -144.5 40.5t-113.5 106.5q-15 -65 -69 -106t-128 -41h-629l-14 68h330l-205 964h67l205 -964h227q80 0 125.5 57.5t28.5 138.5l-246 1157h68l246 -1157q17 -81 87 -138.5t150 -57.5h90q14 0 26 -9t15 -24z" />
    <glyph glyph-name="uni066E.init" unicode="&#x66e;" horiz-adv-x="534" 
d="M274 0h-124q-15 0 -28 9.5t-16 21.5q-3 15 6 26t23 11h127q78 0 122.5 55t27.5 131l-138 649h68l137 -649q22 -104 -38.5 -179t-166.5 -75z" />
    <glyph glyph-name="uni066E.medi" unicode="&#x66e;" horiz-adv-x="614" 
d="M756 68q14 0 26 -9t15 -24q3 -13 -6 -24t-23 -11h-88q-75 0 -144.5 40.5t-113.5 106.5q-15 -65 -68 -106t-127 -41h-80q-15 0 -26.5 9.5t-14.5 23.5q-3 15 5 25t22 10h76q79 0 123.5 57.5t27.5 138.5l-96 453h66l98 -453q17 -81 87.5 -138.5t150.5 -57.5h90z" />
    <glyph glyph-name="uni066E.fina" unicode="&#x66e;" horiz-adv-x="1820" 
d="M1964 68q13 0 25.5 -9.5t15.5 -23.5q3 -13 -6 -24t-23 -11h-88q-74 0 -143.5 40.5t-114.5 106.5q-14 -65 -67 -106t-127 -41h-818q-146 0 -269 103.5t-154 248.5l-76 342h67l74 -342q25 -118 126 -201t218 -83h813q78 0 123.5 57.5t30.5 138.5l-135 635h65l137 -635
q17 -81 86.5 -138.5t149.5 -57.5h90z" />
    <glyph glyph-name="uni066F.fina" unicode="&#x66f;" horiz-adv-x="1374" 
d="M1532 68l14 -68h-180l66 -299q10 -49 -17.5 -84t-75.5 -35h-520q-191 0 -354 134.5t-203 324.5l-55 258h69l54 -258q34 -161 173 -276t300 -115h516q24 0 35.5 15.5t7.5 41.5l-64 293h-327q-107 0 -209 52.5t-174.5 143t-95.5 197.5l-29 131q-34 164 58 281t255 117
t304 -116.5t175 -277.5l97 -460h180zM1284 68l-98 460q-29 134 -144 229t-251 95q-138 0 -214 -95.5t-47 -232.5l27 -129q29 -136 145.5 -231.5t253.5 -95.5h328z" />
    <glyph glyph-name="uni06A1.init" unicode="&#x6a1;" horiz-adv-x="1126" 
d="M524 920q167 0 311 -118.5t179 -285.5l108 -516h-991l-14 68h397q-104 45 -182 137t-103 201l-24 110q-34 167 59.5 285.5t259.5 118.5zM1042 68l-96 448q-29 139 -149 237.5t-258 98.5q-139 0 -217.5 -99t-49.5 -239l25 -111q29 -138 149 -236.5t261 -98.5h335z" />
    <glyph glyph-name="uni06A1.medi" unicode="&#x6a1;" horiz-adv-x="1234" 
d="M1108 68h272l13 -68h-1250l-14 68h399q-104 45 -182 136t-102 202l-25 108q-22 110 12.5 203.5t116 148t191.5 54.5q166 0 309 -119.5t178 -286.5l86 -403q5 -26 -4 -43zM1020 68q14 0 22.5 10t4.5 24l-89 412q-29 139 -148 237.5t-259 98.5q-139 0 -217 -99t-49 -239
l24 -109q29 -138 149.5 -236.5t260.5 -98.5h301z" />
    <glyph glyph-name="uni06A1.fina" unicode="&#x6a1;" horiz-adv-x="2048" 
d="M2193 68l15 -68h-1487q-122 0 -239 60.5t-200 165.5t-110 229l-53 256h67l54 -256q34 -159 171.5 -272t297.5 -113h702q-124 48 -216 154.5t-118 234.5l-14 57q-35 167 59 285.5t260 118.5q167 0 310.5 -118.5t177.5 -285.5l96 -448h227zM1898 68l-94 448
q-29 138 -148.5 237t-258.5 99t-217.5 -100t-49.5 -238l13 -55q32 -155 160 -266.5t282 -122.5z" />
    <glyph glyph-name="uni06C2.fina" unicode="&#x6c2;" horiz-adv-x="1273" 
d="M709 1085l10 -43h-320l-10 43h72q-64 49 -78 113q-13 69 23 114.5t98 45.5t115 -43t69 -98l-39 -13q-11 43 -51 76t-84 33q-48 0 -71 -32.5t-11 -84.5q9 -44 46 -77.5t83 -33.5h148zM881 74q-83 -74 -207 -74q-166 0 -310.5 118t-179.5 285l-24 109q-35 170 58.5 288
t262.5 118h404l125 -590q25 -108 117 -184t200 -76h90q13 0 24.5 -10.5t16.5 -24.5q3 -12 -5.5 -22.5t-20.5 -10.5h-91q-77 0 -156 34t-145.5 108.5t-87.5 174.5l-121 533h-335q-140 0 -219 -98t-50 -240l23 -109q31 -140 151 -237.5t261 -97.5q119 0 192 82z" />
    <glyph glyph-name="uni06C3.fina" unicode="&#x6c3;" horiz-adv-x="1273" 
d="M881 74q-83 -74 -207 -74q-166 0 -310.5 118t-179.5 285l-24 109q-35 170 58.5 288t262.5 118h404l125 -590q25 -108 117 -184t200 -76h90q13 0 24.5 -10.5t16.5 -24.5q3 -12 -5.5 -22.5t-20.5 -10.5h-91q-77 0 -156 34t-145.5 108.5t-87.5 174.5l-121 533h-335
q-140 0 -219 -98t-50 -240l23 -109q31 -140 151 -237.5t261 -97.5q119 0 192 82z" />
    <glyph glyph-name="uniFB51" unicode="&#x671;" horiz-adv-x="499" arabic-form="final" 
d="M672 0h-101q-100 0 -184 70.5t-106 171.5l-252 1192h65l252 -1192q15 -72 79 -123t138 -51h94z" />
    <glyph glyph-name="uniFB57" unicode="&#x67e;" horiz-adv-x="1820" arabic-form="final" 
d="M1964 68q13 0 25.5 -9.5t15.5 -23.5q3 -13 -6 -24t-23 -11h-88q-74 0 -143.5 40.5t-114.5 106.5q-14 -65 -67 -106t-127 -41h-818q-146 0 -269 103.5t-154 248.5l-76 342h67l74 -342q25 -118 126 -201t218 -83h813q78 0 123.5 57.5t30.5 138.5l-135 635h65l137 -635
q17 -81 86.5 -138.5t149.5 -57.5h90zM989 -295q-25 0 -48.5 18.5t-27.5 43.5q-6 26 9 44.5t39 18.5q28 0 50.5 -18.5t28.5 -44.5q5 -25 -10 -43.5t-41 -18.5zM1206 -295q-25 0 -48.5 18.5t-27.5 43.5q-6 26 9 44.5t39 18.5q28 0 50.5 -18.5t28.5 -44.5q5 -25 -10 -43.5
t-41 -18.5zM1139 -494q-25 0 -47.5 18.5t-28.5 43.5q-4 27 9.5 45t37.5 18q28 0 52 -18t28 -45q6 -25 -9.5 -43.5t-41.5 -18.5z" />
    <glyph glyph-name="uniFB58" unicode="&#x67e;" horiz-adv-x="561" arabic-form="initial" 
d="M303 0h-153q-15 0 -28 9.5t-16 21.5q-3 15 6 26t23 11h154q78 0 123 55t28 131l-137 649h66l137 -649q23 -104 -37 -179t-166 -75zM289 -295q-25 0 -48.5 18.5t-27.5 43.5q-6 26 8.5 44.5t38.5 18.5q28 0 51 -18.5t29 -44.5q5 -25 -10 -43.5t-41 -18.5zM504 -295
q-24 0 -47 19t-27 43q-6 26 8 44.5t39 18.5q27 0 50.5 -18.5t29.5 -44.5q5 -25 -10.5 -43.5t-42.5 -18.5zM436 -494q-23 0 -45.5 18.5t-28.5 43.5q-4 27 10 45t38 18q28 0 51.5 -18t27.5 -45q6 -25 -9.5 -43.5t-43.5 -18.5z" />
    <glyph glyph-name="uniFB59" unicode="&#x67e;" horiz-adv-x="614" arabic-form="medial" 
d="M756 68q14 0 26 -9t15 -24q3 -13 -6 -24t-23 -11h-88q-75 0 -144.5 40.5t-113.5 106.5q-15 -65 -68 -106t-127 -41h-80q-15 0 -26.5 9.5t-14.5 23.5q-3 15 5 25t22 10h76q79 0 123.5 57.5t27.5 138.5l-96 453h66l98 -453q17 -81 87.5 -138.5t150.5 -57.5h90zM395 -295
q-24 0 -46.5 19t-26.5 43q-6 26 8 44.5t39 18.5q27 0 50.5 -18.5t29.5 -44.5q5 -25 -11 -43.5t-43 -18.5zM612 -295q-25 0 -48 18.5t-27 43.5q-6 26 9 44.5t40 18.5q26 0 49 -18.5t29 -44.5q5 -25 -10.5 -43.5t-41.5 -18.5zM545 -494q-25 0 -47.5 18.5t-28.5 43.5
q-4 27 10 45t39 18q27 0 50.5 -18t27.5 -45q6 -25 -9.5 -43.5t-41.5 -18.5z" />
    <glyph glyph-name="uniFB67" unicode="&#x679;" horiz-adv-x="1820" arabic-form="final" 
d="M539 1139h53l-66 309h45l39 -182q49 77 111 77q115 0 141 -131l25 -116h-340zM729 1300q-51 0 -106 -81l16 -80h195l-17 82q-17 79 -88 79zM2005 35q3 -13 -6 -24t-23 -11h-88q-74 0 -143.5 40.5t-114.5 106.5q-14 -65 -67 -106t-127 -41h-818q-146 0 -269 103.5
t-154 248.5l-76 342h67l74 -342q25 -118 126 -201t218 -83h813q78 0 123.5 57.5t30.5 138.5l-135 635h65l137 -635q17 -81 86.5 -138.5t149.5 -57.5h90q13 0 25.5 -9.5t15.5 -23.5z" />
    <glyph glyph-name="uniFB68" unicode="&#x679;" horiz-adv-x="534" arabic-form="initial" 
d="M74 1122l-8 43h53l-66 310h45l39 -183q49 78 111 78q115 0 141 -131l25 -117h-340zM256 1327q-51 0 -106 -82l16 -80h194l-16 82q-17 80 -88 80zM477 254q22 -104 -38.5 -179t-166.5 -75h-125q-15 0 -27.5 9.5t-15.5 21.5q-3 15 6 26t23 11h127q78 0 122.5 55t27.5 131
l-138 649h68z" />
    <glyph glyph-name="uniFB69" unicode="&#x679;" horiz-adv-x="614" arabic-form="medial" 
d="M55 1102l-8 43h53l-65 309h45l39 -182q49 78 110 78q116 0 142 -131l24 -117h-340zM238 1307q-24 0 -53 -22.5t-54 -59.5l16 -80h195l-16 82q-17 80 -88 80zM795 35q3 -13 -6 -24t-23 -11h-88q-75 0 -144.5 40.5t-113.5 106.5q-15 -65 -68 -106t-127 -41h-80
q-15 0 -26.5 9.5t-14.5 23.5q-3 15 5 25t22 10h76q79 0 123.5 57.5t27.5 138.5l-96 453h66l98 -453q17 -81 87.5 -138.5t150.5 -57.5h90q14 0 26 -9t15 -24z" />
    <glyph glyph-name="uniFB6B" unicode="&#x6a4;" horiz-adv-x="2037" arabic-form="final" 
d="M1319 1374q26 0 49 -18t29 -43q4 -26 -12 -45t-42 -19q-25 0 -47 19t-26 45q-6 25 9 43t40 18zM1251 1176q28 0 51 -18t29 -44t-9.5 -44.5t-41.5 -18.5q-25 0 -47.5 18.5t-28.5 44.5t8.5 44t38.5 18zM1468 1176q27 0 50.5 -18t27.5 -44q6 -26 -8.5 -44.5t-42.5 -18.5
q-24 0 -47 18.5t-29 44.5q-4 26 10 44t39 18zM2183 68l15 -68h-1477q-122 0 -239 60.5t-200 165.5t-110 229l-55 266h67l56 -266q34 -159 171.5 -272t297.5 -113h702q-124 48 -216 153.5t-118 233.5l-14 57q-34 167 59.5 285.5t259.5 118.5q167 0 311 -118.5t179 -285.5
l94 -446h217zM1898 68l-94 446q-29 138 -148.5 237t-258.5 99q-138 0 -217 -100t-50 -238l13 -55q32 -154 159.5 -265t282.5 -122z" />
    <glyph glyph-name="uniFB6C" unicode="&#x6a4;" horiz-adv-x="1126" arabic-form="initial" 
d="M524 1374q27 0 50.5 -18t29.5 -43q5 -26 -11 -45t-42 -19q-25 0 -47.5 19t-26.5 45q-6 24 8.5 42.5t38.5 18.5zM459 1176q27 0 50.5 -18t29.5 -44q5 -26 -10.5 -44.5t-43.5 -18.5q-24 0 -46.5 18.5t-26.5 44.5q-6 26 8 44t39 18zM676 1176q26 0 49 -18t29 -44t-9 -44.5
t-43 -18.5q-24 0 -46.5 18.5t-28.5 44.5t9 44t40 18zM526 918h402l178 -834q6 -35 -13.5 -59.5t-54.5 -24.5h-907l-14 68h397q-104 45 -182 137t-103 201l-24 110q-34 167 59.5 283.5t261.5 118.5zM1036 102l-162 750h-335q-139 0 -217.5 -99t-49.5 -239l25 -111
q29 -138 149 -236.5t261 -98.5h301q14 0 22.5 10.5t5.5 23.5z" />
    <glyph glyph-name="uniFB6D" unicode="&#x6a4;" horiz-adv-x="1234" arabic-form="medial" 
d="M467 1374q26 0 49 -18t29 -43q5 -26 -11 -45t-42 -19q-25 0 -47.5 19t-26.5 45q-6 25 9 43t40 18zM399 1176q28 0 51 -18t29 -44t-9.5 -44.5t-41.5 -18.5q-25 0 -47.5 18.5t-28.5 44.5t8.5 44t38.5 18zM616 1176q27 0 50.5 -18t27.5 -44q6 -26 -8.5 -44.5t-42.5 -18.5
q-24 0 -47 18.5t-29 44.5q-4 26 10 44t39 18zM1108 68h272l13 -68h-1250l-14 68h399q-105 45 -182.5 135t-101.5 200l-23 109q-35 167 58 285.5t260 120.5q166 0 309 -119.5t178 -286.5l86 -401q5 -26 -4 -43zM1020 68q14 0 22.5 10t4.5 24l-89 410q-28 139 -146.5 237.5
t-258.5 98.5q-141 0 -219 -99t-49 -239l24 -109q29 -138 149.5 -235.5t260.5 -97.5h301z" />
    <glyph glyph-name="uniFB7B" unicode="&#x686;" horiz-adv-x="1531" arabic-form="final" 
d="M604 0q-111 0 -172.5 -78t-36.5 -190q23 -110 118.5 -189.5t205.5 -79.5h436l14 -65h-436q-139 0 -257.5 98t-147.5 236q-31 139 46.5 237.5t215.5 98.5h774q-50 25 -88.5 74.5t-50.5 107.5l-27 133q-56 253 -229 365q-69 46 -155 71t-158 28.5t-142 -2.5t-106.5 -13.5
t-51.5 -12.5l-37 62q23 8 65 16.5t119 15t155 1.5t171.5 -32.5t169.5 -78.5q203 -141 265 -420l26 -133q18 -75 78 -128.5t131 -53.5h205l14 -68h-1114zM664 -272q-19 0 -37.5 13.5t-22.5 33.5q-4 21 7 36t30 15q22 0 41 -14.5t23 -36.5q4 -20 -7.5 -33.5t-33.5 -13.5z
M848 -272q-19 0 -37.5 13.5t-22.5 33.5q-4 21 7 36t30 15q22 0 41 -14.5t23 -36.5q4 -20 -7.5 -33.5t-33.5 -13.5zM791 -440q-19 0 -37.5 13.5t-22.5 33.5q-4 21 8 36t31 15q22 0 40 -15t21 -36q5 -20 -6.5 -33.5t-33.5 -13.5z" />
    <glyph glyph-name="uniFB7C" unicode="&#x686;" horiz-adv-x="1351" arabic-form="initial" 
d="M1337 0h-1190q-14 0 -26 10t-15 25q-3 13 5 23t22 10h1038q-53 28 -91 78t-50 110l-26 115q-52 253 -234 374q-71 47 -159 72.5t-162.5 29.5t-146 -2t-109.5 -14t-54 -14l-35 64q21 8 65.5 17.5t122 15t157.5 0t175 -34t173 -80.5q213 -137 272 -426l27 -117
q17 -80 78.5 -134t134.5 -54h16zM616 -295q-25 0 -48 18.5t-27 43.5q-6 26 9 44.5t40 18.5q26 0 49 -18.5t29 -44.5q5 -25 -10.5 -43.5t-41.5 -18.5zM834 -295q-25 0 -48.5 18.5t-27.5 43.5q-6 26 8.5 44.5t38.5 18.5q28 0 51 -18.5t29 -44.5q5 -25 -10 -43.5t-41 -18.5z
M766 -494q-25 0 -47.5 18.5t-28.5 43.5q-4 27 9.5 45t37.5 18q28 0 52 -18t28 -45q6 -25 -9.5 -43.5t-41.5 -18.5z" />
    <glyph glyph-name="uniFB7D" unicode="&#x686;" horiz-adv-x="1292" arabic-form="medial" 
d="M1468 0h-1321q-14 0 -26 10t-15 25q-3 13 5 23t22 10h1002q-53 29 -91.5 78.5t-50.5 109.5l-24 115q-55 253 -236 374q-86 57 -196.5 82.5t-202.5 20.5t-150.5 -14t-77.5 -17l-32 64q18 8 62.5 17.5t120.5 15t156.5 0t175.5 -34t173 -80.5q213 -137 272 -426l25 -117
q17 -80 78.5 -134t134.5 -54h182zM719 -295q-24 0 -48 19t-28 43q-6 26 9 44.5t40 18.5q26 0 49 -18.5t29 -44.5q5 -25 -9.5 -43.5t-41.5 -18.5zM936 -295q-25 0 -48.5 18.5t-27.5 43.5q-6 26 9 44.5t40 18.5q26 0 49 -18.5t29 -44.5q5 -25 -10 -43.5t-41 -18.5zM868 -494
q-25 0 -47 18.5t-28 43.5q-4 27 10 45t39 18q27 0 50.5 -18t27.5 -45q6 -25 -10 -43.5t-42 -18.5z" />
    <glyph glyph-name="uniFB89" unicode="&#x688;" horiz-adv-x="1224" arabic-form="final" 
d="M367 1169h53l-66 310h45l39 -183q49 78 111 78q115 0 141 -131l25 -117h-340zM557 1331q-51 0 -106 -82l16 -80h195l-17 82q-17 80 -88 80zM1409 33q3 -14 -4.5 -23.5t-24.5 -9.5h-34q-105 0 -204.5 49.5t-170.5 134.5q-5 -36 -25 -78q-31 -51 -83.5 -78.5t-117.5 -27.5
h-464l-15 68h465q104 0 152 77q45 76 6 172l-273 598l60 15l285 -613q47 -110 150.5 -179.5t219.5 -69.5h35q16 0 28 -11t15 -24z" />
    <glyph glyph-name="uniFB8B" unicode="&#x698;" horiz-adv-x="735" arabic-form="final" 
d="M231 1370q26 0 50 -18t28 -43q6 -28 -8.5 -46t-42.5 -18q-24 0 -47 18.5t-29 45.5q-5 25 9.5 43t39.5 18zM166 1171q28 0 50.5 -18t27.5 -43q6 -26 -9.5 -44.5t-41.5 -18.5q-25 0 -47.5 18.5t-28.5 44.5q-4 24 10.5 42.5t38.5 18.5zM383 1171q26 0 50 -18t28 -43
q6 -26 -9.5 -44.5t-41.5 -18.5q-25 0 -47.5 18.5t-28.5 44.5q-5 25 9.5 43t39.5 18zM879 68q14 0 26 -10t15 -25q3 -13 -5 -23t-22 -10h-82q-85 0 -166 42.5t-127 111.5l39 -185q16 -66 12 -120.5t-15.5 -97t-37 -77t-53 -59t-63 -43t-68 -29.5t-68.5 -18l-37 63
q328 74 260 392l-196 923h67l121 -575q23 -108 115.5 -184t200.5 -76h84z" />
    <glyph glyph-name="uniFB8D" unicode="&#x691;" horiz-adv-x="735" arabic-form="final" 
d="M465 1124h-340l-8 43h53l-66 310h46l38 -183q49 78 111 78q115 0 141 -131zM217 1167h195l-17 82q-17 80 -88 80q-51 0 -106 -82zM920 33q3 -13 -5 -23t-22 -10h-82q-85 0 -166 42.5t-127 111.5l39 -185q16 -66 12 -120.5t-15.5 -97t-37 -77t-53 -59t-63 -43t-68 -29.5
t-68.5 -18l-37 63q328 74 260 392l-196 923h67l121 -575q23 -108 115.5 -184t200.5 -76h84q14 0 26 -10t15 -25z" />
    <glyph glyph-name="uniFB8F" unicode="&#x6a9;" horiz-adv-x="1947" arabic-form="final" 
d="M2105 68l13 -68h-1530q-144 0 -268.5 102t-155.5 244l-74 348h70l73 -348q25 -117 123.5 -197.5t216.5 -80.5h1231l-82 381q-35 164 -177 280.5t-306 116.5h-526l-51 88l284 579l64 -38l-277 -564h500q125 0 244 -61.5t203.5 -167.5t111.5 -231l80 -383h233z" />
    <glyph glyph-name="uniFB90" unicode="&#x6a9;" horiz-adv-x="1304" arabic-form="initial" 
d="M647 911q125 0 244 -61.5t203.5 -167.5t111.5 -231l78 -371q6 -34 -11 -57t-50 -23h-1092l-14 68h1067q15 0 23 9.5t5 24.5l-71 347q-23 108 -97 199.5t-177.5 144.5t-211.5 53h-542l-58 78l297 585l64 -39l-289 -559h520z" />
    <glyph glyph-name="uniFB91" unicode="&#x6a9;" horiz-adv-x="1347" arabic-form="medial" 
d="M1507 68l13 -68h-1389l-14 68h1087l-80 381q-35 164 -177.5 280.5t-307.5 116.5h-524l-52 88l285 579l62 -38l-275 -564h498q125 0 244 -61.5t203.5 -167.5t111.5 -231l80 -383h235z" />
    <glyph glyph-name="uniFB93" unicode="&#x6af;" horiz-adv-x="1947" arabic-form="final" 
d="M844 1559l-283 -560l-37 27l283 557zM2105 68l13 -68h-1530q-144 0 -268.5 102t-155.5 244l-74 348h70l73 -348q25 -117 123.5 -197.5t216.5 -80.5h1231l-82 381q-35 164 -177 280.5t-306 116.5h-526l-51 88l284 579l64 -38l-277 -564h500q125 0 244 -61.5t203.5 -167.5
t111.5 -231l80 -383h233z" />
    <glyph glyph-name="uniFB94" unicode="&#x6af;" horiz-adv-x="1304" arabic-form="initial" 
d="M-88 1008l285 557l36 -25l-282 -559zM647 911q125 0 244 -61.5t203.5 -167.5t111.5 -231l94 -451h-1169l-14 68h1104l-80 381q-23 108 -97 199.5t-177.5 144.5t-211.5 53h-542l-58 78l297 585l64 -39l-289 -559h520z" />
    <glyph glyph-name="uniFB95" unicode="&#x6af;" horiz-adv-x="1347" arabic-form="medial" 
d="M207 1556l37 -24l-283 -559l-37 24zM1507 68l13 -68h-1389l-14 68h1087l-80 381q-35 164 -177.5 280.5t-307.5 116.5h-524l-52 88l285 579l62 -38l-275 -564h498q125 0 244 -61.5t203.5 -167.5t111.5 -231l80 -383h235z" />
    <glyph glyph-name="uniFB9F" unicode="&#x6ba;" horiz-adv-x="1474" arabic-form="final" 
d="M1618 68q14 0 26 -10t15 -25q3 -13 -5 -23t-22 -10h-82q-77 0 -150.5 42.5t-113.5 109.5l96 -453q8 -40 -15 -68t-64 -28h-496q-188 0 -347.5 131.5t-199.5 318.5l-55 260h65l56 -260q34 -159 171 -272t296 -113h473q23 0 36.5 15.5t10.5 37.5l-246 1145h68l116 -551
q22 -104 104.5 -175.5t178.5 -71.5h84z" />
    <glyph glyph-name="uniFBA7" unicode="&#x6c1;" horiz-adv-x="1273" arabic-form="final" 
d="M881 74q-83 -74 -207 -74q-166 0 -310.5 118t-179.5 285l-24 109q-35 170 58.5 288t262.5 118h404l125 -590q25 -108 117 -184t200 -76h90q13 0 24.5 -10.5t16.5 -24.5q3 -12 -5.5 -22.5t-20.5 -10.5h-91q-77 0 -156 34t-145.5 108.5t-87.5 174.5l-121 533h-335
q-140 0 -219 -98t-50 -240l23 -109q31 -140 151 -237.5t261 -97.5q119 0 192 82z" />
    <glyph glyph-name="uniFBA8" unicode="&#x6c1;" horiz-adv-x="534" arabic-form="initial" 
d="M274 0h-124q-15 0 -28 9.5t-16 21.5q-3 15 6 26t23 11h127q78 0 122.5 55t27.5 131l-138 649h68l137 -649q22 -104 -38.5 -179t-166.5 -75z" />
    <glyph glyph-name="uniFBA9" unicode="&#x6c1;" horiz-adv-x="1259" arabic-form="medial" 
d="M1157 68h262l13 -68h-240l12 -47q37 -175 -61 -295.5t-279 -120.5q-174 0 -326.5 122t-193.5 294l-10 47h-203l-14 66h200l-81 380q-37 177 53.5 307t253.5 138q180 9 340 -117q152 -121 194 -305q26 -129 -16.5 -237t-141.5 -170t-233 -62h-285l13 -47q34 -146 161 -248
t275 -102q151 0 235 104.5t52 253.5l-15 64q-3 19 8.5 31t26.5 12zM303 446l82 -380h287q111 0 197 52t125.5 145.5t15.5 205.5q-30 156 -164 258q-128 105 -285 98q-90 -5 -157 -57.5t-94 -138t-7 -183.5z" />
    <glyph glyph-name="uniFBAB" unicode="&#x6be;" horiz-adv-x="1433" arabic-form="final" 
d="M1331 68h262l13 -68h-240l12 -47q37 -175 -61 -295.5t-279 -120.5q-174 0 -326.5 122t-193.5 294l-10 47h-203l-14 66h201l-82 380q-37 177 53.5 307t253.5 138q180 9 340 -117q152 -121 194 -305q26 -129 -16.5 -237t-141.5 -170t-233 -62h-285l13 -47q34 -146 161 -248
t275 -102q151 0 235 104.5t52 253.5l-15 64q-3 19 8.5 31t26.5 12zM477 446l82 -380h287q111 0 197 52t125.5 145.5t15.5 205.5q-30 156 -164 258q-128 105 -285 98q-90 -5 -157 -57.5t-94 -138t-7 -183.5z" />
    <glyph glyph-name="uniFBAC" unicode="&#x6be;" horiz-adv-x="1429" arabic-form="initial" 
d="M754 1014q219 -65 383 -241t213 -404l53 -258q9 -45 -14.5 -78t-67.5 -33h-1190l-14 68h334q-97 42 -169.5 128.5t-95.5 190.5q-32 155 55.5 264t243.5 109q159 0 295 -113t170 -272l58 -269q6 -22 -4 -38h294q22 0 33 14.5t6 36.5l-53 250q-43 202 -190 362t-342 217
q-199 62 -375 62l-8 65q191 -5 385 -61zM500 692q-129 0 -203 -90t-47 -221q29 -132 139.5 -222.5t237.5 -90.5h286q14 0 24 9t7 23l-59 279q-28 128 -141.5 220.5t-243.5 92.5z" />
    <glyph glyph-name="uniFBAD" unicode="&#x6be;" horiz-adv-x="1259" arabic-form="medial" 
d="M1157 68h262l13 -68h-240l12 -47q37 -175 -61 -295.5t-279 -120.5q-174 0 -326.5 122t-193.5 294l-10 47h-203l-14 66h200l-81 380q-37 177 53.5 307t253.5 138q180 9 340 -117q152 -121 194 -305q26 -129 -16.5 -237t-141.5 -170t-233 -62h-285l13 -47q34 -146 161 -248
t275 -102q151 0 235 104.5t52 253.5l-15 64q-3 19 8.5 31t26.5 12zM303 446l82 -380h287q111 0 197 52t125.5 145.5t15.5 205.5q-30 156 -164 258q-128 105 -285 98q-90 -5 -157 -57.5t-94 -138t-7 -183.5z" />
    <glyph glyph-name="uniFBAF" unicode="&#x6d2;" horiz-adv-x="1206" arabic-form="final" 
d="M575 41h793l16 -68h-794q-103 0 -148 -79q-48 -76 -2 -181l160 -350l-61 -18l-160 352q-61 132 2 237q30 50 80 78.5t114 28.5z" />
    <glyph glyph-name="uniFBB1" unicode="&#x6d3;" horiz-adv-x="1206" arabic-form="final" 
d="M696 221l11 -43h-320l-10 43h72q-64 49 -78 113q-13 69 23 114.5t98 45.5t115 -44t69 -100l-39 -10q-11 43 -51 74.5t-84 31.5q-48 0 -71 -32t-11 -84q9 -44 46 -76.5t83 -32.5h147zM575 41h793l16 -68h-794q-103 0 -148 -79q-48 -76 -2 -181l160 -350l-61 -18l-160 352
q-61 132 2 237q30 50 80 78.5t114 28.5z" />
    <glyph glyph-name="uniFBFD" unicode="&#x6cc;" horiz-adv-x="1798" arabic-form="final" 
d="M1939 68q14 0 27 -9.5t16 -23.5q3 -13 -5.5 -24t-22.5 -11q-174 0 -340 39q58 -43 97.5 -103.5t51.5 -125.5q29 -135 -46 -231.5t-210 -96.5h-653q-203 0 -378 143.5t-218 345.5l-61 291h69l60 -291q25 -115 102.5 -212t187 -153.5t224.5 -56.5h653q106 0 166 77t37 184
q-19 89 -86.5 162t-159.5 102l-258 94l16 63q167 -65 211 -79q263 -84 520 -84z" />
    <glyph glyph-name="uniFBFE" unicode="&#x6cc;" horiz-adv-x="649" arabic-form="initial" 
d="M391 0h-241q-15 0 -28 9.5t-16 21.5q-3 15 6 26t23 11h242q78 0 123 55t28 131l-137 649h66l137 -649q22 -104 -38.5 -179t-164.5 -75zM408 -254q26 0 49.5 -18t27.5 -43q6 -26 -9.5 -45t-41.5 -19q-25 0 -47.5 19t-28.5 45q-4 25 10.5 43t39.5 18zM635 -254q28 0 52 -18
t28 -43q6 -26 -9.5 -45t-41.5 -19q-25 0 -47.5 19t-28.5 45q-4 25 10 43t37 18z" />
    <glyph glyph-name="uniFBFF" unicode="&#x6cc;" horiz-adv-x="669" arabic-form="medial" 
d="M811 68q14 0 26.5 -9t16.5 -24q3 -13 -7 -24t-22 -11h-114q-75 0 -144.5 40.5t-113.5 106.5q-15 -65 -69 -106t-128 -41h-109q-15 0 -26.5 10t-14.5 25q-3 13 5 23t22 10h105q80 0 125 57.5t28 138.5l-98 459h67l99 -459q17 -81 87 -138.5t150 -57.5h115zM406 -254
q26 0 49.5 -18t27.5 -43q6 -26 -9.5 -45t-41.5 -19q-25 0 -47.5 19t-28.5 45q-4 25 10.5 43t39.5 18zM635 -254q26 0 50 -18t28 -43q6 -26 -9.5 -45t-41.5 -19q-25 0 -47.5 19t-28.5 45q-5 25 9.5 43t39.5 18z" />
    <glyph glyph-name="uniFE82" unicode="&#x622;" horiz-adv-x="520" arabic-form="final" 
d="M-190 1622l-37 39l94 82q4 6 15 4.5t18 -8.5q28 -28 81 -47t103 -19q31 0 81 18t81 38l35 -46q-35 -25 -91 -45t-96 -20q-102 0 -192 63q-16 10 -25 -2zM692 0h-100q-100 0 -184.5 70.5t-106.5 171.5l-252 1192h66l252 -1192q15 -72 78 -123t137 -51h96z" />
    <glyph glyph-name="uniFE84" unicode="&#x623;" horiz-adv-x="512" arabic-form="final" 
d="M184 1597l11 -43h-320l-10 43h72q-63 46 -78 113q-13 70 23 115t98 45t115 -43t69 -98l-39 -13q-11 43 -51 76t-84 33q-48 0 -71 -32.5t-11 -84.5q9 -44 46 -77.5t83 -33.5h147zM672 0h-101q-100 0 -184 70.5t-106 171.5l-252 1192h65l252 -1192q15 -72 79 -123t138 -51
h94z" />
    <glyph glyph-name="uniFE86" unicode="&#x624;" horiz-adv-x="1126" arabic-form="final" 
d="M416 1130q-62 51 -76 113q-12 70 23.5 115t97.5 45q61 0 114.5 -43.5t67.5 -97.5l-37 -13q-12 44 -51.5 76.5t-83.5 32.5q-47 0 -70.5 -32.5t-13.5 -84.5q11 -45 48 -78t83 -33h148l8 -43h-320l-8 43h70zM1073 0l10 -49q43 -188 -57 -303q-72 -87 -193 -119.5t-313 -32.5
l-12 68q31 -1 54.5 -1.5t89 4t116 16.5t109 41t94.5 71q78 90 47 244l-12 61h-312q-185 0 -332.5 132.5t-187.5 324.5q-27 127 4 232.5t115.5 167t206.5 61.5h381l178 -850h188l15 -68h-189zM993 68l-166 780h-313q-157 0 -232.5 -112t-41.5 -279q36 -164 160 -276.5
t280 -112.5h313z" />
    <glyph glyph-name="uniFE88" unicode="&#x625;" horiz-adv-x="514" arabic-form="final" 
d="M672 0h-101q-100 0 -184 70.5t-106 171.5l-252 1179h67l250 -1179q15 -72 79 -123t138 -51h94q13 0 25.5 -10.5t15.5 -24.5q3 -13 -4.5 -23t-21.5 -10zM641 -430l8 -45h-319l-8 45h71q-68 52 -76 111q-13 71 21.5 115t97.5 44q61 0 114.5 -43.5t67.5 -97.5l-36 -12
q-12 43 -53 75.5t-85 32.5q-46 0 -67.5 -32.5t-11.5 -84.5q8 -44 45.5 -76t83.5 -32h147z" />
    <glyph glyph-name="uniFE8A" unicode="&#x626;" horiz-adv-x="1798" arabic-form="final" 
d="M338 440l10 -43h-321l-9 43h70q-61 47 -76 113q-13 70 23 115t98 45t114 -43.5t68 -98.5l-39 -12q-11 43 -50 76t-83 33q-47 0 -70.5 -32.5t-13.5 -84.5q9 -44 47 -77.5t84 -33.5h148zM1939 68q14 0 27 -9.5t16 -23.5q3 -13 -5.5 -24t-22.5 -11q-174 0 -340 39
q58 -43 97.5 -103.5t51.5 -125.5q29 -135 -46 -231.5t-210 -96.5h-653q-203 0 -378 143.5t-218 345.5l-61 291h69l60 -291q25 -115 102.5 -212t187 -153.5t224.5 -56.5h653q106 0 166 77t37 184q-19 89 -86.5 162t-159.5 102l-258 94l16 63q167 -65 211 -79q263 -84 520 -84
z" />
    <glyph glyph-name="uniFE8B" unicode="&#x626;" horiz-adv-x="608" arabic-form="initial" 
d="M434 1128l8 -43h-319l-8 43h69q-64 49 -75 113q-13 69 22 114.5t98 45.5q61 0 115 -43.5t68 -97.5l-37 -13q-12 44 -51.5 76.5t-83.5 32.5q-47 0 -70.5 -32.5t-13.5 -84.5q11 -45 48 -78t83 -33h147zM283 0h-133q-15 0 -28 9.5t-16 21.5q-3 15 6 26t23 11h133
q78 0 122.5 55t27.5 131l-137 649h67l137 -649q23 -104 -36.5 -179t-165.5 -75z" />
    <glyph glyph-name="uniFE8C" unicode="&#x626;" horiz-adv-x="614" arabic-form="medial" 
d="M418 961l8 -43h-320l-10 43h72q-65 50 -76 110q-13 70 22.5 115t98.5 45q61 0 114.5 -43.5t67.5 -97.5l-37 -13q-12 44 -52.5 76.5t-84.5 32.5q-46 0 -69 -32.5t-13 -84.5q9 -44 47 -76t84 -32h148zM756 68q14 0 26 -9t15 -24q3 -13 -6 -24t-23 -11h-88
q-75 0 -144.5 40.5t-113.5 106.5q-15 -65 -68 -106t-127 -41h-80q-15 0 -26.5 10t-14.5 25q-3 13 5 23t22 10h76q79 0 123.5 57.5t27.5 138.5l-98 459h68l98 -459q17 -81 87.5 -138.5t150.5 -57.5h90z" />
    <glyph glyph-name="uniFE8E" unicode="&#x627;" horiz-adv-x="520" arabic-form="final" 
d="M692 0h-100q-100 0 -184.5 70.5t-106.5 171.5l-252 1192h66l252 -1192q15 -72 78 -123t137 -51h96z" />
    <glyph glyph-name="uniFE90" unicode="&#x628;" horiz-adv-x="1822" arabic-form="final" 
d="M1966 68q14 0 26 -9t15 -24q3 -13 -6 -24t-23 -11h-90q-74 0 -143.5 40.5t-114.5 106.5q-14 -65 -67 -106t-127 -41h-818q-146 0 -269 103.5t-154 248.5l-82 377h67l80 -377q25 -118 126 -201t218 -83h813q78 0 123.5 57.5t30.5 138.5l-139 654h67l139 -654
q17 -81 86.5 -138.5t149.5 -57.5h92zM1065 -254q28 0 52 -18t28 -43q6 -26 -9.5 -45t-41.5 -19q-25 0 -47.5 19t-28.5 45q-4 25 10 43t37 18z" />
    <glyph glyph-name="uniFE91" unicode="&#x628;" horiz-adv-x="524" arabic-form="initial" 
d="M283 0h-133q-15 0 -28 9.5t-16 21.5q-3 15 6 26t23 11h133q78 0 122.5 55t27.5 131l-142 664h70l139 -664q23 -104 -36.5 -179t-165.5 -75zM369 -315q-5 25 9.5 43t39.5 18q26 0 50 -18t28 -43q6 -26 -10 -45t-42 -19q-25 0 -47 19t-28 45z" />
    <glyph glyph-name="uniFE92" unicode="&#x628;" horiz-adv-x="606" arabic-form="medial" 
d="M748 68q14 0 26.5 -9t16.5 -24q3 -13 -7 -24t-22 -11h-88q-75 0 -144.5 40.5t-113.5 106.5q-15 -65 -68 -106t-127 -41h-74q-15 0 -26.5 9.5t-14.5 23.5q-3 15 5 25t22 10h70q79 0 123.5 57.5t27.5 138.5l-98 465h66l100 -465q17 -81 87 -138.5t150 -57.5h89zM444 -315
q-4 25 10.5 43t37.5 18q28 0 51 -18t28 -43q6 -26 -9.5 -45t-41.5 -19q-25 0 -47.5 19t-28.5 45z" />
    <glyph glyph-name="uniFE94" unicode="&#x629;" horiz-adv-x="1255" arabic-form="final" 
d="M365 1208q27 0 50 -17.5t29 -43.5q5 -27 -10.5 -45.5t-42.5 -18.5q-24 0 -47 19t-27 45q-6 26 8.5 43.5t39.5 17.5zM582 1208q26 0 48.5 -17.5t28.5 -43.5t-8.5 -45t-42.5 -19q-24 0 -47 19t-29 45t9.5 43.5t40.5 17.5zM1417 68q13 0 24.5 -10.5t16.5 -24.5
q3 -12 -5.5 -22.5t-20.5 -10.5h-91q-109 0 -208.5 67.5t-147.5 170.5q-24 -106 -108 -172t-203 -66q-166 0 -310.5 118t-179.5 285l-24 109q-35 170 58.5 288t262.5 118h404l125 -590q25 -108 117 -184t200 -76h90zM662 68q139 0 217 99t49 239l-94 444h-338
q-140 0 -219 -98t-50 -240l23 -109q31 -140 151 -237.5t261 -97.5z" />
    <glyph glyph-name="uniFE96" unicode="&#x62a;" horiz-adv-x="1820" arabic-form="final" 
d="M643 1006q26 0 50 -18.5t30 -43.5q4 -28 -10.5 -45.5t-42.5 -17.5q-24 0 -47 18t-27 45q-6 25 8 43.5t39 18.5zM860 1006q26 0 49 -18.5t29 -43.5q5 -28 -9 -45.5t-42 -17.5q-25 0 -48.5 18t-27.5 45q-6 25 9 43.5t40 18.5zM1962 68q14 0 27 -9.5t16 -23.5q3 -13 -6 -24
t-23 -11h-88q-74 0 -143.5 40.5t-114.5 106.5q-14 -65 -67 -106t-127 -41h-818q-146 0 -269 103.5t-154 248.5l-82 377h67l80 -377q25 -118 126 -201t218 -83h813q78 0 123.5 57.5t30.5 138.5l-139 654h67l139 -654q17 -81 86.5 -138.5t149.5 -57.5h88z" />
    <glyph glyph-name="uniFE97" unicode="&#x62a;" horiz-adv-x="651" arabic-form="initial" 
d="M113 1221q26 0 48 -18.5t27 -43.5q6 -27 -9 -45t-42 -18q-25 0 -47.5 18t-28.5 45q-4 25 11.5 43.5t40.5 18.5zM328 1221q27 0 50 -18.5t28 -43.5q6 -27 -9.5 -45t-42.5 -18q-25 0 -47 18t-28 45q-4 25 11 43.5t38 18.5zM293 0h-143q-15 0 -28 9.5t-16 21.5q-3 15 6 26
t23 11h146q78 0 121 54.5t26 131.5l-139 664h67l142 -664q22 -104 -38.5 -179t-166.5 -75z" />
    <glyph glyph-name="uniFE98" unicode="&#x62a;" horiz-adv-x="622" arabic-form="medial" 
d="M113 1079q27 0 50.5 -18t29.5 -43q4 -26 -12 -45t-42 -19q-25 0 -47 19t-26 45q-6 24 8.5 42.5t38.5 18.5zM330 1079q26 0 50 -18t30 -43q4 -26 -12 -45t-42 -19q-25 0 -47 19t-26 45q-6 25 8 43t39 18zM764 68q14 0 26.5 -9t16.5 -24q3 -13 -7 -24t-22 -11h-94
q-74 0 -144.5 40.5t-113.5 106.5q-15 -65 -68 -106t-127 -41h-84q-15 0 -26.5 9.5t-14.5 23.5q-3 15 5 25t22 10h80q78 0 123.5 57.5t30.5 138.5l-101 465h68l98 -465q19 -82 88.5 -139t149.5 -57h94z" />
    <glyph glyph-name="uniFE9A" unicode="&#x62b;" horiz-adv-x="1808" arabic-form="final" 
d="M711 1204q26 0 48 -18t27 -43q6 -27 -9 -45.5t-42 -18.5q-25 0 -47.5 18.5t-28.5 45.5q-4 25 11.5 43t40.5 18zM643 1006q27 0 50.5 -18.5t29.5 -43.5q4 -28 -10.5 -45.5t-40.5 -17.5t-49 18t-27 45q-6 24 8.5 43t38.5 19zM860 1006q26 0 50 -18.5t28 -43.5
q5 -28 -9 -45.5t-42 -17.5q-25 0 -48.5 18t-27.5 45q-5 25 9.5 43.5t39.5 18.5zM1968 68q14 0 27 -9.5t16 -23.5q3 -13 -6 -24t-23 -11h-94q-74 0 -143.5 40.5t-114.5 106.5q-14 -65 -67 -106t-127 -41h-818q-146 0 -269 103.5t-154 248.5l-72 332h67l70 -332
q25 -118 126 -201t218 -83h813q78 0 123.5 57.5t30.5 138.5l-137 639h65l139 -639q17 -81 86.5 -138.5t149.5 -57.5h94z" />
    <glyph glyph-name="uniFE9B" unicode="&#x62b;" horiz-adv-x="657" arabic-form="initial" 
d="M186 1405q27 0 50.5 -18t29.5 -44q5 -26 -11 -44.5t-44 -18.5q-24 0 -46 18.5t-26 44.5q-6 26 8 44t39 18zM121 1206q27 0 49.5 -17.5t28.5 -43.5t-10 -45t-42 -19q-25 0 -47 19t-28 45t9 43.5t40 17.5zM336 1206q28 0 51 -17.5t29 -43.5t-9.5 -45t-41.5 -19
q-25 0 -47.5 19t-28.5 45t8.5 43.5t38.5 17.5zM291 0h-141q-15 0 -28 9.5t-16 21.5q-3 15 6 26t23 11h141q78 0 123.5 55t28.5 131l-141 664h67l140 -664q23 -104 -37 -179t-166 -75z" />
    <glyph glyph-name="uniFE9C" unicode="&#x62b;" horiz-adv-x="626" arabic-form="medial" 
d="M188 1274q26 0 49 -18.5t29 -43.5q4 -26 -11.5 -44.5t-41.5 -18.5q-25 0 -47.5 18.5t-26.5 44.5q-6 25 9 43.5t40 18.5zM121 1075q27 0 50.5 -17.5t29.5 -43.5t-10 -45t-44 -19q-23 0 -45 19t-28 45t8 43.5t39 17.5zM338 1075q27 0 50.5 -17.5t27.5 -43.5q6 -26 -8.5 -45
t-42.5 -19q-24 0 -47 19t-29 45q-4 26 10 43.5t39 17.5zM768 68q14 0 27 -9.5t16 -23.5q3 -13 -6 -24t-23 -11h-94q-74 0 -143.5 40.5t-114.5 106.5q-14 -65 -67 -106t-127 -41h-89q-15 0 -26.5 9.5t-14.5 23.5q-3 15 5 25t22 10h84q78 0 123.5 57.5t30.5 138.5l-101 465h68
l100 -465q17 -81 86.5 -138.5t149.5 -57.5h94z" />
    <glyph glyph-name="uniFE9E" unicode="&#x62c;" horiz-adv-x="1531" arabic-form="final" 
d="M604 0q-111 0 -172.5 -78t-36.5 -190q23 -110 118.5 -189.5t205.5 -79.5h436l14 -65h-436q-139 0 -257.5 98t-147.5 236q-31 139 46.5 237.5t215.5 98.5h774q-50 25 -88.5 74.5t-50.5 107.5l-27 133q-56 253 -229 365q-69 46 -155 71t-158 28.5t-142 -2.5t-106.5 -13.5
t-51.5 -12.5l-37 62q23 8 65 16.5t119 15t155 1.5t171.5 -32.5t169.5 -78.5q203 -141 265 -420l26 -133q18 -75 78 -128.5t131 -53.5h205l14 -68h-1114zM717 -219q26 0 49 -17.5t27 -42.5q6 -26 -9.5 -43.5t-42.5 -17.5q-24 0 -44.5 17.5t-26.5 43.5q-4 25 10 42.5t37 17.5z
" />
    <glyph glyph-name="uniFE9F" unicode="&#x62c;" horiz-adv-x="1351" arabic-form="initial" 
d="M1337 0h-1190q-14 0 -26 10t-15 25q-3 13 5 23t22 10h1038q-53 28 -91 78t-50 110l-26 115q-52 253 -234 374q-71 47 -159 72.5t-162.5 29.5t-146 -2t-109.5 -14t-54 -14l-35 64q23 8 66 16.5t121 14.5t158 1t175.5 -33.5t174.5 -80.5q210 -138 270 -426l27 -117
q17 -80 78.5 -134t134.5 -54h16zM700 -231q27 0 49.5 -18t26.5 -44q6 -26 -9.5 -44.5t-41.5 -18.5q-25 0 -47.5 18.5t-28.5 44.5q-4 26 11 44t40 18z" />
    <glyph glyph-name="uniFEA0" unicode="&#x62c;" horiz-adv-x="1292" arabic-form="medial" 
d="M1468 0h-1321q-14 0 -26 10t-15 25q-3 13 5 23t22 10h1002q-53 29 -91.5 78.5t-50.5 109.5l-24 115q-55 253 -236 374q-70 47 -158.5 72t-162 28.5t-145 -2.5t-109 -13.5t-52.5 -12.5l-32 64q25 11 91 21t164.5 14t217.5 -25t215 -92q212 -137 272 -426l25 -117
q17 -80 78.5 -134t134.5 -54h182zM844 -231q28 0 51 -18t27 -44q6 -26 -9.5 -44.5t-42.5 -18.5q-25 0 -47 18.5t-28 44.5q-4 26 10.5 44t38.5 18z" />
    <glyph glyph-name="uniFEA2" unicode="&#x62d;" horiz-adv-x="1542" arabic-form="final" 
d="M594 0q-107 0 -166.5 -75.5t-36.5 -182.5t116 -182.5t200 -75.5h444l14 -68h-446q-133 0 -248.5 95.5t-144.5 230.5t46 230.5t210 95.5h782q-50 25 -88.5 74.5t-50.5 107.5l-27 133q-56 249 -229 365q-69 46 -155 71t-158 28.5t-142 -2.5t-106.5 -13.5t-51.5 -12.5
l-37 62q23 8 65 16.5t119 15t155 1.5t171.5 -32.5t169.5 -78.5q203 -138 265 -420l26 -133q18 -75 78 -128.5t131 -53.5h205l14 -68h-1124z" />
    <glyph glyph-name="uniFEA3" unicode="&#x62d;" horiz-adv-x="1351" arabic-form="initial" 
d="M1337 0h-1190q-14 0 -26 10t-15 25q-3 13 5 23t22 10h1038q-53 28 -91 78t-50 110l-26 115q-52 253 -234 374q-71 47 -159 72.5t-162.5 29.5t-146 -2t-109.5 -14t-54 -14l-35 64q21 8 65.5 17.5t122 15t157.5 0t175 -34t173 -80.5q213 -137 272 -426l27 -117
q17 -80 78.5 -134t134.5 -54h16z" />
    <glyph glyph-name="uniFEA4" unicode="&#x62d;" horiz-adv-x="1292" arabic-form="medial" 
d="M1468 0h-1321q-14 0 -26 10t-15 25q-3 13 5 23t22 10h1002q-53 29 -91.5 78.5t-50.5 109.5l-24 115q-55 253 -236 374q-70 47 -158.5 72.5t-162 29.5t-145 -2t-109 -13.5t-52.5 -12.5l-32 62q18 8 63 17.5t121 15t156.5 0t175.5 -34t172 -80.5q213 -137 272 -426l25 -117
q17 -80 78.5 -134t134.5 -54h182z" />
    <glyph glyph-name="uniFEA6" unicode="&#x62e;" horiz-adv-x="1542" arabic-form="final" 
d="M598 1221q27 0 50 -18.5t28 -43.5q6 -27 -9 -45t-42 -18q-25 0 -47.5 18t-28.5 45q-4 25 11 43.5t38 18.5zM594 0q-107 0 -166.5 -75.5t-36.5 -182.5t116 -182.5t200 -75.5h444l14 -68h-446q-133 0 -248.5 95.5t-144.5 230.5t46 230.5t210 95.5h782q-50 25 -88.5 74.5
t-50.5 107.5l-27 133q-56 249 -229 365q-69 46 -155.5 70.5t-156.5 28.5t-143.5 -2.5t-105.5 -13t-52 -12.5l-37 60q22 8 65 17.5t119.5 15.5t155 1.5t171.5 -33t169 -79.5q202 -135 265 -418l26 -133q18 -75 78 -128.5t131 -53.5h205l14 -68h-1124z" />
    <glyph glyph-name="uniFEA7" unicode="&#x62e;" horiz-adv-x="1351" arabic-form="initial" 
d="M373 1159q-4 25 11 43.5t40 18.5q26 0 48.5 -18.5t27.5 -43.5q6 -28 -8.5 -45.5t-42.5 -17.5q-24 0 -47 18t-29 45zM1337 0h-1190q-14 0 -26 10t-15 25q-3 13 5 23t22 10h1038q-53 28 -91 78t-50 110l-26 115q-52 253 -234 374q-71 47 -159 72.5t-162.5 29.5t-146 -2
t-109.5 -14t-54 -14l-35 64q21 8 65.5 17.5t122 15t157.5 0t175 -34t173 -80.5q213 -137 272 -426l27 -117q17 -80 78.5 -134t134.5 -54h16z" />
    <glyph glyph-name="uniFEA8" unicode="&#x62e;" horiz-adv-x="1298" arabic-form="medial" 
d="M338 1159q-4 25 11 43.5t38 18.5q27 0 50 -18.5t28 -43.5q6 -27 -9 -45t-42 -18q-25 0 -47.5 18t-28.5 45zM1468 0h-1321q-14 0 -26 10t-15 25q-3 13 5 23t22 10h1002q-53 29 -91.5 78.5t-50.5 109.5l-24 115q-55 253 -236 374q-70 47 -158.5 72.5t-162 29.5t-145 -2
t-109 -13.5t-52.5 -12.5l-32 62q18 8 62.5 17.5t120.5 15t156.5 0t175.5 -34t173 -80.5q213 -137 272 -426l25 -117q17 -80 78.5 -134t134.5 -54h182z" />
    <glyph glyph-name="uniFEAA" unicode="&#x62f;" horiz-adv-x="1224" arabic-form="final" 
d="M1409 33q3 -14 -4.5 -23.5t-24.5 -9.5h-34q-105 0 -204.5 49.5t-170.5 134.5q-5 -36 -25 -78q-31 -51 -83.5 -78.5t-117.5 -27.5h-464l-15 68h465q104 0 152 77q45 76 6 172l-273 598l60 15l285 -613q47 -110 150.5 -179.5t219.5 -69.5h35q16 0 28 -11t15 -24z" />
    <glyph glyph-name="uniFEAC" unicode="&#x630;" horiz-adv-x="1280" arabic-form="final" 
d="M559 1090q-25 0 -47.5 18.5t-28.5 44.5q-4 26 10.5 43.5t38.5 17.5q28 0 51 -17.5t27 -43.5q6 -26 -9.5 -44.5t-41.5 -18.5zM1464 33q3 -14 -4 -23.5t-24 -9.5h-90q-108 0 -206.5 48.5t-168.5 133.5q-5 -35 -25 -76q-31 -51 -83.5 -78.5t-117.5 -27.5h-464l-15 68h465
q104 0 152 77q44 76 8 170l-275 600l60 15l285 -613q47 -110 150.5 -179.5t219.5 -69.5h92q14 0 26 -11t15 -24z" />
    <glyph glyph-name="uniFEAE" unicode="&#x631;" horiz-adv-x="735" arabic-form="final" 
d="M879 68q14 0 26 -10t15 -25q3 -13 -5 -23t-22 -10h-82q-85 0 -166 42.5t-127 111.5l39 -185q16 -66 12 -120.5t-15.5 -97t-37 -77t-53 -59t-63 -43t-68 -29.5t-68.5 -18l-37 63q328 74 260 392l-196 923h67l121 -575q23 -108 115.5 -184t200.5 -76h84z" />
    <glyph glyph-name="uniFEB0" unicode="&#x632;" horiz-adv-x="727" arabic-form="final" 
d="M260 1221q26 0 48.5 -18.5t27.5 -43.5q6 -27 -9 -45t-42 -18q-25 0 -47.5 18t-28.5 45q-4 25 11 43.5t40 18.5zM870 68q14 0 26 -10t15 -25q3 -13 -4.5 -23t-21.5 -10h-74q-87 0 -167 41t-126 113l39 -185q16 -66 12 -120.5t-15.5 -97t-37 -77t-53 -59t-63 -43t-68 -29.5
t-68.5 -18l-37 63q37 8 68.5 18.5t63.5 27.5t56.5 38.5t44 52t29.5 67t10 84.5t-12 104l-196 923h67l121 -575q23 -108 115.5 -184t200.5 -76h75z" />
    <glyph glyph-name="uniFEB2" unicode="&#x633;" horiz-adv-x="2525" arabic-form="final" 
d="M2671 68q10 0 22 -11t17 -24q3 -14 -6 -23.5t-21 -9.5h-80q-79 0 -148.5 48.5t-99.5 121.5q-28 -81 -90 -125.5t-154 -44.5q-95 0 -184 55t-141 142q-15 -89 -81.5 -142.5t-166.5 -54.5q-81 0 -156 40.5t-129 109.5l90 -433q11 -46 -12.5 -78t-68.5 -32h-469
q-182 0 -338 128t-193 308l-55 262h67l58 -262q32 -154 162.5 -262.5t285.5 -108.5h459q22 0 34.5 16t6.5 40l-207 979h62l84 -390q22 -105 110.5 -177t194.5 -72q108 0 167.5 74.5t37.5 179.5l-80 385h65l84 -390q22 -106 110 -177.5t193 -71.5t163 74.5t36 179.5l-125 583
h68l143 -667q13 -70 72.5 -120t130.5 -50h82z" />
    <glyph glyph-name="uniFEB3" unicode="&#x633;" horiz-adv-x="1777" arabic-form="initial" 
d="M1581 903l123 -573q29 -137 -49 -233.5t-215 -96.5q-103 0 -195 55.5t-145 147.5q-19 -93 -89 -148t-169 -55q-89 0 -172.5 46.5t-141.5 125.5q-3 -74 -54 -123t-130 -49h-199q-13 0 -24.5 9.5t-14.5 23.5q-3 13 5 24t20 11h201q72 0 111 50t24 122l-102 479h67l84 -395
q22 -107 113.5 -181.5t199.5 -74.5q112 0 174 76.5t39 185.5l-84 389h64l86 -395q22 -107 114.5 -181.5t202.5 -74.5q114 0 175 76.5t36 185.5l-120 573h65z" />
    <glyph glyph-name="uniFEB4" unicode="&#x633;" horiz-adv-x="1984" arabic-form="medial" 
d="M2126 68q13 0 26.5 -10.5t16.5 -22.5q3 -15 -6 -25t-23 -10h-164q-85 0 -161.5 52.5t-110.5 131.5q-22 -84 -92.5 -134t-169.5 -50q-106 0 -202.5 58.5t-149.5 152.5q-17 -95 -90 -153t-179 -58q-45 0 -96.5 13.5t-118.5 56.5t-114 110q-2 -77 -55.5 -128.5t-135.5 -51.5
h-154q-14 0 -26 10t-15 25q-3 12 5.5 22.5t21.5 10.5h154q76 0 118 52.5t27 129.5l-100 467h65l82 -379q25 -113 121 -191.5t211 -78.5q117 0 179.5 80t37.5 196l-80 373h66l82 -379q25 -113 120.5 -191.5t210.5 -78.5q120 0 184.5 80t39.5 196l-119 561h65l142 -655
q17 -77 82 -129.5t141 -52.5h164z" />
    <glyph glyph-name="uniFEB6" unicode="&#x634;" horiz-adv-x="2527" arabic-form="final" 
d="M1552 1223q26 0 49 -18.5t29 -43.5q4 -28 -10.5 -45.5t-40.5 -17.5t-49 18t-27 45q-6 25 9 43.5t40 18.5zM1470 1001q27 0 50.5 -17.5t29.5 -43.5q5 -27 -10.5 -45t-42.5 -18q-24 0 -47 18.5t-27 44.5q-6 26 8 43.5t39 17.5zM1731 1001q27 0 50 -17.5t27 -43.5
q5 -27 -9.5 -45t-41.5 -18q-24 0 -48 19t-28 44q-4 26 10.5 43.5t39.5 17.5zM2673 68q10 0 23 -11.5t16 -23.5q3 -14 -5.5 -23.5t-19.5 -9.5h-84q-79 0 -148.5 48.5t-99.5 121.5q-28 -81 -90 -125.5t-154 -44.5q-95 0 -184 55t-141 142q-15 -89 -81.5 -142.5t-166.5 -54.5
q-81 0 -156 40.5t-129 109.5l90 -433q11 -46 -12.5 -78t-68.5 -32h-469q-182 0 -338 128t-193 308l-55 262h67l58 -262q32 -154 162.5 -262.5t285.5 -108.5h459q22 0 34.5 16t6.5 40l-209 991h62l86 -402q22 -105 110.5 -177t194.5 -72q108 0 167.5 74.5t37.5 179.5l-84 397
h67l86 -402q22 -106 110 -177.5t193 -71.5t163 74.5t36 179.5l-125 583h68l143 -667q13 -70 72.5 -120t130.5 -50h84z" />
    <glyph glyph-name="uniFEB7" unicode="&#x634;" horiz-adv-x="1779" arabic-form="initial" 
d="M854 1225q27 0 50.5 -18.5t29.5 -43.5q5 -26 -10 -44.5t-41 -18.5q-25 0 -48.5 18.5t-27.5 44.5q-6 24 8.5 43t38.5 19zM774 1006q26 0 50 -18.5t28 -43.5q5 -28 -9 -45.5t-42 -17.5q-25 0 -48.5 18t-27.5 45q-5 25 9.5 43.5t39.5 18.5zM1034 1006q26 0 49 -18.5
t29 -43.5q4 -28 -10.5 -45.5t-40.5 -17.5t-49 18t-27 45q-6 25 9 43.5t40 18.5zM1583 903l123 -573q29 -137 -49 -233.5t-215 -96.5q-105 0 -196.5 55.5t-143.5 147.5q-19 -93 -89 -148t-169 -55q-90 0 -174 46.5t-142 125.5q-2 -74 -52.5 -123t-129.5 -49h-201
q-13 0 -24.5 9.5t-14.5 23.5q-3 13 5 24t20 11h201q72 0 112 50t25 122l-102 479h65l86 -395q22 -107 113 -181.5t200 -74.5q112 0 174 76.5t37 185.5l-81 389h63l84 -395q23 -107 116 -181.5t203 -74.5q113 0 173.5 76.5t37.5 185.5l-122 573h67z" />
    <glyph glyph-name="uniFEB8" unicode="&#x634;" horiz-adv-x="1976" arabic-form="medial" 
d="M860 1225q26 0 50 -18.5t30 -43.5q5 -27 -10.5 -45t-42.5 -18q-24 0 -47 18.5t-27 44.5q-6 25 8 43.5t39 18.5zM780 1006q26 0 49 -18.5t29 -43.5q4 -28 -10.5 -45.5t-40.5 -17.5t-49 18t-27 45q-6 25 9 43.5t40 18.5zM1038 1006q27 0 50.5 -18.5t29.5 -43.5
q4 -28 -10.5 -45.5t-40.5 -17.5t-49 18t-27 45q-6 24 8.5 43t38.5 19zM2120 68q12 0 25 -10.5t16 -22.5q3 -15 -6 -25t-23 -10h-162q-84 0 -161 52.5t-109 131.5q-24 -84 -93.5 -134t-168.5 -50q-106 0 -203 59t-150 152q-17 -95 -89.5 -153t-178.5 -58q-45 0 -97 13.5
t-119 56.5t-114 110q-2 -78 -55 -129t-137 -51h-148q-14 0 -26 10t-15 25q-3 12 5.5 22.5t21.5 10.5h150q76 0 118 53t25 129l-98 467h65l82 -379q25 -113 121 -191.5t211 -78.5q116 0 179 80.5t38 195.5l-80 373h66l80 -379q25 -113 121.5 -191.5t211.5 -78.5
q118 0 182.5 80t39.5 196l-119 561h67l142 -655q17 -77 82 -129.5t141 -52.5h162z" />
    <glyph glyph-name="uniFEBA" unicode="&#x635;" horiz-adv-x="2658" arabic-form="final" 
d="M2816 68l14 -68h-1503l66 -303q9 -43 -16 -76t-70 -33h-494q-188 0 -349.5 133t-201.5 320l-55 260h65l56 -260q34 -160 172.5 -273.5t298.5 -113.5h485q22 0 34 15.5t7 37.5l-254 1196h66l45 -209l577 189q142 46 301.5 -7.5t263.5 -181.5q85 -108 109 -229l82 -377
q2 -6 2 -20h299zM2417 68q14 0 22.5 9.5t5.5 26.5l-78 361q-26 116 -94 197q-85 109 -219.5 152t-259.5 7l-598 -196l119 -557h1102z" />
    <glyph glyph-name="uniFEBB" unicode="&#x635;" horiz-adv-x="1712" arabic-form="initial" 
d="M1503 694q83 -106 111 -229l80 -377q7 -37 -14 -62.5t-56 -25.5h-1493l-14 68h311l-178 835h65l45 -209l578 189q144 46 303 -7.5t262 -181.5zM1624 104l-78 361q-26 116 -94 197q-83 108 -218.5 151.5t-260.5 7.5l-598 -196l119 -557h1101q15 0 23.5 9.5t5.5 26.5z" />
    <glyph glyph-name="uniFEBC" unicode="&#x635;" horiz-adv-x="1820" arabic-form="medial" 
d="M1980 68l13 -68h-1862l-14 68h303l-178 835h65l45 -209l578 189q144 46 303 -7.5t262 -181.5q83 -106 111 -229l80 -377q2 -6 2 -20h292zM1587 68q15 0 23.5 9.5t5.5 26.5l-78 361q-26 116 -94 197q-83 108 -218.5 151.5t-260.5 7.5l-598 -196l118 -557h1102z" />
    <glyph glyph-name="uniFEBE" unicode="&#x636;" horiz-adv-x="2658" arabic-form="final" 
d="M1681 1096q-25 0 -47 18t-28 45q-4 25 11 43.5t40 18.5q26 0 48.5 -18.5t27.5 -43.5q6 -27 -9.5 -45t-42.5 -18zM2816 68l14 -68h-1503l66 -303q9 -43 -16 -76t-70 -33h-494q-188 0 -349.5 133t-201.5 320l-57 272h63l60 -272q34 -160 172.5 -273.5t298.5 -113.5h485
q22 0 34 15.5t7 37.5l-254 1196h66l45 -209l577 189q142 46 301.5 -7.5t263.5 -181.5q85 -108 109 -229l82 -377q2 -6 2 -20h299zM2417 68q14 0 22.5 9.5t5.5 26.5l-78 361q-26 116 -94 197q-85 109 -219.5 152t-259.5 7l-598 -196l119 -557h1102z" />
    <glyph glyph-name="uniFEBF" unicode="&#x636;" horiz-adv-x="1705" arabic-form="initial" 
d="M739 1221q26 0 48.5 -18.5t27.5 -43.5q6 -28 -8.5 -45.5t-42.5 -17.5q-24 0 -47 18t-29 45q-4 25 11 43.5t40 18.5zM1495 694q82 -101 111 -229l80 -377q7 -38 -13.5 -63t-56.5 -25h-1485l-14 68h303l-178 835h65l45 -209l578 189q144 46 303 -7.5t262 -181.5zM1616 104
l-78 361q-22 110 -94 197q-83 109 -217.5 152t-261.5 7l-598 -196l118 -557h1102q15 0 23.5 9.5t5.5 26.5z" />
    <glyph glyph-name="uniFEC0" unicode="&#x636;" horiz-adv-x="1828" arabic-form="medial" 
d="M901 1096q-24 0 -47 18t-27 45q-5 25 10 43.5t40 18.5q26 0 49 -18.5t28 -43.5q4 -28 -10.5 -45.5t-42.5 -17.5zM1987 68l14 -68h-1870l-14 68h307l-178 835h65l45 -209l578 189q144 46 303 -7.5t262 -181.5q83 -106 111 -229l80 -377q2 -6 2 -20h295zM1591 68
q15 0 23.5 9.5t5.5 26.5l-78 361q-26 116 -94 197q-83 108 -218.5 151.5t-260.5 7.5l-598 -196l118 -557h1102z" />
    <glyph glyph-name="uniFEC2" unicode="&#x637;" horiz-adv-x="1972" arabic-form="final" 
d="M2130 68l14 -68h-1859l-15 70h293l-287 1351h66l152 -714l577 188q142 46 301.5 -7t263.5 -181q86 -109 107 -230l86 -389q2 -6 2 -20h299zM1731 68q14 0 22.5 9.5t5.5 26.5l-82 373q-23 115 -94 197q-83 109 -217.5 152.5t-259.5 7.5l-596 -197l119 -569h1102z" />
    <glyph glyph-name="uniFEC3" unicode="&#x637;" horiz-adv-x="1710" arabic-form="initial" 
d="M1499 707q86 -109 107 -230l84 -389q9 -37 -12.5 -62.5t-57.5 -25.5h-1489l-14 68h309l-289 1353h68l151 -714l578 188q142 46 301.5 -7t263.5 -181zM1620 104l-80 373q-22 110 -94 197q-85 109 -219 152.5t-260 7.5l-594 -197l119 -569h1099q15 0 23.5 9.5t5.5 26.5z
" />
    <glyph glyph-name="uniFEC4" unicode="&#x637;" horiz-adv-x="1828" arabic-form="medial" 
d="M1989 68l12 -68h-1870l-14 68h309l-289 1353h68l151 -716l578 188q142 46 301.5 -7t263.5 -181q84 -107 109 -228l82 -389q2 -6 2 -20h297zM1593 68q14 0 22.5 10t4.5 26l-78 373q-28 119 -96 195q-85 109 -218.5 152t-258.5 7l-596 -196l119 -567h1101z" />
    <glyph glyph-name="uniFEC6" unicode="&#x638;" horiz-adv-x="1968" arabic-form="final" 
d="M2126 68l14 -68h-1857l-15 70h291l-289 1351h68l151 -714l578 188q142 46 301.5 -7t263.5 -181q86 -109 107 -230l84 -389q2 -6 2 -20h301zM1073 1096q-24 0 -47 18t-27 45q-5 25 10 43.5t40 18.5q26 0 49 -18.5t28 -43.5q4 -28 -10.5 -45.5t-42.5 -17.5zM1726 68
q14 0 22.5 10t4.5 26l-80 373q-23 115 -94 197q-85 109 -218.5 152.5t-258.5 7.5l-596 -197l119 -569h1101z" />
    <glyph glyph-name="uniFEC7" unicode="&#x638;" horiz-adv-x="1691" arabic-form="initial" 
d="M1499 707q86 -109 107 -230l84 -389q9 -37 -12.5 -62.5t-57.5 -25.5h-1489l-14 68h309l-289 1353h68l151 -714l578 188q142 46 301.5 -7t263.5 -181zM854 1221q26 0 48.5 -18.5t27.5 -43.5q6 -28 -8.5 -45.5t-42.5 -17.5q-24 0 -47 18t-29 45q-4 25 11 43.5t40 18.5z
M1620 104l-80 373q-22 110 -94 197q-85 109 -219 152.5t-260 7.5l-594 -197l119 -569h1099q15 0 23.5 9.5t5.5 26.5z" />
    <glyph glyph-name="uniFEC8" unicode="&#x638;" horiz-adv-x="1830" arabic-form="medial" 
d="M1989 68l14 -68h-1872l-14 68h311l-289 1353h68l151 -716l578 188q142 46 301.5 -7t263.5 -181q84 -107 109 -228l82 -389q2 -6 2 -20h295zM901 1096q-25 0 -47.5 18t-28.5 45q-4 25 11 43.5t38 18.5q27 0 50 -18.5t28 -43.5q6 -27 -9 -45t-42 -18zM1593 68
q15 0 23.5 9.5t5.5 26.5l-80 373q-23 113 -94 195q-85 109 -219 152t-260 7l-596 -196l121 -567h1099z" />
    <glyph glyph-name="uniFECA" unicode="&#x639;" horiz-adv-x="1300" arabic-form="final" 
d="M1477 68l14 -68h-862q-119 0 -183.5 -84.5t-39.5 -202.5t126 -202t220 -84h487l14 -66h-487q-148 0 -274.5 102.5t-157.5 249.5q-32 146 47.5 248.5t220.5 104.5h123l-383 608l12 129q103 72 241.5 102.5t262.5 7.5q137 -28 243.5 -141t121.5 -250q7 -59 -0.5 -121
t-30 -127t-73.5 -120t-124 -86h482zM422 758l-8 -86l385 -600q67 5 122 25t92 49t66 66.5t43.5 78t24.5 83t9 81.5t-3 73q-13 113 -98.5 205t-196.5 115q-43 8 -88 8.5t-82.5 -4.5t-76.5 -15.5t-66.5 -20.5t-56 -23t-41 -20t-25.5 -15z" />
    <glyph glyph-name="uniFECB" unicode="&#x639;" horiz-adv-x="1085" arabic-form="initial" 
d="M1059 68l14 -68h-942l-14 66h358q-98 42 -170.5 126t-93.5 187l-35 160q-31 156 59 267.5t246 111.5q148 0 278 -101.5t167 -247.5l-49 -26q-31 130 -140 218.5t-243 88.5q-128 0 -202 -90.5t-48 -220.5l35 -160q28 -130 139 -220.5t241 -90.5h400z" />
    <glyph glyph-name="uniFECC" unicode="&#x639;" horiz-adv-x="1122" arabic-form="medial" 
d="M145 0l-14 68h397l-385 606l13 129q103 72 240.5 102.5t260.5 7.5q139 -28 245.5 -141t121.5 -250q3 -45 2.5 -94.5t-16.5 -103t-40 -101t-69 -89t-104 -66.5l469 2l14 -68zM215 672l383 -600q67 5 122.5 25t92.5 49t66 66.5t43 78t24 83t9 81.5t-3 73q-12 113 -97 205
t-196 115q-43 8 -88 8.5t-82.5 -4.5t-76.5 -15.5t-66.5 -20.5t-56 -23t-41 -20t-25.5 -15z" />
    <glyph glyph-name="uniFECE" unicode="&#x63a;" horiz-adv-x="1300" arabic-form="final" 
d="M633 1096q-24 0 -47 18t-29 45q-4 25 11 43.5t40 18.5q26 0 48.5 -18.5t27.5 -43.5q6 -28 -8.5 -45.5t-42.5 -17.5zM1477 68l14 -68h-862q-119 0 -183.5 -84.5t-39.5 -202.5t126 -202t220 -84h487l14 -66h-487q-148 0 -274.5 102.5t-157.5 249.5q-32 146 47.5 248.5
t220.5 104.5h123l-383 608l12 129q103 72 241.5 102.5t262.5 7.5q137 -28 243.5 -141t121.5 -250q7 -59 -0.5 -121t-30 -127t-73.5 -120t-124 -86h482zM422 758l-8 -86l385 -600q67 5 122 25t92 49t66 66.5t43.5 78t24.5 83t9 81.5t-3 73q-13 113 -98.5 205t-196.5 115
q-43 8 -88 8.5t-82.5 -4.5t-76.5 -15.5t-66.5 -20.5t-56 -23t-41 -20t-25.5 -15z" />
    <glyph glyph-name="uniFECF" unicode="&#x63a;" horiz-adv-x="1085" arabic-form="initial" 
d="M399 1221q26 0 48.5 -18.5t27.5 -43.5q6 -28 -8.5 -45.5t-42.5 -17.5q-24 0 -47 18t-29 45q-4 25 11 43.5t40 18.5zM1069 68l14 -68h-952l-14 66h358q-98 43 -170.5 128.5t-93.5 186.5l-35 158q-31 156 59 267.5t246 111.5q148 0 278 -100.5t167 -246.5l-49 -28
q-31 130 -140 218.5t-243 88.5q-128 0 -202 -90.5t-48 -220.5l35 -158q28 -130 139.5 -221.5t240.5 -91.5h410z" />
    <glyph glyph-name="uniFED0" unicode="&#x63a;" horiz-adv-x="1138" arabic-form="medial" 
d="M465 1221q26 0 50 -18.5t28 -43.5q6 -27 -9 -45t-42 -18q-25 0 -47.5 18t-28.5 45q-5 25 9.5 43.5t39.5 18.5zM145 0l-14 68h397l-385 606l13 129q103 72 240.5 102.5t260.5 7.5q139 -28 245.5 -141t121.5 -250q3 -45 2.5 -94.5t-16.5 -103t-40 -101t-69 -89t-104 -66.5
l469 2l14 -68zM215 672l383 -600q67 5 122.5 25t92.5 49t66 66.5t43 78t24 83t9 81.5t-3 73q-12 113 -97 205t-196 115q-43 8 -88 8.5t-82.5 -4.5t-76.5 -15.5t-66.5 -20.5t-56 -23t-41 -20t-25.5 -15z" />
    <glyph glyph-name="uniFED2" unicode="&#x641;" horiz-adv-x="2039" arabic-form="final" 
d="M1337 1229q26 0 48.5 -18.5t27.5 -43.5q6 -26 -9.5 -44.5t-41.5 -18.5q-25 0 -47.5 18.5t-28.5 44.5q-4 25 11 43.5t40 18.5zM2185 68l15 -68h-1479q-122 0 -239 60.5t-200 165.5t-110 229l-55 266h67l56 -266q34 -159 171.5 -272t297.5 -113h702q-125 48 -216.5 153
t-117.5 234l-14 57q-34 167 59.5 284.5t259.5 119.5q167 0 311 -119t179 -285l94 -446h219zM1898 68l-94 446q-29 138 -148.5 237t-258.5 99q-138 0 -217 -100.5t-50 -239.5l13 -53q32 -153 160 -264.5t282 -122.5z" />
    <glyph glyph-name="uniFED3" unicode="&#x641;" horiz-adv-x="1126" arabic-form="initial" 
d="M492 1229q27 0 49.5 -18.5t27.5 -43.5q6 -26 -9.5 -44.5t-41.5 -18.5q-25 0 -47.5 18.5t-28.5 44.5q-4 24 11 43t39 19zM526 918h402l178 -834q6 -35 -13.5 -59.5t-54.5 -24.5h-907l-14 68h397q-104 45 -182 137t-103 201l-24 110q-34 167 59.5 283.5t261.5 118.5z
M1036 102l-162 750h-335q-139 0 -217.5 -99t-49.5 -239l25 -111q29 -138 149 -236.5t261 -98.5h301q14 0 22.5 10.5t5.5 23.5z" />
    <glyph glyph-name="uniFED4" unicode="&#x641;" horiz-adv-x="1234" arabic-form="medial" 
d="M520 1104q-25 0 -47.5 18.5t-28.5 44.5q-4 24 11 43t39 19q27 0 49.5 -18.5t27.5 -43.5q6 -26 -9.5 -44.5t-41.5 -18.5zM1108 68h272l15 -68h-1252l-14 68h397q-105 45 -182 135.5t-100 202.5l-25 106q-35 167 58.5 286.5t259.5 119.5q167 0 310 -119.5t177 -286.5
l86 -403q9 -27 -2 -41zM1020 68q13 0 20.5 10t3.5 24l-86 410q-29 139 -148 237.5t-259 98.5t-217.5 -98.5t-48.5 -239.5l22 -107q29 -139 149.5 -237t260.5 -98h303z" />
    <glyph glyph-name="uniFED6" unicode="&#x642;" horiz-adv-x="1368" arabic-form="final" 
d="M614 1229q27 0 50 -18.5t28 -43.5q6 -26 -9.5 -44.5t-41.5 -18.5q-25 0 -47.5 18.5t-28.5 44.5q-4 25 11 43.5t38 18.5zM840 1229q26 0 48 -18.5t27 -43.5q6 -26 -8.5 -44.5t-42.5 -18.5q-24 0 -47 18.5t-29 44.5q-4 25 11.5 43.5t40.5 18.5zM1526 68l14 -68h-174
l66 -299q10 -49 -17.5 -84t-75.5 -35h-520q-191 0 -354 134.5t-203 324.5l-57 270h67l58 -270q34 -161 173 -276t300 -115h516q24 0 35.5 15.5t7.5 41.5l-64 293h-327q-163 0 -303.5 113.5t-175.5 277.5l-27 131q-34 163 57.5 279.5t253.5 116.5q163 0 304 -116t175 -278
l97 -456h174zM1284 68l-96 456q-29 135 -145 230.5t-252 95.5q-137 0 -213.5 -96.5t-47.5 -231.5l29 -129q28 -136 144 -230.5t253 -94.5h328z" />
    <glyph glyph-name="uniFED7" unicode="&#x642;" horiz-adv-x="1130" arabic-form="initial" 
d="M377 1229q26 0 50 -18.5t28 -43.5q5 -26 -10.5 -44.5t-43.5 -18.5q-24 0 -46.5 18.5t-26.5 44.5q-5 25 9.5 43.5t39.5 18.5zM600 1229q27 0 50 -18.5t28 -43.5q6 -26 -9.5 -44.5t-41.5 -18.5q-25 0 -47.5 18.5t-28.5 44.5q-4 25 11 43.5t38 18.5zM528 918h404l178 -834
q6 -35 -13.5 -59.5t-54.5 -24.5h-911l-14 68h399q-103 45 -180.5 136.5t-102.5 201.5l-24 110q-35 166 58.5 283t260.5 119zM1038 102l-159 750h-336q-141 0 -218.5 -99t-48.5 -239l23 -111q29 -138 149.5 -236.5t260.5 -98.5h303q12 0 20.5 10.5t5.5 23.5z" />
    <glyph glyph-name="uniFED8" unicode="&#x642;" horiz-adv-x="1234" arabic-form="medial" 
d="M397 1104q-24 0 -46.5 18.5t-28.5 44.5q-4 25 11 43.5t40 18.5q26 0 48.5 -18.5t27.5 -43.5q6 -26 -9 -44.5t-43 -18.5zM621 1104q-24 0 -47 18.5t-27 44.5q-5 25 9.5 43.5t39.5 18.5q26 0 50 -18.5t28 -43.5q5 -27 -10.5 -45t-42.5 -18zM1108 68h272l13 -68h-1250
l-14 68h399q-105 45 -182.5 135t-101.5 200l-23 109q-35 167 58 286.5t260 119.5q166 0 309 -119.5t178 -286.5l86 -401q5 -26 -4 -43zM1020 68q14 0 22.5 10t4.5 24l-89 410q-28 140 -147 239t-258 99q-141 0 -219 -99.5t-49 -240.5l24 -107q29 -139 149.5 -237t260.5 -98
h301z" />
    <glyph glyph-name="uniFEDA" unicode="&#x643;" horiz-adv-x="1619" arabic-form="final" 
d="M1778 68l14 -68h-1094q-116 0 -226 57t-187.5 155.5t-102.5 215.5l-53 254h64l53 -254q31 -150 160.5 -255t279.5 -105h776q22 0 34.5 14t8.5 35l-276 1304h65l281 -1319q2 -12 2 -34h201zM668 858q-62 51 -76 113q-13 69 23 114t98 45q61 0 114.5 -43t69.5 -98l-39 -12
q-11 43 -51 75.5t-84 32.5q-48 0 -71 -32t-13 -84q11 -45 48 -78t83 -33h148l10 -43h-322l-8 43h70z" />
    <glyph glyph-name="uniFEDB" unicode="&#x643;" horiz-adv-x="1304" arabic-form="initial" 
d="M647 911q125 0 244 -61.5t203.5 -167.5t111.5 -231l78 -371q6 -34 -11 -57t-50 -23h-1092l-14 68h1067q15 0 23 9.5t5 24.5l-71 347q-23 108 -97 199.5t-177.5 144.5t-211.5 53h-542l-58 78l297 585l64 -39l-289 -559h520z" />
    <glyph glyph-name="uniFEDC" unicode="&#x643;" horiz-adv-x="1347" arabic-form="medial" 
d="M1507 68l13 -68h-1389l-14 68h1087l-80 381q-35 164 -177.5 280.5t-307.5 116.5h-524l-52 88l285 579l62 -38l-275 -564h498q125 0 244 -61.5t203.5 -167.5t111.5 -231l80 -383h235z" />
    <glyph glyph-name="uniFEDE" unicode="&#x644;" horiz-adv-x="1482" arabic-form="final" 
d="M1626 68q14 0 26 -10t15 -25q3 -13 -5 -23t-22 -10h-81q-77 0 -151 42.5t-114 109.5l97 -455q8 -41 -15.5 -70.5t-64.5 -29.5h-502q-188 0 -348.5 132.5t-200.5 321.5l-57 266h67l56 -266q34 -161 171.5 -274t297.5 -113h485q23 0 33.5 15.5t5.5 39.5l-363 1702h68
l233 -1104q23 -104 106.5 -176.5t178.5 -72.5h84z" />
    <glyph glyph-name="uniFEDF" unicode="&#x644;" horiz-adv-x="587" arabic-form="initial" 
d="M145 0q-13 0 -24.5 9.5t-14.5 23.5q-3 13 5 24t20 11h148q75 0 116.5 51t26.5 123l-252 1179h68l249 -1179q22 -101 -33 -171.5t-155 -70.5h-154z" />
    <glyph glyph-name="uniFEE0" unicode="&#x644;" horiz-adv-x="598" arabic-form="medial" 
d="M739 68q14 0 27 -9.5t16 -23.5q3 -13 -5.5 -24t-22.5 -11h-84q-75 0 -144.5 40.5t-113.5 106.5q-15 -65 -69 -106t-128 -41h-68q-15 0 -26.5 10t-14.5 25q-3 13 5 23t22 10h64q80 0 125 57.5t28 138.5l-246 1157h68l246 -1157q17 -81 87 -138.5t150 -57.5h84z" />
    <glyph glyph-name="uniFEE2" unicode="&#x645;" horiz-adv-x="1333" arabic-form="final" 
d="M1511 68l15 -68h-99q-100 0 -187 65t-118 160q-25 -102 -106.5 -163.5t-198.5 -61.5q-113 0 -212 48t-161 126l25 -115q14 -62 10.5 -114.5t-14 -93.5t-34 -75t-49 -58.5t-59 -43.5t-64.5 -30.5t-66 -20.5l-27 66q47 12 85.5 30.5t75 49.5t55.5 72.5t27.5 99.5t-8.5 131
l-180 846h402q167 0 310.5 -119.5t178.5 -288.5l53 -238q17 -85 89.5 -144.5t158.5 -59.5h98zM803 68q140 0 218.5 98t47.5 237l-22 107q-29 141 -149 240.5t-261 99.5h-336l100 -469q13 -64 43 -116.5t69.5 -88.5t88.5 -60.5t99 -36t102 -11.5z" />
    <glyph glyph-name="uniFEE3" unicode="&#x645;" horiz-adv-x="1302" arabic-form="initial" 
d="M121 68q-13 0 -20.5 -10.5t-4.5 -24.5q3 -13 14.5 -23t24.5 -10h82q109 0 181 68t77 170q70 -108 184.5 -174.5t233.5 -63.5q164 3 254.5 121.5t56.5 284.5l-22 102q-37 171 -180.5 290.5t-311.5 119.5h-405l125 -590q25 -107 -35.5 -183.5t-169.5 -76.5h-84zM872 68
q-140 -2 -260 96t-151 237l-94 449h335q142 0 262.5 -99t149.5 -241l23 -102q29 -140 -48.5 -239.5t-216.5 -100.5z" />
    <glyph glyph-name="uniFEE4" unicode="&#x645;" horiz-adv-x="1433" arabic-form="medial" 
d="M1579 68q13 0 25.5 -10.5t15.5 -24.5q3 -12 -6 -22.5t-23 -10.5h-88q-99 0 -185.5 65.5t-117.5 161.5q-25 -103 -107.5 -165t-199.5 -62q-120 0 -231.5 66t-178.5 172q-5 -102 -77 -170t-181 -68h-84q-13 0 -24.5 10t-14.5 23q-3 14 4.5 24.5t20.5 10.5h86
q108 0 169 76.5t36 183.5l-125 590h407q166 0 309.5 -118.5t180.5 -285.5l51 -242q19 -85 91 -144.5t157 -59.5h90zM1145 408l-23 104q-29 141 -149 239.5t-262 98.5h-336l94 -447q31 -139 151.5 -238t258.5 -97q142 1 218.5 100.5t47.5 239.5z" />
    <glyph glyph-name="uniFEE6" unicode="&#x646;" horiz-adv-x="1474" arabic-form="final" 
d="M625 942q27 0 51.5 -18.5t28.5 -42.5q4 -28 -11 -46t-43 -18q-24 0 -46.5 18.5t-26.5 45.5q-5 25 9 43t38 18zM1618 68q14 0 26 -10t15 -25q3 -13 -5 -23t-22 -10h-82q-77 0 -150.5 42.5t-113.5 109.5l96 -453q8 -40 -15 -68t-64 -28h-496q-188 0 -347.5 131.5
t-199.5 318.5l-55 260h65l56 -260q34 -159 171 -272t296 -113h473q23 0 36.5 15.5t10.5 37.5l-246 1145h68l116 -551q22 -104 104.5 -175.5t178.5 -71.5h84z" />
    <glyph glyph-name="uniFEE7" unicode="&#x646;" horiz-adv-x="561" arabic-form="initial" 
d="M236 1221q26 0 49 -18.5t28 -43.5q4 -28 -10.5 -45.5t-42.5 -17.5q-24 0 -47 18t-27 45q-5 25 10 43.5t40 18.5zM274 0h-124q-15 0 -28 9.5t-16 21.5q-3 15 6 26t23 11h125q78 0 123.5 55t28.5 131l-138 649h66l137 -649q22 -104 -38.5 -179t-164.5 -75z" />
    <glyph glyph-name="uniFEE8" unicode="&#x646;" horiz-adv-x="606" arabic-form="medial" 
d="M211 1096q26 0 49 -18.5t29 -43.5q4 -27 -11 -45t-42 -18q-26 0 -48 18t-26 45q-6 25 9 43.5t40 18.5zM748 68q14 0 27 -9.5t16 -23.5q3 -13 -6 -24t-23 -11h-90q-74 0 -143.5 40.5t-114.5 106.5q-14 -65 -67.5 -106t-127.5 -41h-72q-15 0 -26.5 9.5t-14.5 23.5
q-3 15 5 25t22 10h68q79 0 124.5 57.5t28.5 138.5l-98 453h68l98 -453q17 -82 86 -139t151 -57h89z" />
    <glyph glyph-name="uniFEEA" unicode="&#x647;" horiz-adv-x="1273" arabic-form="final" 
d="M1417 68q13 0 24.5 -10.5t16.5 -24.5q3 -12 -5.5 -22.5t-20.5 -10.5h-91q-109 0 -208.5 67.5t-147.5 170.5q-24 -106 -108 -172t-203 -66q-166 0 -310.5 118t-179.5 285l-24 109q-35 170 58.5 288t262.5 118h404l125 -590q25 -108 117 -184t200 -76h90zM662 68
q139 0 217 99t49 239l-97 444h-335q-140 0 -219 -98t-50 -240l23 -109q31 -140 151 -237.5t261 -97.5z" />
    <glyph glyph-name="uniFEEB" unicode="&#x647;" horiz-adv-x="1429" arabic-form="initial" 
d="M754 1014q219 -65 383 -241t213 -404l53 -258q9 -45 -14.5 -78t-67.5 -33h-1190l-14 68h334q-97 42 -169.5 128.5t-95.5 190.5q-32 155 55.5 264t243.5 109q159 0 295 -113t170 -272l58 -269q6 -22 -4 -38h294q22 0 33 14.5t6 36.5l-53 250q-43 202 -190 362t-342 217
q-199 62 -375 62l-8 65q191 -5 385 -61zM500 692q-129 0 -203 -90t-47 -221q29 -132 139.5 -222.5t237.5 -90.5h286q14 0 24 9t7 23l-59 279q-28 128 -141.5 220.5t-243.5 92.5z" />
    <glyph glyph-name="uniFEEC" unicode="&#x647;" horiz-adv-x="1259" arabic-form="medial" 
d="M1157 68h262l13 -68h-240l12 -47q37 -175 -61 -295.5t-279 -120.5q-174 0 -326.5 122t-193.5 294l-10 47h-203l-14 66h200l-81 380q-37 177 53.5 307t253.5 138q180 9 340 -117q152 -121 194 -305q26 -129 -16.5 -237t-141.5 -170t-233 -62h-285l13 -47q34 -146 161 -248
t275 -102q151 0 235 104.5t52 253.5l-15 64q-3 19 8.5 31t26.5 12zM303 446l82 -380h287q111 0 197 52t125.5 145.5t15.5 205.5q-30 156 -164 258q-128 105 -285 98q-90 -5 -157 -57.5t-94 -138t-7 -183.5z" />
    <glyph glyph-name="uniFEEE" unicode="&#x648;" horiz-adv-x="1089" arabic-form="final" 
d="M1073 0l10 -49q43 -188 -57 -303q-72 -87 -193 -119.5t-313 -32.5l-12 68q31 -1 54.5 -1.5t89 4t116 16.5t109 41t94.5 71q78 90 47 244l-12 61h-312q-185 0 -332.5 132.5t-187.5 324.5q-27 127 4 232.5t115.5 167t206.5 61.5h381l178 -850h188l15 -68h-189zM993 68
l-166 780h-313q-157 0 -232.5 -112t-41.5 -279q36 -164 160 -276.5t280 -112.5h313z" />
    <glyph glyph-name="uniFEF0" unicode="&#x649;" horiz-adv-x="1798" arabic-form="final" 
d="M1939 68q14 0 27 -9.5t16 -23.5q3 -13 -5.5 -24t-22.5 -11q-174 0 -340 39q58 -43 97.5 -103.5t51.5 -125.5q29 -135 -46 -231.5t-210 -96.5h-653q-203 0 -378 143.5t-218 345.5l-61 291h69l60 -291q25 -115 102.5 -212t187 -153.5t224.5 -56.5h653q106 0 166 77t37 184
q-19 89 -86.5 162t-159.5 102l-258 94l16 63q167 -65 211 -79q263 -84 520 -84z" />
    <glyph glyph-name="uniFEF2" unicode="&#x64a;" horiz-adv-x="1798" arabic-form="final" 
d="M1939 68q14 0 27 -9.5t16 -23.5q3 -13 -5.5 -24t-22.5 -11q-174 0 -340 39q58 -43 97.5 -103.5t51.5 -125.5q29 -135 -46 -231.5t-210 -96.5h-653q-203 0 -378 143.5t-218 345.5l-61 291h69l60 -291q25 -115 102.5 -212t187 -153.5t224.5 -56.5h653q106 0 166 77t37 184
q-19 89 -86.5 162t-159.5 102l-258 94l16 63q167 -65 211 -79q263 -84 520 -84zM1057 -674q26 0 50 -18t28 -43q6 -27 -9.5 -45.5t-42.5 -18.5q-25 0 -47 18.5t-28 45.5q-5 25 9.5 43t39.5 18zM1286 -674q26 0 50 -18t28 -43q6 -27 -9 -45.5t-42 -18.5q-25 0 -47.5 18.5
t-28.5 45.5q-5 25 9.5 43t39.5 18z" />
    <glyph glyph-name="uniFEF3" unicode="&#x64a;" horiz-adv-x="649" arabic-form="initial" 
d="M391 0h-241q-15 0 -28 9.5t-16 21.5q-3 15 6 26t23 11h242q78 0 123 55t28 131l-137 649h66l137 -649q22 -104 -38.5 -179t-164.5 -75zM408 -254q26 0 49.5 -18t27.5 -43q6 -26 -9.5 -45t-41.5 -19q-25 0 -47.5 19t-28.5 45q-4 25 10.5 43t39.5 18zM635 -254q28 0 52 -18
t28 -43q6 -26 -9.5 -45t-41.5 -19q-25 0 -47.5 19t-28.5 45q-4 25 10 43t37 18z" />
    <glyph glyph-name="uniFEF4" unicode="&#x64a;" horiz-adv-x="669" arabic-form="medial" 
d="M811 68q14 0 26.5 -9t16.5 -24q3 -13 -7 -24t-22 -11h-114q-75 0 -144.5 40.5t-113.5 106.5q-15 -65 -69 -106t-128 -41h-109q-15 0 -26.5 10t-14.5 25q-3 13 5 23t22 10h105q80 0 125 57.5t28 138.5l-98 459h67l99 -459q17 -81 87 -138.5t150 -57.5h115zM406 -254
q26 0 49.5 -18t27.5 -43q6 -26 -9.5 -45t-41.5 -19q-25 0 -47.5 19t-28.5 45q-4 25 10.5 43t39.5 18zM635 -254q26 0 50 -18t28 -43q6 -26 -9.5 -45t-41.5 -19q-25 0 -47.5 19t-28.5 45q-5 25 9.5 43t39.5 18z" />
    <glyph glyph-name=".notdef" horiz-adv-x="972" 
d="M799 1434v-1946h-619v1946h619zM647 1303h-319v-64h125v-72h-127v-63h321v63h-127v72h127v64zM520 1053h-194v-203h321v65h-127v138zM453 987v-72h-64v72h64zM647 797h-321v-64h127v-71h-127v-64h194v135h127v64zM647 680h-63v-127h-258v-68h321v195zM647 442h-194v-108
h67v45h64v-92h-195v155h-63v-219h321v219zM647 106h-321v-219h321v219zM584 43v-92h-195v92h195zM647 -158h-321v-63h135l-135 -92v-64h321v64h-198l137 92h61v63z" />
    <glyph glyph-name=".null" horiz-adv-x="153" 
 />
    <glyph glyph-name="nonmarkingreturn" horiz-adv-x="682" 
 />
    <glyph glyph-name="CR" unicode="&#xd;" horiz-adv-x="503" 
 />
    <glyph glyph-name="space" unicode=" " horiz-adv-x="499" 
 />
    <glyph glyph-name="exclam" unicode="!" horiz-adv-x="552" 
d="M389 1434h78l-227 -1047h-68zM102 25q-14 12 -13.5 30t15.5 33q17 17 36.5 20t33.5 -10q13 -11 12 -30t-18 -33q-13 -17 -33 -19.5t-33 9.5z" />
    <glyph glyph-name="quotedbl" unicode="&#x22;" horiz-adv-x="667" 
d="M293 1458h78l-123 -536h-62zM612 1458h78l-123 -536h-61z" />
    <glyph glyph-name="numbersign" unicode="#" horiz-adv-x="1501" 
d="M1133 922l-168 -408h272l-12 -59h-285l-172 -424h-68l174 424h-460l-174 -424h-68l174 424h-268l12 59h279l170 408h-275l12 59h285l172 422h68l-172 -422h461l172 422h67l-172 -422h266l-12 -59h-278zM1065 922h-461l-168 -408h461z" />
    <glyph glyph-name="dollar" unicode="$" horiz-adv-x="1193" 
d="M1012 399q-34 -164 -173.5 -261.5t-346.5 -102.5l-29 -137h-45l28 137q-176 6 -280.5 84.5t-130.5 220.5l61 33q28 -128 120.5 -196.5t244.5 -74.5l127 594l-70 19q-182 46 -253.5 125t-43.5 209q34 157 171.5 252t344.5 98l29 137h45l-29 -137q154 -7 249 -71t120 -175
l-61 -37q-49 203 -322 215l-123 -575l88 -21q178 -45 242 -126.5t37 -209.5zM602 768l119 563q-173 -2 -284.5 -75.5t-139.5 -206.5q-24 -114 43 -173.5t262 -107.5zM508 102q172 3 286 82.5t142 212.5q27 120 -40.5 181t-264.5 108z" />
    <glyph glyph-name="percent" unicode="%" horiz-adv-x="1644" 
d="M434 797q-145 0 -219 92t-43 239q32 146 145 238t256 92q145 0 219 -92t42 -238q-30 -147 -143 -239t-257 -92zM1456 1434h76l-1344 -1434h-75zM446 854q119 0 209.5 75.5t116.5 198.5q26 121 -32 197t-177 76q-120 0 -210.5 -75.5t-116.5 -197.5q-26 -123 32 -198.5
t178 -75.5zM1071 -25q-145 0 -218 92.5t-42 239.5q31 145 143.5 237.5t255.5 92.5q145 0 219.5 -92t43.5 -238q-30 -146 -144 -239t-258 -93zM1081 33q120 0 211 75.5t117 198.5q26 121 -32 197t-177 76q-120 0 -210 -75.5t-116 -197.5q-26 -123 31 -198.5t176 -75.5z" />
    <glyph glyph-name="ampersand" unicode="&#x26;" horiz-adv-x="1368" 
d="M1038 0l-125 186q-202 -211 -477 -211q-195 0 -294 102t-62 267q26 124 124.5 217t319.5 209q-98 149 -125.5 226t-9.5 161q27 128 139.5 214.5t268.5 86.5q155 0 229.5 -86t46.5 -215q-24 -113 -122 -199t-330 -206l305 -463q126 157 198 409h70q-82 -279 -231 -462
l157 -236h-82zM457 1155q-15 -76 13 -147t120 -211q221 115 307.5 188t106.5 168q24 107 -39.5 175.5t-180.5 68.5q-118 0 -210 -67.5t-117 -174.5zM453 41q246 0 426 195l-322 485q-203 -104 -290.5 -186t-110.5 -189q-31 -137 52 -221t245 -84z" />
    <glyph glyph-name="quotesingle" unicode="'" horiz-adv-x="348" 
d="M293 1458h78l-123 -536h-62z" />
    <glyph glyph-name="parenleft" unicode="(" horiz-adv-x="620" 
d="M281 -260q-115 182 -149 419t18 480q53 245 187 481t325 418l49 -37q-181 -173 -310 -402t-176 -460q-50 -229 -18.5 -459.5t139.5 -402.5z" />
    <glyph glyph-name="parenright" unicode=")" horiz-adv-x="620" 
d="M438 639q-53 -246 -186 -481.5t-324 -417.5l-51 37q179 171 307.5 400.5t180.5 461.5q48 227 16.5 459t-137.5 403l65 37q115 -182 148.5 -418.5t-19.5 -480.5z" />
    <glyph glyph-name="asterisk" unicode="*" horiz-adv-x="917" 
d="M569 1040l154 -282l-57 -39l-146 293l-268 -293l-41 37l274 286l-319 105l33 59l313 -114l72 356h61l-80 -356l363 114l6 -59z" />
    <glyph glyph-name="plus" unicode="+" horiz-adv-x="1454" 
d="M1141 616h-400l-90 -423h-69l88 423h-400l15 66h401l90 424h70l-88 -424h397z" />
    <glyph glyph-name="comma" unicode="," horiz-adv-x="391" 
d="M86 233h74l-221 -540h-62z" />
    <glyph glyph-name="hyphen" unicode="-" horiz-adv-x="827" 
d="M104 623h580l-16 -66h-578z" />
    <glyph glyph-name="period" unicode="." horiz-adv-x="452" 
d="M51 25q-12 12 -11.5 30t15.5 33q17 17 35.5 20t32.5 -10q14 -12 13.5 -30t-17.5 -33q-15 -17 -35 -19.5t-33 9.5z" />
    <glyph glyph-name="slash" unicode="/" horiz-adv-x="903" 
d="M965 1516h71l-1120 -1709h-74z" />
    <glyph glyph-name="zero" unicode="0" horiz-adv-x="1425" 
d="M555 -25q-162 0 -267.5 93.5t-135.5 258.5t14 390q71 333 264.5 537t439.5 204q163 0 268.5 -93.5t135.5 -258t-14 -389.5q-71 -334 -264.5 -538t-440.5 -204zM571 45q211 0 378.5 185t232.5 487q40 204 15.5 353.5t-114 234t-227.5 84.5q-211 0 -379 -185t-231 -487
q-40 -204 -16 -353.5t113 -234t228 -84.5z" />
    <glyph glyph-name="one" unicode="1" horiz-adv-x="851" 
d="M754 1434l-303 -1434h-76l287 1352l-420 4l14 78h498z" />
    <glyph glyph-name="two" unicode="2" horiz-adv-x="1191" 
d="M936 70l-14 -70h-969l12 57l717 557q170 133 253 239t105 212q32 151 -46.5 237.5t-235.5 86.5q-145 0 -276 -82.5t-234 -247.5l-55 33q107 180 260 273t321 93q188 0 284.5 -109t59.5 -282q-25 -117 -114.5 -232t-264.5 -253l-657 -512h854z" />
    <glyph glyph-name="three" unicode="3" horiz-adv-x="1146" 
d="M711 731q154 -33 217 -122.5t33 -225.5q-38 -181 -197.5 -294.5t-372.5 -113.5q-146 0 -258 56t-168 164l58 47q51 -98 150 -147.5t230 -49.5q187 0 318.5 93.5t163.5 250.5q32 153 -69 232t-337 79h-96l16 70h183q176 0 289 80.5t141 218.5q32 145 -48.5 232.5
t-246.5 87.5q-137 0 -261 -61t-216 -171l-45 43q102 124 242 191t296 67q201 0 297.5 -107.5t59.5 -275.5q-28 -135 -127.5 -226.5t-251.5 -117.5z" />
    <glyph glyph-name="four" unicode="4" horiz-adv-x="1239" 
d="M111 416h718l129 618h74l-129 -618h230l-15 -66h-229l-74 -350h-76l74 350h-803l17 66l1013 1018l52 -41z" />
    <glyph glyph-name="five" unicode="5" horiz-adv-x="1185" 
d="M655 881q206 0 307.5 -118t59.5 -319q-44 -210 -209.5 -339.5t-394.5 -129.5q-287 0 -416 207l57 49q55 -92 151.5 -139t221.5 -47q193 0 334 105.5t180 291.5q37 176 -47 275.5t-268 99.5q-195 0 -395 -137h-58l160 754h823l-14 -68h-752l-131 -610q196 125 391 125z
" />
    <glyph glyph-name="six" unicode="6" horiz-adv-x="1216" 
d="M674 954q223 0 337 -130.5t66 -356.5q-50 -228 -220 -360t-394 -132q-108 0 -194.5 33t-141.5 96t-74 154.5t6 208.5q25 116 80.5 204t194.5 251l436 512h90l-493 -568q138 88 307 88zM477 41q195 0 337.5 114t184.5 312q41 197 -53 310.5t-287 113.5q-195 0 -338 -113.5
t-184 -310.5q-42 -198 52 -312t288 -114z" />
    <glyph glyph-name="seven" unicode="7" horiz-adv-x="1058" 
d="M1153 1434l-12 -64l-961 -1370h-84l957 1364h-858l14 70h944z" />
    <glyph glyph-name="eight" unicode="8" horiz-adv-x="1280" 
d="M809 737q148 -31 220.5 -132t43.5 -236q-38 -177 -200.5 -285.5t-389.5 -108.5q-229 0 -346 108.5t-80 285.5q31 135 147 236t277 132q-131 31 -194 125.5t-37 220.5q37 169 187.5 272t361.5 103q210 0 317 -103.5t70 -271.5q-26 -125 -130 -220t-247 -126zM324 1079
q-29 -141 60.5 -226t266.5 -85q179 0 304.5 85t154.5 226t-60 227.5t-266 86.5q-178 0 -303.5 -86t-156.5 -228zM498 43q194 0 330 90.5t167 239.5q34 149 -65 239t-293 90t-331 -90t-169 -239t67.5 -239.5t293.5 -90.5z" />
    <glyph glyph-name="nine" unicode="9" horiz-adv-x="1218" 
d="M543 479q-221 0 -335.5 132t-66.5 358q32 152 123 264t217 168.5t273 56.5q109 0 195 -32.5t141 -95t73.5 -153.5t-6.5 -208q-23 -109 -84 -214.5t-188 -242.5l-479 -510h-91l535 565q-138 -88 -307 -88zM739 1395q-193 0 -335.5 -114.5t-184.5 -311.5t51.5 -311.5
t286.5 -114.5q195 0 338 114.5t184 311.5q42 197 -52 311.5t-288 114.5z" />
    <glyph glyph-name="colon" unicode=":" horiz-adv-x="462" 
d="M256 811q-28 0 -42.5 18.5t-8.5 47.5t28 46t50 17q30 0 44.5 -17t8.5 -46q-8 -30 -29.5 -48t-50.5 -18zM84 -4q-29 0 -43.5 18t-9.5 47q7 29 29.5 47.5t50.5 18.5q29 0 43 -18.5t8 -47.5q-4 -29 -26 -47t-52 -18z" />
    <glyph glyph-name="semicolon" unicode=";" horiz-adv-x="413" 
d="M219 838q-13 13 -12.5 32t16.5 33q36 36 66 10q14 -13 14.5 -30t-16.5 -35q-40 -35 -68 -10zM86 233h74l-221 -540h-62z" />
    <glyph glyph-name="less" unicode="&#x3c;" horiz-adv-x="1454" 
d="M1217 977l-852 -328l714 -327l-16 -72l-793 362l15 74l948 363z" />
    <glyph glyph-name="equal" unicode="=" horiz-adv-x="1454" 
d="M332 907h870l-12 -65h-871zM236 457h870l-12 -66h-871z" />
    <glyph glyph-name="greater" unicode="&#x3e;" horiz-adv-x="1454" 
d="M1155 686l-14 -74l-948 -362l16 72l852 327l-715 328l16 72z" />
    <glyph glyph-name="question" unicode="?" horiz-adv-x="921" 
d="M348 528q23 101 59.5 149.5t151.5 131.5l119 82q155 111 186 252q24 117 -41 182.5t-190 65.5q-122 0 -236 -63.5t-192 -180.5l-51 35q89 132 218.5 204t274.5 72q160 0 240.5 -84.5t50.5 -228.5q-19 -87 -76 -162t-162 -149l-114 -82q-90 -64 -118.5 -104t-45.5 -124
l-29 -137h-74zM252 25q-14 12 -13.5 30t15.5 33q17 17 36.5 20t33.5 -10q13 -12 11.5 -30t-18.5 -33q-13 -17 -32.5 -19.5t-32.5 9.5z" />
    <glyph glyph-name="at" unicode="@" horiz-adv-x="1937" 
d="M1126 1317q172 0 310.5 -56.5t225.5 -160.5t119.5 -252.5t-7.5 -331.5q-48 -221 -163.5 -350t-252.5 -129q-90 0 -139.5 59.5t-36.5 173.5q-61 -108 -169.5 -170.5t-228.5 -62.5q-179 0 -260 114t-41 304q38 176 171 295.5t309 119.5q117 0 197.5 -60t92.5 -161l43 195
h62l-111 -520q-23 -110 11 -169t112 -59q107 0 199.5 111.5t134.5 304.5q37 179 8 317t-111.5 232.5t-207.5 143t-281 48.5q-228 0 -430 -102t-341 -284t-187 -412q-49 -229 14.5 -407t224.5 -275t393 -97q247 0 431 91l16 -56q-91 -45 -213 -71.5t-250 -26.5
q-188 -1 -336.5 60.5t-237 173t-121.5 266.5t9 342q51 247 204 444.5t373 307.5t465 110zM803 96q137 0 257 99.5t154 259.5q34 161 -43.5 260.5t-216.5 99.5q-143 0 -254 -104t-143 -256q-37 -165 30.5 -262t215.5 -97z" />
    <glyph glyph-name="A" unicode="A" horiz-adv-x="1363" 
d="M1001 416l-765 2l-265 -418h-82l910 1434h67l305 -1434h-81zM989 483l-176 856l-537 -856h713z" />
    <glyph glyph-name="B" unicode="B" horiz-adv-x="1417" 
d="M993 741q120 -31 179 -129t32 -227q-24 -112 -97.5 -201t-174 -136.5t-209.5 -47.5h-635l303 1434h600q162 0 249.5 -102.5t53.5 -254.5q-23 -114 -103.5 -203.5t-197.5 -132.5zM451 1366l-129 -600l524 -2q127 0 235 87.5t136 211.5q26 129 -45 216t-197 87h-524z
M737 68q135 0 247.5 92t141.5 227q28 130 -46 221.5t-208 91.5h-563l-135 -632h563z" />
    <glyph glyph-name="C" unicode="C" horiz-adv-x="1595" 
d="M711 -25q-208 0 -351 96t-197.5 265t-8.5 381q45 211 171 380t310 265t391 96q214 0 354 -98t181 -277l-72 -32q-40 151 -165 243t-314 92q-183 0 -346.5 -86t-277 -239t-155.5 -344q-41 -192 8 -345t176.5 -239t311.5 -86q195 0 354 86t265 248l59 -35
q-120 -180 -298.5 -275.5t-395.5 -95.5z" />
    <glyph glyph-name="D" unicode="D" horiz-adv-x="1554" 
d="M846 1434q209 0 352 -90.5t197.5 -253.5t9.5 -373q-69 -323 -304.5 -520t-557.5 -197h-455l303 1434h455zM551 72q291 0 502.5 176.5t273.5 468.5q63 292 -73.5 468.5t-426.5 176.5h-374l-277 -1290h375z" />
    <glyph glyph-name="E" unicode="E" horiz-adv-x="1284" 
d="M991 72l-14 -72h-887l303 1434h867l-15 -70h-790l-140 -649h762l-14 -68h-762l-123 -575h813z" />
    <glyph glyph-name="F" unicode="F" horiz-adv-x="1236" 
d="M455 1364l-144 -666h758l-14 -71h-758l-131 -627h-76l303 1434h862l-14 -70h-786z" />
    <glyph glyph-name="G" unicode="G" horiz-adv-x="1646" 
d="M1483 715l-109 -514q-153 -119 -311 -173.5t-354 -54.5q-209 4 -351.5 100.5t-196.5 264t-9 377.5q45 211 171 380t310 265t391 96q210 0 349.5 -95t185.5 -267l-76 -37q-38 159 -160 243t-315 84q-183 0 -347 -86t-277.5 -239t-154.5 -344t7 -342t175 -237.5t312 -90.5
q169 0 310.5 43t275.5 143l88 414h-422l14 70h494z" />
    <glyph glyph-name="H" unicode="H" horiz-adv-x="1581" 
d="M1491 1434l-303 -1434h-74l133 631h-948l-133 -631h-76l303 1434h76l-156 -732h949l155 732h74z" />
    <glyph glyph-name="I" unicode="I" horiz-adv-x="565" 
d="M397 1434h76l-303 -1434h-76z" />
    <glyph glyph-name="J" unicode="J" horiz-adv-x="1204" 
d="M369 -27q-124 0 -216.5 60.5t-132.5 164.5t-16 226l82 29l-6 -23q-32 -157 57 -269t248 -112q158 0 293.5 112t169.5 269l213 1004h74l-213 -1002q-25 -125 -108.5 -230.5t-202 -167t-242.5 -61.5z" />
    <glyph glyph-name="K" unicode="K" horiz-adv-x="1282" 
d="M1389 1434l-996 -732l684 -702h-98l-649 653l-33 -26l-131 -627h-76l303 1434h76l-150 -711l971 711h99z" />
    <glyph glyph-name="L" unicode="L" horiz-adv-x="1208" 
d="M985 72l-14 -72h-881l303 1434h76l-291 -1362h807z" />
    <glyph glyph-name="M" unicode="M" horiz-adv-x="1921" 
d="M1831 1434l-303 -1434h-74l277 1303l-893 -1303h-80l-318 1305l-276 -1303h-74l303 1432h90l332 -1352l936 1352h80z" />
    <glyph glyph-name="N" unicode="N" horiz-adv-x="1613" 
d="M1526 1434l-303 -1434h-72l-711 1305l-278 -1305h-74l303 1434h70l713 -1307l276 1307h76z" />
    <glyph glyph-name="O" unicode="O" horiz-adv-x="1759" 
d="M723 -25q-200 0 -346 98.5t-206 269t-17 374.5q32 152 118.5 289t204 236t264.5 157.5t297 58.5q120 0 223.5 -37.5t177 -104.5t122.5 -160t59 -203.5t-14 -235.5q-43 -204 -175.5 -374.5t-320 -269t-387.5 -98.5zM739 47q177 0 345.5 89.5t288 243.5t157.5 337
t-15.5 336.5t-184 243t-308.5 89.5t-346.5 -89.5t-288 -243t-158.5 -336.5q-38 -183 16 -337t185 -243.5t309 -89.5z" />
    <glyph glyph-name="P" unicode="P" horiz-adv-x="1374" 
d="M979 1434q180 0 279 -127t61 -308q-41 -193 -193 -319.5t-333 -126.5h-512l-115 -553h-76l303 1434h586zM801 625q153 0 279.5 107t160.5 267q34 151 -49 258t-234 107h-503l-158 -739h504z" />
    <glyph glyph-name="Q" unicode="Q" horiz-adv-x="1763" 
d="M1610 717q-38 -179 -148.5 -334t-267.5 -256l135 -229l-61 -41l-138 231q-199 -113 -407 -113q-201 0 -347 100t-205 270t-17 372q33 151 118 288t202.5 236.5t265 158t298.5 58.5q118 0 221.5 -37.5t178 -105t124.5 -160.5t61 -203.5t-13 -234.5zM739 47q179 0 355 100
l-140 236l60 41l145 -238q139 91 238.5 230.5t134.5 300.5q39 182 -15.5 337t-185.5 245t-307 90q-178 0 -346.5 -90t-288 -244.5t-158.5 -337.5q-21 -112 -12 -211.5t52 -183.5t109 -145t158.5 -95.5t200.5 -34.5z" />
    <glyph glyph-name="R" unicode="R" horiz-adv-x="1394" 
d="M668 594h-379l-125 -586h-74l301 1426h608q171 0 267 -123t61 -295q-37 -168 -177 -289t-306 -129h-86l354 -578l-82 -20zM303 666h528q142 0 264.5 102t153.5 248q31 142 -49 245t-221 103h-526z" />
    <glyph glyph-name="S" unicode="S" horiz-adv-x="1261" 
d="M496 -25q-204 0 -326 86t-152 246l66 35q68 -297 428 -297q198 0 327 87.5t160 236.5q25 115 -36.5 185.5t-235.5 113.5l-184 45q-200 51 -275.5 137t-44.5 227q36 174 186 277.5t377 103.5q185 0 300 -71t143 -199l-66 -39q-59 240 -393 240q-193 0 -315 -81t-154 -231
q-24 -112 37 -180.5t244 -114.5l192 -47q193 -50 263 -137.5t40 -224.5q-37 -183 -193.5 -290.5t-387.5 -107.5z" />
    <glyph glyph-name="T" unicode="T" horiz-adv-x="1261" 
d="M733 1362h-536l14 72h1143l-15 -72h-530l-289 -1362h-76z" />
    <glyph glyph-name="U" unicode="U" horiz-adv-x="1562" 
d="M633 -25q-118 0 -210.5 35.5t-153 105.5t-80.5 173t8 239l192 906h76l-195 -910q-24 -120 -7 -209.5t70.5 -149t133 -89t180.5 -29.5q139 0 256 51.5t204 161t120 264.5l192 910h76l-192 -906q-37 -176 -138 -303t-237.5 -188.5t-294.5 -61.5z" />
    <glyph glyph-name="V" unicode="V" horiz-adv-x="1382" 
d="M1489 1434l-893 -1434h-98l-299 1434h82l282 -1350l844 1350h82z" />
    <glyph glyph-name="W" unicode="W" horiz-adv-x="2099" 
d="M2107 1434h78l-768 -1434h-96l-143 1290l-701 -1290h-90l-170 1434h78l158 -1338l731 1338h47l151 -1350z" />
    <glyph glyph-name="X" unicode="X" horiz-adv-x="1255" 
d="M961 0l-332 666l-635 -666h-90l690 723l-356 711h88l331 -662l596 662h86l-645 -717l355 -717h-88z" />
    <glyph glyph-name="Y" unicode="Y" horiz-adv-x="1286" 
d="M1413 1434l-762 -828l-127 -606h-75l126 606l-399 828h88l365 -754l694 752z" />
    <glyph glyph-name="Z" unicode="Z" horiz-adv-x="1232" 
d="M995 70l-14 -70h-1034l12 59l1198 1305h-901l14 70h1002l-12 -60l-1197 -1304h932z" />
    <glyph glyph-name="bracketleft" unicode="[" horiz-adv-x="745" 
d="M467 1450l-344 -1622h354l-14 -66h-426l373 1754h426l-15 -66h-354z" />
    <glyph glyph-name="backslash" unicode="\" horiz-adv-x="903" 
d="M602 -193l-395 1709h72l395 -1709h-72z" />
    <glyph glyph-name="bracketright" unicode="]" horiz-adv-x="745" 
d="M676 1516l-373 -1754h-426l12 66h355l344 1622h-355l17 66h426z" />
    <glyph glyph-name="asciicircum" unicode="^" horiz-adv-x="1093" 
d="M938 731l-264 584l-512 -584h-82l573 653h70l297 -653h-82z" />
    <glyph glyph-name="underscore" unicode="_" horiz-adv-x="882" 
d="M-184 -150h882l-12 -61h-885z" />
    <glyph glyph-name="grave" unicode="`" horiz-adv-x="1269" 
d="M721 1196l-199 322h90l187 -322h-78z" />
    <glyph glyph-name="a" unicode="a" horiz-adv-x="1021" 
d="M793 0h-68l51 248q-64 -123 -186 -194.5t-277 -71.5q-166 0 -242 82t-46 221q39 193 256 271t563 30l22 106q30 146 -34 220.5t-207 74.5q-231 0 -381 -178l-39 41q175 199 436 199q175 0 253.5 -96.5t41.5 -266.5zM831 530q-200 30 -355 13.5t-254.5 -82.5t-121.5 -172
q-26 -117 37 -181.5t201 -64.5q179 0 307 104t166 285z" />
    <glyph glyph-name="b" unicode="b" horiz-adv-x="1302" 
d="M786 1053q144 0 243.5 -69.5t137 -192.5t4.5 -277q-51 -239 -220.5 -389t-393.5 -150q-154 0 -257.5 86t-125.5 228l-61 -287h-70l303 1432h72l-146 -693q78 139 217 225.5t297 86.5zM561 43q193 0 343 132t194 339t-50 338t-286 131q-191 0 -342.5 -132.5t-194.5 -336.5
q-44 -204 51 -337.5t285 -133.5z" />
    <glyph glyph-name="c" unicode="c" horiz-adv-x="1165" 
d="M475 -25q-226 0 -335 149.5t-58 387.5q50 235 224.5 388t395.5 153q143 0 243 -65.5t140 -186.5l-65 -37q-35 104 -121.5 161.5t-206.5 57.5q-195 0 -345 -131t-193 -340q-44 -206 49 -337.5t286 -131.5q122 0 236 59.5t193 165.5l49 -37q-92 -123 -220.5 -189.5
t-271.5 -66.5z" />
    <glyph glyph-name="d" unicode="d" horiz-adv-x="1302" 
d="M1262 1434l-304 -1432h-69l61 287q-84 -142 -224.5 -228t-295.5 -86q-224 0 -330 150.5t-53 388.5q50 234 221.5 386.5t390.5 152.5q157 0 259.5 -86.5t121.5 -225.5l148 693h74zM459 43q189 0 340 133.5t194 337.5t-52.5 336.5t-285.5 132.5q-192 0 -341 -131t-193 -338
t50.5 -339t287.5 -132z" />
    <glyph glyph-name="e" unicode="e" horiz-adv-x="1204" 
d="M143 506q-43 -207 51 -337t289 -130q124 0 238.5 57t196.5 160l40 -41q-91 -114 -220 -178t-269 -64q-226 0 -337 150.5t-60 388.5q49 234 224.5 385.5t397.5 151.5q219 0 312.5 -145t35.5 -398h-899zM682 987q-184 0 -329.5 -119t-196.5 -307h825q37 194 -44 310
t-255 116z" />
    <glyph glyph-name="f" unicode="f" horiz-adv-x="759" 
d="M356 958h-264l14 68h265l41 193q21 94 97 154.5t167 60.5h205l-15 -68h-198q-64 0 -117.5 -44.5t-67.5 -107.5l-41 -188h342l-14 -68h-342l-203 -958h-71z" />
    <glyph glyph-name="g" unicode="g" horiz-adv-x="1339" 
d="M1212 1030l-208 -975q-44 -213 -213 -357t-375 -144q-173 0 -281 76t-145 204l55 43q32 -116 128.5 -185t254.5 -69q113 0 219.5 55.5t183.5 156t103 224.5l53 246q-81 -139 -218 -223t-294 -84q-225 0 -333 147t-58 381q48 226 219 373.5t391 147.5q166 0 267.5 -85.5
t119.5 -218.5l62 287h69zM498 66q188 0 339.5 128.5t194.5 327.5q41 201 -56 329t-284 128q-193 0 -343 -128t-193 -329q-43 -203 52 -329.5t290 -126.5z" />
    <glyph glyph-name="h" unicode="h" horiz-adv-x="1234" 
d="M711 1044q112 0 195 -54t117.5 -147t10.5 -204l-133 -639h-74l131 627q32 147 -49.5 249.5t-228.5 102.5q-149 0 -274.5 -103t-157.5 -251l-131 -625h-74l303 1434h74l-133 -621q70 103 185 167t239 64z" />
    <glyph glyph-name="i" unicode="i" horiz-adv-x="464" 
d="M358 1303q-25 0 -38.5 17.5t-8.5 43.5q5 23 26 41t46 18q26 0 39 -17.5t8 -41.5q-4 -26 -25.5 -43.5t-46.5 -17.5zM264 1022h72l-217 -1022h-72z" />
    <glyph glyph-name="j" unicode="j" horiz-adv-x="464" 
d="M356 1309q-26 0 -40 16t-9 41q6 26 28 43.5t48 17.5q29 0 42 -17t7 -44q-6 -25 -27 -41t-49 -16zM-291 -344h105q66 0 120.5 45.5t67.5 112.5l258 1208h76l-260 -1217q-20 -92 -96 -154.5t-170 -62.5h-115z" />
    <glyph glyph-name="k" unicode="k" horiz-adv-x="1007" 
d="M733 0l-485 500l-35 -27l-98 -473h-72l303 1434h72l-185 -873l699 463h90l-707 -477l506 -547h-88z" />
    <glyph glyph-name="l" unicode="l" horiz-adv-x="452" 
d="M35 0l303 1434h74l-303 -1434h-74z" />
    <glyph glyph-name="m" unicode="m" horiz-adv-x="1882" 
d="M1393 1049q157 0 243 -110.5t52 -268.5l-142 -668h-76l140 655q29 135 -44.5 228.5t-205.5 93.5q-134 0 -247 -93.5t-142 -228.5l-140 -655h-71l139 655q29 135 -44.5 228.5t-207.5 93.5q-132 0 -245 -93.5t-142 -228.5l-139 -655h-74l217 1022h74l-41 -188
q66 96 168.5 154.5t214.5 58.5q121 0 205 -71.5t96 -180.5q63 110 176.5 181t235.5 71z" />
    <glyph glyph-name="n" unicode="n" horiz-adv-x="1226" 
d="M707 1049q168 0 262 -119t59 -285l-137 -645h-76l135 629q29 146 -50 248t-226 102q-146 0 -269.5 -102.5t-152.5 -247.5l-133 -629h-76l217 1024h74l-45 -213q70 107 183 172.5t235 65.5z" />
    <glyph glyph-name="o" unicode="o" horiz-adv-x="1290" 
d="M487 -25q-229 0 -342.5 150.5t-62.5 388.5q50 232 229 383.5t406 151.5q149 0 253.5 -69t145.5 -191t8 -275q-51 -231 -232 -385t-405 -154zM502 43q196 0 351 133t198 336q43 204 -55.5 338.5t-293.5 134.5q-196 0 -348.5 -133t-195.5 -340q-44 -207 52 -338t292 -131z
" />
    <glyph glyph-name="p" unicode="p" horiz-adv-x="1339" 
d="M786 1051q223 0 329.5 -150t55.5 -389q-34 -154 -123 -277t-218 -192.5t-273 -69.5q-158 0 -261 86.5t-122 225.5l-143 -684h-74l303 1423h70l-62 -287q83 142 223 228t295 86zM561 43q193 0 343 131t194 338t-50.5 339t-287.5 132q-190 0 -342 -133.5t-195 -337.5
t52.5 -336.5t285.5 -132.5z" />
    <glyph glyph-name="q" unicode="q" horiz-adv-x="1339" 
d="M1210 1024l-303 -1430h-71l145 691q-80 -140 -218 -226t-296 -86q-219 0 -327.5 152.5t-57.5 386.5q51 239 220.5 389t393.5 150q154 0 257.5 -86t125.5 -228l62 287h69zM492 43q190 0 342 132.5t196 336.5q43 204 -52.5 337.5t-285.5 133.5q-193 0 -342.5 -131.5
t-193.5 -339.5q-44 -207 50 -338t286 -131z" />
    <glyph glyph-name="r" unicode="r" horiz-adv-x="794" 
d="M700 1042q58 0 101 -14l-23 -70q-57 11 -102 11q-150 0 -275 -102.5t-157 -254.5l-129 -612h-72l217 1024h70l-47 -219q72 106 185 171.5t232 65.5z" />
    <glyph glyph-name="s" unicode="s" horiz-adv-x="1013" 
d="M369 -25q-149 0 -251 55t-136 150l53 45q34 -87 124.5 -136.5t221.5 -49.5q147 0 238 61.5t114 163.5q18 77 -24 124.5t-158 76.5l-205 51q-125 32 -173 94t-26 160q28 133 144 208t295 75q134 0 222.5 -44.5t119.5 -127.5l-54 -43q-65 151 -301 151q-149 0 -238.5 -57
t-111.5 -162q-17 -77 22.5 -123t155.5 -76l205 -51q130 -33 177.5 -95.5t25.5 -158.5q-28 -133 -144 -212t-296 -79z" />
    <glyph glyph-name="t" unicode="t" horiz-adv-x="796" 
d="M229 0q-40 0 -62.5 28t-14.5 68l182 862h-232l17 68h229l68 311h73l-67 -311h358l-14 -68h-358l-181 -858q-3 -13 4 -21.5t19 -8.5h328l-13 -70h-336z" />
    <glyph glyph-name="u" unicode="u" horiz-adv-x="1226" 
d="M1098 1024l-217 -1024h-74l45 211q-72 -106 -185.5 -171t-234.5 -65q-167 0 -260.5 118.5t-58.5 285.5l137 645h74l-134 -629q-31 -146 50.5 -248t226.5 -102q143 0 267.5 102t156.5 248l133 629h74z" />
    <glyph glyph-name="v" unicode="v" horiz-adv-x="1060" 
d="M1081 1024l-657 -1024h-80l-231 1024h80l208 -934l598 934h82z" />
    <glyph glyph-name="w" unicode="w" horiz-adv-x="1665" 
d="M1679 1028l-587 -1028h-80l-138 924l-526 -924h-80l-149 1028h74l137 -934l534 934h68l137 -934l533 934h77z" />
    <glyph glyph-name="x" unicode="x" horiz-adv-x="1009" 
d="M721 0l-272 475l-465 -475h-86l516 528l-277 494h82l256 -444l436 444h84l-485 -498l297 -524h-86z" />
    <glyph glyph-name="y" unicode="y" horiz-adv-x="1083" 
d="M1108 1028l-793 -1243q-58 -92 -148 -143.5t-192 -51.5h-163l14 70h158q82 0 153 40.5t115 113.5l119 180l-238 1034h82l209 -938l606 938h78z" />
    <glyph glyph-name="z" unicode="z" horiz-adv-x="993" 
d="M745 66l-14 -66h-778l10 51l868 912h-655l14 65h752l-12 -53l-869 -909h684z" />
    <glyph glyph-name="braceleft" unicode="{" horiz-adv-x="724" 
d="M381 842q-19 -90 -60 -138t-114 -65q66 -17 87 -65.5t1 -137.5l-84 -399q-26 -122 4 -165.5t135 -43.5h107l-15 -66h-120q-136 0 -177.5 58t-9.5 205l88 411q19 93 -9.5 131.5t-117.5 38.5h-14l14 66h17q88 0 131.5 39t64.5 131l88 411q32 148 97 205.5t200 57.5h121
l-14 -66h-107q-105 0 -153 -43.5t-74 -165.5z" />
    <glyph glyph-name="bar" unicode="|" horiz-adv-x="626" 
d="M461 1567h65l-376 -1772h-66z" />
    <glyph glyph-name="braceright" unicode="}" horiz-adv-x="724" 
d="M612 672l-16 -66h-16q-89 0 -133 -38.5t-64 -131.5l-88 -411q-31 -147 -96.5 -205t-200.5 -58h-121l12 66h107q105 0 154 43.5t75 165.5l86 399q19 89 60.5 137.5t113.5 65.5q-66 17 -87 65.5t-1 137.5l86 399q24 122 -6.5 165.5t-136.5 43.5h-107l17 66h121
q135 0 176.5 -58t9.5 -205l-88 -411q-19 -91 9.5 -130.5t117.5 -39.5h16z" />
    <glyph glyph-name="asciitilde" unicode="~" horiz-adv-x="1454" 
d="M524 674q-115 0 -262 -96l14 65q134 96 263 96q64 0 185 -56t181 -56q63 0 122.5 23t135.5 73l-12 -66q-143 -96 -258 -96q-55 0 -120 28.5t-129.5 56.5t-119.5 28z" />
    <glyph glyph-name="uni00A0" unicode="&#xa0;" horiz-adv-x="503" 
 />
    <glyph glyph-name="exclamdown" unicode="&#xa1;" horiz-adv-x="552" 
d="M365 1004q14 -12 13 -30.5t-18 -35.5q-15 -15 -34 -18.5t-31 8.5q-29 29 2 65q41 35 68 11zM295 641l-219 -1049h-78l229 1049h68z" />
    <glyph glyph-name="cent" unicode="&#xa2;" horiz-adv-x="1165" 
d="M1020 764q-34 100 -114.5 157.5t-192.5 61.5l-201 -940q116 6 223 65t183 160l49 -37q-89 -118 -210.5 -184t-258.5 -72l-47 -221h-41l47 221q-217 6 -321 155t-54 382q47 230 216.5 381.5t385.5 159.5l41 192h43l-41 -192q134 -6 227 -71t131 -181zM154 512
q-43 -201 45 -331.5t272 -137.5l199 940q-188 -9 -331.5 -139t-184.5 -332z" />
    <glyph glyph-name="sterling" unicode="&#xa3;" horiz-adv-x="1075" 
d="M184 70h693l-13 -70h-946l12 70h179l129 606h-185l13 61h184l69 332q39 183 162 286t297 103q134 0 223 -61.5t123 -179.5l-67 -35q-29 102 -104.5 153t-186.5 51q-144 0 -241 -82t-130 -237l-69 -330h540l-12 -61h-541z" />
    <glyph glyph-name="currency" unicode="&#xa4;" horiz-adv-x="1148" 
d="M979 705q-39 -161 -145 -267l102 -133l-47 -41l-105 133q-130 -102 -299 -102q-173 0 -254 104l-161 -135l-33 41l160 133q-63 116 -29 267q36 159 143 266l-102 133l49 41l102 -135q128 104 299 104q173 0 254 -104l162 135l33 -41l-160 -133q64 -118 31 -266zM498 358
q150 0 264.5 97t146.5 250t-40.5 249.5t-221.5 96.5t-264.5 -97t-146.5 -249q-32 -153 40.5 -250t221.5 -97z" />
    <glyph glyph-name="yen" unicode="&#xa5;" horiz-adv-x="1120" 
d="M610 655h367l-12 -55h-392l-53 -246h393l-12 -53h-391l-64 -301h-75l65 301h-389l10 53h389l52 246h-387l12 55h362l-305 779h82l293 -748l606 748h82z" />
    <glyph glyph-name="brokenbar" unicode="&#xa6;" horiz-adv-x="626" 
d="M461 1567h65l-147 -707h-68zM231 485h66l-147 -690h-66z" />
    <glyph glyph-name="section" unicode="&#xa7;" horiz-adv-x="1105" 
d="M633 303q118 -34 162.5 -99t21.5 -167q-28 -142 -146 -223.5t-306 -81.5q-154 0 -259.5 55.5t-136.5 149.5l51 45q36 -87 128.5 -136t230.5 -49q154 0 247 64t115 174q20 89 -23.5 140.5t-162.5 80.5l-205 51q-129 33 -182 102t-29 181q24 113 108 197t206 104
q-117 33 -162.5 96.5t-22.5 169.5q31 145 149.5 223t307.5 78q139 0 228 -44t118 -126l-53 -45q-65 152 -307 152q-316 0 -365 -238q-20 -90 21.5 -140t160.5 -79l205 -53q262 -67 213 -281q-24 -116 -108 -199.5t-205 -101.5zM213 598q-20 -96 26 -150.5t167 -85.5l61 -14
q160 -37 268 39.5t135 208.5q21 97 -24.5 150.5t-169.5 84.5l-60 15q-86 17 -154 5t-119.5 -50.5t-83.5 -90t-46 -112.5z" />
    <glyph glyph-name="dieresis" unicode="&#xa8;" horiz-adv-x="1269" 
d="M545 1303q-28 0 -41.5 17.5t-7.5 45.5q6 27 27 44t48 17q28 0 42 -17.5t8 -43.5q-4 -27 -26 -45t-50 -18zM975 1303q-28 0 -42 17.5t-9 45.5q6 26 27.5 43.5t49.5 17.5t42 -17.5t8 -43.5q-4 -27 -26 -45t-50 -18z" />
    <glyph glyph-name="copyright" unicode="&#xa9;" horiz-adv-x="1773" 
d="M729 -25q-123 -1 -229 37t-180.5 105.5t-124 160.5t-59.5 204t14 235q42 202 175 372.5t324 270t395 98.5q123 1 228.5 -36.5t180.5 -105t124.5 -161t60 -204t-13.5 -234.5q-33 -152 -119 -289t-205 -237t-268.5 -158.5t-302.5 -57.5zM737 25q192 -1 369.5 91.5
t300.5 251.5t164 349q22 116 13 220t-54 190.5t-114.5 149.5t-168 98t-213.5 34q-192 1 -369.5 -91.5t-299.5 -251.5t-162 -349q-41 -190 13.5 -349t192 -251.5t328.5 -91.5zM817 309q-177 0 -259.5 112.5t-43.5 295.5q38 183 168.5 295t308.5 112q111 0 187 -46t102 -136
l-57 -31q-20 73 -86.5 113.5t-159.5 40.5q-143 0 -253.5 -95t-143.5 -253q-35 -158 35.5 -253t213.5 -95q94 0 176.5 40t137.5 115l43 -30q-66 -90 -162.5 -137.5t-206.5 -47.5z" />
    <glyph glyph-name="guillemotleft" unicode="&#xab;" horiz-adv-x="954" 
d="M125 514l205 -424h-82l-207 424l387 422h82zM512 514l205 -424h-82l-205 424l385 422h82z" />
    <glyph glyph-name="logicalnot" unicode="&#xac;" horiz-adv-x="1454" 
d="M1155 682l-63 -295h-70l47 229h-799l15 66h870z" />
    <glyph glyph-name="registered" unicode="&#xae;" horiz-adv-x="1187" 
d="M752 1460q123 0 213 -59.5t126.5 -161.5t10.5 -223q-38 -186 -195 -316.5t-344 -130.5q-123 0 -212.5 59.5t-126 162.5t-11.5 225q40 185 196 314.5t343 129.5zM571 608q170 0 310.5 118.5t175.5 289.5q35 170 -55 287.5t-259 117.5q-111 0 -214.5 -54t-175.5 -147
t-95 -204q-35 -171 54.5 -289.5t258.5 -118.5zM872 1116q-13 -66 -61.5 -102.5t-122.5 -38.5l119 -199h-51l-115 199h-111l-41 -199h-43l103 479h190q78 0 111.5 -36.5t21.5 -102.5zM539 1012h145q118 0 143 102q11 50 -14.5 76.5t-83.5 26.5h-145z" />
    <glyph glyph-name="macron" unicode="&#xaf;" horiz-adv-x="1300" 
d="M481 1339h602l-12 -63h-602z" />
    <glyph glyph-name="degree" unicode="&#xb0;" horiz-adv-x="745" 
d="M414 907q-121 0 -182.5 78.5t-38.5 196.5q26 119 121 197.5t216 78.5t183 -78.5t37 -197.5q-25 -118 -120 -196.5t-216 -78.5zM424 963q96 0 170 60.5t94 158.5q22 99 -26 160t-144 61q-95 0 -168.5 -61t-95.5 -160q-20 -98 28 -158.5t142 -60.5z" />
    <glyph glyph-name="plusminus" unicode="&#xb1;" horiz-adv-x="1454" 
d="M1157 696l-14 -67h-398l-83 -389h-70l82 389h-402l15 67h401l82 389h72l-84 -389h399zM154 68h870l-12 -68h-871z" />
    <glyph glyph-name="acute" unicode="&#xb4;" horiz-adv-x="1269" 
d="M1001 1518h89l-334 -322h-78z" />
    <glyph glyph-name="uni00B5" unicode="&#xb5;" horiz-adv-x="1243" 
d="M1114 1028l-217 -1028h-70l52 240q-62 -123 -182 -194t-269 -71q-242 0 -276 193l-132 -619h-73l313 1479h74l-133 -618q-76 -367 241 -367q174 0 303.5 103.5t169.5 287.5l125 594h74z" />
    <glyph glyph-name="paragraph" unicode="&#xb6;" horiz-adv-x="1298" 
d="M563 850h-41q-179 0 -256.5 82.5t-48.5 210.5q26 128 142 209.5t309 81.5h88l-361 -1700h-69zM1100 1434h69l-360 -1700h-70z" />
    <glyph glyph-name="cedilla" unicode="&#xb8;" horiz-adv-x="1269" 
d="M469 10h68l-220 -411h-73z" />
    <glyph glyph-name="guillemotright" unicode="&#xbb;" horiz-adv-x="954" 
d="M356 514l-206 422h83l207 -422l-387 -424h-84zM827 514l-387 -424h-84l389 424l-206 422h82z" />
    <glyph glyph-name="questiondown" unicode="&#xbf;" horiz-adv-x="921" 
d="M586 1004q14 -12 13.5 -30.5t-17.5 -35.5q-15 -15 -34.5 -18.5t-33.5 8.5q-27 27 2 65q42 36 70 11zM485 500q-20 -101 -57 -150t-154 -131l-114 -82q-159 -114 -189 -252q-24 -118 41.5 -184t190.5 -66q122 0 236 64t192 182l51 -35q-87 -132 -217.5 -205t-276.5 -73
q-159 0 -239.5 85.5t-50.5 229.5q19 86 75.5 161.5t161.5 150.5l115 81q90 64 118.5 103t45.5 123l30 139h74z" />
    <glyph glyph-name="Agrave" unicode="&#xc0;" horiz-adv-x="1388" 
d="M823 1604l-139 321h82l135 -321h-78zM1001 416l-765 2l-265 -418h-82l910 1434h67l305 -1434h-81zM989 483l-176 856l-537 -856h713z" />
    <glyph glyph-name="Aacute" unicode="&#xc1;" horiz-adv-x="1388" 
d="M903 1604h-78l271 321h82zM1001 416l-765 2l-265 -418h-82l910 1434h67l305 -1434h-81zM989 483l-176 856l-537 -856h713z" />
    <glyph glyph-name="Acircumflex" unicode="&#xc2;" horiz-adv-x="1388" 
d="M639 1604h-78l354 321h76l217 -321h-78l-186 274zM1001 416l-765 2l-265 -418h-82l910 1434h67l305 -1434h-81zM989 483l-176 856l-537 -856h713z" />
    <glyph glyph-name="Atilde" unicode="&#xc3;" horiz-adv-x="1388" 
d="M899 1739q-29 37 -55 52t-60 15q-45 0 -80 -37t-47 -102h-61q20 92 72.5 145.5t119.5 53.5q78 0 148 -84q32 -38 57.5 -53t59.5 -15q45 0 80.5 37.5t48.5 103.5h59q-20 -93 -72 -146.5t-118 -53.5q-79 0 -152 84zM1001 416l-765 2l-265 -418h-82l910 1434h67l305 -1434
h-81zM989 483l-176 856l-537 -856h713z" />
    <glyph glyph-name="Adieresis" unicode="&#xc4;" horiz-adv-x="1388" 
d="M692 1708q-26 0 -40 19t-7 45q5 26 26.5 44.5t49.5 18.5q26 0 40 -18t9 -45q-6 -27 -28.5 -45.5t-49.5 -18.5zM1122 1708q-26 0 -40.5 19t-8.5 45q4 26 27 44.5t49 18.5t41 -18.5t10 -44.5q-6 -26 -29 -45t-49 -19zM1001 416l-765 2l-265 -418h-82l910 1434h67l305 -1434
h-81zM989 483l-176 856l-537 -856h713z" />
    <glyph glyph-name="Aring" unicode="&#xc5;" horiz-adv-x="1388" 
d="M856 1645q-75 15 -103 77.5t5 137.5q32 75 104.5 115t147.5 26q76 -15 103.5 -77.5t-5.5 -137.5q-32 -75 -103.5 -115t-148.5 -26zM977 1972q-68 5 -121 -33t-72 -104q-22 -66 7.5 -111t97.5 -51q65 -6 118.5 32t75.5 105q19 66 -10.5 111t-95.5 51zM1001 416l-765 2
l-265 -418h-82l910 1434h67l305 -1434h-81zM989 483l-176 856l-537 -856h713z" />
    <glyph glyph-name="AE" unicode="&#xc6;" horiz-adv-x="2203" 
d="M1905 72l-15 -72h-946l84 403h-682l-371 -403h-92l1317 1434h973l-14 -72h-850l-127 -602h815l-17 -72h-815l-131 -616h871zM1042 471l191 899l-827 -899h636z" />
    <glyph glyph-name="Ccedilla" unicode="&#xc7;" horiz-adv-x="1593" 
d="M1010 1386q-183 0 -346.5 -86t-277 -239t-155.5 -344q-41 -192 8 -345t176.5 -239t311.5 -86q195 0 354 86t265 248l59 -35q-118 -178 -294 -273t-390 -98l-199 -376h-73l206 378q-191 13 -320.5 111t-177 262t-3.5 367q45 211 171 380t310 265t391 96q214 0 354 -98
t181 -277l-72 -32q-38 163 -161 249t-318 86z" />
    <glyph glyph-name="Egrave" unicode="&#xc8;" horiz-adv-x="1347" 
d="M913 1604l-139 321h82l133 -321h-76zM1036 72l-14 -72h-932l303 1434h912l-15 -70h-835l-140 -653h807l-14 -68h-807l-123 -571h858z" />
    <glyph glyph-name="Eacute" unicode="&#xc9;" horiz-adv-x="1347" 
d="M854 1604h-78l271 321h81zM1049 72l-15 -72h-946l303 1434h926l-14 -70h-848l-129 -608h811l-17 -70h-811l-131 -614h871z" />
    <glyph glyph-name="Ecircumflex" unicode="&#xca;" horiz-adv-x="1347" 
d="M1124 1604l-186 274l-303 -274h-80l354 321h76l217 -321h-78zM1036 72l-14 -72h-932l303 1434h912l-15 -70h-835l-140 -653h807l-14 -68h-807l-123 -571h858z" />
    <glyph glyph-name="Edieresis" unicode="&#xcb;" horiz-adv-x="1347" 
d="M639 1772q4 27 26 45t50 18q26 0 40 -17.5t9 -45.5q-6 -26 -28 -44t-48 -18q-28 0 -41.5 18t-7.5 44zM1067 1772q6 27 27.5 45t48.5 18q28 0 42 -17.5t9 -45.5q-6 -26 -29 -44t-49 -18t-40.5 18t-8.5 44zM1036 72l-14 -72h-932l303 1434h912l-15 -70h-835l-140 -653h807
l-14 -68h-807l-123 -571h858z" />
    <glyph glyph-name="Igrave" unicode="&#xcc;" horiz-adv-x="565" 
d="M436 1604l-145 321h88l135 -321h-78zM395 1434h78l-303 -1434h-78z" />
    <glyph glyph-name="Iacute" unicode="&#xcd;" horiz-adv-x="565" 
d="M700 1923h91l-285 -321h-76zM395 1434h78l-303 -1434h-78z" />
    <glyph glyph-name="Icircumflex" unicode="&#xce;" horiz-adv-x="565" 
d="M795 1604h-80l-185 274l-305 -274h-80l357 321h73zM395 1434h78l-303 -1434h-78z" />
    <glyph glyph-name="Idieresis" unicode="&#xcf;" horiz-adv-x="565" 
d="M279 1710q-28 0 -42 17t-8 45q4 27 26 45t50 18t41.5 -17.5t7.5 -45.5t-26.5 -45t-48.5 -17zM707 1710q-27 0 -40.5 17.5t-7.5 44.5q4 27 26 45t50 18q26 0 40 -17.5t9 -45.5q-6 -28 -27.5 -45t-49.5 -17zM395 1434h78l-303 -1434h-78z" />
    <glyph glyph-name="Eth" unicode="&#xd0;" horiz-adv-x="1589" 
d="M1440 717q-48 -227 -172.5 -390t-302.5 -245t-394 -82h-450l143 684h-225l14 66h228l143 684h450q329 0 483.5 -188t82.5 -529zM1360 717q66 313 -70 479t-430 166h-373l-131 -612h451l-16 -66h-449l-131 -612h375q292 0 499 167t275 478z" />
    <glyph glyph-name="Eth" unicode="&#xf0;" horiz-adv-x="1589" 
d="M1440 717q-48 -227 -172.5 -390t-302.5 -245t-394 -82h-450l143 684h-225l14 66h228l143 684h450q329 0 483.5 -188t82.5 -529zM1360 717q66 313 -70 479t-430 166h-373l-131 -612h451l-16 -66h-449l-131 -612h375q292 0 499 167t275 478z" />
    <glyph glyph-name="Ntilde" unicode="&#xd1;" horiz-adv-x="1615" 
d="M895 1806q-45 0 -80 -37t-47 -102h-59q18 92 71 145.5t119 53.5q78 0 148 -84q32 -38 58 -53t58 -15q46 0 81 37t48 104h60q-18 -93 -71.5 -146.5t-119.5 -53.5q-41 0 -76 19t-75 65q-29 37 -55 52t-60 15zM1528 1434l-303 -1434h-72l-713 1305l-278 -1305h-74l303 1434
h70l715 -1307l278 1307h74z" />
    <glyph glyph-name="Ograve" unicode="&#xd2;" horiz-adv-x="1742" 
d="M1053 1604l-140 321h82l133 -321h-75zM723 -25q-200 0 -346 98.5t-206 269t-17 374.5q32 152 118.5 289t204 236t264.5 157.5t297 58.5q120 0 223.5 -37.5t177 -104.5t122.5 -160t59 -203.5t-14 -235.5q-43 -204 -175.5 -374.5t-320 -269t-387.5 -98.5zM739 47
q177 0 345.5 89.5t288 243.5t157.5 337t-15.5 336.5t-184 243t-308.5 89.5t-346.5 -89.5t-288 -243t-158.5 -336.5q-38 -183 16 -337t185 -243.5t309 -89.5z" />
    <glyph glyph-name="Oacute" unicode="&#xd3;" horiz-adv-x="1742" 
d="M1092 1604h-78l270 321h82zM723 -25q-200 0 -346 98.5t-206 269t-17 374.5q32 152 118.5 289t204 236t264.5 157.5t297 58.5q120 0 223.5 -37.5t177 -104.5t122.5 -160t59 -203.5t-14 -235.5q-43 -204 -175.5 -374.5t-320 -269t-387.5 -98.5zM739 47q177 0 345.5 89.5
t288 243.5t157.5 337t-15.5 336.5t-184 243t-308.5 89.5t-346.5 -89.5t-288 -243t-158.5 -336.5q-38 -183 16 -337t185 -243.5t309 -89.5z" />
    <glyph glyph-name="Ocircumflex" unicode="&#xd4;" horiz-adv-x="1742" 
d="M815 1604h-80l355 321h75l217 -321h-77l-187 274zM723 -25q-200 0 -346 98.5t-206 269t-17 374.5q32 152 118.5 289t204 236t264.5 157.5t297 58.5q120 0 223.5 -37.5t177 -104.5t122.5 -160t59 -203.5t-14 -235.5q-43 -204 -175.5 -374.5t-320 -269t-387.5 -98.5z
M739 47q177 0 345.5 89.5t288 243.5t157.5 337t-15.5 336.5t-184 243t-308.5 89.5t-346.5 -89.5t-288 -243t-158.5 -336.5q-38 -183 16 -337t185 -243.5t309 -89.5z" />
    <glyph glyph-name="Otilde" unicode="&#xd5;" horiz-adv-x="1742" 
d="M1225 1655q-41 0 -76 19t-74 65q-31 37 -56.5 52t-57.5 15q-46 0 -81.5 -37t-48.5 -102h-59q18 92 71.5 145.5t119.5 53.5q77 0 147 -84q32 -38 58 -53t59 -15q46 0 81 37t48 104h59q-18 -93 -71 -146.5t-119 -53.5zM715 -25q-204 -1 -349 95.5t-202.5 267t-13.5 379.5
t174 379t316 266.5t390 95.5q122 1 225.5 -35.5t177 -102.5t121 -158.5t56 -204.5t-16.5 -240q-43 -209 -173 -379.5t-316 -267t-389 -95.5zM729 47q136 0 265.5 50.5t233 138.5t179 212.5t106.5 268.5q33 146 9 268.5t-89.5 211.5t-174 139t-244.5 50q-181 0 -346 -85.5
t-281.5 -238.5t-157.5 -345q-33 -146 -8 -269t90.5 -212t174 -139t243.5 -50z" />
    <glyph glyph-name="Odieresis" unicode="&#xd6;" horiz-adv-x="1742" 
d="M868 1710q-28 0 -41.5 18t-7.5 44q4 27 26 45t50 18q26 0 40 -17.5t9 -45.5q-6 -26 -28 -44t-48 -18zM1296 1710q-26 0 -40.5 18t-8.5 44q6 27 27.5 45t48.5 18q28 0 42 -17.5t9 -45.5q-6 -26 -29 -44t-49 -18zM723 -25q-200 0 -346 98.5t-206 269t-17 374.5
q32 152 118.5 289t204 236t264.5 157.5t297 58.5q120 0 223.5 -37.5t177 -104.5t122.5 -160t59 -203.5t-14 -235.5q-43 -204 -175.5 -374.5t-320 -269t-387.5 -98.5zM739 47q177 0 345.5 89.5t288 243.5t157.5 337t-15.5 336.5t-184 243t-308.5 89.5t-346.5 -89.5t-288 -243
t-158.5 -336.5q-38 -183 16 -337t185 -243.5t309 -89.5z" />
    <glyph glyph-name="multiply" unicode="&#xd7;" horiz-adv-x="1454" 
d="M760 649l260 -330l-59 -47l-259 330l-399 -330l-37 47l400 330l-260 330l59 47l258 -330l399 330l37 -47z" />
    <glyph glyph-name="Oslash" unicode="&#xd8;" horiz-adv-x="1742" 
d="M1593 717q-43 -209 -173 -379.5t-316 -267t-389 -95.5q-147 0 -265 52t-192 147l-205 -170l-37 47l205 168q-135 203 -71 498q44 209 174 379t316 266.5t390 95.5q294 0 457 -196l207 170l35 -46l-207 -169q134 -210 71 -500zM229 717q-55 -261 60 -445l1132 934
q-67 86 -171 133t-236 47q-181 0 -346 -85.5t-281.5 -238.5t-157.5 -345zM1513 717q55 263 -61 444l-1130 -934q67 -86 172 -133t235 -47q136 0 265.5 50.5t233 138.5t179 212.5t106.5 268.5z" />
    <glyph glyph-name="Ugrave" unicode="&#xd9;" horiz-adv-x="1558" 
d="M911 1604l-137 321h80l135 -321h-78zM633 -25q-118 0 -210.5 35.5t-153 105.5t-80.5 173t8 239l192 906h76l-195 -910q-24 -120 -7 -209.5t70.5 -149t133 -89t180.5 -29.5q139 0 256 51.5t204 161t120 264.5l192 910h76l-192 -906q-37 -176 -138 -303t-237.5 -188.5
t-294.5 -61.5z" />
    <glyph glyph-name="Uacute" unicode="&#xda;" horiz-adv-x="1558" 
d="M979 1604h-78l270 321h82zM633 -25q-118 0 -210.5 35.5t-153 105.5t-80.5 173t8 239l192 906h76l-195 -910q-24 -120 -7 -209.5t70.5 -149t133 -89t180.5 -29.5q139 0 256 51.5t204 161t120 264.5l192 910h76l-192 -906q-37 -176 -138 -303t-237.5 -188.5t-294.5 -61.5z
" />
    <glyph glyph-name="Ucircumflex" unicode="&#xdb;" horiz-adv-x="1558" 
d="M1212 1604l-186 274l-305 -274h-78l354 321h76l217 -321h-78zM633 -25q-118 0 -210.5 35.5t-153 105.5t-80.5 173t8 239l192 906h76l-195 -910q-24 -120 -7 -209.5t70.5 -149t133 -89t180.5 -29.5q139 0 256 51.5t204 161t120 264.5l192 910h76l-192 -906
q-37 -176 -138 -303t-237.5 -188.5t-294.5 -61.5z" />
    <glyph glyph-name="Udieresis" unicode="&#xdc;" horiz-adv-x="1558" 
d="M774 1710q-26 0 -40.5 18t-8.5 44q6 27 27.5 45t48.5 18q26 0 40.5 -17.5t10.5 -45.5q-6 -26 -29 -44t-49 -18zM1204 1710q-26 0 -40.5 18t-8.5 44q4 27 26.5 45t49.5 18q26 0 40.5 -17.5t10.5 -45.5q-6 -26 -29 -44t-49 -18zM633 -25q-118 0 -210.5 35.5t-153 105.5
t-80.5 173t8 239l192 906h76l-195 -910q-24 -120 -7 -209.5t70.5 -149t133 -89t180.5 -29.5q139 0 256 51.5t204 161t120 264.5l192 910h76l-192 -906q-37 -176 -138 -303t-237.5 -188.5t-294.5 -61.5z" />
    <glyph glyph-name="Yacute" unicode="&#xdd;" horiz-adv-x="1257" 
d="M838 1604h-76l270 321h82zM1417 1434l-764 -828l-127 -606h-75l127 606l-402 828h88l367 -754l696 752z" />
    <glyph glyph-name="Thorn" unicode="&#xde;" horiz-adv-x="1380" 
d="M1272 735q-43 -204 -193 -316t-383 -112h-467l-63 -307h-78l303 1434h78l-57 -269h465q234 0 336.5 -112t58.5 -318zM1194 735q36 174 -51.5 266.5t-282.5 92.5h-463l-153 -715h463q196 0 323 92t164 264z" />
    <glyph glyph-name="germandbls" unicode="&#xdf;" horiz-adv-x="1234" 
d="M764 762q176 -7 251 -104.5t38 -266.5q-40 -188 -178.5 -289.5t-354.5 -101.5h-147l12 66h141q189 0 303 84.5t148 246.5q35 159 -42 240.5t-257 81.5h-156l17 67h65q178 0 293 86t150 252q34 157 -37.5 240.5t-233.5 83.5q-171 0 -282 -91.5t-146 -260.5l-231 -1096h-74
l233 1098q41 201 178.5 309.5t338.5 108.5q192 0 279 -101.5t48 -284.5q-30 -149 -122.5 -243t-233.5 -125z" />
    <glyph glyph-name="agrave" unicode="&#xe0;" horiz-adv-x="1030" 
d="M690 1196l-145 322h88l135 -322h-78zM793 0h-68l51 248q-64 -123 -186 -194.5t-277 -71.5q-164 0 -240.5 82t-47.5 221q26 128 134.5 207.5t281.5 101.5t403 -8l22 110q30 144 -32.5 217.5t-204.5 73.5q-230 0 -383 -178l-39 41q82 95 196 147t242 52q174 0 251 -95
t42 -266zM831 530q-200 30 -355 13.5t-254.5 -82.5t-121.5 -172q-26 -116 37.5 -181t200.5 -65q179 0 307 104t166 285z" />
    <glyph glyph-name="aacute" unicode="&#xe1;" horiz-adv-x="1036" 
d="M766 1196h-78l270 322h74zM795 0h-66l51 248q-64 -123 -186 -194.5t-277 -71.5q-166 0 -243.5 82t-48.5 221q26 128 135 207.5t282.5 101.5t403.5 -8l22 110q30 144 -31.5 217.5t-203.5 73.5q-233 0 -383 -178l-39 41q82 95 195.5 147t238.5 52q180 0 256 -94.5
t39 -266.5zM836 530q-201 29 -356.5 13t-256.5 -82t-123 -172q-26 -116 39 -181t201 -65q180 0 307.5 103.5t165.5 285.5z" />
    <glyph glyph-name="acircumflex" unicode="&#xe2;" horiz-adv-x="1034" 
d="M954 1196l-188 274l-303 -274h-78l354 322h76l217 -322h-78zM793 0h-68l51 248q-64 -123 -186 -194.5t-277 -71.5q-164 0 -240.5 82t-47.5 221q26 128 134.5 207.5t281.5 101.5t403 -8l22 110q30 144 -32.5 217.5t-204.5 73.5q-230 0 -383 -178l-39 41q82 95 196 147
t242 52q174 0 251 -95t42 -266zM831 530q-200 30 -355 13.5t-254.5 -82.5t-121.5 -172q-26 -116 37.5 -181t200.5 -65q179 0 307 104t166 285z" />
    <glyph glyph-name="atilde" unicode="&#xe3;" horiz-adv-x="1046" 
d="M776 1333q-28 37 -53 51.5t-59 14.5q-45 0 -80.5 -37t-48.5 -102h-62q21 93 74.5 145.5t120.5 52.5q41 0 75.5 -19t71.5 -65q31 -37 56 -51t59 -14q45 0 80.5 37.5t50.5 103.5h59q-21 -94 -73.5 -147.5t-118.5 -53.5q-85 0 -152 84zM793 0h-68l51 248
q-64 -123 -186 -194.5t-277 -71.5q-164 0 -240.5 82t-47.5 221q26 128 134.5 207.5t281.5 101.5t403 -8l22 110q30 144 -32.5 217.5t-204.5 73.5q-230 0 -383 -178l-39 41q82 95 196 147t242 52q174 0 251 -95t42 -266zM831 530q-200 30 -355 13.5t-254.5 -82.5t-121.5 -172
q-26 -116 37.5 -181t200.5 -65q179 0 307 104t166 285z" />
    <glyph glyph-name="adieresis" unicode="&#xe4;" horiz-adv-x="1042" 
d="M535 1303q-27 0 -41.5 18t-10.5 45q6 26 29 45t49 19t40.5 -19t8.5 -45q-4 -27 -26 -45t-49 -18zM965 1303q-28 0 -42.5 17.5t-9.5 45.5q6 27 28.5 45.5t49.5 18.5q26 0 40 -19t7 -45q-4 -27 -25 -45t-48 -18zM793 0h-68l51 248q-64 -123 -186 -194.5t-277 -71.5
q-164 0 -240.5 82t-47.5 221q26 128 134.5 207.5t281.5 101.5t403 -8l22 110q30 144 -32.5 217.5t-204.5 73.5q-230 0 -383 -178l-39 41q82 95 196 147t242 52q174 0 251 -95t42 -266zM831 530q-200 30 -355 13.5t-254.5 -82.5t-121.5 -172q-26 -116 37.5 -181t200.5 -65
q179 0 307 104t166 285z" />
    <glyph glyph-name="aring" unicode="&#xe5;" horiz-adv-x="1046" 
d="M745 1202q-95 0 -145.5 61.5t-30.5 151.5q20 91 96 153t171 62q96 0 146.5 -62t31.5 -153q-20 -90 -96.5 -151.5t-172.5 -61.5zM825 1577q-74 0 -129.5 -45t-68.5 -117q-15 -71 20.5 -115.5t108.5 -44.5q75 0 130 44.5t70 115.5q15 72 -20.5 117t-110.5 45zM793 0h-68
l51 248q-64 -123 -186 -194.5t-277 -71.5q-164 0 -240.5 82t-47.5 221q26 128 134.5 207.5t281.5 101.5t403 -8l22 110q30 144 -32.5 217.5t-204.5 73.5q-230 0 -383 -178l-39 41q82 95 196 147t242 52q174 0 251 -95t42 -266zM831 530q-200 30 -355 13.5t-254.5 -82.5
t-121.5 -172q-26 -116 37.5 -181t200.5 -65q179 0 307 104t166 285z" />
    <glyph glyph-name="ae" unicode="&#xe6;" horiz-adv-x="1925" 
d="M1763 506h-897q-44 -207 49.5 -337t288.5 -130q124 0 238 57t196 160l41 -41q-91 -114 -219.5 -178t-269.5 -64q-162 0 -267 80.5t-135 220.5q-78 -145 -216 -218.5t-293 -73.5q-166 0 -243 82t-48 221q41 193 257.5 271t561.5 30l22 110q30 144 -32 217.5t-205 73.5
q-231 0 -381 -178l-39 41q79 95 194 147t242 52q150 0 228 -70.5t75 -198.5q90 126 222.5 197.5t281.5 71.5q219 0 312.5 -145t35.5 -398zM1403 987q-184 0 -329.5 -119t-196.5 -307h827q37 194 -44 310t-257 116zM301 43q192 0 313 100.5t156 266.5l25 120
q-200 30 -355 13.5t-255 -82.5t-122 -172q-26 -116 38 -181t200 -65z" />
    <glyph glyph-name="ccedilla" unicode="&#xe7;" horiz-adv-x="1165" 
d="M692 983q-195 0 -345 -131t-193 -340q-44 -206 49 -337.5t286 -131.5q122 0 236 59.5t193 165.5l49 -37q-86 -115 -205 -181t-252 -75l-201 -376h-73l208 376q-211 12 -311 159.5t-51 377.5q50 235 224.5 388t395.5 153q143 0 243 -65.5t140 -186.5l-65 -37
q-35 104 -121.5 161.5t-206.5 57.5z" />
    <glyph glyph-name="egrave" unicode="&#xe8;" horiz-adv-x="1204" 
d="M686 1196l-147 322h90l133 -322h-76zM143 506q-43 -207 51 -337t289 -130q124 0 238.5 57t196.5 160l40 -41q-91 -114 -220 -178t-269 -64q-226 0 -337 150.5t-60 388.5q49 234 224.5 385.5t397.5 151.5q219 0 312.5 -145t35.5 -398h-899zM682 987q-184 0 -329.5 -119
t-196.5 -307h825q37 194 -44 310t-255 116z" />
    <glyph glyph-name="eacute" unicode="&#xe9;" horiz-adv-x="1218" 
d="M743 1196h-77l272 322h82zM143 506q-43 -207 51 -337t289 -130q124 0 238.5 57t196.5 160l40 -41q-91 -114 -220 -178t-269 -64q-226 0 -337 150.5t-60 388.5q49 234 224.5 385.5t397.5 151.5q219 0 312.5 -145t35.5 -398h-899zM682 987q-184 0 -329.5 -119t-196.5 -307
h825q37 194 -44 310t-255 116z" />
    <glyph glyph-name="ecircumflex" unicode="&#xea;" horiz-adv-x="1204" 
d="M973 1196l-189 274l-303 -274h-78l355 322h76l217 -322h-78zM143 506q-43 -207 51 -337t289 -130q124 0 238.5 57t196.5 160l40 -41q-91 -114 -220 -178t-269 -64q-226 0 -337 150.5t-60 388.5q49 234 224.5 385.5t397.5 151.5q219 0 312.5 -145t35.5 -398h-899zM682 987
q-184 0 -329.5 -119t-196.5 -307h825q37 194 -44 310t-255 116z" />
    <glyph glyph-name="edieresis" unicode="&#xeb;" horiz-adv-x="1204" 
d="M514 1303q-26 0 -40.5 17.5t-10.5 45.5q6 26 29 45t49 19t40.5 -19t8.5 -45q-4 -27 -26.5 -45t-49.5 -18zM944 1303q-28 0 -42 17.5t-9 45.5q6 27 28.5 45.5t49.5 18.5q26 0 40 -19t7 -45q-4 -27 -25.5 -45t-48.5 -18zM143 506q-43 -207 51 -337t289 -130q124 0 238.5 57
t196.5 160l40 -41q-91 -114 -220 -178t-269 -64q-226 0 -337 150.5t-60 388.5q49 234 224.5 385.5t397.5 151.5q219 0 312.5 -145t35.5 -398h-899zM682 987q-184 0 -329.5 -119t-196.5 -307h825q37 194 -44 310t-255 116z" />
    <glyph glyph-name="igrave" unicode="&#xec;" horiz-adv-x="464" 
d="M96 1518h80l160 -322h-76zM262 1024h74l-217 -1024h-74z" />
    <glyph glyph-name="iacute" unicode="&#xed;" horiz-adv-x="464" 
d="M365 1196h-76l270 322h82zM262 1024h74l-217 -1024h-74z" />
    <glyph glyph-name="icircumflex" unicode="&#xee;" horiz-adv-x="464" 
d="M625 1196h-74l-158 274l-272 -274h-74l322 322h71zM262 1024h74l-217 -1024h-74z" />
    <glyph glyph-name="idieresis" unicode="&#xef;" horiz-adv-x="464" 
d="M172 1305q-26 0 -39 16.5t-8 44.5q6 26 26.5 42.5t45.5 16.5q26 0 38.5 -16.5t6.5 -42.5q-4 -27 -23.5 -44t-46.5 -17zM547 1305q-25 0 -38 17t-9 44q6 26 26.5 42.5t46.5 16.5q25 0 38 -16.5t7 -42.5q-6 -28 -25.5 -44.5t-45.5 -16.5zM262 1024h74l-217 -1024h-74z" />
    <glyph glyph-name="ntilde" unicode="&#xf1;" horiz-adv-x="1226" 
d="M737 1333q-29 37 -54.5 51.5t-59.5 14.5q-45 0 -80.5 -37t-48.5 -102h-60q20 93 73.5 145.5t119.5 52.5q41 0 75.5 -19t71.5 -65q30 -36 56 -50.5t59 -14.5q46 0 81 37t50 104h59q-20 -93 -73 -147t-119 -54q-41 0 -76 19t-74 65zM707 1049q168 0 262 -119t59 -285
l-137 -645h-76l135 629q29 146 -50 248t-226 102q-146 0 -269.5 -102.5t-152.5 -247.5l-133 -629h-76l217 1024h74l-45 -213q70 107 183 172.5t235 65.5z" />
    <glyph glyph-name="ograve" unicode="&#xf2;" horiz-adv-x="1288" 
d="M780 1196l-139 322h82l133 -322h-76zM487 -25q-230 0 -343 151t-62 388q50 233 229.5 386t405.5 153q151 0 255.5 -70t144.5 -193t7 -276q-50 -229 -231.5 -384t-405.5 -155zM504 43q196 0 350 133.5t197 337.5q43 202 -55.5 336.5t-293.5 134.5q-196 0 -348.5 -132.5
t-195.5 -338.5q-44 -207 52 -339t294 -132z" />
    <glyph glyph-name="oacute" unicode="&#xf3;" horiz-adv-x="1288" 
d="M780 1196h-78l271 322h82zM487 -25q-230 0 -343 151t-62 388q50 233 229.5 386t405.5 153q151 0 255.5 -70t144.5 -193t7 -276q-50 -229 -231.5 -384t-405.5 -155zM504 43q196 0 350 133.5t197 337.5q43 202 -55.5 336.5t-293.5 134.5q-196 0 -348.5 -132.5
t-195.5 -338.5q-44 -207 52 -339t294 -132z" />
    <glyph glyph-name="ocircumflex" unicode="&#xf4;" horiz-adv-x="1288" 
d="M991 1196l-186 274l-303 -274h-80l354 322h76l217 -322h-78zM487 -25q-230 0 -343 151t-62 388q50 233 229.5 386t405.5 153q151 0 255.5 -70t144.5 -193t7 -276q-50 -229 -231.5 -384t-405.5 -155zM504 43q196 0 350 133.5t197 337.5q43 202 -55.5 336.5t-293.5 134.5
q-196 0 -348.5 -132.5t-195.5 -338.5q-44 -207 52 -339t294 -132z" />
    <glyph glyph-name="otilde" unicode="&#xf5;" horiz-adv-x="1288" 
d="M909 1249q-41 0 -75.5 19t-73.5 65q-29 36 -54.5 51t-58.5 15q-46 0 -81 -36.5t-50 -102.5h-59q20 93 73 145.5t119 52.5q80 0 148 -84q32 -37 57 -51t59 -14q45 0 80.5 37.5t48.5 103.5h60q-20 -93 -73.5 -147t-119.5 -54zM485 -25q-233 0 -344.5 150.5t-60.5 388.5
q50 238 225 388.5t410 150.5q234 0 345.5 -150.5t61.5 -388.5q-51 -238 -227 -388.5t-410 -150.5zM500 43q198 0 350 129.5t197 341.5q44 212 -52 341.5t-295 129.5q-198 0 -349 -130t-195 -341q-45 -212 50.5 -341.5t293.5 -129.5z" />
    <glyph glyph-name="odieresis" unicode="&#xf6;" horiz-adv-x="1288" 
d="M504 1366q6 27 28.5 45.5t49.5 18.5q26 0 39.5 -19t7.5 -45q-4 -27 -25.5 -45t-48.5 -18q-28 0 -42 17.5t-9 45.5zM934 1366q6 27 28 45.5t48 18.5q27 0 41 -18.5t8 -45.5q-4 -27 -26.5 -45t-49.5 -18t-41 18t-8 45zM487 -25q-230 0 -343 151t-62 388q50 233 229.5 386
t405.5 153q151 0 255.5 -70t144.5 -193t7 -276q-50 -229 -231.5 -384t-405.5 -155zM504 43q196 0 350 133.5t197 337.5q43 202 -55.5 336.5t-293.5 134.5q-196 0 -348.5 -132.5t-195.5 -338.5q-44 -207 52 -339t294 -132z" />
    <glyph glyph-name="divide" unicode="&#xf7;" horiz-adv-x="1454" 
d="M778 952q-26 0 -40.5 18t-8.5 44q6 27 27 45t47 18q28 0 42.5 -18.5t8.5 -44.5t-28 -44t-48 -18zM285 682h870l-14 -66h-871zM623 221q-26 0 -41 18t-9 44q4 26 27 44.5t49 18.5t40 -18t9 -45q-6 -26 -27.5 -44t-47.5 -18z" />
    <glyph glyph-name="oslash" unicode="&#xf8;" horiz-adv-x="1296" 
d="M1085 874q87 -148 41 -360q-51 -238 -227 -388.5t-410 -150.5q-217 0 -331 136l-160 -131l-33 43l160 131q-88 142 -41 360q50 238 225 388.5t410 150.5q218 0 334 -135l157 129l35 -41zM707 987q-199 0 -352 -130.5t-197 -342.5q-43 -187 32 -311l805 661
q-94 123 -288 123zM504 39q199 0 351.5 130.5t197.5 344.5q39 182 -33 311l-803 -663q96 -123 287 -123z" />
    <glyph glyph-name="ugrave" unicode="&#xf9;" horiz-adv-x="1224" 
d="M741 1196l-139 322h82l133 -322h-76zM1098 1024l-217 -1024h-74l51 242q-64 -123 -187.5 -195t-277.5 -72q-180 0 -250.5 105.5t-27.5 308.5l135 635h74l-131 -614q-77 -367 235 -367q171 0 301 103t168 280l127 598h74z" />
    <glyph glyph-name="uacute" unicode="&#xfa;" horiz-adv-x="1224" 
d="M682 1196h-78l270 322h82zM1098 1024l-217 -1024h-74l45 211q-72 -106 -185.5 -171t-234.5 -65q-167 0 -260.5 118.5t-58.5 285.5l137 645h74l-134 -629q-31 -146 50.5 -248t226.5 -102q143 0 267.5 102t156.5 248l133 629h74z" />
    <glyph glyph-name="ucircumflex" unicode="&#xfb;" horiz-adv-x="1224" 
d="M465 1196h-78l354 322h76l217 -322h-78l-188 274zM1098 1024l-217 -1024h-74l45 211q-72 -106 -185.5 -171t-234.5 -65q-167 0 -260.5 118.5t-58.5 285.5l137 645h74l-134 -629q-31 -146 50.5 -248t226.5 -102q143 0 267.5 102t156.5 248l133 629h74z" />
    <glyph glyph-name="udieresis" unicode="&#xfc;" horiz-adv-x="1224" 
d="M469 1366q6 27 28 45.5t48 18.5q27 0 41 -18.5t8 -45.5q-4 -27 -26.5 -45t-49.5 -18t-41 18t-8 45zM897 1366q6 26 29 45t49 19t40.5 -19t8.5 -45q-4 -27 -26.5 -45t-49.5 -18q-26 0 -40.5 17.5t-10.5 45.5zM1098 1024l-217 -1024h-74l45 211q-72 -106 -185.5 -171
t-234.5 -65q-167 0 -260.5 118.5t-58.5 285.5l137 645h74l-134 -629q-31 -146 50.5 -248t226.5 -102q143 0 267.5 102t156.5 248l133 629h74z" />
    <glyph glyph-name="yacute" unicode="&#xfd;" horiz-adv-x="1067" 
d="M608 1196h-78l273 322h80zM1087 1024l-770 -1202q-85 -136 -165.5 -184t-214.5 -48h-125l14 68h117q110 0 175.5 37.5t129.5 140.5l102 158l-233 1030h80l211 -942l600 942h79z" />
    <glyph glyph-name="thorn" unicode="&#xfe;" horiz-adv-x="1339" 
d="M786 1051q223 0 329.5 -150t55.5 -389q-34 -154 -123 -277t-218 -192.5t-273 -69.5q-158 0 -261 86.5t-122 225.5l-143 -684h-74l389 1833h70l-148 -697q83 142 223 228t295 86zM561 43q193 0 343 131t194 338t-50.5 339t-287.5 132q-190 0 -342 -133.5t-195 -337.5
t52.5 -336.5t285.5 -132.5z" />
    <glyph glyph-name="ydieresis" unicode="&#xff;" horiz-adv-x="1067" 
d="M444 1303q-26 0 -40 17.5t-9 45.5q6 27 28.5 45.5t49.5 18.5q26 0 39.5 -19t7.5 -45q-4 -27 -26 -45t-50 -18zM874 1303q-26 0 -40.5 17.5t-10.5 45.5q8 27 30 45.5t48 18.5t40.5 -19t8.5 -45q-4 -27 -26.5 -45t-49.5 -18zM1087 1028l-770 -1206q-85 -136 -165.5 -184
t-214.5 -48h-125l14 68h117q110 0 175.5 37.5t129.5 140.5l102 158l-231 1034h80l209 -946l600 946h79z" />
    <glyph glyph-name="Amacron" unicode="&#x100;" horiz-adv-x="1388" 
d="M1206 1698h-602l14 63h603zM1001 416l-765 2l-265 -418h-82l910 1434h67l305 -1434h-81zM989 483l-176 856l-537 -856h713z" />
    <glyph glyph-name="amacron" unicode="&#x101;" horiz-adv-x="1026" 
d="M1040 1290h-602l13 64h602zM793 0h-68l51 248q-64 -123 -186 -194.5t-277 -71.5q-164 0 -240.5 82t-47.5 221q26 128 134.5 207.5t281.5 101.5t403 -8l22 110q30 144 -32.5 217.5t-204.5 73.5q-230 0 -383 -178l-39 41q82 95 196 147t242 52q174 0 251 -95t42 -266z
M831 530q-200 30 -355 13.5t-254.5 -82.5t-121.5 -172q-26 -116 37.5 -181t200.5 -65q179 0 307 104t166 285z" />
    <glyph glyph-name="Abreve" unicode="&#x102;" horiz-adv-x="1388" 
d="M889 1618q-124 0 -185 68.5t-36 181.5v6h65q-20 -90 27 -145.5t141 -55.5t162.5 55t87.5 146h66l-3 -6q-23 -112 -112.5 -181t-212.5 -69zM1001 416l-765 2l-265 -418h-82l910 1434h67l305 -1434h-81zM989 483l-176 856l-537 -856h713z" />
    <glyph glyph-name="abreve" unicode="&#x103;" horiz-adv-x="1050" 
d="M776 1210q-124 0 -184 69t-37 183l2 4h64q-19 -90 26.5 -145t138.5 -55q94 0 164 55.5t90 144.5h64v-4q-25 -114 -115 -183t-213 -69zM793 0h-68l51 248q-64 -123 -186 -194.5t-277 -71.5q-164 0 -240.5 82t-47.5 221q26 128 134.5 207.5t281.5 101.5t403 -8l22 110
q30 144 -32.5 217.5t-204.5 73.5q-230 0 -383 -178l-39 41q82 95 196 147t242 52q174 0 251 -95t42 -266zM831 530q-200 30 -355 13.5t-254.5 -82.5t-121.5 -172q-26 -116 37.5 -181t200.5 -65q179 0 307 104t166 285z" />
    <glyph glyph-name="Aogonek" unicode="&#x104;" horiz-adv-x="1388" 
d="M1169 0q-114 -59 -168.5 -118.5t-68.5 -129.5q-14 -65 25.5 -97t134.5 -32h14l-12 -57h-23q-123 0 -174.5 45.5t-32.5 130.5q34 153 234 258h-8l-89 416l-765 2l-265 -418h-82l910 1434h67l305 -1434h-2zM276 483h713l-176 856z" />
    <glyph glyph-name="aogonek" unicode="&#x105;" horiz-adv-x="1036" 
d="M645 1049q174 0 251 -95t42 -266l-145 -688h4q-117 -61 -179 -121t-77 -127q-12 -65 27 -97t134 -32h15l-12 -57h-23q-122 0 -174.5 45.5t-34.5 130.5q32 144 256 258h-4l51 248q-64 -123 -186 -194.5t-277 -71.5q-164 0 -240.5 82t-47.5 221q26 128 134.5 207.5
t281.5 101.5t403 -8l22 110q30 144 -32.5 217.5t-204.5 73.5q-230 0 -383 -178l-39 41q82 95 196 147t242 52zM811 432l20 98q-200 30 -355 13.5t-254.5 -82.5t-121.5 -172q-26 -116 37.5 -181t200.5 -65q179 0 307 104t166 285z" />
    <glyph glyph-name="Cacute" unicode="&#x106;" horiz-adv-x="1593" 
d="M1075 1604h-78l271 321h82zM711 -25q-208 0 -351 96t-197.5 265t-8.5 381q45 211 171 380t310 265t391 96q214 0 354 -98t181 -277l-72 -32q-38 163 -161 249t-318 86q-183 0 -346.5 -86t-277 -239t-155.5 -344q-41 -192 8 -345t176.5 -239t311.5 -86q195 0 354 86
t265 248l59 -35q-120 -180 -298.5 -275.5t-395.5 -95.5z" />
    <glyph glyph-name="cacute" unicode="&#x107;" horiz-adv-x="1165" 
d="M739 1196h-77l272 322h82zM475 -25q-226 0 -335 149.5t-58 387.5q50 235 224.5 388t395.5 153q143 0 243 -65.5t140 -186.5l-65 -37q-35 104 -121.5 161.5t-206.5 57.5q-195 0 -345 -131t-193 -340q-44 -206 49 -337.5t286 -131.5q122 0 236 59.5t193 165.5l49 -37
q-92 -123 -220.5 -189.5t-271.5 -66.5z" />
    <glyph glyph-name="Ccircumflex" unicode="&#x108;" horiz-adv-x="1593" 
d="M805 1604h-78l354 321h74l219 -321h-80l-184 274zM711 -25q-208 0 -351 96t-197.5 265t-8.5 381q45 211 171 380t310 265t391 96q214 0 354 -98t181 -277l-72 -32q-38 163 -161 249t-318 86q-183 0 -346.5 -86t-277 -239t-155.5 -344q-41 -192 8 -345t176.5 -239
t311.5 -86q195 0 354 86t265 248l59 -35q-120 -180 -298.5 -275.5t-395.5 -95.5z" />
    <glyph glyph-name="ccircumflex" unicode="&#x109;" horiz-adv-x="1165" 
d="M489 1196h-77l354 322h74l219 -322h-78l-188 274zM475 -25q-226 0 -335 149.5t-58 387.5q50 235 224.5 388t395.5 153q143 0 243 -65.5t140 -186.5l-65 -37q-35 104 -121.5 161.5t-206.5 57.5q-195 0 -345 -131t-193 -340q-44 -206 49 -337.5t286 -131.5q122 0 236 59.5
t193 165.5l49 -37q-92 -123 -220.5 -189.5t-271.5 -66.5z" />
    <glyph glyph-name="Cdotaccent" unicode="&#x10a;" horiz-adv-x="1593" 
d="M1073 1710q-28 0 -41.5 18t-7.5 44q4 27 26.5 45t49.5 18t41 -18t8 -45q-6 -26 -28 -44t-48 -18zM711 -25q-208 0 -351 96t-197.5 265t-8.5 381q45 211 171 380t310 265t391 96q214 0 354 -98t181 -277l-72 -32q-38 163 -161 249t-318 86q-183 0 -346.5 -86t-277 -239
t-155.5 -344q-41 -192 8 -345t176.5 -239t311.5 -86q195 0 354 86t265 248l59 -35q-120 -180 -298.5 -275.5t-395.5 -95.5z" />
    <glyph glyph-name="cdotaccent" unicode="&#x10b;" horiz-adv-x="1165" 
d="M758 1303q-26 0 -40.5 17.5t-10.5 45.5q6 26 28.5 45t48.5 19t41 -19t9 -45q-4 -27 -26.5 -45t-49.5 -18zM475 -25q-226 0 -335 149.5t-58 387.5q50 235 224.5 388t395.5 153q143 0 243 -65.5t140 -186.5l-65 -37q-35 104 -121.5 161.5t-206.5 57.5q-195 0 -345 -131
t-193 -340q-44 -206 49 -337.5t286 -131.5q122 0 236 59.5t193 165.5l49 -37q-92 -123 -220.5 -189.5t-271.5 -66.5z" />
    <glyph glyph-name="Ccaron" unicode="&#x10c;" horiz-adv-x="1593" 
d="M1012 1604l-217 321h77l189 -274l303 274h78l-355 -321h-75zM711 -25q-208 0 -351 96t-197.5 265t-8.5 381q45 211 171 380t310 265t391 96q214 0 354 -98t181 -277l-72 -32q-38 163 -161 249t-318 86q-183 0 -346.5 -86t-277 -239t-155.5 -344q-41 -192 8 -345
t176.5 -239t311.5 -86q195 0 354 86t265 248l59 -35q-120 -180 -298.5 -275.5t-395.5 -95.5z" />
    <glyph glyph-name="ccaron" unicode="&#x10d;" horiz-adv-x="1165" 
d="M698 1196l-219 322h78l188 -273l304 273h77l-354 -322h-74zM475 -25q-226 0 -335 149.5t-58 387.5q50 235 224.5 388t395.5 153q143 0 243 -65.5t140 -186.5l-65 -37q-35 104 -121.5 161.5t-206.5 57.5q-195 0 -345 -131t-193 -340q-44 -206 49 -337.5t286 -131.5
q122 0 236 59.5t193 165.5l49 -37q-92 -123 -220.5 -189.5t-271.5 -66.5z" />
    <glyph glyph-name="Dcaron" unicode="&#x10e;" horiz-adv-x="1556" 
d="M864 1604l-219 321h80l186 -274l303 274h78l-354 -321h-74zM848 1434q209 0 352 -90.5t197.5 -253.5t9.5 -373q-68 -323 -304 -520t-558 -197h-457l303 1434h457zM555 72q290 0 501 176.5t273 468.5q63 292 -73 468.5t-427 176.5h-376l-277 -1290h379z" />
    <glyph glyph-name="dcaron" unicode="&#x10f;" horiz-adv-x="1429" 
d="M1579 1499l-82 -389h-65l84 389h63zM1276 1495l-318 -1493h-69l61 287q-84 -143 -222.5 -228.5t-291.5 -85.5q-224 0 -333 150t-58 387q51 235 225.5 388t393.5 153q156 0 256.5 -86t119.5 -226l162 754h74zM459 43q189 0 340 133.5t194 337.5q43 206 -51.5 338.5
t-284.5 132.5q-194 0 -343 -131t-193 -340q-44 -207 50.5 -339t287.5 -132z" />
    <glyph glyph-name="Dcroat" unicode="&#x110;" horiz-adv-x="1597" 
d="M874 1434q329 0 483.5 -188t82.5 -529q-48 -227 -172.5 -390t-302.5 -245t-394 -82h-450l143 684h-225l14 66h228l143 684h450zM586 72q292 0 499 167t275 478q66 313 -70 479t-430 166h-373l-131 -612h451l-16 -66h-449l-131 -612h375z" />
    <glyph glyph-name="dcroat" unicode="&#x111;" horiz-adv-x="1302" 
d="M1528 1339l-12 -63h-287l-271 -1274h-69l61 287q-84 -143 -222.5 -228.5t-291.5 -85.5q-224 0 -333 150t-58 387q51 235 225.5 388t393.5 153q156 0 256.5 -86t119.5 -226l115 535h-240l13 63h241l33 156h74l-33 -156h285zM993 514q43 206 -51.5 338.5t-284.5 132.5
q-194 0 -343 -131t-193 -340q-44 -207 50.5 -339t287.5 -132q189 0 340 133.5t194 337.5z" />
    <glyph glyph-name="Emacron" unicode="&#x112;" horiz-adv-x="1347" 
d="M612 1761h602l-14 -63h-602zM1036 72l-14 -72h-932l303 1434h912l-15 -70h-835l-140 -653h807l-14 -68h-807l-123 -571h858z" />
    <glyph glyph-name="emacron" unicode="&#x113;" horiz-adv-x="1204" 
d="M459 1354h602l-12 -64h-603zM143 506q-43 -207 51 -337t289 -130q124 0 238.5 57t196.5 160l40 -41q-91 -114 -220 -178t-269 -64q-226 0 -337 150.5t-60 388.5q49 234 224.5 385.5t397.5 151.5q219 0 312.5 -145t35.5 -398h-899zM682 987q-184 0 -329.5 -119
t-196.5 -307h825q37 194 -44 310t-255 116z" />
    <glyph glyph-name="Ebreve" unicode="&#x114;" horiz-adv-x="1347" 
d="M664 1874h63q-20 -90 27 -145.5t141 -55.5t163 55t89 146h63q-25 -116 -114.5 -186t-212.5 -70q-124 0 -184 70t-35 186zM1036 72l-14 -72h-932l303 1434h912l-15 -70h-835l-140 -653h807l-14 -68h-807l-123 -571h858z" />
    <glyph glyph-name="ebreve" unicode="&#x115;" horiz-adv-x="1204" 
d="M512 1464l63 2q-20 -89 26 -144.5t140 -55.5t164 55.5t90 144.5l64 -2q-25 -114 -115 -184t-213 -70q-124 0 -184 70t-35 184zM143 506q-43 -207 51 -337t289 -130q124 0 238.5 57t196.5 160l40 -41q-91 -114 -220 -178t-269 -64q-226 0 -337 150.5t-60 388.5
q49 234 224.5 385.5t397.5 151.5q219 0 312.5 -145t35.5 -398h-899zM682 987q-184 0 -329.5 -119t-196.5 -307h825q37 194 -44 310t-255 116z" />
    <glyph glyph-name="Edotaccent" unicode="&#x116;" horiz-adv-x="1347" 
d="M852 1772q6 28 27.5 45.5t50.5 17.5q28 0 42 -17.5t9 -45.5q-8 -28 -29.5 -45t-50.5 -17q-28 0 -41.5 17t-7.5 45zM1036 72l-14 -72h-932l303 1434h912l-15 -70h-835l-140 -653h807l-14 -68h-807l-123 -571h858z" />
    <glyph glyph-name="edotaccent" unicode="&#x117;" horiz-adv-x="1204" 
d="M698 1366q8 27 29.5 44t48.5 17q29 0 43 -17t8 -44q-6 -28 -27.5 -45.5t-49.5 -17.5t-42.5 17.5t-9.5 45.5zM143 506q-43 -207 51 -337t289 -130q124 0 238.5 57t196.5 160l40 -41q-91 -114 -220 -178t-269 -64q-226 0 -337 150.5t-60 388.5q49 234 224.5 385.5
t397.5 151.5q219 0 312.5 -145t35.5 -398h-899zM682 987q-184 0 -329.5 -119t-196.5 -307h825q37 194 -44 310t-255 116z" />
    <glyph glyph-name="Eogonek" unicode="&#x118;" horiz-adv-x="1347" 
d="M1290 1364h-835l-140 -653h807l-14 -68h-807l-123 -571h858l-14 -72h-4q-117 -62 -179 -122t-75 -126q-15 -70 28.5 -99.5t145.5 -29.5l-12 -57q-135 0 -192.5 43t-37.5 133q28 145 240 258h-846l303 1434h912z" />
    <glyph glyph-name="eogonek" unicode="&#x119;" horiz-adv-x="1212" 
d="M483 39q124 0 238.5 57t196.5 160l40 -41q-115 -143 -284 -205q-67 -44 -109 -101t-53 -110q-14 -65 25 -96t135 -31h14l-12 -59h-23q-123 0 -174.5 45.5t-32.5 130.5q11 50 43.5 103.5t79.5 95.5q-51 -13 -114 -13q-144 3 -242 72t-135 190t-4 275q49 234 224.5 385.5
t397.5 151.5q219 0 312.5 -145t35.5 -398h-899q-43 -207 51 -337t289 -130zM682 987q-184 0 -329.5 -119t-196.5 -307h825q37 194 -44 310t-255 116z" />
    <glyph glyph-name="Ecaron" unicode="&#x11a;" horiz-adv-x="1347" 
d="M1272 1925l-354 -321h-76l-217 321h77l187 -274l303 274h80zM1036 72l-14 -72h-932l303 1434h912l-15 -70h-835l-140 -653h807l-14 -68h-807l-123 -571h858z" />
    <glyph glyph-name="ecaron" unicode="&#x11b;" horiz-adv-x="1204" 
d="M1120 1518l-356 -322h-74l-219 322h80l186 -273l303 273h80zM143 506q-43 -207 51 -337t289 -130q124 0 238.5 57t196.5 160l40 -41q-91 -114 -220 -178t-269 -64q-226 0 -337 150.5t-60 388.5q49 234 224.5 385.5t397.5 151.5q219 0 312.5 -145t35.5 -398h-899zM682 987
q-184 0 -329.5 -119t-196.5 -307h825q37 194 -44 310t-255 116z" />
    <glyph glyph-name="Gcircumflex" unicode="&#x11c;" horiz-adv-x="1630" 
d="M805 1604h-80l356 321h74l219 -321h-80l-184 274zM1483 715l-109 -514q-153 -119 -311 -173.5t-354 -54.5q-209 4 -351.5 100.5t-196.5 264t-9 377.5q45 211 171 380t310 265t391 96q210 0 349.5 -95t185.5 -267l-76 -37q-38 159 -160 243t-315 84q-183 0 -347 -86
t-277.5 -239t-154.5 -344t7 -342t175 -237.5t312 -90.5q169 0 310.5 43t275.5 143l88 414h-422l14 70h494z" />
    <glyph glyph-name="gcircumflex" unicode="&#x11d;" horiz-adv-x="1339" 
d="M522 1196h-78l355 322h73l220 -322h-80l-187 274zM1210 1024l-196 -930q-54 -247 -223 -387.5t-414 -140.5q-149 0 -257.5 52t-160.5 142l53 52q47 -85 146.5 -133t228.5 -48q209 0 358.5 123t196.5 344l45 217q-75 -145 -212.5 -229t-301.5 -84q-148 0 -248 67.5
t-137 187t-6 271.5q48 228 217.5 374.5t392.5 146.5q164 0 266 -83t119 -227l60 285h73zM500 68q190 0 340.5 129t193.5 331q43 201 -53 330t-287 129t-342 -129t-194 -330q-43 -202 54 -331t288 -129z" />
    <glyph glyph-name="Gbreve" unicode="&#x11e;" horiz-adv-x="1630" 
d="M1053 1618q-124 0 -184.5 68.5t-37.5 181.5l3 6h63q-19 -91 27.5 -146t140.5 -55t163 55t89 146h63v-6q-25 -113 -114.5 -181.5t-212.5 -68.5zM1483 715l-109 -514q-153 -119 -311 -173.5t-354 -54.5q-209 4 -351.5 100.5t-196.5 264t-9 377.5q45 211 171 380t310 265
t391 96q210 0 349.5 -95t185.5 -267l-76 -37q-38 159 -160 243t-315 84q-183 0 -347 -86t-277.5 -239t-154.5 -344t7 -342t175 -237.5t312 -90.5q169 0 310.5 43t275.5 143l88 414h-422l14 70h494z" />
    <glyph glyph-name="gbreve" unicode="&#x11f;" horiz-adv-x="1339" 
d="M551 1466h63q-19 -90 27 -145t141 -55q94 0 163.5 55.5t88.5 144.5h64v-4q-25 -114 -114.5 -183t-213.5 -69q-123 0 -183.5 69t-35.5 183v4zM1212 1030l-208 -975q-44 -213 -213 -357t-375 -144q-144 0 -259.5 79t-150.5 201l55 43q31 -110 134.5 -182t232.5 -72
q113 0 219.5 55.5t183.5 156t103 224.5l53 244q-80 -138 -219.5 -221.5t-296.5 -83.5q-222 0 -329.5 147t-57.5 381q47 225 219 373t389 148q159 0 262 -81t125 -216l60 280h73zM500 68q188 0 338.5 129t193.5 329q41 198 -54 327.5t-284 129.5q-193 0 -343 -128t-193 -329
q-44 -204 51.5 -331t290.5 -127z" />
    <glyph glyph-name="Gdotaccent" unicode="&#x120;" horiz-adv-x="1630" 
d="M1073 1710q-29 0 -43 17t-8 45t28 45.5t50 17.5t42 -17.5t9 -45.5q-8 -28 -29 -45t-49 -17zM1483 715l-109 -514q-153 -119 -311 -173.5t-354 -54.5q-209 4 -351.5 100.5t-196.5 264t-9 377.5q45 211 171 380t310 265t391 96q210 0 349.5 -95t185.5 -267l-76 -37
q-38 159 -160 243t-315 84q-183 0 -347 -86t-277.5 -239t-154.5 -344t7 -342t175 -237.5t312 -90.5q169 0 310.5 43t275.5 143l88 414h-422l14 70h494z" />
    <glyph glyph-name="gdotaccent" unicode="&#x121;" horiz-adv-x="1339" 
d="M739 1366q6 26 29 45t49 19t40.5 -19t8.5 -45q-6 -28 -27.5 -45.5t-47.5 -17.5q-28 0 -42.5 17.5t-9.5 45.5zM1212 1030l-208 -975q-44 -213 -213 -357t-375 -144q-144 0 -259.5 79t-150.5 201l55 43q31 -110 134.5 -182t232.5 -72q113 0 219.5 55.5t183.5 156t103 224.5
l53 244q-80 -138 -219.5 -221.5t-296.5 -83.5q-222 0 -329.5 147t-57.5 381q47 225 219 373t389 148q159 0 262 -81t125 -216l60 280h73zM500 68q188 0 338.5 129t193.5 329q41 198 -54 327.5t-284 129.5q-193 0 -343 -128t-193 -329q-44 -204 51.5 -331t290.5 -127z" />
    <glyph glyph-name="uni0122" unicode="&#x122;" horiz-adv-x="1630" 
d="M1483 715l-109 -514q-153 -119 -311 -173.5t-354 -54.5q-209 4 -351.5 100.5t-196.5 264t-9 377.5q45 211 171 380t310 265t391 96q210 0 349.5 -95t185.5 -267l-76 -37q-38 159 -160 243t-315 84q-183 0 -347 -86t-277.5 -239t-154.5 -344t7 -342t175 -237.5t312 -90.5
q169 0 310.5 43t275.5 143l88 414h-422l14 70h494zM653 -201h76l-170 -344h-59z" />
    <glyph glyph-name="uni0123" unicode="&#x123;" horiz-adv-x="1339" 
d="M791 1196h-78l270 322h82zM1212 1030l-208 -975q-44 -213 -213 -357t-375 -144q-144 0 -259.5 79t-150.5 201l55 43q31 -110 134.5 -182t232.5 -72q113 0 219.5 55.5t183.5 156t103 224.5l53 244q-80 -138 -219.5 -221.5t-296.5 -83.5q-222 0 -329.5 147t-57.5 381
q47 225 219 373t389 148q159 0 262 -81t125 -216l60 280h73zM500 68q188 0 338.5 129t193.5 329q41 198 -54 327.5t-284 129.5q-193 0 -343 -128t-193 -329q-44 -204 51.5 -331t290.5 -127z" />
    <glyph glyph-name="Hcircumflex" unicode="&#x124;" horiz-adv-x="1591" 
d="M1229 1604l-187 274l-305 -274h-78l355 321h76l217 -321h-78zM1503 1434l-303 -1434h-76l136 631h-961l-133 -631h-76l303 1434h76l-156 -732h959l155 732h76z" />
    <glyph glyph-name="hcircumflex" unicode="&#x125;" horiz-adv-x="1234" 
d="M680 1669l-188 275l-304 -275h-77l354 322h74l219 -322h-78zM713 1051q170 0 264 -119.5t59 -288.5l-135 -643h-74l134 633q31 146 -51 249t-228 103q-150 0 -275.5 -103.5t-156.5 -252.5l-133 -629h-74l317 1499h74l-145 -682q70 105 185 169.5t239 64.5z" />
    <glyph glyph-name="Hbar" unicode="&#x126;" horiz-adv-x="1656" 
d="M1604 1067h-144l-227 -1067h-76l148 702h-959l-147 -702h-78l227 1067h-143l12 59h143l64 308h78l-66 -308h959l65 308h76l-63 -308h143zM1382 1067h-958l-62 -293h957z" />
    <glyph glyph-name="hbar" unicode="&#x127;" horiz-adv-x="1234" 
d="M743 1042q184 0 256.5 -107t26.5 -317l-129 -618h-74l127 608q79 367 -239 367q-174 0 -303.5 -104t-167.5 -285l-123 -586h-74l262 1243h-188l12 55h188l43 201h74l-43 -201h434l-10 -55h-436l-100 -467q65 123 188 194.5t276 71.5z" />
    <glyph glyph-name="Itilde" unicode="&#x128;" horiz-adv-x="565" 
d="M635 1655q-41 0 -76 19t-74 65q-31 37 -56.5 52t-57.5 15q-46 0 -81 -37t-48 -102h-60q18 92 71.5 145.5t119.5 53.5q76 0 149 -84q32 -38 57.5 -53t59.5 -15q45 0 80 37.5t47 103.5h59q-18 -93 -71 -146.5t-119 -53.5zM395 1434h78l-303 -1434h-78z" />
    <glyph glyph-name="itilde" unicode="&#x129;" horiz-adv-x="464" 
d="M348 1333q-50 66 -106 66q-39 0 -64.5 -33t-40.5 -106h-57q45 198 164 198q75 0 143 -84q54 -65 111 -65q39 0 64 33t40 108h55q-42 -201 -163 -201q-73 0 -146 84zM262 1024h74l-217 -1024h-74z" />
    <glyph glyph-name="Imacron" unicode="&#x12a;" horiz-adv-x="565" 
d="M203 1761h602l-14 -63h-601zM395 1434h78l-303 -1434h-78z" />
    <glyph glyph-name="imacron" unicode="&#x12b;" horiz-adv-x="464" 
d="M117 1354h504l-13 -64h-504zM262 1024h74l-217 -1024h-74z" />
    <glyph glyph-name="Ibreve" unicode="&#x12c;" horiz-adv-x="565" 
d="M473 1618q-271 0 -221 250l2 6h63q-22 -104 18.5 -152.5t149.5 -48.5q108 0 168.5 48t83.5 153h64v-6q-53 -250 -328 -250zM395 1434h78l-303 -1434h-78z" />
    <glyph glyph-name="ibreve" unicode="&#x12d;" horiz-adv-x="464" 
d="M340 1210q-261 0 -205 252v4h62q-22 -105 14.5 -152.5t138.5 -47.5q103 0 160.5 48t79.5 152h61v-4q-56 -252 -311 -252zM262 1024h74l-217 -1024h-74z" />
    <glyph glyph-name="Iogonek" unicode="&#x12e;" horiz-adv-x="565" 
d="M170 0q-230 -119 -256 -248q-13 -66 24 -96t125 -33h25l-12 -57h-31q-116 1 -166 46t-33 130q33 151 254 266l-4 12l299 1414h78z" />
    <glyph glyph-name="iogonek" unicode="&#x12f;" horiz-adv-x="464" 
d="M385 1427q28 0 42 -17.5t7 -43.5q-4 -27 -26 -45t-50 -18t-42 17.5t-9 45.5q6 26 28 43.5t50 17.5zM262 1024h74l-217 -1024q-230 -119 -256 -248q-12 -65 27 -97t133 -32h14l-10 -57h-23q-124 0 -175.5 45.5t-33.5 130.5q33 154 256 266l-4 6z" />
    <glyph glyph-name="Idotaccent" unicode="&#x130;" horiz-adv-x="565" 
d="M492 1710q-28 0 -42 17t-8 45q4 27 26 45t50 18t41.5 -17.5t7.5 -45.5q-6 -27 -27 -44.5t-48 -17.5zM395 1434h78l-303 -1434h-78z" />
    <glyph glyph-name="dotlessi" unicode="&#x131;" horiz-adv-x="464" 
d="M262 1024h74l-217 -1024h-74z" />
    <glyph glyph-name="ij" unicode="&#x133;" horiz-adv-x="931" 
d="M356 1303q-28 0 -42 17.5t-9 45.5q8 27 29.5 44t48.5 17q29 0 43 -17t8 -44q-6 -28 -28 -45.5t-50 -17.5zM823 1303q-28 0 -42.5 17.5t-8.5 45.5q6 26 28 43.5t50 17.5t41.5 -17.5t7.5 -43.5q-4 -27 -26 -45t-50 -18zM262 1024h74l-217 -1024h-74zM174 -344h94
q80 0 134 46t71 130l254 1192h74l-256 -1200q-23 -115 -95.5 -174.5t-185.5 -59.5h-104z" />
    <glyph glyph-name="Jcircumflex" unicode="&#x134;" horiz-adv-x="1198" 
d="M1374 1604l-186 274l-305 -274h-78l354 321h76l217 -321h-78zM369 -27q-124 0 -216.5 60.5t-132.5 164.5t-16 226l82 29l-6 -23q-32 -157 57 -269t248 -112q158 0 293.5 112t169.5 269l213 1004h74l-213 -1002q-25 -125 -108.5 -230.5t-202 -167t-242.5 -61.5z" />
    <glyph glyph-name="jcircumflex" unicode="&#x135;" horiz-adv-x="464" 
d="M625 1196h-74l-158 274l-272 -274h-74l322 322h71zM262 1024h74l-256 -1200q-25 -115 -97.5 -174.5t-183.5 -59.5h-104l14 66h94q80 0 134 46t71 130z" />
    <glyph glyph-name="uni0136" unicode="&#x136;" horiz-adv-x="1304" 
d="M1401 1434l-1006 -732l695 -702h-99l-661 653l-33 -26l-131 -627h-76l303 1434h76l-150 -711l984 711h98zM469 -201h76l-170 -344h-60z" />
    <glyph glyph-name="uni0137" unicode="&#x137;" horiz-adv-x="1007" 
d="M733 0l-485 500l-35 -27l-98 -473h-72l317 1497h72l-199 -936l699 463h90l-707 -477l506 -547h-88zM324 -201h75l-170 -344h-61z" />
    <glyph glyph-name="Lacute" unicode="&#x139;" horiz-adv-x="1218" 
d="M500 1604h-78l270 321h82zM997 72l-14 -72h-893l303 1434h76l-291 -1362h819z" />
    <glyph glyph-name="lacute" unicode="&#x13a;" horiz-adv-x="452" 
d="M455 1669h-78l272 322h80zM35 0l317 1499h74l-317 -1499h-74z" />
    <glyph glyph-name="uni013B" unicode="&#x13b;" horiz-adv-x="1218" 
d="M999 72l-14 -72h-897l303 1434h78l-291 -1362h821zM434 -201h74l-170 -344h-59z" />
    <glyph glyph-name="uni013C" unicode="&#x13c;" horiz-adv-x="452" 
d="M35 0l317 1499h74l-317 -1499h-74zM4 -201h76l-170 -344h-62z" />
    <glyph glyph-name="Lcaron" unicode="&#x13d;" horiz-adv-x="1218" 
d="M819 1458h74l-96 -389h-62zM999 72l-14 -72h-897l303 1434h78l-291 -1362h821z" />
    <glyph glyph-name="lcaron" unicode="&#x13e;" horiz-adv-x="452" 
d="M35 0l317 1499h74l-317 -1499h-74zM522 1499h66l-82 -389h-68z" />
    <glyph glyph-name="Ldot" unicode="&#x13f;" horiz-adv-x="1230" 
d="M999 72l-14 -72h-897l303 1434h78l-291 -1362h821zM778 670q-28 0 -41.5 18.5t-7.5 46.5q4 29 27 47.5t51 18.5q29 0 43 -18.5t8 -47.5q-6 -28 -28.5 -46.5t-51.5 -18.5z" />
    <glyph glyph-name="ldot" unicode="&#x140;" horiz-adv-x="452" 
d="M35 0l317 1499h74l-317 -1499h-74zM455 672q-26 0 -40.5 17.5t-8.5 43.5q4 27 26 45.5t49 18.5q26 0 40.5 -18t10.5 -46q-6 -26 -28.5 -43.5t-48.5 -17.5z" />
    <glyph glyph-name="Lslash" unicode="&#x141;" horiz-adv-x="1247" 
d="M1030 72l-14 -72h-897l117 555l-287 -133l16 72l285 131l172 809h76l-162 -768l653 305l-12 -70l-655 -305l-113 -524h821z" />
    <glyph glyph-name="lslash" unicode="&#x142;" horiz-adv-x="653" 
d="M336 762l-160 -762h-74l152 723l-244 -121l15 70l245 119l150 708h74l-142 -668l303 146l-16 -68z" />
    <glyph glyph-name="Nacute" unicode="&#x143;" horiz-adv-x="1615" 
d="M965 1604h-78l272 321h82zM1528 1434l-303 -1434h-72l-713 1305l-278 -1305h-74l303 1434h70l715 -1307l278 1307h74z" />
    <glyph glyph-name="nacute" unicode="&#x144;" horiz-adv-x="1234" 
d="M721 1196h-78l270 322h82zM707 1049q168 0 262 -119t59 -285l-137 -645h-76l135 629q29 146 -50 248t-226 102q-146 0 -269.5 -102.5t-152.5 -247.5l-133 -629h-76l217 1024h74l-45 -213q70 107 183 172.5t235 65.5z" />
    <glyph glyph-name="uni0145" unicode="&#x145;" horiz-adv-x="1615" 
d="M1528 1434l-303 -1434h-78l-705 1313l-278 -1313h-76l303 1434h78l705 -1313l278 1313h76zM575 -201h74l-168 -344h-61z" />
    <glyph glyph-name="uni0146" unicode="&#x146;" horiz-adv-x="1234" 
d="M707 1049q168 0 262 -119t59 -285l-137 -645h-76l135 629q29 146 -50 248t-226 102q-146 0 -269.5 -102.5t-152.5 -247.5l-133 -629h-76l217 1024h74l-45 -213q70 107 183 172.5t235 65.5zM385 -201h74l-170 -344h-60z" />
    <glyph glyph-name="Ncaron" unicode="&#x147;" horiz-adv-x="1615" 
d="M958 1604l-219 321h80l187 -274l303 274h80l-357 -321h-74zM1528 1434l-303 -1434h-72l-713 1305l-278 -1305h-74l303 1434h70l715 -1307l278 1307h74z" />
    <glyph glyph-name="ncaron" unicode="&#x148;" horiz-adv-x="1234" 
d="M1116 1518l-356 -322h-74l-219 322h80l186 -273l303 273h80zM707 1049q168 0 262 -119t59 -285l-137 -645h-76l135 629q29 146 -50 248t-226 102q-146 0 -269.5 -102.5t-152.5 -247.5l-133 -629h-76l217 1024h74l-45 -213q70 107 183 172.5t235 65.5z" />
    <glyph glyph-name="Eng" unicode="&#x14a;" horiz-adv-x="1615" 
d="M1528 1434l-326 -1534q-25 -116 -96.5 -176t-183.5 -60h-105l14 70h95q80 0 131.5 43.5t70.5 126.5l21 102l-709 1299l-278 -1305h-74l303 1434h70l715 -1307l278 1307h74z" />
    <glyph glyph-name="eng" unicode="&#x14b;" horiz-adv-x="1234" 
d="M707 1049q168 0 262 -119t59 -285l-164 -770q-23 -101 -95.5 -156t-178.5 -55h-105l13 68h94q77 0 131.5 41t69.5 114l157 742q29 146 -50 248t-226 102q-146 0 -269.5 -102.5t-152.5 -247.5l-133 -629h-76l217 1024h74l-45 -213q70 107 183 172.5t235 65.5z" />
    <glyph glyph-name="Omacron" unicode="&#x14c;" horiz-adv-x="1742" 
d="M793 1761h602l-15 -63h-602zM150 717q44 209 174 379t316 266.5t390 95.5q122 1 225.5 -35.5t177 -102.5t121 -158.5t56 -204.5t-16.5 -240q-43 -209 -173 -379.5t-316 -267t-389 -95.5q-204 -1 -349 95.5t-202.5 267t-13.5 379.5zM1513 717q33 146 9 268.5t-89.5 211.5
t-174 139t-244.5 50q-181 0 -346 -85.5t-281.5 -238.5t-157.5 -345q-33 -146 -8 -269t90.5 -212t174 -139t243.5 -50q136 0 265.5 50.5t233 138.5t179 212.5t106.5 268.5z" />
    <glyph glyph-name="omacron" unicode="&#x14d;" horiz-adv-x="1288" 
d="M477 1354h602l-12 -64h-602zM487 -25q-230 0 -343 151t-62 388q50 233 229.5 386t405.5 153q151 0 255.5 -70t144.5 -193t7 -276q-50 -229 -231.5 -384t-405.5 -155zM504 43q196 0 350 133.5t197 337.5q43 202 -55.5 336.5t-293.5 134.5q-196 0 -348.5 -132.5
t-195.5 -338.5q-44 -207 52 -339t294 -132z" />
    <glyph glyph-name="Obreve" unicode="&#x14e;" horiz-adv-x="1742" 
d="M1063 1618q-124 0 -184 68.5t-37 181.5l2 6h63q-20 -90 27 -145.5t141 -55.5t163 55t89 146h64v-6q-25 -113 -115 -181.5t-213 -68.5zM723 -25q-200 0 -346 98.5t-206 269t-17 374.5q32 152 118.5 289t204 236t264.5 157.5t297 58.5q120 0 223.5 -37.5t177 -104.5
t122.5 -160t59 -203.5t-14 -235.5q-43 -204 -175.5 -374.5t-320 -269t-387.5 -98.5zM739 47q177 0 345.5 89.5t288 243.5t157.5 337t-15.5 336.5t-184 243t-308.5 89.5t-346.5 -89.5t-288 -243t-158.5 -336.5q-38 -183 16 -337t185 -243.5t309 -89.5z" />
    <glyph glyph-name="obreve" unicode="&#x14f;" horiz-adv-x="1288" 
d="M530 1466h64q-20 -89 26 -144.5t140 -55.5t164 55.5t90 144.5h63q-25 -116 -114.5 -186t-212.5 -70q-124 0 -184.5 70t-35.5 186zM487 -25q-230 0 -343 151t-62 388q50 233 229.5 386t405.5 153q151 0 255.5 -70t144.5 -193t7 -276q-50 -229 -231.5 -384t-405.5 -155z
M504 43q196 0 350 133.5t197 337.5q43 202 -55.5 336.5t-293.5 134.5q-196 0 -348.5 -132.5t-195.5 -338.5q-44 -207 52 -339t294 -132z" />
    <glyph glyph-name="Ohungarumlaut" unicode="&#x150;" horiz-adv-x="1742" 
d="M1106 1925h78l-326 -321h-78zM1460 1925h80l-326 -321h-77zM150 717q44 209 174 379t316 266.5t390 95.5q122 1 225.5 -35.5t177 -102.5t121 -158.5t56 -204.5t-16.5 -240q-43 -209 -173 -379.5t-316 -267t-389 -95.5q-204 -1 -349 95.5t-202.5 267t-13.5 379.5z
M1513 717q33 146 9 268.5t-89.5 211.5t-174 139t-244.5 50q-181 0 -346 -85.5t-281.5 -238.5t-157.5 -345q-33 -146 -8 -269t90.5 -212t174 -139t243.5 -50q136 0 265.5 50.5t233 138.5t179 212.5t106.5 268.5z" />
    <glyph glyph-name="ohungarumlaut" unicode="&#x151;" horiz-adv-x="1288" 
d="M545 1196h-78l272 322h82zM877 1196h-78l270 322h82zM487 -25q-230 0 -343 151t-62 388q50 233 229.5 386t405.5 153q151 0 255.5 -70t144.5 -193t7 -276q-50 -229 -231.5 -384t-405.5 -155zM504 43q196 0 350 133.5t197 337.5q43 202 -55.5 336.5t-293.5 134.5
q-196 0 -348.5 -132.5t-195.5 -338.5q-44 -207 52 -339t294 -132z" />
    <glyph glyph-name="OE" unicode="&#x152;" horiz-adv-x="2289" 
d="M1991 72l-15 -72h-1255q-154 0 -277 52.5t-198 147t-103 226.5t7 291q44 208 173 372.5t312.5 254.5t388.5 90h1235l-14 -70h-848l-129 -604h811l-17 -72h-811l-131 -616h871zM1044 72l275 1290h-309q-136 0 -264.5 -47t-232 -130t-178.5 -204t-106 -264
q-32 -146 -7 -265t92 -203.5t175.5 -130.5t245.5 -46h309z" />
    <glyph glyph-name="oe" unicode="&#x153;" horiz-adv-x="2181" 
d="M1122 506q0 -4 -2 -6q-40 -206 54.5 -333.5t287.5 -127.5q124 0 237 57t197 160l41 -41q-92 -114 -221 -178t-268 -64q-171 0 -278.5 88.5t-129.5 241.5q-91 -149 -239 -238.5t-314 -89.5q-230 0 -343 151t-62 388q50 233 229.5 386t405.5 153q171 0 281 -89t135 -239
q87 149 230.5 236.5t309.5 87.5q219 0 312.5 -145t35.5 -398h-899zM1661 987q-184 0 -330 -119t-196 -307h825q37 194 -44 310t-255 116zM504 43q196 0 350 133.5t197 337.5q43 202 -55.5 336.5t-293.5 134.5q-196 0 -348.5 -132.5t-195.5 -338.5q-44 -207 52 -339t294 -132
z" />
    <glyph glyph-name="Racute" unicode="&#x154;" horiz-adv-x="1425" 
d="M856 1604h-78l273 321h79zM670 594h-381l-125 -586h-74l301 1426h610q112 0 195.5 -56.5t119 -152.5t11.5 -209q-35 -168 -175.5 -289t-305.5 -129h-88l360 -578l-80 -20zM303 666h528q143 0 265.5 102t154.5 248q29 143 -50 245.5t-220 102.5h-528z" />
    <glyph glyph-name="racute" unicode="&#x155;" horiz-adv-x="759" 
d="M543 1196h-78l270 322h82zM700 1042q58 0 101 -14l-23 -70q-57 11 -102 11q-150 0 -275 -102.5t-157 -254.5l-129 -612h-72l217 1024h70l-47 -219q72 106 185 171.5t232 65.5z" />
    <glyph glyph-name="uni0156" unicode="&#x156;" horiz-adv-x="1425" 
d="M670 594h-381l-125 -586h-74l301 1426h610q112 0 195.5 -56.5t119 -152.5t11.5 -209q-35 -168 -175.5 -289t-305.5 -129h-88l360 -578l-80 -20zM303 666h528q143 0 265.5 102t154.5 248q29 143 -50 245.5t-220 102.5h-528zM487 -201h76l-170 -344h-59z" />
    <glyph glyph-name="uni0157" unicode="&#x157;" horiz-adv-x="759" 
d="M700 1042q58 0 101 -14l-23 -70q-57 11 -102 11q-150 0 -275 -102.5t-157 -254.5l-129 -612h-72l217 1024h70l-47 -219q72 106 185 171.5t232 65.5zM-2 -201h76l-170 -344h-60z" />
    <glyph glyph-name="Rcaron" unicode="&#x158;" horiz-adv-x="1425" 
d="M850 1604l-219 321h80l186 -274l303 274h80l-356 -321h-74zM670 594h-381l-125 -586h-74l301 1426h610q112 0 195.5 -56.5t119 -152.5t11.5 -209q-35 -168 -175.5 -289t-305.5 -129h-88l360 -578l-80 -20zM303 666h528q143 0 265.5 102t154.5 248q29 143 -50 245.5
t-220 102.5h-528z" />
    <glyph glyph-name="rcaron" unicode="&#x159;" horiz-adv-x="759" 
d="M893 1518l-356 -322h-74l-219 322h80l186 -273l303 273h80zM700 1042q58 0 101 -14l-23 -70q-57 11 -102 11q-150 0 -275 -102.5t-157 -254.5l-129 -612h-72l217 1024h70l-47 -219q72 106 185 171.5t232 65.5z" />
    <glyph glyph-name="Sacute" unicode="&#x15a;" horiz-adv-x="1261" 
d="M856 1604h-78l273 321h79zM498 -25q-204 0 -327.5 86.5t-152.5 245.5l66 35q68 -297 432 -297q197 0 324.5 87t158.5 237q25 115 -36.5 185.5t-235.5 113.5l-184 45q-200 51 -275.5 137t-44.5 227q36 174 186 277.5t377 103.5q185 0 300 -70t143 -198l-66 -37
q-58 236 -393 236q-193 0 -315 -81t-154 -231q-24 -112 37 -180.5t244 -114.5l192 -47q193 -50 263 -137.5t40 -224.5q-37 -183 -192.5 -290.5t-386.5 -107.5z" />
    <glyph glyph-name="sacute" unicode="&#x15b;" horiz-adv-x="1013" 
d="M639 1196h-76l271 322h81zM369 -25q-149 0 -251 55t-136 150l53 45q34 -87 124.5 -136.5t221.5 -49.5q147 0 238 61.5t114 163.5q18 77 -24 124.5t-158 76.5l-205 51q-125 32 -173 94t-26 160q28 133 144 208t295 75q134 0 222.5 -44.5t119.5 -127.5l-54 -43
q-65 151 -301 151q-149 0 -238.5 -57t-111.5 -162q-17 -77 22.5 -123t155.5 -76l205 -51q130 -33 177.5 -95.5t25.5 -158.5q-28 -133 -144 -212t-296 -79z" />
    <glyph glyph-name="Scircumflex" unicode="&#x15c;" horiz-adv-x="1261" 
d="M573 1604h-77l354 321h76l217 -321h-78l-186 274zM774 735q193 -50 263 -137.5t40 -224.5q-37 -183 -192.5 -290.5t-386.5 -107.5q-204 0 -327.5 86.5t-152.5 245.5l66 35q68 -297 432 -297q197 0 324.5 87t158.5 237q25 115 -36.5 185.5t-235.5 113.5l-184 45
q-200 51 -275.5 137t-44.5 227q36 174 186 277.5t377 103.5q185 0 300 -70t143 -198l-66 -37q-58 236 -393 236q-193 0 -315 -81t-154 -231q-24 -112 37 -180.5t244 -114.5z" />
    <glyph glyph-name="scircumflex" unicode="&#x15d;" horiz-adv-x="1013" 
d="M369 1196h-80l356 322h74l219 -322h-80l-186 274zM606 520q130 -33 177.5 -95.5t25.5 -158.5q-28 -133 -144 -212t-296 -79q-149 0 -251 55t-136 150l53 45q34 -87 124.5 -136.5t221.5 -49.5q147 0 238 61.5t114 163.5q18 77 -24 124.5t-158 76.5l-205 51
q-125 32 -173 94t-26 160q28 133 144 208t295 75q134 0 222.5 -44.5t119.5 -127.5l-54 -43q-65 151 -301 151q-149 0 -238.5 -57t-111.5 -162q-17 -77 22.5 -123t155.5 -76z" />
    <glyph glyph-name="Scedilla" unicode="&#x15e;" horiz-adv-x="1261" 
d="M535 -25l-201 -376h-76l209 376q-192 6 -306.5 91.5t-142.5 240.5l66 35q68 -297 432 -297q197 0 324.5 87t158.5 237q25 115 -36.5 185.5t-235.5 113.5l-184 45q-200 51 -275.5 137t-44.5 227q36 174 186 277.5t377 103.5q185 0 300 -70t143 -198l-66 -37
q-58 236 -393 236q-193 0 -315 -81t-154 -231q-24 -112 37 -180.5t244 -114.5l192 -47q193 -50 263 -137.5t40 -224.5q-37 -177 -180.5 -283t-361.5 -115z" />
    <glyph glyph-name="scedilla" unicode="&#x15f;" horiz-adv-x="1013" 
d="M809 266q-27 -127 -136.5 -206t-279.5 -83l-200 -378h-76l209 376q-133 7 -224 62t-120 143l53 45q34 -87 124.5 -136.5t221.5 -49.5q147 0 238 61.5t114 163.5q18 77 -24 124.5t-158 76.5l-205 51q-125 32 -173 94t-26 160q28 133 144 208t295 75q134 0 222.5 -44.5
t119.5 -127.5l-54 -43q-65 151 -301 151q-149 0 -238.5 -57t-111.5 -162q-17 -77 22.5 -123t155.5 -76l205 -51q130 -33 177.5 -95.5t25.5 -158.5z" />
    <glyph glyph-name="Scaron" unicode="&#x160;" horiz-adv-x="1261" 
d="M782 1604l-219 321h80l186 -274l304 274h79l-356 -321h-74zM774 735q193 -50 263 -137.5t40 -224.5q-37 -183 -192.5 -290.5t-386.5 -107.5q-204 0 -327.5 86.5t-152.5 245.5l66 35q68 -297 432 -297q197 0 324.5 87t158.5 237q25 115 -36.5 185.5t-235.5 113.5l-184 45
q-200 51 -275.5 137t-44.5 227q36 174 186 277.5t377 103.5q185 0 300 -70t143 -198l-66 -37q-58 236 -393 236q-193 0 -315 -81t-154 -231q-24 -112 37 -180.5t244 -114.5z" />
    <glyph glyph-name="scaron" unicode="&#x161;" horiz-adv-x="1013" 
d="M575 1196l-217 322h78l189 -273l303 273h78l-355 -322h-76zM606 520q130 -33 177.5 -95.5t25.5 -158.5q-28 -133 -144 -212t-296 -79q-149 0 -251 55t-136 150l53 45q34 -87 124.5 -136.5t221.5 -49.5q147 0 238 61.5t114 163.5q18 77 -24 124.5t-158 76.5l-205 51
q-125 32 -173 94t-26 160q28 133 144 208t295 75q134 0 222.5 -44.5t119.5 -127.5l-54 -43q-65 151 -301 151q-149 0 -238.5 -57t-111.5 -162q-17 -77 22.5 -123t155.5 -76z" />
    <glyph glyph-name="uni0162" unicode="&#x162;" horiz-adv-x="1241" 
d="M1335 1434l-14 -72h-524l-289 -1362h-6l-215 -401h-74l221 401l-2 10l287 1352h-522l14 72h1124z" />
    <glyph glyph-name="uni0163" unicode="&#x163;" horiz-adv-x="794" 
d="M408 958l-164 -772q-10 -49 16 -82.5t76 -33.5h242l-13 -70h-190l-211 -401h-70l217 401q-74 0 -116 52.5t-27 127.5l166 778h-232l17 68h229l68 311h73l-67 -311h358l-14 -68h-358z" />
    <glyph glyph-name="Tcaron" unicode="&#x164;" horiz-adv-x="1241" 
d="M770 1604l-217 321h78l188 -274l303 274h78l-354 -321h-76zM1335 1434l-14 -72h-524l-289 -1362h-78l289 1362h-522l14 72h1124z" />
    <glyph glyph-name="tcaron" unicode="&#x165;" horiz-adv-x="788" 
d="M756 1597h65l-82 -389h-67zM229 0q-40 0 -62.5 28t-14.5 68l182 862h-232l17 68h229l68 311h73l-67 -311h358l-14 -68h-358l-181 -858q-3 -13 4 -21.5t19 -8.5h328l-13 -70h-336z" />
    <glyph glyph-name="Tbar" unicode="&#x166;" horiz-adv-x="1241" 
d="M797 1362l-127 -592h338l-13 -63h-338l-149 -707h-78l152 707h-338l12 63h338l125 592h-522l14 72h1124l-14 -72h-524z" />
    <glyph glyph-name="tbar" unicode="&#x167;" horiz-adv-x="794" 
d="M766 958h-358l-74 -350h360l-14 -65h-361l-75 -357q-10 -49 16 -82.5t76 -33.5h242l-13 -70h-254q-74 0 -116 52.5t-27 127.5l78 363h-232l17 65h229l74 350h-232l17 68h229l68 311h73l-67 -311h358z" />
    <glyph glyph-name="Utilde" unicode="&#x168;" horiz-adv-x="1558" 
d="M1133 1655q-79 0 -152 84q-29 37 -55 52t-60 15q-45 0 -80.5 -37t-48.5 -102h-59q20 92 72.5 145.5t119.5 53.5q78 0 148 -84q32 -38 57.5 -53t59.5 -15q45 0 80.5 37.5t48.5 103.5h59q-20 -93 -72 -146.5t-118 -53.5zM633 -25q-118 0 -210.5 35.5t-153 105.5t-80.5 173
t8 239l192 906h76l-195 -910q-24 -120 -7 -209.5t70.5 -149t133 -89t180.5 -29.5q139 0 256 51.5t204 161t120 264.5l192 910h76l-192 -906q-37 -176 -138 -303t-237.5 -188.5t-294.5 -61.5z" />
    <glyph glyph-name="utilde" unicode="&#x169;" horiz-adv-x="1224" 
d="M723 1333q-27 36 -53 51t-60 15q-45 0 -80.5 -37t-48.5 -102h-59q20 93 72 145.5t120 52.5q80 0 148 -84q30 -36 56 -50.5t59 -14.5q46 0 81 37t50 104h59q-20 -93 -73.5 -147t-119.5 -54q-41 0 -76 19t-75 65zM1098 1024l-217 -1024h-74l45 211q-72 -106 -185.5 -171
t-234.5 -65q-167 0 -260.5 118.5t-58.5 285.5l137 645h74l-134 -629q-31 -146 50.5 -248t226.5 -102q143 0 267.5 102t156.5 248l133 629h74z" />
    <glyph glyph-name="Umacron" unicode="&#x16a;" horiz-adv-x="1558" 
d="M700 1761h600l-12 -63h-602zM633 -25q-118 0 -210.5 35.5t-153 105.5t-80.5 173t8 239l192 906h76l-195 -910q-24 -120 -7 -209.5t70.5 -149t133 -89t180.5 -29.5q139 0 256 51.5t204 161t120 264.5l192 910h76l-192 -906q-37 -176 -138 -303t-237.5 -188.5t-294.5 -61.5
z" />
    <glyph glyph-name="umacron" unicode="&#x16b;" horiz-adv-x="1224" 
d="M442 1354h602l-12 -64h-602zM1098 1024l-217 -1024h-74l45 211q-72 -106 -185.5 -171t-234.5 -65q-167 0 -260.5 118.5t-58.5 285.5l137 645h74l-134 -629q-31 -146 50.5 -248t226.5 -102q143 0 267.5 102t156.5 248l133 629h74z" />
    <glyph glyph-name="Ubreve" unicode="&#x16c;" horiz-adv-x="1558" 
d="M969 1618q-123 0 -183.5 69t-35.5 181v6h65q-20 -90 27 -145.5t141 -55.5t162.5 55t87.5 146h65l-2 -6q-23 -113 -113 -181.5t-214 -68.5zM633 -25q-118 0 -210.5 35.5t-153 105.5t-80.5 173t8 239l192 906h76l-195 -910q-24 -120 -7 -209.5t70.5 -149t133 -89
t180.5 -29.5q139 0 256 51.5t204 161t120 264.5l192 910h76l-192 -906q-37 -176 -138 -303t-237.5 -188.5t-294.5 -61.5z" />
    <glyph glyph-name="ubreve" unicode="&#x16d;" horiz-adv-x="1224" 
d="M494 1466h65q-20 -89 26 -144.5t140 -55.5t163.5 55.5t88.5 144.5h65l-2 -4q-23 -114 -112.5 -183t-212.5 -69q-125 0 -185.5 69t-35.5 183v4zM1098 1024l-217 -1024h-74l45 211q-72 -106 -185.5 -171t-234.5 -65q-167 0 -260.5 118.5t-58.5 285.5l137 645h74l-134 -629
q-31 -146 50.5 -248t226.5 -102q143 0 267.5 102t156.5 248l133 629h74z" />
    <glyph glyph-name="Uring" unicode="&#x16e;" horiz-adv-x="1558" 
d="M969 1610q-95 0 -145.5 61t-30.5 152q19 91 95.5 152t172.5 61q95 0 145 -61t31 -152q-20 -91 -96 -152t-172 -61zM979 1661q75 0 130.5 45t70.5 117t-21.5 117t-109.5 45q-75 0 -130 -45t-69 -117q-17 -72 19 -117t110 -45zM633 -25q-118 0 -210.5 35.5t-153 105.5
t-80.5 173t8 239l192 906h76l-195 -910q-24 -120 -7 -209.5t70.5 -149t133 -89t180.5 -29.5q139 0 256 51.5t204 161t120 264.5l192 910h76l-192 -906q-37 -176 -138 -303t-237.5 -188.5t-294.5 -61.5z" />
    <glyph glyph-name="uring" unicode="&#x16f;" horiz-adv-x="1224" 
d="M535 1415q20 92 96 153.5t172 61.5q95 0 145.5 -62t30.5 -153q-19 -90 -95 -151.5t-171 -61.5q-96 0 -146.5 61.5t-31.5 151.5zM922 1415q15 72 -20.5 117t-108.5 45q-75 0 -130.5 -45t-70.5 -117q-14 -71 21.5 -115.5t109.5 -44.5t130 45t69 115zM1098 1024l-217 -1024
h-74l45 211q-72 -106 -185.5 -171t-234.5 -65q-167 0 -260.5 118.5t-58.5 285.5l137 645h74l-134 -629q-31 -146 50.5 -248t226.5 -102q143 0 267.5 102t156.5 248l133 629h74z" />
    <glyph glyph-name="Uhungarumlaut" unicode="&#x170;" horiz-adv-x="1558" 
d="M1012 1925h80l-326 -321h-78zM1368 1925h78l-326 -321h-76zM633 -25q-118 0 -210.5 35.5t-153 105.5t-80.5 173t8 239l192 906h76l-195 -910q-24 -120 -7 -209.5t70.5 -149t133 -89t180.5 -29.5q139 0 256 51.5t204 161t120 264.5l192 910h76l-192 -906
q-37 -176 -138 -303t-237.5 -188.5t-294.5 -61.5z" />
    <glyph glyph-name="uhungarumlaut" unicode="&#x171;" horiz-adv-x="1224" 
d="M510 1196h-78l273 322h79zM872 1196h-77l270 322h82zM1098 1024l-217 -1024h-74l45 211q-72 -106 -185.5 -171t-234.5 -65q-167 0 -260.5 118.5t-58.5 285.5l137 645h74l-134 -629q-31 -146 50.5 -248t226.5 -102q143 0 267.5 102t156.5 248l133 629h74z" />
    <glyph glyph-name="Uogonek" unicode="&#x172;" horiz-adv-x="1558" 
d="M1419 1434h76l-192 -906q-41 -199 -162 -332.5t-291 -187.5q-219 -115 -246 -246q-14 -65 25.5 -96t134.5 -31h14l-12 -59h-23q-122 0 -173.5 45.5t-32.5 130.5q26 129 186 230q-51 -7 -90 -7q-118 0 -210.5 35.5t-153 105.5t-80.5 173t8 239l192 906h76l-195 -910
q-24 -120 -7 -209.5t70.5 -149t133 -89t180.5 -29.5q139 0 256 51.5t204 161t120 264.5z" />
    <glyph glyph-name="uogonek" unicode="&#x173;" horiz-adv-x="1224" 
d="M1024 1024h74l-215 -1010l-6 -14q-117 -61 -177.5 -121t-74.5 -127q-14 -65 25 -97t134 -32h15l-13 -57h-22q-123 0 -174.5 45.5t-32.5 130.5q34 155 254 266v12l41 191q-72 -106 -185.5 -171t-234.5 -65q-167 0 -260.5 118.5t-58.5 285.5l137 645h74l-134 -629
q-31 -146 50.5 -248t226.5 -102q143 0 267.5 102t156.5 248z" />
    <glyph glyph-name="Wcircumflex" unicode="&#x174;" horiz-adv-x="2084" 
d="M987 1604h-80l355 321h75l217 -321h-77l-187 274zM2107 1434h78l-768 -1434h-96l-145 1290l-699 -1290h-90l-170 1434h78l158 -1338l727 1338h49l153 -1350z" />
    <glyph glyph-name="wcircumflex" unicode="&#x175;" horiz-adv-x="1669" 
d="M692 1196h-78l355 322h73l220 -322h-78l-189 274zM1677 1024l-585 -1024h-80l-138 924l-526 -924h-80l-149 1024h74l137 -930l534 930h68l137 -930l533 930h75z" />
    <glyph glyph-name="Ycircumflex" unicode="&#x176;" horiz-adv-x="1257" 
d="M571 1604h-79l356 321h74l219 -321h-80l-184 274zM1417 1434l-764 -828l-127 -606h-75l127 606l-402 828h88l367 -754l696 752z" />
    <glyph glyph-name="ycircumflex" unicode="&#x177;" horiz-adv-x="1067" 
d="M391 1196h-78l355 322h75l218 -322h-78l-189 274zM1087 1028l-770 -1206q-85 -136 -165.5 -184t-214.5 -48h-125l14 68h117q110 0 175.5 37.5t129.5 140.5l102 158l-231 1034h80l209 -946l600 946h79z" />
    <glyph glyph-name="Ydieresis" unicode="&#x178;" horiz-adv-x="1257" 
d="M625 1710q-28 0 -42 17t-8 45q4 27 26 45t50 18t41.5 -17.5t7.5 -45.5t-26.5 -45t-48.5 -17zM1053 1708q-26 0 -39.5 18t-7.5 46q4 28 25.5 45.5t49.5 17.5q26 0 40 -17.5t9 -45.5q-6 -28 -27.5 -46t-49.5 -18zM1417 1434l-764 -828l-127 -606h-75l127 606l-402 828h88
l367 -754l696 752z" />
    <glyph glyph-name="Zacute" unicode="&#x179;" horiz-adv-x="1232" 
d="M780 1604h-78l324 321h88zM995 70l-14 -70h-1034l12 59l1198 1305h-901l14 70h1002l-12 -60l-1197 -1304h932z" />
    <glyph glyph-name="zacute" unicode="&#x17a;" horiz-adv-x="993" 
d="M606 1196h-76l271 322h82zM745 66l-14 -66h-778l10 51l868 912h-655l14 65h752l-12 -53l-869 -909h684z" />
    <glyph glyph-name="Zdotaccent" unicode="&#x17b;" horiz-adv-x="1232" 
d="M834 1710q-28 0 -42 17t-8 45q4 27 26 45t50 18t42 -17.5t9 -45.5q-6 -28 -27.5 -45t-49.5 -17zM995 70l-14 -70h-1034l12 59l1198 1305h-901l14 70h1002l-12 -60l-1197 -1304h932z" />
    <glyph glyph-name="zdotaccent" unicode="&#x17c;" horiz-adv-x="993" 
d="M625 1303q-27 0 -41.5 18t-10.5 45q6 26 29 45t49 19t40.5 -19t8.5 -45q-4 -27 -26 -45t-49 -18zM745 66l-14 -66h-778l10 51l868 912h-655l14 65h752l-12 -53l-869 -909h684z" />
    <glyph glyph-name="Zcaron" unicode="&#x17d;" horiz-adv-x="1232" 
d="M774 1604l-219 321h80l186 -274l303 274h78l-354 -321h-74zM995 70l-14 -70h-1034l12 59l1198 1305h-901l14 70h1002l-12 -60l-1197 -1304h932z" />
    <glyph glyph-name="zcaron" unicode="&#x17e;" horiz-adv-x="993" 
d="M993 1518l-354 -322h-74l-219 322h80l186 -273l303 273h78zM745 66l-14 -66h-778l10 51l868 912h-655l14 65h752l-12 -53l-869 -909h684z" />
    <glyph glyph-name="uni01CD" unicode="&#x1cd;" horiz-adv-x="1388" 
d="M848 1604l-219 321h80l186 -274l303 274h80l-356 -321h-74zM1001 416l-765 2l-265 -418h-82l910 1434h67l305 -1434h-81zM989 483l-176 856l-537 -856h713z" />
    <glyph glyph-name="uni01CE" unicode="&#x1ce;" horiz-adv-x="1048" 
d="M702 1196l-219 322h80l187 -273l303 273h80l-357 -322h-74zM793 0h-68l51 248q-64 -123 -186 -194.5t-277 -71.5q-164 0 -240.5 82t-47.5 221q26 128 134.5 207.5t281.5 101.5t403 -8l22 110q30 144 -32.5 217.5t-204.5 73.5q-230 0 -383 -178l-39 41q82 95 196 147
t242 52q174 0 251 -95t42 -266zM831 530q-200 30 -355 13.5t-254.5 -82.5t-121.5 -172q-26 -116 37.5 -181t200.5 -65q179 0 307 104t166 285z" />
    <glyph glyph-name="uni01E2" unicode="&#x1e2;" horiz-adv-x="2203" 
d="M1966 1698h-600l14 63h600zM1905 72l-15 -72h-946l84 403h-682l-371 -403h-92l1317 1434h973l-14 -72h-850l-127 -602h815l-17 -72h-815l-131 -616h871zM1042 471l191 899l-827 -899h636z" />
    <glyph glyph-name="uni01E3" unicode="&#x1e3;" horiz-adv-x="1959" 
d="M1468 1354l-12 -64h-602l12 64h602zM1800 506h-899q-43 -207 51 -337t289 -130q124 0 237 57t197 160l41 -41q-92 -114 -221 -178t-268 -64q-162 0 -268 80.5t-136 220.5q-78 -145 -216 -218.5t-294 -73.5q-164 0 -240.5 82t-47.5 221q26 128 134.5 207.5t281.5 101.5
t403 -8l22 110q30 144 -32.5 217.5t-204.5 73.5q-230 0 -383 -178l-39 41q82 95 196 147t242 52q148 0 226.5 -69t76.5 -196q91 123 223 194t281 71q219 0 312.5 -145t35.5 -398zM1440 987q-184 0 -330.5 -119t-196.5 -307h826q37 194 -44 310t-255 116zM338 43
q191 0 312.5 100.5t154.5 266.5l26 120q-200 30 -355 13.5t-254.5 -82.5t-121.5 -172q-26 -116 37.5 -181t200.5 -65z" />
    <glyph glyph-name="Gcaron" unicode="&#x1e6;" horiz-adv-x="1630" 
d="M1012 1604l-217 321h77l189 -274l303 274h78l-355 -321h-75zM1483 715l-109 -514q-153 -119 -311 -173.5t-354 -54.5q-209 4 -351.5 100.5t-196.5 264t-9 377.5q45 211 171 380t310 265t391 96q210 0 349.5 -95t185.5 -267l-76 -37q-38 159 -160 243t-315 84
q-183 0 -347 -86t-277.5 -239t-154.5 -344t7 -342t175 -237.5t312 -90.5q169 0 310.5 43t275.5 143l88 414h-422l14 70h494z" />
    <glyph glyph-name="gcaron" unicode="&#x1e7;" horiz-adv-x="1339" 
d="M1159 1518l-354 -322h-76l-217 322h78l188 -273l303 273h78zM1212 1030l-208 -975q-44 -213 -213 -357t-375 -144q-144 0 -259.5 79t-150.5 201l55 43q31 -110 134.5 -182t232.5 -72q113 0 219.5 55.5t183.5 156t103 224.5l53 244q-80 -138 -219.5 -221.5t-296.5 -83.5
q-222 0 -329.5 147t-57.5 381q47 225 219 373t389 148q159 0 262 -81t125 -216l60 280h73zM500 68q188 0 338.5 129t193.5 329q41 198 -54 327.5t-284 129.5q-193 0 -343 -128t-193 -329q-44 -204 51.5 -331t290.5 -127z" />
    <glyph glyph-name="uni01E8" unicode="&#x1e8;" horiz-adv-x="1304" 
d="M1303 1925l-355 -321h-74l-219 321h78l189 -274l303 274h78zM1401 1434l-1006 -732l695 -702h-99l-661 653l-33 -26l-131 -627h-76l303 1434h76l-150 -711l984 711h98z" />
    <glyph glyph-name="uni01E9" unicode="&#x1e9;" horiz-adv-x="1001" 
d="M395 1669l-217 322h78l188 -275l304 275h77l-354 -322h-76zM733 0l-485 500l-35 -27l-98 -473h-72l317 1497h72l-199 -936l699 463h90l-707 -477l506 -547h-88z" />
    <glyph glyph-name="AEacute" unicode="&#x1fc;" horiz-adv-x="2203" 
d="M1614 1604h-76l270 321h82zM1905 72l-15 -72h-946l84 403h-682l-371 -403h-92l1317 1434h973l-14 -72h-850l-127 -602h815l-17 -72h-815l-131 -616h871zM1042 471l191 899l-827 -899h636z" />
    <glyph glyph-name="aeacute" unicode="&#x1fd;" horiz-adv-x="1959" 
d="M1532 1518l-277 -322h-77l272 322h82zM1800 506h-899q-43 -207 51 -337t289 -130q124 0 237 57t197 160l41 -41q-92 -114 -221 -178t-268 -64q-162 0 -268 80.5t-136 220.5q-78 -145 -216 -218.5t-294 -73.5q-164 0 -240.5 82t-47.5 221q26 128 134.5 207.5t281.5 101.5
t403 -8l22 110q30 144 -32.5 217.5t-204.5 73.5q-230 0 -383 -178l-39 41q82 95 196 147t242 52q148 0 226.5 -69t76.5 -196q91 123 223 194t281 71q219 0 312.5 -145t35.5 -398zM1440 987q-184 0 -330.5 -119t-196.5 -307h826q37 194 -44 310t-255 116zM338 43
q191 0 312.5 100.5t154.5 266.5l26 120q-200 30 -355 13.5t-254.5 -82.5t-121.5 -172q-26 -116 37.5 -181t200.5 -65z" />
    <glyph glyph-name="Oslashacute" unicode="&#x1fe;" horiz-adv-x="1742" 
d="M1090 1604h-76l270 321h82zM1593 717q-43 -209 -173 -379.5t-316 -267t-389 -95.5q-147 0 -265 52t-192 147l-205 -170l-37 47l205 168q-135 203 -71 498q44 209 174 379t316 266.5t390 95.5q294 0 457 -196l207 170l35 -46l-207 -169q134 -210 71 -500zM229 717
q-55 -261 60 -445l1132 934q-67 86 -171 133t-236 47q-181 0 -346 -85.5t-281.5 -238.5t-157.5 -345zM1513 717q55 263 -61 444l-1130 -934q67 -86 172 -133t235 -47q136 0 265.5 50.5t233 138.5t179 212.5t106.5 268.5z" />
    <glyph glyph-name="oslashacute" unicode="&#x1ff;" horiz-adv-x="1296" 
d="M713 1196h-78l323 322h89zM1085 874q87 -148 41 -360q-51 -238 -227 -388.5t-410 -150.5q-217 0 -331 136l-160 -131l-33 43l160 131q-88 142 -41 360q50 238 225 388.5t410 150.5q218 0 334 -135l157 129l35 -41zM707 987q-199 0 -352 -130.5t-197 -342.5
q-43 -187 32 -311l805 661q-94 123 -288 123zM504 39q199 0 351.5 130.5t197.5 344.5q39 182 -33 311l-803 -663q96 -123 287 -123z" />
    <glyph glyph-name="uni0218" unicode="&#x218;" horiz-adv-x="1261" 
d="M498 -25q-204 0 -327.5 86.5t-152.5 245.5l66 35q68 -297 432 -297q197 0 324.5 87t158.5 237q25 115 -36.5 185.5t-235.5 113.5l-184 45q-200 51 -275.5 137t-44.5 227q36 174 186 277.5t377 103.5q185 0 300 -70t143 -198l-66 -37q-58 236 -393 236q-193 0 -315 -81
t-154 -231q-24 -112 37 -180.5t244 -114.5l192 -47q193 -50 263 -137.5t40 -224.5q-37 -183 -192.5 -290.5t-386.5 -107.5zM424 -201h74l-170 -344h-60z" />
    <glyph glyph-name="uni0219" unicode="&#x219;" horiz-adv-x="1013" 
d="M369 -25q-149 0 -251 55t-136 150l53 45q34 -87 124.5 -136.5t221.5 -49.5q147 0 238 61.5t114 163.5q18 77 -24 124.5t-158 76.5l-205 51q-125 32 -173 94t-26 160q28 133 144 208t295 75q134 0 222.5 -44.5t119.5 -127.5l-54 -43q-65 151 -301 151q-149 0 -238.5 -57
t-111.5 -162q-17 -77 22.5 -123t155.5 -76l205 -51q130 -33 177.5 -95.5t25.5 -158.5q-28 -133 -144 -212t-296 -79zM283 -201h73l-170 -344h-59z" />
    <glyph glyph-name="uni021A" unicode="&#x21a;" horiz-adv-x="1241" 
d="M719 1362h-522l14 72h1124l-14 -72h-524l-289 -1362h-78zM377 -201h76l-170 -344h-62z" />
    <glyph glyph-name="uni021B" unicode="&#x21b;" horiz-adv-x="794" 
d="M334 961h-232l15 67h233l66 309h73l-65 -309h356l-16 -67h-356l-150 -717q-22 -90 14.5 -133t130.5 -43h177l-15 -68h-188q-123 0 -172 57.5t-23 178.5zM254 -201h57l-155 -344h-58z" />
    <glyph glyph-name="uni0237" unicode="&#x237;" horiz-adv-x="464" 
d="M-291 -344h94q80 0 134 46t71 130l254 1192h74l-256 -1200q-25 -115 -97.5 -174.5t-183.5 -59.5h-104z" />
    <glyph glyph-name="circumflex" unicode="&#x2c6;" horiz-adv-x="1269" 
d="M983 1196l-188 274l-303 -274h-78l354 322h76l217 -322h-78z" />
    <glyph glyph-name="caron" unicode="&#x2c7;" horiz-adv-x="1269" 
d="M1128 1518l-354 -322h-74l-219 322h80l187 -273l303 273h77z" />
    <glyph glyph-name="breve" unicode="&#x2d8;" horiz-adv-x="1269" 
d="M739 1210q-136 0 -191.5 63.5t-27.5 188.5v4h66q-23 -104 17 -152t149 -48t169.5 48t82.5 152h65l-2 -4q-53 -252 -328 -252z" />
    <glyph glyph-name="dotaccent" unicode="&#x2d9;" horiz-adv-x="1269" 
d="M760 1303q-28 0 -42 17.5t-9 45.5q6 26 27.5 43.5t49.5 17.5t42.5 -17.5t7.5 -43.5q-4 -27 -26 -45t-50 -18z" />
    <glyph glyph-name="ring" unicode="&#x2da;" horiz-adv-x="1269" 
d="M737 1202q-95 0 -145 61.5t-31 151.5q20 92 96 153.5t172 61.5q95 0 146 -62t31 -153q-20 -90 -96.5 -151.5t-172.5 -61.5zM748 1255q75 0 130.5 44.5t69.5 115.5q15 72 -20.5 117t-108.5 45q-75 0 -130.5 -45t-70.5 -117q-15 -71 21 -115.5t109 -44.5z" />
    <glyph glyph-name="ogonek" unicode="&#x2db;" horiz-adv-x="1269" 
d="M465 -434h-23q-122 0 -174.5 45.5t-34.5 130.5q36 163 285 278l39 -20q-230 -119 -256 -248q-12 -65 27 -97t135 -32h12z" />
    <glyph glyph-name="tilde" unicode="&#x2dc;" horiz-adv-x="1269" 
d="M901 1249q-41 0 -76 19t-75 65q-27 36 -53 51t-60 15q-45 0 -80.5 -37t-48.5 -102h-62q21 93 74.5 145.5t120.5 52.5q41 0 75.5 -19t71.5 -65q31 -37 56 -51t59 -14q45 0 80.5 37.5t50.5 103.5h60q-21 -94 -74 -147.5t-119 -53.5z" />
    <glyph glyph-name="hungarumlaut" unicode="&#x2dd;" horiz-adv-x="1269" 
d="M836 1518h79l-325 -322h-78zM1192 1518h78l-326 -322h-76z" />
    <glyph glyph-name="gravecomb" unicode="&#x300;" 
d="M-549 1196l-199 322h91l186 -322h-78z" />
    <glyph glyph-name="acutecomb" unicode="&#x301;" 
d="M-268 1518h88l-336 -322h-76z" />
    <glyph glyph-name="uni0302" unicode="&#x302;" 
d="M-287 1196l-188 274l-303 -274h-78l354 322h74l219 -322h-78z" />
    <glyph glyph-name="tildecomb" unicode="&#x303;" 
d="M-369 1249q-41 0 -76 19t-75 65q-27 36 -53 51t-60 15q-45 0 -80.5 -37t-50.5 -102h-59q21 93 74 145.5t120 52.5q77 0 148 -84q31 -37 55.5 -51t58.5 -14q45 0 80.5 37.5t50.5 103.5h60q-21 -94 -74 -147.5t-119 -53.5z" />
    <glyph glyph-name="uni0304" unicode="&#x304;" 
d="M-801 1354h600l-12 -64h-600z" />
    <glyph glyph-name="uni0306" unicode="&#x306;" 
d="M-530 1210q-136 0 -192 63.5t-28 188.5v4h64q-22 -104 18.5 -152t149.5 -48t169.5 48t82.5 152h63v-4q-53 -252 -327 -252z" />
    <glyph glyph-name="uni0307" unicode="&#x307;" 
d="M-510 1303q-28 0 -42 17.5t-9 45.5q6 26 28 43.5t50 17.5t41.5 -17.5t7.5 -43.5q-4 -27 -26 -45t-50 -18z" />
    <glyph glyph-name="uni0308" unicode="&#x308;" 
d="M-725 1303q-28 0 -42 17.5t-9 45.5q8 27 29.5 44t48.5 17q28 0 41.5 -17.5t7.5 -43.5q-4 -27 -26 -45t-50 -18zM-295 1303q-28 0 -42 17.5t-9 45.5q6 26 28 43.5t50 17.5t41.5 -17.5t7.5 -43.5q-6 -28 -27 -45.5t-49 -17.5z" />
    <glyph glyph-name="uni030A" unicode="&#x30a;" 
d="M-532 1202q-95 0 -145.5 61.5t-31.5 151.5q20 92 96.5 153.5t172.5 61.5q95 0 145 -62t31 -153q-20 -90 -96 -151.5t-172 -61.5zM-522 1255q75 0 130.5 44.5t69.5 115.5q15 72 -20.5 117t-108.5 45q-75 0 -131 -45t-69 -117q-15 -71 20.5 -115.5t108.5 -44.5z" />
    <glyph glyph-name="uni030B" unicode="&#x30b;" 
d="M-434 1518h80l-326 -322h-78zM-78 1518h78l-326 -322h-77z" />
    <glyph glyph-name="uni030C" unicode="&#x30c;" 
d="M-141 1518l-355 -322h-73l-219 322h77l189 -273l303 273h78z" />
    <glyph glyph-name="uni0312" unicode="&#x312;" 
 />
    <glyph glyph-name="uni0315" unicode="&#x315;" 
d="M-498 1542h76l-98 -391h-60z" />
    <glyph glyph-name="uni0326" unicode="&#x326;" 
d="M-868 -201h75l-170 -344h-59z" />
    <glyph glyph-name="uni0327" unicode="&#x327;" 
d="M-801 10h68l-219 -411h-74z" />
    <glyph glyph-name="uni0328" unicode="&#x328;" 
d="M-805 -434h-22q-124 0 -175.5 45.5t-33.5 130.5q37 165 284 278l39 -20q-230 -119 -256 -248q-12 -66 22.5 -97.5t127.5 -31.5h24z" />
    <glyph glyph-name="uni060C" unicode="&#x60c;" horiz-adv-x="391" 
d="M324 -6h-76l-8 543h61z" />
    <glyph glyph-name="uni0615" unicode="&#x615;" 
d="M559 1505l25 -116h-340l-8 43h53l-66 309h45l39 -182q49 77 111 77q115 0 141 -131zM530 1432l-16 81q-17 80 -88 80q-24 0 -53 -22.5t-54 -59.5l17 -79h194z" />
    <glyph glyph-name="uni061B" unicode="&#x61b;" horiz-adv-x="413" 
d="M256 705h-76l-8 542h61zM373 100q19 -12 25.5 -29.5t-3.5 -35.5q-8 -15 -25 -18.5t-36 8.5q-19 14 -26.5 32t1.5 33q9 17 27 19.5t37 -9.5z" />
    <glyph glyph-name="uni061F" unicode="&#x61f;" horiz-adv-x="921" 
d="M594 528l59 -141h-73l-58 137q-36 84 -73 124t-140 104l-133 82q-230 140 -301 311q-62 144 0 228.5t221 84.5q145 0 291 -72.5t262 -203.5l-43 -35q-104 117 -230.5 180.5t-248.5 63.5q-125 0 -176.5 -65.5t-1.5 -182.5q60 -141 239 -252l136 -82q133 -84 179.5 -132
t90.5 -149zM799 25q-10 -12 -31 -9.5t-39 19.5q-20 15 -24.5 33t6.5 30q22 29 71 -10q18 -14 22.5 -33t-5.5 -30z" />
    <glyph glyph-name="uni0621" unicode="&#x621;" horiz-adv-x="1079" 
d="M1071 68l14 -68h-833l-14 66h266q-99 43 -170.5 128t-93.5 187l-23 102q-34 156 53.5 266.5t243.5 110.5q93 0 183.5 -42t158.5 -116q80 -86 107 -188l-56 -20q-27 95 -84 161q-127 140 -293 140q-128 0 -200.5 -91.5t-44.5 -222.5l20 -100q29 -130 143.5 -221.5
t245.5 -91.5h377z" />
    <glyph glyph-name="uni0622" unicode="&#x622;" horiz-adv-x="466" 
d="M-197 1626l-36 39l94 82q4 6 15 4.5t18 -8.5q28 -28 81 -47t103 -19q31 0 81 18t81 38l34 -45q-35 -26 -90.5 -46t-95.5 -20q-100 0 -192 64q-16 9 -25 -3zM352 0l-303 1434h66l303 -1434h-66z" />
    <glyph glyph-name="uni0623" unicode="&#x623;" horiz-adv-x="425" 
d="M184 1597l11 -43h-320l-10 43h72q-63 46 -78 113q-13 70 23 115t98 45t115 -43t69 -98l-39 -13q-11 43 -51 76t-84 33q-48 0 -71 -32.5t-11 -84.5q9 -44 46 -77.5t83 -33.5h147zM330 12l-301 1422h65l301 -1422h-65z" />
    <glyph glyph-name="uni0624" unicode="&#x624;" horiz-adv-x="1077" 
d="M717 1130l8 -43h-319l-11 43h72q-65 54 -76 113q-12 70 23.5 115t97.5 45q61 0 114.5 -43.5t67.5 -97.5l-37 -13q-12 43 -52.5 76t-84.5 33q-46 0 -69 -32.5t-13 -84.5q9 -44 47 -77.5t84 -33.5h148zM881 918l202 -967q43 -188 -57 -303q-72 -87 -193 -119.5t-313 -32.5
l-12 68q31 -1 54.5 -1.5t89 4t116 16.5t109 41t94.5 71q78 90 47 244l-12 61h-312q-185 0 -332.5 132.5t-187.5 324.5q-27 127 4 232.5t115.5 167t206.5 61.5h381zM680 68h313l-166 780h-313q-157 0 -232.5 -112t-41.5 -279q36 -164 160 -276.5t280 -112.5z" />
    <glyph glyph-name="uni0625" unicode="&#x625;" horiz-adv-x="425" 
d="M330 12l-301 1409h67l299 -1409h-65zM616 -430l9 -45h-320l-8 45h72q-66 48 -78 111q-13 70 22 114.5t97 44.5t115 -43t69 -98l-39 -12q-11 43 -51 75.5t-84 32.5q-47 0 -69.5 -32.5t-10.5 -84.5q8 -44 45.5 -76t83.5 -32h147z" />
    <glyph glyph-name="uni0626" unicode="&#x626;" horiz-adv-x="1953" 
d="M1774 918l192 -914h-68l-178 846h-391q-72 0 -112 -53t-25 -125l201 -951q9 -42 -14.5 -72t-65.5 -30h-508q-186 0 -348.5 134t-202.5 321l-55 266h67l56 -266q34 -161 171.5 -274t297.5 -113h485q22 0 35.5 16.5t7.5 40.5l-199 930q-22 101 35.5 172.5t159.5 71.5h459z
M365 518l8 -43h-320l-8 43h72q-67 49 -78 113q-13 69 22.5 114.5t96.5 45.5q62 0 115 -43.5t69 -98.5l-39 -12q-11 43 -51 75.5t-84 32.5q-47 0 -69.5 -32t-12.5 -84q9 -44 47 -77.5t84 -33.5h148z" />
    <glyph glyph-name="uni0627" unicode="&#x627;" horiz-adv-x="466" 
d="M352 0l-303 1434h66l303 -1434h-66z" />
    <glyph glyph-name="uni0628" unicode="&#x628;" horiz-adv-x="1683" 
d="M1489 899l174 -809q6 -39 -17.5 -66.5t-62.5 -27.5h-965q-144 0 -268 102.5t-155 245.5l-70 330h72l69 -330q23 -117 122 -199t216 -82h955q15 0 24 11t6 26l-170 799h70zM1010 -315q-5 25 9.5 43t39.5 18q26 0 50 -18t28 -43q6 -26 -10 -45t-42 -19q-25 0 -47 19t-28 45
z" />
    <glyph glyph-name="uni0629" unicode="&#x629;" horiz-adv-x="1011" 
d="M336 1208q27 0 49.5 -17.5t28.5 -43.5t-9 -45t-43 -19q-24 0 -46.5 19t-28.5 45t9 43.5t40 17.5zM553 1208q27 0 49.5 -17.5t28.5 -43.5t-9.5 -45t-41.5 -19q-25 0 -47.5 19t-28.5 45t9 43.5t40 17.5zM76 918h407q110 0 213 -54t175.5 -147t95.5 -203l24 -108
q34 -170 -54.5 -288t-260.5 -118q-175 0 -312.5 104t-173.5 271zM662 68q147 0 220 96.5t42 238.5l-23 109q-29 141 -147 239.5t-258 98.5h-340l100 -467q22 -104 88.5 -177.5t148 -105.5t169.5 -32z" />
    <glyph glyph-name="uni062A" unicode="&#x62a;" horiz-adv-x="1683" 
d="M643 1006q26 0 50 -18.5t30 -43.5q4 -28 -10.5 -45.5t-42.5 -17.5q-24 0 -47 18t-27 45q-6 25 8 43.5t39 18.5zM860 1006q26 0 49 -18.5t29 -43.5q5 -28 -9 -45.5t-42 -17.5q-25 0 -48.5 18t-27.5 45q-6 25 9 43.5t40 18.5zM1489 899l172 -807q7 -38 -17 -65t-61 -27
h-965q-144 0 -268 102t-155 244l-70 328h72l67 -328q25 -117 123.5 -197.5t216.5 -80.5h955q14 0 23.5 10t6.5 26l-170 795h70z" />
    <glyph glyph-name="uni062B" unicode="&#x62b;" horiz-adv-x="1667" 
d="M711 1204q26 0 48 -18t27 -43q6 -27 -9 -45.5t-42 -18.5q-25 0 -47.5 18.5t-28.5 45.5q-4 25 11.5 43t40.5 18zM643 1006q27 0 50.5 -18.5t29.5 -43.5q4 -28 -10.5 -45.5t-40.5 -17.5t-49 18t-27 45q-6 24 8.5 43t38.5 19zM860 1006q26 0 50 -18.5t28 -43.5
q5 -28 -9 -45.5t-42 -17.5q-25 0 -48.5 18t-27.5 45q-5 25 9.5 43.5t39.5 18.5zM1489 899l172 -807q7 -38 -17 -65t-61 -27h-965q-144 0 -268 102t-155 244l-70 328h72l67 -328q25 -117 123.5 -197.5t216.5 -80.5h955q14 0 23.5 10t6.5 26l-170 795h70z" />
    <glyph glyph-name="uni062C" unicode="&#x62c;" horiz-adv-x="1538" 
d="M598 0q-112 0 -173 -77.5t-38 -190.5q25 -111 119.5 -190t206.5 -79h436l12 -65h-434q-139 0 -258 98t-150 236q-29 139 49 237.5t216 98.5h772q-49 25 -87 75t-50 107l-29 133q-53 252 -227 365q-69 46 -155 70.5t-158 28.5t-143 -2t-106.5 -13.5t-52.5 -12.5l-35 62
q22 8 64.5 17t119 15t154.5 1t171.5 -32.5t168.5 -78.5q207 -141 266 -418l27 -135q18 -75 78 -128.5t131 -53.5h16l13 -68h-924zM711 -219q26 0 48.5 -17.5t26.5 -42.5q4 -26 -10.5 -43.5t-40.5 -17.5q-24 0 -45.5 17.5t-27.5 43.5q-4 24 10.5 42t38.5 18z" />
    <glyph glyph-name="uni062D" unicode="&#x62d;" horiz-adv-x="1538" 
d="M594 0q-109 0 -168.5 -75.5t-36.5 -182.5t116 -183.5t200 -76.5h450l14 -66h-450q-136 0 -251 95t-146 231q-29 135 47 230.5t211 95.5h778q-52 27 -89.5 75t-49.5 105l-29 135q-53 252 -229 367q-69 46 -157.5 70t-161.5 27.5t-146.5 -3t-105.5 -13t-46 -10.5l-29 64
q31 7 55 12.5t111 14t160.5 4t172.5 -31.5t177 -79q204 -139 266 -422l27 -133q17 -75 79 -128.5t134 -53.5h16l15 -68h-934z" />
    <glyph glyph-name="uni062E" unicode="&#x62e;" horiz-adv-x="1538" 
d="M590 1221q26 0 48.5 -18.5t27.5 -43.5q6 -27 -9.5 -45t-42.5 -18q-25 0 -47 18t-28 45q-4 25 11 43.5t40 18.5zM594 0q-109 0 -168.5 -75.5t-36.5 -182.5t116 -183.5t200 -76.5h450l14 -66h-450q-136 0 -251 95t-146 231q-29 135 47 230.5t211 95.5h778q-52 27 -89.5 75
t-49.5 105l-29 135q-53 252 -229 367q-68 46 -156.5 70t-161.5 27.5t-146.5 -3t-106 -13t-46.5 -10.5l-29 64q30 7 55 12.5t112 14t161 4t172.5 -31.5t175.5 -79q204 -139 266 -422l27 -133q17 -75 79 -128.5t134 -53.5h16l15 -68h-934z" />
    <glyph glyph-name="uni062F" unicode="&#x62f;" horiz-adv-x="1021" 
d="M741 0h-462l-15 68h465q101 0 150 77q46 82 2 183l-269 579l62 19l266 -584q59 -134 -2 -238q-29 -49 -80.5 -76.5t-116.5 -27.5z" />
    <glyph glyph-name="uni0630" unicode="&#x630;" horiz-adv-x="1021" 
d="M514 1198q15 9 36.5 4t31.5 -22q13 -17 10.5 -36t-17.5 -28q-13 -9 -33 -3t-32 24q-12 15 -10 33.5t14 27.5zM741 0h-462l-15 68h465q101 0 150 77q46 82 2 183l-269 579l62 19l266 -584q59 -134 -2 -238q-29 -49 -80.5 -76.5t-116.5 -27.5z" />
    <glyph glyph-name="uni0631" unicode="&#x631;" horiz-adv-x="557" 
d="M557 -20q14 -80 13 -142.5t-23 -111.5t-50.5 -83.5t-69.5 -59t-80.5 -38t-82.5 -20.5l-37 65q332 62 265 390l-197 923h67z" />
    <glyph glyph-name="uni0632" unicode="&#x632;" horiz-adv-x="579" 
d="M252 1221q26 0 50 -18.5t28 -43.5q6 -27 -9 -45t-42 -18q-25 0 -47.5 18t-28.5 45q-5 25 9.5 43.5t39.5 18.5zM557 -20q14 -80 13 -142.5t-23 -111.5t-50.5 -83.5t-69.5 -59t-80.5 -38t-82.5 -20.5l-37 65q332 62 265 390l-197 923h67z" />
    <glyph glyph-name="uni0633" unicode="&#x633;" horiz-adv-x="2439" 
d="M2111 0q-95 0 -184 55t-141 142q-15 -89 -81.5 -142.5t-166.5 -54.5q-81 0 -156 40.5t-129 109.5l90 -433q11 -46 -12.5 -78t-68.5 -32h-469q-182 0 -338 128t-193 308l-55 262h67l58 -262q32 -154 162.5 -262.5t285.5 -108.5h459q22 0 34.5 16t6.5 40l-209 991h62
l86 -402q22 -105 110.5 -177t194.5 -72q108 0 167.5 74.5t37.5 179.5l-84 395h67l86 -400q22 -106 110 -177.5t193 -71.5t163 74.5t36 179.5l-125 583h68l124 -588q24 -141 -49 -229t-207 -88z" />
    <glyph glyph-name="uni0634" unicode="&#x634;" horiz-adv-x="2420" 
d="M1530 1225q26 0 50 -18.5t30 -43.5q5 -26 -10.5 -44.5t-43.5 -18.5q-24 0 -46.5 18.5t-26.5 44.5q-6 25 8 43.5t39 18.5zM1450 1006q26 0 49 -18.5t29 -43.5q4 -28 -10.5 -45.5t-40.5 -17.5t-49 18t-27 45q-6 25 9 43.5t40 18.5zM1708 1006q27 0 50.5 -18.5t29.5 -43.5
q4 -28 -10.5 -45.5t-40.5 -17.5t-49 18t-27 45q-6 24 8.5 43t38.5 19zM2111 0q-95 0 -184 55t-141 142q-15 -89 -81.5 -142.5t-166.5 -54.5q-81 0 -156 40.5t-129 109.5l90 -433q11 -46 -12.5 -78t-68.5 -32h-469q-182 0 -338 128t-193 308l-55 262h67l58 -262
q32 -154 162.5 -262.5t285.5 -108.5h459q22 0 34.5 16t6.5 40l-209 991h62l86 -402q22 -105 110.5 -177t194.5 -72q108 0 167.5 74.5t37.5 179.5l-84 395h67l86 -400q22 -106 110 -177.5t193 -71.5t163 74.5t36 179.5l-125 583h68l124 -588q24 -141 -49 -229t-207 -88z" />
    <glyph glyph-name="uni0635" unicode="&#x635;" horiz-adv-x="2535" 
d="M2324 694q85 -108 109 -229l82 -377q7 -37 -14 -62.5t-56 -25.5h-1118l66 -303q9 -43 -16 -76t-70 -33h-494q-188 0 -349.5 133t-201.5 320l-57 264h65l58 -264q34 -160 172.5 -273.5t298.5 -113.5h485q22 0 34 15.5t7 37.5l-254 1196h66l45 -209l577 189
q142 46 301.5 -7.5t263.5 -181.5zM2445 104l-78 361q-26 116 -94 197q-85 109 -219.5 152t-259.5 7l-598 -196l119 -557h1102q14 0 22.5 9.5t5.5 26.5z" />
    <glyph glyph-name="uni0636" unicode="&#x636;" horiz-adv-x="2519" 
d="M1679 1221q27 0 50 -18.5t28 -43.5q6 -27 -9 -45t-42 -18q-25 0 -47.5 18t-28.5 45q-4 25 11 43.5t38 18.5zM2324 694q85 -108 109 -229l82 -377q7 -37 -14 -62.5t-56 -25.5h-1118l66 -303q9 -43 -16 -76t-70 -33h-494q-188 0 -349.5 133t-201.5 320l-57 272h63l60 -272
q34 -160 172.5 -273.5t298.5 -113.5h485q22 0 34 15.5t7 37.5l-254 1196h66l45 -209l577 189q142 46 301.5 -7.5t263.5 -181.5zM2445 104l-78 361q-26 116 -94 197q-85 109 -219.5 152t-259.5 7l-598 -196l119 -557h1102q14 0 22.5 9.5t5.5 26.5z" />
    <glyph glyph-name="uni0637" unicode="&#x637;" horiz-adv-x="1742" 
d="M1532 702q82 -101 110 -229l80 -383q8 -37 -12 -63.5t-57 -26.5h-1370l-15 68h176l-286 1353h65l154 -716l586 188q143 46 304 -7.5t265 -183.5zM1653 106l-78 367q-22 110 -94 197q-89 110 -226 155t-260 4l-604 -196l121 -565h1112q16 0 24.5 10.5t4.5 27.5z" />
    <glyph glyph-name="uni0638" unicode="&#x638;" horiz-adv-x="1671" 
d="M1532 702q82 -101 110 -229l80 -383q8 -37 -12 -63.5t-57 -26.5h-1370l-15 68h176l-286 1353h65l154 -716l586 188q143 46 304 -7.5t265 -183.5zM797 1221q26 0 48 -18.5t27 -43.5q6 -27 -9 -45t-42 -18q-25 0 -47.5 18t-28.5 45q-4 25 11.5 43.5t40.5 18.5zM1653 106
l-78 367q-22 110 -94 197q-89 110 -226 155t-260 4l-604 -196l121 -565h1112q16 0 24.5 10.5t4.5 27.5z" />
    <glyph glyph-name="uni0639" unicode="&#x639;" horiz-adv-x="1173" 
d="M1143 68l14 -68h-577q-101 0 -158 -72.5t-35 -173.5t109.5 -173.5t189.5 -72.5h430l12 -61h-430q-129 0 -238.5 90t-135.5 217q-26 119 35 205t176 94h43q-103 47 -177.5 133.5t-97.5 192.5l-33 158q-34 157 54 269t245 112q153 0 283 -103t170 -254l-51 -20
q-31 131 -143 222t-246 91q-128 0 -203 -93.5t-47 -223.5l35 -158q28 -130 140.5 -220.5t242.5 -90.5h393z" />
    <glyph glyph-name="uni063A" unicode="&#x63a;" horiz-adv-x="1155" 
d="M477 1221q26 0 50 -18.5t28 -43.5q6 -27 -9 -45t-42 -18q-25 0 -47.5 18t-28.5 45q-5 25 9.5 43.5t39.5 18.5zM1143 68l14 -68h-577q-101 0 -158 -72.5t-35 -173.5t109.5 -173.5t189.5 -72.5h432l12 -61h-432q-129 0 -238.5 90t-135.5 217q-26 119 35 205t176 94h43
q-102 43 -177 131.5t-98 194.5l-33 158q-34 157 54 269t245 112q153 0 283 -103t170 -254l-51 -20q-31 131 -143 222t-246 91q-128 0 -203 -93.5t-47 -223.5l35 -158q28 -130 140.5 -220.5t242.5 -90.5h393z" />
    <glyph glyph-name="uni0640" unicode="&#x640;" horiz-adv-x="401" 
d="M117 68h444l12 -68h-442z" />
    <glyph glyph-name="uni0641" unicode="&#x641;" horiz-adv-x="1982" 
d="M1452 1229q26 0 48.5 -18.5t27.5 -43.5q6 -26 -9.5 -44.5t-41.5 -18.5q-25 0 -47.5 18.5t-28.5 44.5q-4 25 11 43.5t40 18.5zM1786 918l170 -801q9 -50 -18 -83.5t-76 -33.5h-1141q-122 0 -239 60.5t-200 165.5t-110 229l-53 260h67l58 -264q34 -158 170.5 -270.5
t294.5 -112.5h700q-122 48 -216 156t-120 235q-26 125 13.5 230.5t132.5 167t217 61.5h350zM1821 68q31 0 48.5 21.5t10.5 53.5l-149 707h-283q-163 0 -253.5 -114.5t-55.5 -278.5q20 -99 93.5 -190.5t169.5 -145t181 -53.5h238z" />
    <glyph glyph-name="uni0642" unicode="&#x642;" horiz-adv-x="1370" 
d="M588 1229q26 0 48.5 -18.5t27.5 -43.5q6 -26 -9 -44.5t-43 -18.5q-24 0 -46.5 18.5t-28.5 44.5q-4 25 11 43.5t40 18.5zM811 1229q26 0 50 -18.5t28 -43.5q5 -27 -10.5 -45t-42.5 -18q-24 0 -47 18.5t-27 44.5q-5 25 9.5 43.5t39.5 18.5zM778 918h393l261 -1217
q10 -49 -17.5 -84t-75.5 -35h-520q-191 0 -354 134.5t-203 324.5l-57 270h67l58 -270q34 -161 173 -276t300 -115h516q24 0 35.5 15.5t7.5 41.5l-64 293h-327q-107 0 -209 52.5t-174.5 143t-95.5 197.5l-29 131q-34 164 58.5 279t256.5 115zM956 68h328l-168 788h-325
q-138 0 -214 -97.5t-47 -234.5l27 -129q29 -136 145.5 -231.5t253.5 -95.5z" />
    <glyph glyph-name="uni0643" unicode="&#x643;" horiz-adv-x="1642" 
d="M1294 1421l281 -1319q9 -41 -15 -71.5t-65 -30.5h-797q-116 0 -226 57t-187.5 155.5t-102.5 215.5l-53 254h64l53 -254q31 -150 160.5 -255t279.5 -105h778q22 0 35.5 14t9.5 35l-276 1304h61zM918 858l10 -43h-322l-8 43h70q-62 51 -76 113q-13 69 23 114t98 45
q61 0 114.5 -43t69.5 -98l-39 -12q-11 43 -51 75.5t-84 32.5q-48 0 -71 -32t-13 -84q11 -45 48 -78t83 -33h148z" />
    <glyph glyph-name="uni0644" unicode="&#x644;" horiz-adv-x="1366" 
d="M1296 -403h-487q-188 0 -348.5 132.5t-200.5 321.5l-57 266h67l56 -266q34 -161 171.5 -274t297.5 -113h479q23 0 36 16t9 41l-363 1700h68l365 -1708q9 -47 -18.5 -81.5t-74.5 -34.5z" />
    <glyph glyph-name="uni0645" unicode="&#x645;" horiz-adv-x="1224" 
d="M817 0q-113 0 -212 48t-161 126l25 -115q14 -62 10.5 -114.5t-14 -93.5t-34 -75t-49 -58.5t-59 -43.5t-64.5 -30.5t-66 -20.5l-27 66q47 12 85.5 30.5t75 49.5t55.5 72.5t27.5 99.5t-8.5 131l-180 846h402q167 0 310.5 -119.5t178.5 -288.5l25 -104q22 -110 -12.5 -203.5
t-116 -148t-191.5 -54.5zM803 68q140 0 218.5 98t47.5 237l-22 107q-29 141 -149 240.5t-261 99.5h-336l100 -469q22 -104 87.5 -177t146 -104.5t168.5 -31.5z" />
    <glyph glyph-name="uni0646" unicode="&#x646;" horiz-adv-x="1343" 
d="M625 942q27 0 51.5 -18.5t28.5 -42.5q4 -28 -11 -46t-43 -18q-24 0 -46.5 18.5t-26.5 45.5q-5 25 9 43t38 18zM1303 -397h-496q-188 0 -347.5 131.5t-199.5 318.5l-55 260h65l56 -260q34 -159 171 -272t296 -113h473q23 0 36.5 15.5t10.5 37.5l-246 1145h68l247 -1167
q8 -40 -15 -68t-64 -28z" />
    <glyph glyph-name="uni0647" unicode="&#x647;" horiz-adv-x="1011" 
d="M76 918h407q110 0 213 -54t175.5 -147t95.5 -203l24 -108q34 -170 -54.5 -288t-260.5 -118q-175 0 -312.5 104t-173.5 271zM662 68q147 0 220 96.5t42 238.5l-23 109q-29 141 -147 239.5t-258 98.5h-340l100 -467q22 -104 88.5 -177.5t148 -105.5t169.5 -32z" />
    <glyph glyph-name="uni0648" unicode="&#x648;" horiz-adv-x="1077" 
d="M881 918l202 -967q43 -188 -57 -303q-72 -87 -193 -119.5t-313 -32.5l-12 68q31 -1 54.5 -1.5t89 4t116 16.5t109 41t94.5 71q78 90 47 244l-12 61h-312q-185 0 -332.5 132.5t-187.5 324.5q-27 127 4 232.5t115.5 167t206.5 61.5h381zM680 68h313l-166 780h-313
q-157 0 -232.5 -112t-41.5 -279q36 -164 160 -276.5t280 -112.5z" />
    <glyph glyph-name="uni0649" unicode="&#x649;" horiz-adv-x="1972" 
d="M1774 918l192 -914h-68l-178 846h-391q-72 0 -112 -53t-25 -125l201 -951q9 -42 -14.5 -72t-65.5 -30h-508q-186 0 -348.5 134t-202.5 321l-55 266h67l56 -266q34 -161 171.5 -274t297.5 -113h485q22 0 35.5 16.5t7.5 40.5l-199 930q-22 101 35.5 172.5t159.5 71.5h459z
" />
    <glyph glyph-name="uni064A" unicode="&#x64a;" horiz-adv-x="1972" 
d="M1774 918l192 -914h-68l-178 846h-391q-72 0 -112 -53t-25 -125l201 -951q9 -42 -14.5 -72t-65.5 -30h-508q-186 0 -348.5 134t-202.5 321l-55 266h67l56 -266q34 -161 171.5 -274t297.5 -113h485q22 0 35.5 16.5t7.5 40.5l-199 930q-22 101 35.5 172.5t159.5 71.5h459z
M920 -526q28 0 51 -18.5t28 -43.5q6 -27 -9 -45t-42 -18q-25 0 -47.5 18t-28.5 45q-4 25 10.5 43.5t37.5 18.5zM1149 -526q27 0 51.5 -18.5t28.5 -43.5q6 -27 -9.5 -45t-43.5 -18q-24 0 -46 18t-28 45q-5 25 9 43.5t38 18.5z" />
    <glyph glyph-name="uni064B" unicode="&#x64b;" 
d="M-186 1671l274 96l16 -41l-272 -98zM-162 1554l273 99l18 -43l-270 -99z" />
    <glyph glyph-name="uni064C" unicode="&#x64c;" 
d="M227 1567q9 -45 -11.5 -76t-63.5 -43l-207 -70l-13 37q-9 48 -29.5 73.5t-47.5 27.5h-11l-10 32l6 4q87 6 117 -96l8 -26l105 34q-30 16 -52 43t-28 60q-10 49 17 84t75 35q50 0 92.5 -35t52.5 -84zM125 1485q33 0 49 23t8 59q-6 34 -31 56t-59 22q-33 0 -49 -21.5
t-10 -54.5q8 -37 33 -60.5t59 -23.5z" />
    <glyph glyph-name="uni064D" unicode="&#x64d;" 
d="M238 -324l272 97l16 -41l-268 -97zM262 -440l270 98l21 -43l-272 -98z" />
    <glyph glyph-name="uni064E" unicode="&#x64e;" 
d="M-152 1638l275 97l16 -41l-270 -99z" />
    <glyph glyph-name="uni064F" unicode="&#x64f;" 
d="M-12 1745q49 0 91.5 -35.5t51.5 -83.5q18 -92 -72 -119l-194 -67l-19 37l136 45q-32 14 -56.5 42t-31.5 62q-9 47 19 83t75 36zM31 1542q35 0 53 25t10 63q-8 33 -37 57.5t-63 24.5q-35 0 -53.5 -24.5t-12.5 -57.5q9 -38 38.5 -63t64.5 -25z" />
    <glyph glyph-name="uni0650" unicode="&#x650;" 
d="M352 -743l273 98l18 -43l-270 -98z" />
    <glyph glyph-name="uni0651" unicode="&#x651;" 
d="M180 1686h47l23 -117q17 -76 -10.5 -118t-85.5 -42q-51 0 -93 49q-1 -40 -24 -63t-57 -23q-54 0 -93.5 32t-52.5 99l-16 70h47l14 -70q18 -84 88 -84q66 0 45 105l-24 108h47l22 -104q6 -31 30 -48.5t52 -17.5q87 0 66 107z" />
    <glyph glyph-name="uni0652" unicode="&#x652;" 
d="M-33 1481q-51 0 -93.5 36t-51.5 87q-12 49 16 84.5t78 35.5q49 0 92 -35t55 -85q9 -51 -19 -87t-77 -36zM-43 1528q31 0 46 21.5t9 56.5q-6 30 -30.5 49.5t-55.5 19.5t-47 -19t-10 -50q7 -35 32 -56.5t56 -21.5z" />
    <glyph glyph-name="uni0653" unicode="&#x653;" 
d="M-207 1894l-37 39l94 82q4 6 15 4.5t18 -8.5q28 -28 81.5 -46.5t103.5 -18.5q31 0 80.5 17.5t80.5 37.5l35 -45q-35 -26 -90.5 -46t-95.5 -20q-101 0 -193 64q-16 9 -24 -2z" />
    <glyph glyph-name="uni0658" unicode="&#x658;" 
 />
    <glyph glyph-name="uni0660" unicode="&#x660;" horiz-adv-x="452" 
d="M301 61q-7 29 7 47.5t42 18.5q29 0 51.5 -18.5t28.5 -47.5t-8 -47t-43 -18q-30 0 -52 18t-26 47z" />
    <glyph glyph-name="uni0661" unicode="&#x661;" horiz-adv-x="397" 
d="M86 1434l303 -1434h-76l-303 1434h76z" />
    <glyph glyph-name="uni0662" unicode="&#x662;" horiz-adv-x="1140" 
d="M821 1434l17 -74h-369q-99 0 -172 -53t-102.5 -141.5t-8.5 -188.5l207 -977h-76l-206 977q-25 121 11.5 226.5t125 168t207.5 62.5h366z" />
    <glyph glyph-name="uni0663" unicode="&#x663;" horiz-adv-x="1523" 
d="M1065 631q-97 0 -187 54.5t-143 141.5q-14 -89 -80 -142.5t-166 -53.5q-82 0 -156 40t-128 109l164 -780h-62l-303 1434h62l102 -486q23 -106 112 -178t195 -72q108 0 167.5 74.5t37.5 179.5l-100 482h65l103 -486q23 -105 111.5 -177.5t193.5 -72.5t162.5 74.5
t35.5 179.5l-102 482h68l102 -484q24 -141 -49 -230t-205 -89z" />
    <glyph glyph-name="uni0664" unicode="&#x664;" horiz-adv-x="1159" 
d="M1014 608l14 -65h-565q-101 0 -156 -71t-33 -171q19 -97 105.5 -168.5t185.5 -71.5h422l12 -61h-421q-127 0 -235 88.5t-134 212.5q-25 118 35.5 202.5t173.5 90.5l43 2q-101 43 -175 131t-96 191l-34 157q-32 155 54 264t239 109t280.5 -101t167.5 -251l-51 -21
q-32 131 -142 221t-241 90q-127 0 -199.5 -91.5t-46.5 -219.5l35 -155q28 -128 138.5 -220t236.5 -92h387z" />
    <glyph glyph-name="uni0665" unicode="&#x665;" horiz-adv-x="1425" 
d="M870 -25q-246 0 -439.5 204.5t-264.5 537.5q-44 225 -14 389.5t135.5 258t267.5 93.5q247 0 440.5 -204t264.5 -537q44 -225 14 -390t-135.5 -258.5t-268.5 -93.5zM856 45q138 0 227.5 84.5t114 234t-15.5 353.5q-65 302 -232.5 487t-378.5 185q-139 0 -228 -84.5
t-113 -234t16 -353.5q63 -302 231 -487t379 -185z" />
    <glyph glyph-name="uni0666" unicode="&#x666;" horiz-adv-x="1140" 
d="M317 1434h369q119 0 207 -62.5t124.5 -168t10.5 -226.5l-207 -977h-73l206 977q21 100 -8.5 188.5t-103 141.5t-172.5 53h-367z" />
    <glyph glyph-name="uni0667" unicode="&#x667;" horiz-adv-x="1382" 
d="M1335 1434l-587 -1434h-99l-604 1434h82l569 -1350l557 1350h82z" />
    <glyph glyph-name="uni0668" unicode="&#x668;" horiz-adv-x="1388" 
d="M1493 0h-82l-846 1352l-284 -1352h-82l301 1434h98z" />
    <glyph glyph-name="uni0669" unicode="&#x669;" horiz-adv-x="1126" 
d="M416 1434q167 0 310 -118.5t177 -285.5l92 -432l127 -598h-71l-109 514l-326 2q-92 0 -178 35t-149.5 92t-107.5 129t-60 148l-25 110q-35 167 59.5 285.5t260.5 118.5zM934 582l-96 448q-31 139 -150.5 237.5t-257.5 98.5q-140 0 -218.5 -99t-47.5 -239l22 -108
q29 -140 150 -239t262 -99h336z" />
    <glyph glyph-name="uni066A" unicode="&#x66a;" horiz-adv-x="1589" 
d="M1133 1434h73l-735 -1434h-76zM258 1200q-43 0 -78.5 28.5t-44.5 71.5q-10 43 12.5 72t65.5 29t78.5 -29t46.5 -72q9 -43 -14 -71.5t-66 -28.5zM1485 -4q-43 0 -78.5 29.5t-44.5 72.5q-9 41 15 71t67 30q41 0 77.5 -30t45.5 -71q8 -43 -15.5 -72.5t-66.5 -29.5z" />
    <glyph glyph-name="uni066B" unicode="&#x66b;" horiz-adv-x="391" 
d="M291 233h74l10 -540h-62z" />
    <glyph glyph-name="uni066C" unicode="&#x66c;" horiz-adv-x="391" 
d="M291 233h74l10 -540h-62z" />
    <glyph glyph-name="uni066D" unicode="&#x66d;" horiz-adv-x="917" 
d="M584 322l276 -283l-45 -39l-268 293l-144 -293l-57 37l154 287l-363 104l6 59l363 -114l-82 356h63l70 -356l315 114l31 -59z" />
    <glyph glyph-name="uni066E" unicode="&#x66e;" horiz-adv-x="1681" 
d="M1489 899l172 -807q7 -38 -17 -65t-61 -27h-965q-144 0 -268 102t-155 244l-76 348h71l74 -348q25 -117 123.5 -197.5t216.5 -80.5h955q14 0 23.5 10t6.5 26l-170 795h70z" />
    <glyph glyph-name="uni066F" unicode="&#x66f;" horiz-adv-x="1370" 
d="M776 922q163 0 304 -116.5t175 -277.5l177 -827q10 -49 -17.5 -84t-75.5 -35h-520q-191 0 -354 134.5t-203 324.5l-57 270h67l58 -270q34 -161 173 -276t300 -115h516q24 0 35.5 15.5t7.5 41.5l-64 293h-327q-107 0 -209 52.5t-174.5 143t-95.5 197.5l-29 131
q-34 164 58 281t255 117zM956 68h328l-98 460q-30 135 -145 231.5t-250 96.5q-138 0 -214 -97.5t-47 -234.5l27 -129q29 -136 145.5 -231.5t253.5 -95.5z" />
    <glyph glyph-name="uni0671" unicode="&#x671;" horiz-adv-x="425" 
d="M332 0l-303 1434h65l303 -1434h-65z" />
    <glyph glyph-name="uni0679" unicode="&#x679;" horiz-adv-x="1681" 
d="M588 1149h53l-66 309h46l38 -182q49 78 111 78q115 0 141 -131l25 -117h-340zM778 1311q-51 0 -106 -82l16 -80h195l-17 82q-17 80 -88 80zM1661 92q7 -38 -17 -65t-61 -27h-965q-144 0 -268 102t-155 244l-76 348h71l74 -348q25 -117 123.5 -197.5t216.5 -80.5h955
q14 0 23.5 10t6.5 26l-170 795h70z" />
    <glyph glyph-name="uni067E" unicode="&#x67e;" horiz-adv-x="1681" 
d="M1489 899l172 -807q7 -38 -17 -65t-61 -27h-965q-144 0 -268 102t-155 244l-76 348h71l74 -348q25 -117 123.5 -197.5t216.5 -80.5h955q14 0 23.5 10t6.5 26l-170 795h70zM942 -295q-24 0 -47 19t-27 43q-6 26 8 44.5t39 18.5q27 0 50.5 -18.5t29.5 -44.5
q5 -25 -10.5 -43.5t-42.5 -18.5zM1159 -295q-24 0 -48 19t-28 43q-6 26 9.5 44.5t40.5 18.5q26 0 48.5 -18.5t28.5 -44.5q5 -25 -9.5 -43.5t-41.5 -18.5zM1092 -494q-23 0 -46.5 18.5t-29.5 43.5q-4 27 10 45t39 18q27 0 50.5 -18t27.5 -45q6 -25 -9 -43.5t-42 -18.5z" />
    <glyph glyph-name="uni0686" unicode="&#x686;" horiz-adv-x="1538" 
d="M598 0q-112 0 -173 -77.5t-38 -190.5q25 -111 119.5 -190t206.5 -79h436l12 -65h-434q-139 0 -258 98t-150 236q-29 139 49 237.5t216 98.5h772q-49 25 -87 75t-50 107l-29 133q-52 249 -227 365q-69 46 -155 70.5t-158 28.5t-143 -2t-106.5 -13.5t-52.5 -12.5l-35 62
q22 8 64.5 17t119 15t154.5 1t171.5 -32.5t168.5 -78.5q207 -142 266 -420l27 -133q18 -75 78 -128.5t131 -53.5h16l13 -68h-924zM612 -270q-19 0 -37 13.5t-22 33.5q-4 21 8 36t31 15q22 0 39.5 -14.5t23.5 -36.5q3 -20 -9 -33.5t-34 -13.5zM797 -270q-20 0 -38.5 14
t-21.5 33q-4 22 7.5 36.5t31.5 14.5q21 0 39.5 -15t22.5 -36q4 -20 -7.5 -33.5t-33.5 -13.5zM739 -440q-19 0 -37 14.5t-22 34.5q-3 22 8.5 36.5t30.5 14.5q22 0 40.5 -14.5t22.5 -36.5q4 -20 -8.5 -34.5t-34.5 -14.5z" />
    <glyph glyph-name="uni0688" unicode="&#x688;" horiz-adv-x="1021" 
d="M393 1163h53l-65 310h45l39 -183q49 78 110 78q116 0 142 -131l24 -117h-340zM584 1325q-24 0 -53 -22.5t-54 -59.5l17 -80h194l-16 82q-17 80 -88 80zM940 342q59 -134 -2 -238q-29 -49 -80.5 -76.5t-116.5 -27.5h-462l-15 68h465q101 0 150 77q46 82 2 183l-269 579
l62 19z" />
    <glyph glyph-name="uni0691" unicode="&#x691;" horiz-adv-x="557" 
d="M459 1114h-340l-8 43h53l-66 309h45l39 -182q49 78 111 78q115 0 141 -131zM211 1157h195l-17 82q-17 80 -88 80q-51 0 -106 -82zM557 -20q14 -80 13 -142.5t-23 -111.5t-50.5 -83.5t-69.5 -59t-80.5 -38t-82.5 -20.5l-37 65q332 62 265 390l-197 923h67z" />
    <glyph glyph-name="uni0698" unicode="&#x698;" horiz-adv-x="557" 
d="M223 1370q27 0 50.5 -18t29.5 -43q6 -27 -9 -45.5t-42 -18.5q-25 0 -47.5 18.5t-28.5 45.5q-6 24 8.5 42.5t38.5 18.5zM160 1171q26 0 49 -18t27 -43q6 -26 -9 -44.5t-43 -18.5q-24 0 -46.5 18.5t-28.5 44.5q-4 25 11 43t40 18zM377 1171q26 0 49 -18t27 -43
q6 -26 -9.5 -44.5t-42.5 -18.5q-25 0 -47 18.5t-28 44.5q-4 25 11 43t40 18zM557 -20q14 -80 13 -142.5t-23 -111.5t-50.5 -83.5t-69.5 -59t-80.5 -38t-82.5 -20.5l-37 65q332 62 265 390l-197 923h67z" />
    <glyph glyph-name="uni06A1" unicode="&#x6a1;" horiz-adv-x="1982" 
d="M1786 918l170 -801q9 -50 -18 -83.5t-76 -33.5h-1141q-122 0 -239 60.5t-200 165.5t-110 229l-53 260h67l58 -264q34 -158 170.5 -270.5t294.5 -112.5h700q-122 48 -216 156t-120 235q-26 125 13.5 230.5t132.5 167t217 61.5h350zM1821 68q31 0 48.5 21.5t10.5 53.5
l-149 707h-283q-163 0 -253.5 -114.5t-55.5 -278.5q20 -99 93.5 -190.5t169.5 -145t181 -53.5h238z" />
    <glyph glyph-name="uni06A4" unicode="&#x6a4;" horiz-adv-x="1982" 
d="M1368 1374q27 0 50.5 -18t29.5 -43q5 -26 -11 -45t-42 -19q-25 0 -47.5 19t-26.5 45q-6 24 8.5 42.5t38.5 18.5zM1303 1176q27 0 50 -18t27 -44q6 -26 -8.5 -44.5t-42.5 -18.5q-24 0 -47 18.5t-29 44.5q-4 26 10.5 44t39.5 18zM1520 1176q26 0 48.5 -18t28.5 -44
t-9.5 -44.5t-41.5 -18.5q-25 0 -47.5 18.5t-28.5 44.5t9.5 44t40.5 18zM1786 918l170 -801q9 -50 -18 -83.5t-76 -33.5h-1141q-122 0 -239 60.5t-200 165.5t-110 229l-53 260h67l58 -264q34 -158 170.5 -270.5t294.5 -112.5h700q-122 48 -216 156t-120 235
q-26 125 13.5 230.5t132.5 167t217 61.5h350zM1821 68q31 0 48.5 21.5t10.5 53.5l-149 707h-283q-163 0 -253.5 -114.5t-55.5 -278.5q20 -99 93.5 -190.5t169.5 -145t181 -53.5h238z" />
    <glyph glyph-name="uni06A9" unicode="&#x6a9;" horiz-adv-x="1974" 
d="M1876 451l94 -451h-1315q-142 0 -267.5 102.5t-156.5 243.5l-73 348h71l74 -348q25 -117 123.5 -197.5t216.5 -80.5h1247l-80 381q-35 164 -177.5 280.5t-307.5 116.5h-543l-57 78l297 585l63 -39l-288 -559h520q125 0 244 -61.5t203.5 -167.5t111.5 -231z" />
    <glyph glyph-name="uni06AF" unicode="&#x6af;" horiz-adv-x="1974" 
d="M903 1540l-280 -555l-37 25l282 555zM1876 451l94 -451h-1315q-142 0 -267.5 102.5t-156.5 243.5l-73 348h71l74 -348q25 -117 123.5 -197.5t216.5 -80.5h1247l-80 381q-35 164 -177.5 280.5t-307.5 116.5h-543l-57 78l297 585l63 -39l-288 -559h520q125 0 244 -61.5
t203.5 -167.5t111.5 -231z" />
    <glyph glyph-name="uni06BA" unicode="&#x6ba;" horiz-adv-x="1325" 
d="M1303 -397h-496q-188 0 -347.5 131.5t-199.5 318.5l-55 260h65l56 -260q34 -159 171 -272t296 -113h473q23 0 36.5 15.5t10.5 37.5l-246 1145h68l247 -1167q8 -40 -15 -68t-64 -28z" />
    <glyph glyph-name="uni06BE" unicode="&#x6be;" horiz-adv-x="1429" 
d="M754 1014q219 -65 383 -241t213 -404l53 -258q9 -45 -14.5 -78t-67.5 -33h-1190l-14 68h334q-97 42 -169.5 128.5t-95.5 190.5q-32 155 55.5 264t243.5 109q159 0 295 -113t170 -272l58 -269q6 -22 -4 -38h294q22 0 33 14.5t6 36.5l-53 250q-43 202 -190 362t-342 217
q-199 62 -375 62l-8 65q191 -5 385 -61zM500 692q-129 0 -203 -90t-47 -221q29 -132 139.5 -222.5t237.5 -90.5h286q14 0 24 9t7 23l-59 279q-28 128 -141.5 220.5t-243.5 92.5z" />
    <glyph glyph-name="uni06C1" unicode="&#x6c1;" horiz-adv-x="1011" 
d="M76 918h407q110 0 213 -54t175.5 -147t95.5 -203l24 -108q34 -170 -54.5 -288t-260.5 -118q-175 0 -312.5 104t-173.5 271zM662 68q147 0 220 96.5t42 238.5l-23 109q-29 141 -147 239.5t-258 98.5h-340l100 -467q22 -104 88.5 -177.5t148 -105.5t169.5 -32z" />
    <glyph glyph-name="uni06C2" unicode="&#x6c2;" horiz-adv-x="1011" 
d="M514 1085l10 -43h-319l-10 43h71q-65 50 -76 113q-13 69 22.5 114.5t96.5 45.5q62 0 115.5 -43t69.5 -98l-37 -13q-12 43 -53 76t-85 33q-46 0 -68.5 -32.5t-12.5 -84.5q9 -44 46 -77.5t83 -33.5h147zM76 918h407q110 0 213 -54t175.5 -147t95.5 -203l24 -108
q34 -170 -54.5 -288t-260.5 -118q-175 0 -312.5 104t-173.5 271zM662 68q147 0 220 96.5t42 238.5l-23 109q-29 141 -147 239.5t-258 98.5h-340l100 -467q22 -104 88.5 -177.5t148 -105.5t169.5 -32z" />
    <glyph glyph-name="uni06C3" unicode="&#x6c3;" horiz-adv-x="1011" 
d="M336 1208q27 0 49.5 -17.5t28.5 -43.5t-9 -45t-43 -19q-24 0 -46.5 19t-28.5 45t9 43.5t40 17.5zM553 1208q27 0 49.5 -17.5t28.5 -43.5t-9.5 -45t-41.5 -19q-25 0 -47.5 19t-28.5 45t9 43.5t40 17.5zM76 918h407q110 0 213 -54t175.5 -147t95.5 -203l24 -108
q34 -170 -54.5 -288t-260.5 -118q-175 0 -312.5 104t-173.5 271zM662 68q147 0 220 96.5t42 238.5l-23 109q-29 141 -147 239.5t-258 98.5h-340l100 -467q22 -104 88.5 -177.5t148 -105.5t169.5 -32z" />
    <glyph glyph-name="uni06CC" unicode="&#x6cc;" horiz-adv-x="1972" 
d="M1772 918l192 -914h-68l-178 846h-391q-72 0 -112 -53t-25 -125l201 -951q9 -42 -14.5 -72t-65.5 -30h-508q-186 0 -348.5 134t-202.5 321l-55 266h67l55 -266q34 -161 171.5 -274t297.5 -113h486q22 0 35.5 16.5t7.5 40.5l-199 930q-22 101 35.5 172.5t159.5 71.5h459z
" />
    <glyph glyph-name="uni06D2" unicode="&#x6d2;" horiz-adv-x="1206" 
d="M584 0q-133 0 -240 104q-105 108 -102 238l10 354l70 -18l-13 -350q-3 -99 78 -183q80 -77 182 -77h795l14 -68h-794z" />
    <glyph glyph-name="uni06D3" unicode="&#x6d3;" horiz-adv-x="1206" 
d="M422 819l10 -45h-319l-11 45h72q-63 46 -78 111q-13 70 23 115t98 45q61 0 113.5 -43t70.5 -99l-39 -12q-12 43 -51.5 75.5t-83.5 32.5q-48 0 -71 -32t-11 -84q8 -44 45.5 -76.5t83.5 -32.5h148zM584 0q-133 0 -240 104q-105 108 -102 238l10 354l70 -18l-13 -350
q-3 -99 78 -183q80 -77 182 -77h795l14 -68h-794z" />
    <glyph glyph-name="uni06D4" unicode="&#x6d4;" horiz-adv-x="1228" 
 />
    <glyph glyph-name="uni06F0" unicode="&#x6f0;" horiz-adv-x="452" 
d="M301 61q-7 29 7 47.5t42 18.5q29 0 51.5 -18.5t28.5 -47.5t-8 -47t-43 -18q-30 0 -52 18t-26 47z" />
    <glyph glyph-name="uni06F1" unicode="&#x6f1;" horiz-adv-x="397" 
d="M86 1434l303 -1434h-76l-303 1434h76z" />
    <glyph glyph-name="uni06F2" unicode="&#x6f2;" horiz-adv-x="1140" 
d="M821 1434l17 -74h-369q-99 0 -172 -53t-102.5 -141.5t-8.5 -188.5l207 -977h-76l-206 977q-25 121 11.5 226.5t125 168t207.5 62.5h366z" />
    <glyph glyph-name="uni06F3" unicode="&#x6f3;" horiz-adv-x="1523" 
d="M1065 631q-97 0 -187 54.5t-143 141.5q-14 -89 -80 -142.5t-166 -53.5q-82 0 -156 40t-128 109l164 -780h-62l-303 1434h62l102 -486q23 -106 112 -178t195 -72q108 0 167.5 74.5t37.5 179.5l-100 482h65l103 -486q23 -105 111.5 -177.5t193.5 -72.5t162.5 74.5
t35.5 179.5l-102 482h68l102 -484q24 -141 -49 -230t-205 -89z" />
    <glyph glyph-name="uni06F4" unicode="&#x6f4;" horiz-adv-x="1349" 
d="M1227 512h-934l108 -512h-75l-303 1434h75l181 -856h364q-102 41 -175.5 126.5t-96.5 190.5l-33 158q-35 158 53.5 269.5t245.5 111.5q154 0 283.5 -102.5t169.5 -254.5l-52 -20q-31 131 -143.5 222t-245.5 91q-130 0 -204 -93t-46 -224l35 -156q26 -130 139.5 -223.5
t243.5 -93.5h395z" />
    </font>
</defs>
</svg>
