<?xml version="1.0" standalone="no"?>
<!DOCTYPE svg PUBLIC "-//W3C//DTD SVG 1.1//EN" "http://www.w3.org/Graphics/SVG/1.1/DTD/svg11.dtd" >
<svg xmlns="http://www.w3.org/2000/svg" xmlns:xlink="http://www.w3.org/1999/xlink" version="1.1">
<metadata>
Created by FontForge 20170731 at Sat May 27 13:23:49 2023
 By Aleksey,,,
Copyright (c) 2021 by __Designer__. All rights reserved.
</metadata>
<defs>
<font id="LamaSans-LightItalic" horiz-adv-x="0" >
  <font-face 
    font-family="Lama Sans Light Italic"
    font-weight="300"
    font-style="italic"
    font-stretch="normal"
    units-per-em="2048"
    panose-1="0 0 2 0 0 0 0 0 0 0"
    ascent="1638"
    descent="-410"
    x-height="1022"
    cap-height="1434"
    bbox="-1053.5 -823 2925 2200"
    underline-thickness="102"
    underline-position="-347"
    unicode-range="U+000D-FEFC"
  />
<missing-glyph horiz-adv-x="972" 
d="M799 1434v-1946h-619v1946h619zM647 1303h-319v-64h125v-72h-127v-63h321v63h-127v72h127v64zM520 1053h-194v-203h321v65h-127v138zM453 987v-72h-64v72h64zM647 797h-321v-64h127v-71h-127v-64h194v135h127v64zM647 680h-63v-127h-258v-68h321v195zM647 442h-194v-108
h67v45h64v-92h-195v155h-63v-219h321v219zM647 106h-321v-219h321v219zM584 43v-92h-195v92h195zM647 -158h-321v-63h135l-135 -92v-64h321v64h-198l137 92h61v63z" />
    <glyph glyph-name="uniFDF2" unicode="&#x627;&#xfedf;&#xfee0;&#xfeea;" horiz-adv-x="2967" arabic-form="isolated" 
d="M1331 1823h-59l-47 219l55 20zM1282 1503q-54 0 -96 34.5t-56 100.5l-16 74h60l16 -74q15 -73 80 -73q59 0 41 92l-23 110h60l20 -104q7 -29 28.5 -44t47.5 -15q77 0 59 94l-26 123h59l27 -123q15 -75 -13 -117.5t-88 -42.5q-50 0 -94 47q-3 -38 -27.5 -60t-58.5 -22z
M2621 1434l304 -1434h-103l-303 1434h102zM2130 1423l248 -1163q23 -107 -37.5 -183.5t-167.5 -76.5h-211q-75 0 -146 39t-118 102q-21 -63 -75.5 -102t-127.5 -39h-156q-103 0 -198.5 61.5t-147.5 157.5q-28 -98 -110.5 -158.5t-196.5 -60.5q-173 0 -323 122t-187 294
l-20 98q-37 178 58.5 298t274.5 120h422l127 -598q22 -98 102 -165t179 -67h145q75 0 118 55t28 132l-242 1134h102l242 -1134q19 -77 85.5 -132t141.5 -55h207q67 0 105 46.5t24 111.5l-247 1163h102zM664 102q132 0 206 94.5t45 227.5l-86 405h-319q-132 0 -206.5 -90
t-45.5 -225l21 -94q28 -132 141 -225t244 -93z" />
    <glyph glyph-name="uniFEF5" unicode="&#xfedf;&#xfe82;" horiz-adv-x="1212" arabic-form="isolated" 
d="M1126 260q23 -107 -36 -183.5t-166 -76.5h-666l-22 102h325l-203 955h103l205 -955h231q66 0 103.5 46.5t23.5 111.5l-246 1163h103zM160 1231l-47 47l100 84q8 7 19 6t20 -10q32 -29 86 -47.5t104 -18.5q30 0 80 17.5t82 36.5l43 -60q-36 -25 -92.5 -44t-97.5 -19
q-110 0 -203 67q-18 7 -27 -2z" />
    <glyph glyph-name="uniFEF6" unicode="&#xfee0;&#xfe82;" horiz-adv-x="1304" arabic-form="final" 
d="M1503 53q4 -21 -9 -37t-34 -16h-88q-73 0 -144.5 39t-119.5 102q-19 -63 -73 -102t-128 -39h-647l-22 102h325l-201 955h103l201 -955h211q74 0 117 55.5t28 131.5l-242 1134h103l241 -1134q19 -77 85.5 -132t142.5 -55h86q22 0 40.5 -13.5t24.5 -35.5zM109 1237l-50 47
l101 86q7 6 18.5 4.5t20.5 -10.5q32 -29 85.5 -46.5t104.5 -17.5q32 0 81.5 17t80.5 37l43 -62q-34 -25 -92 -44t-99 -19q-109 0 -202 67q-16 6 -27 -2z" />
    <glyph glyph-name="uniFEF7" unicode="&#xfedf;&#xfe84;" horiz-adv-x="1280" arabic-form="isolated" 
d="M594 1282l12 -59h-342l-14 59h72q-58 48 -70 107q-12 71 25.5 117t103.5 46q62 0 116 -41.5t74 -97.5l-47 -24q-14 43 -51.5 72.5t-79.5 29.5q-43 0 -64.5 -30t-11.5 -77q8 -40 42.5 -71t78.5 -31h156zM1198 260q23 -107 -37.5 -183.5t-167.5 -76.5h-665l-21 102h326
l-205 955h102l205 -955h232q66 0 103.5 46.5t23.5 111.5l-246 1163h102z" />
    <glyph glyph-name="uniFEF8" unicode="&#xfee0;&#xfe84;" horiz-adv-x="1304" arabic-form="final" 
d="M532 1282l13 -59h-342l-15 59h72q-58 48 -70 107q-12 71 25.5 117t103.5 46q62 0 117 -41.5t74 -97.5l-47 -24q-14 43 -51.5 72.5t-79.5 29.5q-43 0 -64.5 -30t-11.5 -77q8 -40 42.5 -71t78.5 -31h155zM1503 53q4 -21 -9 -37t-34 -16h-88q-73 0 -144.5 39t-119.5 102
q-19 -63 -73 -102t-128 -39h-606q-22 0 -39 14.5t-22 36.5q-5 23 6.5 37t34.5 14h284l-203 955h103l203 -955h209q74 0 117 55.5t28 131.5l-242 1134h103l241 -1134q19 -77 85.5 -132t142.5 -55h86q22 0 40.5 -13.5t24.5 -35.5z" />
    <glyph glyph-name="uniFEF9" unicode="&#xfedf;&#xfe88;" horiz-adv-x="1212" arabic-form="isolated" 
d="M1128 260q23 -107 -36 -183.5t-166 -76.5h-666l-22 102h327l-205 955h103l205 -955h231q66 0 103.5 46.5t23.5 111.5l-246 1163h103zM721 -449h156l10 -59h-342l-13 59h72q-61 50 -69 107q-12 71 25 117.5t102 46.5q62 0 116 -41.5t74 -97.5l-47 -25q-14 43 -50.5 72.5
t-78.5 29.5q-44 0 -65 -29.5t-11 -76.5q8 -40 42.5 -71.5t78.5 -31.5z" />
    <glyph glyph-name="uniFEFA" unicode="&#xfee0;&#xfe88;" horiz-adv-x="1304" arabic-form="final" 
d="M1503 53q4 -21 -9 -37t-34 -16h-88q-73 0 -144.5 39t-119.5 102q-19 -63 -73 -102t-128 -39h-647l-22 102h327l-203 955h103l203 -955h209q74 0 117 55.5t28 131.5l-242 1134h103l241 -1134q19 -77 85.5 -132t142.5 -55h86q22 0 40.5 -13.5t24.5 -35.5zM735 -446h156
l14 -62h-344l-12 62h69q-56 49 -67 106q-12 71 25.5 117.5t101.5 46.5q62 0 116.5 -41.5t75.5 -97.5l-49 -25q-12 42 -49.5 72t-79.5 30q-43 0 -65 -30t-13 -76q10 -41 43.5 -71.5t77.5 -30.5z" />
    <glyph glyph-name="uniFEFB" unicode="&#xfedf;&#xfe8e;" horiz-adv-x="1212" arabic-form="isolated" 
d="M1128 260q23 -107 -36 -183.5t-166 -76.5h-666l-22 102h325l-203 955h103l205 -955h231q66 0 103.5 46.5t23.5 111.5l-246 1163h103z" />
    <glyph glyph-name="uniFEFC" unicode="&#xfee0;&#xfe8e;" horiz-adv-x="1304" arabic-form="final" 
d="M1503 53q4 -21 -9 -37t-34 -16h-88q-73 0 -144.5 39t-119.5 102q-19 -63 -73 -102t-128 -39h-647l-22 102h325l-201 955h103l201 -955h211q74 0 117 55.5t28 131.5l-242 1134h103l241 -1134q19 -77 85.5 -132t142.5 -55h86q22 0 40.5 -13.5t24.5 -35.5z" />
    <glyph glyph-name="uniFEDFFB51" unicode="&#xfedf;&#xfb51;" horiz-adv-x="1212" 
d="M1128 260q23 -107 -36 -183.5t-166 -76.5h-666l-22 102h327l-205 955h103l205 -955h231q66 0 103.5 46.5t23.5 111.5l-246 1163h103z" />
    <glyph glyph-name="uniFEE0FB51" unicode="&#xfee0;&#xfb51;" horiz-adv-x="1304" 
d="M1503 53q4 -21 -9 -37t-34 -16h-88q-73 0 -144.5 39t-119.5 102q-19 -63 -73 -102t-128 -39h-647l-22 102h327l-203 955h103l203 -955h209q74 0 117 55.5t28 131.5l-242 1134h103l241 -1134q19 -77 85.5 -132t142.5 -55h86q22 0 40.5 -13.5t24.5 -35.5z" />
    <glyph glyph-name="uni066E.init" unicode="&#x66e;" horiz-adv-x="544" 
d="M279 0h-129q-22 0 -41 14.5t-23 34.5q-4 23 8 38t35 15h129q71 0 110.5 50t24.5 120l-137 648h102l138 -648q25 -112 -39 -192t-178 -80z" />
    <glyph glyph-name="uni066E.medi" unicode="&#x66e;" horiz-adv-x="636" 
d="M772 102q21 0 40.5 -14t23.5 -35q4 -22 -8.5 -37.5t-34.5 -15.5h-86q-75 0 -146.5 39t-118.5 102q-21 -63 -75 -102t-127 -39h-93q-22 0 -39 14.5t-22 36.5q-5 23 6.5 37t34.5 14h82q75 0 117.5 55t27.5 132l-96 442h104l95 -442q19 -77 85.5 -132t141.5 -55h88z" />
    <glyph glyph-name="uni066E.fina" unicode="&#x66e;" horiz-adv-x="1832" 
d="M1966 102q22 0 41 -14t23 -35q4 -22 -8.5 -37.5t-34.5 -15.5h-84q-73 0 -145 39t-120 102q-19 -63 -73 -102t-127 -39h-811q-152 0 -282.5 108.5t-162.5 260.5l-73 344h104l74 -344q23 -110 116.5 -188.5t202.5 -78.5h801q74 0 117 55.5t28 131.5l-135 629h105l133 -629
q19 -77 85 -132t142 -55h84z" />
    <glyph glyph-name="uni066F.fina" unicode="&#x66f;" horiz-adv-x="1435" 
d="M1587 102l21 -102h-189l60 -270q14 -62 -21 -107t-96 -45h-528q-130 0 -254 63.5t-211.5 174t-114.5 241.5l-57 267h104l57 -265q32 -155 165 -264.5t288 -109.5h516q25 0 37 15.5t8 41.5l-57 258h-305q-112 0 -219 54.5t-182.5 149.5t-98.5 206l-25 114
q-24 113 11 208.5t118.5 151.5t196.5 56q168 0 314.5 -120t181.5 -288l92 -430h188zM1294 102l-92 430q-26 126 -134 215t-234 89q-130 0 -202 -91.5t-44 -220.5l24 -112q26 -128 137 -219t240 -91h305z" />
    <glyph glyph-name="uni06A1.init" unicode="&#x6a1;" horiz-adv-x="1136" 
d="M526 936q113 1 221 -55t184 -152t99 -209l111 -520h-1010l-20 102h358q-93 46 -162 132t-92 188l-20 98q-24 113 12.5 209t121 151.5t197.5 55.5zM1016 102l-88 418q-26 130 -137.5 222t-241.5 92q-132 0 -206 -93.5t-46 -226.5l20 -94q29 -131 142 -224.5t243 -93.5h314
z" />
    <glyph glyph-name="uni06A1.medi" unicode="&#x6a1;" horiz-adv-x="1234" 
d="M1120 102h254l23 -102h-1256l-20 102h364q-94 46 -162.5 131.5t-91.5 188.5l-20 96q-24 113 12 209.5t120.5 152.5t197.5 56q171 1 319.5 -122.5t183.5 -295.5l78 -364q5 -23 -2 -52zM997 102q14 0 22.5 10.5t4.5 26.5l-82 379q-26 130 -137 221.5t-242 91.5
q-132 0 -206 -93t-46 -226l21 -92q29 -131 142.5 -224.5t244.5 -93.5h278z" />
    <glyph glyph-name="uni06A1.fina" unicode="&#x6a1;" horiz-adv-x="2072" 
d="M2214 102l20 -102h-1515q-188 0 -349.5 134t-201.5 323l-53 256h102l53 -256q31 -146 156 -249.5t270 -103.5h672q-110 51 -191.5 149t-105.5 216l-12 51q-35 173 62.5 294.5t269.5 121.5q172 1 320 -121t185 -295l89 -418h229zM1882 102l-88 418q-28 129 -139.5 221.5
t-241.5 92.5t-204 -94t-48 -226l13 -49q29 -142 149.5 -246t263.5 -115z" />
    <glyph glyph-name="uni06C2.fina" unicode="&#x6c2;" horiz-adv-x="1275" 
d="M733 1122l15 -61h-345l-12 61h70q-60 52 -68 107q-13 71 24 117.5t103 46.5q62 0 116.5 -42t74.5 -98l-47 -24q-14 42 -50.5 72t-78.5 30q-44 0 -66.5 -30t-11.5 -76q10 -41 43.5 -72t77.5 -31h155zM877 63q-79 -63 -191 -63q-173 0 -323 122t-187 294l-20 98
q-37 178 58.5 298t274.5 120h422l127 -598q22 -98 102 -165t179 -67h92q22 0 41 -14.5t23 -36.5q5 -20 -7 -35.5t-34 -15.5h-95q-56 0 -114.5 17.5t-116 52.5t-102.5 99t-62 146l-115 514h-319q-132 0 -206.5 -90t-45.5 -225l21 -94q28 -132 141 -225t244 -93q107 0 178 74z
" />
    <glyph glyph-name="uni06C3.fina" unicode="&#x6c3;" horiz-adv-x="1275" 
d="M877 63q-79 -63 -191 -63q-173 0 -323 122t-187 294l-20 98q-37 178 58.5 298t274.5 120h422l127 -598q22 -98 102 -165t179 -67h92q22 0 41 -14.5t23 -36.5q5 -20 -7 -35.5t-34 -15.5h-95q-56 0 -114.5 17.5t-116 52.5t-102.5 99t-62 146l-115 514h-319
q-132 0 -206.5 -90t-45.5 -225l21 -94q28 -132 141 -225t244 -93q107 0 178 74z" />
    <glyph glyph-name="uniFB51" unicode="&#x671;" horiz-adv-x="512" arabic-form="final" 
d="M684 0h-98q-107 0 -200 76.5t-116 183.5l-247 1174h102l250 -1174q14 -65 70 -111.5t122 -46.5h97z" />
    <glyph glyph-name="uniFB57" unicode="&#x67e;" horiz-adv-x="1832" arabic-form="final" 
d="M1966 102q22 0 41 -14t23 -35q4 -22 -8.5 -37.5t-34.5 -15.5h-84q-73 0 -145 39t-120 102q-19 -63 -73 -102t-127 -39h-811q-152 0 -282.5 108.5t-162.5 260.5l-73 344h104l74 -344q23 -110 116.5 -188.5t202.5 -78.5h801q74 0 117 55.5t28 131.5l-135 629h105l133 -629
q19 -77 85 -132t142 -55h84zM989 -328q-33 0 -61.5 23t-34.5 55q-7 33 11.5 56.5t49.5 23.5q34 0 63 -23t36 -57q6 -32 -13 -55t-51 -23zM1237 -328q-31 0 -59.5 23t-34.5 55q-7 33 10.5 56.5t48.5 23.5q34 0 64 -23.5t37 -56.5q6 -32 -13 -55t-53 -23zM1159 -557
q-31 0 -59.5 23.5t-34.5 54.5q-6 34 11.5 57t49.5 23q33 0 63 -23.5t36 -56.5q6 -31 -13.5 -54.5t-52.5 -23.5z" />
    <glyph glyph-name="uniFB58" unicode="&#x67e;" horiz-adv-x="602" arabic-form="initial" 
d="M336 0h-186q-22 0 -41 14.5t-23 34.5q-4 23 8 38t35 15h186q71 0 111 50t25 120l-138 648h103l137 -648q23 -112 -40.5 -192t-176.5 -80zM311 -328q-31 0 -59.5 23t-34.5 55q-7 33 11 56.5t51 23.5t62 -23.5t36 -56.5q6 -32 -13 -55t-53 -23zM561 -328q-31 0 -60.5 23
t-35.5 55q-7 33 11.5 56.5t49.5 23.5q34 0 63 -23t36 -57q6 -33 -12.5 -55.5t-51.5 -22.5zM483 -557q-31 0 -59.5 23.5t-36.5 54.5q-6 33 12.5 56.5t49.5 23.5q34 0 63 -23.5t35 -56.5q8 -31 -11 -54.5t-53 -23.5z" />
    <glyph glyph-name="uniFB59" unicode="&#x67e;" horiz-adv-x="636" arabic-form="medial" 
d="M772 102q21 0 40.5 -14t23.5 -35q4 -22 -8.5 -37.5t-34.5 -15.5h-86q-75 0 -146.5 39t-118.5 102q-21 -63 -75 -102t-127 -39h-93q-22 0 -39 14.5t-22 36.5q-5 23 6.5 37t34.5 14h82q75 0 117.5 55t27.5 132l-96 442h104l95 -442q19 -77 85.5 -132t141.5 -55h88z
M401 -328q-33 0 -61.5 23t-34.5 55q-7 33 12 56.5t50 23.5q34 0 62.5 -23t35.5 -57q6 -32 -13 -55t-51 -23zM649 -328q-31 0 -59.5 23t-34.5 55q-7 33 10.5 56.5t48.5 23.5q34 0 64 -23.5t37 -56.5q6 -32 -13 -55t-53 -23zM571 -557q-31 0 -59.5 23.5t-34.5 54.5
q-6 34 12 57t50 23q33 0 62.5 -23.5t35.5 -56.5q6 -31 -13.5 -54.5t-52.5 -23.5z" />
    <glyph glyph-name="uniFB67" unicode="&#x679;" horiz-adv-x="1832" arabic-form="final" 
d="M537 1137h61l-68 317h58l39 -188q52 75 116 75q124 0 154 -143l25 -119h-373zM750 1286q-53 0 -109 -82l14 -67h199l-14 67q-17 82 -90 82zM2028 53q4 -22 -8.5 -37.5t-34.5 -15.5h-84q-73 0 -145 39t-120 102q-19 -63 -73 -102t-127 -39h-811q-152 0 -282.5 108.5
t-162.5 260.5l-74 344h105l74 -344q23 -110 116.5 -188.5t202.5 -78.5h801q74 0 117 55.5t28 131.5l-135 629h105l133 -629q19 -77 85 -132t142 -55h84q22 0 41 -14t23 -35z" />
    <glyph glyph-name="uniFB68" unicode="&#x679;" horiz-adv-x="544" arabic-form="initial" 
d="M63 1130l-12 58h62l-68 317h57l39 -188q52 76 117 76q124 0 154 -144l24 -119h-373zM264 1337q-52 0 -108 -82l14 -67h199l-15 67q-17 82 -90 82zM496 272q25 -112 -39 -192t-178 -80h-129q-22 0 -41 14.5t-23 34.5q-4 23 8 38t35 15h129q71 0 110.5 50t24.5 120
l-137 648h102z" />
    <glyph glyph-name="uniFB69" unicode="&#x679;" horiz-adv-x="636" arabic-form="medial" 
d="M59 1092l-12 57h62l-68 317h57l39 -188q52 76 117 76q124 0 154 -144l24 -118h-373zM260 1298q-52 0 -108 -81l14 -68h199l-15 68q-17 81 -90 81zM836 53q4 -22 -8.5 -37.5t-34.5 -15.5h-86q-75 0 -146.5 39t-118.5 102q-21 -63 -75 -102t-127 -39h-93q-22 0 -39 14.5
t-22 36.5q-5 23 6.5 37t34.5 14h82q75 0 117.5 55t27.5 132l-96 442h104l95 -442q19 -77 85.5 -132t141.5 -55h88q21 0 40.5 -14t23.5 -35z" />
    <glyph glyph-name="uniFB6B" unicode="&#x6a4;" horiz-adv-x="2052" arabic-form="final" 
d="M1311 1452q34 0 63 -23t35 -55q6 -34 -13 -57t-53 -23q-31 0 -59.5 23.5t-34.5 56.5q-6 32 12.5 55t49.5 23zM1235 1223q34 0 63 -23t35 -55q8 -32 -10.5 -56t-52.5 -24q-31 0 -60 24t-36 56q-6 32 12 55t49 23zM1485 1223q34 0 62 -23t36 -55q7 -32 -12 -56t-51 -24
t-60.5 24t-36.5 56q-7 32 12 55t50 23zM2193 102l21 -102h-1495q-188 0 -349.5 134t-201.5 323l-57 276h102l57 -276q31 -146 156 -249.5t270 -103.5h672q-110 51 -190.5 147.5t-104.5 213.5l-12 51q-24 113 12.5 209t121.5 151.5t198 55.5q171 1 318.5 -121.5t184.5 -294.5
l89 -414h208zM1882 102l-88 414q-26 129 -138 221t-241 92q-132 0 -206 -93.5t-46 -225.5l11 -49q31 -142 150.5 -244t262.5 -113z" />
    <glyph glyph-name="uniFB6C" unicode="&#x6a4;" horiz-adv-x="1136" arabic-form="initial" 
d="M516 1452q34 0 62 -23t36 -55q6 -34 -12.5 -57t-52.5 -23q-31 0 -59.5 23.5t-34.5 56.5q-7 32 11.5 55t49.5 23zM440 1223q34 0 62.5 -23t36.5 -55t-11 -56t-53 -24q-31 0 -60 24t-36 56t11.5 55t49.5 23zM690 1223q32 0 61.5 -23t36.5 -55q6 -33 -13 -56.5t-52 -23.5
q-31 0 -59.5 24t-34.5 56q-7 32 11 55t50 23zM526 932h418l176 -830q8 -43 -15.5 -72.5t-64.5 -29.5h-909l-20 102h358q-93 46 -162 132t-92 188l-20 98q-24 113 12.5 208t121 149.5t197.5 54.5zM1010 137l-148 697h-313q-132 0 -206 -93.5t-46 -226.5l20 -94
q29 -131 142 -224.5t243 -93.5h281q13 0 21.5 10.5t5.5 24.5z" />
    <glyph glyph-name="uniFB6D" unicode="&#x6a4;" horiz-adv-x="1234" arabic-form="medial" 
d="M455 1452q34 0 63 -23t35 -55q6 -34 -13 -57t-53 -23q-31 0 -59.5 23.5t-34.5 56.5q-6 32 12.5 55t49.5 23zM379 1223q34 0 63 -23t35 -55q8 -32 -10.5 -56t-52.5 -24q-31 0 -60.5 24t-36.5 56q-6 32 12.5 55t49.5 23zM629 1223q34 0 62 -23t36 -55q7 -32 -12 -56
t-51 -24t-60.5 24t-36.5 56q-7 32 12 55t50 23zM1120 102h254l23 -102h-1256l-20 102h364q-95 47 -163 130.5t-89 185.5l-22 96q-35 173 62 295.5t270 122.5q171 0 319 -123t185 -295l75 -360q5 -23 -2 -52zM997 102q14 0 22.5 10.5t4.5 26.5l-80 375q-28 130 -139 221.5
t-242 91.5q-132 0 -205 -93t-45 -226l21 -94q28 -130 140.5 -221t244.5 -91h278z" />
    <glyph glyph-name="uniFB7B" unicode="&#x686;" horiz-adv-x="1521" arabic-form="final" 
d="M627 0q-107 0 -166.5 -75.5t-36.5 -184.5q23 -107 114.5 -182.5t198.5 -75.5h432l21 -103h-430q-151 0 -280 106t-161 255q-32 150 51.5 256t233.5 106h729q-44 25 -78.5 70t-44.5 98l-24 117q-52 236 -217 346q-79 53 -179 76.5t-187 19t-145 -13.5t-87 -20l-60 94
q42 16 112.5 28t169.5 15.5t213 -25.5t208 -90q208 -141 274 -430l25 -117q14 -68 67.5 -118t118.5 -50h201l22 -102h-1095zM684 -264q-21 0 -40 16t-23 37q-6 23 5.5 38t32.5 15q24 0 44 -15t24 -38q5 -22 -7.5 -37.5t-35.5 -15.5zM868 -264q-22 0 -40.5 15.5t-24.5 37.5
q-4 23 8 38t33 15q24 0 43.5 -15t23.5 -38q4 -22 -8.5 -37.5t-34.5 -15.5zM811 -432q-22 0 -40 15.5t-23 37.5q-4 22 8 37.5t32 15.5q23 0 42 -15.5t24 -37.5q4 -22 -8.5 -37.5t-34.5 -15.5z" />
    <glyph glyph-name="uniFB7C" unicode="&#x686;" horiz-adv-x="1337" arabic-form="initial" 
d="M1339 0h-1192q-22 0 -39.5 15t-21.5 38q-5 20 7 34.5t34 14.5h1006q-47 27 -82 72t-47 98l-23 103q-49 242 -223 356q-81 55 -184 79.5t-190.5 19.5t-148 -15t-88.5 -22l-57 96q41 16 112.5 28t171.5 15.5t216.5 -26t212.5 -93.5q217 -141 278 -434l25 -105
q15 -72 69.5 -122t120.5 -50h21zM625 -328q-32 0 -61.5 23t-35.5 55q-7 33 12 56.5t50 23.5q34 0 62.5 -23t35.5 -57q6 -33 -12 -55.5t-51 -22.5zM872 -328q-31 0 -59.5 23t-34.5 55q-7 33 11 56.5t51 23.5t62 -23.5t36 -56.5q6 -32 -13 -55t-53 -23zM795 -557
q-31 0 -59 23.5t-36 54.5q-6 33 12.5 56.5t49.5 23.5q34 0 63 -23.5t35 -56.5q8 -31 -11.5 -54.5t-53.5 -23.5z" />
    <glyph glyph-name="uniFB7D" unicode="&#x686;" horiz-adv-x="1286" arabic-form="medial" 
d="M1464 0h-1317q-22 0 -39.5 15t-21.5 38q-5 20 7 34.5t34 14.5h975q-47 27 -82 72t-47 98l-23 103q-49 241 -221 356q-81 54 -183.5 78t-191.5 19.5t-146.5 -14t-86.5 -19.5l-55 94q28 13 78.5 24t128 16t158 -1.5t172.5 -35.5t169 -79q218 -142 279 -434l24 -105
q15 -72 70 -122t121 -50h178zM707 -328q-31 0 -60 23t-35 55q-7 33 11 56.5t51 23.5t62 -23.5t36 -56.5q6 -32 -12.5 -55t-52.5 -23zM956 -328q-31 0 -60.5 23t-35.5 55q-7 33 12 56.5t50 23.5q34 0 62.5 -23t35.5 -57q6 -33 -12.5 -55.5t-51.5 -22.5zM879 -557
q-31 0 -60 23.5t-37 54.5q-6 33 12.5 56.5t49.5 23.5q34 0 63 -23.5t35 -56.5q8 -31 -11 -54.5t-52 -23.5z" />
    <glyph glyph-name="uniFB89" unicode="&#x688;" horiz-adv-x="1234" arabic-form="final" 
d="M356 1196h62l-68 317h58l38 -188q52 76 117 76q124 0 154 -144l24 -118h-372zM569 1346q-52 0 -108 -82l14 -68h199l-15 68q-17 82 -90 82zM1434 51q5 -22 -7 -36.5t-36 -14.5h-39q-100 0 -196 44t-169 120q-4 -20 -20 -51q-32 -54 -88.5 -83.5t-124.5 -29.5h-486
l-20 102h483q94 0 137 74q44 70 6 160l-274 594l90 26l291 -616q46 -105 144 -171.5t206 -66.5h39q24 0 41.5 -15t22.5 -36z" />
    <glyph glyph-name="uniFB8B" unicode="&#x698;" horiz-adv-x="741" arabic-form="final" 
d="M223 1454q33 0 62.5 -23t36.5 -55t-12.5 -56t-53.5 -24q-31 0 -58.5 24t-35.5 56q-7 32 11 55t50 23zM150 1227q33 0 61.5 -23t34.5 -55q7 -33 -12 -56.5t-52 -23.5q-32 0 -60.5 23t-35.5 57q-6 32 13 55t51 23zM397 1227q34 0 62.5 -23t34.5 -55q7 -34 -11.5 -57
t-52.5 -23q-31 0 -60 23.5t-36 56.5q-6 32 13 55t50 23zM879 102q21 0 39 -14t22 -37q4 -22 -7.5 -36.5t-33.5 -14.5h-78q-78 0 -152.5 37.5t-117.5 97.5l33 -162q14 -64 10 -118.5t-16 -97.5t-37 -78t-53.5 -60.5t-65.5 -45t-72.5 -31.5t-75.5 -19l-55 98q36 8 67 18
t63 25.5t55 36t43.5 49t29 63.5t11 80t-10.5 99l-196 928h102l121 -574q22 -101 108.5 -172.5t186.5 -71.5h80z" />
    <glyph glyph-name="uniFB8D" unicode="&#x691;" horiz-adv-x="741" arabic-form="final" 
d="M115 1137l-13 57h62l-68 317h58l39 -188q52 76 116 76q124 0 154 -144l24 -118h-372zM315 1343q-52 0 -108 -81l14 -68h199l-14 68q-17 81 -91 81zM940 51q4 -22 -7.5 -36.5t-33.5 -14.5h-78q-78 0 -152.5 37.5t-117.5 97.5l33 -162q14 -64 10 -118.5t-16 -97.5t-37 -78
t-53.5 -60.5t-65.5 -45t-72.5 -31.5t-75.5 -19l-55 98q36 8 67 18t63 25.5t55 36t43.5 49t29 63.5t11 80t-10.5 99l-196 928h102l121 -574q22 -101 108.5 -172.5t186.5 -71.5h80q21 0 39 -14t22 -37z" />
    <glyph glyph-name="uniFB8F" unicode="&#x6a9;" horiz-adv-x="1984" arabic-form="final" 
d="M2134 102l20 -102h-1548q-151 0 -281.5 107t-162.5 258l-74 346h107l73 -346q23 -109 115.5 -186t202.5 -77h1212l-72 344q-34 158 -169.5 269.5t-292.5 111.5h-514l-80 125l286 582l99 -61l-269 -543h465q197 0 366 -139.5t212 -337.5l74 -351h231z" />
    <glyph glyph-name="uniFB90" unicode="&#x6a9;" horiz-adv-x="1333" arabic-form="initial" 
d="M662 930q197 0 365.5 -139.5t211.5 -337.5l76 -359q8 -38 -14 -66t-60 -28h-1112l-20 102h1060q17 0 26.5 12t6.5 27l-65 305q-34 158 -170 269.5t-293 111.5h-527l-96 117l297 584l96 -62l-276 -536h494z" />
    <glyph glyph-name="uniFB91" unicode="&#x6a9;" horiz-adv-x="1368" arabic-form="medial" 
d="M1518 102l20 -102h-1407l-20 102h1071l-72 344q-34 158 -170 269.5t-293 111.5h-514l-80 125l289 582l96 -61l-268 -543h465q130 0 253 -63.5t210 -173.5t114 -240l74 -351h232z" />
    <glyph glyph-name="uniFB93" unicode="&#x6af;" horiz-adv-x="1984" arabic-form="final" 
d="M850 1579l-285 -555l-49 35l285 553zM2134 102l20 -102h-1548q-151 0 -281.5 107t-162.5 258l-74 346h107l73 -346q23 -109 115.5 -186t202.5 -77h1212l-72 344q-34 158 -169.5 269.5t-292.5 111.5h-514l-80 125l286 582l99 -61l-269 -543h465q197 0 366 -139.5
t212 -337.5l74 -351h231z" />
    <glyph glyph-name="uniFB94" unicode="&#x6af;" horiz-adv-x="1333" arabic-form="initial" 
d="M-100 1040l284 553l49 -32l-282 -557zM664 930q197 0 365.5 -139.5t211.5 -337.5l94 -453h-1204l-20 102h1099l-71 344q-34 158 -170 269.5t-293 111.5h-526l-97 117l297 584l96 -62l-276 -536h494z" />
    <glyph glyph-name="uniFB95" unicode="&#x6af;" horiz-adv-x="1368" arabic-form="medial" 
d="M186 1589l52 -33l-285 -557l-49 37zM1518 102l20 -102h-1407l-20 102h1071l-72 344q-34 158 -170 269.5t-293 111.5h-514l-80 125l289 582l96 -61l-268 -543h465q130 0 253 -63.5t210 -173.5t114 -240l74 -351h232z" />
    <glyph glyph-name="uniFB9F" unicode="&#x6ba;" horiz-adv-x="1482" arabic-form="final" 
d="M1618 102q22 0 40.5 -14.5t22.5 -36.5t-8.5 -36.5t-34.5 -14.5h-88q-68 0 -132 36.5t-99 94.5l88 -412q9 -49 -18.5 -82.5t-77.5 -33.5h-490q-129 0 -251 63t-207.5 171t-112.5 235l-60 278h103l59 -278q32 -151 163.5 -260t283.5 -109h446q25 0 39 17t10 42l-239 1127
h102l119 -567q22 -92 94.5 -156t157.5 -64h90z" />
    <glyph glyph-name="uniFBA7" unicode="&#x6c1;" horiz-adv-x="1275" arabic-form="final" 
d="M877 63q-79 -63 -191 -63q-173 0 -323 122t-187 294l-20 98q-37 178 58.5 298t274.5 120h422l127 -598q22 -98 102 -165t179 -67h92q22 0 41 -14.5t23 -36.5q5 -20 -7 -35.5t-34 -15.5h-95q-56 0 -114.5 17.5t-116 52.5t-102.5 99t-62 146l-115 514h-319
q-132 0 -206.5 -90t-45.5 -225l21 -94q28 -132 141 -225t244 -93q107 0 178 74z" />
    <glyph glyph-name="uniFBA8" unicode="&#x6c1;" horiz-adv-x="544" arabic-form="initial" 
d="M279 0h-129q-22 0 -41 14.5t-23 34.5q-4 23 8 38t35 15h129q71 0 110.5 50t24.5 120l-137 648h102l138 -648q25 -112 -39 -192t-178 -80z" />
    <glyph glyph-name="uniFBA9" unicode="&#x6c1;" horiz-adv-x="1282" arabic-form="medial" 
d="M1167 102h265l22 -102h-229l10 -43q37 -180 -62.5 -299t-289.5 -119q-179 0 -334.5 121.5t-202.5 296.5l-12 43h-203l-20 102h198l-73 347q-38 184 56 319t263 143q184 9 352 -120q79 -64 131.5 -146t71.5 -172q28 -132 -15.5 -240.5t-147.5 -170.5t-245 -62h-262l11 -41
q37 -134 155 -226.5t254 -92.5q142 0 220.5 97.5t49.5 235.5l-16 66q-4 27 12 45t41 18zM338 449l74 -347h270q103 0 186 45.5t124 132t18 193.5q-32 148 -156 244q-122 98 -270 92q-132 -6 -203.5 -111.5t-42.5 -248.5z" />
    <glyph glyph-name="uniFBAB" unicode="&#x6be;" horiz-adv-x="1445" arabic-form="final" 
d="M1331 102h264l23 -102h-229l10 -43q37 -180 -62.5 -299t-289.5 -119q-179 0 -334.5 121.5t-202.5 296.5l-12 43h-203l-21 102h199l-74 347q-38 184 56.5 319t263.5 143q184 9 352 -120q79 -64 131.5 -146t71.5 -172q28 -132 -15.5 -240.5t-147.5 -170.5t-245 -62h-262
l10 -41q37 -134 155.5 -226.5t254.5 -92.5q142 0 220.5 97.5t49.5 235.5l-16 66q-4 27 12 45t41 18zM502 449l73 -347h271q103 0 186 45.5t124 132t18 193.5q-32 148 -156 244q-122 98 -270 92q-132 -6 -203.5 -111.5t-42.5 -248.5z" />
    <glyph glyph-name="uniFBAC" unicode="&#x6be;" horiz-adv-x="1460" arabic-form="initial" 
d="M737 1061q236 -64 415 -251t232 -435l50 -238q12 -56 -18.5 -96.5t-86.5 -40.5h-1198l-20 102h315q-88 43 -153 125.5t-87 180.5q-33 160 59 269t255 109q168 0 309.5 -118.5t175.5 -284.5l49 -229q8 -28 -2 -52h262q20 0 31 15t6 35l-47 223q-44 209 -194.5 369.5
t-352.5 216.5q-185 53 -362 53l-19 100q180 -2 381 -53zM522 684q-120 0 -189.5 -83t-43.5 -206t128 -208t218 -85h270q15 0 25 11t6 26l-53 250q-25 119 -131 207t-230 88z" />
    <glyph glyph-name="uniFBAD" unicode="&#x6be;" horiz-adv-x="1282" arabic-form="medial" 
d="M1167 102h265l22 -102h-229l10 -43q37 -180 -62.5 -299t-289.5 -119q-179 0 -334.5 121.5t-202.5 296.5l-12 43h-203l-20 102h198l-73 347q-38 184 56 319t263 143q184 9 352 -120q79 -64 131.5 -146t71.5 -172q28 -132 -15.5 -240.5t-147.5 -170.5t-245 -62h-262l11 -41
q37 -134 155 -226.5t254 -92.5q142 0 220.5 97.5t49.5 235.5l-16 66q-4 27 12 45t41 18zM338 449l74 -347h270q103 0 186 45.5t124 132t18 193.5q-32 148 -156 244q-122 98 -270 92q-132 -6 -203.5 -111.5t-42.5 -248.5z" />
    <glyph glyph-name="uniFBAF" unicode="&#x6d2;" horiz-adv-x="1230" arabic-form="final" 
d="M573 80h813l23 -103h-811q-93 0 -137 -73q-20 -33 -21 -76t19 -88l164 -352l-93 -29l-163 354q-67 143 2 256q29 53 83 82t121 29z" />
    <glyph glyph-name="uniFBB1" unicode="&#x6d3;" horiz-adv-x="1230" arabic-form="final" 
d="M700 279l15 -60h-344l-13 60h70q-60 52 -68 106q-13 71 24 117.5t103 46.5q62 0 117 -41.5t74 -97.5l-47 -25q-14 43 -50.5 72.5t-78.5 29.5q-44 0 -66 -29.5t-12 -76.5q10 -41 43.5 -71.5t77.5 -30.5h155zM573 80h813l23 -103h-811q-93 0 -137 -73q-20 -33 -21 -76
t19 -88l164 -352l-93 -29l-163 354q-67 143 2 256q29 53 83 82t121 29z" />
    <glyph glyph-name="uniFBFD" unicode="&#x6cc;" horiz-adv-x="1798" arabic-form="final" 
d="M1931 102q23 0 42.5 -13.5t23.5 -35.5t-8.5 -37.5t-34.5 -15.5q-148 0 -303 35q50 -38 84.5 -92.5t46.5 -112.5q31 -142 -48.5 -243t-220.5 -101h-649q-136 0 -267 68t-224 184t-121 252l-66 309h105l65 -309q35 -165 178 -282.5t308 -117.5h649q97 0 152.5 70.5
t33.5 169.5q-17 82 -80 150t-149 94l-274 102l24 96q189 -74 225 -86q257 -84 508 -84z" />
    <glyph glyph-name="uniFBFE" unicode="&#x6cc;" horiz-adv-x="677" arabic-form="initial" 
d="M412 0h-262q-22 0 -41 14.5t-23 34.5q-4 23 8 38t35 15h262q71 0 110.5 50t24.5 120l-137 648h103l137 -648q25 -112 -39 -192t-178 -80zM395 -238q34 0 63.5 -22.5t35.5 -54.5q7 -33 -12 -56.5t-52 -23.5q-32 0 -60.5 23t-35.5 57q-6 32 12 54.5t49 22.5zM655 -238
q34 0 63.5 -22.5t35.5 -54.5q7 -33 -12.5 -56.5t-53.5 -23.5q-31 0 -59 23.5t-35 56.5q-6 32 12 54.5t49 22.5z" />
    <glyph glyph-name="uniFBFF" unicode="&#x6cc;" horiz-adv-x="704" arabic-form="medial" 
d="M840 102q22 0 40.5 -14t22.5 -35q4 -22 -8.5 -37.5t-34.5 -15.5h-123q-73 0 -144.5 39t-119.5 102q-19 -63 -73 -102t-128 -39h-125q-22 0 -39.5 15t-21.5 38q-5 22 6.5 35.5t34.5 13.5h115q74 0 117 55.5t28 131.5l-98 452h102l98 -452q19 -77 85.5 -132t142.5 -55h123z
M406 -238q33 0 62.5 -22.5t35.5 -54.5q6 -34 -13 -57t-53 -23q-31 0 -59.5 23.5t-34.5 56.5q-6 32 12 54.5t50 22.5zM664 -238q34 0 63 -22.5t35 -54.5q7 -34 -11.5 -57t-52.5 -23q-31 0 -60 23.5t-36 56.5q-6 32 12.5 54.5t49.5 22.5z" />
    <glyph glyph-name="uniFE82" unicode="&#x622;" horiz-adv-x="532" arabic-form="final" 
d="M-180 1628l-49 47l100 84q17 17 39 -4q32 -29 86 -47t104 -18q32 0 81 17t81 36l43 -60q-34 -25 -91 -44t-97 -19q-110 0 -205 68q-16 6 -27 -2zM705 0h-99q-107 0 -199.5 76.5t-115.5 183.5l-248 1174h102l250 -1174q14 -65 70 -111.5t123 -46.5h96z" />
    <glyph glyph-name="uniFE84" unicode="&#x623;" horiz-adv-x="522" arabic-form="final" 
d="M209 1614l12 -60h-344l-12 60h69q-56 49 -67 106q-13 71 25 117.5t102 46.5q63 0 117 -41t75 -98l-47 -25q-14 43 -51.5 73t-79.5 30q-43 0 -65 -30t-13 -77q10 -41 44 -71.5t79 -30.5h156zM684 0h-98q-107 0 -200 76.5t-116 183.5l-247 1174h102l250 -1174
q14 -65 70 -111.5t122 -46.5h97z" />
    <glyph glyph-name="uniFE86" unicode="&#x624;" horiz-adv-x="1146" arabic-form="final" 
d="M412 1163q-59 52 -70 109q-10 71 27 117.5t102 46.5q63 0 117.5 -42t73.5 -100l-48 -22q-14 42 -51.5 71t-79.5 29q-43 0 -64 -29.5t-11 -76.5q8 -40 42 -71.5t78 -31.5h156l12 -59h-344l-12 59h72zM1100 0l6 -33q41 -195 -62 -313q-76 -91 -200.5 -124.5t-333.5 -31.5
l-21 103q29 1 70 -1t97.5 4.5t109.5 17.5t105.5 38.5t86.5 67.5q70 79 46 219l-11 53h-291q-189 0 -341.5 135t-194.5 330q-27 129 6 235.5t121 169t213 62.5h395l176 -830h187l20 -102h-184zM973 102l-154 725h-293q-146 0 -218.5 -104t-39.5 -258q33 -153 150 -258
t264 -105h291z" />
    <glyph glyph-name="uniFE88" unicode="&#x625;" horiz-adv-x="526" arabic-form="final" 
d="M684 0h-98q-107 0 -200 76.5t-116 183.5l-245 1163h102l248 -1163q14 -65 70 -111.5t122 -46.5h97q21 0 39 -15t22 -36q4 -22 -7.5 -36.5t-33.5 -14.5zM664 -426l12 -59h-344l-13 59h72q-57 47 -69 107q-12 71 25.5 117t101.5 46q62 0 116 -41.5t74 -97.5l-47 -22
q-14 42 -50.5 71t-78.5 29q-44 0 -65.5 -30t-10.5 -77q8 -40 42.5 -71t78.5 -31h156z" />
    <glyph glyph-name="uniFE8A" unicode="&#x626;" horiz-adv-x="1798" arabic-form="final" 
d="M358 492l13 -60h-342l-15 60h72q-59 48 -70 106q-12 71 26 117.5t103 46.5q62 0 115.5 -41.5t73.5 -97.5l-47 -25q-14 44 -49.5 73t-77.5 29q-44 0 -66 -29.5t-12 -76.5q8 -40 42.5 -71t78.5 -31h155zM1931 102q23 0 42.5 -13.5t23.5 -35.5t-8.5 -37.5t-34.5 -15.5
q-148 0 -303 35q50 -38 84.5 -92.5t46.5 -112.5q31 -142 -48.5 -243t-220.5 -101h-649q-136 0 -267 68t-224 184t-121 252l-66 309h105l65 -309q35 -165 178 -282.5t308 -117.5h649q97 0 152.5 70.5t33.5 169.5q-17 82 -80 150t-149 94l-274 102l24 96q189 -74 225 -86
q257 -84 508 -84z" />
    <glyph glyph-name="uniFE8B" unicode="&#x626;" horiz-adv-x="616" arabic-form="initial" 
d="M451 1155l12 -59h-344l-13 59h72q-57 47 -69 109q-12 71 25.5 117t103.5 46q63 0 117 -41.5t73 -99.5l-47 -22q-15 42 -52 71t-79 29q-43 0 -64.5 -30t-11.5 -77q8 -40 42.5 -71t78.5 -31h156zM295 0h-145q-22 0 -41 14.5t-23 34.5q-4 23 8 38t35 15h145q71 0 110 50
t24 120l-138 648h105l137 -648q23 -112 -40.5 -192t-176.5 -80z" />
    <glyph glyph-name="uniFE8C" unicode="&#x626;" horiz-adv-x="636" arabic-form="medial" 
d="M436 991l15 -59h-345l-12 59h70q-57 50 -68 109q-12 71 25.5 117.5t101.5 46.5q63 0 117.5 -42t73.5 -100l-47 -22q-14 42 -50.5 71t-78.5 29q-43 0 -65 -29.5t-13 -76.5q10 -41 43.5 -72t77.5 -31h155zM772 102q21 0 40.5 -14t23.5 -35q4 -22 -8.5 -37.5t-34.5 -15.5
h-86q-75 0 -146.5 39t-118.5 102q-21 -63 -75 -102t-127 -39h-93q-22 0 -39.5 15t-21.5 38q-5 22 6.5 35.5t34.5 13.5h82q75 0 117.5 55t27.5 132l-98 452h104l97 -452q19 -77 85.5 -132t141.5 -55h88z" />
    <glyph glyph-name="uniFE8E" unicode="&#x627;" horiz-adv-x="532" arabic-form="final" 
d="M705 0h-99q-107 0 -199.5 76.5t-115.5 183.5l-248 1174h102l250 -1174q14 -65 70 -111.5t123 -46.5h96z" />
    <glyph glyph-name="uniFE90" unicode="&#x628;" horiz-adv-x="1837" arabic-form="final" 
d="M1970 102q22 0 41 -14t25 -35q4 -21 -9 -37t-34 -16h-90q-73 0 -145 39t-120 102q-19 -63 -73 -102t-127 -39h-811q-152 0 -282.5 108.5t-162.5 260.5l-80 374h105l80 -374q23 -110 116.5 -188.5t202.5 -78.5h801q74 0 117 55.5t28 131.5l-137 643h103l137 -643
q19 -77 85 -132t142 -55h88zM1075 -238q33 0 63 -22.5t36 -54.5q6 -34 -13 -57t-53 -23q-31 0 -59.5 23.5t-34.5 56.5q-6 32 11.5 54.5t49.5 22.5z" />
    <glyph glyph-name="uniFE91" unicode="&#x628;" horiz-adv-x="544" arabic-form="initial" 
d="M295 0h-145q-22 0 -41 14.5t-23 34.5q-4 23 8 38t35 15h145q71 0 110 50t24 120l-142 660h105l141 -660q23 -112 -40.5 -192t-176.5 -80zM360 -315q-6 32 12 54.5t50 22.5q33 0 62.5 -22.5t35.5 -54.5q6 -34 -12.5 -57t-52.5 -23q-32 0 -60.5 23.5t-34.5 56.5z" />
    <glyph glyph-name="uniFE92" unicode="&#x628;" horiz-adv-x="620" arabic-form="medial" 
d="M756 102q22 0 40.5 -14t22.5 -35q4 -22 -8.5 -37.5t-34.5 -15.5h-82q-75 0 -146 39t-118 102q-21 -63 -75.5 -102t-127.5 -39h-80q-22 0 -39 14.5t-22 36.5q-5 23 6.5 37t34.5 14h70q75 0 117.5 55t27.5 132l-98 454h104l96 -454q19 -77 86 -132t142 -55h84zM438 -315
q-6 32 12.5 54.5t49.5 22.5q34 0 63 -22.5t35 -54.5q7 -33 -12.5 -56.5t-53.5 -23.5q-31 0 -59 23.5t-35 56.5z" />
    <glyph glyph-name="uniFE94" unicode="&#x629;" horiz-adv-x="1261" arabic-form="final" 
d="M358 1260q33 0 62 -23.5t37 -54.5q7 -34 -11.5 -57t-52.5 -23q-31 0 -60 23.5t-36 56.5q-7 31 11.5 54.5t49.5 23.5zM608 1260q32 0 61.5 -23.5t37.5 -54.5q6 -34 -13 -57t-53 -23q-31 0 -59.5 23.5t-34.5 56.5q-8 31 10.5 54.5t50.5 23.5zM1411 102q22 0 41 -14.5
t23 -36.5q5 -20 -7 -35.5t-34 -15.5h-95q-103 0 -198.5 61.5t-147.5 157.5q-28 -98 -110.5 -158.5t-196.5 -60.5q-173 0 -323 122t-187 294l-20 98q-37 178 58.5 298t274.5 120h422l127 -598q22 -98 102 -165t179 -67h92zM664 102q132 0 206 94.5t45 227.5l-86 403l-319 2
q-132 0 -206.5 -90t-45.5 -225l21 -94q28 -132 141 -225t244 -93z" />
    <glyph glyph-name="uniFE96" unicode="&#x62a;" horiz-adv-x="1830" arabic-form="final" 
d="M627 1063q33 0 61.5 -23.5t36.5 -54.5q6 -34 -12 -57t-51 -23q-32 0 -61.5 23.5t-35.5 56.5q-7 30 12 54t50 24zM877 1063q32 0 61 -23.5t37 -54.5q6 -34 -13 -57t-53 -23q-31 0 -59.5 23.5t-34.5 56.5q-8 31 11 54.5t51 23.5zM1966 102q22 0 41 -14t23 -35
q4 -22 -8.5 -37.5t-34.5 -15.5h-84q-73 0 -145 39t-120 102q-19 -63 -73 -102t-127 -39h-811q-152 0 -282.5 108.5t-162.5 260.5l-80 374h105l80 -374q23 -110 116.5 -188.5t202.5 -78.5h801q74 0 117 55.5t28 131.5l-137 643h103l137 -643q19 -77 85 -132t142 -55h84z" />
    <glyph glyph-name="uniFE97" unicode="&#x62a;" horiz-adv-x="690" arabic-form="initial" 
d="M104 1268q34 0 62.5 -23t34.5 -55q7 -34 -11.5 -57t-52.5 -23q-31 0 -60 23.5t-36 56.5q-6 32 13 55t50 23zM354 1268q33 0 62 -23t35 -55q7 -33 -12 -56.5t-52 -23.5q-32 0 -60.5 23t-35.5 57q-6 32 12.5 55t50.5 23zM317 0h-167q-22 0 -41 14.5t-23 34.5q-4 23 8 38
t35 15h166q72 0 111 49.5t24 120.5l-141 660h104l142 -660q23 -112 -41 -192t-177 -80z" />
    <glyph glyph-name="uniFE98" unicode="&#x62a;" horiz-adv-x="653" arabic-form="medial" 
d="M109 1122q32 0 61.5 -23t36.5 -55q6 -33 -13.5 -56t-52.5 -23t-60.5 23t-33.5 56q-7 32 11.5 55t50.5 23zM356 1122q34 0 63.5 -23t35.5 -55q6 -34 -13 -56.5t-53 -22.5q-32 0 -60 23t-34 56q-6 32 12 55t49 23zM788 102q22 0 41 -14t23 -35q4 -22 -8.5 -37.5
t-34.5 -15.5h-94q-74 0 -144.5 39t-119.5 102q-19 -63 -73 -102t-128 -39h-103q-22 0 -39 14.5t-22 36.5q-5 23 6.5 37t34.5 14h92q73 0 115.5 55.5t27.5 131.5l-96 454h103l98 -454q17 -77 84 -132t143 -55h94z" />
    <glyph glyph-name="uniFE9A" unicode="&#x62b;" horiz-adv-x="1826" arabic-form="final" 
d="M696 1290q34 0 63.5 -23t35.5 -55q6 -34 -13 -56.5t-53 -22.5q-32 0 -60 23t-34 56q-6 32 12 55t49 23zM621 1063q33 0 62.5 -23.5t35.5 -54.5q6 -34 -12 -57t-52 -23q-32 0 -61 23.5t-35 56.5q-6 31 12.5 54.5t49.5 23.5zM870 1063q33 0 62 -23.5t37 -54.5
q6 -34 -13 -57t-51 -23q-33 0 -61.5 23.5t-34.5 56.5q-7 31 11.5 54.5t49.5 23.5zM1976 102q22 0 41 -14t23 -35q4 -22 -8.5 -37.5t-34.5 -15.5h-94q-73 0 -145 39t-120 102q-19 -63 -73 -102t-127 -39h-811q-152 0 -282.5 108.5t-162.5 260.5l-71 333h104l72 -333
q23 -110 116.5 -188.5t202.5 -78.5h801q74 0 117 55.5t28 131.5l-137 633h105l135 -633q19 -77 85 -132t142 -55h94z" />
    <glyph glyph-name="uniFE9B" unicode="&#x62b;" horiz-adv-x="692" arabic-form="initial" 
d="M184 1485q34 0 62.5 -23t36.5 -55q6 -33 -13.5 -56.5t-52.5 -23.5q-31 0 -59.5 24t-34.5 56q-7 32 11.5 55t49.5 23zM109 1257q34 0 62 -22.5t36 -54.5q7 -34 -11.5 -57t-52.5 -23q-31 0 -60 23.5t-36 56.5q-7 32 12 54.5t50 22.5zM358 1257q33 0 62.5 -22.5t36.5 -54.5
q6 -34 -13 -57t-53 -23q-31 0 -59.5 23.5t-34.5 56.5q-7 32 11 54.5t50 22.5zM311 0h-161q-22 0 -41 14.5t-23 34.5q-4 23 8 38t35 15h162q71 0 110.5 50t24.5 120l-141 660h102l141 -660q23 -112 -40.5 -192t-176.5 -80z" />
    <glyph glyph-name="uniFE9C" unicode="&#x62b;" horiz-adv-x="663" arabic-form="medial" 
d="M190 1348q34 0 62.5 -23t36.5 -55q6 -34 -13 -57t-53 -23q-31 0 -59.5 23.5t-34.5 56.5q-7 32 11.5 55t49.5 23zM115 1118q34 0 63 -23t35 -55q8 -32 -10.5 -55.5t-52.5 -23.5q-31 0 -60.5 23.5t-36.5 55.5q-6 32 12.5 55t49.5 23zM365 1118q32 0 61.5 -23t36.5 -55
t-12.5 -55.5t-53.5 -23.5q-31 0 -59 23.5t-35 55.5t11.5 55t50.5 23zM797 102q22 0 40.5 -13.5t24.5 -35.5q4 -21 -9 -37t-34 -16h-96q-73 0 -144.5 39t-119.5 102q-19 -63 -73 -102t-128 -39h-111q-22 0 -39 14.5t-22 36.5q-5 23 6.5 37t34.5 14h100q74 0 117.5 55.5
t28.5 131.5l-99 454h105l96 -454q19 -77 85 -132t142 -55h95z" />
    <glyph glyph-name="uniFE9E" unicode="&#x62c;" horiz-adv-x="1521" arabic-form="final" 
d="M627 0q-107 0 -166.5 -75.5t-36.5 -184.5q23 -107 114.5 -182.5t198.5 -75.5h432l21 -103h-430q-151 0 -280 106t-161 255q-32 150 51.5 256t233.5 106h729q-44 25 -78.5 70t-44.5 98l-24 117q-53 237 -217 344q-79 53 -178.5 77t-187.5 19.5t-144.5 -13.5t-87.5 -19
l-60 92q41 17 112.5 29t170 15.5t212.5 -25.5t208 -91q210 -139 274 -430l25 -115q14 -68 67.5 -118t118.5 -50h201l22 -102h-1095zM735 -195q31 0 58.5 -22t33.5 -53q8 -31 -10.5 -53.5t-50.5 -22.5q-29 0 -57 22.5t-35 53.5q-5 31 13 53t48 22z" />
    <glyph glyph-name="uniFE9F" unicode="&#x62c;" horiz-adv-x="1337" arabic-form="initial" 
d="M1339 0h-1192q-22 0 -39.5 15t-21.5 38q-5 20 7 34.5t34 14.5h1006q-47 27 -82 72t-47 98l-21 101q-52 244 -223 358q-82 54 -184.5 78t-192 19t-147.5 -14.5t-89 -20.5l-57 94q30 13 81 24.5t129 17t158.5 -1t173.5 -35.5t171 -81q218 -142 278 -432l25 -105
q15 -72 69.5 -122t120.5 -50h21zM713 -217q34 0 63 -23t35 -55q6 -34 -13 -57t-53 -23q-31 0 -59.5 23.5t-34.5 56.5q-6 32 12.5 55t49.5 23z" />
    <glyph glyph-name="uniFEA0" unicode="&#x62c;" horiz-adv-x="1286" arabic-form="medial" 
d="M1464 0h-1317q-22 0 -39.5 15t-21.5 38q-5 20 7 34.5t34 14.5h975q-47 27 -82 72t-47 98l-21 101q-52 242 -223 356q-66 44 -147.5 68t-152 28t-138.5 -1.5t-108.5 -14t-61.5 -16.5l-55 96q37 17 109 28.5t171 14t215.5 -27.5t210.5 -93q219 -143 279 -434l24 -103
q15 -72 70 -122t121 -50h178zM838 -217q34 0 63 -23t35 -55q6 -34 -13 -57t-53 -23q-31 0 -59.5 23.5t-34.5 56.5q-6 32 12.5 55t49.5 23z" />
    <glyph glyph-name="uniFEA2" unicode="&#x62d;" horiz-adv-x="1544" arabic-form="final" 
d="M608 0q-100 0 -155 -70t-33 -170q22 -101 106.5 -171t184.5 -70h452l21 -103h-451q-143 0 -265 100t-153 244q-31 142 49 242t222 100h747q-44 25 -78.5 70t-44.5 98l-24 115q-51 233 -217 346q-79 53 -178.5 77t-187.5 19.5t-144.5 -13.5t-87.5 -19l-60 92
q32 12 82 23.5t128 17.5t156.5 0.5t170 -34t166.5 -79.5q211 -143 274 -430l25 -115q14 -68 67.5 -118t118.5 -50h201l22 -102h-1114z" />
    <glyph glyph-name="uniFEA3" unicode="&#x62d;" horiz-adv-x="1337" arabic-form="initial" 
d="M1339 0h-1192q-22 0 -39.5 15t-21.5 38q-5 20 7 34.5t34 14.5h1006q-47 27 -82 72t-47 98l-23 103q-49 242 -223 356q-81 55 -184 79.5t-190.5 19.5t-148 -15t-88.5 -22l-57 96q41 16 112.5 28t171.5 15.5t216.5 -26t212.5 -93.5q217 -141 278 -434l25 -105
q15 -72 69.5 -122t120.5 -50h21z" />
    <glyph glyph-name="uniFEA4" unicode="&#x62d;" horiz-adv-x="1286" arabic-form="medial" 
d="M1464 0h-1317q-22 0 -39.5 15t-21.5 38q-5 20 7 34.5t34 14.5h975q-47 27 -82 72t-47 98l-23 103q-49 242 -223 356q-66 44 -147.5 68t-152 28t-138.5 -1.5t-108.5 -14t-61.5 -16.5l-53 96q37 17 109 28.5t171 14t215.5 -27.5t210.5 -93q219 -143 279 -434l24 -105
q15 -72 70 -122t121 -50h178z" />
    <glyph glyph-name="uniFEA6" unicode="&#x62e;" horiz-adv-x="1544" arabic-form="final" 
d="M602 1268q34 0 62 -23t34 -55q7 -34 -11 -57t-52 -23q-31 0 -60 23.5t-36 56.5q-6 32 13 55t50 23zM608 0q-100 0 -155 -70t-33 -170q22 -101 106.5 -171t184.5 -70h452l21 -103h-451q-143 0 -265 100t-153 244q-31 142 49 242t222 100h747q-44 25 -78.5 70t-44.5 98
l-24 115q-51 233 -217 346q-79 53 -179 76.5t-187.5 19.5t-144 -13t-87.5 -19l-60 92q32 12 82 23.5t128 17.5t156.5 0.5t170 -34t166.5 -79.5q211 -143 274 -430l25 -115q14 -68 67.5 -118t118.5 -50h201l22 -102h-1114z" />
    <glyph glyph-name="uniFEA7" unicode="&#x62e;" horiz-adv-x="1337" arabic-form="initial" 
d="M348 1190q-6 32 13 55t51 23q33 0 61.5 -23t34.5 -55q7 -33 -12 -56.5t-52 -23.5q-32 0 -60.5 23t-35.5 57zM1339 0h-1192q-22 0 -39.5 15t-21.5 38q-5 20 7 34.5t34 14.5h1006q-47 27 -82 72t-47 98l-23 103q-49 242 -223 356q-81 55 -184 79.5t-190.5 19.5t-148 -15
t-88.5 -22l-57 96q41 16 112.5 28t171.5 15.5t216.5 -26t212.5 -93.5q217 -141 278 -434l25 -105q15 -72 69.5 -122t120.5 -50h21z" />
    <glyph glyph-name="uniFEA8" unicode="&#x62e;" horiz-adv-x="1290" arabic-form="medial" 
d="M317 1190q-6 32 13 55t51 23q33 0 61.5 -23t34.5 -55q7 -33 -11.5 -56.5t-51.5 -23.5t-61.5 23.5t-35.5 56.5zM1464 0h-1317q-22 0 -39.5 15t-21.5 38q-5 20 7 34.5t34 14.5h975q-47 27 -82 72t-47 98l-23 103q-49 242 -223 356q-66 44 -147.5 68t-152 28t-138.5 -1.5
t-108 -14t-60 -16.5l-55 94q28 13 78.5 24t128 16t158 -1.5t172.5 -35.5t169 -79q218 -142 279 -434l24 -105q15 -72 70 -122t121 -50h178z" />
    <glyph glyph-name="uniFEAA" unicode="&#x62f;" horiz-adv-x="1234" arabic-form="final" 
d="M1434 51q5 -22 -7 -36.5t-36 -14.5h-39q-100 0 -196 44t-169 120q-4 -20 -20 -51q-32 -54 -88.5 -83.5t-124.5 -29.5h-486l-20 102h483q94 0 137 74q44 70 6 160l-274 594l90 26l291 -616q46 -105 144 -171.5t206 -66.5h39q24 0 41.5 -15t22.5 -36z" />
    <glyph glyph-name="uniFEAC" unicode="&#x630;" horiz-adv-x="1282" arabic-form="final" 
d="M559 1100q-31 0 -60 24t-36 56q-6 32 13 54.5t50 22.5q34 0 62.5 -22.5t34.5 -54.5q8 -32 -11 -56t-53 -24zM1481 51q5 -22 -6.5 -36.5t-34.5 -14.5h-88q-102 0 -197.5 43.5t-167.5 120.5q-11 -33 -20 -51q-32 -54 -88.5 -83.5t-124.5 -29.5h-486l-20 102h483
q94 0 137 74q42 64 11 152l-279 602l90 26l291 -616q46 -105 144 -171.5t206 -66.5h86q24 0 41.5 -15t22.5 -36z" />
    <glyph glyph-name="uniFEAE" unicode="&#x631;" horiz-adv-x="741" arabic-form="final" 
d="M879 102q21 0 39 -14t22 -37q4 -22 -7.5 -36.5t-33.5 -14.5h-78q-78 0 -152.5 37.5t-117.5 97.5l33 -162q14 -64 10 -118.5t-16 -97.5t-37 -78t-53.5 -60.5t-65.5 -45t-72.5 -31.5t-75.5 -19l-55 98q36 8 67 18t63 25.5t55 36t43.5 49t29 63.5t11 80t-10.5 99l-196 928
h102l121 -574q22 -101 108.5 -172.5t186.5 -71.5h80z" />
    <glyph glyph-name="uniFEB0" unicode="&#x632;" horiz-adv-x="737" arabic-form="final" 
d="M258 1268q34 0 62 -23t34 -55q7 -34 -11 -57t-52 -23q-31 0 -60 23.5t-36 56.5q-6 32 13 55t50 23zM870 102q22 0 40 -14t22 -37q4 -22 -7.5 -36.5t-33.5 -14.5h-70q-79 0 -152 35.5t-118 99.5l33 -162q14 -64 10 -118.5t-16 -97.5t-37 -78t-53.5 -60.5t-65.5 -45
t-72.5 -31.5t-75.5 -19l-55 98q39 8 71 18t63.5 26.5t55 36.5t42.5 48.5t28 63t9 80t-11 98.5l-196 928h102l121 -574q22 -101 108.5 -172.5t186.5 -71.5h71z" />
    <glyph glyph-name="uniFEB2" unicode="&#x633;" horiz-adv-x="2557" arabic-form="final" 
d="M2695 102q20 0 38.5 -15.5t23.5 -35.5q4 -22 -7.5 -36.5t-31.5 -14.5h-80q-75 0 -145.5 45.5t-104.5 112.5q-30 -75 -92.5 -116.5t-153.5 -41.5q-96 0 -185 51t-145 135q-19 -85 -85.5 -135t-165.5 -51q-77 0 -147.5 35.5t-123.5 95.5l82 -387q12 -60 -19 -101.5
t-89 -41.5h-453q-125 0 -244.5 61.5t-203.5 166.5t-109 228l-61 287h104l61 -287q31 -148 156.5 -251t273.5 -103h435q25 0 38 16.5t9 42.5l-203 963h98l82 -387q20 -100 103 -168t186 -68q105 0 161 71t34 169l-80 379h104l82 -383q20 -101 103.5 -168.5t183.5 -67.5
q99 0 153.5 70.5t34.5 169.5l-125 582h105l141 -668q14 -63 67.5 -108.5t116.5 -45.5h78z" />
    <glyph glyph-name="uniFEB3" unicode="&#x633;" horiz-adv-x="1785" arabic-form="initial" 
d="M1593 922l123 -572q31 -147 -51 -248.5t-229 -101.5q-104 0 -194.5 51.5t-145.5 138.5q-25 -88 -95.5 -139t-171.5 -51q-87 0 -169.5 43t-139.5 117q-8 -70 -60 -115t-128 -45h-187q-20 0 -37.5 14.5t-21.5 36.5q-5 21 6.5 36t32.5 15h184q64 0 100.5 45.5t22.5 110.5
l-100 475h100l84 -391q22 -100 108 -170t189 -70q107 0 165 72t36 176l-82 383h98l84 -391q22 -100 108.5 -170t190.5 -70q108 0 165.5 71.5t35.5 176.5l-123 572h102z" />
    <glyph glyph-name="uniFEB4" unicode="&#x633;" horiz-adv-x="1970" arabic-form="medial" 
d="M2105 102q21 0 40.5 -14.5t23.5 -34.5q4 -23 -9 -38t-34 -15h-156q-82 0 -157 48.5t-111 121.5q-28 -78 -98.5 -124t-165.5 -46q-105 0 -199.5 55t-151.5 144q-24 -92 -96 -145.5t-178 -53.5q-76 0 -166.5 39t-157.5 127q-8 -72 -62 -119t-134 -47h-146q-22 0 -39.5 15
t-21.5 38q-5 20 7 34.5t34 14.5h145q68 0 106 48.5t23 117.5l-98 463h100l82 -377q23 -105 113.5 -178.5t198.5 -73.5q110 0 168.5 75.5t35.5 184.5l-79 369h102l80 -377q23 -105 113 -178.5t198 -73.5q113 0 172.5 75t36.5 185l-119 562h103l141 -656q15 -69 73.5 -117.5
t127.5 -48.5h155z" />
    <glyph glyph-name="uniFEB6" unicode="&#x634;" horiz-adv-x="2564" arabic-form="final" 
d="M1556 1303q34 0 62.5 -23t36.5 -55q6 -34 -12 -57t-52 -23q-32 0 -61 23.5t-35 56.5q-7 32 11.5 55t49.5 23zM1468 1057q34 0 63.5 -23.5t35.5 -54.5q6 -34 -12 -57t-52 -23q-32 0 -61 23.5t-35 56.5q-6 31 12 54.5t49 23.5zM1755 1057q32 0 61 -23.5t37 -54.5
q6 -34 -12.5 -57t-52.5 -23q-31 0 -59.5 23.5t-34.5 56.5q-8 31 10.5 54.5t50.5 23.5zM2701 102q19 0 38.5 -15.5t23.5 -35.5q4 -23 -8 -37t-33 -14h-84q-75 0 -145.5 45.5t-104.5 112.5q-30 -75 -92.5 -116.5t-153.5 -41.5q-96 0 -185 51t-145 135q-19 -85 -85.5 -135
t-165.5 -51q-77 0 -147.5 35.5t-123.5 95.5l82 -387q12 -60 -19 -101.5t-89 -41.5h-453q-125 0 -244.5 61.5t-203.5 166.5t-109 228l-61 287h104l61 -287q31 -148 156.5 -251t273.5 -103h435q25 0 38 16.5t9 42.5l-207 973h98l86 -397q20 -100 103 -168t186 -68
q105 0 161 71t34 169l-82 389h102l86 -393q20 -101 103.5 -168.5t183.5 -67.5q99 0 153.5 70.5t34.5 169.5l-125 582h105l141 -668q14 -63 67.5 -108.5t116.5 -45.5h84z" />
    <glyph glyph-name="uniFEB7" unicode="&#x634;" horiz-adv-x="1789" arabic-form="initial" 
d="M827 1309q33 0 62.5 -23t36.5 -55q6 -34 -13 -57t-53 -23q-31 0 -59.5 23.5t-34.5 56.5q-7 32 11 55t50 23zM739 1063q33 0 62 -23.5t37 -54.5q6 -34 -13 -57t-51 -23q-33 0 -61.5 23.5t-34.5 56.5q-7 31 11.5 54.5t49.5 23.5zM1024 1063q33 0 62.5 -23.5t35.5 -54.5
q6 -34 -12 -57t-51 -23q-32 0 -61 23.5t-35 56.5q-6 31 12 54.5t49 23.5zM1597 922l121 -572q32 -147 -50.5 -248.5t-229.5 -101.5q-104 0 -194.5 51.5t-145.5 138.5q-25 -88 -95.5 -139t-171.5 -51q-87 0 -168.5 43t-140.5 117q-8 -70 -59.5 -115t-128.5 -45h-189
q-20 0 -37.5 14.5t-21.5 36.5q-5 21 6.5 36t32.5 15h186q66 0 101.5 45.5t21.5 110.5l-100 475h102l84 -391q20 -100 106 -170t189 -70q107 0 165 72t36 176l-82 383h100l84 -391q20 -100 107 -170t192 -70q107 0 164 71.5t35 176.5l-121 572h102z" />
    <glyph glyph-name="uniFEB8" unicode="&#x634;" horiz-adv-x="1955" arabic-form="medial" 
d="M825 1309q34 0 63.5 -23t35.5 -55q6 -34 -12 -57t-52 -23q-32 0 -61 23.5t-35 56.5q-6 32 12 55t49 23zM737 1063q34 0 63.5 -23.5t35.5 -54.5q6 -34 -12 -57t-52 -23q-32 0 -61 23.5t-35 56.5q-6 31 12 54.5t49 23.5zM1024 1063q33 0 61.5 -23.5t36.5 -54.5
q6 -34 -12.5 -57t-50.5 -23q-33 0 -61.5 23.5t-34.5 56.5q-7 31 11.5 54.5t49.5 23.5zM2089 102q21 0 40 -14.5t23 -34.5q4 -23 -8 -38t-33 -15h-149q-82 0 -157.5 48.5t-112.5 121.5q-27 -78 -97.5 -124t-167.5 -46q-105 0 -199 54.5t-151 144.5q-24 -92 -96 -145.5
t-178 -53.5q-76 0 -166.5 39t-157.5 127q-8 -72 -61 -119t-133 -47h-138q-22 0 -39.5 15t-21.5 38q-5 20 7 34.5t34 14.5h135q69 0 107 48.5t24 117.5l-100 463h102l80 -377q23 -105 113 -178.5t198 -73.5q112 0 170 75t35 185l-78 369h101l82 -377q24 -105 113 -178.5
t198 -73.5q113 0 172.5 75t36.5 185l-119 562h102l142 -656q14 -69 71.5 -117.5t126.5 -48.5h150z" />
    <glyph glyph-name="uniFEBA" unicode="&#x635;" horiz-adv-x="2678" arabic-form="final" 
d="M2830 102l21 -102h-1497l59 -279q12 -56 -19.5 -95.5t-88.5 -39.5h-478q-129 0 -251.5 63t-208.5 171.5t-113 236.5l-57 269h100l57 -269q32 -153 165 -261.5t286 -108.5h459q23 0 36.5 16.5t8.5 38.5l-252 1180h100l45 -205l557 182q149 47 314.5 -9t273.5 -188
q88 -114 115 -237l73 -352q0 -2 1 -5.5t1 -5.5h293zM2398 102q16 0 24.5 11.5t4.5 29.5l-68 322q-26 108 -90 186q-81 103 -210 144.5t-249 7.5l-585 -193l106 -508h1067z" />
    <glyph glyph-name="uniFEBB" unicode="&#x635;" horiz-adv-x="1732" arabic-form="initial" 
d="M1530 702q84 -109 112 -237l76 -352q9 -49 -17 -81t-71 -32h-1499l-20 102h303l-174 820h100l45 -205l555 182q149 47 315 -9t275 -188zM1610 143l-70 322q-23 107 -90 186q-81 103 -209 144.5t-248 7.5l-587 -193l108 -508h1065q16 0 25 11.5t6 29.5z" />
    <glyph glyph-name="uniFEBC" unicode="&#x635;" horiz-adv-x="1828" arabic-form="medial" 
d="M1978 102l23 -102h-1870l-20 102h286l-174 820h101l45 -205l555 182q149 47 314.5 -8.5t274.5 -188.5q85 -111 113 -237l76 -352q0 -2 1 -5.5t1 -5.5h274zM1563 102q15 0 24 11.5t6 29.5l-69 322q-23 107 -90 186q-81 103 -209 144.5t-248 7.5l-588 -193l109 -508h1065z
" />
    <glyph glyph-name="uniFEBE" unicode="&#x636;" horiz-adv-x="2678" arabic-form="final" 
d="M1702 1110q-31 0 -60 23.5t-36 56.5q-6 32 13 55t50 23q34 0 62 -23t34 -55q7 -34 -11 -57t-52 -23zM2830 102l21 -102h-1497l59 -279q12 -56 -19.5 -95.5t-88.5 -39.5h-478q-129 0 -251.5 63t-208.5 171.5t-113 236.5l-64 293h103l61 -293q32 -153 165 -261.5
t286 -108.5h459q23 0 36.5 16.5t8.5 38.5l-252 1180h100l45 -205l557 182q149 47 314.5 -9t273.5 -188q88 -114 115 -237l73 -352q0 -2 1 -5.5t1 -5.5h293zM2398 102q16 0 24.5 11.5t4.5 29.5l-68 322q-26 108 -90 186q-81 103 -210 144.5t-249 7.5l-585 -193l106 -508h1067
z" />
    <glyph glyph-name="uniFEBF" unicode="&#x636;" horiz-adv-x="1716" arabic-form="initial" 
d="M756 1268q33 0 61.5 -23t34.5 -55q7 -33 -12 -56.5t-52 -23.5q-32 0 -60.5 23t-35.5 57q-6 32 13 55t51 23zM1513 702q89 -116 113 -237l76 -352q10 -48 -16.5 -80.5t-71.5 -32.5h-1483l-20 102h286l-174 820h101l45 -205l557 182q149 47 313.5 -8.5t273.5 -188.5z
M1593 143l-69 322q-23 107 -90 186q-78 103 -207.5 144.5t-249.5 7.5l-586 -193l107 -508h1065q17 0 25 11t5 30z" />
    <glyph glyph-name="uniFEC0" unicode="&#x636;" horiz-adv-x="1841" arabic-form="medial" 
d="M903 1110q-31 0 -60 23.5t-36 56.5q-6 32 13 55t50 23q34 0 62.5 -23t34.5 -55q7 -34 -11.5 -57t-52.5 -23zM1993 102l20 -102h-1882l-20 102h295l-175 820h101l45 -205l555 182q149 47 315 -9t275 -188q84 -109 112 -237l76 -352q0 -2 1 -5.5t1 -5.5h281zM1571 102
q16 0 25 11.5t6 29.5l-70 322q-23 107 -90 186q-81 103 -209 144.5t-248 7.5l-588 -193l109 -508h1065z" />
    <glyph glyph-name="uniFEC2" unicode="&#x637;" horiz-adv-x="1986" arabic-form="final" 
d="M2138 102l21 -102h-1878l-23 109h279l-279 1314h102l148 -694l557 180q149 49 314.5 -6.5t273.5 -189.5q87 -110 112 -238l78 -362q0 -2 1 -5.5t1 -5.5h293zM1704 102q17 0 25.5 11t5.5 30l-72 332q-23 109 -90 187q-81 103 -209 145t-248 6l-584 -192l109 -519h1063z
" />
    <glyph glyph-name="uniFEC3" unicode="&#x637;" horiz-adv-x="1726" arabic-form="initial" 
d="M1522 713q84 -107 110 -238l80 -362q9 -49 -17 -81t-71 -32h-1493l-20 102h295l-279 1321h102l148 -694l555 180q149 49 315 -6.5t275 -189.5zM1604 143l-74 332q-20 108 -90 187q-79 103 -207 145t-248 6l-586 -192l109 -519h1065q16 0 25 11.5t6 29.5z" />
    <glyph glyph-name="uniFEC4" unicode="&#x637;" horiz-adv-x="1845" arabic-form="medial" 
d="M1995 102l22 -102h-1886l-20 102h297l-281 1321h102l148 -696l557 180q149 49 314 -6.5t274 -189.5q88 -111 112 -238l78 -360q0 -2 1 -5.5t1 -5.5h281zM1573 102q16 0 25 11.5t6 29.5l-72 330q-23 108 -90 189q-81 103 -209 144t-248 7l-586 -192l111 -519h1063z" />
    <glyph glyph-name="uniFEC6" unicode="&#x638;" horiz-adv-x="1978" arabic-form="final" 
d="M2128 102l22 -102h-1876l-22 109h276l-278 1314h102l148 -694l557 180q149 49 314 -6.5t274 -189.5q87 -110 112 -238l78 -362q0 -2 1 -5.5t1 -5.5h291zM1067 1110q-31 0 -60 23.5t-36 56.5q-6 32 13 55t50 23q34 0 62 -23t34 -55q7 -34 -11 -57t-52 -23zM1696 102
q15 0 24 11.5t6 29.5l-71 332q-23 109 -90 187q-81 103 -209 145t-248 6l-586 -192l111 -519h1063z" />
    <glyph glyph-name="uniFEC7" unicode="&#x638;" horiz-adv-x="1710" arabic-form="initial" 
d="M1522 713q84 -107 110 -238l80 -362q9 -49 -17 -81t-71 -32h-1493l-20 102h295l-279 1321h102l148 -694l555 180q149 49 315 -6.5t275 -189.5zM860 1268q33 0 61.5 -23t34.5 -55q7 -33 -11.5 -56.5t-51.5 -23.5q-32 0 -60.5 23t-35.5 57q-6 32 12.5 55t50.5 23zM1604 143
l-74 332q-20 108 -90 187q-79 103 -207 145t-248 6l-586 -192l109 -519h1065q16 0 25 11.5t6 29.5z" />
    <glyph glyph-name="uniFEC8" unicode="&#x638;" horiz-adv-x="1847" arabic-form="medial" 
d="M1997 102l22 -102h-1888l-20 102h299l-281 1321h102l148 -696l557 180q149 49 314.5 -6.5t273.5 -189.5q85 -104 114 -238l76 -360q0 -2 1 -5.5t1 -5.5h281zM915 1110q-32 0 -60.5 23t-35.5 57q-6 32 13 55t51 23q33 0 61.5 -23t34.5 -55q7 -33 -12 -56.5t-52 -23.5z
M1577 102q16 0 24.5 11.5t4.5 29.5l-70 330q-23 109 -92 189q-81 103 -208 144t-247 7l-586 -192l109 -519h1065z" />
    <glyph glyph-name="uniFECA" unicode="&#x639;" horiz-adv-x="1323" arabic-form="final" 
d="M1489 102l20 -102h-868q-110 0 -170.5 -78.5t-38.5 -187.5q25 -108 118.5 -185t203.5 -77h489l23 -105h-490q-154 0 -285 107.5t-165 259.5q-33 155 46.5 260t219.5 108h108l-364 574l16 141q108 74 246.5 105t265.5 8q144 -28 254 -144t127 -258q6 -56 -0.5 -113.5
t-26 -118t-64 -112t-107.5 -82.5h442zM455 748l-6 -78l362 -561q62 6 113.5 26t85.5 48t60.5 64t39.5 74t22 77t7.5 74t-2.5 65q-10 102 -89 186t-182 106q-35 7 -72 8t-67.5 -2t-64.5 -10.5t-57.5 -14.5t-52 -18t-42 -17.5t-34 -16t-21.5 -10.5z" />
    <glyph glyph-name="uniFECB" unicode="&#x639;" horiz-adv-x="1110" arabic-form="initial" 
d="M1085 102l23 -102h-977l-20 102h327q-88 38 -152.5 117t-84.5 174l-31 144q-31 164 62.5 279.5t256.5 115.5q148 0 279.5 -95.5t175.5 -236.5l-70 -55q-33 121 -135 202.5t-227 81.5q-122 0 -192.5 -85t-45.5 -209l29 -140q26 -123 132.5 -208t230.5 -85h419z" />
    <glyph glyph-name="uniFECC" unicode="&#x639;" horiz-adv-x="1134" arabic-form="medial" 
d="M143 0l-20 102h375l-365 574l17 141q108 74 246.5 105t265.5 8q144 -28 253.5 -144t126.5 -258q5 -56 -1.5 -113t-26 -118t-63.5 -112.5t-107 -82.5l428 2l20 -102zM246 670l362 -561q62 6 113.5 26t85.5 48t60.5 64t39.5 74t22 77t7.5 74t-2.5 65q-10 102 -88.5 186
t-181.5 106q-35 7 -72 8t-67.5 -2t-65 -10.5t-57.5 -14.5t-52 -18.5t-42 -17t-34 -16t-22 -10.5z" />
    <glyph glyph-name="uniFECE" unicode="&#x63a;" horiz-adv-x="1323" arabic-form="final" 
d="M641 1110q-31 0 -59.5 23.5t-34.5 56.5q-6 32 12 55t49 23q34 0 63.5 -23t35.5 -55q6 -34 -13 -57t-53 -23zM1489 102l20 -102h-868q-110 0 -170.5 -78.5t-38.5 -187.5q25 -108 118.5 -185t203.5 -77h489l23 -105h-490q-154 0 -285 107.5t-165 259.5q-33 155 46.5 260
t219.5 108h108l-364 574l16 141q108 74 246.5 105t265.5 8q144 -28 254 -144t127 -258q6 -56 -0.5 -113.5t-26 -118t-64 -112t-107.5 -82.5h442zM455 748l-6 -78l362 -561q62 6 113.5 26t85.5 48t60.5 64t39.5 74t22 77t7.5 74t-2.5 65q-10 102 -89 186t-182 106
q-35 7 -72 8t-67.5 -2t-64.5 -10.5t-57.5 -14.5t-52 -18t-42 -17.5t-34 -16t-21.5 -10.5z" />
    <glyph glyph-name="uniFECF" unicode="&#x63a;" horiz-adv-x="1110" arabic-form="initial" 
d="M401 1268q34 0 63.5 -23t35.5 -55q6 -34 -13 -57t-53 -23q-31 0 -59.5 23.5t-34.5 56.5q-6 32 12 55t49 23zM1096 102l20 -102h-985l-20 102h327q-90 43 -154.5 122t-84.5 175l-29 140q-20 107 15.5 198t116 144t187.5 53q148 0 279.5 -96.5t175.5 -237.5l-70 -53
q-33 119 -135 200.5t-227 81.5q-122 0 -192.5 -85t-47.5 -207l31 -136q26 -124 133 -211.5t230 -87.5h430z" />
    <glyph glyph-name="uniFED0" unicode="&#x63a;" horiz-adv-x="1148" arabic-form="medial" 
d="M459 1268q34 0 62 -23t34 -55q7 -34 -11 -57t-52 -23q-31 0 -60.5 23.5t-36.5 56.5q-6 32 13.5 55t50.5 23zM143 0l-20 102h375l-365 574l17 141q108 74 246.5 105t265.5 8q144 -28 253.5 -144t126.5 -258q5 -56 -1.5 -113t-26 -118t-63.5 -112.5t-107 -82.5l428 2
l20 -102zM246 670l362 -561q62 6 113.5 26t85.5 48t60.5 64t39.5 74t22 77t7.5 74t-2.5 65q-10 102 -88.5 186t-181.5 106q-35 7 -72 8t-67.5 -2t-65 -10.5t-57.5 -14.5t-52 -18.5t-42 -17t-34 -16t-22 -10.5z" />
    <glyph glyph-name="uniFED2" unicode="&#x641;" horiz-adv-x="2056" arabic-form="final" 
d="M1337 1276q34 0 62.5 -23t34.5 -55q7 -34 -11.5 -57t-52.5 -23q-31 0 -60 23.5t-36 56.5q-6 32 13 55t50 23zM2195 102l23 -102h-1499q-188 0 -349.5 134t-201.5 323l-57 276h102l57 -276q31 -146 156 -249.5t270 -103.5h672q-110 51 -190.5 146.5t-104.5 212.5l-12 53
q-24 112 12.5 208t121.5 152t198 56q172 0 319 -122t184 -294l89 -414h210zM1882 102l-88 414q-26 129 -138 221t-241 92q-132 0 -206 -93.5t-46 -225.5l11 -47q31 -142 150.5 -245t262.5 -114z" />
    <glyph glyph-name="uniFED3" unicode="&#x641;" horiz-adv-x="1136" arabic-form="initial" 
d="M483 1276q34 0 62.5 -23t34.5 -55q7 -34 -11.5 -57t-52.5 -23q-31 0 -60 23.5t-36 56.5q-6 32 13 55t50 23zM526 932h418l176 -830q8 -43 -15.5 -72.5t-64.5 -29.5h-909l-20 102h358q-93 46 -162 132t-92 188l-20 98q-24 113 12.5 208t121 149.5t197.5 54.5zM1010 137
l-148 697h-313q-132 0 -206 -93.5t-46 -226.5l20 -94q29 -131 142 -224.5t243 -93.5h281q13 0 21.5 10.5t5.5 24.5z" />
    <glyph glyph-name="uniFED4" unicode="&#x641;" horiz-adv-x="1236" arabic-form="medial" 
d="M520 1118q-31 0 -60 23.5t-36 56.5q-6 32 13 55t50 23q34 0 62.5 -23t34.5 -55q7 -34 -11.5 -57t-52.5 -23zM1118 102h258l23 -102h-1258l-20 102h362q-94 46 -162.5 131.5t-91.5 186.5l-20 96q-23 113 13 208.5t120.5 152t198.5 57.5q171 0 318.5 -123t184.5 -295
l78 -369q7 -31 -4 -45zM995 102q14 0 22.5 10.5t4.5 26.5l-80 377q-28 129 -139.5 221t-241.5 92q-132 0 -206 -92.5t-46 -224.5l21 -94q28 -130 141.5 -223t245.5 -93h278z" />
    <glyph glyph-name="uniFED6" unicode="&#x642;" horiz-adv-x="1423" arabic-form="final" 
d="M629 1276q34 0 62 -23t34 -55q7 -34 -11 -57t-52 -23q-31 0 -60.5 23.5t-36.5 56.5q-6 32 13.5 55t50.5 23zM883 1276q34 0 63 -23t35 -55q6 -34 -13 -57t-53 -23q-31 0 -59.5 23.5t-34.5 56.5q-6 32 12.5 55t49.5 23zM1573 102l22 -102h-176l60 -270q14 -62 -21 -107
t-96 -45h-528q-130 0 -254 63.5t-211.5 174t-114.5 241.5l-64 293h105l63 -291q32 -155 165 -264.5t288 -109.5h516q25 0 37 15.5t8 41.5l-57 258h-305q-171 0 -317 118t-183 288l-23 112q-24 113 11 208.5t118.5 151.5t196.5 56q167 0 314 -120.5t182 -287.5l90 -424h174z
M1294 102l-90 424q-28 126 -135 214.5t-233 88.5q-131 0 -203 -91t-43 -220l22 -112q28 -126 138 -215t239 -89h305z" />
    <glyph glyph-name="uniFED7" unicode="&#x642;" horiz-adv-x="1144" arabic-form="initial" 
d="M369 1276q34 0 62 -23t34 -55q7 -34 -11.5 -57t-52.5 -23q-31 0 -60 23.5t-36 56.5q-6 32 13.5 55t50.5 23zM623 1276q34 0 63 -23t35 -55q6 -34 -13 -57t-53 -23q-31 0 -59.5 23.5t-34.5 56.5q-6 32 12.5 55t49.5 23zM535 932h415l176 -830q9 -43 -14.5 -72.5
t-64.5 -29.5h-916l-20 102h366q-94 46 -163.5 132t-92.5 188l-20 98q-24 113 12.5 208t122 149.5t199.5 54.5zM1018 137l-150 697h-313q-132 0 -206 -93.5t-46 -226.5l21 -94q29 -131 142.5 -224.5t244.5 -93.5h278q14 0 23 11t6 24z" />
    <glyph glyph-name="uniFED8" unicode="&#x642;" horiz-adv-x="1234" arabic-form="medial" 
d="M385 1118q-31 0 -59.5 23.5t-34.5 56.5q-6 32 12 55t49 23q34 0 63.5 -23t35.5 -55q6 -34 -13 -57t-53 -23zM641 1118q-31 0 -60 23.5t-36 56.5q-6 32 13 55t50 23q34 0 62.5 -23t34.5 -55q7 -34 -11.5 -57t-52.5 -23zM1120 102h254l23 -102h-1256l-20 102h364
q-94 47 -162.5 131.5t-89.5 186.5l-22 96q-24 113 12 209t120.5 152.5t197.5 56.5q173 0 321 -123t185 -295l75 -362q5 -23 -2 -52zM997 102q14 0 22.5 10.5t4.5 26.5l-80 377q-28 130 -139.5 222.5t-241.5 92.5q-132 0 -205 -94.5t-45 -226.5l21 -94q26 -130 139.5 -222
t245.5 -92h278z" />
    <glyph glyph-name="uniFEDA" unicode="&#x643;" horiz-adv-x="1665" arabic-form="final" 
d="M1817 102l20 -102h-1135q-118 0 -230 58t-190.5 157.5t-103.5 216.5l-57 268h100l58 -268q29 -136 147.5 -233t253.5 -97h774q23 0 37 16.5t10 39.5l-268 1265h102l275 -1296q1 -4 2 -12.5t2 -12.5h203zM670 889q-59 52 -70 106q-12 71 26 117.5t103 46.5q62 0 117 -41.5
t74 -97.5l-48 -25q-14 42 -51.5 72.5t-79.5 30.5q-43 0 -64.5 -30.5t-10.5 -76.5q8 -40 42 -71t78 -31h156l12 -62h-342l-14 62h72z" />
    <glyph glyph-name="uniFEDB" unicode="&#x643;" horiz-adv-x="1333" arabic-form="initial" 
d="M664 930q197 0 365.5 -139.5t211.5 -337.5l76 -359q8 -38 -14 -66t-60 -28h-1112l-20 102h1060q17 0 26.5 12t6.5 27l-65 305q-34 158 -170 269.5t-293 111.5h-526l-97 117l297 584l96 -62l-276 -536h494z" />
    <glyph glyph-name="uniFEDC" unicode="&#x643;" horiz-adv-x="1368" arabic-form="medial" 
d="M1518 102l20 -102h-1407l-20 102h1071l-72 344q-34 158 -170 269.5t-293 111.5h-514l-80 125l289 582l96 -61l-268 -543h465q130 0 253 -63.5t210 -173.5t114 -240l74 -351h232z" />
    <glyph glyph-name="uniFEDE" unicode="&#x644;" horiz-adv-x="1490" arabic-form="final" 
d="M1628 102q21 0 39.5 -14.5t22.5 -36.5t-7.5 -36.5t-33.5 -14.5h-90q-68 0 -132.5 36.5t-99.5 94.5l86 -416q10 -49 -17 -82.5t-75 -33.5h-498q-128 0 -250.5 63t-209 171.5t-113.5 236.5l-60 284h103l61 -284q32 -154 162.5 -261.5t284.5 -107.5h461q25 0 35.5 17t5.5 40
l-355 1665h103l233 -1097q19 -92 93 -158t159 -66h92z" />
    <glyph glyph-name="uniFEDF" unicode="&#x644;" horiz-adv-x="591" arabic-form="initial" 
d="M145 0q-20 0 -37.5 14.5t-21.5 36.5q-5 22 6 36.5t33 14.5h139q66 0 103.5 46.5t23.5 111.5l-246 1163h103l246 -1163q23 -107 -36.5 -183.5t-166.5 -76.5h-146z" />
    <glyph glyph-name="uniFEE0" unicode="&#x644;" horiz-adv-x="606" arabic-form="medial" 
d="M741 102q22 0 41 -14t23 -35q4 -22 -8.5 -37.5t-34.5 -15.5h-78q-73 0 -144.5 39t-119.5 102q-19 -63 -73 -102t-128 -39h-72q-22 0 -39.5 15t-21.5 38q-5 22 6.5 35.5t34.5 13.5h61q74 0 117.5 55.5t28.5 131.5l-242 1134h103l241 -1134q19 -77 85.5 -132t142.5 -55h77z
" />
    <glyph glyph-name="uniFEE2" unicode="&#x645;" horiz-adv-x="1339" arabic-form="final" 
d="M1507 102l23 -102h-107q-96 0 -180.5 60t-118.5 149q-30 -95 -111.5 -152t-193.5 -57q-102 0 -194.5 42.5t-153.5 111.5l23 -103q10 -72 7.5 -129t-23.5 -102.5t-48 -79.5t-66 -59t-77.5 -40.5t-81.5 -25.5l-41 100q48 12 86.5 30.5t71.5 48.5t50.5 70t24 93.5
t-9.5 120.5l-182 854h418q173 0 321.5 -123.5t185.5 -298.5l50 -223q18 -76 82 -130.5t141 -54.5h104zM799 102q132 0 205 91.5t47 222.5l-23 94q-26 132 -138.5 224.5t-244.5 92.5h-315l92 -430q16 -73 54.5 -130.5t90.5 -92.5t111.5 -53.5t120.5 -18.5z" />
    <glyph glyph-name="uniFEE3" unicode="&#x645;" horiz-adv-x="1296" arabic-form="initial" 
d="M115 102q-22 0 -33.5 -14.5t-7.5 -36.5q5 -21 22.5 -36t38.5 -15h80q103 0 173 61.5t81 157.5q72 -101 182 -161.5t226 -57.5q169 3 264.5 124.5t60.5 291.5l-20 90q-37 180 -185 303t-325 123h-424l127 -598q22 -97 -30.5 -164.5t-151.5 -67.5h-78zM848 102
q-131 0 -243.5 91t-143.5 223l-88 413h317q134 0 247.5 -92.5t141.5 -226.5l21 -90q26 -131 -47 -224t-205 -94z" />
    <glyph glyph-name="uniFEE4" unicode="&#x645;" horiz-adv-x="1404" arabic-form="medial" 
d="M1544 102q22 0 41 -14.5t23 -36.5q4 -20 -8.5 -35.5t-32.5 -15.5h-86q-96 0 -180.5 60t-118.5 149q-30 -94 -110.5 -151.5t-192.5 -57.5q-118 0 -226 59.5t-178 159.5q-11 -96 -81 -157.5t-173 -61.5h-84q-21 0 -37.5 15t-21.5 36q-5 22 6 36.5t33 14.5h82q97 0 150.5 68
t31.5 166l-127 596h426q174 0 322.5 -121.5t185.5 -294.5l49 -229q17 -75 82.5 -130t140.5 -55h84zM1106 424l-21 90q-29 134 -142 224.5t-249 90.5h-313l86 -411q29 -131 141.5 -223.5t241.5 -92.5q137 1 210.5 95t45.5 227z" />
    <glyph glyph-name="uniFEE6" unicode="&#x646;" horiz-adv-x="1482" arabic-form="final" 
d="M623 948q34 0 63 -23t35 -55q7 -32 -12 -55.5t-52 -23.5q-32 0 -60 23.5t-36 55.5q-6 32 12.5 55t49.5 23zM1618 102q22 0 40.5 -14.5t22.5 -36.5t-8.5 -36.5t-34.5 -14.5h-88q-68 0 -132 36.5t-99 94.5l88 -412q9 -49 -18.5 -82.5t-77.5 -33.5h-490q-129 0 -251 63
t-207.5 171t-112.5 235l-60 278h103l59 -278q32 -151 163.5 -260t283.5 -109h446q25 0 39 17t10 42l-239 1127h102l119 -567q22 -92 94.5 -156t157.5 -64h90z" />
    <glyph glyph-name="uniFEE7" unicode="&#x646;" horiz-adv-x="569" arabic-form="initial" 
d="M227 1268q34 0 62.5 -23t34.5 -55q7 -34 -11.5 -57t-52.5 -23q-31 0 -60 23.5t-36 56.5q-6 32 13 55t50 23zM276 0h-126q-22 0 -41 14.5t-23 34.5q-4 23 8 38t35 15h127q71 0 110.5 50t24.5 120l-137 648h102l138 -648q25 -112 -39.5 -192t-178.5 -80z" />
    <glyph glyph-name="uniFEE8" unicode="&#x646;" horiz-adv-x="622" arabic-form="medial" 
d="M211 1137q33 0 62.5 -23.5t35.5 -54.5q6 -34 -12.5 -57t-52.5 -23q-31 0 -59.5 23.5t-34.5 56.5q-6 31 12 54.5t49 23.5zM758 102q22 0 40.5 -14t22.5 -35q4 -22 -8.5 -37.5t-34.5 -15.5h-86q-74 0 -144.5 39t-119.5 102q-19 -63 -74 -102t-129 -39h-78q-22 0 -39 14.5
t-22 36.5q-5 23 6.5 37t34.5 14h68q75 0 117.5 55t27.5 132l-96 442h104l96 -442q17 -76 84 -131.5t142 -55.5h88z" />
    <glyph glyph-name="uniFEEA" unicode="&#x647;" horiz-adv-x="1275" arabic-form="final" 
d="M1411 102q22 0 41 -14.5t23 -36.5q5 -20 -7 -35.5t-34 -15.5h-95q-103 0 -198.5 61.5t-147.5 157.5q-28 -98 -110.5 -158.5t-196.5 -60.5q-173 0 -323 122t-187 294l-20 98q-37 178 58.5 298t274.5 120h422l127 -598q22 -98 102 -165t179 -67h92zM664 102q132 0 206 94.5
t45 227.5l-86 405h-319q-132 0 -206.5 -90t-45.5 -225l21 -94q28 -132 141 -225t244 -93z" />
    <glyph glyph-name="uniFEEB" unicode="&#x647;" horiz-adv-x="1460" arabic-form="initial" 
d="M737 1061q236 -64 415 -251t232 -435l50 -238q12 -56 -18.5 -96.5t-86.5 -40.5h-1198l-20 102h315q-88 43 -153 125.5t-87 180.5q-33 160 59 269t255 109q168 0 309.5 -118.5t175.5 -284.5l49 -229q8 -28 -2 -52h262q20 0 31 15t6 35l-47 223q-44 209 -194.5 369.5
t-352.5 216.5q-185 53 -362 53l-19 100q180 -2 381 -53zM522 684q-120 0 -189.5 -83t-43.5 -206t128 -208t218 -85h270q15 0 25 11t6 26l-53 250q-25 119 -131 207t-230 88z" />
    <glyph glyph-name="uniFEEC" unicode="&#x647;" horiz-adv-x="1282" arabic-form="medial" 
d="M1167 102h265l22 -102h-229l10 -43q37 -180 -62.5 -299t-289.5 -119q-179 0 -334.5 121.5t-202.5 296.5l-12 43h-203l-20 102h198l-73 347q-38 184 56 319t263 143q184 9 352 -120q79 -64 131.5 -146t71.5 -172q28 -132 -15.5 -240.5t-147.5 -170.5t-245 -62h-262l11 -41
q37 -134 155 -226.5t254 -92.5q142 0 220.5 97.5t49.5 235.5l-16 66q-4 27 12 45t41 18zM338 449l74 -347h270q103 0 186 45.5t124 132t18 193.5q-32 148 -156 244q-122 98 -270 92q-132 -6 -203.5 -111.5t-42.5 -248.5z" />
    <glyph glyph-name="uniFEEE" unicode="&#x648;" horiz-adv-x="1112" arabic-form="final" 
d="M1100 0l6 -33q41 -195 -62 -313q-76 -91 -200.5 -124.5t-333.5 -31.5l-21 103q29 1 70 -1t97.5 4.5t109.5 17.5t105.5 38.5t86.5 67.5q70 79 46 219l-11 53h-291q-189 0 -341.5 135t-194.5 330q-27 129 6 235.5t121 169t213 62.5h395l176 -830h187l20 -102h-184zM973 102
l-154 725h-293q-146 0 -218.5 -104t-39.5 -258q33 -153 150 -258t264 -105h291z" />
    <glyph glyph-name="uniFEF0" unicode="&#x649;" horiz-adv-x="1798" arabic-form="final" 
d="M1931 102q23 0 42.5 -13.5t23.5 -35.5t-8.5 -37.5t-34.5 -15.5q-148 0 -303 35q50 -38 84.5 -92.5t46.5 -112.5q31 -142 -48.5 -243t-220.5 -101h-649q-136 0 -267 68t-224 184t-121 252l-66 309h105l65 -309q35 -165 178 -282.5t308 -117.5h649q97 0 152.5 70.5
t33.5 169.5q-17 82 -80 150t-149 94l-274 102l24 96q189 -74 225 -86q257 -84 508 -84z" />
    <glyph glyph-name="uniFEF2" unicode="&#x64a;" horiz-adv-x="1798" arabic-form="final" 
d="M1931 102q23 0 42.5 -13.5t23.5 -35.5t-8.5 -37.5t-34.5 -15.5q-148 0 -303 35q50 -38 84.5 -92.5t46.5 -112.5q31 -142 -48.5 -243t-220.5 -101h-649q-136 0 -267 68t-224 184t-121 252l-66 309h105l65 -309q35 -165 178 -282.5t308 -117.5h649q97 0 152.5 70.5
t33.5 169.5q-17 82 -80 150t-149 94l-274 102l24 96q189 -74 225 -86q257 -84 508 -84zM1051 -666q34 0 64 -22.5t36 -54.5q6 -33 -13.5 -56.5t-52.5 -23.5q-31 0 -59.5 24t-34.5 56t11.5 54.5t48.5 22.5zM1311 -666q34 0 63 -22.5t35 -54.5q8 -32 -10.5 -56t-52.5 -24
q-31 0 -60.5 24t-36.5 56q-6 32 12.5 54.5t49.5 22.5z" />
    <glyph glyph-name="uniFEF3" unicode="&#x64a;" horiz-adv-x="677" arabic-form="initial" 
d="M412 0h-262q-22 0 -41 14.5t-23 34.5q-4 23 8 38t35 15h262q71 0 110.5 50t24.5 120l-137 648h103l137 -648q25 -112 -39 -192t-178 -80zM395 -238q34 0 63.5 -22.5t35.5 -54.5q7 -33 -12 -56.5t-52 -23.5q-32 0 -60.5 23t-35.5 57q-6 32 12 54.5t49 22.5zM655 -238
q34 0 63.5 -22.5t35.5 -54.5q7 -33 -12.5 -56.5t-53.5 -23.5q-31 0 -59 23.5t-35 56.5q-6 32 12 54.5t49 22.5z" />
    <glyph glyph-name="uniFEF4" unicode="&#x64a;" horiz-adv-x="704" arabic-form="medial" 
d="M840 102q22 0 40.5 -14t22.5 -35q4 -22 -8.5 -37.5t-34.5 -15.5h-123q-73 0 -144.5 39t-119.5 102q-19 -63 -73 -102t-128 -39h-125q-22 0 -39.5 15t-21.5 38q-5 22 6.5 35.5t34.5 13.5h115q74 0 117 55.5t28 131.5l-98 452h102l98 -452q19 -77 85.5 -132t142.5 -55h123z
M406 -238q33 0 62.5 -22.5t35.5 -54.5q6 -34 -13 -57t-53 -23q-31 0 -59.5 23.5t-34.5 56.5q-6 32 12 54.5t50 22.5zM664 -238q34 0 63 -22.5t35 -54.5q7 -34 -11.5 -57t-52.5 -23q-31 0 -60 23.5t-36 56.5q-6 32 12.5 54.5t49.5 22.5z" />
    <glyph glyph-name=".notdef" horiz-adv-x="972" 
d="M799 1434v-1946h-619v1946h619zM647 1303h-319v-64h125v-72h-127v-63h321v63h-127v72h127v64zM520 1053h-194v-203h321v65h-127v138zM453 987v-72h-64v72h64zM647 797h-321v-64h127v-71h-127v-64h194v135h127v64zM647 680h-63v-127h-258v-68h321v195zM647 442h-194v-108
h67v45h64v-92h-195v155h-63v-219h321v219zM647 106h-321v-219h321v219zM584 43v-92h-195v92h195zM647 -158h-321v-63h135l-135 -92v-64h321v64h-198l137 92h61v63z" />
    <glyph glyph-name=".null" horiz-adv-x="307" 
 />
    <glyph glyph-name="nonmarkingreturn" horiz-adv-x="682" 
 />
    <glyph glyph-name="CR" unicode="&#xd;" horiz-adv-x="497" 
 />
    <glyph glyph-name="space" unicode=" " horiz-adv-x="487" 
 />
    <glyph glyph-name="exclam" unicode="!" horiz-adv-x="569" 
d="M377 1434h119l-226 -1028h-102zM88 47q-8 27 3 51t38 37q29 14 52 9t30 -31q9 -25 -1.5 -50t-39.5 -38q-28 -14 -50.5 -8t-31.5 30z" />
    <glyph glyph-name="quotedbl" unicode="&#x22;" horiz-adv-x="712" 
d="M287 1460h116l-129 -547h-90zM625 1460h116l-129 -547h-90z" />
    <glyph glyph-name="numbersign" unicode="#" horiz-adv-x="1497" 
d="M1139 907l-158 -381h262l-16 -86h-279l-168 -409h-98l168 409h-430l-168 -409h-96l168 409h-256l16 86h272l158 381h-262l18 86h279l168 410h96l-166 -410h430l166 410h98l-167 -410h256l-19 -86h-272zM1042 907h-430l-157 -381h430z" />
    <glyph glyph-name="dollar" unicode="$" horiz-adv-x="1202" 
d="M1028 408q-35 -166 -176 -266.5t-350 -106.5l-29 -137h-59l28 137q-173 6 -280 84.5t-135 216.5l90 55q29 -119 117.5 -183.5t230.5 -70.5l117 545l-74 18q-182 46 -253 128t-42 214q33 160 172 257t348 100l29 137h59l-28 -137q153 -7 248.5 -71t121.5 -175l-90 -55
q-53 188 -303 200l-113 -526l93 -22q177 -43 242 -127t36 -215zM604 786l109 514q-159 -3 -260.5 -70t-126.5 -186q-23 -103 38 -157t240 -101zM522 135q160 4 263.5 76.5t129.5 194.5q23 108 -38.5 163t-239.5 99z" />
    <glyph glyph-name="percent" unicode="%" horiz-adv-x="1677" 
d="M434 782q-149 0 -225 94t-45 244q32 150 148.5 245t265.5 95q148 0 223 -95t43 -245q-31 -150 -146 -244t-264 -94zM1450 1434h109l-1332 -1434h-106zM451 866q110 0 194 70t109 184q25 115 -28.5 185.5t-164.5 70.5q-113 0 -196.5 -70.5t-108.5 -185.5
q-25 -114 29.5 -184t165.5 -70zM1102 -27q-149 0 -224.5 95t-43.5 245t147.5 245t263.5 95q149 0 224.5 -95t43.5 -245t-147.5 -245t-263.5 -95zM1118 59q111 0 195.5 70t109.5 184q25 115 -29 185.5t-167 70.5q-111 0 -194.5 -70.5t-108.5 -185.5q-25 -114 29 -184t165 -70
z" />
    <glyph glyph-name="ampersand" unicode="&#x26;" horiz-adv-x="1380" 
d="M1022 0l-115 172q-205 -199 -469 -199q-200 0 -301.5 104.5t-66.5 270.5q26 125 124.5 219.5t311.5 204.5q-91 138 -118 216t-9 161q27 133 142.5 222t277.5 89q159 0 235.5 -87.5t48.5 -219.5q-23 -113 -119.5 -200.5t-318.5 -202.5l283 -424q116 150 180 376h104
q-80 -270 -231 -458l164 -244h-123zM481 1145q-15 -70 10.5 -136t110.5 -194q198 103 278 172.5t99 157.5q23 98 -35 159.5t-166 61.5q-107 0 -191.5 -61.5t-105.5 -159.5zM465 74q223 0 389 172l-303 456q-181 -94 -262 -171t-103 -175q-28 -128 49 -205t230 -77z" />
    <glyph glyph-name="quotesingle" unicode="'" horiz-adv-x="372" 
d="M287 1460h116l-129 -547h-90z" />
    <glyph glyph-name="parenleft" unicode="(" horiz-adv-x="638" 
d="M272 -260q-115 182 -148.5 419.5t19.5 479.5q51 243 185.5 480.5t324.5 418.5l78 -53q-176 -169 -301.5 -394t-173.5 -452q-50 -225 -19 -450.5t136 -395.5z" />
    <glyph glyph-name="parenright" unicode=")" horiz-adv-x="638" 
d="M463 639q-51 -245 -185.5 -481.5t-326.5 -417.5l-76 53q176 170 301.5 395t173.5 451q48 222 18 450t-135 396l101 53q115 -182 148.5 -419.5t-19.5 -479.5z" />
    <glyph glyph-name="asterisk" unicode="*" horiz-adv-x="925" 
d="M590 1032l151 -276l-84 -54l-137 285l-260 -282l-61 51l270 278l-311 99l45 86l303 -115l67 348h91l-82 -348l352 113l10 -84z" />
    <glyph glyph-name="plus" unicode="+" horiz-adv-x="1454" 
d="M1143 598h-387l-86 -410h-109l88 410h-387l23 102h387l86 412h108l-88 -412h387z" />
    <glyph glyph-name="comma" unicode="," horiz-adv-x="415" 
d="M82 244h115l-236 -555h-92z" />
    <glyph glyph-name="hyphen" unicode="-" horiz-adv-x="815" 
d="M100 639h584l-22 -98h-584z" />
    <glyph glyph-name="period" unicode="." horiz-adv-x="473" 
d="M41 47q-9 26 2 50t37 38q29 14 53 8.5t31 -30.5q9 -25 -1.5 -50t-39.5 -38q-28 -14 -51.5 -8t-30.5 30z" />
    <glyph glyph-name="slash" unicode="/" horiz-adv-x="929" 
d="M958 1516h111l-1122 -1709h-109z" />
    <glyph glyph-name="zero" unicode="0" horiz-adv-x="1427" 
d="M555 -27q-165 0 -272 94t-138 259.5t13 390.5q71 334 266.5 538.5t445.5 204.5q165 0 273 -94t139.5 -259t-12.5 -390q-71 -333 -268 -538.5t-447 -205.5zM580 80q195 0 352 175.5t219 461.5q38 194 15.5 335.5t-105.5 221.5t-213 80q-196 0 -353 -175t-219 -462
q-61 -285 23 -461t281 -176z" />
    <glyph glyph-name="one" unicode="1" horiz-adv-x="856" 
d="M772 1434l-303 -1434h-115l279 1313l-406 2l23 119h522z" />
    <glyph glyph-name="two" unicode="2" horiz-adv-x="1193" 
d="M952 106l-22 -106h-983l18 86l701 545q165 129 244.5 229t101.5 199q29 136 -44.5 215.5t-215.5 79.5q-138 0 -262.5 -78.5t-223.5 -235.5l-84 52q108 179 263.5 273.5t328.5 94.5q193 0 292 -111t62 -286q-25 -117 -112.5 -230t-255.5 -245l-619 -482h811z" />
    <glyph glyph-name="three" unicode="3" horiz-adv-x="1150" 
d="M731 731q148 -35 209 -123.5t33 -222.5q-38 -183 -199 -297.5t-381 -114.5q-148 0 -262.5 57t-171.5 165l84 73q53 -94 148 -141t221 -47q174 0 295.5 86t150.5 229q31 141 -64.5 214t-316.5 73h-98l22 102h177q166 0 272 74.5t133 202.5q28 134 -45.5 213.5t-228.5 79.5
q-130 0 -248.5 -57t-208.5 -162l-64 67q103 123 245.5 190.5t299.5 67.5q207 0 305.5 -108.5t61.5 -280.5q-26 -133 -122.5 -222.5t-246.5 -117.5z" />
    <glyph glyph-name="four" unicode="4" horiz-adv-x="1243" 
d="M145 436h666l123 582h113l-123 -582h219l-21 -98h-219l-72 -338h-112l72 338h-787l21 98l995 998l70 -58z" />
    <glyph glyph-name="five" unicode="5" horiz-adv-x="1189" 
d="M668 889q208 0 309 -119t57 -321q-44 -215 -211.5 -345.5t-402.5 -130.5q-289 0 -428 211l84 76q116 -180 364 -180q180 0 311.5 98t166.5 268q35 161 -44.5 254t-248.5 93q-187 0 -371 -129h-86l162 770h839l-20 -103h-733l-119 -557q184 115 371 115z" />
    <glyph glyph-name="six" unicode="6" horiz-adv-x="1218" 
d="M674 961q226 0 342.5 -132t68.5 -358q-50 -229 -222.5 -362.5t-399.5 -133.5q-229 0 -345.5 133.5t-66.5 362.5q24 116 81 208.5t196 256.5l422 498h133l-480 -549q120 76 271 76zM483 72q181 0 314 106.5t172 290.5q38 184 -49 290.5t-267 106.5q-181 0 -314.5 -106.5
t-172.5 -290.5t48.5 -290.5t268.5 -106.5z" />
    <glyph glyph-name="seven" unicode="7" horiz-adv-x="1064" 
d="M1163 1434l-20 -95l-934 -1339h-129l932 1327h-828l21 107h958z" />
    <glyph glyph-name="eight" unicode="8" horiz-adv-x="1280" 
d="M829 737q142 -32 211.5 -132.5t40.5 -231.5q-37 -180 -202 -290t-398 -110q-232 0 -351 110t-81 290q29 132 141.5 232t268.5 132q-124 32 -184 125.5t-35 216.5q37 172 190 276.5t367 104.5q216 0 324.5 -104.5t70.5 -276.5q-25 -122 -125 -215.5t-238 -126.5zM350 1071
q-28 -131 55.5 -211t247.5 -80t281 80t143 211q29 131 -54 211t-247 80t-281 -80t-145 -211zM504 74q180 0 307 84.5t156 222.5q31 138 -61.5 222.5t-272.5 84.5t-307 -84.5t-158 -222.5q-29 -138 63.5 -222.5t272.5 -84.5z" />
    <glyph glyph-name="nine" unicode="9" horiz-adv-x="1220" 
d="M545 475q-227 0 -343.5 132.5t-68.5 357.5q33 152 125 265.5t220.5 171.5t277.5 58q228 0 344.5 -133.5t66.5 -361.5q-23 -108 -84.5 -215.5t-191.5 -249.5l-459 -498h-131l514 549q-125 -76 -270 -76zM735 1364q-181 0 -313.5 -106.5t-171.5 -290.5q-38 -184 48 -291
t265 -107q182 0 316.5 107t173.5 291t-49 290.5t-269 106.5z" />
    <glyph glyph-name="colon" unicode=":" horiz-adv-x="483" 
d="M262 784q-39 0 -58.5 24t-10.5 62q9 40 37.5 64t66.5 24q40 0 59.5 -24t10.5 -64q-9 -39 -37.5 -62.5t-67.5 -23.5zM94 -8q-38 0 -57.5 25t-11.5 63q9 40 38.5 64t67.5 24q40 0 58.5 -24t9.5 -64q-8 -39 -37 -63.5t-68 -24.5z" />
    <glyph glyph-name="semicolon" unicode=";" horiz-adv-x="440" 
d="M207 840q-9 25 1.5 49t37.5 37q29 14 52 8.5t30 -31.5q9 -25 -1.5 -49t-39.5 -37q-28 -14 -50.5 -8.5t-29.5 31.5zM82 244h115l-236 -555h-92z" />
    <glyph glyph-name="less" unicode="&#x3c;" horiz-adv-x="1454" 
d="M1219 954l-807 -305l678 -305l-25 -106l-803 360l21 104l958 359z" />
    <glyph glyph-name="equal" unicode="=" horiz-adv-x="1454" 
d="M332 926h880l-22 -103h-881zM236 475h880l-20 -102h-881z" />
    <glyph glyph-name="greater" unicode="&#x3e;" horiz-adv-x="1454" 
d="M1163 702l-20 -104l-959 -360l25 106l805 305l-676 305l22 107z" />
    <glyph glyph-name="question" unicode="?" horiz-adv-x="929" 
d="M338 539q23 103 59 151t154 131l115 82q149 109 172 232q23 106 -36 164.5t-175 58.5q-115 0 -221 -60.5t-183 -173.5l-73 56q89 132 221 206t280 74q163 0 246 -87.5t53 -235.5q-19 -86 -75.5 -161.5t-161.5 -150.5l-113 -77q-84 -61 -111.5 -98.5t-44.5 -114.5
l-26 -129h-109zM233 47q-8 27 3 51t38 37q29 14 52 9t30 -31q9 -25 -1.5 -50t-39.5 -38q-28 -14 -50.5 -8t-31.5 30z" />
    <glyph glyph-name="at" unicode="@" horiz-adv-x="1947" 
d="M1135 1327q173 1 313.5 -56.5t229 -162.5t122.5 -253.5t-6 -330.5q-50 -225 -170.5 -358t-263.5 -133q-93 0 -146.5 58.5t-44.5 168.5q-61 -105 -165 -165t-220 -60q-182 0 -264 114.5t-41 307.5q38 179 173 299.5t313 120.5q112 0 190 -57t90 -152l39 182h90l-110 -522
q-21 -99 10 -153t102 -54q101 0 189 105.5t127 289.5q36 172 7.5 305.5t-109 225t-202.5 139t-274 47.5q-224 0 -421.5 -99t-333 -276t-181.5 -401q-48 -223 14 -396.5t219 -268.5t384 -95q239 0 424 90l24 -84q-94 -46 -217.5 -73t-251.5 -27q-191 -1 -342 61.5
t-241.5 175.5t-124 270t9.5 345q51 249 207 449.5t380 312t472 110.5zM813 121q130 0 241 93.5t144 244.5q31 150 -41 243t-201 93q-135 0 -239.5 -97t-134.5 -239q-34 -154 30 -246t201 -92z" />
    <glyph glyph-name="A" unicode="A" horiz-adv-x="1380" 
d="M987 389h-733l-244 -389h-125l897 1434h113l297 -1434h-123zM971 492l-156 813l-502 -813h658z" />
    <glyph glyph-name="B" unicode="B" horiz-adv-x="1411" 
d="M1001 745q123 -33 180.5 -129t28.5 -227q-25 -117 -103 -207t-183.5 -136t-221.5 -46h-628l303 1434h602q173 0 264 -101t57 -258q-23 -113 -103 -201t-196 -129zM471 1333l-119 -553h486q118 0 216.5 81t123.5 196q23 117 -42 196.5t-180 79.5h-485zM725 100
q131 0 236 84.5t131 210.5q26 123 -43.5 207t-198.5 84h-518l-125 -586h518z" />
    <glyph glyph-name="C" unicode="C" horiz-adv-x="1579" 
d="M707 -27q-128 0 -233.5 36.5t-177.5 102.5t-117.5 159t-53 205t17.5 241q33 157 115 294t196.5 235.5t262 155t305.5 56.5q212 0 351.5 -97t185.5 -276l-109 -51q-38 142 -156.5 229t-294.5 87q-264 0 -470 -179t-265 -454q-39 -182 6 -326t165.5 -225.5t295.5 -81.5
q181 0 332.5 82t251.5 233l86 -57q-121 -179 -300 -274t-394 -95z" />
    <glyph glyph-name="D" unicode="D" horiz-adv-x="1544" 
d="M850 1434q207 0 349 -91.5t196 -254.5t10 -371q-68 -321 -304 -519t-554 -198h-473l303 1434h473zM559 109q270 0 469 167.5t256 440.5q59 275 -67.5 441.5t-399.5 166.5h-348l-258 -1216h348z" />
    <glyph glyph-name="E" unicode="E" horiz-adv-x="1282" 
d="M1004 106l-23 -106h-905l303 1434h885l-21 -107h-772l-125 -588h737l-20 -104h-737l-115 -529h793z" />
    <glyph glyph-name="F" unicode="F" horiz-adv-x="1226" 
d="M473 1327l-133 -614h731l-22 -107h-730l-129 -606h-114l303 1434h874l-20 -107h-760z" />
    <glyph glyph-name="G" unicode="G" horiz-adv-x="1632" 
d="M1485 733l-113 -520q-149 -123 -310.5 -181.5t-356.5 -58.5q-214 3 -358 100t-197 264.5t-9 377.5q45 211 171 380t312 266t396 97q204 0 342.5 -92t189.5 -258l-110 -61q-38 145 -153 223t-292 78q-174 0 -329 -81.5t-261.5 -226t-144.5 -325.5q-39 -180 5 -322.5
t164 -224.5t296 -86q158 0 291 41.5t258 136.5l78 373h-402l23 100h510z" />
    <glyph glyph-name="H" unicode="H" horiz-adv-x="1572" 
d="M1497 1434l-303 -1434h-115l131 616h-888l-132 -616h-114l303 1434h115l-150 -709h889l149 709h115z" />
    <glyph glyph-name="I" unicode="I" horiz-adv-x="575" 
d="M383 1434h115l-303 -1434h-115z" />
    <glyph glyph-name="J" unicode="J" horiz-adv-x="1206" 
d="M375 -27q-190 0 -300 132.5t-75 318.5l123 41l-6 -25q-29 -147 52.5 -250.5t229.5 -103.5q146 0 271.5 104t154.5 250l211 994h117l-211 -992q-27 -128 -112.5 -236t-206.5 -170.5t-248 -62.5z" />
    <glyph glyph-name="K" unicode="K" horiz-adv-x="1302" 
d="M1417 1434l-958 -729l647 -705h-148l-591 627l-54 -41l-123 -586h-114l303 1434h115l-148 -701l924 701h147z" />
    <glyph glyph-name="L" unicode="L" horiz-adv-x="1204" 
d="M993 109l-22 -109h-895l303 1434h115l-281 -1325h780z" />
    <glyph glyph-name="M" unicode="M" horiz-adv-x="1921" 
d="M1845 1434l-303 -1434h-115l265 1251l-840 -1251h-107l-290 1251l-265 -1249h-114l303 1432h143l303 -1305l885 1305h135z" />
    <glyph glyph-name="N" unicode="N" horiz-adv-x="1607" 
d="M1534 1434l-303 -1434h-109l-671 1239l-263 -1239h-114l303 1434h106l674 -1244l264 1244h113z" />
    <glyph glyph-name="O" unicode="O" horiz-adv-x="1748" 
d="M717 -27q-122 0 -226.5 37t-179.5 104.5t-123.5 160.5t-58.5 204.5t14 237.5q43 206 175.5 376.5t321.5 268.5t392 98t350 -98t207 -268.5t17 -376.5q-33 -154 -119 -292t-204 -237t-266 -157t-300 -58zM741 84q168 0 327 84t271 229.5t148 319.5q37 174 -13 319.5
t-173 229.5t-291 84q-169 0 -328.5 -84t-271.5 -229.5t-148 -319.5q-37 -174 13 -319.5t173.5 -229.5t292.5 -84z" />
    <glyph glyph-name="P" unicode="P" horiz-adv-x="1368" 
d="M971 1434q123 0 212 -59t125 -161.5t9 -226.5q-41 -196 -195 -325.5t-342 -129.5h-477l-113 -532h-114l303 1434h592zM791 639q142 0 258.5 98.5t148.5 249.5q31 142 -44.5 241t-215.5 99h-465l-147 -688h465z" />
    <glyph glyph-name="Q" unicode="Q" horiz-adv-x="1751" 
d="M1608 717q-36 -174 -143.5 -326.5t-260.5 -253.5l129 -217l-90 -63l-133 223q-199 -107 -393 -107q-125 0 -231 38t-179.5 106t-121.5 161t-57 204t15 235q44 203 174 373t319.5 270t395.5 100q120 0 224.5 -38t179 -105.5t124.5 -161t61 -204t-13 -234.5zM741 84
q161 0 314 86l-133 225l92 62l137 -230q126 87 216.5 215t121.5 275q30 131 4 247t-89 202t-166.5 136t-227.5 50q-170 0 -329 -85.5t-269.5 -231t-147.5 -318.5q-37 -172 12 -317t171.5 -230.5t293.5 -85.5z" />
    <glyph glyph-name="R" unicode="R" horiz-adv-x="1386" 
d="M647 578h-338l-119 -570h-116l303 1426h616q175 0 273.5 -125.5t60.5 -302.5q-35 -165 -171 -286.5t-298 -133.5l-80 -2l336 -568l-129 -16zM334 684h489q131 0 244 94.5t141 227.5q29 133 -44.5 227t-205.5 94h-489z" />
    <glyph glyph-name="S" unicode="S" horiz-adv-x="1269" 
d="M496 -27q-205 0 -329 86t-157 244l96 59q71 -282 416 -282q185 0 305.5 79.5t149.5 217.5q22 104 -36 168t-220 104l-191 49q-196 49 -272 138.5t-45 232.5q37 178 190.5 284.5t384.5 106.5q186 0 304 -72.5t149 -201.5l-96 -60q-32 112 -128.5 170t-250.5 58
q-181 0 -294 -73.5t-142 -209.5q-21 -102 36.5 -164.5t227.5 -105.5l197 -49q193 -48 264 -138.5t41 -232.5q-40 -187 -201.5 -297.5t-398.5 -110.5z" />
    <glyph glyph-name="T" unicode="T" horiz-adv-x="1257" 
d="M705 1325h-521l23 109h1147l-21 -109h-514l-280 -1325h-115z" />
    <glyph glyph-name="U" unicode="U" horiz-adv-x="1550" 
d="M625 -25q-120 0 -214.5 37.5t-155 109.5t-81 176.5t7.5 238.5l191 897h114l-190 -902q-23 -111 -7.5 -195t64 -139.5t123.5 -83.5t172 -28q203 0 350 115t191 331l192 902h115l-190 -897q-54 -262 -242.5 -412t-439.5 -150z" />
    <glyph glyph-name="V" unicode="V" horiz-adv-x="1388" 
d="M1499 1434l-878 -1434h-144l-284 1434h124l258 -1303l799 1303h125z" />
    <glyph glyph-name="W" unicode="W" horiz-adv-x="2113" 
d="M2083 1434h121l-760 -1434h-139l-136 1212l-661 -1212h-133l-162 1434h121l143 -1280l705 1280h65l150 -1289z" />
    <glyph glyph-name="X" unicode="X" horiz-adv-x="1267" 
d="M934 0l-307 633l-592 -633h-137l675 725l-340 709h132l303 -627l559 627h131l-635 -715l344 -719h-133z" />
    <glyph glyph-name="Y" unicode="Y" horiz-adv-x="1292" 
d="M1425 1434l-751 -834l-125 -600h-117l127 600l-389 834h135l334 -723l651 721z" />
    <glyph glyph-name="Z" unicode="Z" horiz-adv-x="1234" 
d="M1010 106l-23 -106h-1042l18 90l1141 1237h-858l20 107h1014l-18 -91l-1141 -1237h889z" />
    <glyph glyph-name="bracketleft" unicode="[" horiz-adv-x="753" 
d="M483 1415l-329 -1552h340l-21 -101h-450l372 1754h451l-23 -101h-340z" />
    <glyph glyph-name="backslash" unicode="\" horiz-adv-x="929" 
d="M596 -193l-395 1709h110l396 -1709h-111z" />
    <glyph glyph-name="bracketright" unicode="]" horiz-adv-x="753" 
d="M698 1516l-372 -1754h-453l21 101h342l329 1552h-340l23 101h450z" />
    <glyph glyph-name="asciicircum" unicode="^" horiz-adv-x="1116" 
d="M926 729l-248 551l-479 -551h-123l571 655h105l297 -655h-123z" />
    <glyph glyph-name="underscore" unicode="_" horiz-adv-x="886" 
d="M-182 -141h887l-21 -86h-885z" />
    <glyph glyph-name="grave" unicode="`" horiz-adv-x="1269" 
d="M698 1196l-202 326h133l182 -326h-113z" />
    <glyph glyph-name="a" unicode="a" horiz-adv-x="1044" 
d="M809 0h-98l49 233q-63 -118 -181 -184.5t-268 -66.5q-170 0 -247 84t-46 225q41 193 255 270.5t550 30.5l21 96q28 133 -33.5 200.5t-194.5 67.5q-218 0 -364 -165l-53 61q182 197 444 197q180 0 262 -100.5t47 -274.5zM809 516q-279 45 -462.5 -12.5t-215.5 -206.5
q-23 -108 34 -168.5t187 -60.5q166 0 285 96.5t154 263.5z" />
    <glyph glyph-name="b" unicode="b" horiz-adv-x="1304" 
d="M795 1051q220 0 326.5 -150.5t56.5 -386.5q-53 -241 -220 -390t-391 -149q-148 0 -249.5 80.5t-124.5 214.5l-56 -268h-104l303 1432h110l-143 -672q72 126 205 207.5t287 81.5zM565 78q180 0 318.5 122t179.5 314q41 194 -45 316t-266 122q-179 0 -319.5 -123
t-180.5 -315q-40 -191 48 -313.5t265 -122.5z" />
    <glyph glyph-name="c" unicode="c" horiz-adv-x="1159" 
d="M473 -27q-228 0 -339 151.5t-60 389.5q51 237 227 390t401 153q145 0 246.5 -66t141.5 -186l-97 -57q-35 98 -115 151t-194 53q-180 0 -319 -121.5t-179 -316.5q-41 -192 45.5 -314t266.5 -122q113 0 218 55t181 154l74 -58q-92 -122 -222.5 -189t-275.5 -67z" />
    <glyph glyph-name="d" unicode="d" horiz-adv-x="1304" 
d="M1272 1434l-303 -1432h-103l56 268q-78 -134 -214 -214.5t-286 -80.5q-148 0 -246.5 68t-133 190.5t0.5 280.5q50 236 219.5 386.5t390.5 150.5q151 0 250 -82t117 -207l141 672h111zM471 78q175 0 316 123t182 313q40 192 -49 315t-267 123q-180 0 -318 -122t-179 -316
t46.5 -315t268.5 -121z" />
    <glyph glyph-name="e" unicode="e" horiz-adv-x="1208" 
d="M174 496q-40 -190 49.5 -307t270.5 -117q120 0 229.5 51.5t187.5 144.5l56 -63q-91 -108 -222.5 -169t-273.5 -61q-232 0 -344.5 149.5t-60.5 387.5q50 235 226 386t402 151q228 0 325 -148t34 -405h-879zM676 958q-170 0 -307 -109t-181 -278h770q34 176 -41.5 281.5
t-240.5 105.5z" />
    <glyph glyph-name="f" unicode="f" horiz-adv-x="774" 
d="M338 924h-254l22 102h254l37 180q23 103 104.5 165.5t180.5 62.5h211l-21 -101h-204q-55 0 -101.5 -38.5t-58.5 -94.5l-37 -174h330l-23 -102h-329l-195 -924h-111z" />
    <glyph glyph-name="g" unicode="g" horiz-adv-x="1335" 
d="M1219 1028l-207 -962q-44 -219 -217 -364.5t-387 -145.5q-170 0 -281.5 71t-151.5 191l76 73q37 -108 131.5 -171.5t241.5 -63.5q165 0 304.5 116.5t178.5 301.5l45 215q-77 -130 -205.5 -208.5t-279.5 -78.5q-226 0 -333 146t-56 380q46 227 214 373t388 146
q167 0 265 -82.5t114 -202.5l55 266h105zM502 98q177 0 317 119t180 305q40 191 -51 308.5t-262 117.5q-181 0 -320.5 -119t-179.5 -307q-38 -188 49 -306t267 -118z" />
    <glyph glyph-name="h" unicode="h" horiz-adv-x="1236" 
d="M731 1044q169 0 261 -115t57 -282l-138 -647h-112l133 625q29 135 -46 229t-212 94t-254 -96t-146 -234l-131 -618h-110l303 1434h110l-127 -607q65 98 177 157.5t235 59.5z" />
    <glyph glyph-name="i" unicode="i" horiz-adv-x="483" 
d="M362 1284q-33 0 -51 24t-12 58q8 33 36.5 56.5t61.5 23.5q32 0 50.5 -24t11.5 -56q-6 -34 -34.5 -58t-62.5 -24zM252 1022h110l-217 -1022h-110z" />
    <glyph glyph-name="j" unicode="j" horiz-adv-x="483" 
d="M362 1288q-36 0 -54.5 23t-12.5 57q9 35 37 57.5t65 22.5t55 -22.5t9 -57.5q-6 -34 -34 -57t-65 -23zM-289 -309h109q63 0 113 41.5t65 105.5l252 1184h112l-253 -1200q-23 -103 -104.5 -168.5t-186.5 -65.5h-127z" />
    <glyph glyph-name="k" unicode="k" horiz-adv-x="1034" 
d="M721 0l-442 475l-46 -37l-90 -438h-110l303 1434h110l-184 -863l660 453h135l-678 -477l475 -547h-133z" />
    <glyph glyph-name="l" unicode="l" horiz-adv-x="468" 
d="M25 0l303 1434h110l-303 -1434h-110z" />
    <glyph glyph-name="m" unicode="m" horiz-adv-x="1880" 
d="M1405 1049q157 0 241.5 -110.5t49.5 -270.5l-140 -666h-114l135 641q28 127 -38.5 215t-188.5 88q-126 0 -231.5 -88.5t-131.5 -214.5l-137 -641h-111l138 641q26 127 -41.5 215t-190.5 88q-125 0 -229.5 -88t-130.5 -215l-135 -641h-115l217 1022h113l-39 -180
q63 92 164 148.5t212 56.5q120 0 201.5 -68t95.5 -174q61 106 173 174t233 68z" />
    <glyph glyph-name="n" unicode="n" horiz-adv-x="1228" 
d="M727 1049q165 0 257 -116.5t58 -279.5l-139 -653h-112l131 623q28 134 -46 228.5t-208 94.5t-249 -95t-143 -228l-131 -623h-112l217 1024h110l-43 -203q68 103 179.5 165.5t230.5 62.5z" />
    <glyph glyph-name="o" unicode="o" horiz-adv-x="1286" 
d="M485 -25q-233 0 -348 151t-63 390q50 232 230.5 382.5t410.5 150.5q231 0 347 -150.5t66 -382.5t-232.5 -386.5t-410.5 -154.5zM508 76q181 0 324.5 123.5t183.5 314.5q41 189 -49.5 313.5t-270.5 124.5q-184 0 -326.5 -122t-183.5 -316q-41 -193 49 -315.5t273 -122.5z
" />
    <glyph glyph-name="p" unicode="p" horiz-adv-x="1335" 
d="M795 1049q226 0 329 -148t52 -389q-51 -236 -221 -386.5t-390 -150.5q-155 0 -252.5 81.5t-115.5 207.5l-138 -655h-110l301 1415h102l-57 -268q78 133 214.5 213t285.5 80zM565 74q178 0 316.5 122t179.5 316t-45.5 315t-267.5 121q-177 0 -317.5 -123t-180.5 -313
q-40 -192 48.5 -315t266.5 -123z" />
    <glyph glyph-name="q" unicode="q" horiz-adv-x="1335" 
d="M1217 1024l-304 -1430h-110l141 670q-72 -126 -204 -207.5t-285 -81.5q-220 0 -326 150.5t-55 386.5q51 241 217.5 389t390.5 148q149 0 250.5 -79.5t124.5 -213.5l57 268h103zM498 74q179 0 319 123t180 315q40 190 -48 313t-263 123q-181 0 -320 -121t-180 -315
q-41 -193 46 -315.5t266 -122.5z" />
    <glyph glyph-name="r" unicode="r" horiz-adv-x="806" 
d="M717 1042q53 0 100 -12l-31 -106q-44 8 -108 8q-147 0 -263.5 -95.5t-148.5 -244.5l-123 -592h-110l217 1024h108l-47 -211q70 104 179.5 166.5t226.5 62.5z" />
    <glyph glyph-name="s" unicode="s" horiz-adv-x="1019" 
d="M371 -27q-149 0 -254 54t-144 147l74 72q37 -82 127.5 -129t216.5 -47q134 0 217.5 54.5t102.5 145.5q15 70 -23 113t-145 70l-199 51q-129 32 -178 96t-27 164q29 136 148.5 214.5t302.5 78.5q135 0 226.5 -44t125.5 -126l-74 -70q-78 144 -299 144q-134 0 -215.5 -51
t-101.5 -144q-14 -70 23 -110.5t143 -67.5l198 -51q133 -33 182 -97.5t27 -163.5q-28 -139 -148 -221t-306 -82z" />
    <glyph glyph-name="t" unicode="t" horiz-adv-x="811" 
d="M248 0q-53 0 -81.5 37.5t-16.5 89.5l167 797h-223l23 102h223l66 315h112l-65 -315h344l-23 -102h-344l-168 -791q-2 -13 5 -22t20 -9h313l-20 -102h-332z" />
    <glyph glyph-name="u" unicode="u" horiz-adv-x="1226" 
d="M1110 1024l-217 -1024h-111l43 201q-70 -102 -181.5 -165t-229.5 -63q-166 0 -257.5 117t-56.5 283l140 651h110l-131 -623q-29 -133 45.5 -227t208.5 -96q133 0 248.5 94.5t144.5 228.5l131 623h113z" />
    <glyph glyph-name="v" unicode="v" horiz-adv-x="1075" 
d="M1100 1024l-649 -1024h-121l-224 1024h123l189 -887l561 887h121z" />
    <glyph glyph-name="w" unicode="w" horiz-adv-x="1681" 
d="M1700 1030l-578 -1030h-123l-125 877l-495 -877h-123l-141 1030h114l121 -891l506 891h102l127 -891l500 891h115z" />
    <glyph glyph-name="x" unicode="x" horiz-adv-x="1032" 
d="M707 0l-250 451l-437 -451h-129l510 528l-270 494h125l236 -418l407 418h125l-477 -496l287 -526h-127z" />
    <glyph glyph-name="y" unicode="y" horiz-adv-x="1095" 
d="M1124 1030l-778 -1231q-128 -209 -362 -209h-174l22 103h160q84 0 151.5 37.5t108.5 107.5l104 158l-229 1034h121l190 -895l566 895h120z" />
    <glyph glyph-name="z" unicode="z" horiz-adv-x="997" 
d="M762 98l-19 -98h-796l16 76l823 858h-622l22 96h768l-16 -76l-825 -856h649z" />
    <glyph glyph-name="braceleft" unicode="{" horiz-adv-x="735" 
d="M410 854q-20 -95 -65 -146.5t-122 -68.5q71 -17 93.5 -68t0.5 -145l-77 -369q-24 -114 4.5 -154t128.5 -40h104l-20 -101h-133q-143 0 -187 59.5t-12 211.5l84 393q19 88 -9 126t-114 38h-16l22 100h17q86 0 128.5 37t61.5 127l84 391q32 152 101 211.5t212 59.5h133
l-22 -101h-105q-100 0 -145.5 -40t-69.5 -154z" />
    <glyph glyph-name="bar" unicode="|" horiz-adv-x="630" 
d="M446 1567h99l-377 -1772h-98z" />
    <glyph glyph-name="braceright" unicode="}" horiz-adv-x="735" 
d="M633 690l-23 -100h-14q-86 0 -130 -38t-63 -126l-84 -393q-32 -152 -101 -211.5t-212 -59.5h-133l21 101h104q101 0 147 40t70 154l78 369q22 94 66.5 145t121.5 68q-70 17 -93 68.5t-3 146.5l78 367q24 114 -5 154t-130 40h-103l23 101h131q143 0 188 -59.5t13 -211.5
l-84 -391q-20 -89 8 -126.5t114 -37.5h15z" />
    <glyph glyph-name="asciitilde" unicode="~" horiz-adv-x="1454" 
d="M516 655q-119 0 -262 -96l22 103q134 94 265 94q64 0 187 -56.5t183 -56.5q64 0 125 24t138 74l-23 -102q-142 -94 -260 -94q-55 0 -121 27.5l-132 55t-122 27.5z" />
    <glyph glyph-name="uni00A0" unicode="&#xa0;" horiz-adv-x="497" 
 />
    <glyph glyph-name="exclamdown" unicode="&#xa1;" horiz-adv-x="569" 
d="M395 983q9 -25 -1.5 -50t-39.5 -38q-28 -14 -50.5 -8t-31.5 31q-8 27 3 51t38 37q29 14 52 8.5t30 -31.5zM317 627l-211 -1030h-120l229 1030h102z" />
    <glyph glyph-name="cent" unicode="&#xa2;" horiz-adv-x="1159" 
d="M993 748q-34 92 -106 144.5t-176 59.5l-185 -874q105 8 202.5 62t168.5 147l74 -58q-88 -115 -209 -181.5t-258 -74.5l-47 -223h-51l47 223q-218 7 -323.5 157.5t-55.5 383.5q50 232 219.5 384t388.5 159l41 190h51l-41 -190q133 -8 226 -73t131 -179zM186 514
q-40 -186 40 -306.5t249 -129.5l184 874q-173 -9 -304 -129.5t-169 -308.5z" />
    <glyph glyph-name="sterling" unicode="&#xa3;" horiz-adv-x="1083" 
d="M221 102h672l-21 -102h-958l20 102h172l119 562h-176l21 88h176l65 309q40 189 163.5 294t305.5 105q137 0 228 -62t125 -179l-99 -58q-61 191 -270 191q-132 0 -221 -76t-119 -221l-64 -303h525l-21 -88h-524z" />
    <glyph glyph-name="currency" unicode="&#xa4;" horiz-adv-x="1146" 
d="M983 707q-37 -160 -141 -261l102 -133l-67 -55l-105 131q-127 -94 -289 -94q-158 0 -245 96l-162 -133l-47 55l159 133q-60 113 -26 261q35 153 139 260l-102 131l67 57l105 -133q126 94 288 94q163 0 248 -94l162 133l45 -57l-160 -131q59 -111 29 -260zM504 391
q136 0 241 88t136 228q28 140 -39 227.5t-203 87.5q-137 0 -242 -88t-133 -227q-29 -140 37.5 -228t202.5 -88z" />
    <glyph glyph-name="yen" unicode="&#xa5;" horiz-adv-x="1140" 
d="M649 672h355l-17 -74h-385l-49 -231h385l-14 -74h-385l-62 -293h-115l62 293h-381l14 74h383l47 231h-381l17 74h350l-295 762h123l272 -709l570 709h123z" />
    <glyph glyph-name="brokenbar" unicode="&#xa6;" horiz-adv-x="630" 
d="M446 1567h99l-150 -711h-98zM217 492h98l-147 -697h-98z" />
    <glyph glyph-name="section" unicode="&#xa7;" horiz-adv-x="1112" 
d="M659 313q113 -35 156 -100.5t21 -167.5q-31 -145 -153.5 -229t-315.5 -84q-154 0 -262.5 53.5t-145.5 146.5l74 72q37 -83 129.5 -129.5t224.5 -46.5q144 0 227.5 57t104.5 158q19 81 -21.5 128t-150.5 75l-201 51q-264 65 -219 287q24 110 105.5 193t199.5 104
q-111 34 -154 98.5t-20 167.5q31 149 153.5 231t315.5 82q140 0 232.5 -44t127.5 -126l-75 -69q-75 143 -303 143q-289 0 -336 -215q-17 -81 22 -127t148 -74l198 -51q271 -66 222 -285q-24 -113 -105.5 -195.5t-198.5 -103.5zM242 598q-19 -89 23.5 -140t156.5 -79l59 -14
q145 -31 243.5 39.5t123.5 191.5q20 90 -22.5 139.5t-157.5 79.5l-62 14q-77 15 -139 3t-108.5 -47.5t-75.5 -83t-41 -103.5z" />
    <glyph glyph-name="dieresis" unicode="&#xa8;" horiz-adv-x="1269" 
d="M535 1284q-35 0 -53.5 23.5t-12.5 58.5q8 35 36.5 58.5t65.5 23.5q35 0 53.5 -23.5t10.5 -58.5q-6 -35 -34.5 -58.5t-65.5 -23.5zM977 1284q-37 0 -55.5 23.5t-10.5 58.5t36 58.5t65 23.5q36 0 54.5 -23t10.5 -59t-36 -59t-64 -23z" />
    <glyph glyph-name="copyright" unicode="&#xa9;" horiz-adv-x="1755" 
d="M721 -27q-204 -1 -354 99t-211 271.5t-17 373.5q42 202 175.5 373t325.5 271t396 99q123 1 229 -37t181 -105.5t124.5 -161t59.5 -204.5t-14 -235q-32 -151 -118.5 -289t-205.5 -238t-269 -159t-302 -58zM733 39q187 0 360.5 91t293.5 246.5t159 340.5q41 185 -13 340.5
t-189 246.5t-322 91q-186 0 -359.5 -91t-293.5 -246.5t-160 -340.5t14 -340.5t188.5 -246.5t321.5 -91zM809 305q-180 0 -264.5 114t-44.5 298q38 185 171 299t314 114q111 0 189.5 -48t105.5 -138l-82 -47q-20 71 -82 109t-149 38q-134 0 -237.5 -89t-135.5 -238
q-32 -147 34.5 -236.5t200.5 -89.5q86 0 163.5 38t129.5 108l62 -45q-66 -91 -164.5 -139t-210.5 -48z" />
    <glyph glyph-name="guillemotleft" unicode="&#xab;" horiz-adv-x="1005" 
d="M158 516l207 -428h-123l-207 428l391 428h121zM569 516l207 -428h-121l-209 428l392 428h120z" />
    <glyph glyph-name="logicalnot" unicode="&#xac;" horiz-adv-x="1454" 
d="M1165 700l-71 -325h-105l47 223h-774l23 102h880z" />
    <glyph glyph-name="registered" unicode="&#xae;" horiz-adv-x="1171" 
d="M743 1462q188 0 290.5 -130.5t62.5 -317.5q-38 -186 -196 -316.5t-345 -130.5q-188 0 -289 130t-63 317q40 187 196.5 317.5t343.5 130.5zM565 618q165 0 301.5 115.5t171.5 280.5t-52.5 280t-252.5 115t-301.5 -115t-171.5 -280t52.5 -280.5t252.5 -115.5zM864 1112
q-12 -64 -58.5 -101t-117.5 -40l115 -195h-66l-108 193h-99l-41 -193h-53l101 479h194q79 0 113 -37.5t20 -105.5zM541 1016h135q112 0 133 96q18 94 -92 94h-135z" />
    <glyph glyph-name="macron" unicode="&#xaf;" horiz-adv-x="1333" 
d="M489 1341h617l-19 -92h-616z" />
    <glyph glyph-name="degree" unicode="&#xb0;" horiz-adv-x="753" 
d="M414 887q-127 0 -191.5 81.5t-38.5 205.5q26 123 125.5 204.5t225.5 81.5q125 0 189 -82t38 -204q-25 -123 -123.5 -205t-224.5 -82zM430 967q89 0 158 57t88 150q22 93 -23 149.5t-135 56.5t-159 -56.5t-91 -149.5q-19 -93 26.5 -150t135.5 -57z" />
    <glyph glyph-name="plusminus" unicode="&#xb1;" horiz-adv-x="1454" 
d="M1171 739l-20 -100h-387l-78 -373h-106l77 373h-387l21 100h387l80 373h106l-78 -373h385zM156 102h880l-20 -102h-881z" />
    <glyph glyph-name="acute" unicode="&#xb4;" horiz-adv-x="1269" 
d="M985 1522h135l-342 -326h-112z" />
    <glyph glyph-name="uni00B5" unicode="&#xb5;" horiz-adv-x="1243" 
d="M1126 1030l-217 -1030h-102l45 223q-59 -115 -171 -182.5t-251 -67.5q-218 0 -256 174l-127 -598h-113l316 1481h112l-131 -616q-71 -336 222 -336q163 0 282 96.5t156 271.5l123 584h112z" />
    <glyph glyph-name="paragraph" unicode="&#xb6;" horiz-adv-x="1308" 
d="M549 840h-39q-176 0 -253.5 83t-49.5 214q29 132 146 214.5t309 82.5h114l-360 -1700h-103zM1094 1434h100l-360 -1700h-101z" />
    <glyph glyph-name="cedilla" unicode="&#xb8;" horiz-adv-x="1269" 
d="M453 12h98l-217 -415h-113z" />
    <glyph glyph-name="guillemotright" unicode="&#xbb;" horiz-adv-x="1005" 
d="M352 516l-209 428h121l211 -428l-393 -428h-123zM887 516l-393 -428h-121l391 428l-209 428h123z" />
    <glyph glyph-name="questiondown" unicode="&#xbf;" horiz-adv-x="929" 
d="M612 983q8 -26 -3.5 -50.5t-39.5 -37.5q-28 -14 -50.5 -8t-31.5 31q-8 27 3 51t38 37q66 30 84 -23zM506 492q-22 -103 -58.5 -151.5t-154.5 -131.5l-115 -82q-143 -100 -174 -231q-23 -106 37 -165t174 -59q116 0 223.5 60.5t184.5 173.5l71 -56q-90 -132 -221 -206
t-278 -74q-164 0 -247.5 88t-53.5 236q19 87 75 161.5t164 149.5l109 78q86 60 112.5 97.5t44.5 117.5l27 129h109z" />
    <glyph glyph-name="Agrave" unicode="&#xc0;" horiz-adv-x="1402" 
d="M813 1599l-143 326h118l138 -326h-113zM987 389h-733l-244 -389h-125l897 1434h113l297 -1434h-123zM971 492l-156 813l-502 -813h658z" />
    <glyph glyph-name="Aacute" unicode="&#xc1;" horiz-adv-x="1402" 
d="M934 1599h-113l277 326h119zM987 389h-733l-244 -389h-125l897 1434h113l297 -1434h-123zM971 492l-156 813l-502 -813h658z" />
    <glyph glyph-name="Acircumflex" unicode="&#xc2;" horiz-adv-x="1402" 
d="M666 1599h-117l356 326h113l219 -326h-115l-174 259zM987 389h-733l-244 -389h-125l897 1434h113l297 -1434h-123zM971 492l-156 813l-502 -813h658z" />
    <glyph glyph-name="Atilde" unicode="&#xc3;" horiz-adv-x="1402" 
d="M907 1722q-55 64 -110 64q-43 0 -75.5 -34.5t-45.5 -98.5h-86q21 104 77.5 162.5t129.5 58.5q75 0 149 -80q55 -63 113 -63q43 0 75.5 35t45.5 100h86q-21 -105 -77.5 -164.5t-129.5 -59.5q-77 0 -152 80zM987 389h-733l-244 -389h-125l897 1434h113l297 -1434h-123z
M971 492l-156 813l-502 -813h658z" />
    <glyph glyph-name="Adieresis" unicode="&#xc4;" horiz-adv-x="1402" 
d="M692 1688q-35 0 -53.5 23t-11.5 58q6 35 35.5 59.5t64.5 24.5q34 0 53 -24.5t13 -59.5q-7 -35 -37 -58t-64 -23zM1133 1688q-34 0 -53.5 23t-10.5 58q6 35 35.5 59.5t64.5 24.5q34 0 53 -24.5t13 -59.5q-9 -35 -38 -58t-64 -23zM987 389h-733l-244 -389h-125l897 1434
h113l297 -1434h-123zM971 492l-156 813l-502 -813h658z" />
    <glyph glyph-name="Aring" unicode="&#xc5;" horiz-adv-x="1402" 
d="M831 1673q-61 29 -69.5 94t39.5 129q46 65 118 88t134 -8q61 -29 69 -95t-39 -130t-119 -86.5t-133 8.5zM993 1952q-55 12 -103 -16.5t-73 -86.5q-25 -56 -4.5 -98t76.5 -53q56 -12 104.5 16t73.5 84q25 57 4 99.5t-78 54.5zM987 389h-733l-244 -389h-125l897 1434h113
l297 -1434h-123zM971 492l-156 813l-502 -813h658z" />
    <glyph glyph-name="AE" unicode="&#xc6;" horiz-adv-x="2209" 
d="M1927 109l-22 -109h-965l82 385h-655l-349 -385h-139l1295 1434h1013l-20 -109h-830l-114 -547h790l-22 -108h-793l-119 -561h848zM1042 485l181 852l-774 -852h593z" />
    <glyph glyph-name="Ccedilla" unicode="&#xc7;" horiz-adv-x="1579" 
d="M999 1350q-264 0 -470 -179t-265 -454q-39 -182 6 -326t165.5 -225.5t295.5 -81.5q181 0 332.5 82t251.5 233l86 -57q-118 -174 -290.5 -268.5t-379.5 -100.5l-196 -376h-113l209 380q-188 17 -313.5 117t-171 262t-3.5 361q33 157 115 294t196.5 235.5t262 155
t305.5 56.5q212 0 351.5 -97t185.5 -276l-109 -51q-37 151 -153.5 233.5t-297.5 82.5z" />
    <glyph glyph-name="Egrave" unicode="&#xc8;" horiz-adv-x="1343" 
d="M887 1599l-142 326h117l139 -326h-114zM1051 106l-23 -106h-952l303 1434h932l-21 -107h-819l-127 -594h784l-20 -104h-784l-113 -523h840z" />
    <glyph glyph-name="Eacute" unicode="&#xc9;" horiz-adv-x="1343" 
d="M872 1599h-112l276 326h117zM1061 106l-23 -106h-964l303 1434h944l-21 -107h-829l-117 -555h787l-23 -106h-786l-121 -560h850z" />
    <glyph glyph-name="Ecircumflex" unicode="&#xca;" horiz-adv-x="1343" 
d="M1102 1599l-172 259l-285 -259h-117l359 326h112l220 -326h-117zM1051 106l-23 -106h-952l303 1434h932l-21 -107h-819l-127 -594h784l-20 -104h-784l-113 -523h840z" />
    <glyph glyph-name="Edieresis" unicode="&#xcb;" horiz-adv-x="1343" 
d="M606 1772q7 34 37 57.5t64 23.5q35 0 54 -23.5t11 -57.5q-7 -35 -36.5 -59.5t-63.5 -24.5q-35 0 -54.5 24.5t-11.5 59.5zM1049 1772q6 34 35.5 57.5t64.5 23.5q34 0 52.5 -23.5t12.5 -57.5q-7 -35 -36.5 -59.5t-63.5 -24.5q-35 0 -54 24.5t-11 59.5zM1051 106l-23 -106
h-952l303 1434h932l-21 -107h-819l-127 -594h784l-20 -104h-784l-113 -523h840z" />
    <glyph glyph-name="Igrave" unicode="&#xcc;" horiz-adv-x="575" 
d="M432 1599l-158 326h134l137 -326h-113zM381 1434h117l-303 -1434h-117z" />
    <glyph glyph-name="Iacute" unicode="&#xcd;" horiz-adv-x="575" 
d="M692 1921h135l-297 -326h-112zM381 1434h117l-303 -1434h-117z" />
    <glyph glyph-name="Icircumflex" unicode="&#xce;" horiz-adv-x="575" 
d="M819 1599h-117l-172 259l-284 -259h-115l356 326h113zM381 1434h117l-303 -1434h-117z" />
    <glyph glyph-name="Idieresis" unicode="&#xcf;" horiz-adv-x="575" 
d="M272 1688q-35 0 -53 23t-10 58q6 35 34.5 58.5t65.5 23.5q35 0 53.5 -23.5t12.5 -58.5q-7 -35 -36.5 -58t-66.5 -23zM715 1688q-37 0 -55.5 23t-10.5 58t36 58.5t65 23.5q36 0 54.5 -23t10.5 -59q-8 -35 -35.5 -58t-64.5 -23zM381 1434h117l-303 -1434h-117z" />
    <glyph glyph-name="Eth" unicode="&#xd0;" horiz-adv-x="1585" 
d="M1446 717q-71 -340 -305 -528.5t-561 -188.5h-469l141 670h-219l20 94h219l142 670h469q327 0 481 -188.5t82 -528.5zM1325 717q63 294 -63.5 451t-401.5 157h-352l-119 -561h424l-20 -94h-424l-119 -561h350q276 0 469 156.5t256 451.5z" />
    <glyph glyph-name="Eth" unicode="&#xf0;" horiz-adv-x="1585" 
d="M1446 717q-71 -340 -305 -528.5t-561 -188.5h-469l141 670h-219l20 94h219l142 670h469q327 0 481 -188.5t82 -528.5zM1325 717q63 294 -63.5 451t-401.5 157h-352l-119 -561h424l-20 -94h-424l-119 -561h350q276 0 469 156.5t256 451.5z" />
    <glyph glyph-name="Ntilde" unicode="&#xd1;" horiz-adv-x="1613" 
d="M897 1786q-43 0 -75.5 -34.5t-45.5 -98.5h-86q21 104 77.5 162.5t129.5 58.5q78 0 152 -80q31 -35 55.5 -49t56.5 -14q42 0 74.5 35.5t44.5 99.5h86q-21 -105 -77 -164.5t-128 -59.5q-42 0 -77 18t-76 62q-55 64 -111 64zM1540 1434l-303 -1434h-109l-677 1239
l-263 -1239h-114l303 1434h106l680 -1244l262 1244h115z" />
    <glyph glyph-name="Ograve" unicode="&#xd2;" horiz-adv-x="1734" 
d="M1032 1599l-143 326h119l137 -326h-113zM717 -27q-122 0 -226.5 37t-179.5 104.5t-123.5 160.5t-58.5 204.5t14 237.5q43 206 175.5 376.5t321.5 268.5t392 98t350 -98t207 -268.5t17 -376.5q-33 -154 -119 -292t-204 -237t-266 -157t-300 -58zM741 84q168 0 327 84
t271 229.5t148 319.5q37 174 -13 319.5t-173 229.5t-291 84q-169 0 -328.5 -84t-271.5 -229.5t-148 -319.5q-37 -174 13 -319.5t173.5 -229.5t292.5 -84z" />
    <glyph glyph-name="Oacute" unicode="&#xd3;" horiz-adv-x="1734" 
d="M1096 1599h-113l277 326h118zM717 -27q-122 0 -226.5 37t-179.5 104.5t-123.5 160.5t-58.5 204.5t14 237.5q43 206 175.5 376.5t321.5 268.5t392 98t350 -98t207 -268.5t17 -376.5q-33 -154 -119 -292t-204 -237t-266 -157t-300 -58zM741 84q168 0 327 84t271 229.5
t148 319.5q37 174 -13 319.5t-173 229.5t-291 84q-169 0 -328.5 -84t-271.5 -229.5t-148 -319.5q-37 -174 13 -319.5t173.5 -229.5t292.5 -84z" />
    <glyph glyph-name="Ocircumflex" unicode="&#xd4;" horiz-adv-x="1734" 
d="M825 1599h-116l358 326h113l219 -326h-117l-172 259zM717 -27q-122 0 -226.5 37t-179.5 104.5t-123.5 160.5t-58.5 204.5t14 237.5q43 206 175.5 376.5t321.5 268.5t392 98t350 -98t207 -268.5t17 -376.5q-33 -154 -119 -292t-204 -237t-266 -157t-300 -58zM741 84
q168 0 327 84t271 229.5t148 319.5q37 174 -13 319.5t-173 229.5t-291 84q-169 0 -328.5 -84t-271.5 -229.5t-148 -319.5q-37 -174 13 -319.5t173.5 -229.5t292.5 -84z" />
    <glyph glyph-name="Otilde" unicode="&#xd5;" horiz-adv-x="1734" 
d="M1221 1642q-42 0 -77.5 18t-76.5 62q-53 64 -111 64q-42 0 -74 -35t-44 -98h-88q23 105 78 163t128 58q78 0 152 -80q31 -35 56 -49t57 -14q42 0 74 35.5t44 99.5h88q-23 -106 -78 -165t-128 -59zM709 -27q-123 -1 -228 35.5t-179 103t-122 159.5t-57 205.5t16 240.5
q43 208 174 379t318.5 268t392.5 96q206 1 352.5 -96.5t204.5 -268t14 -378.5q-44 -209 -175 -380t-318.5 -268t-392.5 -96zM733 84q128 0 250 47.5t220 131t169 201t101 253.5q38 181 -10 326t-169.5 226t-292.5 81t-326.5 -81t-265 -226t-147.5 -326q-39 -181 9 -326
t169.5 -226t292.5 -81z" />
    <glyph glyph-name="Odieresis" unicode="&#xd6;" horiz-adv-x="1734" 
d="M852 1688q-35 0 -54.5 24.5t-11.5 59.5q7 34 37 57.5t64 23.5q35 0 54 -23.5t11 -57.5q-7 -35 -36.5 -59.5t-63.5 -24.5zM1294 1688q-35 0 -54 24.5t-11 59.5q6 34 35.5 57.5t64.5 23.5q34 0 53 -23.5t13 -57.5q-7 -35 -37 -59.5t-64 -24.5zM717 -27q-122 0 -226.5 37
t-179.5 104.5t-123.5 160.5t-58.5 204.5t14 237.5q43 206 175.5 376.5t321.5 268.5t392 98t350 -98t207 -268.5t17 -376.5q-33 -154 -119 -292t-204 -237t-266 -157t-300 -58zM741 84q168 0 327 84t271 229.5t148 319.5q37 174 -13 319.5t-173 229.5t-291 84
q-169 0 -328.5 -84t-271.5 -229.5t-148 -319.5q-37 -174 13 -319.5t173.5 -229.5t292.5 -84z" />
    <glyph glyph-name="multiply" unicode="&#xd7;" horiz-adv-x="1454" 
d="M784 649l252 -319l-86 -72l-254 322l-387 -322l-55 72l389 319l-252 320l86 71l252 -319l387 319l55 -71z" />
    <glyph glyph-name="Oslash" unicode="&#xd8;" horiz-adv-x="1734" 
d="M1595 717q-44 -209 -175 -380t-318.5 -268t-392.5 -96q-143 0 -258 49t-191 140l-199 -164l-51 65l197 164q-129 201 -68 490q43 208 174 379t318.5 268t392.5 96q290 0 451 -188l200 166l51 -66l-198 -164q127 -208 67 -491zM262 717q-52 -237 49 -406l1065 877
q-62 77 -158.5 119.5t-216.5 42.5q-171 0 -326.5 -81t-265 -226t-147.5 -326zM1473 717q49 236 -52 405l-1065 -876q64 -78 160.5 -120t216.5 -42q128 0 250 47.5t220 131t169 201t101 253.5z" />
    <glyph glyph-name="Ugrave" unicode="&#xd9;" horiz-adv-x="1546" 
d="M899 1599l-143 326h118l138 -326h-113zM625 -27q-120 0 -214.5 38t-155 110t-81 177t7.5 239l191 897h114l-190 -902q-23 -111 -7.5 -195t64 -139.5t123.5 -83.5t172 -28q203 0 350 115t191 331l192 902h115l-190 -897q-36 -175 -136.5 -304t-241 -194.5t-304.5 -65.5z
" />
    <glyph glyph-name="Uacute" unicode="&#xda;" horiz-adv-x="1546" 
d="M985 1599h-113l277 326h119zM625 -27q-120 0 -214.5 38t-155 110t-81 177t7.5 239l191 897h114l-190 -902q-23 -111 -7.5 -195t64 -139.5t123.5 -83.5t172 -28q203 0 350 115t191 331l192 902h115l-190 -897q-36 -175 -136.5 -304t-241 -194.5t-304.5 -65.5z" />
    <glyph glyph-name="Ucircumflex" unicode="&#xdb;" horiz-adv-x="1546" 
d="M1188 1599l-172 259l-285 -259h-115l357 326h112l220 -326h-117zM625 -27q-120 0 -214.5 38t-155 110t-81 177t7.5 239l191 897h114l-190 -902q-23 -111 -7.5 -195t64 -139.5t123.5 -83.5t172 -28q203 0 350 115t191 331l192 902h115l-190 -897q-36 -175 -136.5 -304
t-241 -194.5t-304.5 -65.5z" />
    <glyph glyph-name="Udieresis" unicode="&#xdc;" horiz-adv-x="1546" 
d="M758 1688q-34 0 -52.5 24.5t-11.5 59.5q6 34 36 57.5t65 23.5q34 0 52.5 -23.5t12.5 -57.5q-7 -35 -37 -59.5t-65 -24.5zM1200 1688q-35 0 -54 24.5t-11 59.5q8 34 36.5 57.5t63.5 23.5q34 0 53 -23.5t12 -57.5q-7 -35 -36.5 -59.5t-63.5 -24.5zM625 -27
q-120 0 -214.5 38t-155 110t-81 177t7.5 239l191 897h114l-190 -902q-23 -111 -7.5 -195t64 -139.5t123.5 -83.5t172 -28q203 0 350 115t191 331l192 902h115l-190 -897q-36 -175 -136.5 -304t-241 -194.5t-304.5 -65.5z" />
    <glyph glyph-name="Yacute" unicode="&#xdd;" horiz-adv-x="1271" 
d="M858 1599h-113l275 326h119zM1434 1434l-756 -834l-125 -600h-117l127 600l-393 834h135l338 -723l655 721z" />
    <glyph glyph-name="Thorn" unicode="&#xde;" horiz-adv-x="1378" 
d="M1278 735q-46 -212 -198.5 -325t-391.5 -113h-434l-64 -297h-116l303 1434h117l-54 -260h434q239 0 343.5 -114t60.5 -325zM1157 735q34 161 -46.5 245.5t-264.5 84.5h-430l-142 -662h433q182 0 298.5 85t151.5 247z" />
    <glyph glyph-name="germandbls" unicode="&#xdf;" horiz-adv-x="1249" 
d="M793 764q172 -10 245.5 -107t38.5 -262q-40 -188 -181 -291.5t-357 -103.5h-156l20 100h140q177 0 283.5 77t138.5 226q31 147 -41.5 222t-243.5 75h-152l23 103h67q165 0 272 79t140 232q31 146 -35.5 223.5t-220.5 77.5q-162 0 -264.5 -86.5t-134.5 -247.5l-232 -1081
h-110l229 1085q44 207 185 319t350 112q202 0 294 -103.5t52 -288.5q-31 -146 -121 -238.5t-229 -121.5z" />
    <glyph glyph-name="agrave" unicode="&#xe0;" horiz-adv-x="1052" 
d="M676 1196l-158 326h133l137 -326h-112zM809 0h-98l49 233q-63 -118 -181 -184.5t-268 -66.5q-166 0 -245 84.5t-48 224.5q41 193 257 270.5t548 30.5l23 100q27 130 -32 197t-191 67q-221 0 -367 -165l-53 61q82 92 201 144.5t245 52.5q179 0 259.5 -98.5t43.5 -270.5z
M809 516q-279 45 -462.5 -12.5t-215.5 -206.5q-23 -107 36 -168t185 -61q166 0 285 96.5t154 263.5z" />
    <glyph glyph-name="aacute" unicode="&#xe1;" horiz-adv-x="1064" 
d="M786 1196h-112l276 326h111zM815 0h-98l49 233q-62 -118 -180 -184.5t-269 -66.5q-167 0 -248.5 84.5t-50.5 224.5q27 129 138.5 208t282.5 100t392 -7l21 100q27 129 -31.5 196.5t-187.5 67.5q-226 0 -369 -165l-53 61q79 92 198 144.5t244 52.5q185 0 263.5 -97.5
t41.5 -271.5zM815 516q-279 45 -465.5 -12.5t-218.5 -206.5q-23 -107 38.5 -168t188.5 -61q166 0 285 96.5t154 263.5z" />
    <glyph glyph-name="acircumflex" unicode="&#xe2;" horiz-adv-x="1060" 
d="M940 1196l-174 258l-283 -258h-116l358 326h113l219 -326h-117zM809 0h-98l49 233q-63 -118 -181 -184.5t-268 -66.5q-166 0 -245 84.5t-48 224.5q41 193 257 270.5t548 30.5l23 100q27 130 -32 197t-191 67q-221 0 -367 -165l-53 61q82 92 201 144.5t245 52.5
q179 0 259.5 -98.5t43.5 -270.5zM809 516q-279 45 -462.5 -12.5t-215.5 -206.5q-23 -107 36 -168t185 -61q166 0 285 96.5t154 263.5z" />
    <glyph glyph-name="atilde" unicode="&#xe3;" horiz-adv-x="1060" 
d="M776 1319q-28 34 -53 48.5t-57 14.5q-42 0 -75 -35t-46 -98h-86q23 104 79 162.5t128 58.5q78 0 151 -79q53 -64 111 -64q43 0 75.5 35t47.5 100h86q-23 -106 -79.5 -164.5t-129.5 -58.5q-82 0 -152 80zM809 0h-98l49 233q-63 -118 -181 -184.5t-268 -66.5
q-166 0 -245 84.5t-48 224.5q41 193 257 270.5t548 30.5l23 100q27 130 -32 197t-191 67q-221 0 -367 -165l-53 61q82 92 201 144.5t245 52.5q179 0 259.5 -98.5t43.5 -270.5zM809 516q-279 45 -462.5 -12.5t-215.5 -206.5q-23 -107 36 -168t185 -61q166 0 285 96.5
t154 263.5z" />
    <glyph glyph-name="adieresis" unicode="&#xe4;" horiz-adv-x="1077" 
d="M537 1284q-35 0 -54.5 24.5t-13.5 59.5q9 34 38 58t64 24q34 0 53.5 -24.5t10.5 -57.5q-6 -35 -35 -59.5t-63 -24.5zM977 1284q-34 0 -53 24.5t-13 59.5q8 34 38 58t65 24q34 0 52.5 -24t10.5 -58q-6 -35 -35.5 -59.5t-64.5 -24.5zM809 0h-98l49 233
q-63 -118 -181 -184.5t-268 -66.5q-166 0 -245 84.5t-48 224.5q41 193 257 270.5t548 30.5l23 100q27 130 -32 197t-191 67q-221 0 -367 -165l-53 61q82 92 201 144.5t245 52.5q179 0 259.5 -98.5t43.5 -270.5zM809 516q-279 45 -462.5 -12.5t-215.5 -206.5
q-23 -107 36 -168t185 -61q166 0 285 96.5t154 263.5z" />
    <glyph glyph-name="aring" unicode="&#xe5;" horiz-adv-x="1083" 
d="M739 1196q-101 0 -153.5 64.5t-32.5 160.5q20 95 101.5 160.5t181.5 65.5q101 0 154.5 -66t31.5 -160q-20 -96 -101 -160.5t-182 -64.5zM821 1575q-70 0 -122.5 -43t-67.5 -111q-14 -69 19.5 -111t103.5 -42q72 0 124.5 42t65.5 111q14 68 -19.5 111t-103.5 43zM809 0
h-98l49 233q-63 -118 -181 -184.5t-268 -66.5q-166 0 -245 84.5t-48 224.5q41 193 257 270.5t548 30.5l23 100q27 130 -32 197t-191 67q-221 0 -367 -165l-53 61q82 92 201 144.5t245 52.5q179 0 259.5 -98.5t43.5 -270.5zM809 516q-279 45 -462.5 -12.5t-215.5 -206.5
q-23 -107 36 -168t185 -61q166 0 285 96.5t154 263.5z" />
    <glyph glyph-name="ae" unicode="&#xe6;" horiz-adv-x="1923" 
d="M1765 496h-878q-40 -190 49 -307t270 -117q120 0 231 52t187 144l55 -63q-89 -107 -221 -168.5t-274 -61.5q-156 0 -261.5 71.5t-142.5 197.5q-87 -130 -220.5 -196t-278.5 -66q-166 0 -245 84.5t-48 224.5q41 193 257 270.5t548 30.5l22 100q27 130 -32 197t-191 67
q-221 0 -367 -165l-53 61q82 92 201 144.5t245 52.5q137 0 217.5 -59t94.5 -167q92 106 216.5 166t260.5 60q229 0 325.5 -148t32.5 -405zM1391 958q-171 0 -307.5 -108.5t-180.5 -278.5h768q34 176 -41.5 281.5t-238.5 105.5zM322 68q176 0 288 93t144 249l24 106
q-279 45 -462.5 -12.5t-215.5 -206.5q-23 -107 36.5 -168t185.5 -61z" />
    <glyph glyph-name="ccedilla" unicode="&#xe7;" horiz-adv-x="1159" 
d="M684 952q-180 0 -319 -121.5t-179 -316.5q-41 -192 45.5 -314t266.5 -122q113 0 218 55t181 154l74 -58q-85 -111 -201.5 -177.5t-245.5 -76.5l-198 -378h-115l211 378q-204 19 -299.5 167t-48.5 372q51 237 227 390t401 153q145 0 246.5 -66t141.5 -186l-97 -57
q-35 98 -115 151t-194 53z" />
    <glyph glyph-name="egrave" unicode="&#xe8;" horiz-adv-x="1208" 
d="M676 1196l-160 326h135l137 -326h-112zM174 496q-40 -190 49.5 -307t270.5 -117q120 0 229.5 51.5t187.5 144.5l56 -63q-91 -108 -222.5 -169t-273.5 -61q-232 0 -344.5 149.5t-60.5 387.5q50 235 226 386t402 151q228 0 325 -148t34 -405h-879zM676 958
q-170 0 -307 -109t-181 -278h770q34 176 -41.5 281.5t-240.5 105.5z" />
    <glyph glyph-name="eacute" unicode="&#xe9;" horiz-adv-x="1220" 
d="M760 1196h-113l277 326h116zM174 496q-40 -190 49.5 -307t270.5 -117q120 0 229.5 51.5t187.5 144.5l56 -63q-91 -108 -222.5 -169t-273.5 -61q-232 0 -344.5 149.5t-60.5 387.5q50 235 226 386t402 151q228 0 325 -148t34 -405h-879zM676 958q-170 0 -307 -109
t-181 -278h770q34 176 -41.5 281.5t-240.5 105.5z" />
    <glyph glyph-name="ecircumflex" unicode="&#xea;" horiz-adv-x="1208" 
d="M954 1196l-174 258l-282 -258h-117l358 326h113l219 -326h-117zM174 496q-40 -190 49.5 -307t270.5 -117q120 0 229.5 51.5t187.5 144.5l56 -63q-91 -108 -222.5 -169t-273.5 -61q-232 0 -344.5 149.5t-60.5 387.5q50 235 226 386t402 151q228 0 325 -148t34 -405h-879z
M676 958q-170 0 -307 -109t-181 -278h770q34 176 -41.5 281.5t-240.5 105.5z" />
    <glyph glyph-name="edieresis" unicode="&#xeb;" horiz-adv-x="1208" 
d="M506 1284q-35 0 -54.5 24.5t-13.5 59.5q9 34 38.5 58t64.5 24q34 0 53 -24.5t10 -57.5q-6 -35 -35 -59.5t-63 -24.5zM946 1284q-34 0 -52.5 24.5t-12.5 59.5q8 34 37.5 58t64.5 24q34 0 52.5 -24t11.5 -58q-6 -35 -35.5 -59.5t-65.5 -24.5zM174 496q-40 -190 49.5 -307
t270.5 -117q120 0 229.5 51.5t187.5 144.5l56 -63q-91 -108 -222.5 -169t-273.5 -61q-232 0 -344.5 149.5t-60.5 387.5q50 235 226 386t402 151q228 0 325 -148t34 -405h-879zM676 958q-170 0 -307 -109t-181 -278h770q34 176 -41.5 281.5t-240.5 105.5z" />
    <glyph glyph-name="igrave" unicode="&#xec;" horiz-adv-x="483" 
d="M90 1522h119l160 -326h-115zM252 1024h110l-217 -1024h-110z" />
    <glyph glyph-name="iacute" unicode="&#xed;" horiz-adv-x="483" 
d="M393 1196h-114l276 326h119zM252 1024h110l-217 -1024h-110z" />
    <glyph glyph-name="icircumflex" unicode="&#xee;" horiz-adv-x="483" 
d="M647 1196h-106l-142 258l-252 -258h-106l319 326h107zM252 1024h110l-217 -1024h-110z" />
    <glyph glyph-name="idieresis" unicode="&#xef;" horiz-adv-x="483" 
d="M176 1290q-33 0 -49 20.5t-10 55.5q7 35 33 56.5t59 21.5q32 0 48 -21.5t9 -56.5t-32 -55.5t-58 -20.5zM553 1290q-33 0 -48.5 20.5t-8.5 55.5t32.5 56.5t57.5 21.5q34 0 49.5 -21.5t7.5 -56.5q-6 -34 -31.5 -55t-58.5 -21zM252 1024h110l-217 -1024h-110z" />
    <glyph glyph-name="ntilde" unicode="&#xf1;" horiz-adv-x="1228" 
d="M735 1319q-52 63 -108 63q-43 0 -75.5 -34.5t-45.5 -98.5h-88q23 104 79.5 162.5t129.5 58.5q78 0 151 -79q29 -35 54 -49.5t57 -14.5q42 0 75 35.5t46 99.5h86q-23 -106 -78.5 -164.5t-128.5 -58.5q-42 0 -77.5 18t-76.5 62zM727 1051q165 0 257 -117.5t58 -280.5
l-139 -653h-112l131 623q28 134 -46 228.5t-208 94.5t-249 -95t-143 -228l-131 -623h-112l217 1024h110l-43 -203q68 104 179.5 167t230.5 63z" />
    <glyph glyph-name="ograve" unicode="&#xf2;" horiz-adv-x="1286" 
d="M758 1196l-142 326h117l139 -326h-114zM485 -27q-232 0 -347 153.5t-64 389.5q50 232 231 386.5t412 154.5q154 0 259.5 -71t145 -194t6.5 -276q-50 -232 -231.5 -387.5t-411.5 -155.5zM508 78q184 0 327 124t183 314q40 189 -49.5 313.5t-272.5 124.5
q-185 0 -326.5 -123t-181.5 -315q-41 -193 47 -315.5t273 -122.5z" />
    <glyph glyph-name="oacute" unicode="&#xf3;" horiz-adv-x="1286" 
d="M788 1196h-112l276 326h117zM485 -27q-232 0 -347 153.5t-64 389.5q50 232 231 386.5t412 154.5q154 0 259.5 -71t145 -194t6.5 -276q-50 -232 -231.5 -387.5t-411.5 -155.5zM508 78q184 0 327 124t183 314q40 189 -49.5 313.5t-272.5 124.5q-185 0 -326.5 -123
t-181.5 -315q-41 -193 47 -315.5t273 -122.5z" />
    <glyph glyph-name="ocircumflex" unicode="&#xf4;" horiz-adv-x="1286" 
d="M973 1196l-174 258l-283 -258h-117l359 326h112l220 -326h-117zM485 -27q-232 0 -347 153.5t-64 389.5q50 232 231 386.5t412 154.5q154 0 259.5 -71t145 -194t6.5 -276q-50 -232 -231.5 -387.5t-411.5 -155.5zM508 78q184 0 327 124t183 314q40 189 -49.5 313.5
t-272.5 124.5q-185 0 -326.5 -123t-181.5 -315q-41 -193 47 -315.5t273 -122.5z" />
    <glyph glyph-name="otilde" unicode="&#xf5;" horiz-adv-x="1286" 
d="M909 1239q-42 0 -77 18t-76 62q-49 63 -109 63q-42 0 -75 -35t-46 -98h-86q23 104 78.5 162.5t128.5 58.5q79 0 152 -79q53 -64 110 -64q43 0 75.5 35t45.5 100h88q-23 -106 -79.5 -164.5t-129.5 -58.5zM485 -27q-237 0 -350.5 152.5t-62.5 390.5q52 238 229 389.5
t414 151.5q156 0 262 -70t145 -192.5t6 -278.5q-52 -239 -229 -391t-414 -152zM506 76q185 0 325 120.5t183 319.5q41 197 -47.5 317.5t-272.5 120.5q-185 0 -325 -120.5t-183 -317.5q-41 -199 47.5 -319.5t272.5 -120.5z" />
    <glyph glyph-name="odieresis" unicode="&#xf6;" horiz-adv-x="1286" 
d="M477 1368q7 34 37 58t64 24q35 0 54 -24t11 -58q-7 -35 -36.5 -59.5t-63.5 -24.5q-35 0 -54.5 24.5t-11.5 59.5zM918 1368q8 34 37.5 58t64.5 24q34 0 52.5 -24t10.5 -58q-6 -35 -35 -59.5t-63 -24.5q-35 0 -54 24t-13 60zM485 -27q-232 0 -347 153.5t-64 389.5
q50 232 231 386.5t412 154.5q154 0 259.5 -71t145 -194t6.5 -276q-50 -232 -231.5 -387.5t-411.5 -155.5zM508 78q184 0 327 124t183 314q40 189 -49.5 313.5t-272.5 124.5q-185 0 -326.5 -123t-181.5 -315q-41 -193 47 -315.5t273 -122.5z" />
    <glyph glyph-name="divide" unicode="&#xf7;" horiz-adv-x="1454" 
d="M778 942q-35 0 -53.5 23.5t-11.5 58.5q7 34 35.5 57t62.5 23t52 -23t11 -57q-7 -35 -34.5 -58.5t-61.5 -23.5zM285 700h880l-22 -102h-881zM616 195q-34 0 -51.5 22.5t-9.5 56.5q6 35 34 58.5t62 23.5q35 0 53.5 -23.5t12.5 -58.5q-7 -34 -36.5 -56.5t-64.5 -22.5z" />
    <glyph glyph-name="oslash" unicode="&#xf8;" horiz-adv-x="1294" 
d="M1094 870q82 -145 39 -354q-52 -239 -229.5 -391t-414.5 -152q-209 0 -329 129l-158 -131l-43 60l156 129q-85 146 -39 356q52 238 229 389.5t414 151.5q214 0 330 -129l153 129l49 -58zM698 961q-186 0 -327.5 -123t-184.5 -322q-37 -168 29 -283l748 617
q-85 111 -265 111zM508 72q187 0 329 122t185 322q36 161 -27 281l-747 -617q88 -108 260 -108z" />
    <glyph glyph-name="ugrave" unicode="&#xf9;" horiz-adv-x="1224" 
d="M721 1196l-141 326h116l140 -326h-115zM1110 1024l-217 -1024h-111l47 227q-62 -116 -182.5 -185t-265.5 -69q-175 0 -247.5 106t-31.5 300l138 645h110l-129 -610q-36 -168 21.5 -252t197.5 -84q156 0 276 95t156 257l125 594h113z" />
    <glyph glyph-name="uacute" unicode="&#xfa;" horiz-adv-x="1224" 
d="M700 1196h-112l276 326h119zM1110 1024l-217 -1024h-111l43 201q-70 -102 -181.5 -165t-229.5 -63q-166 0 -257.5 117t-56.5 283l140 651h110l-131 -623q-29 -133 45.5 -227t208.5 -96q133 0 248.5 94.5t144.5 228.5l131 623h113z" />
    <glyph glyph-name="ucircumflex" unicode="&#xfb;" horiz-adv-x="1224" 
d="M483 1196h-116l356 326h113l219 -326h-115l-174 258zM1110 1024l-217 -1024h-111l43 201q-70 -102 -181.5 -165t-229.5 -63q-166 0 -257.5 117t-56.5 283l140 651h110l-131 -623q-29 -133 45.5 -227t208.5 -96q133 0 248.5 94.5t144.5 228.5l131 623h113z" />
    <glyph glyph-name="udieresis" unicode="&#xfc;" horiz-adv-x="1224" 
d="M442 1368q8 34 38 58t65 24q34 0 52.5 -24t10.5 -58q-6 -35 -35 -59.5t-63 -24.5q-35 0 -54.5 24.5t-13.5 59.5zM885 1368q8 34 37 58t63 24q35 0 54.5 -24t11.5 -58q-7 -35 -37 -59.5t-64 -24.5q-35 0 -54 24.5t-11 59.5zM1110 1024l-217 -1024h-111l43 201
q-70 -102 -181.5 -165t-229.5 -63q-166 0 -257.5 117t-56.5 283l140 651h110l-131 -623q-29 -133 45.5 -227t208.5 -96q133 0 248.5 94.5t144.5 228.5l131 623h113z" />
    <glyph glyph-name="yacute" unicode="&#xfd;" horiz-adv-x="1079" 
d="M635 1196h-115l277 326h118zM1106 1024l-756 -1194q-86 -139 -172.5 -189.5t-226.5 -50.5h-141l20 101h127q107 0 169 35.5t124 132.5l90 137l-227 1028h120l193 -895l559 895h121z" />
    <glyph glyph-name="thorn" unicode="&#xfe;" horiz-adv-x="1335" 
d="M795 1049q226 0 329 -148t52 -389q-51 -236 -221 -386.5t-390 -150.5q-155 0 -252.5 81.5t-115.5 207.5l-138 -655h-110l387 1825h102l-143 -678q78 133 214.5 213t285.5 80zM565 74q178 0 316.5 122t179.5 316t-45.5 315t-267.5 121q-177 0 -317.5 -123t-180.5 -313
q-40 -192 48.5 -315t266.5 -123z" />
    <glyph glyph-name="ydieresis" unicode="&#xff;" horiz-adv-x="1079" 
d="M442 1284q-35 0 -54 24t-13 60q9 34 38 58t64 24q34 0 53.5 -24.5t10.5 -57.5q-6 -35 -35.5 -59.5t-63.5 -24.5zM883 1284q-34 0 -53 24.5t-13 59.5q8 34 38 58t65 24q34 0 52.5 -24t10.5 -58q-6 -35 -35.5 -59.5t-64.5 -24.5zM1106 1030l-756 -1200
q-86 -139 -172.5 -189.5t-226.5 -50.5h-141l20 101h127q107 0 169 35.5t124 132.5l90 137l-227 1034h120l193 -901l559 901h121z" />
    <glyph glyph-name="Amacron" unicode="&#x100;" horiz-adv-x="1402" 
d="M1219 1681h-617l21 93h616zM987 389h-733l-244 -389h-125l897 1434h113l297 -1434h-123zM971 492l-156 813l-502 -813h658z" />
    <glyph glyph-name="amacron" unicode="&#x101;" horiz-adv-x="1042" 
d="M1051 1278h-617l19 92h616zM809 0h-98l49 233q-63 -118 -181 -184.5t-268 -66.5q-166 0 -245 84.5t-48 224.5q41 193 257 270.5t548 30.5l23 100q27 130 -32 197t-191 67q-221 0 -367 -165l-53 61q82 92 201 144.5t245 52.5q179 0 259.5 -98.5t43.5 -270.5zM809 516
q-279 45 -462.5 -12.5t-215.5 -206.5q-23 -107 36 -168t185 -61q166 0 285 96.5t154 263.5z" />
    <glyph glyph-name="Abreve" unicode="&#x102;" horiz-adv-x="1402" 
d="M895 1610q-130 0 -194 71.5t-39 188.5l2 8h92q-19 -86 24.5 -138t132.5 -52q88 0 152.5 52t83.5 138h92v-8q-26 -117 -121 -188.5t-225 -71.5zM987 389h-733l-244 -389h-125l897 1434h113l297 -1434h-123zM971 492l-156 813l-502 -813h658z" />
    <glyph glyph-name="abreve" unicode="&#x103;" horiz-adv-x="1085" 
d="M768 1206q-130 0 -194 71.5t-39 188.5l2 9h92q-19 -86 23.5 -138.5t131.5 -52.5q88 0 153.5 52.5t84.5 138.5h92l-2 -9q-25 -117 -119.5 -188.5t-224.5 -71.5zM809 0h-98l49 233q-63 -118 -181 -184.5t-268 -66.5q-166 0 -245 84.5t-48 224.5q41 193 257 270.5t548 30.5
l23 100q27 130 -32 197t-191 67q-221 0 -367 -165l-53 61q82 92 201 144.5t245 52.5q179 0 259.5 -98.5t43.5 -270.5zM809 516q-279 45 -462.5 -12.5t-215.5 -206.5q-23 -107 36 -168t185 -61q166 0 285 96.5t154 263.5z" />
    <glyph glyph-name="Aogonek" unicode="&#x104;" horiz-adv-x="1402" 
d="M1186 0q-111 -59 -165 -116t-67 -120q-11 -59 25 -86.5t125 -27.5h22l-18 -86h-39q-125 0 -179 47.5t-36 132.5q35 154 229 256h-14l-82 389h-733l-244 -389h-125l897 1434h113l297 -1434h-6zM313 492h658l-156 813z" />
    <glyph glyph-name="aogonek" unicode="&#x105;" horiz-adv-x="1056" 
d="M649 1049q179 0 259.5 -98.5t43.5 -270.5l-143 -680h4q-115 -61 -174.5 -118.5t-71.5 -117.5q-12 -59 24.5 -86.5t125.5 -27.5h22l-18 -86h-39q-125 0 -179 47.5t-36 132.5q27 138 244 256l49 233q-63 -118 -181 -184.5t-268 -66.5q-166 0 -245 84.5t-48 224.5
q41 193 257 270.5t548 30.5l23 100q27 130 -32 197t-191 67q-221 0 -367 -165l-53 61q82 92 201 144.5t245 52.5zM352 68q166 0 285 96.5t154 263.5l18 88q-279 45 -462.5 -12.5t-215.5 -206.5q-23 -107 36 -168t185 -61z" />
    <glyph glyph-name="Cacute" unicode="&#x106;" horiz-adv-x="1579" 
d="M1085 1599h-112l276 326h119zM707 -27q-128 0 -233.5 36.5t-177.5 102.5t-117.5 159t-53 205t17.5 241q33 157 115 294t196.5 235.5t262 155t305.5 56.5q212 0 351.5 -97t185.5 -276l-109 -51q-37 151 -153.5 233.5t-297.5 82.5q-264 0 -470 -179t-265 -454
q-39 -182 6 -326t165.5 -225.5t295.5 -81.5q181 0 332.5 82t251.5 233l86 -57q-121 -179 -300 -274t-394 -95z" />
    <glyph glyph-name="cacute" unicode="&#x107;" horiz-adv-x="1159" 
d="M752 1196h-113l274 326h119zM473 -27q-228 0 -339 151.5t-60 389.5q51 237 227 390t401 153q145 0 246.5 -66t141.5 -186l-97 -57q-35 98 -115 151t-194 53q-180 0 -319 -121.5t-179 -316.5q-41 -192 45.5 -314t266.5 -122q113 0 218 55t181 154l74 -58
q-92 -122 -222.5 -189t-275.5 -67z" />
    <glyph glyph-name="Ccircumflex" unicode="&#x108;" horiz-adv-x="1579" 
d="M815 1599h-117l359 326h112l220 -326h-117l-172 259zM707 -27q-128 0 -233.5 36.5t-177.5 102.5t-117.5 159t-53 205t17.5 241q33 157 115 294t196.5 235.5t262 155t305.5 56.5q212 0 351.5 -97t185.5 -276l-109 -51q-37 151 -153.5 233.5t-297.5 82.5q-264 0 -470 -179
t-265 -454q-39 -182 6 -326t165.5 -225.5t295.5 -81.5q181 0 332.5 82t251.5 233l86 -57q-121 -179 -300 -274t-394 -95z" />
    <glyph glyph-name="ccircumflex" unicode="&#x109;" horiz-adv-x="1159" 
d="M504 1196h-117l358 326h113l219 -326h-116l-175 258zM473 -27q-228 0 -339 151.5t-60 389.5q51 237 227 390t401 153q145 0 246.5 -66t141.5 -186l-97 -57q-35 98 -115 151t-194 53q-180 0 -319 -121.5t-179 -316.5q-41 -192 45.5 -314t266.5 -122q113 0 218 55t181 154
l74 -58q-92 -122 -222.5 -189t-275.5 -67z" />
    <glyph glyph-name="Cdotaccent" unicode="&#x10a;" horiz-adv-x="1579" 
d="M1063 1688q-35 0 -54.5 24.5t-11.5 59.5q6 34 36 57.5t65 23.5q34 0 52.5 -23.5t12.5 -57.5q-7 -35 -36.5 -59.5t-63.5 -24.5zM707 -27q-128 0 -233.5 36.5t-177.5 102.5t-117.5 159t-53 205t17.5 241q33 157 115 294t196.5 235.5t262 155t305.5 56.5q212 0 351.5 -97
t185.5 -276l-109 -51q-37 151 -153.5 233.5t-297.5 82.5q-264 0 -470 -179t-265 -454q-39 -182 6 -326t165.5 -225.5t295.5 -81.5q181 0 332.5 82t251.5 233l86 -57q-121 -179 -300 -274t-394 -95z" />
    <glyph glyph-name="cdotaccent" unicode="&#x10b;" horiz-adv-x="1159" 
d="M752 1284q-35 0 -54.5 24.5t-13.5 59.5q9 34 38 58t64 24q34 0 53.5 -24.5t10.5 -57.5q-6 -35 -35 -59.5t-63 -24.5zM473 -27q-228 0 -339 151.5t-60 389.5q51 237 227 390t401 153q145 0 246.5 -66t141.5 -186l-97 -57q-35 98 -115 151t-194 53q-180 0 -319 -121.5
t-179 -316.5q-41 -192 45.5 -314t266.5 -122q113 0 218 55t181 154l74 -58q-92 -122 -222.5 -189t-275.5 -67z" />
    <glyph glyph-name="Ccaron" unicode="&#x10c;" horiz-adv-x="1579" 
d="M987 1599l-219 326h117l174 -258l282 258h115l-356 -326h-113zM707 -27q-128 0 -233.5 36.5t-177.5 102.5t-117.5 159t-53 205t17.5 241q33 157 115 294t196.5 235.5t262 155t305.5 56.5q212 0 351.5 -97t185.5 -276l-109 -51q-37 151 -153.5 233.5t-297.5 82.5
q-264 0 -470 -179t-265 -454q-39 -182 6 -326t165.5 -225.5t295.5 -81.5q181 0 332.5 82t251.5 233l86 -57q-121 -179 -300 -274t-394 -95z" />
    <glyph glyph-name="ccaron" unicode="&#x10d;" horiz-adv-x="1159" 
d="M676 1196l-219 326h116l175 -258l282 258h117l-359 -326h-112zM473 -27q-228 0 -339 151.5t-60 389.5q51 237 227 390t401 153q145 0 246.5 -66t141.5 -186l-97 -57q-35 98 -115 151t-194 53q-180 0 -319 -121.5t-179 -316.5q-41 -192 45.5 -314t266.5 -122q113 0 218 55
t181 154l74 -58q-92 -122 -222.5 -189t-275.5 -67z" />
    <glyph glyph-name="Dcaron" unicode="&#x10e;" horiz-adv-x="1548" 
d="M836 1599l-220 326h117l174 -258l283 258h117l-359 -326h-112zM856 1434q207 0 349 -91.5t195.5 -254.5t8.5 -371q-68 -320 -303.5 -518.5t-552.5 -198.5h-479l303 1434h479zM563 109q272 0 470 167.5t257 440.5q59 274 -68.5 441t-398.5 167h-354l-258 -1216h352z" />
    <glyph glyph-name="dcaron" unicode="&#x10f;" horiz-adv-x="1441" 
d="M1602 1499l-86 -397h-93l84 397h95zM1286 1495l-317 -1493h-103l56 268q-79 -135 -209.5 -215t-278.5 -80q-227 0 -335.5 149.5t-55.5 387.5q50 237 221.5 388t392.5 151q152 0 248.5 -81.5t114.5 -207.5l156 733h110zM471 78q177 0 317 123t181 315q40 192 -48.5 315
t-265.5 123q-180 0 -319 -122t-180 -316t46.5 -316t268.5 -122z" />
    <glyph glyph-name="Dcroat" unicode="&#x110;" horiz-adv-x="1591" 
d="M883 1434q327 0 481 -188.5t82 -528.5q-71 -340 -305 -528.5t-561 -188.5h-469l141 670h-219l20 94h219l142 670h469zM600 109q276 0 469 156.5t256 451.5q63 294 -63.5 451t-401.5 157h-352l-119 -561h424l-20 -94h-424l-119 -561h350z" />
    <glyph glyph-name="dcroat" unicode="&#x111;" horiz-adv-x="1304" 
d="M1524 1341l-19 -92h-272l-264 -1247h-103l56 268q-79 -135 -209.5 -215t-278.5 -80q-227 0 -335.5 149.5t-55.5 387.5q50 237 221.5 388t392.5 151q152 0 248.5 -81.5t114.5 -207.5l104 487h-235l18 92h236l33 154h110l-33 -154h271zM969 516q40 192 -48.5 315
t-265.5 123q-180 0 -319 -122t-180 -316t46.5 -316t268.5 -122q177 0 317 123t181 315z" />
    <glyph glyph-name="Emacron" unicode="&#x112;" horiz-adv-x="1343" 
d="M604 1774h617l-21 -93h-616zM1051 106l-23 -106h-952l303 1434h932l-21 -107h-819l-127 -594h784l-20 -104h-784l-113 -523h840z" />
    <glyph glyph-name="emacron" unicode="&#x113;" horiz-adv-x="1208" 
d="M455 1370h616l-18 -92h-617zM174 496q-40 -190 49.5 -307t270.5 -117q120 0 229.5 51.5t187.5 144.5l56 -63q-91 -108 -222.5 -169t-273.5 -61q-232 0 -344.5 149.5t-60.5 387.5q50 235 226 386t402 151q228 0 325 -148t34 -405h-879zM676 958q-170 0 -307 -109
t-181 -278h770q34 176 -41.5 281.5t-240.5 105.5z" />
    <glyph glyph-name="Ebreve" unicode="&#x114;" horiz-adv-x="1343" 
d="M643 1878h94q-19 -86 24.5 -138t131.5 -52t152 52t83 138h95q-26 -121 -120.5 -194.5t-225.5 -73.5t-195 73.5t-39 194.5zM1051 106l-23 -106h-952l303 1434h932l-21 -107h-819l-127 -594h784l-20 -104h-784l-113 -523h840z" />
    <glyph glyph-name="ebreve" unicode="&#x115;" horiz-adv-x="1208" 
d="M496 1473l94 2q-19 -86 23 -138.5t130 -52.5t153.5 52.5t84.5 138.5l94 -2q-26 -120 -122 -193.5t-226 -73.5t-193.5 73.5t-37.5 193.5zM174 496q-40 -190 49.5 -307t270.5 -117q120 0 229.5 51.5t187.5 144.5l56 -63q-91 -108 -222.5 -169t-273.5 -61
q-232 0 -344.5 149.5t-60.5 387.5q50 235 226 386t402 151q228 0 325 -148t34 -405h-879zM676 958q-170 0 -307 -109t-181 -278h770q34 176 -41.5 281.5t-240.5 105.5z" />
    <glyph glyph-name="Edotaccent" unicode="&#x116;" horiz-adv-x="1343" 
d="M827 1769q6 36 35 59t66 23t55.5 -22.5t11.5 -59.5q-7 -36 -36 -58.5t-66 -22.5t-56 22.5t-10 58.5zM1051 106l-23 -106h-952l303 1434h932l-21 -107h-819l-127 -594h784l-20 -104h-784l-113 -523h840z" />
    <glyph glyph-name="edotaccent" unicode="&#x117;" horiz-adv-x="1208" 
d="M678 1366q7 36 36 59t66 23t56 -23t10 -59q-7 -37 -35.5 -59.5t-65.5 -22.5q-38 0 -56.5 22.5t-10.5 59.5zM174 496q-40 -190 49.5 -307t270.5 -117q120 0 229.5 51.5t187.5 144.5l56 -63q-91 -108 -222.5 -169t-273.5 -61q-232 0 -344.5 149.5t-60.5 387.5
q50 235 226 386t402 151q228 0 325 -148t34 -405h-879zM676 958q-170 0 -307 -109t-181 -278h770q34 176 -41.5 281.5t-240.5 105.5z" />
    <glyph glyph-name="Eogonek" unicode="&#x118;" horiz-adv-x="1343" 
d="M1290 1327h-819l-127 -594h784l-20 -104h-784l-113 -523h840l-23 -106h-2q-116 -61 -176 -118.5t-72 -117.5q-13 -62 29 -88t143 -26l-18 -86q-149 0 -211.5 43.5t-42.5 136.5q35 150 235 256h-837l303 1434h932z" />
    <glyph glyph-name="eogonek" unicode="&#x119;" horiz-adv-x="1208" 
d="M494 72q120 0 229.5 51.5t187.5 144.5l56 -63q-117 -139 -289 -195q-61 -40 -99 -91t-49 -99q-12 -59 24.5 -88t125.5 -29h20l-16 -84h-39q-126 0 -180 47t-35 133q11 47 41.5 97.5t73.5 89.5q-53 -9 -107 -9q-216 9 -319.5 157t-52.5 378q50 235 226 386t402 151
q228 0 325 -148t34 -405h-879q-40 -190 49.5 -307t270.5 -117zM676 958q-170 0 -307 -109t-181 -278h770q34 176 -41.5 281.5t-240.5 105.5z" />
    <glyph glyph-name="Ecaron" unicode="&#x11a;" horiz-adv-x="1343" 
d="M1288 1925l-358 -326h-113l-219 326h117l174 -258l282 258h117zM1051 106l-23 -106h-952l303 1434h932l-21 -107h-819l-127 -594h784l-20 -104h-784l-113 -523h840z" />
    <glyph glyph-name="ecaron" unicode="&#x11b;" horiz-adv-x="1208" 
d="M1139 1522l-357 -326h-112l-219 326h116l174 -258l283 258h115zM174 496q-40 -190 49.5 -307t270.5 -117q120 0 229.5 51.5t187.5 144.5l56 -63q-91 -108 -222.5 -169t-273.5 -61q-232 0 -344.5 149.5t-60.5 387.5q50 235 226 386t402 151q228 0 325 -148t34 -405h-879z
M676 958q-170 0 -307 -109t-181 -278h770q34 176 -41.5 281.5t-240.5 105.5z" />
    <glyph glyph-name="Gcircumflex" unicode="&#x11c;" horiz-adv-x="1619" 
d="M813 1599h-115l357 326h112l219 -326h-116l-172 259zM1485 733l-113 -520q-149 -123 -310.5 -181.5t-356.5 -58.5q-214 3 -358 100t-197 264.5t-9 377.5q45 211 171 380t312 266t396 97q204 0 342.5 -92t189.5 -258l-110 -61q-38 145 -153 223t-292 78q-174 0 -329 -81.5
t-261.5 -226t-144.5 -325.5q-39 -180 5 -322.5t164 -224.5t296 -86q158 0 291 41.5t258 136.5l78 373h-402l23 100h510z" />
    <glyph glyph-name="gcircumflex" unicode="&#x11d;" horiz-adv-x="1335" 
d="M539 1196h-117l358 326h113l219 -326h-117l-174 258zM1217 1024l-197 -926q-53 -248 -225.5 -391t-421.5 -143q-148 0 -258.5 51t-167.5 139l76 80q50 -80 146.5 -125t217.5 -45q198 0 340 115t188 327l39 189q-74 -134 -206.5 -212.5t-288.5 -78.5q-221 0 -327 147
t-56 379q48 228 215.5 373.5t388.5 145.5q156 0 254 -76t117 -207l53 258h113zM506 102q177 0 317.5 120.5t180.5 307.5t-49.5 307.5t-266.5 120.5t-317.5 -120.5t-180.5 -307.5t49.5 -307.5t266.5 -120.5z" />
    <glyph glyph-name="Gbreve" unicode="&#x11e;" horiz-adv-x="1619" 
d="M1044 1610q-130 0 -194 71.5t-39 188.5l2 8h92q-19 -86 24.5 -138t131.5 -52q89 0 153.5 52t83.5 138h93l-2 -8q-25 -117 -120 -188.5t-225 -71.5zM1485 733l-113 -520q-149 -123 -310.5 -181.5t-356.5 -58.5q-214 3 -358 100t-197 264.5t-9 377.5q45 211 171 380
t312 266t396 97q204 0 342.5 -92t189.5 -258l-110 -61q-38 145 -153 223t-292 78q-174 0 -329 -81.5t-261.5 -226t-144.5 -325.5q-39 -180 5 -322.5t164 -224.5t296 -86q158 0 291 41.5t258 136.5l78 373h-402l23 100h510z" />
    <glyph glyph-name="gbreve" unicode="&#x11f;" horiz-adv-x="1335" 
d="M537 1475h94q-19 -86 23 -138.5t130 -52.5t153.5 52.5t84.5 138.5h94l-2 -9q-25 -117 -120 -188.5t-226 -71.5q-130 0 -194 71.5t-39 188.5zM1219 1028l-207 -962q-44 -219 -217 -364.5t-387 -145.5q-146 0 -263 73t-157 189l78 73q34 -103 134.5 -169t223.5 -66
q165 0 304.5 116.5t178.5 301.5l45 211q-75 -128 -209.5 -205.5t-283.5 -77.5q-221 0 -326.5 146t-54.5 380q46 226 215.5 372.5t386.5 146.5q152 0 251.5 -74t121.5 -199l53 254h113zM506 102q177 0 317 120t181 306q38 186 -51.5 306t-264.5 120q-182 0 -321 -118.5
t-179 -307.5t49 -307.5t269 -118.5z" />
    <glyph glyph-name="Gdotaccent" unicode="&#x120;" horiz-adv-x="1619" 
d="M1061 1688q-37 0 -56 22.5t-10 58.5q7 37 35.5 59.5t65.5 22.5q38 0 56.5 -22.5t10.5 -59.5q-7 -36 -36 -58.5t-66 -22.5zM1485 733l-113 -520q-149 -123 -310.5 -181.5t-356.5 -58.5q-214 3 -358 100t-197 264.5t-9 377.5q45 211 171 380t312 266t396 97
q204 0 342.5 -92t189.5 -258l-110 -61q-38 145 -153 223t-292 78q-174 0 -329 -81.5t-261.5 -226t-144.5 -325.5q-39 -180 5 -322.5t164 -224.5t296 -86q158 0 291 41.5t258 136.5l78 373h-402l23 100h510z" />
    <glyph glyph-name="gdotaccent" unicode="&#x121;" horiz-adv-x="1335" 
d="M719 1368q8 34 37.5 58t64.5 24q34 0 52.5 -24t11.5 -58q-6 -35 -35.5 -59.5t-63.5 -24.5q-35 0 -54 24t-13 60zM1219 1028l-207 -962q-44 -219 -217 -364.5t-387 -145.5q-146 0 -263 73t-157 189l78 73q34 -103 134.5 -169t223.5 -66q165 0 304.5 116.5t178.5 301.5
l45 211q-75 -128 -209.5 -205.5t-283.5 -77.5q-221 0 -326.5 146t-54.5 380q46 226 215.5 372.5t386.5 146.5q152 0 251.5 -74t121.5 -199l53 254h113zM506 102q177 0 317 120t181 306q38 186 -51.5 306t-264.5 120q-182 0 -321 -118.5t-179 -307.5t49 -307.5t269 -118.5z
" />
    <glyph glyph-name="uni0122" unicode="&#x122;" horiz-adv-x="1619" 
d="M1485 733l-113 -520q-149 -123 -310.5 -181.5t-356.5 -58.5q-214 3 -358 100t-197 264.5t-9 377.5q45 211 171 380t312 266t396 97q204 0 342.5 -92t189.5 -258l-110 -61q-38 145 -153 223t-292 78q-174 0 -329 -81.5t-261.5 -226t-144.5 -325.5q-39 -180 5 -322.5
t164 -224.5t296 -86q158 0 291 41.5t258 136.5l78 373h-402l23 100h510zM631 -195h112l-180 -352h-90z" />
    <glyph glyph-name="uni0123" unicode="&#x123;" horiz-adv-x="1335" 
d="M807 1196h-113l277 326h116zM1219 1028l-207 -962q-44 -219 -217 -364.5t-387 -145.5q-146 0 -263 73t-157 189l78 73q34 -103 134.5 -169t223.5 -66q165 0 304.5 116.5t178.5 301.5l45 211q-75 -128 -209.5 -205.5t-283.5 -77.5q-221 0 -326.5 146t-54.5 380
q46 226 215.5 372.5t386.5 146.5q152 0 251.5 -74t121.5 -199l53 254h113zM506 102q177 0 317 120t181 306q38 186 -51.5 306t-264.5 120q-182 0 -321 -118.5t-179 -307.5t49 -307.5t269 -118.5z" />
    <glyph glyph-name="Hcircumflex" unicode="&#x124;" horiz-adv-x="1585" 
d="M1208 1599l-174 259l-282 -259h-117l356 326h113l219 -326h-115zM1511 1434l-303 -1434h-116l131 616h-901l-132 -616h-114l303 1434h115l-150 -709h901l150 709h116z" />
    <glyph glyph-name="hcircumflex" unicode="&#x125;" horiz-adv-x="1234" 
d="M670 1665l-174 258l-283 -258h-117l359 326h112l219 -326h-116zM733 1049q169 0 260 -115.5t56 -282.5l-138 -651h-112l133 629q29 135 -46 230t-210 95q-138 0 -255 -96.5t-145 -234.5l-133 -623h-110l317 1499h111l-142 -668q67 98 179 158t235 60z" />
    <glyph glyph-name="Hbar" unicode="&#x126;" horiz-adv-x="1652" 
d="M1610 1063h-144l-225 -1063h-117l144 682h-899l-144 -682h-116l225 1063h-144l19 86h143l60 285h116l-59 -285h899l59 285h117l-59 -285h143zM1350 1063h-899l-60 -272h901z" />
    <glyph glyph-name="hbar" unicode="&#x127;" horiz-adv-x="1234" 
d="M758 1042q182 0 254 -106t28 -311l-131 -625h-112l127 602q70 338 -224 338q-161 0 -279.5 -95t-154.5 -263l-123 -582h-110l260 1229h-182l16 80h182l41 190h111l-39 -190h416l-17 -80h-415l-95 -436q64 115 182.5 182t264.5 67z" />
    <glyph glyph-name="Itilde" unicode="&#x128;" horiz-adv-x="575" 
d="M641 1642q-42 0 -77.5 18t-76.5 62q-28 34 -53 49t-57 15q-42 0 -74.5 -35t-44.5 -98h-86q21 104 77 162.5t128 58.5q77 0 151 -80q55 -63 113 -63q43 0 75.5 35t45.5 100h86q-21 -105 -77.5 -164.5t-129.5 -59.5zM381 1434h117l-303 -1434h-117z" />
    <glyph glyph-name="itilde" unicode="&#x129;" horiz-adv-x="483" 
d="M356 1319q-52 63 -104 63q-36 0 -59.5 -31t-38.5 -102h-78q47 221 176 221q72 0 145 -79q56 -64 107 -64q37 0 60 31t38 104h78q-48 -223 -176 -223q-73 0 -148 80zM252 1024h110l-217 -1024h-110z" />
    <glyph glyph-name="Imacron" unicode="&#x12a;" horiz-adv-x="575" 
d="M205 1774h616l-20 -93h-617zM381 1434h117l-303 -1434h-117z" />
    <glyph glyph-name="imacron" unicode="&#x12b;" horiz-adv-x="483" 
d="M123 1370h514l-19 -92h-514zM252 1024h110l-217 -1024h-110z" />
    <glyph glyph-name="Ibreve" unicode="&#x12c;" horiz-adv-x="575" 
d="M477 1610q-287 0 -233 260l2 8h92q-22 -98 16 -144t140 -46q101 0 158 46t79 144h92l-2 -8q-26 -128 -114 -194t-230 -66zM381 1434h117l-303 -1434h-117z" />
    <glyph glyph-name="ibreve" unicode="&#x12d;" horiz-adv-x="483" 
d="M346 1206q-133 0 -187 66.5t-28 193.5l2 9h88q-20 -99 13 -145t128 -46t148.5 46t75.5 145h88l-2 -9q-26 -126 -109.5 -193t-216.5 -67zM252 1024h110l-217 -1024h-110z" />
    <glyph glyph-name="Iogonek" unicode="&#x12e;" horiz-adv-x="575" 
d="M195 0q-115 -61 -174.5 -118.5t-73.5 -117.5q-12 -59 23.5 -85.5t117.5 -28.5h31l-17 -86h-47q-121 3 -173.5 49t-35.5 131q37 154 248 262l-12 10l299 1418h117z" />
    <glyph glyph-name="iogonek" unicode="&#x12f;" horiz-adv-x="483" 
d="M399 1448q37 0 55 -22.5t11 -59.5t-36 -59.5t-67 -22.5q-37 0 -55 22.5t-12 59.5q9 37 37.5 59.5t66.5 22.5zM252 1024h110l-217 -1024q-115 -61 -174 -118.5t-71 -117.5q-12 -59 24 -86.5t125 -27.5h23l-19 -86h-39q-125 0 -179.5 47.5t-35.5 132.5q35 156 248 262
l-12 6z" />
    <glyph glyph-name="Idotaccent" unicode="&#x130;" horiz-adv-x="575" 
d="M489 1688q-37 0 -54.5 23t-8.5 58q6 35 34.5 58.5t63.5 23.5q36 0 55 -23t13 -59q-9 -35 -37.5 -58t-65.5 -23zM381 1434h117l-303 -1434h-117z" />
    <glyph glyph-name="dotlessi" unicode="&#x131;" horiz-adv-x="483" 
d="M252 1024h110l-217 -1024h-110z" />
    <glyph glyph-name="ij" unicode="&#x133;" horiz-adv-x="966" 
d="M362 1284q-38 0 -56.5 22.5t-10.5 59.5q7 36 36 59t66 23t56 -23t10 -59q-7 -37 -35.5 -59.5t-65.5 -22.5zM844 1284q-37 0 -55.5 22.5t-12.5 59.5q9 37 38 59.5t67 22.5q37 0 55 -22.5t10 -59.5t-36 -59.5t-66 -22.5zM252 1024h110l-217 -1024h-110zM195 -309h98
q75 0 125 42.5t67 121.5l248 1169h113l-252 -1186q-26 -121 -103.5 -184.5t-197.5 -63.5h-119z" />
    <glyph glyph-name="Jcircumflex" unicode="&#x134;" horiz-adv-x="1193" 
d="M1348 1599l-174 259l-283 -259h-117l356 326h113l219 -326h-114zM375 -27q-190 0 -300 132.5t-75 318.5l123 41l-6 -25q-29 -147 52.5 -250.5t229.5 -103.5q146 0 271.5 104t154.5 250l211 994h117l-211 -992q-27 -128 -112.5 -236t-206.5 -170.5t-248 -62.5z" />
    <glyph glyph-name="jcircumflex" unicode="&#x135;" horiz-adv-x="483" 
d="M647 1196h-106l-142 258l-252 -258h-106l319 326h107zM252 1024h110l-251 -1186q-26 -121 -103.5 -184.5t-197.5 -63.5h-119l20 101h99q75 0 125 42.5t67 121.5z" />
    <glyph glyph-name="uni0136" unicode="&#x136;" horiz-adv-x="1325" 
d="M1430 1434l-967 -729l655 -705h-147l-604 627l-54 -41l-123 -586h-114l303 1434h115l-148 -701l938 701h146zM459 -195h112l-180 -352h-90z" />
    <glyph glyph-name="uni0137" unicode="&#x137;" horiz-adv-x="1034" 
d="M721 0l-442 475l-46 -37l-90 -438h-110l317 1497h111l-199 -926l660 453h135l-678 -477l475 -547h-133zM315 -195h113l-178 -352h-90z" />
    <glyph glyph-name="Lacute" unicode="&#x139;" horiz-adv-x="1214" 
d="M514 1599h-113l277 326h119zM1008 109l-23 -109h-909l303 1434h115l-281 -1325h795z" />
    <glyph glyph-name="lacute" unicode="&#x13a;" horiz-adv-x="468" 
d="M481 1665h-114l276 326h119zM25 0l317 1499h111l-318 -1499h-110z" />
    <glyph glyph-name="uni013B" unicode="&#x13b;" horiz-adv-x="1214" 
d="M1010 109l-23 -109h-913l303 1434h117l-281 -1325h797zM410 -195h112l-180 -352h-88z" />
    <glyph glyph-name="uni013C" unicode="&#x13c;" horiz-adv-x="468" 
d="M25 0l317 1499h111l-318 -1499h-110zM2 -195h113l-181 -352h-88z" />
    <glyph glyph-name="Lcaron" unicode="&#x13d;" horiz-adv-x="1214" 
d="M821 1460h113l-109 -397h-88zM1010 109l-23 -109h-913l303 1434h117l-281 -1325h797z" />
    <glyph glyph-name="lcaron" unicode="&#x13e;" horiz-adv-x="468" 
d="M25 0l317 1499h111l-318 -1499h-110zM547 1499h92l-84 -397h-94z" />
    <glyph glyph-name="Ldot" unicode="&#x13f;" horiz-adv-x="1226" 
d="M1010 109l-23 -109h-913l303 1434h117l-281 -1325h797zM784 649q-38 0 -57 24t-10 62q8 38 37 63t67 25t58 -25t12 -63q-9 -38 -39 -62t-68 -24z" />
    <glyph glyph-name="ldot" unicode="&#x140;" horiz-adv-x="468" 
d="M25 0l317 1499h111l-318 -1499h-110zM496 649q-34 0 -53.5 24.5t-10.5 59.5q6 34 35.5 58t64.5 24q34 0 53 -24t13 -58q-9 -36 -38 -60t-64 -24z" />
    <glyph glyph-name="Lslash" unicode="&#x141;" horiz-adv-x="1251" 
d="M1044 109l-20 -109h-913l112 543l-276 -129l22 104l277 129l168 787h116l-155 -725l626 290l-20 -104l-627 -291l-106 -495h796z" />
    <glyph glyph-name="lslash" unicode="&#x142;" horiz-adv-x="671" 
d="M367 758l-160 -758h-113l148 698l-240 -116l23 100l237 117l150 700h112l-137 -641l293 143l-21 -100z" />
    <glyph glyph-name="Nacute" unicode="&#x143;" horiz-adv-x="1613" 
d="M983 1599h-113l275 326h119zM1540 1434l-303 -1434h-109l-677 1239l-263 -1239h-114l303 1434h106l680 -1244l262 1244h115z" />
    <glyph glyph-name="nacute" unicode="&#x144;" horiz-adv-x="1234" 
d="M737 1196h-112l276 326h119zM727 1051q165 0 257 -117.5t58 -280.5l-139 -653h-112l131 623q28 134 -46 228.5t-208 94.5t-249 -95t-143 -228l-131 -623h-112l217 1024h110l-43 -203q68 104 179.5 167t230.5 63z" />
    <glyph glyph-name="uni0145" unicode="&#x145;" horiz-adv-x="1613" 
d="M1540 1434l-303 -1434h-115l-667 1247l-265 -1247h-116l303 1434h115l667 -1248l264 1248h117zM557 -195h113l-181 -352h-90z" />
    <glyph glyph-name="uni0146" unicode="&#x146;" horiz-adv-x="1234" 
d="M727 1051q165 0 257 -117.5t58 -280.5l-139 -653h-112l131 623q28 134 -46 228.5t-208 94.5t-249 -95t-143 -228l-131 -623h-112l217 1024h110l-43 -203q68 104 179.5 167t230.5 63zM367 -195h112l-178 -352h-90z" />
    <glyph glyph-name="Ncaron" unicode="&#x147;" horiz-adv-x="1613" 
d="M938 1599l-219 326h117l174 -258l282 258h115l-356 -326h-113zM1540 1434l-303 -1434h-109l-677 1239l-263 -1239h-114l303 1434h106l680 -1244l262 1244h115z" />
    <glyph glyph-name="ncaron" unicode="&#x148;" horiz-adv-x="1234" 
d="M1137 1522l-357 -326h-112l-219 326h116l174 -258l283 258h115zM727 1051q165 0 257 -117.5t58 -280.5l-139 -653h-112l131 623q28 134 -46 228.5t-208 94.5t-249 -95t-143 -228l-131 -623h-112l217 1024h110l-43 -203q68 104 179.5 167t230.5 63z" />
    <glyph glyph-name="Eng" unicode="&#x14a;" horiz-adv-x="1613" 
d="M1540 1434l-323 -1530q-28 -121 -105 -184.5t-197 -63.5h-118l20 102h98q74 0 123 40t66 116l18 92l-671 1233l-263 -1239h-114l303 1434h106l680 -1244l262 1244h115z" />
    <glyph glyph-name="eng" unicode="&#x14b;" horiz-adv-x="1234" 
d="M727 1051q165 0 257 -117.5t58 -280.5l-163 -774q-26 -108 -104 -165.5t-193 -57.5h-119l22 100h99q72 0 121.5 38.5t64.5 109.5l152 719q28 134 -46 228.5t-208 94.5t-249 -95t-143 -228l-131 -623h-112l217 1024h110l-43 -203q68 104 179.5 167t230.5 63z" />
    <glyph glyph-name="Omacron" unicode="&#x14c;" horiz-adv-x="1734" 
d="M784 1774h617l-21 -93h-616zM139 717q43 208 174 379t318.5 268t392.5 96q206 1 352.5 -96.5t204.5 -268t14 -378.5q-44 -209 -175 -380t-318.5 -268t-392.5 -96q-123 -1 -228 35.5t-179 103t-122 159.5t-57 205.5t16 240.5zM1473 717q38 181 -10 326t-169.5 226
t-292.5 81t-326.5 -81t-265 -226t-147.5 -326q-39 -181 9 -326t169.5 -226t292.5 -81q128 0 250 47.5t220 131t169 201t101 253.5z" />
    <glyph glyph-name="omacron" unicode="&#x14d;" horiz-adv-x="1286" 
d="M473 1370h617l-19 -92h-616zM485 -27q-232 0 -347 153.5t-64 389.5q50 232 231 386.5t412 154.5q154 0 259.5 -71t145 -194t6.5 -276q-50 -232 -231.5 -387.5t-411.5 -155.5zM508 78q184 0 327 124t183 314q40 189 -49.5 313.5t-272.5 124.5q-185 0 -326.5 -123
t-181.5 -315q-41 -193 47 -315.5t273 -122.5z" />
    <glyph glyph-name="Obreve" unicode="&#x14e;" horiz-adv-x="1734" 
d="M1057 1610q-131 0 -195.5 71.5t-38.5 188.5v8h95q-19 -86 24 -138t131 -52t152.5 52t83.5 138h94l-2 -8q-25 -117 -119.5 -188.5t-224.5 -71.5zM717 -27q-122 0 -226.5 37t-179.5 104.5t-123.5 160.5t-58.5 204.5t14 237.5q43 206 175.5 376.5t321.5 268.5t392 98
t350 -98t207 -268.5t17 -376.5q-33 -154 -119 -292t-204 -237t-266 -157t-300 -58zM741 84q168 0 327 84t271 229.5t148 319.5q37 174 -13 319.5t-173 229.5t-291 84q-169 0 -328.5 -84t-271.5 -229.5t-148 -319.5q-37 -174 13 -319.5t173.5 -229.5t292.5 -84z" />
    <glyph glyph-name="obreve" unicode="&#x14f;" horiz-adv-x="1286" 
d="M514 1475h94q-19 -86 23.5 -138.5t130.5 -52.5q89 0 153.5 52.5t83.5 138.5h95q-26 -122 -121 -195.5t-225 -73.5t-194.5 73.5t-39.5 195.5zM485 -27q-232 0 -347 153.5t-64 389.5q50 232 231 386.5t412 154.5q154 0 259.5 -71t145 -194t6.5 -276q-50 -232 -231.5 -387.5
t-411.5 -155.5zM508 78q184 0 327 124t183 314q40 189 -49.5 313.5t-272.5 124.5q-185 0 -326.5 -123t-181.5 -315q-41 -193 47 -315.5t273 -122.5z" />
    <glyph glyph-name="Ohungarumlaut" unicode="&#x150;" horiz-adv-x="1734" 
d="M1073 1925h115l-324 -326h-112zM1444 1925h115l-324 -326h-113zM139 717q43 208 174 379t318.5 268t392.5 96q206 1 352.5 -96.5t204.5 -268t14 -378.5q-44 -209 -175 -380t-318.5 -268t-392.5 -96q-123 -1 -228 35.5t-179 103t-122 159.5t-57 205.5t16 240.5zM1473 717
q38 181 -10 326t-169.5 226t-292.5 81t-326.5 -81t-265 -226t-147.5 -326q-39 -181 9 -326t169.5 -226t292.5 -81q128 0 250 47.5t220 131t169 201t101 253.5z" />
    <glyph glyph-name="ohungarumlaut" unicode="&#x151;" horiz-adv-x="1286" 
d="M555 1196h-113l277 326h117zM907 1196h-112l276 326h119zM485 -27q-232 0 -347 153.5t-64 389.5q50 232 231 386.5t412 154.5q154 0 259.5 -71t145 -194t6.5 -276q-50 -232 -231.5 -387.5t-411.5 -155.5zM508 78q184 0 327 124t183 314q40 189 -49.5 313.5t-272.5 124.5
q-185 0 -326.5 -123t-181.5 -315q-41 -193 47 -315.5t273 -122.5z" />
    <glyph glyph-name="OE" unicode="&#x152;" horiz-adv-x="2279" 
d="M1997 106l-23 -106h-1259q-156 0 -280 52t-199.5 146.5t-103.5 226.5t7 292q32 156 115.5 290.5t200 228t262.5 146.5t301 52h1239l-21 -107h-829l-117 -551h789l-25 -104h-786l-121 -566h850zM1032 109l258 1216h-293q-264 0 -470.5 -168t-264.5 -440q-59 -272 76 -440
t399 -168h295z" />
    <glyph glyph-name="oe" unicode="&#x153;" horiz-adv-x="2160" 
d="M2003 496h-879q-40 -190 49.5 -307t270.5 -117q120 0 231 52t187 144l55 -63q-89 -107 -221.5 -168.5t-274.5 -61.5q-160 0 -266 75.5t-139 207.5q-92 -131 -232.5 -208t-298.5 -77q-232 0 -347 153.5t-64 389.5q50 232 231 386.5t412 154.5q161 0 268 -77t141 -210
q92 130 228.5 204.5t290.5 74.5q229 0 325.5 -148t32.5 -405zM1628 958q-171 0 -307 -108.5t-180 -278.5h768q34 176 -42 281.5t-239 105.5zM508 78q176 0 316 114.5t188 294.5q0 9 4 25l6 31q31 179 -59 295t-267 116q-185 0 -326.5 -123t-181.5 -315q-41 -193 47 -315.5
t273 -122.5z" />
    <glyph glyph-name="Racute" unicode="&#x154;" horiz-adv-x="1423" 
d="M872 1599h-114l276 326h119zM649 578h-340l-119 -570h-116l303 1426h618q115 0 201 -57.5t122.5 -156t12.5 -214.5q-37 -165 -173 -286.5t-298 -133.5l-80 -2l350 -568l-131 -16zM334 684h491q131 0 244.5 94.5t142.5 227.5q28 133 -45 227t-204 94h-494z" />
    <glyph glyph-name="racute" unicode="&#x155;" horiz-adv-x="778" 
d="M565 1196h-112l276 326h117zM717 1042q53 0 100 -12l-31 -106q-44 8 -108 8q-147 0 -263.5 -95.5t-148.5 -244.5l-123 -592h-110l217 1024h108l-47 -211q70 104 179.5 166.5t226.5 62.5z" />
    <glyph glyph-name="uni0156" unicode="&#x156;" horiz-adv-x="1423" 
d="M649 578h-340l-119 -570h-116l303 1426h618q115 0 201 -57.5t122.5 -156t12.5 -214.5q-37 -165 -173 -286.5t-298 -133.5l-80 -2l350 -568l-131 -16zM334 684h491q131 0 244.5 94.5t142.5 227.5q28 133 -45 227t-204 94h-494zM469 -195h113l-181 -352h-90z" />
    <glyph glyph-name="uni0157" unicode="&#x157;" horiz-adv-x="778" 
d="M717 1042q53 0 100 -12l-31 -106q-44 8 -108 8q-147 0 -263.5 -95.5t-148.5 -244.5l-123 -592h-110l217 1024h108l-47 -211q70 104 179.5 166.5t226.5 62.5zM-10 -195h112l-180 -352h-90z" />
    <glyph glyph-name="Rcaron" unicode="&#x158;" horiz-adv-x="1423" 
d="M827 1599l-219 326h115l174 -258l283 258h116l-356 -326h-113zM649 578h-340l-119 -570h-116l303 1426h618q115 0 201 -57.5t122.5 -156t12.5 -214.5q-37 -165 -173 -286.5t-298 -133.5l-80 -2l350 -568l-131 -16zM334 684h491q131 0 244.5 94.5t142.5 227.5
q28 133 -45 227t-204 94h-494z" />
    <glyph glyph-name="rcaron" unicode="&#x159;" horiz-adv-x="778" 
d="M922 1522l-357 -326h-112l-220 326h115l174 -258l283 258h117zM717 1042q53 0 100 -12l-31 -106q-44 8 -108 8q-147 0 -263.5 -95.5t-148.5 -244.5l-123 -592h-110l217 1024h108l-47 -211q70 104 179.5 166.5t226.5 62.5z" />
    <glyph glyph-name="Sacute" unicode="&#x15a;" horiz-adv-x="1269" 
d="M872 1599h-114l276 326h119zM502 -27q-206 0 -333 86t-159 244l96 59q35 -139 142.5 -210.5t279.5 -71.5q184 0 301.5 79.5t147.5 217.5q22 104 -36 168t-220 104l-191 49q-196 49 -272 138.5t-45 232.5q37 178 190.5 284.5t384.5 106.5q187 0 305 -70t150 -198l-96 -62
q-64 224 -381 224q-181 0 -294 -73.5t-142 -209.5q-21 -102 36.5 -164.5t227.5 -105.5l197 -49q193 -48 264 -138.5t41 -232.5q-40 -187 -199.5 -297.5t-394.5 -110.5z" />
    <glyph glyph-name="sacute" unicode="&#x15b;" horiz-adv-x="1019" 
d="M659 1196h-112l276 326h119zM371 -27q-149 0 -254 54t-144 147l74 72q37 -82 127.5 -129t216.5 -47q134 0 217.5 54.5t102.5 145.5q15 70 -23 113t-145 70l-199 51q-129 32 -178 96t-27 164q29 136 148.5 214.5t302.5 78.5q135 0 226.5 -44t125.5 -126l-74 -70
q-78 144 -299 144q-134 0 -215.5 -51t-101.5 -144q-14 -70 23 -110.5t143 -67.5l198 -51q133 -33 182 -97.5t27 -163.5q-28 -139 -148 -221t-306 -82z" />
    <glyph glyph-name="Scircumflex" unicode="&#x15c;" horiz-adv-x="1269" 
d="M594 1599h-117l359 326h112l219 -326h-116l-172 259zM791 752q193 -48 264 -138.5t41 -232.5q-40 -187 -199.5 -297.5t-394.5 -110.5q-206 0 -333 86t-159 244l96 59q35 -139 142.5 -210.5t279.5 -71.5q184 0 301.5 79.5t147.5 217.5q22 104 -36 168t-220 104l-191 49
q-196 49 -272 138.5t-45 232.5q37 178 190.5 284.5t384.5 106.5q187 0 305 -70t150 -198l-96 -62q-64 224 -381 224q-181 0 -294 -73.5t-142 -209.5q-21 -102 36.5 -164.5t227.5 -105.5z" />
    <glyph glyph-name="scircumflex" unicode="&#x15d;" horiz-adv-x="1019" 
d="M389 1196h-117l357 326h112l220 -326h-115l-174 258zM616 537q133 -33 182 -97.5t27 -163.5q-28 -139 -148 -221t-306 -82q-149 0 -254 54t-144 147l74 72q37 -82 127.5 -129t216.5 -47q134 0 217.5 54.5t102.5 145.5q15 70 -23 113t-145 70l-199 51q-129 32 -178 96
t-27 164q29 136 148.5 214.5t302.5 78.5q135 0 226.5 -44t125.5 -126l-74 -70q-78 144 -299 144q-134 0 -215.5 -51t-101.5 -144q-14 -70 23 -110.5t143 -67.5z" />
    <glyph glyph-name="Scedilla" unicode="&#x15e;" horiz-adv-x="1269" 
d="M553 -23l-199 -380h-112l211 380q-188 7 -301.5 92t-141.5 234l96 59q35 -139 142.5 -210.5t279.5 -71.5q184 0 301.5 79.5t147.5 217.5q22 104 -36 168t-220 104l-191 49q-196 49 -272 138.5t-45 232.5q37 178 190.5 284.5t384.5 106.5q187 0 305 -70t150 -198l-96 -62
q-64 224 -381 224q-181 0 -294 -73.5t-142 -209.5q-21 -102 36.5 -164.5t227.5 -105.5l197 -49q193 -48 264 -138.5t41 -232.5q-39 -176 -183 -285t-360 -119z" />
    <glyph glyph-name="scedilla" unicode="&#x15f;" horiz-adv-x="1019" 
d="M825 276q-27 -129 -135 -209.5t-276 -89.5l-201 -380h-113l213 380q-130 9 -218.5 61t-121.5 136l74 72q37 -82 127.5 -129t216.5 -47q134 0 217.5 54.5t102.5 145.5q15 70 -23 113t-145 70l-199 51q-129 32 -178 96t-27 164q29 136 148.5 214.5t302.5 78.5
q135 0 226.5 -44t125.5 -126l-74 -70q-78 144 -299 144q-134 0 -215.5 -51t-101.5 -144q-14 -70 23 -110.5t143 -67.5l198 -51q133 -33 182 -97.5t27 -163.5z" />
    <glyph glyph-name="Scaron" unicode="&#x160;" horiz-adv-x="1269" 
d="M766 1599l-219 326h117l174 -258l282 258h115l-356 -326h-113zM791 752q193 -48 264 -138.5t41 -232.5q-40 -187 -199.5 -297.5t-394.5 -110.5q-206 0 -333 86t-159 244l96 59q35 -139 142.5 -210.5t279.5 -71.5q184 0 301.5 79.5t147.5 217.5q22 104 -36 168t-220 104
l-191 49q-196 49 -272 138.5t-45 232.5q37 178 190.5 284.5t384.5 106.5q187 0 305 -70t150 -198l-96 -62q-64 224 -381 224q-181 0 -294 -73.5t-142 -209.5q-21 -102 36.5 -164.5t227.5 -105.5z" />
    <glyph glyph-name="scaron" unicode="&#x161;" horiz-adv-x="1019" 
d="M561 1196l-219 326h115l174 -258l282 258h117l-356 -326h-113zM616 537q133 -33 182 -97.5t27 -163.5q-28 -139 -148 -221t-306 -82q-149 0 -254 54t-144 147l74 72q37 -82 127.5 -129t216.5 -47q134 0 217.5 54.5t102.5 145.5q15 70 -23 113t-145 70l-199 51
q-129 32 -178 96t-27 164q29 136 148.5 214.5t302.5 78.5q135 0 226.5 -44t125.5 -126l-74 -70q-78 144 -299 144q-134 0 -215.5 -51t-101.5 -144q-14 -70 23 -110.5t143 -67.5z" />
    <glyph glyph-name="uni0162" unicode="&#x162;" horiz-adv-x="1241" 
d="M1337 1434l-22 -109h-506l-281 -1325h-10l-213 -403h-112l225 403l-6 10l280 1315h-508l23 109h1130z" />
    <glyph glyph-name="uni0163" unicode="&#x163;" horiz-adv-x="808" 
d="M430 924l-151 -711q-9 -46 16 -78.5t70 -32.5h235l-20 -102h-185l-207 -403h-102l217 403q-75 8 -115.5 65.5t-23.5 135.5l153 723h-223l23 102h223l66 315h112l-65 -315h344l-23 -102h-344z" />
    <glyph glyph-name="Tcaron" unicode="&#x164;" horiz-adv-x="1241" 
d="M752 1599l-220 326h117l174 -258l283 258h115l-357 -326h-112zM1337 1434l-22 -109h-506l-281 -1325h-116l280 1325h-508l23 109h1130z" />
    <glyph glyph-name="tcaron" unicode="&#x165;" horiz-adv-x="804" 
d="M770 1597h92l-82 -397h-96zM248 0q-53 0 -81.5 37.5t-16.5 89.5l167 797h-223l23 102h223l66 315h112l-65 -315h344l-23 -102h-344l-168 -791q-2 -13 5 -22t20 -9h313l-20 -102h-332z" />
    <glyph glyph-name="Tbar" unicode="&#x166;" horiz-adv-x="1241" 
d="M809 1325l-115 -541h322l-21 -94h-321l-146 -690h-116l145 690h-321l20 94h322l114 541h-508l23 109h1130l-22 -109h-506z" />
    <glyph glyph-name="tbar" unicode="&#x167;" horiz-adv-x="808" 
d="M774 924h-344l-65 -306h348l-23 -100h-346l-65 -305q-9 -46 16 -78.5t70 -32.5h235l-20 -102h-258q-83 0 -130 59t-28 142l67 317h-223l23 100h221l65 306h-223l23 102h223l66 315h112l-65 -315h344z" />
    <glyph glyph-name="Utilde" unicode="&#x168;" horiz-adv-x="1546" 
d="M1126 1642q-42 0 -77 18t-76 62q-53 64 -111 64q-42 0 -74.5 -35t-44.5 -98h-86q21 104 77 162.5t128 58.5q78 0 152 -80q30 -35 55.5 -49t56.5 -14q43 0 75.5 35t45.5 100h86q-21 -105 -77.5 -164.5t-129.5 -59.5zM625 -27q-120 0 -214.5 38t-155 110t-81 177t7.5 239
l191 897h114l-190 -902q-23 -111 -7.5 -195t64 -139.5t123.5 -83.5t172 -28q203 0 350 115t191 331l192 902h115l-190 -897q-36 -175 -136.5 -304t-241 -194.5t-304.5 -65.5z" />
    <glyph glyph-name="utilde" unicode="&#x169;" horiz-adv-x="1224" 
d="M723 1319q-52 63 -109 63q-43 0 -75 -34.5t-47 -98.5h-86q23 104 79 162.5t129 58.5q77 0 150 -79q31 -35 56 -49.5t57 -14.5q42 0 74.5 35t45.5 100h86q-23 -105 -78.5 -164t-127.5 -59q-42 0 -77.5 18t-76.5 62zM1110 1024l-217 -1024h-111l43 201
q-70 -102 -181.5 -165t-229.5 -63q-166 0 -257.5 117t-56.5 283l140 651h110l-131 -623q-29 -133 45.5 -227t208.5 -96q133 0 248.5 94.5t144.5 228.5l131 623h113z" />
    <glyph glyph-name="Umacron" unicode="&#x16a;" horiz-adv-x="1546" 
d="M690 1774h617l-21 -93h-616zM625 -27q-120 0 -214.5 38t-155 110t-81 177t7.5 239l191 897h114l-190 -902q-23 -111 -7.5 -195t64 -139.5t123.5 -83.5t172 -28q203 0 350 115t191 331l192 902h115l-190 -897q-36 -175 -136.5 -304t-241 -194.5t-304.5 -65.5z" />
    <glyph glyph-name="umacron" unicode="&#x16b;" horiz-adv-x="1224" 
d="M438 1370h617l-19 -92h-616zM1110 1024l-217 -1024h-111l43 201q-70 -102 -181.5 -165t-229.5 -63q-166 0 -257.5 117t-56.5 283l140 651h110l-131 -623q-29 -133 45.5 -227t208.5 -96q133 0 248.5 94.5t144.5 228.5l131 623h113z" />
    <glyph glyph-name="Ubreve" unicode="&#x16c;" horiz-adv-x="1546" 
d="M963 1610q-130 0 -194.5 71.5t-39.5 188.5l2 8h92q-19 -86 24.5 -138t131.5 -52q89 0 154 52t84 138h92l-2 -8q-25 -117 -119.5 -188.5t-224.5 -71.5zM625 -27q-120 0 -214.5 38t-155 110t-81 177t7.5 239l191 897h114l-190 -902q-23 -111 -7.5 -195t64 -139.5
t123.5 -83.5t172 -28q203 0 350 115t191 331l192 902h115l-190 -897q-36 -175 -136.5 -304t-241 -194.5t-304.5 -65.5z" />
    <glyph glyph-name="ubreve" unicode="&#x16d;" horiz-adv-x="1224" 
d="M481 1475h92q-19 -86 24.5 -138.5t131.5 -52.5t153.5 52.5t84.5 138.5h92v-9q-26 -117 -121 -188.5t-225 -71.5t-194.5 71.5t-39.5 188.5zM1110 1024l-217 -1024h-111l43 201q-70 -102 -181.5 -165t-229.5 -63q-166 0 -257.5 117t-56.5 283l140 651h110l-131 -623
q-29 -133 45.5 -227t208.5 -96q133 0 248.5 94.5t144.5 228.5l131 623h113z" />
    <glyph glyph-name="Uring" unicode="&#x16e;" horiz-adv-x="1546" 
d="M963 1599q-101 0 -155 65t-34 161q20 95 101.5 160t181.5 65t153.5 -65t34.5 -160q-22 -96 -102 -161t-180 -65zM977 1671q70 0 121.5 42.5t66.5 111.5q14 68 -20 110.5t-105 42.5q-70 0 -121 -42.5t-65 -110.5q-15 -69 18 -111.5t105 -42.5zM625 -27q-120 0 -214.5 38
t-155 110t-81 177t7.5 239l191 897h114l-190 -902q-23 -111 -7.5 -195t64 -139.5t123.5 -83.5t172 -28q203 0 350 115t191 331l192 902h115l-190 -897q-36 -175 -136.5 -304t-241 -194.5t-304.5 -65.5z" />
    <glyph glyph-name="uring" unicode="&#x16f;" horiz-adv-x="1224" 
d="M524 1421q20 95 101.5 160.5t181.5 65.5t153 -65.5t33 -160.5q-20 -96 -100.5 -160.5t-181.5 -64.5t-154 64.5t-33 160.5zM915 1421q14 68 -19 111t-103 43q-72 0 -124.5 -43t-66.5 -111q-14 -69 19.5 -111t103.5 -42q71 0 124 42t66 111zM1110 1024l-217 -1024h-111
l43 201q-70 -102 -181.5 -165t-229.5 -63q-166 0 -257.5 117t-56.5 283l140 651h110l-131 -623q-29 -133 45.5 -227t208.5 -96q133 0 248.5 94.5t144.5 228.5l131 623h113z" />
    <glyph glyph-name="Uhungarumlaut" unicode="&#x170;" horiz-adv-x="1546" 
d="M979 1925h115l-324 -326h-113zM1350 1925h116l-323 -326h-115zM625 -27q-120 0 -214.5 38t-155 110t-81 177t7.5 239l191 897h114l-190 -902q-23 -111 -7.5 -195t64 -139.5t123.5 -83.5t172 -28q203 0 350 115t191 331l192 902h115l-190 -897q-36 -175 -136.5 -304
t-241 -194.5t-304.5 -65.5z" />
    <glyph glyph-name="uhungarumlaut" unicode="&#x171;" horiz-adv-x="1224" 
d="M522 1196h-114l276 326h119zM905 1196h-112l276 326h117zM1110 1024l-217 -1024h-111l43 201q-70 -102 -181.5 -165t-229.5 -63q-166 0 -257.5 117t-56.5 283l140 651h110l-131 -623q-29 -133 45.5 -227t208.5 -96q133 0 248.5 94.5t144.5 228.5l131 623h113z" />
    <glyph glyph-name="Uogonek" unicode="&#x172;" horiz-adv-x="1546" 
d="M1382 1434h115l-190 -897q-40 -199 -161.5 -335.5t-295.5 -193.5q-113 -60 -170.5 -115.5t-71.5 -117.5q-12 -59 24.5 -87t125.5 -28h22l-18 -84h-39q-126 0 -180 46.5t-33 131.5q23 125 174 221q-20 -2 -59 -2q-120 0 -214.5 38t-155 110t-81 177t7.5 239l191 897h114
l-190 -902q-23 -111 -7.5 -195t64 -139.5t123.5 -83.5t172 -28q203 0 350 115t191 331z" />
    <glyph glyph-name="uogonek" unicode="&#x173;" horiz-adv-x="1224" 
d="M997 1024h113l-217 -1012l-8 -12q-114 -61 -172 -118t-70 -118q-11 -59 25 -86.5t125 -27.5h22l-18 -86h-39q-125 0 -179 47.5t-36 132.5q34 154 248 262l-7 10l41 185q-70 -102 -181.5 -165t-229.5 -63q-166 0 -257.5 117t-56.5 283l140 651h110l-131 -623
q-29 -133 45.5 -227t208.5 -96q133 0 248.5 94.5t144.5 228.5z" />
    <glyph glyph-name="Wcircumflex" unicode="&#x174;" horiz-adv-x="2101" 
d="M1010 1599h-117l358 326h113l219 -326h-117l-172 259zM2083 1434h121l-760 -1434h-139l-140 1212l-657 -1212h-133l-162 1434h121l143 -1280l701 1280h65l154 -1289z" />
    <glyph glyph-name="wcircumflex" unicode="&#x175;" horiz-adv-x="1685" 
d="M717 1196h-117l358 326h113l219 -326h-116l-175 258zM1700 1024l-578 -1024h-123l-125 877l-495 -877h-123l-141 1024h112l123 -885l504 885h104l127 -885l498 885h117z" />
    <glyph glyph-name="Ycircumflex" unicode="&#x176;" horiz-adv-x="1271" 
d="M594 1599h-115l357 326h112l219 -326h-116l-172 259zM1434 1434l-756 -834l-125 -600h-117l127 600l-393 834h135l338 -723l655 721z" />
    <glyph glyph-name="ycircumflex" unicode="&#x177;" horiz-adv-x="1079" 
d="M416 1196h-117l358 326h113l219 -326h-117l-174 258zM1106 1030l-756 -1200q-86 -139 -172.5 -189.5t-226.5 -50.5h-141l20 101h127q107 0 169 35.5t124 132.5l90 137l-227 1034h120l193 -901l559 901h121z" />
    <glyph glyph-name="Ydieresis" unicode="&#x178;" horiz-adv-x="1271" 
d="M621 1688q-35 0 -53 23t-11 58q6 35 34.5 58.5t65.5 23.5q35 0 53.5 -23.5t12.5 -58.5q-7 -35 -36 -58t-66 -23zM1063 1688q-37 0 -55.5 23t-10.5 58t36 58.5t65 23.5q36 0 54.5 -23t10.5 -59q-8 -35 -35.5 -58t-64.5 -23zM1434 1434l-756 -834l-125 -600h-117l127 600
l-393 834h135l338 -723l655 721z" />
    <glyph glyph-name="Zacute" unicode="&#x179;" horiz-adv-x="1234" 
d="M799 1599h-113l322 326h133zM1010 106l-23 -106h-1042l18 90l1141 1237h-858l20 107h1014l-18 -91l-1141 -1237h889z" />
    <glyph glyph-name="zacute" unicode="&#x17a;" horiz-adv-x="997" 
d="M631 1196h-113l275 326h118zM762 98l-19 -98h-796l16 76l823 858h-622l22 96h768l-16 -76l-825 -856h649z" />
    <glyph glyph-name="Zdotaccent" unicode="&#x17b;" horiz-adv-x="1234" 
d="M829 1688q-37 0 -55 23t-10 58q6 36 34.5 59t65.5 23q38 0 57 -22.5t11 -59.5q-7 -35 -36.5 -58t-66.5 -23zM1010 106l-23 -106h-1042l18 90l1141 1237h-858l20 107h1014l-18 -91l-1141 -1237h889z" />
    <glyph glyph-name="zdotaccent" unicode="&#x17c;" horiz-adv-x="997" 
d="M623 1284q-35 0 -54.5 24.5t-11.5 59.5q8 34 37 58t63 24q35 0 54.5 -24t11.5 -58q-7 -35 -36.5 -59.5t-63.5 -24.5zM762 98l-19 -98h-796l16 76l823 858h-622l22 96h768l-16 -76l-825 -856h649z" />
    <glyph glyph-name="Zcaron" unicode="&#x17d;" horiz-adv-x="1234" 
d="M754 1599l-219 326h116l174 -258l283 258h117l-359 -326h-112zM1010 106l-23 -106h-1042l18 90l1141 1237h-858l20 107h1014l-18 -91l-1141 -1237h889z" />
    <glyph glyph-name="zcaron" unicode="&#x17e;" horiz-adv-x="997" 
d="M1018 1522l-359 -326h-112l-219 326h116l174 -258l283 258h117zM762 98l-19 -98h-796l16 76l823 858h-622l22 96h768l-16 -76l-825 -856h649z" />
    <glyph glyph-name="uni01CD" unicode="&#x1cd;" horiz-adv-x="1402" 
d="M838 1599l-220 326h115l174 -258l283 258h117l-357 -326h-112zM987 389h-733l-244 -389h-125l897 1434h113l297 -1434h-123zM971 492l-156 813l-502 -813h658z" />
    <glyph glyph-name="uni01CE" unicode="&#x1ce;" horiz-adv-x="1073" 
d="M682 1196l-219 326h115l174 -258l282 258h117l-356 -326h-113zM809 0h-98l49 233q-63 -118 -181 -184.5t-268 -66.5q-166 0 -245 84.5t-48 224.5q41 193 257 270.5t548 30.5l23 100q27 130 -32 197t-191 67q-221 0 -367 -165l-53 61q82 92 201 144.5t245 52.5
q179 0 259.5 -98.5t43.5 -270.5zM809 516q-279 45 -462.5 -12.5t-215.5 -206.5q-23 -107 36 -168t185 -61q166 0 285 96.5t154 263.5z" />
    <glyph glyph-name="uni01E2" unicode="&#x1e2;" horiz-adv-x="2209" 
d="M1972 1681h-616l18 93h617zM1927 109l-22 -109h-965l82 385h-655l-349 -385h-139l1295 1434h1013l-20 -109h-830l-114 -547h790l-22 -108h-793l-119 -561h848zM1042 485l181 852l-774 -852h593z" />
    <glyph glyph-name="uni01E3" unicode="&#x1e3;" horiz-adv-x="1953" 
d="M1466 1370l-18 -92h-617l19 92h616zM1796 496h-878q-40 -190 49 -307t270 -117q120 0 231 52t187 144l55 -63q-89 -107 -221.5 -168.5t-274.5 -61.5q-156 0 -261 71.5t-142 197.5q-87 -130 -221 -196t-279 -66q-166 0 -245 84.5t-48 224.5q41 193 257 270.5t548 30.5
l23 100q27 130 -32 197t-191 67q-221 0 -367 -165l-53 61q82 92 201 144.5t245 52.5q137 0 217.5 -59t94.5 -167q92 106 216.5 166t260.5 60q229 0 325.5 -148t32.5 -405zM1421 958q-171 0 -307 -108.5t-180 -278.5h768q34 176 -42 281.5t-239 105.5zM352 68q176 0 288 93
t144 249l25 106q-279 45 -462.5 -12.5t-215.5 -206.5q-23 -107 36 -168t185 -61z" />
    <glyph glyph-name="Gcaron" unicode="&#x1e6;" horiz-adv-x="1619" 
d="M985 1599l-219 326h117l174 -258l282 258h117l-358 -326h-113zM1485 733l-113 -520q-149 -123 -310.5 -181.5t-356.5 -58.5q-214 3 -358 100t-197 264.5t-9 377.5q45 211 171 380t312 266t396 97q204 0 342.5 -92t189.5 -258l-110 -61q-38 145 -153 223t-292 78
q-174 0 -329 -81.5t-261.5 -226t-144.5 -325.5q-39 -180 5 -322.5t164 -224.5t296 -86q158 0 291 41.5t258 136.5l78 373h-402l23 100h510z" />
    <glyph glyph-name="gcaron" unicode="&#x1e7;" horiz-adv-x="1335" 
d="M1180 1522l-357 -326h-112l-219 326h116l174 -258l283 258h115zM1219 1028l-207 -962q-44 -219 -217 -364.5t-387 -145.5q-146 0 -263 73t-157 189l78 73q34 -103 134.5 -169t223.5 -66q165 0 304.5 116.5t178.5 301.5l45 211q-75 -128 -209.5 -205.5t-283.5 -77.5
q-221 0 -326.5 146t-54.5 380q46 226 215.5 372.5t386.5 146.5q152 0 251.5 -74t121.5 -199l53 254h113zM506 102q177 0 317 120t181 306q38 186 -51.5 306t-264.5 120q-182 0 -321 -118.5t-179 -307.5t49 -307.5t269 -118.5z" />
    <glyph glyph-name="uni01E8" unicode="&#x1e8;" horiz-adv-x="1325" 
d="M1329 1925l-358 -326h-113l-219 326h117l174 -258l282 258h117zM1430 1434l-967 -729l655 -705h-147l-604 627l-54 -41l-123 -586h-114l303 1434h115l-148 -701l938 701h146z" />
    <glyph glyph-name="uni01E9" unicode="&#x1e9;" horiz-adv-x="1030" 
d="M385 1665l-219 326h117l174 -258l282 258h115l-356 -326h-113zM721 0l-442 475l-46 -37l-90 -438h-110l317 1497h111l-199 -926l660 453h135l-678 -477l475 -547h-133z" />
    <glyph glyph-name="AEacute" unicode="&#x1fc;" horiz-adv-x="2209" 
d="M1634 1599h-112l274 326h119zM1927 109l-22 -109h-965l82 385h-655l-349 -385h-139l1295 1434h1013l-20 -109h-830l-114 -547h790l-22 -108h-793l-119 -561h848zM1042 485l181 852l-774 -852h593z" />
    <glyph glyph-name="aeacute" unicode="&#x1fd;" horiz-adv-x="1953" 
d="M1538 1522l-281 -326h-112l276 326h117zM1796 496h-878q-40 -190 49 -307t270 -117q120 0 231 52t187 144l55 -63q-89 -107 -221.5 -168.5t-274.5 -61.5q-156 0 -261 71.5t-142 197.5q-87 -130 -221 -196t-279 -66q-166 0 -245 84.5t-48 224.5q41 193 257 270.5t548 30.5
l23 100q27 130 -32 197t-191 67q-221 0 -367 -165l-53 61q82 92 201 144.5t245 52.5q137 0 217.5 -59t94.5 -167q92 106 216.5 166t260.5 60q229 0 325.5 -148t32.5 -405zM1421 958q-171 0 -307 -108.5t-180 -278.5h768q34 176 -42 281.5t-239 105.5zM352 68q176 0 288 93
t144 249l25 106q-279 45 -462.5 -12.5t-215.5 -206.5q-23 -107 36 -168t185 -61z" />
    <glyph glyph-name="Oslashacute" unicode="&#x1fe;" horiz-adv-x="1734" 
d="M1096 1599h-115l276 326h119zM1595 717q-44 -209 -175 -380t-318.5 -268t-392.5 -96q-143 0 -258 49t-191 140l-199 -164l-51 65l197 164q-129 201 -68 490q43 208 174 379t318.5 268t392.5 96q290 0 451 -188l200 166l51 -66l-198 -164q127 -208 67 -491zM262 717
q-52 -237 49 -406l1065 877q-62 77 -158.5 119.5t-216.5 42.5q-171 0 -326.5 -81t-265 -226t-147.5 -326zM1473 717q49 236 -52 405l-1065 -876q64 -78 160.5 -120t216.5 -42q128 0 250 47.5t220 131t169 201t101 253.5z" />
    <glyph glyph-name="oslashacute" unicode="&#x1ff;" horiz-adv-x="1294" 
d="M731 1196h-113l320 326h135zM1094 870q82 -145 39 -354q-52 -239 -229.5 -391t-414.5 -152q-209 0 -329 129l-158 -131l-43 60l156 129q-85 146 -39 356q52 238 229 389.5t414 151.5q214 0 330 -129l153 129l49 -58zM698 961q-186 0 -327.5 -123t-184.5 -322
q-37 -168 29 -283l748 617q-85 111 -265 111zM508 72q187 0 329 122t185 322q36 161 -27 281l-747 -617q88 -108 260 -108z" />
    <glyph glyph-name="uni0218" unicode="&#x218;" horiz-adv-x="1269" 
d="M502 -27q-206 0 -333 86t-159 244l96 59q35 -139 142.5 -210.5t279.5 -71.5q184 0 301.5 79.5t147.5 217.5q22 104 -36 168t-220 104l-191 49q-196 49 -272 138.5t-45 232.5q37 178 190.5 284.5t384.5 106.5q187 0 305 -70t150 -198l-96 -62q-64 224 -381 224
q-181 0 -294 -73.5t-142 -209.5q-21 -102 36.5 -164.5t227.5 -105.5l197 -49q193 -48 264 -138.5t41 -232.5q-40 -187 -199.5 -297.5t-394.5 -110.5zM408 -195h112l-180 -352h-88z" />
    <glyph glyph-name="uni0219" unicode="&#x219;" horiz-adv-x="1019" 
d="M371 -27q-149 0 -254 54t-144 147l74 72q37 -82 127.5 -129t216.5 -47q134 0 217.5 54.5t102.5 145.5q15 70 -23 113t-145 70l-199 51q-129 32 -178 96t-27 164q29 136 148.5 214.5t302.5 78.5q135 0 226.5 -44t125.5 -126l-74 -70q-78 144 -299 144q-134 0 -215.5 -51
t-101.5 -144q-14 -70 23 -110.5t143 -67.5l198 -51q133 -33 182 -97.5t27 -163.5q-28 -139 -148 -221t-306 -82zM266 -195h113l-178 -352h-90z" />
    <glyph glyph-name="uni021A" unicode="&#x21a;" horiz-adv-x="1241" 
d="M692 1325h-508l23 109h1130l-22 -109h-506l-281 -1325h-116zM358 -195h113l-178 -352h-90z" />
    <glyph glyph-name="uni021B" unicode="&#x21b;" horiz-adv-x="808" 
d="M319 930h-225l23 100h223l66 311h112l-65 -311h342l-21 -100h-344l-139 -664q-19 -85 14.5 -124.5t122.5 -39.5h174l-20 -102h-199q-132 0 -183 60.5t-24 189.5zM242 -195h88l-156 -352h-88z" />
    <glyph glyph-name="uni0237" unicode="&#x237;" horiz-adv-x="483" 
d="M-289 -309h99q75 0 125 42.5t67 121.5l250 1169h110l-251 -1186q-26 -121 -103.5 -184.5t-197.5 -63.5h-119z" />
    <glyph glyph-name="circumflex" unicode="&#x2c6;" horiz-adv-x="1269" 
d="M965 1196l-174 258l-283 -258h-115l357 326h112l219 -326h-116z" />
    <glyph glyph-name="caron" unicode="&#x2c7;" horiz-adv-x="1269" 
d="M1151 1522l-358 -326h-113l-219 326h117l174 -258l282 258h117z" />
    <glyph glyph-name="breve" unicode="&#x2d8;" horiz-adv-x="1269" 
d="M739 1206q-144 0 -202.5 66t-30.5 194l2 9h92q-22 -98 16.5 -144.5t139.5 -46.5t158 46t79 145h92l-2 -9q-57 -260 -344 -260z" />
    <glyph glyph-name="dotaccent" unicode="&#x2d9;" horiz-adv-x="1269" 
d="M756 1284q-37 0 -56 23t-12 59q9 37 37.5 59.5t65.5 22.5q38 0 56.5 -22.5t10.5 -59.5q-7 -36 -36 -59t-66 -23z" />
    <glyph glyph-name="ring" unicode="&#x2da;" horiz-adv-x="1269" 
d="M737 1196q-101 0 -154.5 64.5t-33.5 160.5q22 95 102 160.5t180 65.5q101 0 155 -66t34 -160q-20 -96 -101 -160.5t-182 -64.5zM752 1268q71 0 123 42t65 111q15 68 -18.5 111t-104.5 43q-70 0 -122 -43t-66 -111q-14 -69 19.5 -111t103.5 -42z" />
    <glyph glyph-name="ogonek" unicode="&#x2db;" horiz-adv-x="1269" 
d="M475 -436h-39q-125 0 -179 47.5t-36 132.5q18 86 95 159t202 126l51 -29q-116 -61 -175.5 -118t-71.5 -118q-11 -59 24.5 -86.5t124.5 -27.5h23z" />
    <glyph glyph-name="tilde" unicode="&#x2dc;" horiz-adv-x="1269" 
d="M901 1239q-40 0 -75 18t-76 62q-52 63 -111 63q-42 0 -75 -35t-46 -98h-86q23 104 79 162.5t128 58.5q79 0 152 -79q53 -64 110 -64q43 0 75.5 35t47.5 100h86q-23 -106 -79.5 -164.5t-129.5 -58.5z" />
    <glyph glyph-name="hungarumlaut" unicode="&#x2dd;" horiz-adv-x="1269" 
d="M809 1522h115l-324 -326h-113zM1180 1522h116l-323 -326h-115z" />
    <glyph glyph-name="gravecomb" unicode="&#x300;" 
d="M-571 1196l-203 326h133l182 -326h-112z" />
    <glyph glyph-name="acutecomb" unicode="&#x301;" 
d="M-285 1522h133l-340 -326h-112z" />
    <glyph glyph-name="uni0302" unicode="&#x302;" 
d="M-305 1196l-174 258l-283 -258h-117l359 326h112l220 -326h-117z" />
    <glyph glyph-name="tildecomb" unicode="&#x303;" 
d="M-369 1239q-42 0 -77 18t-76 62q-49 63 -109 63q-42 0 -75 -35t-46 -98h-86q23 104 78.5 162.5t128.5 58.5q79 0 152 -79q53 -64 110 -64q43 0 75.5 35t45.5 100h88q-23 -106 -79.5 -164.5t-129.5 -58.5z" />
    <glyph glyph-name="uni0304" unicode="&#x304;" 
d="M-805 1370h617l-19 -92h-616z" />
    <glyph glyph-name="uni0306" unicode="&#x306;" 
d="M-530 1206q-144 0 -203 66t-31 194v9h94q-22 -98 15.5 -144.5t138.5 -46.5t159 46.5t78 144.5h95l-2 -9q-57 -260 -344 -260z" />
    <glyph glyph-name="uni0307" unicode="&#x307;" 
d="M-514 1284q-37 0 -56 23t-12 59t36.5 59t66.5 23t55.5 -23t9.5 -59q-6 -36 -34.5 -59t-65.5 -23z" />
    <glyph glyph-name="uni0308" unicode="&#x308;" 
d="M-735 1284q-37 0 -55.5 23.5t-10.5 58.5q7 35 36.5 58.5t64.5 23.5q36 0 54.5 -23t10.5 -59t-36 -59t-64 -23zM-293 1284q-36 0 -54.5 23t-12.5 59q9 36 37.5 59t64.5 23q37 0 54.5 -23.5t8.5 -58.5q-6 -35 -34.5 -58.5t-63.5 -23.5z" />
    <glyph glyph-name="uni030A" unicode="&#x30a;" 
d="M-532 1196q-101 0 -155 65t-34 160t101.5 160.5t181.5 65.5q101 0 154.5 -66t33.5 -160q-20 -96 -100.5 -160.5t-181.5 -64.5zM-518 1268q71 0 123 42t65 111q14 68 -19.5 111t-103.5 43t-122 -43t-66 -111q-14 -70 19 -111.5t104 -41.5z" />
    <glyph glyph-name="uni030B" unicode="&#x30b;" 
d="M-461 1522h115l-324 -326h-112zM-90 1522h117l-326 -326h-113z" />
    <glyph glyph-name="uni030C" unicode="&#x30c;" 
d="M-119 1522l-358 -326h-113l-219 326h117l174 -258l282 258h117z" />
    <glyph glyph-name="uni0312" unicode="&#x312;" 
 />
    <glyph glyph-name="uni0315" unicode="&#x315;" 
d="M-514 1546h111l-107 -397h-90z" />
    <glyph glyph-name="uni0326" unicode="&#x326;" 
d="M-885 -195h113l-180 -352h-90z" />
    <glyph glyph-name="uni0327" unicode="&#x327;" 
d="M-817 12h98l-217 -415h-113z" />
    <glyph glyph-name="uni0328" unicode="&#x328;" 
d="M-795 -436h-39q-125 0 -179 47.5t-36 132.5q18 86 95 159t202 126l50 -29q-115 -61 -174.5 -118.5t-71.5 -117.5q-12 -59 20 -86.5t119 -27.5h33z" />
    <glyph glyph-name="uni060C" unicode="&#x60c;" horiz-adv-x="415" 
d="M354 -4h-114v553h92z" />
    <glyph glyph-name="uni0615" unicode="&#x615;" 
d="M573 1526l25 -119h-373l-12 57h61l-67 318h57l39 -189q52 76 117 76q123 0 153 -143zM530 1464l-14 68q-17 82 -90 82q-53 0 -109 -82l15 -68h198z" />
    <glyph glyph-name="uni061B" unicode="&#x61b;" horiz-adv-x="440" 
d="M279 713h-113l-2 553h92zM403 117q19 -25 18 -49t-22 -37q-52 -30 -92 22q-19 24 -19 48.5t23 37.5q21 14 46.5 8.5t45.5 -30.5z" />
    <glyph glyph-name="uni061F" unicode="&#x61f;" horiz-adv-x="929" 
d="M610 539l58 -133h-109l-53 129q-34 77 -69.5 114.5t-133.5 98.5l-127 77q-123 75 -195 150t-108 162q-64 147 1 235t228 88q147 0 295 -74t267 -206l-62 -56q-101 113 -220.5 173.5t-234.5 60.5q-116 0 -162 -58.5t-1 -164.5q52 -124 221 -232l133 -82
q135 -83 181.5 -131t90.5 -151zM819 47q-3 -24 -25 -30t-51 8q-31 13 -47.5 37.5t-13.5 50.5t25.5 31t54.5 -9q29 -13 44.5 -37.5t12.5 -50.5z" />
    <glyph glyph-name="uni0621" unicode="&#x621;" horiz-adv-x="1130" 
d="M1112 102l21 -102h-883l-23 102h258q-90 43 -154.5 122t-84.5 175l-19 88q-35 165 58.5 281.5t257.5 116.5q90 0 180 -40.5t158 -111.5q81 -78 116 -182l-82 -41q-20 77 -79 145q-116 125 -271 125q-122 0 -190.5 -85.5t-42.5 -207.5l18 -86q26 -124 134.5 -211.5
t232.5 -87.5h395z" />
    <glyph glyph-name="uni0622" unicode="&#x622;" horiz-adv-x="491" 
d="M-186 1638l-50 48l101 83q17 17 39 -4q32 -29 86 -47t104 -18q32 0 81 17t81 36l43 -59q-34 -25 -91 -44.5t-97 -19.5q-110 0 -205 68q-16 6 -27 -2zM346 0l-303 1434h102l304 -1434h-103z" />
    <glyph glyph-name="uni0623" unicode="&#x623;" horiz-adv-x="450" 
d="M209 1614l12 -60h-344l-12 60h69q-56 49 -67 106q-13 71 25 117.5t102 46.5q63 0 117 -41t75 -98l-47 -25q-14 43 -51.5 73t-79.5 30q-43 0 -65 -30t-13 -77q10 -41 44 -71.5t79 -30.5h156zM324 10l-301 1424h102l303 -1424h-104z" />
    <glyph glyph-name="uni0624" unicode="&#x624;" horiz-adv-x="1095" 
d="M733 1163l15 -59h-345l-12 59h70q-57 50 -68 109q-12 71 25.5 117.5t101.5 46.5q62 0 117 -42t76 -100l-47 -22q-14 42 -51.5 71t-79.5 29q-43 0 -65 -29.5t-13 -76.5q10 -41 43.5 -72t77.5 -31h155zM901 932l205 -965q41 -195 -62 -313q-76 -91 -200.5 -124.5
t-333.5 -31.5l-21 103q29 1 70 -1t97.5 4.5t109.5 17.5t105.5 38.5t86.5 67.5q70 79 46 219l-11 53h-291q-189 0 -341.5 135t-194.5 330q-27 129 6 235.5t121 169t213 62.5h395zM682 102h291l-154 725h-293q-146 0 -218.5 -104t-39.5 -258q33 -153 150 -258t264 -105z" />
    <glyph glyph-name="uni0625" unicode="&#x625;" horiz-adv-x="450" 
d="M324 10l-299 1413h102l301 -1413h-104zM641 -426l12 -59h-342l-12 59h70q-60 52 -68 107q-12 71 25 117t102 46q62 0 116 -41.5t74 -97.5l-47 -22q-14 42 -51.5 71t-79.5 29q-43 0 -63.5 -30t-11.5 -77q8 -40 42 -71t78 -31h156z" />
    <glyph glyph-name="uni0626" unicode="&#x626;" horiz-adv-x="1988" 
d="M1808 932l197 -928h-104l-172 825h-377q-64 0 -100.5 -47t-22.5 -112l198 -938q10 -51 -18 -86t-78 -35h-510q-127 0 -249.5 63.5t-209.5 173t-114 238.5l-62 289h105l61 -289q32 -154 163.5 -263.5t285.5 -109.5h465q24 0 37.5 18t7.5 44l-191 895q-23 108 39.5 185
t171.5 77h477zM379 567l12 -61h-342l-12 61h69q-58 50 -69 107q-10 71 27 117.5t102 46.5q62 0 116 -42t74 -98l-47 -24q-14 42 -51.5 72t-79.5 30q-43 0 -64 -30t-12 -76q8 -40 42.5 -71.5t78.5 -31.5h156z" />
    <glyph glyph-name="uni0627" unicode="&#x627;" horiz-adv-x="491" 
d="M346 0l-303 1434h102l304 -1434h-103z" />
    <glyph glyph-name="uni0628" unicode="&#x628;" horiz-adv-x="1701" 
d="M1509 918l172 -803q9 -51 -19.5 -86t-78.5 -35h-954q-151 0 -282 107t-163 257l-71 336h106l72 -336q23 -109 115 -185.5t202 -76.5h930q17 0 26.5 11t6.5 28l-168 783h106zM997 -315q-6 32 12.5 54.5t49.5 22.5q34 0 63 -22.5t35 -54.5q7 -34 -11 -57t-52 -23
q-31 0 -60.5 23.5t-36.5 56.5z" />
    <glyph glyph-name="uni0629" unicode="&#x629;" horiz-adv-x="1038" 
d="M313 1260q32 0 61.5 -23.5t37.5 -54.5q6 -34 -13 -57t-53 -23q-31 0 -59.5 23.5t-34.5 56.5q-8 31 10.5 54.5t50.5 23.5zM561 1260q33 0 61.5 -23.5t36.5 -54.5q7 -34 -11 -57t-52 -23q-31 0 -60 23.5t-36 56.5q-7 31 11.5 54.5t49.5 23.5zM68 932h421q173 0 319 -121
t181 -293l23 -100q24 -114 -8.5 -209.5t-116.5 -152t-201 -56.5q-180 0 -324 110.5t-180 280.5zM666 102q136 0 204.5 91t40.5 225l-22 96q-26 131 -136.5 223t-240.5 92h-319l92 -430q21 -97 82.5 -166t138 -100t160.5 -31z" />
    <glyph glyph-name="uni062A" unicode="&#x62a;" horiz-adv-x="1701" 
d="M627 1063q33 0 61.5 -23.5t36.5 -54.5q6 -34 -12 -57t-51 -23q-32 0 -61.5 23.5t-35.5 56.5q-7 30 12 54t50 24zM877 1063q32 0 61 -23.5t37 -54.5q6 -34 -13 -57t-53 -23q-31 0 -59.5 23.5t-34.5 56.5q-8 31 11 54.5t51 23.5zM1509 918l170 -797q10 -50 -19 -85.5
t-79 -35.5h-954q-99 0 -194 49t-162.5 133t-88.5 183l-69 329h106l70 -329q23 -109 115 -186t202 -77h932q15 0 24.5 11t6.5 28l-166 777h106z" />
    <glyph glyph-name="uni062B" unicode="&#x62b;" horiz-adv-x="1685" 
d="M696 1290q34 0 63.5 -23t35.5 -55q6 -34 -13 -56.5t-53 -22.5q-32 0 -60 23t-34 56q-6 32 12 55t49 23zM621 1063q33 0 62.5 -23.5t35.5 -54.5q6 -34 -12 -57t-52 -23q-32 0 -61 23.5t-35 56.5q-6 31 12.5 54.5t49.5 23.5zM870 1063q33 0 62 -23.5t37 -54.5
q6 -34 -13 -57t-51 -23q-33 0 -61.5 23.5t-34.5 56.5q-7 31 11.5 54.5t49.5 23.5zM1509 918l170 -797q10 -50 -19 -85.5t-79 -35.5h-954q-99 0 -194 49t-162.5 133t-88.5 183l-69 329h106l70 -329q23 -109 115 -186t202 -77h932q15 0 24.5 11t6.5 28l-166 777h106z" />
    <glyph glyph-name="uni062C" unicode="&#x62c;" horiz-adv-x="1527" 
d="M614 0q-107 0 -166 -75.5t-36 -184.5q23 -107 114.5 -182.5t198.5 -75.5h430l23 -103h-433q-150 0 -278 105.5t-160 255.5q-32 151 51 256.5t234 105.5h729q-44 25 -79 70t-46 98l-22 117q-52 234 -218 344q-79 53 -179 77t-188 19.5t-144.5 -13.5t-86.5 -19l-59 92
q41 17 112 29.5t169.5 16t212.5 -25.5t208 -92q212 -143 273 -426l24 -119q15 -68 69 -118t118 -50h16l23 -102h-910zM721 -195q32 0 59 -22t33 -53q8 -31 -10.5 -53.5t-50.5 -22.5q-30 0 -57 23t-33 53q-6 31 12 53t47 22z" />
    <glyph glyph-name="uni062D" unicode="&#x62d;" horiz-adv-x="1527" 
d="M604 0q-100 0 -155 -70.5t-33 -171.5q22 -100 107 -169.5t186 -69.5h460l21 -105h-461q-142 0 -264.5 100.5t-153.5 243.5q-31 145 48.5 244.5t224.5 99.5h737q-44 24 -78.5 68.5t-46.5 95.5l-25 119q-48 237 -219 352q-79 53 -185.5 75.5t-195.5 17t-148.5 -15.5
t-74.5 -17l-45 100q21 6 58.5 14.5t119 16t161.5 3.5t178.5 -31.5t178.5 -80.5q216 -146 277 -434l22 -117q15 -69 72.5 -117.5t124.5 -48.5h16l23 -102h-930z" />
    <glyph glyph-name="uni062E" unicode="&#x62e;" horiz-adv-x="1527" 
d="M582 1268q34 0 62 -23t34 -55q7 -34 -11.5 -57t-52.5 -23q-31 0 -60 23.5t-36 56.5q-6 32 13.5 55t50.5 23zM604 0q-100 0 -155 -70.5t-33 -171.5q22 -100 107 -169.5t186 -69.5h460l21 -105h-461q-142 0 -264.5 100.5t-153.5 243.5q-31 145 48.5 244.5t224.5 99.5h737
q-44 24 -78.5 68.5t-46.5 95.5l-22 119q-51 238 -222 350q-64 44 -147.5 67t-156.5 26t-141.5 -3t-107.5 -14.5t-51 -13.5l-45 100q21 6 58.5 14.5t119 16t161.5 3.5t178.5 -31.5t178.5 -80.5q215 -146 277 -434l22 -117q15 -69 72.5 -117.5t124.5 -48.5h16l23 -102h-930z
" />
    <glyph glyph-name="uni062F" unicode="&#x62f;" horiz-adv-x="1038" 
d="M752 0h-484l-22 102h483q93 0 137 74q44 73 2 164l-272 584l94 28l271 -585q65 -145 -3 -254q-29 -53 -84 -83t-122 -30z" />
    <glyph glyph-name="uni0630" unicode="&#x630;" horiz-adv-x="1038" 
d="M487 1225q12 17 35 20t45 -10q22 -15 29 -38t-4 -42q-9 -18 -32 -21t-46 11q-20 13 -27.5 37.5t0.5 42.5zM752 0h-484l-22 102h483q93 0 137 74q44 73 2 164l-272 584l94 28l271 -585q65 -145 -3 -254q-29 -53 -84 -83t-122 -30z" />
    <glyph glyph-name="uni0631" unicode="&#x631;" horiz-adv-x="581" 
d="M586 -8q22 -94 12 -168t-37 -127t-74.5 -89.5t-99.5 -56.5t-113 -28l-55 98q56 9 100 25t84.5 44.5t61 69t29 98.5t-10.5 134l-196 928h102z" />
    <glyph glyph-name="uni0632" unicode="&#x632;" horiz-adv-x="602" 
d="M256 1268q34 0 62 -23t34 -55q7 -34 -11 -57t-52 -23q-31 0 -60 23.5t-36 56.5q-6 32 13 55t50 23zM586 -8q22 -94 12 -168t-37 -127t-74.5 -89.5t-99.5 -56.5t-113 -28l-55 98q56 9 100 25t84.5 44.5t61 69t29 98.5t-10.5 134l-196 928h102z" />
    <glyph glyph-name="uni0633" unicode="&#x633;" horiz-adv-x="2484" 
d="M2142 0q-96 0 -185 51t-145 135q-19 -85 -85.5 -135t-165.5 -51q-77 0 -147.5 35.5t-123.5 95.5l82 -387q12 -60 -19 -101.5t-89 -41.5h-453q-125 0 -244.5 61.5t-203.5 166.5t-109 228l-61 287h104l61 -287q31 -148 156.5 -251t273.5 -103h435q25 0 38 16.5t9 42.5
l-207 971h98l86 -395q20 -100 103 -168t186 -68q105 0 161 71t34 169l-82 389h102l86 -393q20 -101 103.5 -168.5t183.5 -67.5q99 0 153.5 70.5t34.5 169.5l-125 582h105l125 -584q26 -149 -52.5 -244.5t-222.5 -95.5z" />
    <glyph glyph-name="uni0634" unicode="&#x634;" horiz-adv-x="2467" 
d="M1534 1309q34 0 63 -23t35 -55q6 -34 -12 -57t-51 -23q-32 0 -61 23.5t-35 56.5q-6 32 12 55t49 23zM1446 1063q33 0 62.5 -23.5t35.5 -54.5q6 -34 -12 -57t-51 -23q-32 0 -61.5 23.5t-35.5 56.5q-6 31 12.5 54.5t49.5 23.5zM1733 1063q33 0 61.5 -23.5t36.5 -54.5
q6 -34 -13 -57t-51 -23q-33 0 -61.5 23.5t-34.5 56.5q-7 30 12 54t50 24zM2142 0q-96 0 -185 51t-145 135q-19 -85 -85.5 -135t-165.5 -51q-77 0 -147.5 35.5t-123.5 95.5l82 -387q12 -60 -19 -101.5t-89 -41.5h-453q-125 0 -244.5 61.5t-203.5 166.5t-109 228l-61 287h104
l61 -287q31 -148 156.5 -251t273.5 -103h435q25 0 38 16.5t9 42.5l-207 971h98l86 -395q20 -100 103 -168t186 -68q105 0 161 71t34 169l-82 389h102l86 -393q20 -101 103.5 -168.5t183.5 -67.5q99 0 153.5 70.5t34.5 169.5l-125 582h105l125 -584q26 -149 -52.5 -244.5
t-222.5 -95.5z" />
    <glyph glyph-name="uni0635" unicode="&#x635;" horiz-adv-x="2555" 
d="M2347 702q88 -114 115 -237l73 -352q10 -48 -16 -80.5t-70 -32.5h-1095l59 -279q12 -56 -19.5 -95.5t-88.5 -39.5h-478q-129 0 -251.5 63t-208.5 171.5t-113 236.5l-59 279h100l59 -279q32 -153 165 -261.5t286 -108.5h459q23 0 36.5 16.5t8.5 38.5l-252 1180h100
l45 -205l557 182q149 47 314.5 -9t273.5 -188zM2427 143l-68 322q-26 108 -90 186q-81 103 -210 144.5t-249 7.5l-585 -193l106 -508h1067q16 0 24.5 11.5t4.5 29.5z" />
    <glyph glyph-name="uni0636" unicode="&#x636;" horiz-adv-x="2539" 
d="M1686 1268q34 0 62 -23t34 -55q7 -34 -11.5 -57t-52.5 -23q-31 0 -60 23.5t-36 56.5q-6 32 13.5 55t50.5 23zM2347 702q88 -114 115 -237l73 -352q10 -48 -16 -80.5t-70 -32.5h-1095l59 -279q12 -56 -19.5 -95.5t-88.5 -39.5h-478q-129 0 -251.5 63t-208.5 171.5
t-113 236.5l-64 293h103l61 -293q32 -153 165 -261.5t286 -108.5h459q23 0 36.5 16.5t8.5 38.5l-252 1180h100l45 -205l557 182q149 47 314.5 -9t273.5 -188zM2427 143l-68 322q-26 108 -90 186q-81 103 -210 144.5t-249 7.5l-585 -193l106 -508h1067q16 0 24.5 11.5
t4.5 29.5z" />
    <glyph glyph-name="uni0637" unicode="&#x637;" horiz-adv-x="1773" 
d="M1567 711q91 -115 114 -240l76 -356q11 -47 -15 -81t-73 -34h-1395l-20 102h188l-280 1321h102l150 -698l561 182q149 50 317 -5.5t275 -190.5zM1649 143l-70 328q-21 101 -90 188q-85 104 -215 147t-248 5l-592 -193l111 -516h1073q17 0 26 12t5 29z" />
    <glyph glyph-name="uni0638" unicode="&#x638;" horiz-adv-x="1712" 
d="M1567 711q91 -115 114 -240l76 -356q11 -47 -15 -81t-73 -34h-1395l-20 102h188l-280 1321h102l150 -698l561 182q149 50 317 -5.5t275 -190.5zM834 1268q34 0 62 -23t34 -55q7 -34 -11.5 -57t-52.5 -23q-31 0 -60 23.5t-36 56.5q-6 32 13.5 55t50.5 23zM1649 143
l-70 328q-21 101 -90 188q-85 104 -215 147t-248 5l-592 -193l111 -516h1073q17 0 26 12t5 29z" />
    <glyph glyph-name="uni0639" unicode="&#x639;" horiz-adv-x="1198" 
d="M1171 102l21 -102h-596q-96 0 -148 -67t-32 -164q19 -93 101 -160.5t177 -67.5h445l20 -100h-444q-138 0 -255 96.5t-145 231.5q-26 118 30 205.5t165 101.5l39 4q-98 48 -166.5 131t-89.5 184l-31 137q-34 166 59 283t257 117q158 0 290 -98.5t179 -251.5l-70 -41
q-34 123 -142.5 208t-234.5 85q-123 0 -193.5 -89t-44.5 -213l29 -135q26 -124 132.5 -209.5t230.5 -85.5h417z" />
    <glyph glyph-name="uni063A" unicode="&#x63a;" horiz-adv-x="1183" 
d="M483 1268q34 0 62.5 -23t34.5 -55q7 -34 -11.5 -57t-52.5 -23q-31 0 -60 23.5t-36 56.5q-6 32 13 55t50 23zM1171 102l21 -102h-596q-96 0 -148 -67t-32 -164q19 -93 101 -160.5t177 -67.5h449l18 -100h-446q-138 0 -255 96.5t-145 231.5q-26 118 30 205.5t165 101.5
l39 4q-95 40 -164.5 126t-91.5 189l-31 137q-34 166 59 283t257 117q158 0 290 -98.5t179 -251.5l-70 -41q-34 123 -142.5 208t-234.5 85q-123 0 -193.5 -89t-44.5 -213l29 -135q26 -124 132.5 -209.5t230.5 -85.5h417z" />
    <glyph glyph-name="uni0640" unicode="&#x640;" horiz-adv-x="452" 
d="M111 102h491l23 -102h-494z" />
    <glyph glyph-name="uni0641" unicode="&#x641;" horiz-adv-x="1996" 
d="M1442 1276q34 0 62 -23t34 -55q7 -34 -11 -57t-52 -23q-31 0 -60.5 23.5t-36.5 56.5q-6 32 13.5 55t50.5 23zM1802 932l170 -793q11 -59 -20.5 -99t-89.5 -40h-1143q-188 0 -349.5 134t-201.5 323l-55 258h104l55 -262q32 -145 156.5 -248t267.5 -103h666
q-108 50 -191.5 150.5t-107.5 214.5q-27 126 13.5 233t135 169.5t220.5 62.5h370zM1800 102q31 0 48 22.5t10 53.5l-138 651h-266q-152 0 -237.5 -106.5t-53.5 -257.5q20 -93 88.5 -178t157.5 -135t170 -50h221z" />
    <glyph glyph-name="uni0642" unicode="&#x642;" horiz-adv-x="1417" 
d="M594 1276q34 0 63 -23t35 -55q6 -34 -12.5 -57t-52.5 -23q-32 0 -60.5 23.5t-34.5 56.5q-6 32 12.5 55t49.5 23zM850 1276q34 0 62 -23t34 -55q7 -34 -11 -57t-52 -23q-31 0 -60.5 23.5t-36.5 56.5q-6 32 13.5 55t50.5 23zM813 932h410l256 -1202q14 -62 -21 -107
t-96 -45h-528q-130 0 -254 63.5t-211.5 174t-114.5 241.5l-64 293h105l63 -291q32 -155 165 -264.5t288 -109.5h516q25 0 37 15.5t8 41.5l-57 258h-305q-112 0 -219 54.5t-182.5 149.5t-98.5 206l-25 114q-37 171 59.5 289.5t268.5 118.5zM989 102h305l-155 736h-305
q-130 0 -202 -92.5t-44 -221.5l24 -112q26 -128 137 -219t240 -91z" />
    <glyph glyph-name="uni0643" unicode="&#x643;" horiz-adv-x="1675" 
d="M1335 1423l275 -1296q12 -53 -17.5 -90t-83.5 -37h-807q-118 0 -230 58t-190.5 157.5t-103.5 216.5l-57 268h100l58 -268q29 -136 147.5 -233t253.5 -97h778q24 0 37.5 16.5t7.5 39.5l-268 1265h100zM942 889l12 -62h-342l-14 62h72q-59 52 -70 106q-12 71 26 117.5
t103 46.5q62 0 117 -41.5t74 -97.5l-48 -25q-14 42 -51.5 72.5t-79.5 30.5q-43 0 -64.5 -30.5t-10.5 -76.5q8 -40 42 -71t78 -31h156z" />
    <glyph glyph-name="uni0644" unicode="&#x644;" horiz-adv-x="1380" 
d="M1288 -401h-465q-128 0 -250.5 63t-209 171.5t-113.5 236.5l-60 284h103l61 -284q32 -154 162.5 -261.5t284.5 -107.5h450q26 0 40.5 18.5t8.5 44.5l-352 1659h103l356 -1675q12 -62 -23 -105.5t-96 -43.5z" />
    <glyph glyph-name="uni0645" unicode="&#x645;" horiz-adv-x="1236" 
d="M819 0q-102 0 -194.5 42.5t-153.5 111.5l23 -101q18 -102 0 -182.5t-64.5 -130.5t-102 -80t-122.5 -45l-41 100q48 12 86.5 30.5t71.5 48.5t50.5 70t24 93.5t-9.5 120.5l-182 854h418q173 0 321.5 -123.5t185.5 -298.5l21 -92q35 -172 -62 -295t-270 -123zM799 102
q132 0 205 91.5t47 222.5l-23 94q-26 132 -138.5 224.5t-244.5 92.5h-315l92 -430q16 -73 54.5 -130.5t90.5 -92.5t111.5 -53.5t120.5 -18.5z" />
    <glyph glyph-name="uni0646" unicode="&#x646;" horiz-adv-x="1361" 
d="M623 948q34 0 63 -23t35 -55q7 -32 -12 -55.5t-52 -23.5q-32 0 -60 23.5t-36 55.5q-6 32 12.5 55t49.5 23zM1311 -397h-490q-129 0 -251 63t-207.5 171t-112.5 235l-60 278h103l59 -278q32 -151 163.5 -260t283.5 -109h446q25 0 39 17t10 42l-239 1127h102l250 -1170
q9 -49 -18.5 -82.5t-77.5 -33.5z" />
    <glyph glyph-name="uni0647" unicode="&#x647;" horiz-adv-x="1038" 
d="M68 932h421q173 0 319 -121t181 -293l23 -100q24 -114 -8.5 -209.5t-116.5 -152t-201 -56.5q-180 0 -324 110.5t-180 280.5zM666 102q136 0 204.5 91t40.5 225l-22 96q-26 131 -136.5 223t-240.5 92h-319l92 -430q21 -97 82.5 -166t138 -100t160.5 -31z" />
    <glyph glyph-name="uni0648" unicode="&#x648;" horiz-adv-x="1095" 
d="M901 932l205 -965q41 -195 -62 -313q-76 -91 -200.5 -124.5t-333.5 -31.5l-21 103q29 1 70 -1t97.5 4.5t109.5 17.5t105.5 38.5t86.5 67.5q70 79 46 219l-11 53h-291q-189 0 -341.5 135t-194.5 330q-27 129 6 235.5t121 169t213 62.5h395zM682 102h291l-154 725h-293
q-146 0 -218.5 -104t-39.5 -258q33 -153 150 -258t264 -105z" />
    <glyph glyph-name="uni0649" unicode="&#x649;" horiz-adv-x="2002" 
d="M1808 932l197 -928h-104l-172 825h-377q-64 0 -100.5 -47t-22.5 -112l198 -938q10 -51 -18 -86t-78 -35h-510q-127 0 -249.5 63.5t-209.5 173t-114 238.5l-62 289h105l61 -289q32 -154 163.5 -263.5t285.5 -109.5h465q24 0 37.5 18t7.5 44l-191 895q-23 108 39.5 185
t171.5 77h477z" />
    <glyph glyph-name="uni064A" unicode="&#x64a;" horiz-adv-x="2002" 
d="M1808 932l197 -928h-104l-172 825h-377q-64 0 -100.5 -47t-22.5 -112l198 -938q10 -51 -18 -86t-78 -35h-510q-127 0 -249.5 63.5t-209.5 173t-114 238.5l-62 289h105l61 -289q32 -154 163.5 -263.5t285.5 -109.5h465q24 0 37.5 18t7.5 44l-191 895q-23 108 39.5 185
t171.5 77h477zM926 -535q34 0 63 -22.5t35 -54.5q7 -34 -11 -57t-52 -23q-31 0 -60.5 23.5t-36.5 56.5q-6 32 12.5 54.5t49.5 22.5zM1186 -535q34 0 63 -22.5t35 -54.5q7 -34 -11 -57t-52 -23q-31 0 -60.5 23.5t-36.5 56.5q-6 32 12.5 54.5t49.5 22.5z" />
    <glyph glyph-name="uni064B" unicode="&#x64b;" 
d="M-199 1729l291 102l19 -49l-291 -105zM-170 1597l289 107l20 -53l-291 -107z" />
    <glyph glyph-name="uni064C" unicode="&#x64c;" 
d="M242 1593q9 -46 -13.5 -80t-66.5 -45l-219 -73l-15 47q-9 43 -29 66.5t-46 25.5l-13 -2l-16 41l10 4q88 18 123 -92l8 -25l101 35q-61 30 -74 98q-12 51 17 88t81 37q51 0 95.5 -37t56.5 -88zM133 1516q32 0 47 21t8 56q-5 31 -29.5 52.5t-56.5 21.5q-33 0 -48 -20
t-9 -52q8 -35 32 -57t56 -22z" />
    <glyph glyph-name="uni064D" unicode="&#x64d;" 
d="M229 -291l291 103l19 -50l-287 -106zM258 -424l289 109l20 -54l-288 -106z" />
    <glyph glyph-name="uni064E" unicode="&#x64e;" 
d="M-145 1655l290 102l17 -49l-287 -104z" />
    <glyph glyph-name="uni064F" unicode="&#x64f;" 
d="M-23 1812q51 0 95.5 -36t54.5 -88q20 -91 -76 -123l-198 -70l-27 47l131 47q-28 12 -50.5 39.5t-29.5 59.5q-10 52 18.5 88t81.5 36zM20 1610q33 0 50 24t8 60q-6 32 -33 55t-61 23t-52 -23t-10 -55q7 -36 35.5 -60t62.5 -24z" />
    <glyph glyph-name="uni0650" unicode="&#x650;" 
d="M350 -690l289 108l18 -53l-286 -106z" />
    <glyph glyph-name="uni0651" unicode="&#x651;" 
d="M176 1706h60l24 -123q17 -75 -11 -117.5t-87 -42.5q-52 0 -96 47q-3 -38 -26.5 -59.5t-57.5 -21.5q-55 0 -97.5 34t-56.5 101l-14 73h59l14 -73q16 -76 80 -76q63 0 41 92l-22 111h59l23 -103q6 -29 27 -45t46 -16q78 0 60 96z" />
    <glyph glyph-name="uni0652" unicode="&#x652;" 
d="M-29 1536q-53 0 -98 38.5t-55 92.5q-12 54 17 91.5t83 37.5q53 0 99.5 -37.5t58.5 -91.5q11 -54 -20 -92.5t-85 -38.5zM-39 1593q30 0 45 21.5t8 54.5q-6 29 -30.5 49.5t-53.5 20.5q-30 0 -45.5 -20t-9.5 -50q8 -34 31.5 -55t54.5 -21z" />
    <glyph glyph-name="uni0653" unicode="&#x653;" 
d="M-205 1917l-49 47l100 84q8 7 19 6t20 -10q32 -29 86.5 -47.5t104.5 -18.5q31 0 80 17.5t82 36.5l43 -60q-34 -25 -91.5 -44t-97.5 -19q-112 0 -205 67q-15 6 -26 -2z" />
    <glyph glyph-name="uni0658" unicode="&#x658;" 
 />
    <glyph glyph-name="uni0660" unicode="&#x660;" horiz-adv-x="473" 
d="M285 80q-9 40 10 64t57 24q40 0 69 -24t38 -64q8 -39 -11.5 -63.5t-58.5 -24.5q-38 0 -67 25t-37 63z" />
    <glyph glyph-name="uni0661" unicode="&#x661;" horiz-adv-x="432" 
d="M123 1434l303 -1434h-115l-303 1434h115z" />
    <glyph glyph-name="uni0662" unicode="&#x662;" horiz-adv-x="1163" 
d="M844 1434l22 -113h-374q-138 0 -215 -106t-46 -248l205 -967h-114l-205 965q-26 125 11 233t127 172t212 64h377z" />
    <glyph glyph-name="uni0663" unicode="&#x663;" horiz-adv-x="1564" 
d="M1094 612q-95 0 -184.5 51.5t-145.5 135.5q-21 -86 -87.5 -136.5t-164.5 -50.5q-76 0 -147 35.5t-123 97.5l157 -745h-98l-305 1434h100l101 -484q22 -98 105.5 -165.5t184.5 -67.5q105 0 161 70t36 169l-102 478h102l102 -484q22 -100 105 -166.5t184 -66.5
q100 0 154.5 70t34.5 169l-103 478h105l100 -482q27 -149 -50.5 -244.5t-221.5 -95.5z" />
    <glyph glyph-name="uni0664" unicode="&#x664;" horiz-adv-x="1169" 
d="M1028 637l23 -100h-576q-92 0 -142 -65t-30 -157q19 -90 96.5 -153.5t169.5 -63.5h430l19 -98h-428q-133 0 -246 93t-139 222q-25 115 29 199t157 96l39 2q-93 47 -161 131t-89 183l-28 135q-22 105 11.5 194t111.5 140t182 51q154 0 281 -97t173 -249l-71 -39
q-34 124 -136.5 205.5t-226.5 81.5q-118 0 -185 -84t-42 -203l29 -135q26 -119 128.5 -204t219.5 -85h401z" />
    <glyph glyph-name="uni0665" unicode="&#x665;" horiz-adv-x="1427" 
d="M870 -27q-250 0 -445.5 205t-266.5 539q-44 225 -13 390t138 259t272 94q250 0 447 -205t268 -538q44 -225 12.5 -390.5t-139.5 -259.5t-273 -94zM848 80q196 0 279.5 175.5t23.5 461.5q-61 287 -218.5 462t-352.5 175q-197 0 -281 -175t-23 -462q62 -286 219 -461.5
t353 -175.5z" />
    <glyph glyph-name="uni0666" unicode="&#x666;" horiz-adv-x="1163" 
d="M322 1434h374q123 0 213.5 -64t128 -172t11.5 -233l-205 -965h-115l205 967q19 93 -8 174.5t-94 130.5t-158 49h-377z" />
    <glyph glyph-name="uni0667" unicode="&#x667;" horiz-adv-x="1388" 
d="M1346 1434l-574 -1434h-143l-590 1434h125l534 -1303l523 1303h125z" />
    <glyph glyph-name="uni0668" unicode="&#x668;" horiz-adv-x="1398" 
d="M1509 0h-125l-804 1303l-263 -1303h-124l288 1434h144z" />
    <glyph glyph-name="uni0669" unicode="&#x669;" horiz-adv-x="1136" 
d="M422 1434q172 0 319.5 -122t184.5 -294l88 -420l127 -598h-107l-106 498h-293q-196 0 -341.5 124t-182.5 298l-23 98q-35 172 63 294t271 122zM911 600l-88 418q-29 129 -140.5 221t-240.5 92q-132 0 -205 -93.5t-44 -225.5l20 -97q26 -130 140 -222.5t245 -92.5h313z
" />
    <glyph glyph-name="uni066A" unicode="&#x66a;" horiz-adv-x="1566" 
d="M1106 1434h106l-725 -1434h-106zM244 1180q-48 0 -89 32.5t-51 79.5q-10 49 15.5 82t75.5 33t90.5 -33t50.5 -82q11 -47 -16 -79.5t-76 -32.5zM1448 -8q-47 0 -87.5 33.5t-49.5 80.5q-11 50 15 82.5t75 32.5t88.5 -32.5t50.5 -82.5q11 -47 -16 -80.5t-76 -33.5z" />
    <glyph glyph-name="uni066B" unicode="&#x66b;" horiz-adv-x="415" 
d="M283 244h114v-555h-92z" />
    <glyph glyph-name="uni066C" unicode="&#x66c;" horiz-adv-x="415" 
d="M283 244h114v-555h-92z" />
    <glyph glyph-name="uni066D" unicode="&#x66d;" horiz-adv-x="925" 
d="M604 330l270 -277l-63 -53l-258 285l-139 -283l-82 51l151 279l-354 98l10 86l353 -115l-80 349h88l67 -349l303 113l45 -84z" />
    <glyph glyph-name="uni066E" unicode="&#x66e;" horiz-adv-x="1695" 
d="M1509 918l170 -797q10 -50 -19 -85.5t-79 -35.5h-954q-99 0 -194 49t-162.5 133t-88.5 183l-73 348h106l74 -348q23 -109 115 -186t202 -77h932q15 0 24.5 11t6.5 28l-166 777h106z" />
    <glyph glyph-name="uni066F" unicode="&#x66f;" horiz-adv-x="1417" 
d="M811 940q168 0 314.5 -120t181.5 -288l172 -802q14 -62 -21 -107t-96 -45h-528q-130 0 -254 63.5t-211.5 174t-114.5 241.5l-64 293h105l63 -291q32 -155 165 -264.5t288 -109.5h516q25 0 37 15.5t8 41.5l-57 258h-305q-112 0 -219 54.5t-182.5 149.5t-98.5 206l-25 114
q-24 113 11 208.5t118.5 151.5t196.5 56zM989 102h305l-92 430q-26 126 -134 216t-234 90q-130 0 -202 -92.5t-44 -221.5l24 -112q26 -128 137 -219t240 -91z" />
    <glyph glyph-name="uni0671" unicode="&#x671;" horiz-adv-x="450" 
d="M326 0l-303 1434h102l303 -1434h-102z" />
    <glyph glyph-name="uni0679" unicode="&#x679;" horiz-adv-x="1695" 
d="M578 1155h61l-68 318h58l39 -189q52 76 116 76q124 0 154 -143l25 -119h-373zM791 1305q-53 0 -109 -82l14 -68h199l-14 68q-17 82 -90 82zM1679 121q10 -50 -19 -85.5t-79 -35.5h-954q-99 0 -194 49t-162.5 133t-88.5 183l-73 348h106l74 -348q23 -109 115 -186t202 -77
h932q15 0 24.5 11t6.5 28l-166 777h106z" />
    <glyph glyph-name="uni067E" unicode="&#x67e;" horiz-adv-x="1695" 
d="M1509 918l170 -797q10 -50 -19 -85.5t-79 -35.5h-954q-99 0 -194 49t-162.5 133t-88.5 183l-73 348h106l74 -348q23 -109 115 -186t202 -77h932q15 0 24.5 11t6.5 28l-166 777h106zM942 -328q-31 0 -60.5 23t-35.5 55q-7 33 11.5 56.5t49.5 23.5q34 0 63 -23t36 -57
q6 -33 -12.5 -55.5t-51.5 -22.5zM1190 -328q-31 0 -59.5 23t-34.5 55q-7 34 11 57t50 23q33 0 62 -23.5t36 -56.5q6 -32 -12.5 -55t-52.5 -23zM1112 -557q-30 0 -58 23.5t-36 54.5q-6 34 12 57t49 23q34 0 63.5 -23.5t35.5 -56.5q8 -31 -12 -54.5t-54 -23.5z" />
    <glyph glyph-name="uni0686" unicode="&#x686;" horiz-adv-x="1527" 
d="M614 0q-107 0 -166 -75.5t-36 -184.5q23 -107 114.5 -182.5t198.5 -75.5h430l23 -103h-433q-150 0 -278 105.5t-160 255.5q-32 151 51 256.5t234 105.5h729q-44 25 -79 70t-46 98l-22 115q-52 236 -218 346q-79 53 -179 77t-188 19.5t-144.5 -13.5t-86.5 -19l-59 92
q32 12 81.5 23.5t127 17.5t156.5 0.5t170 -34t167 -79.5q212 -144 275 -430l22 -115q15 -68 69 -118t118 -50h16l23 -102h-910zM641 -262q-21 0 -40.5 16t-22.5 37q-6 21 5.5 37t32.5 16q23 0 43.5 -15.5t24.5 -37.5q5 -22 -7.5 -37.5t-35.5 -15.5zM825 -262
q-22 0 -41.5 15.5t-23.5 37.5t8.5 37.5t32.5 15.5q23 0 42.5 -15.5t24.5 -37.5q3 -22 -9.5 -37.5t-33.5 -15.5zM768 -430q-22 0 -40.5 14.5t-22.5 36.5q-4 23 7 39t31 16q23 0 43.5 -16t24.5 -39q4 -22 -8.5 -36.5t-34.5 -14.5z" />
    <glyph glyph-name="uni0688" unicode="&#x688;" horiz-adv-x="1038" 
d="M379 1182h61l-67 317h57l39 -188q52 75 117 75q123 0 153 -143l25 -119h-373zM592 1331q-53 0 -109 -82l15 -67h198l-14 67q-17 82 -90 82zM961 367q65 -145 -3 -254q-29 -53 -84 -83t-122 -30h-484l-22 102h483q93 0 137 74q44 73 2 164l-272 584l94 28z" />
    <glyph glyph-name="uni0691" unicode="&#x691;" horiz-adv-x="581" 
d="M113 1116l-13 58h62l-68 317h58l38 -188q52 75 117 75q124 0 154 -143l24 -119h-372zM313 1323q-52 0 -108 -82l14 -67h199l-15 67q-17 82 -90 82zM584 -8q22 -94 12 -168t-37 -127t-74.5 -89.5t-99.5 -56.5t-113 -28l-55 98q56 9 100 25t84.5 44.5t61 69t29 98.5
t-10.5 134l-196 928h102z" />
    <glyph glyph-name="uni0698" unicode="&#x698;" horiz-adv-x="581" 
d="M217 1454q32 0 61.5 -23t36.5 -55q8 -32 -11.5 -56t-53.5 -24q-31 0 -58.5 24t-35.5 56q-7 32 11 55t50 23zM143 1227q33 0 62 -23t35 -55q7 -33 -12 -56.5t-52 -23.5q-32 0 -60.5 23t-35.5 57q-6 32 12.5 55t50.5 23zM391 1227q34 0 62 -23t34 -55q7 -34 -11 -57
t-52 -23q-31 0 -60 23.5t-36 56.5q-6 32 13 55t50 23zM586 -8q22 -94 12 -168t-37 -127t-74.5 -89.5t-99.5 -56.5t-113 -28l-55 98q56 9 100 25t84.5 44.5t61 69t29 98.5t-10.5 134l-196 928h102z" />
    <glyph glyph-name="uni06A1" unicode="&#x6a1;" horiz-adv-x="1996" 
d="M1802 932l170 -793q11 -59 -20.5 -99t-89.5 -40h-1143q-188 0 -349.5 134t-201.5 323l-55 258h104l55 -262q32 -145 156.5 -248t267.5 -103h666q-108 50 -191.5 150.5t-107.5 214.5q-27 126 13.5 233t135 169.5t220.5 62.5h370zM1800 102q31 0 48 22.5t10 53.5l-138 651
h-266q-152 0 -237.5 -106.5t-53.5 -257.5q20 -93 88.5 -178t157.5 -135t170 -50h221z" />
    <glyph glyph-name="uni06A4" unicode="&#x6a4;" horiz-adv-x="1996" 
d="M1360 1452q32 0 61.5 -23t36.5 -55q6 -33 -13 -56.5t-52 -23.5t-61 23.5t-34 56.5q-7 32 11.5 55t50.5 23zM1284 1223q34 0 62 -23t36 -55q7 -32 -12 -56t-51 -24t-60 23.5t-36 56.5q-7 32 11.5 55t49.5 23zM1532 1223q34 0 63 -23t35 -55q8 -32 -10.5 -56t-52.5 -24
q-31 0 -60.5 24t-36.5 56q-6 32 12.5 55t49.5 23zM1802 932l170 -793q11 -59 -20.5 -99t-89.5 -40h-1143q-188 0 -349.5 134t-201.5 323l-55 258h104l55 -262q32 -145 156.5 -248t267.5 -103h666q-108 50 -191.5 150.5t-107.5 214.5q-27 126 13.5 233t135 169.5t220.5 62.5
h370zM1800 102q31 0 48 22.5t10 53.5l-138 651h-266q-152 0 -237.5 -106.5t-53.5 -257.5q20 -93 88.5 -178t157.5 -135t170 -50h221z" />
    <glyph glyph-name="uni06A9" unicode="&#x6a9;" horiz-adv-x="2004" 
d="M1913 453l94 -453h-1343q-152 0 -282.5 107t-162.5 258l-74 346h107l74 -346q23 -109 115 -186t200 -77h1241l-72 344q-34 158 -169.5 269.5t-292.5 111.5h-527l-96 117l297 584l96 -62l-276 -536h493q197 0 366 -139.5t212 -337.5z" />
    <glyph glyph-name="uni06AF" unicode="&#x6af;" horiz-adv-x="2004" 
d="M903 1561l-280 -549l-50 35l281 546zM1913 453l94 -453h-1343q-152 0 -282.5 107t-162.5 258l-74 346h107l74 -346q23 -109 115 -186t200 -77h1241l-72 344q-34 158 -169.5 269.5t-292.5 111.5h-527l-96 117l297 584l96 -62l-276 -536h493q197 0 366 -139.5t212 -337.5z
" />
    <glyph glyph-name="uni06BA" unicode="&#x6ba;" horiz-adv-x="1347" 
d="M1311 -397h-490q-129 0 -251 63t-207.5 171t-112.5 235l-60 278h103l59 -278q32 -151 163.5 -260t283.5 -109h446q25 0 39 17t10 42l-239 1127h102l250 -1170q9 -49 -18.5 -82.5t-77.5 -33.5z" />
    <glyph glyph-name="uni06BE" unicode="&#x6be;" horiz-adv-x="1460" 
d="M735 1061q236 -64 415 -251t232 -435l50 -238q12 -56 -18.5 -96.5t-86.5 -40.5h-1198l-20 102h315q-88 43 -153 125.5t-87 180.5q-33 160 59 269t255 109q168 0 309.5 -118.5t175.5 -284.5l49 -229q8 -28 -2 -52h262q20 0 31 15t6 35l-47 223q-44 209 -194.5 369.5
t-352.5 216.5q-185 53 -362 53l-19 100q180 -2 381 -53zM520 684q-120 0 -189.5 -83t-43.5 -206t128 -208t218 -85h270q15 0 25 11t6 26l-53 250q-25 119 -131 207t-230 88z" />
    <glyph glyph-name="uni06C1" unicode="&#x6c1;" horiz-adv-x="1038" 
d="M66 932h421q173 0 319 -121t181 -293l23 -100q24 -114 -8.5 -209.5t-116.5 -152t-201 -56.5q-180 0 -324 110.5t-180 280.5zM664 102q136 0 204.5 91t40.5 225l-22 96q-26 131 -136.5 223t-240.5 92h-320l93 -430q21 -97 82.5 -166t138 -100t160.5 -31z" />
    <glyph glyph-name="uni06C2" unicode="&#x6c2;" horiz-adv-x="1038" 
d="M532 1122l13 -61h-342l-15 61h72q-59 52 -70 107q-12 71 26 117.5t103 46.5q62 0 116.5 -42t74.5 -98l-47 -24q-14 42 -51.5 72t-79.5 30q-43 0 -64.5 -30t-11.5 -76q8 -40 42.5 -71.5t78.5 -31.5h155zM68 932h421q173 0 319 -121t181 -293l23 -100q24 -114 -8.5 -209.5
t-116.5 -152t-201 -56.5q-180 0 -324 110.5t-180 280.5zM666 102q136 0 204.5 91t40.5 225l-22 96q-26 131 -136.5 223t-240.5 92h-319l92 -430q21 -97 82.5 -166t138 -100t160.5 -31z" />
    <glyph glyph-name="uni06C3" unicode="&#x6c3;" horiz-adv-x="1038" 
d="M311 1260q32 0 61.5 -23.5t37.5 -54.5q6 -34 -13 -57t-53 -23q-31 0 -59.5 23.5t-34.5 56.5q-8 31 10.5 54.5t50.5 23.5zM559 1260q33 0 61.5 -23.5t36.5 -54.5q7 -34 -11 -57t-52 -23q-31 0 -60 23.5t-36 56.5q-7 31 11.5 54.5t49.5 23.5zM66 932h421q173 0 319 -121
t181 -293l23 -100q24 -114 -8.5 -209.5t-116.5 -152t-201 -56.5q-180 0 -324 110.5t-180 280.5zM664 102q136 0 204.5 91t40.5 225l-22 96q-26 131 -136.5 223t-240.5 92h-320l93 -430q21 -97 82.5 -166t138 -100t160.5 -31z" />
    <glyph glyph-name="uni06CC" unicode="&#x6cc;" horiz-adv-x="2002" 
d="M1808 932l197 -928h-104l-172 825h-377q-64 0 -100.5 -47t-22.5 -112l198 -938q10 -51 -18 -86t-78 -35h-510q-127 0 -249.5 63.5t-209.5 173t-114 238.5l-62 289h105l61 -289q32 -154 163.5 -263.5t285.5 -109.5h465q24 0 37.5 18t7.5 44l-191 895q-23 108 39.5 185
t171.5 77h477z" />
    <glyph glyph-name="uni06D2" unicode="&#x6d2;" horiz-adv-x="1230" 
d="M592 0q-141 0 -254 113q-114 111 -111 254l13 354l106 -27l-14 -354q-3 -85 69 -164q77 -74 168 -74h813l21 -102h-811z" />
    <glyph glyph-name="uni06D3" unicode="&#x6d3;" horiz-adv-x="1230" 
d="M436 870l15 -59h-345l-12 59h70q-57 49 -68 107q-12 71 25.5 117.5t101.5 46.5q62 0 116 -41.5t75 -98.5l-47 -22q-14 42 -50.5 71t-78.5 29q-43 0 -65 -29.5t-13 -76.5q8 -40 42.5 -71.5t78.5 -31.5h155zM592 0q-141 0 -254 113q-114 111 -111 254l13 354l106 -27
l-14 -354q-3 -85 69 -164q77 -74 168 -74h813l21 -102h-811z" />
    <glyph glyph-name="uni06D4" unicode="&#x6d4;" horiz-adv-x="1228" 
 />
    </font>
</defs>
</svg>
