<?xml version="1.0" encoding="UTF-8"?>
<svg id="Layer_1" xmlns="http://www.w3.org/2000/svg" viewBox="0 0 1920 1080">
  <path d="M0,0v1080h1920V0H0ZM969.06,204.1h342.81c1.21,1.41,2.42,2.81,3.64,4.22-12.94,11.77-26.23,23.2-38.75,35.4-20.27,19.76-39.77,40.31-60.22,59.88-4.54,4.34-11.62,8.47-17.56,8.51-74.46.54-148.92.32-223.38.24-1.65,0-3.3-.67-6.54-1.37v-106.89ZM538.01,204.41h308.87c-9.66,9.72-17.47,17.61-25.3,25.48-24.46,24.57-48.72,49.34-73.59,73.48-4.52,4.38-11.54,8.68-17.44,8.74-61.76.6-123.52.34-185.28.22-2.18,0-4.37-.92-7.26-1.57v-106.35ZM1371.81,368.83c-141.35,141.8-282.82,283.49-423.16,426.29-42.17,42.91-90.3,71.69-150.2,79.05-133.9,16.45-252.24-86.25-261.39-223.25-3-45,3.42-81.53,41.31-110.84,24.27-18.78,44-43.44,69.17-68.9,0,32.48,0,59.99,0,87.51,0,26.65-.04,53.3,0,79.95.11,68.31,51.07,123.4,117.31,126.87,66.28,3.47,122.9-45.86,130.31-113.53,7.06-64.5-39.77-124.12-105.99-134.89-5.06-.82-10.17-1.33-17.42-2.27,0-22.06,0-43.9,0-65.74,0-29.55-.34-59.1.27-88.63.13-6.32,1.84-14.36,5.94-18.58,43.13-44.42,86.88-88.23,130.52-132.15,1.03-1.03,2.72-1.4,6.05-3.04,0,49.27.25,97.1-.38,144.91-.06,4.75-4.76,10.14-8.54,14.02-17.28,17.72-34.99,35-52.93,52.82,93.73,52.32,117.23,79.32,146.91,166.67,127.03-124.99,254.61-250.53,382.58-376.44.3,3.08,1.07,7.28,1.08,11.48.09,39.97-.38,79.95.33,119.91.21,11.95-3.27,20.26-11.76,28.77Z"/>
</svg>